<?xml version="1.0" encoding="utf-8"?>
<!-- Generator: Adobe Illustrator 18.0.0, SVG Export Plug-In . SVG Version: 6.00 Build 0)  -->
<!DOCTYPE svg PUBLIC "-//W3C//DTD SVG 1.1//EN" "http://www.w3.org/Graphics/SVG/1.1/DTD/svg11.dtd">
<svg version="1.1" id="Layer_1" xmlns="http://www.w3.org/2000/svg" xmlns:xlink="http://www.w3.org/1999/xlink" x="0px" y="0px"
	 viewBox="0 0 792 1224" enable-background="new 0 0 792 1224" xml:space="preserve">
<g>
	<g>
		<path fill="#BEAC6C" d="M506.1,505.1c53.7,34.2,106.9,73.2,167.6,94.4c-0.5-6-1.6-12.5-2.2-18.4c-31.5,17.9-61.8,36.9-92.2,57
			c-26,17.4-55.3,34.2-71.6,61.8c-6.5,11.4,10.8,21.7,17.4,10.3c15.7-26.6,47.2-42.9,72.7-59.7c27.1-17.9,55.3-35.3,84.1-51.5
			c8.1-4.9,5.4-15.7-2.2-18.4C621.1,559.9,569,521.4,517,488.3C505,480.2,494.7,498.1,506.1,505.1L506.1,505.1z"/>
	</g>
</g>
<g>
	<g>
		<path fill="#BEAC6C" d="M505,493.2c-1.6,11.4,1.1,15.7,7.6,25.5c10.3,16.3,9.8,39.1,9.2,57.5c-1.1,40.7-9.8,80.8-21.7,119.3
			c-3.8,11.4,12.5,17.4,18.4,7.6c1.6-2.7,3.3-5.4,4.9-8.1c7.1-11.4-10.8-21.7-17.4-10.3c-1.6,2.7-3.3,5.4-4.9,8.1
			c6,2.7,12.5,5.4,18.4,7.6c11.9-37.4,19-75.9,21.7-115.5c1.1-14.6,1.6-30.4-1.1-44.5c-1.6-8.1-3.3-15.2-6-23.3
			c-1.6-4.9-10.8-14.6-10.3-19.5C526.7,485.6,507.2,480.2,505,493.2L505,493.2z"/>
	</g>
</g>
<g>
	<g>
		<path fill="#BEAC6C" d="M648.2,582.7c-138.9-10.3-278.8-9.8-417.7,2.2c-13,1.1-13,21.7,0,20.6c138.9-11.9,278.3-13,417.7-2.2
			C661.3,603.9,661.3,583.8,648.2,582.7L648.2,582.7z"/>
	</g>
</g>
<g>
	<g>
		<path fill="#BEAC6C" d="M333.1,583.2c-9.8-15.2-18.4-32.5-30.4-46.1c-8.7-9.8-24.4-6.5-35.8-5.4c-51,6.5-102,13-153,19.5
			c-9.2,1.1-15.2,13.6-4.9,19c34.2,18.4,70.5,32.5,108.5,41.8c12.5,3.3,17.9-16.3,5.4-19.5c-36.3-9.2-70.5-22.2-103.6-39.6
			c-1.6,6.5-3.3,12.5-4.9,19c34.2-4.3,67.8-8.7,102-13c16.8-2.2,34.2-4.3,51-6.5c27.7-3.8,35.8,21.2,48.3,41.2
			C322.8,604.4,340.1,594.1,333.1,583.2L333.1,583.2z"/>
	</g>
</g>
<g>
	<g>
		<path fill="#BEAC6C" d="M218.6,597.4c-26.6,26-52.6,52.6-80.3,77.6c-6,5.4-1.6,18.4,7.1,17.4c52.6-7.1,105.2-9.8,158.4-8.1
			c8.1,0,12.5-8.7,8.7-15.2c-9.8-17.9,20.6-60.8,29.8-76.5c6.5-11.4-10.8-21.7-17.4-10.3c-14.1,23.9-45,68.4-29.8,96.6
			c2.7-4.9,6-10.3,8.7-15.2c-53.2-1.6-105.8,1.1-158.4,8.1c2.2,6,4.9,11.4,7.1,17.4c27.7-25,53.7-51.5,80.3-77.6
			C242.5,602.8,227.8,588.1,218.6,597.4L218.6,597.4z"/>
	</g>
</g>
<g>
	<g>
		<path fill="#BEAC6C" d="M534.3,532.3c-4.3,0.5-9.2,62.9-9.8,67.3c-3.3,22.8-7.6,45.6-13,67.8c-2.2,9.8,9.8,17.4,16.8,9.8
			c15.2-15.7,18.4-36.3,23.9-57c7.6-30.4,12.5-61.3,11.9-92.8c-4.9,2.7-10.3,6-15.2,8.7c3.8,2.2-2.7,50.4-2.2,57.5
			c0,23.3-9.2,45.6-22.8,64c-6,8.1,6,20.1,14.1,14.1c38.5-28.8,40.1-78.7,45.6-122.6c-4.3,3.3-8.7,6.5-13,9.8
			c1.6,0.5-4.9,42.9-5.4,45.6c-3.8,20.1-15.2,36.9-32.5,47.7c-11.4,7.1-1.6,23.3,10.3,17.4c39.6-19.5,50.4-61.3,57-102
			c-4.3,2.2-8.1,4.9-12.5,7.1c-2.2-0.5-19.5,51-20.6,55.9c-2.2,10.8,12.5,17.9,18.4,7.6c12.5-20.6,21.2-41.8,27.1-65.1
			c-3.3,2.7-6.5,4.9-9.8,7.6c-8.1,0-17.4,30.9-20.1,36.9c-4.3,9.8,7.6,21.7,15.7,12.5c13-15.2,22.8-30.9,29.8-49.4
			c-5.4,1.6-11.4,3.3-16.8,4.3c7.6,6.5-19,23.9-23.9,28.2c-9.2,8.1,2.7,20.6,12.5,15.7c16.8-8.1,30.9-17.9,44.5-30.4
			c6.5-6,1.6-17.4-7.1-17.4c-11.4,0-21.7,1.6-32.5,5.4c-12.5,4.3-7.1,23.9,5.4,19.5c9.2-3.3,17.4-4.9,27.1-4.9
			c-2.2-6-4.9-11.4-7.1-17.4c-12.5,11.4-25.5,20.1-40.1,27.1c4.3,5.4,8.1,10.8,12.5,15.7c15.2-13,51.5-34.7,23.9-57
			c-6.5-4.9-14.1-3.3-16.8,4.3c-6,15.2-14.1,27.7-24.4,40.1c5.4,4.3,10.8,8.1,15.7,12.5c6-13,40.1-68.4,2.2-67.3
			c-4.3,0-8.7,3.3-9.8,7.6c-5.4,21.7-14.1,41.2-25.5,60.2c6,2.7,12.5,5.4,18.4,7.6c2.7-13.6,7.1-25.5,14.6-37.4
			c3.8-6.5,9.2-13.6,9.2-21.2c0-11.9-6.5-19-17.4-22.2c-4.9-1.6-11.4,1.6-12.5,7.1c-6,35.3-13,72.7-47.7,90
			c3.3,6,7.1,11.9,10.3,17.4c26-15.7,38-40.1,43.9-69.4c3.3-16.3,13-57-10.8-61.3c-7.1-1.6-11.9,2.7-13,9.8
			c-4.3,34.7-4.9,81.9-35.8,105.2c4.9,4.9,9.2,9.2,14.1,14.1c17.9-25,25.5-52.6,25.5-83.5c0-22.2,16.3-51.5-7.6-66.2
			c-6.5-3.8-15.7,1.1-15.2,8.7c0.5,22.8-1.6,45-6.5,67.3c-4.3,21.2-7.6,51.5-22.8,67.8c5.4,3.3,11.4,6.5,16.8,9.8
			c8.7-36.3,14.1-72.7,18.4-109.6c1.6-14.6,12.5-54.2-15.2-51.5C521.3,513.3,521.3,533.9,534.3,532.3L534.3,532.3z"/>
	</g>
</g>
</svg>
