<?xml version="1.0" encoding="utf-8"?>
<!-- Generator: Adobe Illustrator 18.0.0, SVG Export Plug-In . SVG Version: 6.00 Build 0)  -->
<!DOCTYPE svg PUBLIC "-//W3C//DTD SVG 1.1//EN" "http://www.w3.org/Graphics/SVG/1.1/DTD/svg11.dtd">
<svg version="1.1" id="Layer_1" xmlns="http://www.w3.org/2000/svg" xmlns:xlink="http://www.w3.org/1999/xlink" x="0px" y="0px"
	 viewBox="0 0 792 1224" enable-background="new 0 0 792 1224" xml:space="preserve">
<g>
	<g>
		<path fill="#BEAC6C" d="M266.5,502.8C222.4,544,173.6,579,120.8,607.4c-9.1,5.1-4.1,16.8,4.6,17.8c27.4,3,49.8,18.8,72.1,33.5
			c24.4,16.8,50.8,30,77.2,42.6c11.2,5.1,20.8-11.2,9.6-16.2c-28.9-14.2-56.9-28.9-83.8-47.2c-23.4-15.7-46.7-28.9-75.1-32
			c1.5,6.1,3,11.7,4.6,17.8c54.3-29.4,104.6-65.5,149.8-107.6C288.9,507.9,275.2,494.7,266.5,502.8L266.5,502.8z"/>
	</g>
</g>
<g>
	<g>
		<path fill="#BEAC6C" d="M263.5,505.9c-17.8,31-25.4,65-23.4,100.5c1.5,27.4,12.2,72.1,36,88.8c3.6,2.5,8.6,1.5,11.7-1.5
			c0.5-0.5,1-1,1-1.5c3-3,4.1-7.6,1.5-11.7c-0.5-0.5-0.5-1-1-1c-6.6-10.2-22.8-1-16.2,9.6c0.5,0.5,0.5,1,1,1c0.5-4.1,1-7.6,1.5-11.7
			c-0.5,0.5-1,1-1,1.5c4.1-0.5,7.6-1,11.7-1.5c-20.3-13.7-25.9-58.4-26.9-80.2c-1.5-29.4,6.6-57.9,21.3-83.3
			C286.3,504.9,269.6,495.2,263.5,505.9L263.5,505.9z"/>
	</g>
</g>
<g>
	<g>
		<path fill="#BEAC6C" d="M137.1,618.6c156.9-15.2,314.3-24.4,472.2-26.4c12.2,0,12.2-19.3,0-19.3c-157.9,2-315.3,11.2-472.2,26.4
			C124.9,600.8,124.9,619.6,137.1,618.6L137.1,618.6z"/>
	</g>
</g>
<g>
	<g>
		<path fill="#BEAC6C" d="M514.3,593.2c21.8-21.3,38.6-45.2,50.8-73.6c-3.6,1.5-7.1,3-10.7,4.6c47.2,8.6,98-7.1,144.7-14.7
			c-3-5.1-6.1-10.7-9.1-15.7c-34,26.4-66,55.3-95.4,86.8c-8.6,9.1,5.1,22.3,13.7,13.7c30-31.5,61.4-60.4,95.4-86.8
			c8.1-6.6-1-17.3-9.1-15.7c-42.6,7.1-91.4,22.8-134.5,14.7c-4.1-0.5-9.1,0.5-10.7,4.6c-11.2,26.4-26.9,49.2-47.7,69.6
			C492,588.6,505.7,601.8,514.3,593.2L514.3,593.2z"/>
	</g>
</g>
<g>
	<g>
		<path fill="#BEAC6C" d="M505.7,582c-0.5,0-0.5,0-1,0c-6.6-2-11.7,3-12.2,9.1c-1,11.7,13.7,17.8,20.3,24.9
			c16.2,16.8,22.3,41.6,31.5,62.4c6.1,13.7,22.8,12.2,34,9.6c31-6.1,61.4-10.7,92.9-10.7c8.1,0,13.2-10.7,6.6-16.2
			c-28.4-24.4-53.8-50.8-76.7-80.2c-7.6-9.6-20.8,4.1-13.7,13.7c22.8,29.4,48.2,55.8,76.7,80.2c2-5.6,4.6-10.7,6.6-16.2
			c-19.3,0-38.6,1-57.9,3.6c-7.1,1-14.2,2-21.3,3.6c-14.2,2.5-28.4,11.2-35-5.6c-5.6-15.2-12.2-30-20.3-43.7
			c-2.5-4.6-24.9-26.9-25.4-25.4c-4.1,3-8.1,6.1-12.2,9.1c0.5,0,0.5,0,1,0C512.8,603.9,517.3,585.6,505.7,582L505.7,582z"/>
	</g>
</g>
<g>
	<g>
		<path fill="#BEAC6C" d="M229,548.5c0,10.2-1.5,18.8-5.6,28.4c6.1,1.5,11.7,3,17.8,4.6c0.5-2.5,1.5-5.6,2-8.1
			c7.6-8.6-2-19.3-11.7-14.7c-6.6,3-11.7,6.6-17.3,11.7c-9.1,8.6-20.3,11.2-32,12.7c-11.7,1.5-18.8,9.6-22.8,19.3
			c-3,7.1,5.6,13.2,11.7,11.7c22.3-5.6,44.7-8.6,67.5-9.1c12.2-0.5,12.2-19.3,0-19.3c-25.9,1-62.4,3-80.7,23.9
			c-5.1,5.6-2,16.8,6.6,16.2c23.9-1.5,47.7-2.5,71.6-4.1c-1-6.1-1.5-12.7-2.5-18.8c-20.3,3-40.6,5.6-60.9,8.6
			c-7.1,1-8.6,11.2-4.1,15.7c6.1,6.1,12.7,9.6,21.3,10.7c12.2,1.5,23.9,5.6,35.5,6.6c16.2,1.5,27.4-10.7,20.3-25.9
			c-1.5-4.1-7.1-5.1-10.7-4.6c-6.6,1.5-8.1,2-14.2,5.1c-6.1,3-6.6,13.2,0,16.2c5.1,2.5,7.1,3.6,12.7,4.1c0-6.1,0-12.2,0-18.3
			c-12.2,3-23.9,5.1-36.6,5.6c-7.6,0.5-13.7,10.7-6.6,16.2c6.1,5.1,11.7,7.6,19.3,9.6c3,0.5,33,2,29.4,7.1c2.5-1.5,5.6-3,8.1-4.6
			c-9.1,1-18.8-10.2-24.9-15.2c-9.1-8.6-22.3,5.1-13.7,13.7c9.6,9.1,42.6,37.1,49.8,10.2c8.6-32-43.7-23.9-55.3-33.5
			c-2,5.6-4.6,10.7-6.6,16.2c14.2-0.5,27.9-2.5,41.6-6.1c8.6-2,9.6-16.8,0-18.3c-2.5-0.5-5.6-1.5-8.1-2c0,5.6,0,11.2,0,16.2
			c3-1,6.6-2,9.6-3.6c-3.6-1.5-7.1-3-10.7-4.6c-5.1-12.2-39.1-5.6-47.7-14.2c-1.5,5.1-3,10.7-4.1,15.7c20.3-3,40.6-5.6,60.9-8.6
			c10.7-1.5,8.1-19.3-2.5-18.8c-23.9,1.5-47.7,2.5-71.6,4.1c2,5.6,4.6,10.7,6.6,16.2c14.7-16.8,47.2-17.8,67.5-18.3
			c0-6.1,0-12.7,0-19.3c-24.9,1-48.7,4.1-72.6,10.2c4.1,4.1,7.6,7.6,11.7,11.7c4.6-10.7,24.4-6.1,33.5-11.2
			c10.7-6.1,18.3-16.2,30-21.3c-4.1-5.1-7.6-10.2-11.7-14.7c-5.6,6.6-8.1,12.2-7.1,21.8c1,8.1,13.2,14.2,17.8,4.6
			c5.6-12.7,8.6-24.4,8.6-38.1C247.8,535.8,229,535.8,229,548.5L229,548.5z"/>
	</g>
</g>
</svg>
