<?xml version="1.0" encoding="utf-8"?>
<!-- Generator: Adobe Illustrator 18.0.0, SVG Export Plug-In . SVG Version: 6.00 Build 0)  -->
<!DOCTYPE svg PUBLIC "-//W3C//DTD SVG 1.1//EN" "http://www.w3.org/Graphics/SVG/1.1/DTD/svg11.dtd">
<svg version="1.1" id="Layer_1" xmlns="http://www.w3.org/2000/svg" xmlns:xlink="http://www.w3.org/1999/xlink" x="0px" y="0px"
	 viewBox="0 0 792 1224" enable-background="new 0 0 792 1224" xml:space="preserve">
<g>
	<g>
		<path fill="#F0A586" d="M581.2,435c-111.7,98.3-216.3,203.7-313,317c-10.2,11.8,0,26.7,14.2,24.4c7.1-0.8,14.2-2.4,21.2-3.1
			c18.9-3.1,11-31.5-7.9-28.3c-7.1,0.8-14.2,2.4-21.2,3.1c4.7,7.9,9.4,16.5,14.2,24.4C385.4,660,490,554.6,601.7,456.3
			C615.8,443.7,595.4,422.5,581.2,435L581.2,435z"/>
	</g>
</g>
<g>
	<g>
		<path fill="#F0A586" d="M243,461c97.5,105.4,190.3,215.5,279.2,328c11.8,14.9,32.2-6.3,21.2-21.2
			c-88.9-112.5-181.7-221.8-279.2-328C250.9,425.6,230.4,446.8,243,461L243,461z"/>
	</g>
</g>
<g>
	<g>
		<path fill="#F0A586" d="M299.7,762.2c-9.4-29.1-46.4-34.6-63.7-8.7c-19.7,30.7,21.2,54.3,47.2,42.5c22-9.4,24.4-37.8,14.2-57.4
			c-13.4-25.2-47.2-21.2-64.5-3.1c-20.4,22-13.4,52.7,8.7,70c22,16.5,52.7,7.9,66.1-14.2c13.4-22,5.5-52.7-18.1-62.9
			c-11.8-4.7-24.4-5.5-36.2-0.8c-16.5,6.3-22,18.9-26.7,34.6c-4.7,18.1,23.6,26,28.3,7.9c3.1-10.2,3.9-16.5,15.7-16.5
			c8.7,0,13.4,6.3,13.4,14.2c0.8,20.4-26.7,22-33.8,4.7c-5.5-14.9,18.1-33,22.8-13.4c1.6,6.3-1.6,11-7.9,10.2
			c-2.4,0-3.9-0.8-6.3-2.4c3.1,1.6-0.8,3.1,3.1-1.6c2.4-3.1,7.1,0.8,7.9,3.1C276.8,788.2,305.9,780.3,299.7,762.2L299.7,762.2z"/>
	</g>
</g>
<g>
	<g>
		<path fill="#F0A586" d="M236.7,464.9c19.7,6.3,37-15.7,30.7-33.8c-7.9-22-34.6-19.7-49.5-7.9c-7.9,6.3-11,18.1-11.8,27.5
			c-0.8,11.8,0,21.2,11.8,26.7c20.4,8.7,45.6-0.8,52.7-22c3.1-9.4,3.1-20.4-0.8-29.9c-3.9-8.7-11.8-12.6-20.4-15.7
			c-15.7-5.5-35.4,1.6-47.2,13.4c-5.5,6.3-10.2,14.9-10.2,23.6c0,9.4,7.9,18.1,14.9,22.8c15.7,11,36.2,9.4,49.5-3.1
			c14.2-12.6-6.3-33-21.2-21.2c-3.9,3.1-12.6,1.6-14.9-3.1c0,2.4,0,5.5,0,7.9c1.6-8.7,9.4-14.2,18.1-12.6c4.7,0.8,5.5,3.9,3.1,8.7
			c-3.1,5.5-9.4,5.5-14.9,3.1c2.4,3.9,4.7,8.7,7.1,12.6c-0.8-6.3-0.8-14.2,3.1-18.9c0.8-0.8,2.4-0.8,3.1-0.8
			c-4.7-0.8-3.9-9.4,2.4-7.1C226.5,430.3,218.6,459.4,236.7,464.9L236.7,464.9z"/>
	</g>
</g>
<g>
	<g>
		<path fill="#F0A586" d="M576.5,457.1c11,3.9,18.9,2.4,22-5.5c0.8-1.6,2.4-3.9,3.1-6.3c1.6-4.7,2.4-9.4,0.8-14.2
			c-0.8-3.1-2.4-7.9-4.7-10.2c-1.6-1.6-3.1-2.4-3.9-3.1c-11-6.3,6.3,4.7-3.9-2.4c-14.2-9.4-33-9.4-48-0.8
			c-35.4,21.2-14.9,75.5,22.8,76.3c18.9,0,33.8-13.4,40.1-29.9c7.1-18.9-5.5-38.5-20.4-48.8c-15.7-10.2-36.2-5.5-49.5,7.1
			c-13.4,13.4-15.7,33.8-7.9,50.3c2.4,6.3,11,8.7,16.5,7.1c10.2-3.1,17.3-8.7,23.6-17.3c3.1-4.7,2.4-10.2,0-14.9
			c-7.9-14.2-28.3-17.3-39.3-4.7c-6.3,7.9-4.7,17.3,3.1,22.8c14.9,11,34.6-5.5,29.9-22c-5.5-18.1-33.8-10.2-28.3,7.9
			c4.7-3.9,8.7-7.1,13.4-11c0.8,7.9,2.4,15.7,3.1,22.8c-2.4,0.8-4.7,0.8-7.1-1.6c0-4.7,0-10.2,0-14.9c-1.6,2.4-3.1,3.1-5.5,3.9
			c5.5,2.4,11,4.7,16.5,7.1c-2.4-5.5,0.8-13.4,5.5-16.5c7.1-4.7,15.7,2.4,18.1,9.4c2.4,7.1-5.5,13.4-12.6,14.2
			c-8.7,0.8-11.8-8.7-11.8-15.7s9.4-8.7,14.9-8.7c4.7,0,7.9,5.5,11.8,6.3c-10.2-3.1-3.9-13.4-8.7-5.5c-1.6,2.4-2.4,5.5-3.1,8.7
			c-2.4,11,5.5,25.2,18.1,23.6c11-0.8,23.6-10.2,18.1-22.8c-3.1-7.1-9.4-12.6-18.1-10.2C579.6,440.5,573.4,449.2,576.5,457.1
			L576.5,457.1z"/>
	</g>
</g>
<g>
	<g>
		<path fill="#F0A586" d="M553.7,451.6c-1.6-1.6-3.1-3.1-3.9-4.7c0-0.8,0-1.6,0-2.4c0,1.6,0,0.8,0-1.6c-0.8,3.1,1.6-3.1,0,0
			c0.8-0.8,0.8-0.8,1.6-1.6c-0.8,0.8-0.8,0.8,0.8-0.8c-3.1,2.4,2.4-0.8-0.8,0c3.1-0.8,0,0-0.8,0c-2.4,0-4.7,0-7.9-0.8
			c-7.9-0.8-14.9,7.9-14.9,14.9c0,8.7,7.1,13.4,14.9,14.9c11.8,1.6,25.2-0.8,32.2-11.8c7.1-11,4.7-25.2-6.3-32.2
			c-7.1-3.9-16.5-1.6-20.4,5.5C544.3,439,547.4,447.6,553.7,451.6L553.7,451.6z"/>
	</g>
</g>
<g>
	<g>
		<path fill="#F0A586" d="M530.9,801.5c24.4,3.1,32.2-27.5,11-37c-18.9-8.7-43.3,11-37.8,31.5c6.3,21.2,30.7,26.7,48.8,16.5
			c10.2-6.3,15.7-18.1,17.3-29.9c1.6-14.2-0.8-24.4-13.4-31.5c-19.7-10.2-47.2-9.4-62.1,9.4c-14.2,18.1-12.6,44,7.9,55.8
			c18.1,11,43.3,2.4,51.1-16.5c7.9-19.7-4.7-43.3-25.2-48.8c-18.1-4.7-26,23.6-7.9,28.3c12.6,3.1,0.8,18.1-4.7,10.2
			c-3.1-4.7,0.8-11,4.7-14.2c8.7-5.5,19.7-1.6,27.5,3.1c-2.4-3.1-4.7-5.5-7.1-8.7c0.8,5.5,0.8,16.5-7.1,16.5c-3.1,0,0,1.6-0.8,3.1
			c0.8-0.8,0.8-0.8-0.8,0c-1.6-0.8-3.1-0.8-4.7-1.6c7.1,6.3,8.7,1.6,5.5-16.5c2.4,0,5.5,0,7.9,0c-0.8,0-0.8,0-1.6,0
			c-7.9-0.8-15.7,1.6-18.1,10.2C518.3,790.5,523,800.8,530.9,801.5L530.9,801.5z"/>
	</g>
</g>
</svg>
