<?xml version="1.0" encoding="utf-8"?>
<!-- Generator: Adobe Illustrator 18.0.0, SVG Export Plug-In . SVG Version: 6.00 Build 0)  -->
<!DOCTYPE svg PUBLIC "-//W3C//DTD SVG 1.1//EN" "http://www.w3.org/Graphics/SVG/1.1/DTD/svg11.dtd">
<svg version="1.1" id="Layer_1" xmlns="http://www.w3.org/2000/svg" xmlns:xlink="http://www.w3.org/1999/xlink" x="0px" y="0px"
	 viewBox="0 0 100.7 100" enable-background="new 0 0 100.7 100" xml:space="preserve">
<g>
	<g>
		<path fill="#FFFFFF" d="M73.9,27.5C59.7,40,46.4,53.4,34.1,67.8c-1.3,1.5,0,3.4,1.8,3.1c0.9-0.1,1.8-0.3,2.7-0.4
			c2.4-0.4,1.4-4-1-3.6c-0.9,0.1-1.8,0.3-2.7,0.4c0.6,1,1.2,2.1,1.8,3.1C49,56.1,62.3,42.7,76.5,30.2C78.3,28.6,75.7,25.9,73.9,27.5
			L73.9,27.5z"/>
	</g>
</g>
<g>
	<g>
		<path fill="#FFFFFF" d="M30.9,30.8c12.4,13.4,24.2,27.4,35.5,41.7c1.5,1.9,4.1-0.8,2.7-2.7C57.8,55.5,46,41.6,33.6,28.1
			C31.9,26.3,29.3,29,30.9,30.8L30.9,30.8z"/>
	</g>
</g>
<g>
	<g>
		<path fill="#FFFFFF" d="M38.1,69.1c-1.2-3.7-5.9-4.4-8.1-1.1c-2.5,3.9,2.7,6.9,6,5.4c2.8-1.2,3.1-4.8,1.8-7.3
			c-1.7-3.2-6-2.7-8.2-0.4c-2.6,2.8-1.7,6.7,1.1,8.9c2.8,2.1,6.7,1,8.4-1.8c1.7-2.8,0.7-6.7-2.3-8c-1.5-0.6-3.1-0.7-4.6-0.1
			c-2.1,0.8-2.8,2.4-3.4,4.4c-0.6,2.3,3,3.3,3.6,1c0.4-1.3,0.5-2.1,2-2.1c1.1,0,1.7,0.8,1.7,1.8c0.1,2.6-3.4,2.8-4.3,0.6
			c-0.7-1.9,2.3-4.2,2.9-1.7c0.2,0.8-0.2,1.4-1,1.3c-0.3,0-0.5-0.1-0.8-0.3c0.4,0.2-0.1,0.4,0.4-0.2c0.3-0.4,0.9,0.1,1,0.4
			C35.2,72.4,38.9,71.4,38.1,69.1L38.1,69.1z"/>
	</g>
</g>
<g>
	<g>
		<path fill="#FFFFFF" d="M30.1,31.3c2.5,0.8,4.7-2,3.9-4.3c-1-2.8-4.4-2.5-6.3-1c-1,0.8-1.4,2.3-1.5,3.5c-0.1,1.5,0,2.7,1.5,3.4
			c2.6,1.1,5.8-0.1,6.7-2.8c0.4-1.2,0.4-2.6-0.1-3.8c-0.5-1.1-1.5-1.6-2.6-2c-2-0.7-4.5,0.2-6,1.7c-0.7,0.8-1.3,1.9-1.3,3
			c0,1.2,1,2.3,1.9,2.9c2,1.4,4.6,1.2,6.3-0.4c1.8-1.6-0.8-4.2-2.7-2.7c-0.5,0.4-1.6,0.2-1.9-0.4c0,0.3,0,0.7,0,1
			c0.2-1.1,1.2-1.8,2.3-1.6c0.6,0.1,0.7,0.5,0.4,1.1c-0.4,0.7-1.2,0.7-1.9,0.4c0.3,0.5,0.6,1.1,0.9,1.6c-0.1-0.8-0.1-1.8,0.4-2.4
			c0.1-0.1,0.3-0.1,0.4-0.1c-0.6-0.1-0.5-1.2,0.3-0.9C28.8,26.9,27.8,30.6,30.1,31.3L30.1,31.3z"/>
	</g>
</g>
<g>
	<g>
		<path fill="#FFFFFF" d="M73.3,30.3c1.4,0.5,2.4,0.3,2.8-0.7c0.1-0.2,0.3-0.5,0.4-0.8c0.2-0.6,0.3-1.2,0.1-1.8
			c-0.1-0.4-0.3-1-0.6-1.3c-0.2-0.2-0.4-0.3-0.5-0.4c-1.4-0.8,0.8,0.6-0.5-0.3c-1.8-1.2-4.2-1.2-6.1-0.1c-4.5,2.7-1.9,9.6,2.9,9.7
			c2.4,0,4.3-1.7,5.1-3.8c0.9-2.4-0.7-4.9-2.6-6.2c-2-1.3-4.6-0.7-6.3,0.9c-1.7,1.7-2,4.3-1,6.4c0.3,0.8,1.4,1.1,2.1,0.9
			c1.3-0.4,2.2-1.1,3-2.2c0.4-0.6,0.3-1.3,0-1.9c-1-1.8-3.6-2.2-5-0.6c-0.8,1-0.6,2.2,0.4,2.9c1.9,1.4,4.4-0.7,3.8-2.8
			c-0.7-2.3-4.3-1.3-3.6,1c0.6-0.5,1.1-0.9,1.7-1.4c0.1,1,0.3,2,0.4,2.9c-0.3,0.1-0.6,0.1-0.9-0.2c0-0.6,0-1.3,0-1.9
			c-0.2,0.3-0.4,0.4-0.7,0.5c0.7,0.3,1.4,0.6,2.1,0.9c-0.3-0.7,0.1-1.7,0.7-2.1c0.9-0.6,2,0.3,2.3,1.2c0.3,0.9-0.7,1.7-1.6,1.8
			c-1.1,0.1-1.5-1.1-1.5-2c0-0.9,1.2-1.1,1.9-1.1c0.6,0,1,0.7,1.5,0.8c-1.3-0.4-0.5-1.7-1.1-0.7c-0.2,0.3-0.3,0.7-0.4,1.1
			c-0.3,1.4,0.7,3.2,2.3,3c1.4-0.1,3-1.3,2.3-2.9c-0.4-0.9-1.2-1.6-2.3-1.3C73.7,28.2,72.9,29.3,73.3,30.3L73.3,30.3z"/>
	</g>
</g>
<g>
	<g>
		<path fill="#FFFFFF" d="M70.4,29.6c-0.2-0.2-0.4-0.4-0.5-0.6c0-0.1,0-0.2,0-0.3c0,0.2,0,0.1,0-0.2c-0.1,0.4,0.2-0.4,0,0
			c0.1-0.1,0.1-0.1,0.2-0.2c-0.1,0.1-0.1,0.1,0.1-0.1c-0.4,0.3,0.3-0.1-0.1,0c0.4-0.1,0,0-0.1,0c-0.3,0-0.6,0-1-0.1
			c-1-0.1-1.9,1-1.9,1.9c0,1.1,0.9,1.7,1.9,1.9c1.5,0.2,3.2-0.1,4.1-1.5c0.9-1.4,0.6-3.2-0.8-4.1c-0.9-0.5-2.1-0.2-2.6,0.7
			C69.2,28,69.6,29.1,70.4,29.6L70.4,29.6z"/>
	</g>
</g>
<g>
	<g>
		<path fill="#FFFFFF" d="M67.5,74.1c3.1,0.4,4.1-3.5,1.4-4.7c-2.4-1.1-5.5,1.4-4.8,4c0.8,2.7,3.9,3.4,6.2,2.1
			c1.3-0.8,2-2.3,2.2-3.8c0.2-1.8-0.1-3.1-1.7-4c-2.5-1.3-6-1.2-7.9,1.2c-1.8,2.3-1.6,5.6,1,7.1c2.3,1.4,5.5,0.3,6.5-2.1
			c1-2.5-0.6-5.5-3.2-6.2c-2.3-0.6-3.3,3-1,3.6c1.6,0.4,0.1,2.3-0.6,1.3c-0.4-0.6,0.1-1.4,0.6-1.8c1.1-0.7,2.5-0.2,3.5,0.4
			c-0.3-0.4-0.6-0.7-0.9-1.1c0.1,0.7,0.1,2.1-0.9,2.1c-0.4,0,0,0.2-0.1,0.4c0.1-0.1,0.1-0.1-0.1,0c-0.2-0.1-0.4-0.1-0.6-0.2
			c0.9,0.8,1.1,0.2,0.7-2.1c0.3,0,0.7,0,1,0c-0.1,0-0.1,0-0.2,0c-1-0.1-2,0.2-2.3,1.3C65.9,72.7,66.5,74,67.5,74.1L67.5,74.1z"/>
	</g>
</g>
</svg>
