<?xml version="1.0" encoding="utf-8"?>
<!-- Generator: Adobe Illustrator 18.0.0, SVG Export Plug-In . SVG Version: 6.00 Build 0)  -->
<!DOCTYPE svg PUBLIC "-//W3C//DTD SVG 1.1//EN" "http://www.w3.org/Graphics/SVG/1.1/DTD/svg11.dtd">
<svg version="1.1" id="Layer_1" xmlns="http://www.w3.org/2000/svg" xmlns:xlink="http://www.w3.org/1999/xlink" x="0px" y="0px"
	 viewBox="0 0 146 88" enable-background="new 0 0 146 88" xml:space="preserve">
<g>
	<g>
		<path fill="#FFFFFF" d="M93.3,24.3c9.9,6.3,19.7,13.5,30.9,17.4c-0.1-1.1-0.3-2.3-0.4-3.4c-5.8,3.3-11.4,6.8-17,10.5
			c-4.8,3.2-10.2,6.3-13.2,11.4c-1.2,2.1,2,4,3.2,1.9c2.9-4.9,8.7-7.9,13.4-11c5-3.3,10.2-6.5,15.5-9.5c1.5-0.9,1-2.9-0.4-3.4
			c-10.8-3.8-20.4-10.9-30-17C93.1,19.7,91.2,23,93.3,24.3L93.3,24.3z"/>
	</g>
</g>
<g>
	<g>
		<path fill="#FFFFFF" d="M93.1,22.1c-0.3,2.1,0.2,2.9,1.4,4.7c1.9,3,1.8,7.2,1.7,10.6c-0.2,7.5-1.8,14.9-4,22
			c-0.7,2.1,2.3,3.2,3.4,1.4c0.3-0.5,0.6-1,0.9-1.5c1.3-2.1-2-4-3.2-1.9c-0.3,0.5-0.6,1-0.9,1.5c1.1,0.5,2.3,1,3.4,1.4
			c2.2-6.9,3.5-14,4-21.3c0.2-2.7,0.3-5.6-0.2-8.2c-0.3-1.5-0.6-2.8-1.1-4.3c-0.3-0.9-2-2.7-1.9-3.6C97.1,20.7,93.5,19.7,93.1,22.1
			L93.1,22.1z"/>
	</g>
</g>
<g>
	<g>
		<path fill="#FFFFFF" d="M119.5,38.6c-25.6-1.9-51.4-1.8-77,0.4c-2.4,0.2-2.4,4,0,3.8c25.6-2.2,51.3-2.4,77-0.4
			C121.9,42.5,121.9,38.8,119.5,38.6L119.5,38.6z"/>
	</g>
</g>
<g>
	<g>
		<path fill="#FFFFFF" d="M61.4,38.7c-1.8-2.8-3.4-6-5.6-8.5c-1.6-1.8-4.5-1.2-6.6-1c-9.4,1.2-18.8,2.4-28.2,3.6
			c-1.7,0.2-2.8,2.5-0.9,3.5c6.3,3.4,13,6,20,7.7c2.3,0.6,3.3-3,1-3.6c-6.7-1.7-13-4.1-19.1-7.3c-0.3,1.2-0.6,2.3-0.9,3.5
			c6.3-0.8,12.5-1.6,18.8-2.4c3.1-0.4,6.3-0.8,9.4-1.2c5.1-0.7,6.6,3.9,8.9,7.6C59.5,42.6,62.7,40.7,61.4,38.7L61.4,38.7z"/>
	</g>
</g>
<g>
	<g>
		<path fill="#FFFFFF" d="M40.3,41.3c-4.9,4.8-9.7,9.7-14.8,14.3c-1.1,1-0.3,3.4,1.3,3.2c9.7-1.3,19.4-1.8,29.2-1.5
			c1.5,0,2.3-1.6,1.6-2.8c-1.8-3.3,3.8-11.2,5.5-14.1c1.2-2.1-2-4-3.2-1.9c-2.6,4.4-8.3,12.6-5.5,17.8c0.5-0.9,1.1-1.9,1.6-2.8
			c-9.8-0.3-19.5,0.2-29.2,1.5c0.4,1.1,0.9,2.1,1.3,3.2c5.1-4.6,9.9-9.5,14.8-14.3C44.7,42.3,42,39.6,40.3,41.3L40.3,41.3z"/>
	</g>
</g>
<g>
	<g>
		<path fill="#FFFFFF" d="M98.5,29.3c-0.8,0.1-1.7,11.6-1.8,12.4c-0.6,4.2-1.4,8.4-2.4,12.5c-0.4,1.8,1.8,3.2,3.1,1.8
			c2.8-2.9,3.4-6.7,4.4-10.5c1.4-5.6,2.3-11.3,2.2-17.1c-0.9,0.5-1.9,1.1-2.8,1.6c0.7,0.4-0.5,9.3-0.4,10.6c0,4.3-1.7,8.4-4.2,11.8
			c-1.1,1.5,1.1,3.7,2.6,2.6c7.1-5.3,7.4-14.5,8.4-22.6c-0.8,0.6-1.6,1.2-2.4,1.8c0.3,0.1-0.9,7.9-1,8.4c-0.7,3.7-2.8,6.8-6,8.8
			c-2.1,1.3-0.3,4.3,1.9,3.2c7.3-3.6,9.3-11.3,10.5-18.8c-0.8,0.4-1.5,0.9-2.3,1.3c-0.4-0.1-3.6,9.4-3.8,10.3
			c-0.4,2,2.3,3.3,3.4,1.4c2.3-3.8,3.9-7.7,5-12c-0.6,0.5-1.2,0.9-1.8,1.4c-1.5,0-3.2,5.7-3.7,6.8c-0.8,1.8,1.4,4,2.9,2.3
			c2.4-2.8,4.2-5.7,5.5-9.1c-1,0.3-2.1,0.6-3.1,0.8c1.4,1.2-3.5,4.4-4.4,5.2c-1.7,1.5,0.5,3.8,2.3,2.9c3.1-1.5,5.7-3.3,8.2-5.6
			c1.2-1.1,0.3-3.2-1.3-3.2c-2.1,0-4,0.3-6,1c-2.3,0.8-1.3,4.4,1,3.6c1.7-0.6,3.2-0.9,5-0.9c-0.4-1.1-0.9-2.1-1.3-3.2
			c-2.3,2.1-4.7,3.7-7.4,5c0.8,1,1.5,2,2.3,2.9c2.8-2.4,9.5-6.4,4.4-10.5c-1.2-0.9-2.6-0.6-3.1,0.8c-1.1,2.8-2.6,5.1-4.5,7.4
			c1,0.8,2,1.5,2.9,2.3c1.1-2.4,7.4-12.6,0.4-12.4c-0.8,0-1.6,0.6-1.8,1.4c-1,4-2.6,7.6-4.7,11.1c1.1,0.5,2.3,1,3.4,1.4
			c0.5-2.5,1.3-4.7,2.7-6.9c0.7-1.2,1.7-2.5,1.7-3.9c0-2.2-1.2-3.5-3.2-4.1c-0.9-0.3-2.1,0.3-2.3,1.3c-1.1,6.5-2.4,13.4-8.8,16.6
			c0.6,1.1,1.3,2.2,1.9,3.2c4.8-2.9,7-7.4,8.1-12.8c0.6-3,2.4-10.5-2-11.3c-1.3-0.3-2.2,0.5-2.4,1.8c-0.8,6.4-0.9,15.1-6.6,19.4
			c0.9,0.9,1.7,1.7,2.6,2.6c3.3-4.6,4.7-9.7,4.7-15.4c0-4.1,3-9.5-1.4-12.2c-1.2-0.7-2.9,0.2-2.8,1.6c0.1,4.2-0.3,8.3-1.2,12.4
			c-0.8,3.9-1.4,9.5-4.2,12.5c1,0.6,2.1,1.2,3.1,1.8c1.6-6.7,2.6-13.4,3.4-20.2c0.3-2.7,2.3-10-2.8-9.5
			C96.1,25.8,96.1,29.6,98.5,29.3L98.5,29.3z"/>
	</g>
</g>
</svg>
