<?xml version="1.0" encoding="utf-8"?>
<!-- Generator: Adobe Illustrator 18.0.0, SVG Export Plug-In . SVG Version: 6.00 Build 0)  -->
<!DOCTYPE svg PUBLIC "-//W3C//DTD SVG 1.1//EN" "http://www.w3.org/Graphics/SVG/1.1/DTD/svg11.dtd">
<svg version="1.1" id="Layer_1" xmlns="http://www.w3.org/2000/svg" xmlns:xlink="http://www.w3.org/1999/xlink" x="0px" y="0px"
	 viewBox="0 0 86 164" enable-background="new 0 0 86 164" xml:space="preserve">
<g>
	<g>
		<path fill="#FFFFFF" d="M31.5,65.1c5-11.3,8.9-23,11.8-35c-1.2,0-2.4,0-3.6,0c5,12.6,11.1,24.8,18.3,36.3c1.3,2,4.5,0.2,3.2-1.9
			c-7.1-11.2-13.1-23-17.9-35.4c-0.6-1.6-3.1-2-3.6,0c-2.8,11.7-6.6,23.1-11.4,34.1C27.3,65.4,30.5,67.3,31.5,65.1L31.5,65.1z"/>
	</g>
</g>
<g>
	<g>
		<path fill="#FFFFFF" d="M30.1,68.1c8.2-6.4,19.6-6.5,28-0.6c2,1.4,3.9-1.9,1.9-3.2c-10-6.9-23.1-6.3-32.6,1.2
			C25.6,66.9,28.2,69.6,30.1,68.1L30.1,68.1z"/>
	</g>
</g>
<g>
	<g>
		<path fill="#FFFFFF" d="M40.4,33.5c1.4,30.3,4.2,60.5,8.3,90.6c0.3,2.4,3.9,1.4,3.6-1c-4.1-29.7-6.8-59.6-8.2-89.6
			C44,31.1,40.2,31.1,40.4,33.5L40.4,33.5z"/>
	</g>
</g>
<g>
	<g>
		<path fill="#FFFFFF" d="M44.2,95.8c-2.2,3.2-4.7,6-7.4,8.8c-1.4,1.4-4.2,2.9-4.4,5.2c-0.6,8,0.5,16.5,0.8,24.5
			c0.1,1.6,2,2.5,3.2,1.3c4.6-4.5,9.4-8.6,14.7-12.3c2-1.4,0.1-4.6-1.9-3.2c-5.5,3.9-10.7,8.2-15.5,12.9c1.1,0.4,2.1,0.9,3.2,1.3
			c-0.3-7.1-0.6-14.2-0.9-21.3c-0.2-3.8,3.2-5.6,5.7-8.1c2.1-2.2,3.9-4.6,5.6-7.1C48.9,95.7,45.6,93.8,44.2,95.8L44.2,95.8z"/>
	</g>
</g>
<g>
	<g>
		<path fill="#FFFFFF" d="M44.6,95.6c-1.3,4.8,8.7,6.5,11.6,7.6c5.5,2.1,3.9,8.5,3.9,13.3c0,4.4,0,8.8-0.1,13.2
			c0.9-0.5,1.9-1.1,2.8-1.6c-3.3-1.6-6.5-3.3-9.8-4.9c-1.4-0.7-2.6-1.5-4.1-1c-0.9,0.3-1.7,1.3-1.3,2.3c0,0.1,0.1,0.3,0.1,0.4
			c0.3,0.9,1.3,1.7,2.3,1.3c0.1,0,0.2-0.1,0.3-0.1c2.3-0.8,1.3-4.4-1-3.6c-0.1,0-0.2,0.1-0.3,0.1c0.8,0.4,1.5,0.9,2.3,1.3
			c0-0.1-0.1-0.3-0.1-0.4c-0.4,0.8-0.9,1.5-1.3,2.3c0.6-0.2,3.9,2,4.5,2.3c2.2,1.1,4.4,2.2,6.5,3.3c1.3,0.6,2.8-0.1,2.8-1.6
			c0-4.4,0-8.8,0.1-13.2c0-3.7,0.7-8.2,0-11.8c-0.4-2-1-2.9-2.9-3.7c-1.1-0.4-12.5-5.1-12.7-4.4C48.9,94.2,45.2,93.2,44.6,95.6
			L44.6,95.6z"/>
	</g>
</g>
<g>
	<g>
		<path fill="#FFFFFF" d="M38.5,39.3c1.2,2.5-2,8.3-3,10.5c-1.6,3.6-3.6,6.9-5.5,10.3c-1.2,2.1,2,4,3.2,1.9c2.5-4.2,5-8.3,7.5-12.5
			c-1.1-0.5-2.3-1-3.4-1.4c-1.4,4.5-3.4,8.6-5.9,12.6c-1.2,1.9,1.4,3.6,2.9,2.3c4.3-3.6,7.2-8,8.7-13.4c-1.2-0.2-2.5-0.3-3.7-0.5
			c-0.1,1.8-0.1,3.6-0.2,5.4c-0.1,2.6-0.9,2.1-2.8,3c-1.7,0.8-2.6,2.2-1.9,4c0.5,1.1,1.6,1.7,2.8,1.1c2.5-1.3,5-2.2,7.7-2.8
			c1-0.2,1.6-1.4,1.3-2.3c-1.1-4.1-1.8-8.2-1.9-12.5c-0.6,0.6-1.2,1.2-1.9,1.9c-0.2,0,0.5,11.8,0.9,13.2c0.4,1.2,1.7,1.7,2.8,1.1
			c2.5-1.4,2.4-3.9,2.2-6.5c-0.4-4.6-1.4-9-2.6-13.4c-1,0.6-2.1,1.2-3.1,1.8c3.8,4.7,4.8,10.5,3.1,16.2c-0.6,1.8,1.8,3.1,3.1,1.8
			c2.9-2.8,3.8-6.2,3-10.1c-1.2,0.3-2.4,0.7-3.6,1c0.1,0.3,2.1,7.6,0.5,6.8c-0.1,1.1-0.3,2.3-0.4,3.4c1.6-0.6,3.1-0.5,4.6,0.5
			c1.6,0.9,3.6-0.9,2.6-2.6c-1.9-3.1-4.2-5.7-7.1-7.9c-1.9-1.5-4.6,1.2-2.7,2.7c2.6,2.1,4.7,4.3,6.5,7.2c0.9-0.9,1.7-1.7,2.6-2.6
			c-2.5-1.3-4.8-1.6-7.5-0.8c-1.5,0.4-2,2.7-0.4,3.4c2.2,1.1,4.1,0.7,5.8-1.2c2.4-2.8-0.1-6.9-0.7-9.8c-0.5-2.4-4.1-1.4-3.6,1
			c0.6,2.7-0.2,4.6-2.1,6.5c1,0.6,2.1,1.2,3.1,1.8c2.2-7.1,0.6-14.2-4-19.9c-1.2-1.5-3.6,0.1-3.1,1.8c0.6,2.2,4.5,14.4,2.2,15.7
			c0.9,0.4,1.8,0.7,2.8,1.1c-1.1-3.7,1.7-15.7-4.5-15.9c-1,0-1.9,0.9-1.9,1.9c0.2,4.6,0.8,9,2.1,13.5c0.4-0.8,0.9-1.5,1.3-2.3
			c-3.1,0.7-5.9,1.7-8.6,3.1c0.9,0.4,1.8,0.7,2.8,1.1c0.7,1.8,3.6-0.4,4.2-1.3c1.5-2.6,0.7-7.2,0.8-10.1c0.1-2.1-3.1-2.5-3.7-0.5
			c-1.3,4.8-3.9,8.6-7.7,11.7c1,0.8,2,1.5,2.9,2.3c2.7-4.2,4.8-8.7,6.3-13.5c0.7-2.1-2.3-3.2-3.4-1.4c-2.5,4.2-5,8.3-7.5,12.5
			c1.1,0.6,2.2,1.3,3.2,1.9c2.6-4.5,5.1-9,7.1-13.8c1.4-3.3,3.1-7.3,1.5-10.8C40.7,35.2,37.5,37.1,38.5,39.3L38.5,39.3z"/>
	</g>
</g>
</svg>
