<?xml version="1.0" encoding="utf-8"?>
<!-- Generator: Adobe Illustrator 18.0.0, SVG Export Plug-In . SVG Version: 6.00 Build 0)  -->
<!DOCTYPE svg PUBLIC "-//W3C//DTD SVG 1.1//EN" "http://www.w3.org/Graphics/SVG/1.1/DTD/svg11.dtd">
<svg version="1.1" id="Layer_1" xmlns="http://www.w3.org/2000/svg" xmlns:xlink="http://www.w3.org/1999/xlink" x="0px" y="0px"
	 viewBox="0 0 156 78" enable-background="new 0 0 156 78" xml:space="preserve">
<g>
	<g>
		<path fill="#FFFFFF" d="M52.5,17.5c-8.7,8.1-18.3,15-28.7,20.6c-1.8,1-0.8,3.3,0.9,3.5c5.4,0.6,9.8,3.7,14.2,6.6
			c4.8,3.3,10,5.9,15.2,8.4c2.2,1,4.1-2.2,1.9-3.2c-5.7-2.8-11.2-5.7-16.5-9.3c-4.6-3.1-9.2-5.7-14.8-6.3c0.3,1.2,0.6,2.3,0.9,3.5
			c10.7-5.8,20.6-12.9,29.5-21.2C56.9,18.5,54.2,15.9,52.5,17.5L52.5,17.5z"/>
	</g>
</g>
<g>
	<g>
		<path fill="#FFFFFF" d="M51.9,18.1c-3.5,6.1-5,12.8-4.6,19.8c0.3,5.4,2.4,14.2,7.1,17.5c0.7,0.5,1.7,0.3,2.3-0.3
			c0.1-0.1,0.2-0.2,0.2-0.3c0.6-0.6,0.8-1.5,0.3-2.3c-0.1-0.1-0.1-0.2-0.2-0.2c-1.3-2-4.5-0.2-3.2,1.9c0.1,0.1,0.1,0.2,0.2,0.2
			c0.1-0.8,0.2-1.5,0.3-2.3c-0.1,0.1-0.2,0.2-0.2,0.3c0.8-0.1,1.5-0.2,2.3-0.3c-4-2.7-5.1-11.5-5.3-15.8c-0.3-5.8,1.3-11.4,4.2-16.4
			C56.4,17.9,53.1,16,51.9,18.1L51.9,18.1z"/>
	</g>
</g>
<g>
	<g>
		<path fill="#FFFFFF" d="M27,40.3c30.9-3,61.9-4.8,93-5.2c2.4,0,2.4-3.8,0-3.8c-31.1,0.4-62.1,2.2-93,5.2
			C24.6,36.8,24.6,40.5,27,40.3L27,40.3z"/>
	</g>
</g>
<g>
	<g>
		<path fill="#FFFFFF" d="M101.3,35.3c4.3-4.2,7.6-8.9,10-14.5c-0.7,0.3-1.4,0.6-2.1,0.9c9.3,1.7,19.3-1.4,28.5-2.9
			c-0.6-1-1.2-2.1-1.8-3.1c-6.7,5.2-13,10.9-18.8,17.1c-1.7,1.8,1,4.4,2.7,2.7c5.9-6.2,12.1-11.9,18.8-17.1c1.6-1.3-0.2-3.4-1.8-3.1
			c-8.4,1.4-18,4.5-26.5,2.9c-0.8-0.1-1.8,0.1-2.1,0.9c-2.2,5.2-5.3,9.7-9.4,13.7C96.9,34.4,99.6,37,101.3,35.3L101.3,35.3z"/>
	</g>
</g>
<g>
	<g>
		<path fill="#FFFFFF" d="M99.6,33.1c-0.1,0-0.1,0-0.2,0c-1.3-0.4-2.3,0.6-2.4,1.8c-0.2,2.3,2.7,3.5,4,4.9c3.2,3.3,4.4,8.2,6.2,12.3
			c1.2,2.7,4.5,2.4,6.7,1.9c6.1-1.2,12.1-2.1,18.3-2.1c1.6,0,2.6-2.1,1.3-3.2c-5.6-4.8-10.6-10-15.1-15.8c-1.5-1.9-4.1,0.8-2.7,2.7
			c4.5,5.8,9.5,11,15.1,15.8c0.4-1.1,0.9-2.1,1.3-3.2c-3.8,0-7.6,0.2-11.4,0.7c-1.4,0.2-2.8,0.4-4.2,0.7c-2.8,0.5-5.6,2.2-6.9-1.1
			c-1.1-3-2.4-5.9-4-8.6c-0.5-0.9-4.9-5.3-5-5c-0.8,0.6-1.6,1.2-2.4,1.8c0.1,0,0.1,0,0.2,0C101,37.4,101.9,33.8,99.6,33.1L99.6,33.1
			z"/>
	</g>
</g>
<g>
	<g>
		<path fill="#FFFFFF" d="M45.1,26.5c0,2-0.3,3.7-1.1,5.6c1.2,0.3,2.3,0.6,3.5,0.9c0.1-0.5,0.3-1.1,0.4-1.6c1.5-1.7-0.4-3.8-2.3-2.9
			c-1.3,0.6-2.3,1.3-3.4,2.3c-1.8,1.7-4,2.2-6.3,2.5c-2.3,0.3-3.7,1.9-4.5,3.8c-0.6,1.4,1.1,2.6,2.3,2.3c4.4-1.1,8.8-1.7,13.3-1.8
			c2.4-0.1,2.4-3.8,0-3.8c-5.1,0.2-12.3,0.6-15.9,4.7c-1,1.1-0.4,3.3,1.3,3.2c4.7-0.3,9.4-0.5,14.1-0.8c-0.2-1.2-0.3-2.5-0.5-3.7
			c-4,0.6-8,1.1-12,1.7c-1.4,0.2-1.7,2.2-0.8,3.1c1.2,1.2,2.5,1.9,4.2,2.1c2.4,0.3,4.7,1.1,7,1.3c3.2,0.3,5.4-2.1,4-5.1
			c-0.3-0.8-1.4-1-2.1-0.9c-1.3,0.3-1.6,0.4-2.8,1c-1.2,0.6-1.3,2.6,0,3.2c1,0.5,1.4,0.7,2.5,0.8c0-1.2,0-2.4,0-3.6
			c-2.4,0.6-4.7,1-7.2,1.1c-1.5,0.1-2.7,2.1-1.3,3.2c1.2,1,2.3,1.5,3.8,1.9c0.6,0.1,6.5,0.4,5.8,1.4c0.5-0.3,1.1-0.6,1.6-0.9
			c-1.8,0.2-3.7-2-4.9-3c-1.8-1.7-4.4,1-2.7,2.7c1.9,1.8,8.4,7.3,9.8,2c1.7-6.3-8.6-4.7-10.9-6.6c-0.4,1.1-0.9,2.1-1.3,3.2
			c2.8-0.1,5.5-0.5,8.2-1.2c1.7-0.4,1.9-3.3,0-3.6c-0.5-0.1-1.1-0.3-1.6-0.4c0,1.1,0,2.2,0,3.2c0.6-0.2,1.3-0.4,1.9-0.7
			c-0.7-0.3-1.4-0.6-2.1-0.9c-1-2.4-7.7-1.1-9.4-2.8c-0.3,1-0.6,2.1-0.8,3.1c4-0.6,8-1.1,12-1.7c2.1-0.3,1.6-3.8-0.5-3.7
			c-4.7,0.3-9.4,0.5-14.1,0.8c0.4,1.1,0.9,2.1,1.3,3.2c2.9-3.3,9.3-3.5,13.3-3.6c0-1.2,0-2.5,0-3.8c-4.9,0.2-9.6,0.8-14.3,2
			c0.8,0.8,1.5,1.5,2.3,2.3c0.9-2.1,4.8-1.2,6.6-2.2c2.1-1.2,3.6-3.2,5.9-4.2c-0.8-1-1.5-2-2.3-2.9C44,30,43.5,31.1,43.7,33
			c0.2,1.6,2.6,2.8,3.5,0.9c1.1-2.5,1.7-4.8,1.7-7.5C48.8,24,45.1,24,45.1,26.5L45.1,26.5z"/>
	</g>
</g>
</svg>
