<?xml version="1.0" encoding="utf-8"?>
<!-- Generator: Adobe Illustrator 18.0.0, SVG Export Plug-In . SVG Version: 6.00 Build 0)  -->
<!DOCTYPE svg PUBLIC "-//W3C//DTD SVG 1.1//EN" "http://www.w3.org/Graphics/SVG/1.1/DTD/svg11.dtd">
<svg version="1.1" id="Layer_1" xmlns="http://www.w3.org/2000/svg" xmlns:xlink="http://www.w3.org/1999/xlink" x="0px" y="0px"
	 viewBox="0 0 78 150" enable-background="new 0 0 78 150" xml:space="preserve">
<g>
	<g>
		<path fill="#FFFFFF" d="M22.9,86.5c5.7,12.3,10.3,25,13.8,38.2c0.5,1.9,3,1.7,3.6,0c4.9-14,12.6-26.7,22.6-37.7
			c1.6-1.8-1-4.4-2.7-2.7C49.8,95.7,41.8,109,36.7,123.6c1.2,0,2.4,0,3.6,0c-3.6-13.4-8.3-26.4-14.2-39.1
			C25.1,82.4,21.9,84.3,22.9,86.5L22.9,86.5z"/>
	</g>
</g>
<g>
	<g>
		<path fill="#FFFFFF" d="M23.2,86.4c5.3,4.2,10.4,7.7,17.3,8c7.2,0.4,14.7-3.9,20.8-7.2c2.1-1.1,0.2-4.4-1.9-3.2
			c-5.4,2.9-11,5.8-17.2,6.6c-6.4,0.8-11.7-3.1-16.4-6.8C23.9,82.3,21.3,84.9,23.2,86.4L23.2,86.4z"/>
	</g>
</g>
<g>
	<g>
		<path fill="#FFFFFF" d="M37,120.4c2.4,0,2.4-3.8,0-3.8S34.6,120.4,37,120.4L37,120.4z"/>
	</g>
</g>
<g>
	<g>
		<path fill="#FFFFFF" d="M39.2,118.5c-0.3-28.3-0.6-56.7-0.9-85c0-2.4-3.8-2.4-3.8,0c0.3,28.3,0.6,56.7,0.9,85
			C35.5,120.9,39.2,120.9,39.2,118.5L39.2,118.5z"/>
	</g>
</g>
<g>
	<g>
		<path fill="#FFFFFF" d="M37.6,36.4c5-3.1,9.6-6.5,13.9-10.5c-1-0.6-2.1-1.2-3.1-1.8c-0.9,5.7-2,11.4-3.3,17
			c-1.3,5.5-6.1,9.2-9.9,13.1c-1.7,1.7,0.9,4.4,2.7,2.7c0.5-0.5,1-1,1.5-1.5c1.7-1.7-0.9-4.4-2.7-2.7c-0.5,0.5-1,1-1.5,1.5
			c0.9,0.9,1.8,1.8,2.7,2.7c3.3-3.4,8.5-7.3,10.1-12C49.9,38.4,51,31.6,52,25c0.3-1.8-1.7-3.2-3.1-1.8c-4.1,3.7-8.4,7-13.1,9.9
			C33.6,34.4,35.5,37.6,37.6,36.4L37.6,36.4z"/>
	</g>
</g>
<g>
	<g>
		<path fill="#FFFFFF" d="M36.2,31.5c-3.4-2.5-6.9-5-10.3-7.5c-1.1-0.8-2.9,0.3-2.8,1.6c0.4,6.4,0.9,12.9,1.8,19.2
			c0.2,1.7,0,5.1,1.3,6.4c2.1,2.1,5.2,3.4,7.4,5.6c1.7,1.7,4.4-1,2.7-2.7c-1.2-1.2-2.5-2.4-3.9-3.4c-3.5-2.5-3.5-4-4.1-8.3
			c-0.7-5.6-1.2-11.2-1.5-16.9c-0.9,0.5-1.9,1.1-2.8,1.6c3.4,2.5,6.9,5,10.3,7.5C36.3,36.1,38.2,32.9,36.2,31.5L36.2,31.5z"/>
	</g>
</g>
<g>
	<g>
		<path fill="#FFFFFF" d="M27.1,92.1c3.3,6.3,5.3,12.9,5.9,19.9c0.2,2.4,3.8,2.5,3.8,0c-0.1-7.4-0.4-15-5-21.1
			c-1.2-1.6-4.2-0.7-3.4,1.4c1.3,3.6,6.3,5.5,7.5,0.7c0.3-1.2-0.6-2.4-1.8-2.4c-0.8,0-1.7,0-2.5,0c-1.9,0-2.5,2.5-0.9,3.5
			c1.5,0.9,2.8,1.3,4.5,1.3c-0.5-0.9-1.1-1.9-1.6-2.8c-3.4,4.6-2.2,10.5,2.2,13.8c1.1,0.9,2.9-0.3,2.8-1.6c-0.1-0.9-0.6-10,0.9-9.8
			c-0.4-0.9-0.7-1.8-1.1-2.8c-4.1,8.1-4.9,16.8-2.4,25.5c0.4,1.4,2.7,2,3.4,0.4c1.3-2.8,1.8-5.5,2-8.6c0.2-3.2-1.4-12.3,2.7-13.5
			c-0.8-0.8-1.5-1.5-2.3-2.3c-2.4,6.5-3.5,13.1-3.1,20.1c0.1,2.5,3.5,2.4,3.8,0c0.7-6.8,2.6-13.3,5.4-19.5c-1.6-1-2.4-0.6-2.5,1.3
			c-0.7,1.7-1.4,3.4-2.1,5.2c-1.2,2.9-2.4,5.7-3.5,8.6c1.2,0.3,2.4,0.7,3.6,1c1.6-7.7,5.5-14.2,11.7-19.2c-1-0.8-2-1.5-2.9-2.3
			c-4.6,7.2-12.6,12.9-11.8,22.4c0.2,2.4,4,2.4,3.8,0C43.2,103,51,97.5,55.2,91c1.2-1.9-1.4-3.5-2.9-2.3
			c-6.6,5.3-10.9,12.5-12.6,20.8c-0.5,2.4,2.7,3.2,3.6,1c1.9-4.6,3.8-9.2,5.7-13.8c0.8-1.9,1.7-4-0.1-5.5c-0.5-0.4-1.2-0.7-1.8-0.5
			c-2.9,1.1-3.6,4.5-4.6,7.2c-2,5.1-3.1,10.6-3.7,16c1.2,0,2.5,0,3.8,0c-0.3-6.6,0.7-12.9,3-19.1c0.5-1.4-1-2.7-2.3-2.3
			c-8.8,2.7-4,17.5-6.9,23.8c1.1,0.1,2.3,0.3,3.4,0.4c-2.3-7.7-1.6-15.4,2-22.6c0.5-1,0.2-2.6-1.1-2.8c-7.1-1.1-6,8.8-5.7,13.4
			c0.9-0.5,1.9-1.1,2.8-1.6c-2.9-2.2-2.9-5.9-0.9-8.7c0.9-1.2-0.3-2.8-1.6-2.8c-0.9-0.3-1.8-0.5-2.6-0.8c-0.3,1.2-0.6,2.3-0.9,3.5
			c0.8,0,1.7,0,2.5,0c-0.6-0.8-1.2-1.6-1.8-2.4c-0.1-0.2-0.2-0.5-0.2-0.7c-1.1,0.5-2.3,1-3.4,1.4c4.3,5.6,4.5,12.4,4.5,19.2
			c1.2,0,2.5,0,3.8,0c-0.7-7.7-2.9-14.9-6.4-21.8C29.3,88,26,89.9,27.1,92.1L27.1,92.1z"/>
	</g>
</g>
<g>
	<g>
		<path fill="#FFFFFF" d="M46.4,98.4c0.6,2.3-1.1,4.4-2.3,6.2c-1.4,2.1-2.8,4.1-4.4,6.1c-1.5,1.9,1.1,4.5,2.7,2.7
			c3.3-4.1,9.2-10.2,7.7-15.9C49.4,95.1,45.7,96.1,46.4,98.4L46.4,98.4z"/>
	</g>
</g>
</svg>
