<?xml version="1.0" encoding="utf-8"?>
<!-- Generator: Adobe Illustrator 18.0.0, SVG Export Plug-In . SVG Version: 6.00 Build 0)  -->
<!DOCTYPE svg PUBLIC "-//W3C//DTD SVG 1.1//EN" "http://www.w3.org/Graphics/SVG/1.1/DTD/svg11.dtd">
<svg version="1.1" id="Layer_1" xmlns="http://www.w3.org/2000/svg" xmlns:xlink="http://www.w3.org/1999/xlink" x="0px" y="0px"
	 viewBox="0 0 116 85.7" enable-background="new 0 0 116 85.7" xml:space="preserve">
<g>
	<g>
		<path fill="#FFFFFF" d="M63.8,41.9C53,33.8,39.4,51.1,47.3,60.6c1.6,2,5.3,1.9,7.5,1.9c3,0,5.8-0.9,7.9-3c2.1-2.1,2.9-5.8,3.3-8.6
			c0.5-3-0.1-5.7-2-8c-1.6-2-4.5,0.8-2.8,2.8c2.2,2.8,0.5,7.7-1,10.5c-1.5,2.8-9.6,3.6-10.7,0.4C47,49.7,55,40.3,61.8,45.4
			C63.9,46.9,65.9,43.4,63.8,41.9L63.8,41.9z"/>
	</g>
</g>
<g>
	<g>
		<path fill="#FFFFFF" d="M52.3,42.4c-2.5-6.7-6.4-12.4-11.8-17.1c-3.3-2.9-10.9-8.5-15.3-4.4c-11.6,11,16.6,21.3,23.3,23.3
			c2.5,0.7,3.6-3.2,1.1-3.9c-4.3-1.2-8.3-2.8-12.3-4.8c-2-1-4-2.2-5.9-3.5c-1.1-0.7-2.1-1.5-3-2.4c-2.6-2.4-1.9-4.4,2.1-5.8
			c3.9,0.7,7.8,4.8,10.5,7.5c3.3,3.4,5.7,7.7,7.4,12.2C49.3,45.9,53.2,44.8,52.3,42.4L52.3,42.4z"/>
	</g>
</g>
<g>
	<g>
		<path fill="#FFFFFF" d="M23.8,23c-3.2,5.7-4.1,11.8-2.9,18.2c1.1,5.5,3.3,9.2-0.3,14.5c-1.6,2.3-2.5,4.2-2.8,7
			c-0.5,4.4,3.8,6.8,7.6,6.2c8.2-1.2,16.1-6.5,23.3-10.4c2.3-1.2,0.3-4.7-2-3.5c-4.9,2.7-9.8,5.2-14.9,7.7c-2.1,1-9.7,4.8-10,0
			c-0.2-2.6,2.7-5.5,3.9-7.6c2.1-3.6,1.1-7.8,0-11.5C23.9,37,23.9,31.1,27.3,25C28.6,22.7,25.1,20.7,23.8,23L23.8,23z"/>
	</g>
</g>
<g>
	<g>
		<path fill="#FFFFFF" d="M63.7,46.5c1.5,1.2,3,1.4,4.7,0.4c4.1-2.4,8.1-4.9,12.1-7.6c3.6-2.5,7-5.1,10.4-7.8c2.5-2,7.1-4.5,7.1-8.2
			c0-1.8-2.3-3.2-4-3c-4.4,0.3-7.8,2.4-11.4,4.9c-7.2,5-13.2,11.4-18.1,18.6c-1.5,2.2,2,4.2,3.5,2c3-4.5,6.5-8.6,10.5-12.3
			c1.9-1.8,13-11.8,16-8.8c-0.2-0.7-0.3-1.3-0.5-2c-0.3,2-3.2,3.6-4.6,4.8c-2.6,2.2-5.3,4.2-8.1,6.2c-1.3,1-14.2,10.4-14.8,9.9
			C64.6,42.1,61.7,44.9,63.7,46.5L63.7,46.5z"/>
	</g>
</g>
<g>
	<g>
		<path fill="#FFFFFF" d="M95,26.4c5.2,3.6-3.2,12.1-5.2,15.1c-2.6,4-4.8,8.3-6.7,12.6c-1,2.4,2.4,4.4,3.5,2
			c3.3-7.7,8-13.9,12.5-20.9c2.7-4.2,2.1-9.5-2-12.3C94.9,21.4,92.8,24.9,95,26.4L95,26.4z"/>
	</g>
</g>
<g>
	<g>
		<path fill="#FFFFFF" d="M90.3,44.3c-5,7.2,5.8,14.4,0.4,21.2c-3.3,4.2-10.4,2-14.5,0.5c-4.7-1.7-8.6-4.9-11.8-8.6
			c-1.7-2-4.5,0.9-2.8,2.8C68,67.8,79,74,89.1,71.1c4.1-1.1,6.5-4.7,7.1-8.7c0.7-5-5.4-11.8-2.4-16.1C95.3,44.2,91.8,42.2,90.3,44.3
			L90.3,44.3z"/>
	</g>
</g>
<g>
	<g>
		<path fill="#FFFFFF" d="M69.3,55.5c1.9-2,4.2-3.2,6.9-3.6c-0.6-0.4-1.1-0.9-1.7-1.3c-0.2,1.4-1.1,2.3-2.4,2.9
			c-1.6,0.7-0.2,3,1.4,2.3c2.2-0.9,3.4-2.9,3.7-5.2c0.1-1-0.9-1.4-1.7-1.3c-3.1,0.4-6,2-8.1,4.3C66.2,54.8,68.1,56.7,69.3,55.5
			L69.3,55.5z"/>
	</g>
</g>
<g>
	<g>
		<path fill="#FFFFFF" d="M42.8,49.7c-2.3-2-5.4-2.3-8-0.9c-1.1,0.6-2.1,1.9-1.8,3.2c0.5,1.9,2.8,1.8,4.4,2.1
			c1.7,0.3,2.4-2.3,0.7-2.6c-1.1-0.2-2.2-0.4-3.2-0.6c0.3,0.2,0.5,0.4,0.8,0.6c-0.3-0.4,2.3-0.9,2.5-0.9c1,0,2,0.4,2.7,1
			C42.2,52.7,44.1,50.8,42.8,49.7L42.8,49.7z"/>
	</g>
</g>
</svg>
