<?xml version="1.0" encoding="utf-8"?>
<!-- Generator: Adobe Illustrator 18.0.0, SVG Export Plug-In . SVG Version: 6.00 Build 0)  -->
<!DOCTYPE svg PUBLIC "-//W3C//DTD SVG 1.1//EN" "http://www.w3.org/Graphics/SVG/1.1/DTD/svg11.dtd">
<svg version="1.1" id="Layer_1" xmlns="http://www.w3.org/2000/svg" xmlns:xlink="http://www.w3.org/1999/xlink" x="0px" y="0px"
	 viewBox="0 0 792 1224" enable-background="new 0 0 792 1224" xml:space="preserve">
<g>
	<g>
		<path fill="#FFFFFF" d="M620.7,780.8c-35.2-39.1-89.2-52-138.5-32.5c-22.3,9-41.5,25-53.2,45.8c-12.9,23.5-11,53.2-9.8,79
			c0.4,9.4,15.3,9.4,14.9,0c-1.2-20.7-2-41.5,3.5-61.8c7-25.4,30.9-42.2,54.4-51.2c41.8-16.4,88.8-1.6,118.1,30.9
			C616.4,798,627,787.8,620.7,780.8L620.7,780.8z"/>
	</g>
</g>
<g>
	<g>
		<path fill="#FFFFFF" d="M425.1,866.8c-30.1,11.7-34.8,50.1-32.5,78.2c2.7,37.9,24.2,61,47.7,88c6.3,7,16.4-3.1,10.6-10.6
			c-18-20.3-33.6-35.6-41.1-63c-5.9-21.9-7-68.4,19.2-78.6C437.7,877.4,433.7,863.3,425.1,866.8L425.1,866.8z"/>
	</g>
</g>
<g>
	<g>
		<path fill="#FFFFFF" d="M436.1,1032.2c3.5,27.8,12.1,54,26.2,78.2c1.2,2.3,3.9,3.5,6.3,3.5c4.7,0,9.8,0,14.5,0
			c3.5,0,5.9-2.3,7-5.5c3.9-11.3,7.8-22.3,11-33.6c2.7-9-11.3-12.9-14.1-3.9c-3.5,11.3-7,22.7-11,33.6c2.3-2,4.7-3.5,7-5.5
			c-4.7,0-9.8,0-14.5,0c2,1.2,4.3,2.3,6.3,3.5c-12.9-21.9-21.1-45.4-24.2-70.8C449.4,1023.3,434.9,1022.9,436.1,1032.2L436.1,1032.2
			z"/>
	</g>
</g>
<g>
	<g>
		<path fill="#FFFFFF" d="M566.3,1080c-26.6,2.7-51.6-6.3-70-25.8c-6.6-7-16.8,3.5-10.6,10.6c21.1,21.9,50.1,33.2,80.2,30.1
			C575.7,1093.7,575.7,1079.2,566.3,1080L566.3,1080z"/>
	</g>
</g>
<g>
	<g>
		<path fill="#FFFFFF" d="M564.4,1075.3c0,9.8-1.6,18.8-5.1,28.2c-1.6,4.7,2.7,9.4,7,9.4c6.6,0,14.1,1.2,20.3,0
			c6.3-1.2,9.4-5.5,12.5-10.2c8.2-11.3,13.3-25.4,16-39.1c1.6-9.4-12.5-13.3-14.1-3.9c-2,10.2-5.1,19.2-9.8,28.2
			c-1.6,3.1-4.7,10.6-8.6,10.6c-5.5,0-10.6,0-16,0c2.3,3.1,4.7,6.3,7,9.4c3.9-10.2,5.9-20.7,5.5-32.1
			C578.8,1065.9,564.4,1065.9,564.4,1075.3L564.4,1075.3z"/>
	</g>
</g>
<g>
	<g>
		<path fill="#FFFFFF" d="M602.3,1097.2c23.9-3.5,46.9-10.6,69.2-19.9c8.6-3.5,1.2-16.4-7.4-12.5c-21.1,9-43,14.9-65.7,18.4
			C589.4,1084.7,593.3,1098.7,602.3,1097.2L602.3,1097.2z"/>
	</g>
</g>
<g>
	<g>
		<path fill="#FFFFFF" d="M670,1045.9c-2.3,15.6-6.3,30.1-12.9,44.6c-2.3,5.9,1.6,12.5,8.2,11c17.6-4.3,24.6-7,34.4-22.3
			c9.4-14.9,18.4-32.5,19.9-50.5c3.1-36.4-20.3-65.3-53.2-78.2c-9-3.5-12.5,10.6-3.9,14.1c28.2,11,46.9,37.9,41.5,68.4
			c-2,11.7-8.2,22.7-13.7,33.2c-7.4,13.3-14.5,17.6-28.9,21.1c2.7,3.5,5.5,7,8.2,11c7-15.6,11.7-31.3,14.1-48.1
			C685.6,1040.9,671.5,1036.6,670,1045.9L670,1045.9z"/>
	</g>
</g>
<g>
	<g>
		<path fill="#FFFFFF" d="M643.8,856.2c13.3,20.7,15.6,51.2,16.4,75.1c0.8,26.2-11.3,54-38.3,61c-9,2.3-5.1,16.4,3.9,14.1
			c27.8-7,43.4-31.3,48.1-58.7c5.1-29.3-1.2-73.5-17.2-99C651.2,841,638.7,848,643.8,856.2L643.8,856.2z"/>
	</g>
</g>
<g>
	<g>
		<path fill="#FFFFFF" d="M571.4,929.8c-4.3-25.8-43.4-30.5-64.1-30.9c-25.4-0.4-54,14.5-57.1,41.5c-5.1,45,131.8,52.8,118.5-6.6
			c-2-9.4-16-5.5-14.1,3.9c5.1,22.3-31.7,22.3-44.6,22.3c-11.7,0-60.6-7-39.1-32.5c10.2-11.7,28.6-14.1,43-13.7
			c12.1,0.4,40.7,4.7,43.4,19.9C558.9,943.1,573.4,939.2,571.4,929.8L571.4,929.8z"/>
	</g>
</g>
<g>
	<g>
		<path fill="#FFFFFF" d="M450.2,772.2c-16-27.8-50.8-9-75.5-14.9c-9.4-2.3-12.9,12.1-3.9,14.1c10.2,2.3,19.6,2.7,29.7,1.6
			c12.1-1.6,29.3-6.6,37.2,6.6C442.3,787.8,454.9,780.4,450.2,772.2L450.2,772.2z"/>
	</g>
</g>
<g>
	<g>
		<path fill="#FFFFFF" d="M372.3,776.1c23.5,12.9,28.6,43,46.5,61c6.6,6.6,17.2-3.5,10.6-10.6c-19.6-19.2-24.2-49.3-49.7-63.4
			C371.6,758.9,364.1,771.4,372.3,776.1L372.3,776.1z"/>
	</g>
</g>
<g>
	<g>
		<path fill="#FFFFFF" d="M704,749.5c-34.8,0.8-67.3,12.1-95,33.2c-7.4,5.9,0,18.4,7.4,12.5c25.8-19.9,55.1-30.5,87.6-31.3
			C713.4,763.9,713.8,749.5,704,749.5L704,749.5z"/>
	</g>
</g>
<g>
	<g>
		<path fill="#FFFFFF" d="M694.6,758.5c-29.3,20.7-16.8,66.9-51.2,81.7c-8.6,3.9-1.2,16.4,7.4,12.5c13.3-5.9,21.9-14.9,27.8-28.2
			c7.8-17.6,5.9-41.5,23.1-53.6C709.9,765.5,702.4,753,694.6,758.5L694.6,758.5z"/>
	</g>
</g>
<g>
	<g>
		<path fill="#FFFFFF" d="M621.5,878.2C621.5,877.8,621.5,877.8,621.5,878.2c-4.7,0-9.4,0-14.1,0v0.4c0.4-2,0.4-3.9,0.8-5.5
			c2-3.1-2,0.4-2.7,0.8c-1.6,1.2-3.1,2.3-4.7,3.5c-3.1,2.3-5.5,5.5-7.4,8.6c-4.7,6.6-7,15.6-7,23.9c0,6.6,7.8,9.4,12.5,5.1
			c9-8.2,15.3-18.8,18.8-30.5c2.7-9-11.3-12.9-14.1-3.9c-2.7,9.4-7.8,17.2-14.9,23.9c4.3,1.6,8.2,3.5,12.5,5.1
			c0-8.2,3.1-14.9,9-20.7c4.7-4.7,13.7-6.3,11.7-14.5c-2-7.4-11.7-6.6-14.1,0l0,0C604.3,882.8,618.3,886.8,621.5,878.2L621.5,878.2z
			"/>
	</g>
</g>
<g>
	<g>
		<path fill="#FFFFFF" d="M463.5,900.8c4.3-7.8,3.5-16-0.8-23.9c-4.3-8.2-13.7-12.9-21.9-16.8c-7.4-3.5-14.5,5.1-9,11.3
			c7,8.2,12.9,16.8,18,26.2c4.7,8.2,17.2,0.8,12.5-7.4c-5.9-10.6-12.5-19.9-20.3-29.3c-3.1,3.9-5.9,7.8-9,11.3
			c6.6,3.1,23.1,10.2,17.6,20.7C446.3,901.6,459.2,909,463.5,900.8L463.5,900.8z"/>
	</g>
</g>
<g>
	<g>
		<path fill="#FFFFFF" d="M551.1,746.7c5.5-2.3,8.2-8.2,8.2-13.7c-0.4-6.6-5.1-11.7-11.3-12.9c-14.1-3.1-23.1,13.3-16,25
			c3.5,5.5,11.7,0.4,8.6-5.1c-3.1-4.7-0.8-11,5.5-10.6c5.5,0.4,4.7,7,0.8,9c-2.3,1.2-3.1,4.7-1.6,6.6
			C546,747.5,548.7,747.5,551.1,746.7L551.1,746.7z"/>
	</g>
</g>
<g>
	<g>
		<path fill="#FFFFFF" d="M533.9,726c-7.4-9-49.7-43.8-52-14.5c-0.4,6.3,6.3,11.3,9,16c3.9,6.3-0.8,12.9,2.7,19.2
			c2.3,3.9,8.6,5.1,12.5,3.9c9-2,18-4.7,26.6-7c6.3-1.6,3.5-11-2.7-9.4c-4.3,1.2-9,2.3-13.3,3.5c-1.2,0.4-15.6,4.7-15.3,1.6
			c1.2-7-0.4-13.3-3.9-19.2c-0.8-1.2-9-10.2-4.7-10.6c4.3-0.4,10.2,3.5,13.7,5.5c7.8,4.3,14.5,10.6,19.9,17.2
			C531.1,737.7,538.2,731.1,533.9,726L533.9,726z"/>
	</g>
</g>
<g>
	<g>
		<path fill="#FFFFFF" d="M554.6,737.4c10.2-4.3,20.7-7.4,31.7-9.8c6.3-1.6,12.9-2,19.2-2.7c-2.3,0.4-6.3,4.3-8.2,5.5
			c-5.1,3.5-8.6,7.8-11,13.7c-2.7,7-5.9,5.9-12.9,4.3c-6.3-1.6-11.3-5.1-16-9c-4.7-3.9-11.7,2.7-7,7c8.2,7,25,17.6,36.4,13.3
			c5.1-2,7-4.3,8.6-9.4c2.7-9.4,9.8-12.5,16.8-18c7-5.1,6.6-16.4-3.9-16.8c-19.2-0.4-39.1,5.9-56.3,12.9
			C546.4,730.3,548.7,739.7,554.6,737.4L554.6,737.4z"/>
	</g>
</g>
<g>
	<g>
		<path fill="#FFFFFF" d="M533.9,935.6c0,0.8,0,1.2,0,2c0,6.3,9.8,6.3,9.8,0c0-0.8,0-1.2,0-2C543.6,929.4,533.9,929.4,533.9,935.6
			L533.9,935.6z"/>
	</g>
</g>
<g>
	<g>
		<path fill="#FFFFFF" d="M484.6,939.9c0.4-0.4,0.8-0.8,0.8-0.8c4.3-4.3-2.3-11.3-7-7c-0.4,0.4-0.8,0.8-0.8,0.8
			C473.2,937.6,480.3,944.6,484.6,939.9L484.6,939.9z"/>
	</g>
</g>
<g>
	<g>
		<path fill="#FFFFFF" d="M758.8,1023.3c-3.5,3.1-6.6,5.1-11.3,6.6c-5.9,2.3-9.4,0-11-7.4c4.7-5.5,5.1-4.7,1.2,1.2
			c-6.3,7.4-19.9,9.4-28.9,10.2c-6.3,0.4-6.3,10.2,0,9.8c14.9-1.2,32.5-5.1,40.3-19.2c6.3-11-3.5-19.6-13.3-14.5
			c-10.6,5.5-12.9,19.2-4.3,27.4c9.8,8.6,27-0.4,34.8-7C770.5,1026,763.4,1019.3,758.8,1023.3L758.8,1023.3z"/>
	</g>
</g>
<g>
	<g>
		<path fill="#FFFFFF" d="M449.4,602.4c48.9-0.8,97.4-7.4,134.2-41.8c34.8-32.5,50.8-83.7,61-128.7c20.3-93.1-16.4-186.2-85.3-249.5
			c-74.3-68.4-180.7-86.8-278.1-69.6c-48.1,8.6-100.9,27-139.6,57.5c-39.1,30.9-62.2,73.9-79.8,119.7
			c-31.7,83.3-50.5,191.6,21.9,259.7c33.6,32.1,83.3,43.4,127.9,50.5c54.4,8.2,109.9,6.3,164.7,3.5c6.3-0.4,6.3-10.2,0-9.8
			c-108.7,5.1-278.5,16-323.4-110.3c-20.7-58.7-4.7-122.8,14.5-179.1c18.8-54.8,46.5-105.2,95.8-137.3
			c96.6-62.2,232.7-68.4,334-16.4c91.5,47.3,151.8,148.6,142.4,251.9c-4.3,47.7-21.5,100.5-50.8,138.5
			c-33.6,43.4-87.6,50.8-139.2,51.6C443.1,593,443.1,602.8,449.4,602.4L449.4,602.4z"/>
	</g>
</g>
<g>
	<g>
		<path fill="#FFFFFF" d="M368,604.8c9.8,35.6,35.2,63.8,69.6,77c5.9,2.3,8.6-7,2.7-9.4c-31.3-12.1-54.4-37.9-63-70
			C375.5,596.2,366.1,598.9,368,604.8L368,604.8z"/>
	</g>
</g>
<g>
	<g>
		<path fill="#FFFFFF" d="M447.4,594.2c-16-5.5-21.1,29.7-23.1,38.7c-3.1,16.8-5.1,41.1,12.1,50.8c5.5,3.1,10.6-5.5,5.1-8.6
			c-17.2-9.8-1.6-73.5,3.5-72C451,605.9,453.3,596.2,447.4,594.2L447.4,594.2z"/>
	</g>
</g>
<rect x="115" y="270.4" fill="none" width="465.4" height="293.3"/>
<g enable-background="new    ">
	<path fill="#FFFFFF" d="M160.5,260.3h5.1c6.7,0,11.2,1.2,13.5,3.5l0.6,1.9v0.3c0,1.7-1.1,2.7-3.2,2.9c-2-1.7-6.1-2.6-12.2-2.6h-1
		v0.3c0,12.6,0.2,30,0.5,52.3c0.3,22.3,1.3,34.6,3.1,37c-0.7,1.9-1.9,2.9-3.5,2.9c-2.8,3.1-4.6-8.6-5.2-35
		c-0.6-26.4-0.9-45.5-0.9-57.1v-0.3l-9,0.6c-1.7-0.8-2.6-1.9-2.6-3.2C145.8,261.5,150.7,260.3,160.5,260.3z"/>
	<path fill="#FFFFFF" d="M210.4,261.8c1.9,0,2.9,1.3,2.9,3.9v6.4c0,8.9,2.8,35.7,8.3,80.2v1.6c0,3.2-1.1,4.8-3.2,4.8
		c-1.9-0.3-2.9-1.3-2.9-2.9v-2.2c0-4-1.7-18.3-5.1-42.7c-9.4,0.5-14.1,1.3-14.1,2.2l0.3,0.3v0.3c0.9,14.1,1.3,26.9,1.3,38.5v8
		c0,3.2-1.2,4.8-3.5,4.8c-1.5,0-2.4-1.2-2.6-3.5v-7.7c0-13.6-0.4-26.8-1.3-39.5h-0.6c-1.7,0-3-0.7-3.8-2.2v-1.6
		c1.2-1.6,2.5-2.4,3.8-2.6c0-5.1-1.7-18.9-5.1-41.4c0-1.6,1.3-2.6,3.9-2.9c1.7,0,3,4.9,3.9,14.8c0.9,4.3,2,13.5,3.5,27.6h0.3
		l13.8-1.3c-2.1-17.5-3.2-30-3.2-37.5C206.8,263.6,208,261.8,210.4,261.8z"/>
	<path fill="#FFFFFF" d="M256.5,262.4c1,0,2,1,2.9,2.9l-0.3,1.6c6,39,10.2,68.7,12.5,89.2c-0.7,1.9-1.7,2.9-3.2,2.9
		c-2.4,0-3.7-5.1-4.2-15.4l-1.3-8l-5.5,0.3c-3.6,0-9-0.4-16-1.3c-5,17.1-8.4,25.7-10.3,25.7h-0.3c-2.1-0.5-3.2-1.6-3.2-3.2
		c5.6-13.4,11.5-36.4,18-69c2.8-10.1,5.3-18.2,7.7-24.4C254.1,262.9,255.2,262.4,256.5,262.4z M243,328.5c3.8,0.9,7.7,1.3,11.9,1.3
		h5.5c0.8,0,1.4-0.3,1.9-1l-7.4-49.4h-0.3c-1.3,2.1-3.2,9.5-5.8,22.1L243,328.5z"/>
	<path fill="#FFFFFF" d="M286.8,263c1.8,0,3.2,4.8,4.2,14.4c4.9,28.5,10.1,50,15.4,64.5h0.6c1.9-28.7,2.9-51.4,2.9-68v-1
		c0-2.1-0.2-3.2-0.6-3.2c0.7-2.4,1.8-3.5,3.5-3.5c2.1,0,3.2,2.1,3.2,6.4v2.2c-1.4,55.2-3.3,82.8-5.8,82.8l-1.6,0.6
		c-1.9,0-4-3.4-6.1-10.3c-3.6-8.2-7.6-22-11.9-41.4c-1.2-6.6-2-9.9-2.6-9.9v0.6l0.3,22.8c-0.1,17.8-0.1,29-0.1,33.5v5.1
		c0,1.7-1,2.6-2.9,2.6c-2.1,0-3.2-1.7-3.2-5.1V353c0-3.6,0-14.3,0.1-32.3l-0.3-26c0-21,1-31.4,2.9-31.4L286.8,263z"/>
	<path fill="#FFFFFF" d="M352.8,257.9c1.2,0.1,2.1,1.1,2.8,3.1c-3.8,6.1-8.1,17.2-13,33.3c-1.9,4.6-4.5,9.2-7.9,14
		c9,24.5,16.4,39.4,22,44.7c2.7,2.1,4,3.7,3.9,4.7c-0.6,1.9-1.6,2.8-3.1,2.7l-0.3,0c-2.8-0.7-7.3-5.9-13.5-15.6
		c-4.3-8.7-8.2-17.8-11.5-27.4l-0.6,0c-0.9,15.3-0.6,28.2,0.9,38.6c-0.8,1.9-1.9,2.8-3.3,2.7l-1,0c-2.6-0.2-3.5-15.5-2.7-46.1
		c-1.8-22.6-2.4-39.4-1.7-50.2c0.1-2.4,1.3-3.5,3.4-3.3c1.7,0.1,2.6,1.5,2.6,4.4c-0.6,10.5-0.2,23.6,1.2,39.3h0.3
		c2.5-2.3,5.7-9.5,9.7-21.6C345.5,265.4,349.5,257.7,352.8,257.9z"/>
	<path fill="#FFFFFF" d="M386.7,262.3c6.8,0,11.6,4.1,14.4,12.2c0.4,0.8,0.6,2,0.6,3.5c0,1.7-1.1,2.7-3.2,2.9c-1.8,0-3-2.2-3.5-6.7
		c-2.2-3.9-4.8-5.8-7.7-5.8h-1.3c-4.2,0-6.7,4.1-7.4,12.2v0.3c0,9.8,6.2,24.5,18.6,44.3c3.8,7.6,5.8,13.9,5.8,18.9
		c0,7-3.5,12.3-10.6,16l-3.5,0.6c-6.3,0-12.3-4.3-18-12.8c-1.1-1.9-1.6-3.9-1.6-6.1c0-3.4,1.2-5.3,3.5-5.8h1c1.5,1.1,2.2,2,2.2,2.9
		l-0.6,2.9v0.3c0,4.4,3.6,8.4,10.9,12.2l1.9,0.3h1c3.5,0,6.1-3,7.7-9v-1.3c0-7.3-4.7-18-14.1-32.1c-6.8-13.4-10.3-23.8-10.3-31.4
		c0-8.5,3.3-14.5,9.9-18L386.7,262.3z"/>
	<path fill="#FFFFFF" d="M438.5,263.8c1.6,0,2.5,1.3,2.9,3.9h18c2.4,0,3.5,1.2,3.5,3.5c-0.4,1.7-1.7,2.6-3.9,2.6h-16.7l3.2,31.8h9.3
		c2.4,0,3.5,1.2,3.5,3.5c-0.4,1.7-1.7,2.6-3.8,2.6h-8.3v0.3c1.9,20.4,2.9,32.9,2.9,37.5v6.1c0,2.6-1,3.8-2.9,3.8h-1.3
		c-1.3-0.8-1.9-1.7-1.9-2.9v-4.8c0-11.7-2.6-40.1-7.7-85.3C435.8,264.7,436.9,263.8,438.5,263.8z"/>
	<path fill="#FFFFFF" d="M482.5,270.1c9,0,16.3,12.7,21.8,38.2c0.9,5.3,1.4,10.7,1.6,16.4c0,16.5-4.4,27.6-13.2,33.4
		c-3.4,1.3-6.1,1.9-8,1.9c-7.2,0-12.1-5.8-14.4-17.3c-1.1-4.4-1.6-9.5-1.6-15.4v-1.6c0-15.8,2.7-32.7,8-50.7v-1l-0.3-0.3
		C477.1,271.3,479.2,270.1,482.5,270.1z M482.8,276.2c-5.3,15.6-8,32.1-8,49.4v1c0,14.9,2.5,23.8,7.4,26.6l2.6,0.6h1
		c6,0,10.3-5.3,12.8-16c0.6-2.8,1-6,1-9.6v-5.8c0-16.5-4.3-31.2-12.8-44C485.1,277,483.8,276.2,482.8,276.2z"/>
	<path fill="#FFFFFF" d="M533.9,259.3c6,0.6,9.7,6.2,11,16.9l0,4.2c-0.8,8.5-5.1,17-12.7,25.5c1.5,3.2,4.6,13.5,9.3,30.8l8.5,19.5
		c-0.9,1.8-2,2.7-3.5,2.5c-1.8-0.2-4.7-5.5-8.5-15.9c-2.7-5.2-5.6-14.8-8.8-28.9c-0.8-2.4-1.5-3.7-1.9-3.8l-6.8,3.6
		c0.1,14.9,0.7,28.9,1.8,42c-0.1,1.1-1,2.1-2.6,3l-1-0.1c-2-0.2-2.9-2.3-2.9-6.4c-1.8-37.2-2-63.2-0.6-78.1c-1.4-1.2-2-2.4-1.9-3.7
		c0-0.5,0.8-1.4,2.2-2.7c0.2-2.8,1.4-4.1,3.6-3.9l1.5,0.8C526.2,260.8,530.6,259,533.9,259.3z M521.1,271.9
		c-0.8,14.8-1,26.4-0.7,34.7l1,0.1c6.7-3.1,12.2-10.5,16.6-22l0.7-4.4l0.1-1c0.6-6.2-0.8-10.8-4.2-13.9l-1.6-0.1
		C530.7,265.1,526.7,267.3,521.1,271.9z"/>
</g>
<g enable-background="new    ">
	<path fill="#FFFFFF" d="M149.3,375c6.8,0,11.6,4.1,14.4,12.2c0.4,0.8,0.6,2,0.6,3.5c0,1.7-1.1,2.7-3.2,2.9c-1.8,0-3-2.2-3.5-6.7
		c-2.2-3.9-4.8-5.8-7.7-5.8h-1.3c-4.2,0-6.7,4.1-7.4,12.2v0.3c0,9.8,6.2,24.5,18.6,44.3c3.9,7.6,5.8,13.9,5.8,18.9
		c0,7-3.5,12.3-10.6,16l-3.5,0.6c-6.3,0-12.3-4.3-18-12.8c-1.1-1.9-1.6-3.9-1.6-6.1c0-3.4,1.2-5.3,3.5-5.8h1c1.5,1.1,2.2,2,2.2,2.9
		l-0.6,2.9v0.3c0,4.4,3.6,8.4,10.9,12.2l1.9,0.3h1c3.5,0,6.1-3,7.7-9v-1.3c0-7.3-4.7-18-14.1-32.1c-6.8-13.4-10.3-23.8-10.3-31.4
		c0-8.5,3.3-14.5,9.9-18L149.3,375z"/>
	<path fill="#FFFFFF" d="M185.6,372.9h5.1c6.7,0,11.2,1.2,13.5,3.5l0.6,1.9v0.3c0,1.7-1.1,2.7-3.2,2.9c-2-1.7-6.1-2.6-12.2-2.6h-1
		v0.3c0,12.6,0.2,30,0.5,52.3c0.3,22.3,1.3,34.6,3.1,37c-0.7,1.9-1.9,2.9-3.5,2.9c-2.8,3.1-4.6-8.6-5.2-35
		c-0.6-26.4-0.9-45.5-0.9-57.1V379l-9,0.6c-1.7-0.8-2.6-1.9-2.6-3.2C170.9,374.1,175.8,372.9,185.6,372.9z"/>
	<path fill="#FFFFFF" d="M223.6,382.8c9,0,16.3,12.7,21.8,38.2c0.9,5.3,1.4,10.7,1.6,16.4c0,16.5-4.4,27.6-13.2,33.4
		c-3.4,1.3-6.1,1.9-8,1.9c-7.2,0-12.1-5.8-14.4-17.3c-1.1-4.4-1.6-9.5-1.6-15.4v-1.6c0-15.8,2.7-32.7,8-50.7v-1l-0.3-0.3
		C218.2,383.9,220.2,382.8,223.6,382.8z M223.9,388.9c-5.3,15.6-8,32.1-8,49.4v1c0,14.9,2.5,23.8,7.4,26.6l2.6,0.6h1
		c6,0,10.3-5.3,12.8-16c0.6-2.8,1-6,1-9.6v-5.8c0-16.5-4.3-31.2-12.8-44C226.1,389.6,224.8,388.9,223.9,388.9z"/>
	<path fill="#FFFFFF" d="M267.8,373.1c6.6,0,11.7,4.2,15.1,12.5l0.6,3.9c0,7.8-4.4,17.9-13.2,30.5c-2.9,2.8-5.6,4.7-8,5.5l0.3,2.9
		l0.6,39.8c0,1.6-1.1,2.6-3.2,2.9c-1.9,0-2.9-1.3-2.9-3.9c0-29.7-0.6-44.6-1.9-44.6c-1.7-2.4-2.6-4.2-2.6-5.5c0-1.3,1.1-2.1,3.2-2.6
		l-1-31.4c0-5.1,1.1-7.7,3.2-7.7l1.9,0.3C262.6,373.9,265.2,373.1,267.8,373.1z M261.3,382.7L262,416l0.3,2.2
		c4.4-1.7,8.8-8.5,13.2-20.2c1.3-3.2,1.9-6.4,1.9-9.6c-1.9-6.2-4.9-9.3-9-9.3h-1.3C264.9,379.2,263,380.3,261.3,382.7z"/>
	<path fill="#FFFFFF" d="M302.4,373.1c6.6,0,11.7,4.2,15.1,12.5l0.6,3.9c0,7.8-4.4,17.9-13.2,30.5c-2.9,2.8-5.6,4.7-8,5.5l0.3,2.9
		l0.6,39.8c0,1.6-1.1,2.6-3.2,2.9c-1.9,0-2.9-1.3-2.9-3.9c0-29.7-0.6-44.6-1.9-44.6c-1.7-2.4-2.6-4.2-2.6-5.5c0-1.3,1.1-2.1,3.2-2.6
		l-1-31.4c0-5.1,1.1-7.7,3.2-7.7l1.9,0.3C297.2,373.9,299.8,373.1,302.4,373.1z M295.9,382.7l0.6,33.4l0.3,2.2
		c4.4-1.7,8.8-8.5,13.2-20.2c1.3-3.2,1.9-6.4,1.9-9.6c-1.9-6.2-4.9-9.3-9-9.3h-1.3C299.5,379.2,297.6,380.3,295.9,382.7z"/>
	<path fill="#FFFFFF" d="M339.1,374.2h0.3c5.3,0.2,8,0.9,8,2.2v1.9c-0.5,1.1-1.3,1.8-2.6,2.2l-4.5-0.3h-2.2v0.3
		c1,54.5,2.5,81.8,4.5,81.8l10.9-1.6c1.5,0.6,2.2,1.6,2.2,2.9v0.3c0,2.1-4.2,3.5-12.5,4.2c-5.5,1.1-9.8,1.6-12.8,1.6
		c-1.5-0.6-2.2-1.6-2.2-2.9c0-2.4,2.6-3.5,7.7-3.5V463c-1.7-11.2-3-38.5-3.8-82.1h-0.3l-9.3,1.6c-1.7-0.7-2.6-1.9-2.6-3.5
		c0-1.9,4.3-3.3,12.8-4.2C332.7,374.5,334.8,374.2,339.1,374.2z"/>
	<path fill="#FFFFFF" d="M371.3,375.7c1.8,0,3.2,4.8,4.2,14.4c4.9,28.5,10.1,50,15.4,64.5h0.6c1.9-28.7,2.9-51.4,2.9-68v-1
		c0-2.1-0.2-3.2-0.6-3.2c0.7-2.4,1.8-3.5,3.5-3.5c2.1,0,3.2,2.1,3.2,6.4v2.2c-1.4,55.2-3.3,82.8-5.8,82.8l-1.6,0.6
		c-1.9,0-4-3.4-6.1-10.3c-3.6-8.2-7.6-22-11.9-41.4c-1.2-6.6-2-9.9-2.6-9.9v0.6l0.3,22.8c-0.1,17.8-0.1,29-0.1,33.5v5.1
		c0,1.7-1,2.6-2.9,2.6c-2.1,0-3.2-1.7-3.2-5.1v-3.2c0-3.6,0-14.3,0.1-32.3l-0.3-26c0-21,1-31.4,2.9-31.4L371.3,375.7z"/>
	<path fill="#FFFFFF" d="M425.1,372.4c1.9,0.7,2.9,1.8,2.9,3.2c0,1.6-1.9,2.8-5.8,3.9c-6.6,4.8-9.9,16.6-9.9,35.3
		c0,22.5,4,38.5,11.9,48.1c1.8,1.5,3.2,2.2,4.2,2.2c4.7,0,7.6-7.1,8.7-21.2l0.3-4.5c-0.2-3.2-0.5-4.8-1-4.8
		c-2.5,0.9-6.1,2.9-10.9,5.8l-1.9,0.3c-1.2,0-2.1-1-2.9-2.9c0-1.6,2.4-3.4,7.1-5.5c3.9-2.6,6.9-3.9,9-3.9c3.9,0,6.2,3,6.7,9v0.6
		c0,17.4-3.7,28.2-11.2,32.4c-2.1,0.1-3.2,0.3-3.2,0.6c-9.8,0-16.9-11.8-21.2-35.3c-1.1-7-1.6-13.6-1.6-19.6v-2.2
		c0-20.5,4.4-33.8,13.2-39.8C422.3,373.1,424.2,372.4,425.1,372.4z"/>
	<path fill="#FFFFFF" d="M480.1,379.5c0.9,0.2,2,1,3.2,2.6l3.2-0.3c8.2,0,14,4.8,17.6,14.4c0.9,2.9,1.3,5.6,1.3,8v1l0.3,0.3
		l-0.3,0.3v1.3c0,6.1-2,12.1-6.1,18c6.6,4.2,9.9,10.3,9.9,18.3v2.2c0,8.5-3,16.5-9,24.1c-2.7,2.6-5.5,3.9-8.3,3.9l-4.8-1h-0.3
		l-1,0.6h-1.3c-1.8,0-2.9-2.1-3.5-6.4c-1.7-8.7-2.6-18.5-2.6-29.2v-5.8l-1.6-3.5V428l1.6-2.9v-8.7c0-14.1-0.5-25.6-1.6-34.3
		C477.4,380.4,478.5,379.5,480.1,379.5z M483.6,388.2c0.6,9.4,1,19.6,1,30.8v6.7h2.6c5.3,0,9.3-4.8,11.9-14.4l0.3-3.9v-3.5
		c0-7.7-3-12.8-9-15.4l-3.8-0.6h-1.3L483.6,388.2z M485.6,431.8h-1v5.5c0,19,1.3,28.6,3.9,28.6c0.9,1.1,1.8,1.6,2.9,1.6h1.3
		c4.1,0,7.5-5.9,10.3-17.6l0.3-5.8c0-7.8-2.6-12.3-7.7-13.5h-2.6L485.6,431.8z"/>
	<path fill="#FFFFFF" d="M549.4,374.3c1,0,2,1,2.9,2.9c-3.8,15.7-6.6,32.3-8.2,49.7c-1.6,17.4-3.8,32.5-6.6,45.3l-1.9,1.3
		c-2.4-0.7-3.5-1.7-3.5-2.9l5.9-40.1c-4.3-5.3-7.5-11.2-9.7-17.6c-2.9-8-8.4-18.3-16.4-31.1l-1-2.6c0-1.5,1.2-2.5,3.5-2.9
		c1.2,0.2,2.9,2.7,5.1,7.4c4.6,6.2,10.5,17.8,17.6,34.6l1.1,2.8C542.6,386.7,546.3,371.1,549.4,374.3z"/>
	<path fill="#FFFFFF" d="M559.3,379c2.8,0,4.2,7.4,4.2,22.1l-1.6,39.1l0.6,10.6c0,1.5-1.2,2.4-3.5,2.6c-2.1,0-3.2-4.3-3.2-12.8
		l1.6-36.6v-4.8c0-5.8-0.5-11.6-1.6-17.3C555.8,380.4,556.9,379.4,559.3,379z M559.9,463.7c1.2,0,2,1.2,2.2,3.5
		c0,0.9-0.9,1.7-2.6,2.6c-2.1-0.5-3.2-1.6-3.2-3.2C556.4,464.8,557.6,463.8,559.9,463.7z"/>
</g>
</svg>
