<?xml version="1.0" encoding="utf-8"?>
<!-- Generator: Adobe Illustrator 18.0.0, SVG Export Plug-In . SVG Version: 6.00 Build 0)  -->
<!DOCTYPE svg PUBLIC "-//W3C//DTD SVG 1.1//EN" "http://www.w3.org/Graphics/SVG/1.1/DTD/svg11.dtd">
<svg version="1.1" id="Layer_1" xmlns="http://www.w3.org/2000/svg" xmlns:xlink="http://www.w3.org/1999/xlink" x="0px" y="0px"
	 viewBox="0 0 202.5 274.5" enable-background="new 0 0 202.5 274.5" xml:space="preserve">
<g>
	<g>
		<path fill="#FFFFFF" d="M158.7,180.4c-9-10-22.8-13.3-35.4-8.3c-5.7,2.3-10.6,6.4-13.6,11.7c-3.3,6-2.8,13.6-2.5,20.2
			c0.1,2.4,3.9,2.4,3.8,0c-0.3-5.3-0.5-10.6,0.9-15.8c1.8-6.5,7.9-10.8,13.9-13.1c10.7-4.2,22.7-0.4,30.2,7.9
			C157.6,184.8,160.3,182.2,158.7,180.4L158.7,180.4z"/>
	</g>
</g>
<g>
	<g>
		<path fill="#FFFFFF" d="M108.7,202.4c-7.7,3-8.9,12.8-8.3,20c0.7,9.7,6.2,15.6,12.2,22.5c1.6,1.8,4.2-0.8,2.7-2.7
			c-4.6-5.2-8.6-9.1-10.5-16.1c-1.5-5.6-1.8-17.5,4.9-20.1C111.9,205.1,110.9,201.5,108.7,202.4L108.7,202.4z"/>
	</g>
</g>
<g>
	<g>
		<path fill="#FFFFFF" d="M111.5,244.7c0.9,7.1,3.1,13.8,6.7,20c0.3,0.6,1,0.9,1.6,0.9c1.2,0,2.5,0,3.7,0c0.9,0,1.5-0.6,1.8-1.4
			c1-2.9,2-5.7,2.8-8.6c0.7-2.3-2.9-3.3-3.6-1c-0.9,2.9-1.8,5.8-2.8,8.6c0.6-0.5,1.2-0.9,1.8-1.4c-1.2,0-2.5,0-3.7,0
			c0.5,0.3,1.1,0.6,1.6,0.9c-3.3-5.6-5.4-11.6-6.2-18.1C114.9,242.4,111.2,242.3,111.5,244.7L111.5,244.7z"/>
	</g>
</g>
<g>
	<g>
		<path fill="#FFFFFF" d="M144.8,256.9c-6.8,0.7-13.2-1.6-17.9-6.6c-1.7-1.8-4.3,0.9-2.7,2.7c5.4,5.6,12.8,8.5,20.5,7.7
			C147.2,260.4,147.2,256.7,144.8,256.9L144.8,256.9z"/>
	</g>
</g>
<g>
	<g>
		<path fill="#FFFFFF" d="M144.3,255.7c0,2.5-0.4,4.8-1.3,7.2c-0.4,1.2,0.7,2.4,1.8,2.4c1.7,0,3.6,0.3,5.2,0
			c1.6-0.3,2.4-1.4,3.2-2.6c2.1-2.9,3.4-6.5,4.1-10c0.4-2.4-3.2-3.4-3.6-1c-0.5,2.6-1.3,4.9-2.5,7.2c-0.4,0.8-1.2,2.7-2.2,2.7
			c-1.4,0-2.7,0-4.1,0c0.6,0.8,1.2,1.6,1.8,2.4c1-2.6,1.5-5.3,1.4-8.2C148,253.3,144.3,253.3,144.3,255.7L144.3,255.7z"/>
	</g>
</g>
<g>
	<g>
		<path fill="#FFFFFF" d="M154,261.3c6.1-0.9,12-2.7,17.7-5.1c2.2-0.9,0.3-4.2-1.9-3.2c-5.4,2.3-11,3.8-16.8,4.7
			C150.7,258.1,151.7,261.7,154,261.3L154,261.3z"/>
	</g>
</g>
<g>
	<g>
		<path fill="#FFFFFF" d="M171.3,248.2c-0.6,4-1.6,7.7-3.3,11.4c-0.6,1.5,0.4,3.2,2.1,2.8c4.5-1.1,6.3-1.8,8.8-5.7
			c2.4-3.8,4.7-8.3,5.1-12.9c0.8-9.3-5.2-16.7-13.6-20c-2.3-0.9-3.2,2.7-1,3.6c7.2,2.8,12,9.7,10.6,17.5c-0.5,3-2.1,5.8-3.5,8.5
			c-1.9,3.4-3.7,4.5-7.4,5.4c0.7,0.9,1.4,1.8,2.1,2.8c1.8-4,3-8,3.6-12.3C175.3,246.9,171.7,245.8,171.3,248.2L171.3,248.2z"/>
	</g>
</g>
<g>
	<g>
		<path fill="#FFFFFF" d="M164.6,199.7c3.4,5.3,4,13.1,4.2,19.2c0.2,6.7-2.9,13.8-9.8,15.6c-2.3,0.6-1.3,4.2,1,3.6
			c7.1-1.8,11.1-8,12.3-15c1.3-7.5-0.3-18.8-4.4-25.3C166.5,195.8,163.3,197.6,164.6,199.7L164.6,199.7z"/>
	</g>
</g>
<g>
	<g>
		<path fill="#FFFFFF" d="M146.1,218.5c-1.1-6.6-11.1-7.8-16.4-7.9c-6.5-0.1-13.8,3.7-14.6,10.6c-1.3,11.5,33.7,13.5,30.3-1.7
			c-0.5-2.4-4.1-1.4-3.6,1c1.3,5.7-8.1,5.7-11.4,5.7c-3,0-15.5-1.8-10-8.3c2.6-3,7.3-3.6,11-3.5c3.1,0.1,10.4,1.2,11.1,5.1
			C142.9,221.9,146.6,220.9,146.1,218.5L146.1,218.5z"/>
	</g>
</g>
<g>
	<g>
		<path fill="#FFFFFF" d="M115.1,178.2c-4.1-7.1-13-2.3-19.3-3.8c-2.4-0.6-3.3,3.1-1,3.6c2.6,0.6,5,0.7,7.6,0.4
			c3.1-0.4,7.5-1.7,9.5,1.7C113.1,182.2,116.3,180.3,115.1,178.2L115.1,178.2z"/>
	</g>
</g>
<g>
	<g>
		<path fill="#FFFFFF" d="M95.2,179.2c6,3.3,7.3,11,11.9,15.6c1.7,1.7,4.4-0.9,2.7-2.7c-5-4.9-6.2-12.6-12.7-16.2
			C95,174.8,93.1,178,95.2,179.2L95.2,179.2z"/>
	</g>
</g>
<g>
	<g>
		<path fill="#FFFFFF" d="M180,172.4c-8.9,0.2-17.2,3.1-24.3,8.5c-1.9,1.5,0,4.7,1.9,3.2c6.6-5.1,14.1-7.8,22.4-8
			C182.4,176.1,182.5,172.4,180,172.4L180,172.4z"/>
	</g>
</g>
<g>
	<g>
		<path fill="#FFFFFF" d="M177.6,174.7c-7.5,5.3-4.3,17.1-13.1,20.9c-2.2,1-0.3,4.2,1.9,3.2c3.4-1.5,5.6-3.8,7.1-7.2
			c2-4.5,1.5-10.6,5.9-13.7C181.5,176.5,179.6,173.3,177.6,174.7L177.6,174.7z"/>
	</g>
</g>
<g>
	<g>
		<path fill="#FFFFFF" d="M158.9,205.3C158.9,205.2,158.9,205.2,158.9,205.3c-1.2,0-2.4,0-3.6,0c0,0,0,0.1,0,0.1
			c0.1-0.5,0.1-1,0.2-1.4c0.5-0.8-0.5,0.1-0.7,0.2c-0.4,0.3-0.8,0.6-1.2,0.9c-0.8,0.6-1.4,1.4-1.9,2.2c-1.2,1.7-1.8,4-1.8,6.1
			c0,1.7,2,2.4,3.2,1.3c2.3-2.1,3.9-4.8,4.8-7.8c0.7-2.3-2.9-3.3-3.6-1c-0.7,2.4-2,4.4-3.8,6.1c1.1,0.4,2.1,0.9,3.2,1.3
			c0-2.1,0.8-3.8,2.3-5.3c1.2-1.2,3.5-1.6,3-3.7c-0.5-1.9-3-1.7-3.6,0c0,0,0,0,0,0C154.5,206.5,158.1,207.5,158.9,205.3L158.9,205.3
			z"/>
	</g>
</g>
<g>
	<g>
		<path fill="#FFFFFF" d="M118.5,211.1c1.1-2,0.9-4.1-0.2-6.1c-1.1-2.1-3.5-3.3-5.6-4.3c-1.9-0.9-3.7,1.3-2.3,2.9
			c1.8,2.1,3.3,4.3,4.6,6.7c1.2,2.1,4.4,0.2,3.2-1.9c-1.5-2.7-3.2-5.1-5.2-7.5c-0.8,1-1.5,2-2.3,2.9c1.7,0.8,5.9,2.6,4.5,5.3
			C114.1,211.3,117.4,213.2,118.5,211.1L118.5,211.1z"/>
	</g>
</g>
<g>
	<g>
		<path fill="#FFFFFF" d="M140.9,171.7c1.4-0.6,2.1-2.1,2.1-3.5c-0.1-1.7-1.3-3-2.9-3.3c-3.6-0.8-5.9,3.4-4.1,6.4
			c0.9,1.4,3,0.1,2.2-1.3c-0.8-1.2-0.2-2.8,1.4-2.7c1.4,0.1,1.2,1.8,0.2,2.3c-0.6,0.3-0.8,1.2-0.4,1.7
			C139.6,171.9,140.3,171.9,140.9,171.7L140.9,171.7z"/>
	</g>
</g>
<g>
	<g>
		<path fill="#FFFFFF" d="M136.5,166.4c-1.9-2.3-12.7-11.2-13.3-3.7c-0.1,1.6,1.6,2.9,2.3,4.1c1,1.6-0.2,3.3,0.7,4.9
			c0.6,1,2.2,1.3,3.2,1c2.3-0.5,4.6-1.2,6.8-1.8c1.6-0.4,0.9-2.8-0.7-2.4c-1.1,0.3-2.3,0.6-3.4,0.9c-0.3,0.1-4,1.2-3.9,0.4
			c0.3-1.8-0.1-3.4-1-4.9c-0.2-0.3-2.3-2.6-1.2-2.7c1.1-0.1,2.6,0.9,3.5,1.4c2,1.1,3.7,2.7,5.1,4.4
			C135.8,169.4,137.6,167.7,136.5,166.4L136.5,166.4z"/>
	</g>
</g>
<g>
	<g>
		<path fill="#FFFFFF" d="M141.8,169.3c2.6-1.1,5.3-1.9,8.1-2.5c1.6-0.4,3.3-0.5,4.9-0.7c-0.6,0.1-1.6,1.1-2.1,1.4
			c-1.3,0.9-2.2,2-2.8,3.5c-0.7,1.8-1.5,1.5-3.3,1.1c-1.6-0.4-2.9-1.3-4.1-2.3c-1.2-1-3,0.7-1.8,1.8c2.1,1.8,6.4,4.5,9.3,3.4
			c1.3-0.5,1.8-1.1,2.2-2.4c0.7-2.4,2.5-3.2,4.3-4.6c1.8-1.3,1.7-4.2-1-4.3c-4.9-0.1-10,1.5-14.4,3.3
			C139.7,167.5,140.3,169.9,141.8,169.3L141.8,169.3z"/>
	</g>
</g>
<g>
	<g>
		<path fill="#FFFFFF" d="M136.5,220c0,0.2,0,0.3,0,0.5c0,1.6,2.5,1.6,2.5,0c0-0.2,0-0.3,0-0.5C139,218.4,136.5,218.4,136.5,220
			L136.5,220z"/>
	</g>
</g>
<g>
	<g>
		<path fill="#FFFFFF" d="M123.9,221.1c0.1-0.1,0.2-0.2,0.2-0.2c1.1-1.1-0.6-2.9-1.8-1.8c-0.1,0.1-0.2,0.2-0.2,0.2
			C121,220.5,122.8,222.3,123.9,221.1L123.9,221.1z"/>
	</g>
</g>
<g>
	<g>
		<path fill="#FFFFFF" d="M194,242.4c-0.9,0.8-1.7,1.3-2.9,1.7c-1.5,0.6-2.4,0-2.8-1.9c1.2-1.4,1.3-1.2,0.3,0.3
			c-1.6,1.9-5.1,2.4-7.4,2.6c-1.6,0.1-1.6,2.6,0,2.5c3.8-0.3,8.3-1.3,10.3-4.9c1.6-2.8-0.9-5-3.4-3.7c-2.7,1.4-3.3,4.9-1.1,7
			c2.5,2.2,6.9-0.1,8.9-1.8C197,243.1,195.2,241.4,194,242.4L194,242.4z"/>
	</g>
</g>
<g>
	<g>
		<path fill="#FFFFFF" d="M114.9,134.8c12.5-0.2,24.9-1.9,34.3-10.7c8.9-8.3,13-21.4,15.6-32.9c5.2-23.8-4.2-47.6-21.8-63.8
			C124,9.9,96.8,5.2,71.9,9.6c-12.3,2.2-25.8,6.9-35.7,14.7c-10,7.9-15.9,18.9-20.4,30.6c-8.1,21.3-12.9,49,5.6,66.4
			c8.6,8.2,21.3,11.1,32.7,12.9c13.9,2.1,28.1,1.6,42.1,0.9c1.6-0.1,1.6-2.6,0-2.5c-27.8,1.3-71.2,4.1-82.7-28.2
			C8.2,89.4,12.3,73,17.2,58.6c4.8-14,11.9-26.9,24.5-35.1C66.4,7.6,101.2,6,127.1,19.3c23.4,12.1,38.8,38,36.4,64.4
			c-1.1,12.2-5.5,25.7-13,35.4c-8.6,11.1-22.4,13-35.6,13.2C113.3,132.4,113.3,134.9,114.9,134.8L114.9,134.8z"/>
	</g>
</g>
<g>
	<g>
		<path fill="#FFFFFF" d="M94.1,135.4c2.5,9.1,9,16.3,17.8,19.7c1.5,0.6,2.2-1.8,0.7-2.4c-8-3.1-13.9-9.7-16.1-17.9
			C96,133.2,93.6,133.9,94.1,135.4L94.1,135.4z"/>
	</g>
</g>
<g>
	<g>
		<path fill="#FFFFFF" d="M114.4,132.7c-4.1-1.4-5.4,7.6-5.9,9.9c-0.8,4.3-1.3,10.5,3.1,13c1.4,0.8,2.7-1.4,1.3-2.2
			c-4.4-2.5-0.4-18.8,0.9-18.4C115.3,135.7,115.9,133.2,114.4,132.7L114.4,132.7z"/>
	</g>
</g>
<rect x="29.4" y="49.9" fill="none" width="119" height="75"/>
<text transform="matrix(1 0 0 1 36.618 72.0831)"><tspan x="0" y="0" fill="#FFFFFF" font-family="'SueEllenFrancisco'" font-size="24">THANKS FOR </tspan><tspan x="-3.9" y="28.8" fill="#FFFFFF" font-family="'SueEllenFrancisco'" font-size="24">STOPPING BY!</tspan></text>
</svg>
