<?xml version="1.0" encoding="utf-8"?>
<!-- Generator: Adobe Illustrator 18.0.0, SVG Export Plug-In . SVG Version: 6.00 Build 0)  -->
<!DOCTYPE svg PUBLIC "-//W3C//DTD SVG 1.1//EN" "http://www.w3.org/Graphics/SVG/1.1/DTD/svg11.dtd">
<svg version="1.1" id="Layer_1" xmlns="http://www.w3.org/2000/svg" xmlns:xlink="http://www.w3.org/1999/xlink" x="0px" y="0px"
	 viewBox="0 0 213 204" enable-background="new 0 0 213 204" xml:space="preserve">
<g>
	<g>
		<path fill="#FFFFFF" d="M138.6,82.8c-1.4,6.1-3,12.1-4.8,18.1c-0.6,1.9,1.8,2.9,3.1,1.8c7.2-5.9,14.1-12.1,21-18.3
			c1.8-1.6-0.9-4.3-2.7-2.7c-6.9,6.2-13.9,12.4-21,18.3c1,0.6,2.1,1.2,3.1,1.8c1.8-6,3.4-12,4.8-18.1
			C142.7,81.4,139.1,80.4,138.6,82.8L138.6,82.8z"/>
	</g>
</g>
<g>
	<g>
		<path fill="#FFFFFF" d="M139,81.5c-3.2-0.5-6.3,0.4-9.5-0.1c-4-0.6-2.3-12.6-2.2-15.2c0.3-8.9,0.7-17.7,0-26.5
			c-0.4-4.5-2.1-10.3,2.4-13.4c3.2-2.2,8.8-1.2,12.4-1.2c8.9,0.2,17.8,0,26.6-0.4c7.5-0.3,19.1-3.3,19.6,7.5
			c0.4,8.8-0.2,17.6-0.4,26.4c-0.1,4.5-0.2,9-0.3,13.5c0,1.9-0.1,3.8-0.2,5.8c-0.1,4.5-4.2,4.9-7.7,5.2c-8.8,0.7-17.6,0.6-26.3-0.1
			c-2.4-0.2-2.4,3.6,0,3.8c11.2,0.9,22.8,1.2,33.9-0.7c3-0.5,3.6-3.7,3.8-6.2c0.4-6.4,0.4-12.8,0.5-19.2c0.1-5.8,0.2-11.5,0.3-17.3
			c0.1-5.2,0.6-10.6-0.5-15.7c-2-9.1-14.3-7.1-20.8-6.7c-11.7,0.7-23.4,0.3-35.2,0.5c-8.5,0.1-12.9,5.1-12.4,13.5
			c0.6,11.8,0.7,23.4,0.4,35.2c-0.1,4.5-1.1,9.6,1.8,13.3c2.8,3.5,9.2,1.3,12.7,1.8C140.4,85.4,141.4,81.8,139,81.5L139,81.5z"/>
	</g>
</g>
<g>
	<g>
		<path fill="#FFFFFF" d="M159.2,54.8c0.1-0.1,0.3-0.1,0.4-0.2c0.6-0.3,0.9-1,0.9-1.6c-0.2-5-5.3-10.2-9.7-11.8
			c-0.9-0.3-2.2,0.4-2.3,1.3c-0.6,4,1.6,7.4,3.3,10.9c2.6,5.6,5.2,11.2,7.8,16.8c0.7,1.6,3,0.9,3.4-0.4c1.9-5.6,3.8-11.1,5.7-16.7
			c0.8-2.3,2.4-6.8,0.3-8.9c-5.7-5.7-10,9.8-10.4,12.8c-0.4,2.4,3.3,3.4,3.6,1c0.4-2.6,1-4.9,2.1-7.3c0.5-1,1-1.9,1.6-2.8
			c1.5-2.5-0.7,4-0.8,4.3c-1.7,5.6-3.8,11.2-5.7,16.7c1.1-0.1,2.3-0.3,3.4-0.4c-1.8-3.9-3.7-7.9-5.5-11.8c-1.6-3.4-5.8-9.3-5.3-13.1
			c-0.8,0.4-1.5,0.9-2.3,1.3c2.6,0.9,3.7,2.4,5.1,4.6c0.8,1.1,0.8,3,2.4,2.2C155.1,52.6,157,55.8,159.2,54.8L159.2,54.8z"/>
	</g>
</g>
<g>
	<g>
		<path fill="#FFFFFF" d="M150.7,46.9c1.3,2.3,2.6,4.6,3.8,7c0.4,0.7,4.2,8.6,4.4,8.4c1,0.6,2.1,1.2,3.1,1.8
			c1.4-5.5,2.8-11.1,4.3-16.6c0.6-2.3-3-3.3-3.6-1c-1.5,5.5-2.9,11-4.3,16.6c-0.5,2,1.7,2.9,3.1,1.8c2.2-1.7-0.1-5-0.9-7
			c-2-4.5-4.2-8.8-6.7-13C152.7,42.9,149.5,44.8,150.7,46.9L150.7,46.9z"/>
	</g>
</g>
<g>
	<g>
		<path fill="#FFFFFF" d="M164.5,47.1c0.3,1.9-0.3,3.9-1.3,5.5c1.1,0.5,2.3,1,3.4,1.4c0.3-1.8,0.7-3.6,1-5.4c0.4-2.4-3.2-3.4-3.6-1
			c-0.3,1.8-0.7,3.6-1,5.4c-0.4,2,2.3,3.3,3.4,1.4c1.6-2.6,2-5.4,1.6-8.4c-0.1-1-1.4-1.6-2.3-1.3C164.8,45.1,164.4,46.1,164.5,47.1
			L164.5,47.1z"/>
	</g>
</g>
<g>
	<g>
		<path fill="#FFFFFF" d="M81.4,132c-12.6-0.3-18.5,12.1-18.8,23.1c-0.1,5.4,0.3,13.9,2.9,18.8c3,5.7,10.2,4.7,15.8,5.2
			c6.3,0.6,10.1-4.7,13.8-9.1c4.5-5.5,9.1-11.6,11.7-18.2c4.3-10.8-5.1-21.4-15.9-21c-1.6,0.1-1.6,2.6,0,2.5c5.1-0.2,9.3,1.8,12.3,6
			c3.6,5.1,1.9,11.3-0.9,16.2c-2,3.5-4.6,6.9-7,10.1c-3.2,4.4-7.9,11.3-14,10.9c-5.1-0.3-12.7,0-14.3-6.4
			c-1.2-4.8-1.7-10.1-1.8-15.1c-0.2-9.6,5.4-20.9,16.3-20.6C83,134.6,83,132.1,81.4,132L81.4,132z"/>
	</g>
</g>
<g>
	<g>
		<path fill="#FFFFFF" d="M80.5,133.3c-2.7,2.1-5.7,4-6.8,7.4c-0.3,1,0.7,1.7,1.5,1.5c4.2-0.7,7-3.5,9.8-6.5
			c-0.7-0.3-1.4-0.6-2.1-0.9c0.1,3.7,0.6,7.4,4.2,9.2c0.8,0.4,1.5,0,1.8-0.7c1.2-3.2,1.2-6.3-0.1-9.5c-0.7,0.4-1.4,0.8-2.1,1.2
			c2,1.6,4,2.4,6.6,2.4c0.8,0,1.5-0.8,1.2-1.6c-2.4-6.7-10.6-8.5-15.3-3c-1,1.2,0.7,3,1.8,1.8c3.4-4,9.3-3.2,11.1,1.9
			c0.4-0.5,0.8-1.1,1.2-1.6c-1.9,0-3.3-0.5-4.8-1.7c-0.8-0.7-2.6-0.1-2.1,1.2c1.1,2.8,1.1,5.4,0.1,8.1c0.6-0.2,1.2-0.5,1.8-0.7
			c-2.8-1.4-2.9-4.3-2.9-7.1c0-1-1.4-1.7-2.1-0.9c-2.5,2.7-4.9,5.2-8.7,5.8c0.5,0.5,1,1,1.5,1.5c0.9-2.9,3.9-4.6,6.2-6.3
			C83.5,134.1,81.7,132.3,80.5,133.3L80.5,133.3z"/>
	</g>
</g>
<g>
	<g>
		<path fill="#FFFFFF" d="M86,130c-0.9-2.6-1.2-5.2-0.9-8c-0.3,0.4-0.6,0.8-0.9,1.2c1.2-0.4,2.5-0.6,3.8-0.6
			c-0.4-0.5-0.8-1.1-1.2-1.6c-0.8,3.2-1.3,6.4-1.5,9.7c-0.1,1.6,2.4,1.6,2.5,0c0.2-3,0.7-6,1.4-9c0.2-0.8-0.4-1.6-1.2-1.6
			c-1.5,0.1-3,0.3-4.4,0.7c-0.6,0.2-0.9,0.6-0.9,1.2c-0.3,3,0.1,5.8,1,8.7C84.1,132.2,86.6,131.5,86,130L86,130z"/>
	</g>
</g>
<g>
	<g>
		<path fill="#FFFFFF" d="M89.6,147.4c-2.2,1.9-3.3,4.6-2.9,7.5c0.1,0.5,0.7,0.9,1.1,0.4c2-2.2,3.1-5,2.8-7.9
			c-0.1-0.8-1.3-0.8-1.2,0c0.2,2.6-0.6,5.1-2.4,7.1c0.4,0.1,0.7,0.3,1.1,0.4c-0.3-2.6,0.6-4.9,2.5-6.6
			C91.1,147.7,90.2,146.8,89.6,147.4L89.6,147.4z"/>
	</g>
</g>
<g>
	<g>
		<path fill="#FFFFFF" d="M95.2,146.3c0,0,0.1,0,0.1,0c0.3,0,0.5-0.2,0.6-0.5c0.1-0.4,0-0.6-0.2-0.9c-0.1-0.2-0.4-0.2-0.6-0.2
			c-1,0.4-1,1.5-1.2,2.5c-0.3,1.7-0.4,3.4-0.3,5.1c0,0.3,0.2,0.5,0.5,0.6c3.1,0.8,2.6-6.4,2.4-7.9c-0.1-0.8-1.3-0.8-1.2,0
			c0.1,0.7,0.3,7-0.8,6.7c0.2,0.2,0.3,0.4,0.5,0.6c0-0.9,0-1.8,0-2.8c0-0.5,0.1-3.4,0.6-3.6c-0.2-0.1-0.4-0.1-0.6-0.2
			c0,0,0.1,0.1,0.1,0.1c-0.1-0.2-0.1-0.4-0.2-0.6c0,0.1,0,0.1-0.1,0.2c0.2-0.2,0.4-0.3,0.6-0.5c0,0-0.1,0-0.1,0
			C94.4,145.1,94.4,146.4,95.2,146.3L95.2,146.3z"/>
	</g>
</g>
<g>
	<g>
		<path fill="#FFFFFF" d="M101.8,146.6c-2.1,1.1-2.4,3.6-2.1,5.7c0.1,0.4,0.6,0.6,0.9,0.4c2-1.4,2.7-4.1,1.7-6.3
			c-0.3-0.7-1.4-0.1-1.1,0.6c0.7,1.6,0.2,3.6-1.3,4.6c0.3,0.1,0.6,0.2,0.9,0.4c-0.2-1.6,0-3.5,1.5-4.3
			C103.1,147.3,102.5,146.3,101.8,146.6L101.8,146.6z"/>
	</g>
</g>
<g>
	<g>
		<path fill="#FFFFFF" d="M82.5,160.3c-1.7,2-2.7,4.4-2.8,7.1c0,0.3,0.3,0.7,0.6,0.6c3.2-0.3,3.2-4.9,3.6-7.2
			c0.1-0.8-1.1-1.1-1.2-0.3c-0.2,1.4-0.3,6.1-2.4,6.2c0.2,0.2,0.4,0.4,0.6,0.6c0.1-2.3,0.9-4.4,2.4-6.2
			C83.9,160.6,83,159.7,82.5,160.3L82.5,160.3z"/>
	</g>
</g>
<g>
	<g>
		<path fill="#FFFFFF" d="M90.1,160.8c0,0,0.1,0,0.1,0c0.2,0.1,0.5,0,0.6-0.2c0.3-0.4,0.4-0.8,0.1-1.2c-0.5-0.6-1.2-0.2-1.7,0.2
			c-1.8,1.5-2.5,4.4-2.7,6.5c0,0.5,0.6,0.8,0.9,0.5c2.4-1.7,3.8-4.4,3.6-7.3c0-0.8-1.3-0.8-1.2,0c0.2,2.5-0.9,4.8-3,6.3
			c0.3,0.2,0.6,0.4,0.9,0.5c0.1-1,0.3-1.9,0.6-2.9c0.2-0.7,1.2-2.8,2-2.9c-0.2-0.1-0.4-0.2-0.5-0.3c0-0.1,0-0.2,0.1-0.3
			c0.2-0.1,0.4-0.1,0.6-0.2c0,0-0.1,0-0.1,0C89.6,159.3,89.3,160.5,90.1,160.8L90.1,160.8z"/>
	</g>
</g>
<g>
	<g>
		<path fill="#FFFFFF" d="M95.7,161.3c0,0,0.1,0,0.1,0c0.2,0.1,0.5,0,0.6-0.2c0.9-0.9-0.3-1.9-1.3-1.2c-1.5,1.2-2.6,3-3.4,4.7
			c-0.2,0.5,0.3,1.2,0.9,0.9c2.2-1.2,3.6-3.4,3.9-5.9c0.1-0.8-1.1-0.8-1.2,0c-0.3,2.1-1.5,3.8-3.3,4.8c0.3,0.3,0.6,0.6,0.9,0.9
			c0.3-0.8,0.7-1.5,1.2-2.2c0.3-0.4,1.4-2.2,2-2.1c-0.2-0.1-0.4-0.2-0.5-0.3c0-0.1,0-0.2,0-0.4c0.2-0.1,0.4-0.1,0.6-0.2
			c0,0-0.1,0-0.1,0C95.3,159.8,95,161,95.7,161.3L95.7,161.3z"/>
	</g>
</g>
<g>
	<g>
		<path fill="#FFFFFF" d="M78.2,170.3c-0.8,0.5-1.3,1.4-1.5,2.3c-0.2,0.8-0.1,2,1,2c0.9,0,1.7-1.1,2.1-1.8c0.5-0.9,0.6-2,0.4-3
			c-0.2-0.8-1.4-0.5-1.2,0.3c0.2,1-0.1,2-0.8,2.8c-0.2,0.2-0.3,0.2-0.3,0.5c0-0.2,0.1-0.5,0.1-0.7c0.1-0.6,0.4-1.1,0.9-1.4
			C79.5,170.9,78.8,169.8,78.2,170.3L78.2,170.3z"/>
	</g>
</g>
<g>
	<g>
		<path fill="#FFFFFF" d="M85.5,171.7c-0.4,0-0.8-0.1-1.2,0c-0.4,0.1-0.5,0.6-0.7,0.9c-0.3,0.7-0.5,1.4-0.5,2.1
			c0,0.4,0.4,0.7,0.8,0.6c1.4-0.2,2.5-1.6,2.3-3c-0.1-0.8-1.3-0.8-1.2,0c0.1,0.9-0.5,1.7-1.4,1.8c0.3,0.2,0.5,0.4,0.8,0.6
			c0-0.8,0.2-1.4,0.6-2.1c-0.2,0.1-0.4,0.2-0.5,0.3c0.3,0,0.7,0,1,0C86.3,173,86.3,171.7,85.5,171.7L85.5,171.7z"/>
	</g>
</g>
<g>
	<g>
		<path fill="#FFFFFF" d="M78.4,147.9c0.1-0.8-0.3-1.4-1.1-1.4c-0.2,0-0.4,0.1-0.5,0.3c-0.8,1.6-0.7,3.4,0.2,4.9
			c0.2,0.4,0.7,0.4,1,0.1c1.3-1.1,1.5-3,0.7-4.4c-0.4-0.7-1.5-0.1-1.1,0.6c0.6,1,0.4,2.1-0.5,2.9c0.3,0,0.7,0.1,1,0.1
			c-0.7-1.1-0.8-2.5-0.2-3.7c-0.2,0.1-0.4,0.2-0.5,0.3c0-0.1-0.1-0.1-0.1-0.2C77.1,148.3,78.3,148.7,78.4,147.9L78.4,147.9z"/>
	</g>
</g>
<g>
	<g>
		<path fill="#FFFFFF" d="M74.1,158.7c-1.5,1-1.5,3.3,0,4.2c0.4,0.2,0.8,0,0.9-0.4c0.2-0.7,0.4-1.4,0.7-2.1c0.3-0.8-1-1.1-1.2-0.3
			c-0.2,0.7-0.4,1.4-0.7,2.1c0.3-0.1,0.6-0.2,0.9-0.4c-0.7-0.4-0.7-1.6,0-2.1C75.4,159.3,74.8,158.2,74.1,158.7L74.1,158.7z"/>
	</g>
</g>
<g>
	<g>
		<path fill="#FFFFFF" d="M72.3,167.5c-0.7,0.8-1,1.7-0.7,2.7c0.1,0.2,0.3,0.5,0.6,0.5c1.1-0.1,1.6-1.1,1.8-2.2
			c0.2-0.8-1-1.1-1.2-0.3c-0.1,0.3-0.2,1.2-0.6,1.3c0.2,0.2,0.4,0.3,0.6,0.5c-0.1-0.6,0-1.1,0.4-1.5
			C73.7,167.8,72.9,166.9,72.3,167.5L72.3,167.5z"/>
	</g>
</g>
<g>
	<g>
		<path fill="#FFFFFF" d="M71.6,145.3c-0.5,1.1-0.8,2.2-0.7,3.4c0,0.4,0.4,0.8,0.8,0.6c1.3-0.5,2-1.8,1.7-3.1
			c-0.2-0.8-1.4-0.5-1.2,0.3c0.1,0.7-0.2,1.4-0.9,1.6c0.3,0.2,0.5,0.4,0.8,0.6c-0.1-1,0.1-1.9,0.5-2.7C73,145.2,72,144.6,71.6,145.3
			L71.6,145.3z"/>
	</g>
</g>
<g>
	<g>
		<path fill="#FFFFFF" d="M69.4,155.6c-0.9,0.7-1.1,2.1-0.5,3c0.2,0.3,0.7,0.4,1,0.1c0.5-0.6,0.8-1.3,0.9-2.1c0.1-0.8-1.2-0.8-1.2,0
			c-0.1,0.4-0.3,0.9-0.5,1.2c0.3,0,0.7,0.1,1,0.1c-0.3-0.5-0.2-1.1,0.3-1.5C70.9,156,70,155.1,69.4,155.6L69.4,155.6z"/>
	</g>
</g>
<g>
	<g>
		<path fill="#FFFFFF" d="M67,165.8c0.3,0.9,0.6,1.8,0.8,2.8c0.1,0.5,0.9,0.7,1.1,0.1c0.5-1.1,0.3-2.2-0.4-3.1
			c-0.5-0.6-1.4,0.3-0.9,0.9c0.4,0.4,0.5,1.1,0.2,1.6c0.4,0,0.8,0.1,1.1,0.1c-0.3-0.9-0.6-1.8-0.8-2.8C68,164.7,66.8,165,67,165.8
			L67,165.8z"/>
	</g>
</g>
<g>
	<g>
		<path fill="#FFFFFF" d="M31.7,151.2c6-7.5,14.6-3.7,19.2,3.1c4.3,6.2,5.2,14.4,4.4,21.7c-0.2,1.6,2.3,1.6,2.5,0
			c1.1-9.6-1.2-19.5-7.7-26.8c-5.6-6.2-14.9-6.3-20.1,0.2C28.9,150.6,30.7,152.4,31.7,151.2L31.7,151.2z"/>
	</g>
</g>
<g>
	<g>
		<path fill="#FFFFFF" d="M54.7,176.4c7.2,8.1-7.1,9.5-10.5,9.7c-3.8,0.2-7.5-0.5-11-1.8c-4.2-1.4-7.8-4.4-10.3-7.9
			c-2.2-3.1-5.2-12.2-1.1-15.2c1.3-0.9,0-3.1-1.3-2.2c-4.5,3.3-3.1,11-1.4,15.5c2.5,6.5,8.7,10.5,14.9,12.7
			c7.8,2.7,34,0.4,22.4-12.7C55.4,173.5,53.7,175.2,54.7,176.4L54.7,176.4z"/>
	</g>
</g>
<g>
	<g>
		<path fill="#FFFFFF" d="M23.5,152.9c-3.2,1.6-5.3,4.5-5.9,8c-0.2,1,0.8,2,1.8,1.4c0.8-0.5,5.1-3.6,6-3.2c1.7,0.9,3.5,1.2,5.4,1.1
			c0.9,0,1.6-1,1.1-1.9c-0.8-1.1-1.5-2.3-2.3-3.4c-0.1,0.6-0.3,1.1-0.4,1.7c1.7-1.1,3.5-2,5.4-2.7c0.6-0.2,0.9-0.6,0.9-1.2
			c0.2-2-2.2-2.8-3.8-2.9c-2.9-0.2-5.4,0.7-7.6,2.6c-1.2,1.1,0.6,2.8,1.8,1.8c1.1-0.9,2.1-1.4,3.5-1.8c0.3-0.1,3.8-0.3,3.7,0.3
			c0.3-0.4,0.6-0.8,0.9-1.2c-2.1,0.8-4.1,1.7-6,2.9c-0.5,0.3-0.8,1.1-0.4,1.7c0.8,1.1,1.5,2.3,2.3,3.4c0.4-0.6,0.7-1.3,1.1-1.9
			c-1.7,0.1-3.1-0.2-4.6-1c-0.4-0.2-1.1-0.4-1.4-0.2c-2.3,0.9-4.4,2.4-6.6,3.6c0.6,0.5,1.2,0.9,1.8,1.4c0.5-3,2.1-5.1,4.7-6.5
			C26.2,154.3,24.9,152.1,23.5,152.9L23.5,152.9z"/>
	</g>
</g>
<g>
	<g>
		<path fill="#FFFFFF" d="M29.1,151c-0.2-3.4-1.3-6.5-3.2-9.2c-0.2-0.3-0.6-0.7-1.1-0.6c-1.4,0.1-4.1,1-3.4,3
			c0.4,1.2,1.3,2.3,1.9,3.4c0.8,1.5,1.4,3.1,1.8,4.7c0.4,1.5,2.9,0.9,2.4-0.7c-0.4-1.4-0.9-2.7-1.5-4.1c-0.4-0.8-0.8-1.6-1.2-2.4
			c-0.4-0.7-1.2-1.4,0-1.5c-0.4-0.2-0.7-0.4-1.1-0.6c1.7,2.4,2.6,5,2.8,8C26.7,152.6,29.2,152.6,29.1,151L29.1,151z"/>
	</g>
</g>
<g>
	<g>
		<path fill="#FFFFFF" d="M21.3,166.7c0,1.3,0.3,2.6,0.9,3.7c0.4,0.8,1.5,2.4,2.6,2.2c3-0.5-1.6-5.3-2.2-6.1
			c-0.5-0.6-1.4,0.3-0.9,0.9c0.5,0.7,1,1.3,1.6,2c0.3,0.3,0.5,0.7,0.8,1c0.2,0.3,0.7,1.1,0,0.5c-1.1-1.1-1.6-2.8-1.6-4.3
			C22.6,165.9,21.3,165.9,21.3,166.7L21.3,166.7z"/>
	</g>
</g>
<g>
	<g>
		<path fill="#FFFFFF" d="M29.3,164c0.1,1.5,0.6,2.9,1.6,4c0.7,0.8,2.1,2.1,2.8,0.5c0.7-1.4-0.2-2.6-1.1-3.7c-0.9-1.2-1.9-2-3.4-2.2
			c-0.8-0.1-0.8,1.2,0,1.2c1.5,0.2,3,2,3.5,3.4c-0.1,0.2-0.2,0.4-0.2,0.6c-0.2-0.1-0.3-0.3-0.5-0.5c-0.3-0.3-0.5-0.6-0.7-0.9
			c-0.5-0.7-0.7-1.6-0.8-2.4C30.5,163.2,29.2,163.2,29.3,164L29.3,164z"/>
	</g>
</g>
<g>
	<g>
		<path fill="#FFFFFF" d="M35.2,159.5c0.6,1.5,2.2,2.4,3.8,1.8c0.3-0.1,0.5-0.3,0.5-0.6c0-0.6,0.1-1.2-0.4-1.7
			c-0.4-0.4-0.9-0.6-1.5-0.8c-1.1-0.5-2.4-0.4-3.5-0.1c-0.8,0.2-0.4,1.4,0.3,1.2c0.8-0.2,1.6-0.3,2.4-0.1c0.4,0.1,0.8,0.3,1.1,0.5
			c0.5,0.3,0.4,0.5,0.4,1c0.2-0.2,0.3-0.4,0.5-0.6c-0.9,0.3-1.9,0-2.3-1C36.1,158.4,34.9,158.8,35.2,159.5L35.2,159.5z"/>
	</g>
</g>
<g>
	<g>
		<path fill="#FFFFFF" d="M39.7,151.8c-0.6-0.1-1.1,0.2-1.3,0.8c-0.1,0.6,0.3,1.2,0.8,1.5c0.4,0.2,1.1,0.2,1.6,0.1
			c0.5-0.1,0.9-0.5,1-1c0.1-0.3,0-0.6-0.3-0.7c-0.6-0.3-1.1-0.5-1.7-0.8c-0.7-0.3-1.4,0.7-0.6,1.1c0.6,0.3,1.1,0.5,1.7,0.8
			c-0.1-0.2-0.2-0.5-0.3-0.7c0,0.2,0.1,0,0,0.1c-0.1,0.1-0.3,0.1-0.4,0c-0.1,0-0.2,0-0.3,0c0.1,0.1,0.1,0-0.1-0.1
			c-0.1-0.2-0.2-0.2-0.4,0C40.2,153.1,40.5,151.9,39.7,151.8L39.7,151.8z"/>
	</g>
</g>
<g>
	<g>
		<path fill="#FFFFFF" d="M27.6,176.4c1.2,1.8,3,3.1,5.1,3.6c0.3,0.1,0.6,0,0.7-0.3c0.3-0.5,0.5-1,0.4-1.7c0-0.2-0.1-0.4-0.3-0.5
			c-1.5-0.7-3.1-1.5-4.6-2.2c-0.7-0.3-1.4,0.7-0.6,1.1c1.5,0.7,3.1,1.5,4.6,2.2c-0.1-0.2-0.2-0.4-0.3-0.5c0,0.4,0,0.7-0.3,1
			c0.2-0.1,0.5-0.2,0.7-0.3c-1.8-0.4-3.3-1.5-4.4-3C28.2,175.1,27.1,175.7,27.6,176.4L27.6,176.4z"/>
	</g>
</g>
<g>
	<g>
		<path fill="#FFFFFF" d="M34.9,172.7c0.9,1.6,2.3,2.9,4,3.8c0.3,0.1,0.7,0.1,0.9-0.2c0.6-1.2,0.2-2.3-0.6-3.2
			c-1-1.2-2.8-1.3-4.3-1.4c-0.8,0-0.8,1.2,0,1.2c0.9,0,1.9,0.1,2.7,0.5c0.8,0.4,1.5,1.4,1,2.2c0.3-0.1,0.6-0.1,0.9-0.2
			c-1.5-0.8-2.7-1.9-3.5-3.4C35.6,171.3,34.5,172,34.9,172.7L34.9,172.7z"/>
	</g>
</g>
<g>
	<g>
		<path fill="#FFFFFF" d="M38.9,168.2c0.5,1.4,1.8,2.4,3.3,2.4c0.2,0,0.4-0.1,0.5-0.3c0.4-0.8,0.9-2.1-0.1-2.6
			c-1.1-0.7-2.4-1.2-3.6-1.6c-0.8-0.2-1.1,1-0.3,1.2c1.2,0.4,2.4,0.9,3.5,1.6c-0.1-0.2-0.2-0.4-0.3-0.5c0,0.5-0.1,0.9-0.3,1.3
			c0.2-0.1,0.4-0.2,0.5-0.3c-0.9,0-1.8-0.6-2.1-1.5C39.8,167.1,38.6,167.4,38.9,168.2L38.9,168.2z"/>
	</g>
</g>
<g>
	<g>
		<path fill="#FFFFFF" d="M43.7,162.3c0.4,0.8,1.2,1.3,2.2,1.4c0.3,0,0.6-0.3,0.6-0.6c0-0.3,0-0.7,0-1c0-0.3-0.2-0.5-0.5-0.6
			c-0.7-0.2-1.3-0.4-2-0.7c-0.8-0.3-1.1,1-0.3,1.2c0.7,0.2,1.3,0.4,2,0.7c-0.2-0.2-0.3-0.4-0.5-0.6c0,0.3,0,0.7,0,1
			c0.2-0.2,0.4-0.4,0.6-0.6c-0.5,0-0.9-0.3-1.1-0.7C44.4,161,43.3,161.6,43.7,162.3L43.7,162.3z"/>
	</g>
</g>
<g>
	<g>
		<path fill="#FFFFFF" d="M46.1,156.1C46.1,156.1,46.1,156.1,46.1,156.1c0.2,0,0.3-0.2,0.5-0.3c0.1,0.1,0.3,0.3,0.4,0.4
			c-0.1,0.1-0.1,0.3-0.2,0.4c-0.4,0-0.4,0.1-0.2,0.3c0.1,0.1,0.2,0.2,0.3,0.3c0.2,0.2,0.4,0.5,0.6,0.7c0.3,0.3,0.8,0.2,1-0.1
			c0.4-1,0-2.2-1.1-2.5c-0.8-0.2-1.1,1-0.3,1.2c0.3,0.1,0.5,0.3,0.4,0.6c0.3,0,0.7-0.1,1-0.1c-0.5-0.5-1.6-2.2-2.4-1.3
			c-0.7,0.8,0.7,1.9,1.2,0.9C47.5,156,46.4,155.4,46.1,156.1L46.1,156.1z"/>
	</g>
</g>
<g>
	<g>
		<path fill="#FFFFFF" d="M43.4,180.8c-0.8-0.5-1.8-1-2.8-0.7c-0.6,0.2-1.2,1-1.2,1.6c0,0.8,0.5,1.4,1.3,1.4c1.2,0,2.4-0.4,3.6-0.6
			c0.2,0,0.4-0.2,0.4-0.4c0.1-0.6,0-1.1-0.5-1.5c-0.6-0.5-1.5,0.4-0.9,0.9c0.1,0.1,0.1,0.2,0.2,0.3c0.1-0.1,0.3-0.3,0.4-0.4
			c-1,0.2-2,0.4-3,0.6c-0.7,0.1-0.1-0.6,0.2-0.6c0.6-0.1,1.2,0.4,1.6,0.7C43.4,182.3,44.1,181.2,43.4,180.8L43.4,180.8z"/>
	</g>
</g>
<g>
	<g>
		<path fill="#FFFFFF" d="M46,174.7c-0.4-0.1-0.8-0.2-1.1-0.3c-0.4-0.1-0.8,0.2-0.8,0.6c0.2,2,2.2,2.9,4,3.3
			c0.5,0.1,0.9-0.3,0.8-0.8c-0.3-1.6-1.6-2.8-3.2-3.1c-0.8-0.1-1.1,1.1-0.3,1.2c1.2,0.2,2.1,1,2.3,2.2c0.3-0.3,0.5-0.5,0.8-0.8
			c-1.1-0.3-2.9-0.8-3.1-2.1c-0.3,0.2-0.5,0.4-0.8,0.6c0.4,0.1,0.8,0.2,1.1,0.3C46.5,176.1,46.8,174.9,46,174.7L46,174.7z"/>
	</g>
</g>
<g>
	<g>
		<path fill="#FFFFFF" d="M49.6,170.1c-0.6-0.8-1.9-0.3-1.7,0.7c0.2,1.1,1.1,2.2,1.9,3.1c0.3,0.4,0.9,0.2,1-0.3
			c0.5-1.5-0.2-3.1-1.5-3.9c-0.7-0.4-1.3,0.7-0.6,1.1c0.9,0.5,1.3,1.5,0.9,2.5c0.3-0.1,0.7-0.2,1-0.3c-0.3-0.4-0.6-0.7-0.9-1.2
			c-0.1-0.2-0.2-0.4-0.3-0.5c-0.1-0.1-0.1-0.2-0.2-0.4c-0.1-0.3-0.2-0.3-0.4,0c-0.1-0.1-0.2-0.2-0.4-0.3c0,0,0,0.1,0.1,0.1
			C49,171.4,50.1,170.8,49.6,170.1L49.6,170.1z"/>
	</g>
</g>
<g>
	<g>
		<path fill="#FFFFFF" d="M51.3,166.9c-0.2,0.7,0,1.4,0.5,2c0.2,0.2,0.7,0.2,0.9,0c0.5-0.5,0.7-1.2,0.4-2c-0.2-0.8-1.5-0.4-1.2,0.3
			c0.1,0.3,0.1,0.5-0.1,0.7c0.3,0,0.6,0,0.9,0c-0.2-0.2-0.2-0.5-0.1-0.7C52.7,166.4,51.5,166.1,51.3,166.9L51.3,166.9z"/>
	</g>
</g>
<g>
	<g>
		<path fill="#FFFFFF" d="M52.2,180.4c-1.6-0.2-3.1,0.6-3.9,2c-0.2,0.4,0.1,1,0.5,0.9c1.5-0.1,3-0.5,4.3-1.2
			c0.7-0.4,0.1-1.4-0.6-1.1c-1.2,0.6-2.4,0.9-3.7,1c0.2,0.3,0.4,0.6,0.5,0.9c0.6-1,1.7-1.5,2.8-1.4C53,181.8,53,180.5,52.2,180.4
			L52.2,180.4z"/>
	</g>
</g>
</svg>
