<?xml version="1.0" encoding="utf-8"?>
<!-- Generator: Adobe Illustrator 18.0.0, SVG Export Plug-In . SVG Version: 6.00 Build 0)  -->
<!DOCTYPE svg PUBLIC "-//W3C//DTD SVG 1.1//EN" "http://www.w3.org/Graphics/SVG/1.1/DTD/svg11.dtd">
<svg version="1.1" id="Layer_1" xmlns="http://www.w3.org/2000/svg" xmlns:xlink="http://www.w3.org/1999/xlink" x="0px" y="0px"
	 viewBox="0 0 213 547.5" enable-background="new 0 0 213 547.5" xml:space="preserve">
<g>
	<g>
		<path fill="#FFFFFF" d="M86.8,117c3.8-2.4,7.5-3.3,12-3.5c1.9-0.1,3.1-0.8,4.1-2.3c-1.1,0-2.2,0-3.2,0c0.5,0.6,0.9,1.3,1.4,1.9
			c1.4,2,4.2,0.3,3.2-1.9c-0.6,0.2-1.1,0.4-1.7,0.5c-0.2,2.2,3,2.4,3.7,0.5c0.4-0.5,0.7-1,1.1-1.4c-1-0.1-2-0.3-2.9-0.4
			c0.6,0.9,1.1,1.8,1.7,2.7c0.9,1.6,3.5,1,3.5-0.9c0.2-0.3,0.3-0.7,0.5-1c-1-0.1-2-0.3-2.9-0.4c0.3,0.6,0.7,1.3,1,1.9
			c0.4,1.2,2.2,2,3.1,0.8c0.6-0.7,1.1-1.3,1.7-2c-1-0.1-2-0.3-2.9-0.4c0.3,0.9,0.6,1.7,1,2.6c0.4,1.9,3.1,1.6,3.6,0
			c0.2-0.2,0.5-0.4,0.7-0.7c0.2,2.4,3.6,2.4,3.8,0c0,0.1,0,0.2,0,0.3c0.4,0.9,1.8,1.1,2.6,0.7c-0.1,0-0.3,0-0.4,0
			c0.9-0.7,1.8-1.4,2.8-2.1c-3.2-1.4-6.2-1.6-9.5-0.2c-1.8,0.7-1.8,3.9,0.5,3.7c7.2-0.5,14,0.8,20.4,4.2c1.3,0.7,3.4-0.5,2.8-2.1
			c-1.8-4.9-9.8-6.1-14.1-7.8c0,1.2,0,2.4,0,3.6c0.9-0.1,1.8-0.3,2.6-0.4c-0.3-1.2-0.6-2.3-0.9-3.5c-0.4,0.2-0.9,0.4-1.3,0.7
			c-2.2,1.1-0.3,4.3,1.9,3.2c0.4-0.2,0.9-0.4,1.3-0.7c1.8-0.9,0.8-3.4-0.9-3.5c-1.9-0.1-1.9-0.1-3.6,0.5c-1.8,0.6-1.7,2.9,0,3.6
			c2.2,0.9,10.7,2.9,11.5,5.2c0.9-0.7,1.8-1.4,2.8-2.1c-7-3.7-14.4-5.3-22.3-4.7c0.2,1.2,0.3,2.5,0.5,3.7c2.3-0.9,4.2-1.2,6.6-0.1
			c1.6,0.7,3-0.4,2.8-2.1c-0.4-2.6-3-3.5-5.1-2.2c0.9,0.2,1.7,0.4,2.6,0.7c-1.8-4-6.7-2.5-7,1.6c1.2,0,2.5,0,3.8,0
			c-0.5-5.5-6.6-5.1-8.1-0.3c1.2,0,2.4,0,3.6,0c-0.4-1.8-0.4-1.9-1.3-3.5c-0.6-1-2.2-1.3-2.9-0.4c-0.6,0.7-1.1,1.3-1.7,2
			c1,0.3,2.1,0.6,3.1,0.8c-0.5-1.3-0.6-1.7-1.4-2.8c-0.7-1.1-2-1.2-2.9-0.4c-1.2,1-1.7,2.1-1.6,3.7c1.2-0.3,2.3-0.6,3.5-0.9
			c-0.6-0.9-1.1-1.8-1.7-2.7c-0.7-1.1-2-1.1-2.9-0.4c-1.4,1.1-1.5,1.4-2,3.1c1.2,0.2,2.5,0.3,3.7,0.5c0.4-5.1-7.5-3.9-5.3,1.4
			c1.1-0.6,2.2-1.3,3.2-1.9c-0.5-0.6-0.9-1.3-1.4-1.9c-0.9-1.2-2.4-1.2-3.2,0c-0.7,1-5.7,0.9-7.1,1.1c-2.7,0.5-5.3,1.9-7.6,3.4
			C82.8,115.1,84.7,118.3,86.8,117L86.8,117z"/>
	</g>
</g>
<g>
	<g>
		<path fill="#FFFFFF" d="M131.7,111.7c9,1.9,17.2-9.8,8.6-15.9c-4.6-3.3-8.7-2.9-12.7,1c-3.8,3.7-3.3,8.5-0.2,12.5
			c1.1,1.4,2.8,3.7,4.9,2.5c0.6-0.3,1.1-0.9,1.3-1.6c0.3-0.8,2.5-1.2,3.3-1.5c3.8-1.6,6.1-7,2.7-10.2c-3.5-3.3-8-2.3-10.8,1.4
			c-2.3,3.1-0.6,7.9,3,8.9c1.1,0.3,2.4-0.6,2.4-1.8c-0.1-1.7,0.3-3.1,1.2-4.6c-1.1,0-2.2,0-3.2,0c-0.1,0.3-0.1,0.7-0.2,1
			c1,0.3,2.1,0.6,3.1,0.8c-0.5-0.8-0.4-1.6,0.2-2.4c0.6,0.2,1.2,0.3,1.8,0.5c-0.5-0.1-0.9-0.2-1.4-0.2c-2.4,0-2.4,3.8,0,3.8
			c1.5,0,3.2-0.7,3.7-2.3c0.4-1.6-1.1-3.6-2.7-3.6c-4.1-0.1-4.2,6.2-0.5,5.6c3.4-0.6,4.3-5.7,0.8-7c-4.4-1.6-7.1,3-5.6,6.8
			c0.5,1.2,2.1,1.9,3.1,0.8c1.6-1.7,1.8-3.5,0.8-5.6c-0.6-1.3-2.6-1.1-3.2,0c-1.2,2-1.8,4.1-1.7,6.5c0.8-0.6,1.6-1.2,2.4-1.8
			c-3-0.8-0.1-4.4,1.4-5c1.8-0.6,3.5,1.2,3.2,2.9c-0.2,1.1-1.5,1.8-2.4,2.3c-1.3,0.7-2.9,0.5-4,1.7c-0.4,0.4-0.6,0.9-0.8,1.4
			c1.4-0.1,1.5-0.5,0.5-1.2c-0.5-0.7-1-1.4-1.4-2.1c-1.5-2.5-0.2-4.7,1.6-6.4c2.6-2.5,5.3-1.6,7.9,0.5c4.7,3.9-1.6,9.7-6,8.8
			C130.4,107.6,129.3,111.2,131.7,111.7L131.7,111.7z"/>
	</g>
</g>
<g>
	<g>
		<path fill="#FFFFFF" d="M86,111.8c3.7-1,4.6-4.8,5-8.2c0.4-3.9-1.7-7.5-5.2-9.1c-3.3-1.5-6.9-0.6-9.5,1.9
			c-2.9,2.7-2.8,6.8-1.4,10.2c1.2,2.6,5.2,7.1,8.6,6.1c3.7-1.2,4.7-5.6,4.9-9.1c0.2-3-0.5-7.6-4.3-7.1c-1.5,0.2-2,2.4-1.8,3.6
			c0.5,3,0.5,5.6-0.4,8.5c0.8-0.4,1.5-0.9,2.3-1.3c-0.4-0.1-0.8-0.3-1.2-0.4c0.5,0.6,0.9,1.2,1.4,1.8C84,104,87,99.2,82.3,95.9
			c-1.5-1.1-3,0.7-2.8,2.1c0.5,3.3,1,6.6,0.7,9.9c0.6-0.6,1.2-1.2,1.9-1.9c-0.4,0,0.4-5.9,0.5-6.5c0.1-0.8-0.6-1.6-1.4-1.8
			c-1.1-0.3-1.5-0.3-2.6,0c-0.7,0.2-1.5,1-1.4,1.8c0.3,2.4,0.6,4.9,0.9,7.3c0.3,2.4,4,2.4,3.8,0c-0.3-2.4-0.6-4.9-0.9-7.3
			c-0.5,0.6-0.9,1.2-1.4,1.8c0.2,0,0.4,0,0.6,0c-0.5-0.6-0.9-1.2-1.4-1.8c-0.4,3.6-2,9.8,3.3,10.2c1.1,0.1,1.8-0.9,1.9-1.9
			c0.3-3.7-0.2-7.3-0.8-10.9c-0.9,0.7-1.8,1.4-2.8,2.1c2.4,1.7,0,7,0.3,9.5c0.1,0.9,0.5,1.5,1.4,1.8c0.4,0.1,0.8,0.3,1.2,0.4
			c1,0.3,2-0.4,2.3-1.3c0.5-1.8,0.8-3.5,1-5.3c0.1-1-0.1-2-0.2-3c-0.1-0.8,0.2-1.3-0.6-1.2c-0.6-0.2-1.2-0.3-1.8-0.5
			c1.6,1.4,0.6,10.5-2.2,9.1c-3-1.5-5-5.6-3.5-8.7c1.6-3.1,5.5-3,7.7-0.8c1.8,1.7,2,8.3-1,9.1C82.7,108.8,83.7,112.4,86,111.8
			L86,111.8z"/>
	</g>
</g>
<g>
	<g>
		<path fill="#FFFFFF" d="M137.4,122.4c5.2-2.8,12.1,1.2,17.4,2.3c4.2,0.8,8.2,0.4,11.9-1.8c-0.9-0.9-1.7-1.7-2.6-2.6
			c-1.9,3.7-3.7,7.4-5.7,11c-3.3,6-8.4,6.6-14.6,6.3c-2.4-0.1-2.4,3.6,0,3.8c4.6,0.3,10.2,0.5,13.8-2.9c4.6-4.3,6.9-10.7,9.7-16.2
			c0.8-1.6-0.9-3.6-2.6-2.6c-9.6,5.7-19.7-5.7-29.3-0.5C133.4,120.3,135.3,123.6,137.4,122.4L137.4,122.4z"/>
	</g>
</g>
<g>
	<g>
		<path fill="#FFFFFF" d="M82.7,117c-3.5-1.5-6.5-1.3-10.2-0.5c-5.9,1.4-10.7,2.7-16.7,0.5c-1.5-0.5-3.1,1.4-2.1,2.8
			c5.9,7.9,8.7,21.9,21.1,21.4c2.4-0.1,2.4-3.8,0-3.8c-10.3,0.4-12.9-13-17.8-19.6c-0.7,0.9-1.4,1.8-2.1,2.8c3.5,1.3,7.2,2,10.9,1.4
			c4.8-0.7,10.4-3.8,15.1-1.8C83,121.2,84.9,118,82.7,117L82.7,117z"/>
	</g>
</g>
<g>
	<g>
		<path fill="#FFFFFF" d="M148.1,141.3c9.6,8.3,21,17.7,26,29.7c4.5,10.9,2.7,23.7-3.8,33.4c-1.3,2,1.9,3.9,3.2,1.9
			c6.9-10.3,8.4-23.1,4.7-34.9c-4.3-13.4-17.2-23.8-27.4-32.8C148.9,137,146.3,139.7,148.1,141.3L148.1,141.3z"/>
	</g>
</g>
<g>
	<g>
		<path fill="#FFFFFF" d="M75.4,132.1c-3.6,14.8-4,30.7,5.1,43.6c1.4,2,4.6,0.1,3.2-1.9c-8.5-12.2-8.1-26.8-4.7-40.7
			C79.6,130.7,76,129.7,75.4,132.1L75.4,132.1z"/>
	</g>
</g>
<g>
	<g>
		<path fill="#FFFFFF" d="M80.3,176.3c1.3,10.8,5.1,20.7,11.6,29.5c1.4,1.9,4.7,0.1,3.2-1.9c-6-8.2-9.8-17.5-11-27.7
			C83.7,173.9,80,173.9,80.3,176.3L80.3,176.3z"/>
	</g>
</g>
<g>
	<g>
		<path fill="#FFFFFF" d="M170.4,205.1c-1,0.4-1.9,0.6-3,0.7c-1.9,0.1-1.6-1.2-1.8-2.8c-0.3-3,0-6,0.8-8.8c0.6-2.3-3-3.3-3.6-1
			c-1.1,4.5-1.5,9.5-0.2,14.1c1,3.5,6.5,2.4,8.9,1.6C173.7,207.9,172.7,204.3,170.4,205.1L170.4,205.1z"/>
	</g>
</g>
<g>
	<g>
		<path fill="#FFFFFF" d="M163.6,196.3c-11.5,0.8-22.9,1.6-34.4,0.1c-2.4-0.3-2.4,3.4,0,3.8c11.5,1.5,22.9,0.7,34.4-0.1
			C166,199.8,166,196.1,163.6,196.3L163.6,196.3z"/>
	</g>
</g>
<g>
	<g>
		<path fill="#FFFFFF" d="M127.1,193.3c0.3,4.6-0.7,8.9-2.9,13c0.5-0.3,1.1-0.6,1.6-0.9c-0.4,0-5.1,0.2-5.1,0
			c-0.3-2.1-0.5-4.2-0.8-6.2c-0.3-2.4-4.1-2.4-3.8,0c0.2,1.7,0.4,3.5,0.7,5.2c0.1,1,0,2.6,0.6,3.5c1.5,2.2,5.1,1.4,7.4,1.3
			c3.2-0.1,3.8-3.2,4.8-5.8c1.1-3.2,1.5-6.7,1.3-10C130.7,190.9,126.9,190.9,127.1,193.3L127.1,193.3z"/>
	</g>
</g>
<g>
	<g>
		<path fill="#FFFFFF" d="M117.8,197.7c-0.1,0-0.1,0-0.2,0c-0.9,0.1-1.6,0.5-1.8,1.4c0,0.1,0,0.1-0.1,0.2c-0.3,1,0.3,2,1.3,2.3
			c0.1,0,0.1,0,0.2,0.1c0.9,0.3,1.6-0.2,2.1-0.9c0-0.1,0.1-0.1,0.1-0.2c0.8-1-0.1-2.4-1.1-2.8c-2.7-0.8-5.3-0.5-8-0.6
			c-4.5-0.1-8.9-2.1-12.4-4.9c-1.9-1.5-4.5,1.1-2.7,2.7c2.8,2.2,5.7,3.9,9.2,5c4.2,1.4,8.7,0.2,12.9,1.5c-0.4-0.9-0.7-1.8-1.1-2.8
			c0,0.1-0.1,0.1-0.1,0.2c0.7-0.3,1.4-0.6,2.1-0.9c-0.1,0-0.1,0-0.2-0.1c0.4,0.8,0.9,1.5,1.3,2.3c0-0.1,0-0.1,0.1-0.2
			c-0.6,0.5-1.2,0.9-1.8,1.4c0.1,0,0.1,0,0.2,0C120.2,201.3,120.3,197.6,117.8,197.7L117.8,197.7z"/>
	</g>
</g>
<g>
	<g>
		<path fill="#FFFFFF" d="M104.6,199.8c-0.1-0.3-0.2-0.7-0.3-1c-0.8-2.3-4-1.4-3.6,1c0.3,1.7,0.3,3.4,0.1,5.2
			c0.6-0.6,1.2-1.2,1.9-1.9c-2.7,0-5.4,0-8.1,0c-2.4,0-2.4,3.8,0,3.8c2.7-0.1,5.4-0.1,8.1,0c1.1,0,1.8-0.9,1.9-1.9
			c0.2-2.1,0.1-4.1-0.3-6.2c-1.2,0.3-2.4,0.7-3.6,1c0.1,0.3,0.2,0.7,0.3,1C101.7,203.1,105.3,202.1,104.6,199.8L104.6,199.8z"/>
	</g>
</g>
<g>
	<g>
		<path fill="#FFFFFF" d="M152.1,199.8c-0.5,1.6-1.2,3.1-2.2,4.5c0.5-0.3,1.1-0.6,1.6-0.9c-2.2,0-4.4,0-6.6,0
			c0.6,0.6,1.2,1.2,1.9,1.9c-0.1-1.9-0.4-3.7-0.8-5.5c-0.6-2.4-4.2-1.4-3.6,1c0.4,1.5,0.6,3,0.7,4.5c0.1,1,0.8,1.9,1.9,1.9
			c1.2,0,2.5,0,3.7,0c1.1,0,2.9,0.3,3.9-0.3c1.7-1,2.7-4.3,3.3-6.1C156.5,198.5,152.9,197.5,152.1,199.8L152.1,199.8z"/>
	</g>
</g>
<g>
	<g>
		<path fill="#FFFFFF" d="M84.5,162.9c-1.8-14.1,30.8-13.3,28.5-0.8c-1.1,6-8.8,6.9-13.6,7.2c-5.9,0.4-13.4-0.5-15.2-7.2
			c-0.6-2.3-4.2-1.3-3.6,1c2.5,9.2,12.2,10.3,20.3,9.9c7.8-0.5,15.9-4.2,16-13c0.1-8.6-12.8-11.2-19.2-11.1c-7.6,0.2-18.2,5-17,14
			C81.1,165.3,84.8,165.3,84.5,162.9L84.5,162.9z"/>
	</g>
</g>
<g>
	<g>
		<path fill="#FFFFFF" d="M127,147.8c-0.9-0.7,0.7-1.1,1.2-0.2c0.5,0.8-0.2,2-1.1,1.8c-1.1-0.2-1.5-1.9-0.1-1.9
			c0.2,0,0.4,0.4,0.5,0.4c-0.2,0.2-0.2,0.2-0.2,0.1c0.4-0.1,0.7,0.3,0.8,0.7c0,0.1,0,0.2-0.1,0.2c-0.3,0-0.6,0.1-0.8,0.1
			c-0.1-0.2-0.1-0.3-0.2-0.2c1.2-0.3,2.3-0.6,3.5-0.9c-0.1-0.3-0.3-0.6-0.4-0.9c-0.1,0.8-0.2,1.5-0.3,2.3c0.1,0,0.1-0.1,0.2-0.1
			c-0.3,0.2-0.6,0.3-0.8,0.5c-0.1,0-0.3,0-0.4,0c-0.3-0.2-0.6-0.3-0.8-0.5c0.1,0,0.1,0.1,0.2,0.1c0-0.9,0-1.8,0-2.7c0,0,0,0.1,0,0.1
			c0.3-0.1,0.6-0.2,0.9-0.3c-0.1,0-0.2,0-0.3,0c0.3,0.1,0.6,0.2,0.9,0.3c0,0-0.1-0.1-0.1-0.1c0.3,0.4,0.6,0.7,0.9,1.1
			c0,0.1,0,0.1,0,0.2c-0.1,0.3-0.2,0.6-0.3,0.9c0,0,0.1-0.1,0.1-0.1c-0.4,0.3-0.7,0.6-1.1,0.9c0,0,0.1,0,0.1,0
			c1-0.2,1.6-1.4,1.3-2.3c-0.3-1.1-1.3-1.5-2.3-1.3c-1.5,0.2-2,2.1-1.3,3.2c0.8,1.4,2.8,1.2,3.8,0.1c0.6-0.8,0.8-1.9,0-2.7
			c-1.1-1-2.5-1-3.6,0c-0.7,0.6-0.6,1.5-0.3,2.3c0.1,0.3,0.3,0.6,0.4,0.9c0.3,0.8,1.4,1.1,2.1,0.9c0.9-0.2,1.3-1,1.4-1.8
			c0.2-1.4-0.9-3.1-2.4-3.4c-1.7-0.3-3.1,0.4-3.8,2c-0.5,1.4,0,2.8,1.1,3.6c1.1,0.8,2.6,0.6,3.7,0c2.9-1.6,2-5.5-0.6-6.9
			c-2.8-1.5-6.3,0.9-6.4,4c-0.1,2.9,2.3,4.9,5,5c2.8,0.2,4.7-2.6,4.7-5.1c0-3-2.7-5.2-5.6-4.8c-2.9,0.5-4.5,3.9-2.8,6.4
			c0.2,0.3,0.4,0.5,0.7,0.7c0.8,0.6,1.9,0.8,2.7,0C127.6,149.8,127.8,148.4,127,147.8L127,147.8z"/>
	</g>
</g>
<g>
	<g>
		<path fill="#FFFFFF" d="M104.9,164.4c3.2,0,3.2-5,0-5C101.7,159.4,101.7,164.4,104.9,164.4L104.9,164.4z"/>
	</g>
</g>
<g>
	<g>
		<path fill="#FFFFFF" d="M89.6,164.5c3.2,0,3.2-5,0-5C86.3,159.5,86.3,164.5,89.6,164.5L89.6,164.5z"/>
	</g>
</g>
<g>
	<g>
		<path fill="#FFFFFF" d="M197.5,176.9c1,2.4,2.4,6.3-1.1,7.3c-2.4,0.7-6.9-1.4-5.7-4.4c0.6-1.5-1.8-2.1-2.4-0.7
			c-1.9,4.7,4.1,8,8,7.6c2-0.2,4-1.5,4.6-3.6c0.8-2.6-0.2-5.2-1.2-7.6C199,174.2,196.9,175.5,197.5,176.9L197.5,176.9z"/>
	</g>
</g>
<g>
	<g>
		<path fill="#FFFFFF" d="M189.9,180.2c2.2,0.3,3,2.2,2.1,4.1c-1,2-4.2,1.2-5.7,0.8c-2.3-0.6-4.3-2.2-5.8-4.1
			c-1-1.3-2.8,0.5-1.8,1.8c2.7,3.4,10.1,7.8,14.2,4.1c3.7-3.3,1.7-8.6-3-9.2C188.3,177.5,188.3,180,189.9,180.2L189.9,180.2z"/>
	</g>
</g>
<g>
	<g>
		<path fill="#FFFFFF" d="M78.2,154.1c5.8,0,5.8-9,0-9C72.4,145.1,72.4,154.1,78.2,154.1L78.2,154.1z"/>
	</g>
</g>
<g>
	<g>
		<path fill="#FFFFFF" d="M84.3,119.6c16.7-4.9,34.2-4,50.4,2.5c2.2,0.9,3.2-2.7,1-3.6c-16.7-6.7-35.1-7.6-52.4-2.5
			C81,116.6,82,120.3,84.3,119.6L84.3,119.6z"/>
	</g>
</g>
<g>
	<g>
		<path fill="#FFFFFF" d="M82.4,117.8c5.7-7.6,18.6-8.6,27.3-8.5c8.9,0.2,22.7,2.8,27.6,11.1c0.9-0.9,1.7-1.7,2.6-2.6
			c-0.6-0.4-1.2-0.9-1.8-1.3c-2-1.4-3.8,1.8-1.9,3.2c0.6,0.4,1.2,0.9,1.8,1.3c1.6,1.1,3.5-1,2.6-2.6c-5.6-9.4-19.1-12.1-29.1-12.9
			c-10.7-0.9-25.4,1.1-32.3,10.2C77.7,117.9,81,119.7,82.4,117.8L82.4,117.8z"/>
	</g>
</g>
<g>
	<g>
		<path fill="#FFFFFF" d="M90.9,111.4c3.8-4.2,4.4-10,1.5-14.9c-2.8-4.7-9.8-6.7-14.7-4.1c-12.3,6.5-4.7,24.2,8.4,21.7
			c2.4-0.4,1.4-4.1-1-3.6c-9.3,1.7-14.2-11.4-5-15.1c8.1-3.3,13.1,7.7,8.1,13.4C86.7,110.5,89.3,113.2,90.9,111.4L90.9,111.4z"/>
	</g>
</g>
<g>
	<g>
		<path fill="#FFFFFF" d="M133.2,114.6c5.7,0,10.3-3.5,12-8.9c1.7-5.3-1.7-11.7-6.8-13.6c-5.5-2-10.8-0.1-14,4.7
			c-3.3,4.9-1.1,12.9,3.5,16.1c2,1.4,3.8-1.8,1.9-3.2c-3.3-2.3-3.9-7.7-2.2-11c2-3.8,6.7-4.4,10.2-2.7c7.9,3.9,2.8,14.9-4.7,14.9
			C130.8,110.9,130.8,114.7,133.2,114.6L133.2,114.6z"/>
	</g>
</g>
<g>
	<g>
		<path fill="#FFFFFF" d="M66,20.1c1.7-3.8,4.1-6.9,7.4-9.5c-0.7-0.2-1.4-0.4-2.1-0.6c0.5,3.1,0.9,6.1,1.4,9.2
			c0.2,1.4,0.3,3.4,1.4,4.5c0.7,0.7,1.7,1.1,2.7,1.2c3.6,0.4,6.6,1.4,9.8,3.1c-0.1-0.7-0.2-1.3-0.3-2c-2.8,2.8-6.8,2.5-8.9,6.2
			c-2.1,3.6-0.5,8.2-2.8,11.9c0.7-0.1,1.3-0.2,2-0.3c-2.2-1.9-4-3.8-5.7-6.1c-0.5-0.7-1.2-1.7-2.1-2c-1.9-0.5-3.4,0.2-5.2,0.8
			c-1.2,0.4-2.4,0.8-3.6,1.2c-2.3,0.8-2.9-0.2-1.3-1.8c2.2-2.1,2.4-5.4,1-8c-1.2-2.2-2.8-4.1-4.1-6.2c-0.4-1.6,0.2-2,1.9-1.2
			c2.4,0.3,4.8,0.7,7.2,1.2c1.6,0.3,2.2-2.1,0.7-2.4c-1.9-0.4-11.9-3.5-12.7-0.1c-1.3,5.9,9.7,9.8,3.4,15.8c-1.5,1.4-2.6,5.6,0.5,6
			c3.1,0.3,6.5-1.7,9.4-2.7c2.6-0.9,7.1,5.7,8.8,7.2c0.6,0.5,1.5,0.5,2-0.3c1.9-3.1,1.8-6.5,2.3-9.9c0.7-4.9,6.1-4.8,9.1-7.7
			c0.6-0.6,0.4-1.6-0.3-2c-3.1-1.7-6.2-2.8-9.7-3.3c-4.2-0.6-4-10-4.5-13.2c-0.2-1-1.4-1.1-2.1-0.6c-3.5,2.8-6,6-7.8,10
			C63.2,20.3,65.4,21.6,66,20.1L66,20.1z"/>
	</g>
</g>
<g>
	<g>
		<path fill="#FFFFFF" d="M23.6,47.4c0.1-1.5,1.7-8,0.9-8.8c1.9,1.7,3.4,4.1,5.2,5.9c2.2,2.3,5.7,0.5,8.1-0.2c1-0.6,2.1-0.6,3.2-0.1
			c-0.6,0.8-1.2,1.6-1.7,2.3c-1.2,1.7-2.1,3.3-2.5,5.3c-0.8,3.8,3,7.4,3,11.3c0.4-0.4,0.8-0.8,1.2-1.2c-3.1-0.4-5.7-1.3-8.5-2.5
			c-0.6-0.2-1.4-0.4-2-0.2c-2.5,0.7-8.7,8.4-8.1,1.5c0.2-2.9-1.4-5-3.5-6.7c-1.3-1.1-2.8-1.9-4.2-2.7c-0.1-0.1,6.8-2.4,7.6-2.6
			c1.6-0.4,0.9-2.8-0.7-2.4c-3.4,0.9-9,1-10.5,4.7c-0.2,0.5,0.1,1.1,0.6,1.4c1.5,0.9,3,1.8,4.5,2.8c3.6,2.2,3.5,5.5,3.5,9.1
			c0,1.3,1.2,3.2,2.7,3.2c2.8,0,5.9-3.4,7.8-5.1c1.3-1.2,4.1,0.6,5.5,1.1c1.7,0.6,3.5,0.8,5.4,1c0.7,0.1,1.3-0.6,1.2-1.2
			c0-4.6-4.2-10-1.7-14.1c1.1-1.8,4.8-4.7,2.5-7c-2.3-2.3-6.5,0.1-8.9,0.8c-4.8,1.5-6-6.7-10.1-7c-0.4,0-0.9,0.3-1.1,0.6
			c-1.6,3.1-1.5,7.5-1.8,10.9C20.9,49,23.4,49,23.6,47.4L23.6,47.4z"/>
	</g>
</g>
<g>
	<g>
		<path fill="#FFFFFF" d="M20.8,296.3c0,0.4,0.1,0.7,0.3,1.1c0.2,0.4,0.7,0.7,1.1,0.6c0.1,0,0.1,0,0.2,0c0.6,0,1.3-0.5,1.2-1.2
			c-0.4-3.5-4.5-8.6-8.4-5.8c-3.9,2.9-1.4,8.9,1.9,11.1c1.4,0.9,2.6-1.3,1.3-2.2c-1.9-1.2-3-3.5-2.4-5.8c0.5-1.8,2.2-1.5,3.3-0.6
			c1,0.8,1.6,2,1.8,3.2c0.4-0.4,0.8-0.8,1.2-1.2c-0.1,0-0.1,0-0.2,0c0.4,0.2,0.7,0.4,1.1,0.6c0,0,0,0.1,0.1,0.1
			C23.3,294.7,20.8,294.7,20.8,296.3L20.8,296.3z"/>
	</g>
</g>
<g>
	<g>
		<path fill="#FFFFFF" d="M15.9,302c-1,3.2-3.2,12.4,1.7,14c5.9,1.9,13.4-3.2,18.6-5.5c1.5-0.7,0.2-2.8-1.3-2.2
			c-3.7,1.7-7.4,3.5-11.3,4.9c-2.8,1-6,1.1-6.4-2.5c-0.3-2.7,0.3-5.5,1.1-8C18.8,301.1,16.4,300.4,15.9,302L15.9,302z"/>
	</g>
</g>
<g>
	<g>
		<path fill="#FFFFFF" d="M35.8,310.4c9.1-2.8,17.4-7.8,22.8-15.8c4.8-7.2,4.1-16.6-1.9-22.7c-5.9-6-14.8-5.1-21.5-1
			c-8.1,5-11.6,14.9-14.6,23.4c-0.5,1.5,1.9,2.2,2.4,0.7c4.2-11.8,14.1-32.1,30-22.8c8.4,4.9,7.2,15.6,2.6,22.5
			c-4.5,6.8-12.8,11-20.4,13.3C33.6,308.5,34.2,310.9,35.8,310.4L35.8,310.4z"/>
	</g>
</g>
<g>
	<g>
		<path fill="#FFFFFF" d="M34.3,305.9c3.7,0.4,8.8-3.2,6.4-7.2c-0.9-1.5-2.9-2.3-4.6-2c-2.1,0.4-3.7,1.9-4.8,3.7
			c-0.8,1.4,1.3,2.6,2.2,1.3c1-1.7,3.2-3.5,5-1.7c1,0.9-0.2,2.3-1,2.8c-0.9,0.7-2.1,0.8-3.2,0.7C32.7,303.2,32.7,305.7,34.3,305.9
			L34.3,305.9z"/>
	</g>
</g>
<g>
	<g>
		<path fill="#FFFFFF" d="M27.3,309.8c1.6,0,1.6-2.5,0-2.5C25.7,307.3,25.7,309.8,27.3,309.8L27.3,309.8z"/>
	</g>
</g>
<g>
	<g>
		<path fill="#FFFFFF" d="M16.7,307.8c0.2,0.1,0.5,0.2,0.7,0.3c0.6,0.3,1.3,0.2,1.7-0.4c0.3-0.5,0.2-1.4-0.4-1.7
			c-0.2-0.1-0.5-0.2-0.7-0.3c-0.6-0.3-1.3-0.2-1.7,0.4C15.9,306.7,16.1,307.5,16.7,307.8L16.7,307.8z"/>
	</g>
</g>
<g>
	<g>
		<path fill="#FFFFFF" d="M61.2,278.5c-0.5-7.5,10.2-10.7,15-14.5c4-3.2,6.8-6.8,7.5-12c0.2-1.6-2.3-1.6-2.5,0
			c-1.6,13-23.2,13.5-22.4,26.5C58.8,280.1,61.3,280.2,61.2,278.5L61.2,278.5z"/>
	</g>
</g>
<g>
	<g>
		<path fill="#FFFFFF" d="M115.5,446.8c-5.5,10.9-5.6,22.9-1.5,34.3c3.8,10.5,11.9,22.3,23.3,25c23.2,5.4,42.3-25.8,41-45.5
			c-0.2-2.4-3.9-2.4-3.8,0c1.2,18.3-15.4,45-36.3,41.9c-10.2-1.5-17.2-13.7-20.7-22.4c-4.1-10.1-3.9-21.6,1.1-31.4
			C119.8,446.5,116.6,444.6,115.5,446.8L115.5,446.8z"/>
	</g>
</g>
<g>
	<g>
		<path fill="#FFFFFF" d="M153.4,503c3.7-2.1,4.8-5.9,4.1-9.9c-1-5.6-7.9-8.3-12.8-9c-7.7-1.1-25.9,5.8-18.4,16.1
			c1.4,1.9,4.7,0.1,3.2-1.9c-5-6.9,8.9-10.5,13.1-10.6c2.7-0.1,5.4,0.8,7.7,2.1c3.7,2,5.3,7.5,1.1,9.9
			C149.5,500.9,151.3,504.2,153.4,503L153.4,503z"/>
	</g>
</g>
<g>
	<g>
		<path fill="#FFFFFF" d="M133.8,497.6c1-0.4,1.7-1.1,1.7-2.3c0-0.9-0.4-1.8-1.2-2.2c-0.9-0.5-2-0.2-2.6,0.7
			c-0.5,0.9-0.2,2.1,0.7,2.6c-0.4-0.3-0.6-0.7-0.6-1.1c0-0.6,0.4-1,1-1.3c-0.9,0.4-1.6,1.2-1.3,2.3
			C131.7,497.2,132.9,498,133.8,497.6L133.8,497.6z"/>
	</g>
</g>
<g>
	<g>
		<path fill="#FFFFFF" d="M147.7,497.2c0.7,0.8,1.8,0.8,2.7,0.3c0.9-0.5,1.5-2,0.8-2.9c-0.4-0.5-0.7-0.8-1.3-1
			c-0.6-0.2-1.1,0-1.6,0.2c-1,0.4-1.3,1.5-1.1,2.5c0.2,1,1.4,1.6,2.3,1.3c1-0.3,1.5-1.3,1.3-2.3c0,0,0-0.1,0-0.1c0,0.3,0,0.7,0,1
			c-0.5,0.4-0.9,0.7-1.4,1.1c-0.3-0.1-0.6-0.2-0.9-0.3c0,0,0.1,0,0.1,0c-0.2-0.2-0.4-0.4-0.7-0.7c0-0.1-0.1-0.2-0.1-0.3
			c0-0.3,0-0.7,0-1c0.5-0.4,0.9-0.7,1.4-1.1c0.3,0.1,0.6,0.2,0.9,0.3c0.1,0.1,0.2,0.1,0.2,0.2c-0.7-0.8-2-0.7-2.7,0
			C146.9,495.3,147,496.4,147.7,497.2L147.7,497.2z"/>
	</g>
</g>
<g>
	<g>
		<path fill="#FFFFFF" d="M170.4,479.7c0-0.5,0.1-1.1,0.1-1.6c0.1-0.9-0.6-1.5-1.4-1.8c-1.8-0.7-3.9-0.1-5.2,1.3
			c-1.5,1.6-1.5,4-0.4,5.8c2.7,4.4,8.2-1.3,5.5-4.8c-0.5-0.6-1.3-1.2-2.1-0.9c-1.2,0.5-2.3,1.1-2.8,2.4c-0.4,1-0.1,2.4,0.8,3.1
			c1.2,0.9,2.9,0.8,3.6-0.7c0.7-1.4,0.1-2.9-1.1-3.7c-2-1.3-3.9,1.9-1.9,3.2c-0.1-0.5-0.1-1-0.2-1.4c0.4-0.2,0.9-0.4,1.3-0.5
			c0,0,0.1,0,0.1,0c0.3,0.2,0.6,0.3,0.8,0.5c0.5,0.4-0.5,1.1,0.4,0.8c-0.7-0.3-1.4-0.6-2.1-0.9c0,0,0.3,0.5,0.2,0.3
			c0-0.1,0,0.2-0.1,0.3c-0.1,0.2-0.1,0.3-0.5,0.3c0.5,0.1,1,0.1,1.4,0.2c-0.3-0.2-0.4-0.9-0.3-1.2c0.3-0.6,1.1-0.6,1.6-0.4
			c-0.5-0.6-0.9-1.2-1.4-1.8c0,0.5-0.1,1.1-0.1,1.6c-0.1,1,0.9,1.9,1.9,1.9C169.7,481.6,170.4,480.8,170.4,479.7L170.4,479.7z"/>
	</g>
</g>
<g>
	<g>
		<path fill="#FFFFFF" d="M121.2,483c1.8-0.5,2.8-2.6,2.2-4.3c-0.3-1-1-1.6-1.8-2.2c-1-0.8-2-1-3.1-0.3c-1.4,0.8-2.3,2.6-2.1,4.2
			c0.2,1.9,1.6,3.4,3.5,3.7c1.9,0.3,3.8-0.5,4.6-2.4c0.8-2.1-1.2-4.4-3.2-4.8c-2.1-0.4-4.4,1.1-4.5,3.3c-0.1,2.2,2,3.9,4.2,3.3
			c2.3-0.6,1.3-4.2-1-3.6c0.7-0.2,0.4,0.6,0.5,0.6c0.1,0,0.2,0.1,0.3,0.2c0.4,0.3,0,0.4,0.1-0.2c0.1-0.1,0.1-0.2,0.2-0.3
			c-0.2,0.2-0.2,0.2-0.1,0.1c-0.4,0.2,0.1,0-0.3,0.1c0.3-0.1-0.3,0,0,0c0,0-0.6-0.2-0.3-0.1c-0.4-0.2,0.1,0.1-0.2-0.2
			c0.1,0.1,0.1,0.3,0,0c0.1,0.3,0-0.2,0-0.3c0,0.3,0.1-0.3,0,0c0.2-0.4,0.2-0.4,0.6-0.5c-0.6,0-1.3,0-1.9,0c0.4,0.2,0.8,0.4,1,0.7
			c-0.1-0.1,0-0.2,0-0.3c-0.1,0.4,0-0.2,0.4-0.2C117.8,480,118.8,483.7,121.2,483L121.2,483z"/>
	</g>
</g>
<g>
	<g>
		<path fill="#FFFFFF" d="M117.2,480.9c0,2.4,2.5,3.4,4.5,2.8c2-0.6,3.3-2.7,3-4.7c-0.3-2-2.1-3.4-4.1-3.5c-2-0.2-3.9,1.7-4.3,3.5
			c-0.4,2.1,0.9,4,2.8,4.7c0.9,0.4,2.3,0.5,3.1-0.3c0.7-0.7,1.3-1.8,1.5-2.8c0.6-2.2-1-4.1-3.1-4.4c-2.1-0.3-3.5,2.2-4.1,3.7
			c-0.2,0.6,0.1,1.4,0.5,1.8c0.4,0.4,0.9,0.9,1.3,1.3c1.7,1.7,4.3-0.9,2.7-2.7c-0.4-0.4-0.9-0.9-1.3-1.3c0.2,0.6,0.3,1.2,0.5,1.8
			c0.1-0.3,0.3-0.5,0.4-0.7c0.1-0.1,0.3-0.3,0.1-0.3c-0.8,0-0.4-0.7-0.6,0c-0.1,0.4-0.5,0.9-0.8,1.2c0.5-0.3,1.1-0.6,1.6-0.9
			c-0.8,0.1-1.2-0.8-0.3-1.1c0.2-0.1,0.4,0.4,0.4,0.6c0,0.1-0.2,0.2-0.3,0.3c-0.1,0.1-0.2,0.1-0.3,0.1c0,0,0,0,0,0
			c-0.2-0.3,0,0,0.5,0.7C120.9,478.5,117.2,478.5,117.2,480.9L117.2,480.9z"/>
	</g>
</g>
<g>
	<g>
		<path fill="#FFFFFF" d="M178,462.4c6.3,0.8,11.1,10.4,17.8,5.2c-0.9-0.9-1.8-1.8-2.7-2.7c-2.5,2.3-4.3,5.3-6.7,7.7
			c-3,3.1-7.4,4.5-11.7,4.6c-2.4,0.1-2.4,3.8,0,3.8c4-0.1,7.7-1.1,11.1-3.2c4.2-2.5,6.4-6.9,9.9-10.2c1.8-1.7-0.8-4.1-2.7-2.7
			c-2.8,2.2-6-2.5-8.1-3.9c-2.2-1.4-4.4-2.1-7.1-2.5C175.6,458.3,175.6,462.1,178,462.4L178,462.4z"/>
	</g>
</g>
<g>
	<g>
		<path fill="#FFFFFF" d="M112.5,452.3c-2.3,0.9-4.2,2.1-5.6,4.2c-2.7,3.9-4.3,10.5-10.7,9.4c-2.1-0.4-3.2,2.2-1.4,3.4
			c3.2,2.3,4.7,6.4,7.7,9c2.7,2.4,6.5,3,9.9,2.6c2.4-0.3,2.4-4,0-3.8c-8.7,1-9.9-7-15.7-11.1c-0.5,1.1-1,2.3-1.4,3.4
			c3.6,0.6,6.2,0,9.1-2.3c4-3.1,4-9.4,9.2-11.4C115.7,455.1,114.7,451.4,112.5,452.3L112.5,452.3z"/>
	</g>
</g>
<g>
	<g>
		<path fill="#FFFFFF" d="M173.4,487.2c0.1-1.3,0.2-2.5,0.2-3.8c0-1-0.9-1.9-1.9-1.9c-1.1,0-1.8,0.9-1.9,1.9
			c-0.1,1.3-0.1,2.5-0.2,3.8c-0.1,1,0.9,1.9,1.9,1.9C172.6,489.1,173.3,488.2,173.4,487.2L173.4,487.2z"/>
	</g>
</g>
<g>
	<g>
		<path fill="#FFFFFF" d="M115.9,484.5c-1.4,13.9,1.3,27.5,7.2,40.1c1.9,4.1,4,10,9.3,10c4.1,0,5.1-5.4,5.4-8.5
			c-0.6,0.6-1.2,1.2-1.9,1.9c4.8,0,9.5,0,14.3-0.2c-0.3-1.2-0.6-2.3-0.9-3.5c-0.5,0.2-1.1,0.2-1.6,0.4c-1.6,0.7-1,3,0.4,3.4
			c0.7,0.2,1.4,0.2,2.1,0.2c2.4,0.2,2.4-3.6,0-3.8c-0.4,0-0.7-0.1-1.1-0.1c0.1,1.1,0.3,2.3,0.4,3.4c0.5-0.2,1.1-0.2,1.6-0.4
			c1.8-0.7,0.8-3.6-0.9-3.5c-4.8,0.2-9.5,0.2-14.3,0.2c-1.1,0-1.8,0.9-1.9,1.9c-0.2,1.8-1.1,8-4.4,2.6c-1.2-1.9-2.3-4-3.3-6
			c-2-3.9-3.4-8.1-4.6-12.3c-2.4-8.4-3-17.2-2.1-25.9C119.9,482.1,116.2,482.2,115.9,484.5L115.9,484.5z"/>
	</g>
</g>
<g>
	<g>
		<path fill="#FFFFFF" d="M168.7,486.1c1.9,8-0.5,16.4-3,24c-1.4,4.2-3.3,8.2-5.4,12c-0.8,1.5-1.7,3-2.6,4.4c-0.6,1-1.2,1.9-1.9,2.8
			c-2.9,0.4-4.2-0.5-3.7-2.7c0-2.4-3.8-2.4-3.8,0c0.1,3.7,1.1,8.5,5.8,8.5c4.7,0,8.4-9.3,10.2-12.7c5.8-10.8,11-25.1,8-37.4
			C171.8,482.7,168.2,483.7,168.7,486.1L168.7,486.1z"/>
	</g>
</g>
<g>
	<g>
		<path fill="#FFFFFF" d="M138.5,364.3c-9.4,20.4-16.3,41.7-20.6,63.7c-0.5,2.4,3.2,3.4,3.6,1c4.2-21.7,11-42.7,20.2-62.8
			C142.7,364,139.5,362.1,138.5,364.3L138.5,364.3z"/>
	</g>
</g>
<g>
	<g>
		<path fill="#FFFFFF" d="M152.3,370.5c5.6,20.4,11.7,40.6,18.1,60.8c0.7,2.3,4.4,1.3,3.6-1c-6.4-20.1-12.4-40.4-18.1-60.8
			C155.3,367.2,151.7,368.2,152.3,370.5L152.3,370.5z"/>
	</g>
</g>
<g>
	<g>
		<path fill="#FFFFFF" d="M125,429.3c-3.5-1.1-7.3-1.9-10.5,0.4c-3.4,2.5-5,8.3-4.7,12.2c0.1,1.6,2.6,1.6,2.5,0
			c-0.3-3.4,0.9-6.3,2.7-9.1c2-3.3,6.3-2,9.3-1.1C125.9,432.2,126.5,429.8,125,429.3L125,429.3z"/>
	</g>
</g>
<g>
	<g>
		<path fill="#FFFFFF" d="M111,441.3c-2.8-1.1-5.1-3.1-6.7-5.6c-0.6-0.9-1.9-0.7-2.3,0.3c-1.3,3.6,0.3,7.6,3.7,9.4
			c1.4,0.8,2.7-1.4,1.3-2.2c-2.4-1.3-3.4-4-2.5-6.6c-0.8,0.1-1.5,0.2-2.3,0.3c2,3.1,4.8,5.4,8.2,6.8
			C111.8,444.3,112.5,441.9,111,441.3L111,441.3z"/>
	</g>
</g>
<g>
	<g>
		<path fill="#FFFFFF" d="M107.3,445.5c0-0.1,0.1-0.3,0.1-0.4c0.6-1.1-0.6-2.3-1.7-1.7c-2.4,1.3-3.7,3.7-3.6,6.4c0,1,1,1.5,1.9,1.1
			c1.5-0.7,3-1.2,4.5-1.7c-0.5-0.4-1.1-0.8-1.6-1.2c0.4,3,2,5.6,4.8,7c1.4,0.7,2.7-1.4,1.3-2.2c-1.9-1-3.3-2.6-3.6-4.8
			c-0.1-0.8-0.7-1.5-1.6-1.2c-1.8,0.5-3.4,1.2-5.1,1.9c0.6,0.4,1.3,0.7,1.9,1.1c-0.1-1.8,0.7-3.3,2.4-4.2c-0.6-0.6-1.1-1.1-1.7-1.7
			c-0.4,0.6-0.4,1-0.5,1.7C104.7,447.1,107.2,447.1,107.3,445.5L107.3,445.5z"/>
	</g>
</g>
<g>
	<g>
		<path fill="#FFFFFF" d="M113.7,447.9c10.4,3.8,18.3-4.8,23.2-12.9c-0.8-0.3-1.5-0.6-2.3-1c-0.6,2.2-0.9,4.2-0.9,6.4
			c0,0.9,1.1,1.6,1.9,1.1c1.4-0.9,2.1-1.7,2.5-3.4c-0.8,0.1-1.5,0.2-2.3,0.3c1.3,2.1,1.7,3.8,1.4,6.3c-0.1,1.2,1.4,1.5,2.1,0.9
			c2.6-2.2,3.8-4.7,4.1-8.1c-0.6,0.4-1.3,0.7-1.9,1.1c1.9,0.8,3,2.2,3.2,4.2c0.2,1.1,1.8,1.2,2.3,0.3c1.5-2.6,1.5-4.9-0.1-7.4
			c-0.9-1.4-3-0.1-2.2,1.3c0,1.6,0.1,3.3,0.1,4.9c0.8,0.1,1.5,0.2,2.3,0.3c-0.6-2.7-1.9-4.5-4.4-5.7c-0.9-0.5-1.8,0.1-1.9,1.1
			c-0.2,2.9-1.3,4.6-3.4,6.3c0.7,0.3,1.4,0.6,2.1,0.9c0.4-2.8-0.2-5.1-1.7-7.5c-0.6-0.9-2-0.8-2.3,0.3c-0.5,0.6-0.9,1.3-1.4,1.9
			c0.6,0.4,1.3,0.7,1.9,1.1c0.1-2,0.3-3.9,0.8-5.8c0.4-1.4-1.5-2.2-2.3-1c-4.4,7.1-11,15.1-20.4,11.7
			C112.9,445,112.2,447.4,113.7,447.9L113.7,447.9z"/>
	</g>
</g>
<g>
	<g>
		<path fill="#FFFFFF" d="M146.7,438.2c2.2,2.2,4.9,3.8,8,4.5c1.6,0.3,2.2-2.1,0.7-2.4c-2.7-0.6-5-1.9-6.9-3.8
			C147.3,435.3,145.5,437,146.7,438.2L146.7,438.2z"/>
	</g>
</g>
<g>
	<g>
		<path fill="#FFFFFF" d="M153,441.8c1.4,1.8,1.7,4,0.8,6.1c-0.5,1.3,1.2,1.9,2.1,1.2c1.5-1.2,2.9-2.4,4.4-3.6
			c1.3-1-0.5-2.8-1.8-1.8c-1.5,1.2-2.9,2.4-4.4,3.6c0.7,0.4,1.4,0.8,2.1,1.2c1.1-2.7,0.6-5.7-1.1-8C154.2,439.2,152,440.5,153,441.8
			L153,441.8z"/>
	</g>
</g>
<g>
	<g>
		<path fill="#FFFFFF" d="M159,447c2.9,0.2,5.3,2.1,6.4,4.8c0.6,1.5,2.8,0.2,2.2-1.3c-1.5-3.5-4.8-5.7-8.6-6
			C157.4,444.4,157.4,446.9,159,447L159,447z"/>
	</g>
</g>
<g>
	<g>
		<path fill="#FFFFFF" d="M165.1,450.7c-1.8,2.5-1,5.9,1.5,7.6c0.4,0.3,1.2,0.2,1.5-0.2c1.4-1.6,2.6-3.2,3.9-4.8
			c1-1.3-1.2-2.5-2.2-1.3c-1.1,1.5-2.3,2.9-3.5,4.3c0.5-0.1,1-0.1,1.5-0.2c-1.4-1-1.5-2.9-0.6-4.2
			C168.2,450.6,166,449.4,165.1,450.7L165.1,450.7z"/>
	</g>
</g>
<g>
	<g>
		<path fill="#FFFFFF" d="M168.7,455.3c1.8,1.3,3.4,3,4.6,4.9c0.8,1.4,3,0.1,2.2-1.3c-1.4-2.3-3.3-4.2-5.5-5.8
			C168.7,452.2,167.4,454.3,168.7,455.3L168.7,455.3z"/>
	</g>
</g>
<g>
	<g>
		<path fill="#FFFFFF" d="M175.4,457.8c-0.1,0-0.1,0.1-0.2,0.1c0.5,0.1,1,0.1,1.5,0.2c0.4-0.6,0.8-1.3,1.1-1.9
			c-0.7,0.1-1.3,0.2-2,0.3c1.4,1.5,2.8,2.1,4.8,2c0.8,0,1.5-0.8,1.2-1.6c-2.2-6.6,2.4-14.9-3.7-20.3c-1.2-1.1-3,0.7-1.8,1.8
			c5.3,4.7,1,13.2,3,19.2c0.4-0.5,0.8-1.1,1.2-1.6c-1-0.4-2-0.9-3-1.3c-0.6-0.6-1.5-0.4-2,0.3c-1.1,1.4-2,3.4-0.7,5
			c0.4,0.4,1.1,0.5,1.5,0.2c0.1,0,0.1-0.1,0.2-0.1C178.1,459.1,176.8,457,175.4,457.8L175.4,457.8z"/>
	</g>
</g>
<g>
	<g>
		<path fill="#FFFFFF" d="M174.3,431.7c0.2,1.8,6,2.1,7.5,1.8c2-0.4,3.7-1.4,4.6-3.3c0.6-1.3-0.8-2.4-2-1.5
			c-2.6,2.1-3.4,5.8-6.3,7.6c-1.4,0.8-0.1,3,1.3,2.2c3.2-1.9,4-5.7,6.8-8c-0.7-0.5-1.3-1-2-1.5c-1.6,3.5-6,2-8.8,1.2
			c-1.4-0.4-3.7-0.4-3.5,1.6C172,433.3,174.5,433.3,174.3,431.7L174.3,431.7z"/>
	</g>
</g>
<g>
	<g>
		<path fill="#FFFFFF" d="M174.1,437.8c0.1,0,0.2,0,0.3,0c0.6,0,1-0.4,1.2-0.9c1.3-3.2-3.9-7.3-6.1-8.8c-3.7-2.7-8.5-3.4-12.9-2.8
			c-1.6,0.2-0.9,2.6,0.7,2.4c3.3-0.5,6.4,0.1,9.3,1.6c1.5,0.7,7.5,4.8,6.6,7c0.4-0.3,0.8-0.6,1.2-0.9c-0.1,0-0.2,0-0.3,0
			C172.5,435.3,172.4,437.8,174.1,437.8L174.1,437.8z"/>
	</g>
</g>
<g>
	<g>
		<path fill="#FFFFFF" d="M156.7,427.8c3.3-1.8,5.8-4.4,7.7-7.6c0.6-1-0.4-2-1.4-1.8c-5.6,1.1-10.3,4.2-13.6,8.8
			c-1,1.3,1.2,2.5,2.2,1.3c3-4,7.2-6.6,12.1-7.6c-0.5-0.6-0.9-1.2-1.4-1.8c-1.7,2.9-3.9,5.1-6.8,6.7
			C154,426.4,155.3,428.6,156.7,427.8L156.7,427.8z"/>
	</g>
</g>
<g>
	<g>
		<path fill="#FFFFFF" d="M152.2,424.9c-0.3-3.5-3.7-4.5-6.8-4.5c-4.2-0.1-7.7,3.1-10.3,6c-1.1,1.2,0.7,3,1.8,1.8
			c1.8-2,3.7-3.8,6.3-4.8c1.7-0.7,6.3-0.9,6.6,1.6C149.9,426.5,152.4,426.5,152.2,424.9L152.2,424.9z"/>
	</g>
</g>
<g>
	<g>
		<path fill="#FFFFFF" d="M138.7,424.6c-0.5-3.7-4.4-4.2-7.3-3.1c-3.5,1.3-6.3,4.3-8.1,7.5c-0.8,1.4,1.4,2.7,2.2,1.3
			c1.1-1.9,2.4-3.6,4.2-4.9c1.6-1.2,6.2-3.7,6.7-0.1C136.5,426.8,138.9,426.1,138.7,424.6L138.7,424.6z"/>
	</g>
</g>
<g>
	<g>
		<path fill="#FFFFFF" d="M142,352.5c-4.7,0.6-9.1,2.4-13,5.2c-1,0.7-0.7,2.3,0.6,2.3c1.9,0,3.8,0.1,5.7,0.1
			c-0.4-0.6-0.7-1.3-1.1-1.9c-1.1,2-2.1,4-3,6c-0.5,1,0.6,2.5,1.7,1.7c2.4-1.7,4.9-2.9,7.7-3.9c1.5-0.5,0.9-2.9-0.7-2.4
			c-3,1-5.7,2.3-8.3,4.1c0.6,0.6,1.1,1.1,1.7,1.7c0.9-2,1.9-4,3-6c0.4-0.8-0.1-1.9-1.1-1.9c-1.9,0-3.8-0.1-5.7-0.1
			c0.2,0.8,0.4,1.6,0.6,2.3c3.7-2.7,7.9-4.3,12.4-4.9C144.2,354.7,143.6,352.3,142,352.5L142,352.5z"/>
	</g>
</g>
<g>
	<g>
		<path fill="#FFFFFF" d="M138.8,362.2c1.1,2.9,3.3,5.1,6.2,6.2c1.3,0.5,1.9-1.2,1.2-2.1c-1.1-1.4-1.2-3.4-0.4-5
			c0.8-1.4-1.4-2.7-2.2-1.3c-1.4,2.7-1.1,5.7,0.8,8c0.4-0.7,0.8-1.4,1.2-2.1c-2-0.8-3.6-2.4-4.4-4.4
			C140.6,360,138.2,360.7,138.8,362.2L138.8,362.2z"/>
	</g>
</g>
<g>
	<g>
		<path fill="#FFFFFF" d="M144.6,362.8c2.6,1.1,4.4,3.4,4.5,6.3c0.1,1,1.4,1.8,2.1,0.9c1.8-2.3,2.4-5,1.6-7.8
			c-0.5-1.5-2.9-0.9-2.4,0.7c0.7,2.3,1.2,4.6,1.5,7c0.2,1.6,2.7,1.6,2.5,0c-0.3-2.6-0.8-5.1-1.5-7.6c-0.8,0.2-1.6,0.4-2.4,0.7
			c0.6,1.9,0.3,3.8-0.9,5.4c0.7,0.3,1.4,0.6,2.1,0.9c-0.2-3.7-2.4-7-5.8-8.5C144.4,360.1,143.1,362.2,144.6,362.8L144.6,362.8z"/>
	</g>
</g>
<g>
	<g>
		<path fill="#FFFFFF" d="M149.6,353.8c-0.6-4-1.9-7.7-3.7-11.3c-0.6-1.2-2.2-0.5-2.3,0.6c-0.1,1.9-0.3,3.8-0.4,5.8
			c0.8-0.2,1.6-0.4,2.3-0.6c-1.2-2.2-2.9-3.9-5-5.1c-0.7-0.4-1.7-0.1-1.8,0.7c-0.3,1.6,0.2,2.7,0.8,4.1c0.8,1.9,1.2,3.9,1.3,5.9
			c0.1,1.6,2.6,1.6,2.5,0c-0.1-1.4-0.3-2.8-0.6-4.3c-0.3-1.5-1.8-3.6-1.5-5c-0.6,0.2-1.2,0.5-1.8,0.7c1.8,1.1,3.1,2.4,4.1,4.2
			c0.6,1.2,2.2,0.5,2.3-0.6c0.1-1.9,0.3-3.8,0.4-5.8c-0.8,0.2-1.6,0.4-2.3,0.6c1.7,3.4,2.8,7,3.4,10.7
			C147.5,356.1,149.9,355.4,149.6,353.8L149.6,353.8z"/>
	</g>
</g>
<g>
	<g>
		<path fill="#FFFFFF" d="M148.2,355.8c5.3-1.3,10.6-1.8,16.1-1.6c-0.2-0.8-0.4-1.6-0.6-2.3c-2.7,1.5-5.1,3.4-7.2,5.6
			c-0.5,0.5-0.5,1.6,0.3,2c1.4,0.7,2.9,1.3,4.3,2c0.1-0.8,0.2-1.5,0.3-2.3c-0.9,0.3-1.8,0.3-2.7,0.2c-1.6-0.1-1.6,2.4,0,2.5
			c1.2,0.1,2.2,0,3.4-0.3c1-0.2,1.3-1.8,0.3-2.3c-1.4-0.7-2.9-1.3-4.3-2c0.1,0.7,0.2,1.3,0.3,2c2-2,4.2-3.7,6.7-5.2
			c1.1-0.6,0.6-2.3-0.6-2.3c-5.7-0.2-11.2,0.4-16.7,1.7C146,353.7,146.7,356.1,148.2,355.8L148.2,355.8z"/>
	</g>
</g>
<g>
	<g>
		<path fill="#FFFFFF" d="M156.9,361.8c4.4,2,7.6,5.3,9.5,9.7c0.6-0.5,1.2-0.9,1.8-1.4c-2.9-1.9-5.8-3.7-8.8-5.3
			c-0.9-0.5-2.3,0.3-1.8,1.4c1.6,3.9,2.5,7.9,2.7,12.2c0.7-0.3,1.4-0.6,2.1-0.9c-2.3-1.9-4.2-4-5.9-6.5c-0.9-1.3-3.1-0.1-2.2,1.3
			c1.8,2.6,3.8,4.9,6.2,7c0.8,0.6,2.2,0.3,2.1-0.9c-0.3-4.4-1.2-8.7-2.8-12.8c-0.6,0.5-1.2,0.9-1.8,1.4c3,1.6,6,3.4,8.8,5.3
			c0.9,0.6,2.3-0.4,1.8-1.4c-2.1-5-5.6-8.9-10.6-11.2C156.8,359,155.5,361.1,156.9,361.8L156.9,361.8z"/>
	</g>
</g>
<g>
	<g>
		<path fill="#FFFFFF" d="M147,421.5c2.1-0.4,3.1-2.6,2.7-4.6c-0.4-2.1-3.1-3.2-5-2.8c-2.3,0.5-3.9,2.5-4.3,4.8
			c-0.4,2.2,1.4,4.7,3.8,3.8c1.5-0.6,0.8-3-0.7-2.4c-1.2,0.4-0.4-1.8-0.2-2.2c0.4-0.8,1.2-1.4,2-1.6c0.8-0.1,1.7,0.2,2,1
			c0.3,0.7-0.3,1.4-1,1.5C144.8,419.4,145.4,421.8,147,421.5L147,421.5z"/>
	</g>
</g>
<g>
	<g>
		<path fill="#FFFFFF" d="M157.1,408.1c-1.8-1.9-4.8-2.7-7.1-1.1c-2,1.4-2.6,4.6-1,6.4c1.9,2.2,5.6,2,7.5,0c1.7-1.7,1.2-5.1-1-6.1
			c-1.5-0.6-2.7,1.5-1.3,2.2c1,0.5,1.1,1.7,0.3,2.4c-0.9,0.9-3,0.8-3.7-0.2c-0.6-0.8-0.1-2.2,0.6-2.7c1.3-0.9,2.9-0.1,3.8,0.9
			C156.4,411,158.2,409.2,157.1,408.1L157.1,408.1z"/>
	</g>
</g>
<g>
	<g>
		<path fill="#FFFFFF" d="M137.8,407.1c-1.6-2.3-4.6-1.8-6.4-0.1c-2.3,2-2.3,5.5-0.3,7.6c1.9,2,5.4,1.1,6.9-1
			c1.8-2.5,0.9-5.8-1.2-7.9c-1.1-1.1-2.9,0.6-1.8,1.8c1,1,1.6,2.3,1.4,3.7c-0.2,1.3-1.7,2.2-3,1.9c-1.6-0.4-1.5-2.5-0.9-3.6
			c0.4-0.8,2.3-2.3,3.1-1.2C136.5,409.7,138.7,408.5,137.8,407.1L137.8,407.1z"/>
	</g>
</g>
<g>
	<g>
		<path fill="#FFFFFF" d="M123,417c1.5,0.5,3.2,1.2,2.8,3.1c-0.4,1.8-2.7,2.6-4.2,3.3c-1.5,0.6-0.2,2.8,1.3,2.2
			c2.4-1.1,5.3-2.6,5.5-5.6c0.2-3-2.2-4.5-4.7-5.3C122.2,414,121.5,416.5,123,417L123,417z"/>
	</g>
</g>
<g>
	<g>
		<path fill="#FFFFFF" d="M165,415.9c-2.2,0.1-4.1,2.1-3.8,4.3c0.1,0.7,0.5,1.2,1.2,1.2c0.6,0,1.3-0.6,1.2-1.2
			c-0.1-0.8,0.4-1.7,1.3-1.8C166.6,418.3,166.6,415.8,165,415.9L165,415.9z"/>
	</g>
</g>
<g>
	<g>
		<path fill="#FFFFFF" d="M160.8,421.9c1.9,2.8,5.9,3.3,8.5,1c1.2-1.1-0.6-2.9-1.8-1.8c-1.3,1.2-3.5,1-4.5-0.5
			C162.1,419.3,159.9,420.5,160.8,421.9L160.8,421.9z"/>
	</g>
</g>
<g>
	<g>
		<path fill="#FFFFFF" d="M146.3,398.4c1.3-0.1,1.8-1.3,1.2-2.4c-0.6-1-2-1.2-3.1-1c-2.5,0.5-4.3,3-3.6,5.6c0.8,2.7,4.5,2.7,6.3,1.1
			c1.8-1.5,2.4-4.1,1.3-6.2c-0.7-1.4-2.9-0.2-2.2,1.3c0.7,1.4-0.4,3.4-1.9,3.5c-1.3,0.1-1.4-1.2-0.8-2c0.2-0.3,0.7-0.6,1-0.7
			c0.2-0.1,0.3-0.1,0.5-0.1c0.1,0,0.2,0,0.3,0c0.5,0.1,0.5-0.2,0.1-1c0.4-0.2,0.7-0.4,1.1-0.6c-0.1,0-0.1,0-0.2,0
			C144.7,396,144.7,398.5,146.3,398.4L146.3,398.4z"/>
	</g>
</g>
<g>
	<g>
		<path fill="#FFFFFF" d="M158.4,396.8c-2.2,1-3,4-1.6,5.9c1.4,2.1,4.7,2.2,6.3,0.3c1-1.2-0.7-3-1.8-1.8c-0.6,0.8-1.8,0.9-2.5,0.2
			c-0.8-0.8,0-2.1,0.8-2.4c0.6-0.3,0.8-1.2,0.4-1.7C159.7,396.6,159,396.5,158.4,396.8L158.4,396.8z"/>
	</g>
</g>
<g>
	<g>
		<path fill="#FFFFFF" d="M128.9,398.6c0.8,0.3,1.4,1,1.2,1.9c-0.2,1.2-1.4,1.3-2.4,1.4c-1.6,0.1-1.6,2.6,0,2.5
			c2.2-0.2,4.1-0.9,4.8-3.2c0.7-2.2-0.9-4.3-2.9-4.9C128.1,395.7,127.4,398.1,128.9,398.6L128.9,398.6z"/>
	</g>
</g>
<g>
	<g>
		<path fill="#FFFFFF" d="M140.1,388.9c0.1-0.2,0.1-0.4,0.2-0.7c0.2-0.7-0.2-1.3-0.9-1.5c-3.7-1.3-7.7,2.6-5.2,6.1
			c1.2,1.7,3.2,2.1,5,1.1c2-1.2,2.3-3.7,2.2-5.7c-0.1-1.6-2.6-1.6-2.5,0c0.1,1.1,0.1,2.3-0.6,3.2c-0.6,0.7-1.3,0.8-2,0.1
			c-0.6-0.6-0.5-1.4,0-2c0.6-0.7,1.6-0.7,2.4-0.4c-0.3-0.5-0.6-1-0.9-1.5c-0.1,0.2-0.1,0.4-0.2,0.7
			C137.3,389.8,139.7,390.5,140.1,388.9L140.1,388.9z"/>
	</g>
</g>
<g>
	<g>
		<path fill="#FFFFFF" d="M152.9,386.8c-1.7-1.1-3.8-0.3-4.8,1.2c-1.3,1.8,0.1,4.3,1.9,5.1c2,0.9,4.4-0.1,5.2-2.1
			c0.8-2-0.4-4.3-2.5-4.8c-1.6-0.4-2.2,2-0.7,2.4c1.8,0.5,0.5,2.9-1,2.2c-1.5-0.7-0.6-2.7,0.7-1.9
			C153,389.9,154.2,387.7,152.9,386.8L152.9,386.8z"/>
	</g>
</g>
<g>
	<g>
		<path fill="#FFFFFF" d="M146.3,380c0.5-0.7,0.3-2.1-0.6-2.5c-1.2-0.5-2.1-0.1-3.1,0.7c-1.7,1.4-3,3.6-1.5,5.6
			c1.2,1.5,3.4,1.9,5,0.9c1.8-1.1,2.4-3.7,1.6-5.6c-0.6-1.5-3-0.8-2.4,0.7c0.4,1.1,0.2,3.2-1.4,2.9c-0.6-0.1-1.1-0.5-1-1.2
			c0.1-0.4,0.4-0.7,0.7-1c0.2-0.1,0.3-0.3,0.5-0.4c0.1-0.1,0.2-0.1,0.3-0.2c0.5-0.2,0.5-0.7-0.3-1.2
			C143.3,380.1,145.4,381.4,146.3,380L146.3,380z"/>
	</g>
</g>
<g>
	<g>
		<path fill="#FFFFFF" d="M135,379.2c1.4,0.7,1.3,2.8-0.4,2.9c-1.6,0.1-1.6,2.6,0,2.5c1.8-0.1,3.4-1.3,3.8-3.1
			c0.4-1.8-0.6-3.7-2.2-4.4C134.9,376.3,133.6,378.5,135,379.2L135,379.2z"/>
	</g>
</g>
<g>
	<g>
		<path fill="#FFFFFF" d="M152.9,376.9c-1.6,0.7-1.9,2.8-1.3,4.3c0.8,1.9,3,2.4,4.8,2.7c0.7,0.1,1.3-0.2,1.5-0.9
			c0.2-0.6-0.2-1.4-0.9-1.5c-1.1-0.2-2.2-0.3-3-1.1c-0.4-0.4-0.4-1.1,0.1-1.3c0.6-0.3,0.8-1.2,0.4-1.7
			C154.2,376.7,153.5,376.6,152.9,376.9L152.9,376.9z"/>
	</g>
</g>
<g>
	<g>
		<path fill="#FFFFFF" d="M148.7,369.6c-1.6-0.6-3.6-0.3-4.8,1.1c-1.2,1.4-1.2,3.3,0,4.7c1.1,1.3,3.2,1.3,4.5,0.3
			c1.3-1,1.6-2.9,0.8-4.3c-0.7-1.4-2.9-0.2-2.2,1.3c0.5,1-0.8,1.8-1.5,0.9c-0.3-0.5,0-1.1,0.4-1.4c0.5-0.5,1.5-0.3,2.1-0.1
			C149.6,372.5,150.2,370.1,148.7,369.6L148.7,369.6z"/>
	</g>
</g>
<g>
	<g>
		<path fill="#FFFFFF" d="M138.6,370.8c0.3,0.7-0.3,1.6-1,1.8c-1.5,0.5-0.9,2.9,0.7,2.4c2.4-0.7,3.4-3.3,2.4-5.5
			c-0.3-0.6-1.2-0.8-1.7-0.4C138.4,369.5,138.3,370.2,138.6,370.8L138.6,370.8z"/>
	</g>
</g>
<g>
	<g>
		<path fill="#FFFFFF" d="M34.6,435.2c-2.9-3-6.2-5.2-10.2-6.6c-0.5-0.2-1.1,0.1-1.4,0.6c-1.7,2.6,0.2,4.4,2.1,6.2
			c4.2,4.2,8.4,8.4,12.7,12.5c0.7,0.7,2.2,0.2,2.1-0.9c-0.4-4.9-0.9-9.8-1.7-14.6c-0.4-2.4-0.2-6.5-3.1-7.3
			c-0.7-0.2-1.4,0.2-1.5,0.9c-1,3.8-1.3,7.6-1,11.6c0.1,1.6,2.6,1.6,2.5,0c-0.3-3.7,0-7.3,0.9-10.9c-0.5,0.3-1,0.6-1.5,0.9
			c1.4,0.4,1.8,8.9,2,10c0.4,3.2,0.7,6.4,1,9.6c0.7-0.3,1.4-0.6,2.1-0.9c-1.8-1.7-15.8-13.6-14.3-15.7c-0.5,0.2-0.9,0.4-1.4,0.6
			c3.5,1.3,6.5,3.3,9.1,6C33.9,438.1,35.7,436.3,34.6,435.2L34.6,435.2z"/>
	</g>
</g>
<g>
	<g>
		<path fill="#FFFFFF" d="M103.1,371.6c-2.4-2.9-7.7-5.6-9.9-1.1c-0.8,1.6,0.3,3.6,1.3,4.8c2.5,2.8,5.2,5.4,7.8,8.1
			c0.6,0.6,1.5,0.4,2-0.3c2.1-3.3,4-6.8,5.7-10.3c0.8-1.6,1.5-4.4-0.3-5.6c-1.7-1.2-4-0.8-5.6,0.6c-1.4,1.3-3.6,3.9-3.1,6
			c0.1,0.5,0.7,0.9,1.2,0.9c0.1,0,0.2,0,0.3,0c0.7,0,1.2-0.6,1.2-1.2c0-0.1,0-0.2,0-0.2c0.2-1.6-2.3-1.6-2.5,0c0,0.1,0,0.2,0,0.2
			c0.4-0.4,0.8-0.8,1.2-1.2c-0.1,0-0.2,0-0.3,0c0.4,0.3,0.8,0.6,1.2,0.9c-0.1-0.5,1.6-2.7,1.9-3c1-1.4,1.9-1.1,2.7,0.9
			c-0.4,0.8-0.7,1.6-1.1,2.4c-1.4,2.9-3,5.7-4.8,8.4c0.7-0.1,1.3-0.2,2-0.3c-1.9-1.9-3.7-3.9-5.6-5.8c-0.5-0.6-1.1-1.1-1.6-1.7
			c-1.7-1.2-1.3-2.4,1-3.5c1.4,0.3,2.6,1.6,3.5,2.7C102.3,374.6,104.1,372.8,103.1,371.6L103.1,371.6z"/>
	</g>
</g>
<g>
	<g>
		<path fill="#FFFFFF" d="M68.8,474.7c-0.8-2.9-4.6-8.5-8.3-5.4c-1.7,1.5-1.7,3.3-1.1,5.3c1,3.5,2.6,7,3.9,10.4
			c0.3,0.7,1.1,1.2,1.8,0.7c3-2.1,5.9-4.4,8.7-6.8c1.4-1.2,4-3.7,2.6-5.8c-1.3-2-3.3-2.3-5.5-1.7c-1.6,0.4-4.8,2.4-5.1,4.1
			c-0.1,0.7,0.2,1.3,0.9,1.5c0.1,0,0.2,0.1,0.3,0.1c0.5,0.2,1.2-0.1,1.4-0.6c0-0.1,0.1-0.1,0.1-0.2c0.8-1.4-1.4-2.7-2.2-1.3
			c0,0.1-0.1,0.1-0.1,0.2c0.5-0.2,0.9-0.4,1.4-0.6c-0.1,0-0.2-0.1-0.3-0.1c0.3,0.5,0.6,1,0.9,1.5c0.1-0.8,2.1-1.7,2.8-2.1
			c2.3-1.2,3.1-0.6,2.4,1.8c-0.5,0.5-0.9,0.9-1.4,1.3c-2.6,2.3-5.4,4.4-8.2,6.4c0.6,0.2,1.2,0.5,1.8,0.7c-1.1-2.9-2.2-5.7-3.3-8.6
			c-0.2-0.6-0.5-1.2-0.7-1.8c-0.6-1.3,0.1-2.1,2-2.6c1.5,0.6,2.2,2.6,2.6,4C66.9,476.9,69.3,476.3,68.8,474.7L68.8,474.7z"/>
	</g>
</g>
</svg>
