<?xml version="1.0" encoding="utf-8"?>
<!-- Generator: Adobe Illustrator 18.0.0, SVG Export Plug-In . SVG Version: 6.00 Build 0)  -->
<!DOCTYPE svg PUBLIC "-//W3C//DTD SVG 1.1//EN" "http://www.w3.org/Graphics/SVG/1.1/DTD/svg11.dtd">
<svg version="1.1" id="Layer_1" xmlns="http://www.w3.org/2000/svg" xmlns:xlink="http://www.w3.org/1999/xlink" x="0px" y="0px"
	 viewBox="0 0 74 74" enable-background="new 0 0 74 74" xml:space="preserve">
<g>
	<g>
		<path fill="#FFFFFF" d="M37.3,34.2c-2.5-4.2-10.8-9-14.3-3.1c-1.7,2.9-0.3,6.1,1.5,8.6c2.9,3.9,6.3,7.5,9.4,11.2
			c0.6,0.8,2.2,0.8,2.8,0c3-3.7,5.7-7.6,8.1-11.7c1.5-2.5,4.8-7.1,3.5-10.3c-3.7-9-12.2,1.1-14.7,5.7c-1.2,2.3,2.2,4.3,3.5,2
			c1.1-2.1,2.4-3.9,4-5.6c1.2-2.1,2.3-2,3.3,0.1c-0.2,1.5-1.5,3.3-2.3,4.6c-2.4,4.3-5.2,8.4-8.3,12.2c0.9,0,1.9,0,2.8,0
			c-2.4-2.9-4.8-5.8-7.3-8.7c-1.1-1.4-2.4-2.7-3.1-4.3c1.4-2.5,3-3,4.8-1.6c1.1,0.7,2,1.6,2.6,2.8C35.2,38.4,38.6,36.4,37.3,34.2
			L37.3,34.2z"/>
	</g>
</g>
</svg>
