<?xml version="1.0" encoding="utf-8"?>
<!-- Generator: Adobe Illustrator 18.0.0, SVG Export Plug-In . SVG Version: 6.00 Build 0)  -->
<!DOCTYPE svg PUBLIC "-//W3C//DTD SVG 1.1//EN" "http://www.w3.org/Graphics/SVG/1.1/DTD/svg11.dtd">
<svg version="1.1" id="Layer_1" xmlns="http://www.w3.org/2000/svg" xmlns:xlink="http://www.w3.org/1999/xlink" x="0px" y="0px"
	 viewBox="0 0 106 124" enable-background="new 0 0 106 124" xml:space="preserve">
<g>
	<g>
		<path fill="#FFFFFF" d="M76.9,48c1.4-9-1.8-17.7-8.9-23.4c-8-6.4-19.7-5.9-28.7-2.3C21,29.4,13.5,52.6,26.8,67.8
			c1.9,2.2,5.2-1,3.2-3.2C19,51.8,25.8,34.1,39.6,27.1c7-3.5,16.1-3.9,23.2-0.4c7.2,3.6,10.9,12.4,9.7,20C72,49.6,76.5,50.9,76.9,48
			L76.9,48z"/>
	</g>
</g>
<g>
	<g>
		<path fill="#FFFFFF" d="M76.8,51.1c0.3-1.7,0.9-3,2-4.4c1-1.2,4.9-3.6,3.4-0.2c-0.8,1.9-2.2,3.7-3.5,5.3c-1,1.2-0.9,2.8,0.5,3.6
			c2.4,1.6,4.1,3.6,3.5,6.7c-0.6,3.4-4.4,3.3-6.1,1.3c-0.9-1.1-3-0.8-3.6,0.5c-1.7,3.7-4.8,8.9-9.5,5.6c-2.4-1.7-4.7,2.3-2.3,4
			c6.9,4.9,12.8-0.9,15.8-7.2c-1.2,0.2-2.4,0.3-3.6,0.5c3.2,3.8,9.5,3.9,12.4-0.4c3.7-5.5,0.9-11.5-4.2-14.8
			c0.2,1.2,0.3,2.4,0.5,3.6c2.1-2.5,8.2-10,4.3-13.3c-5.8-5-12.8,2.6-13.9,8.3C71.8,52.8,76.2,54,76.8,51.1L76.8,51.1z"/>
	</g>
</g>
<g>
	<g>
		<path fill="#FFFFFF" d="M31.3,64.4c-5.1-2.9-12.9-1-13.3,5.7c-0.3,5.6,6.5,9.1,10.7,5.2c2.2-2-1.1-5.3-3.2-3.2
			c-0.6,0.6-1.4,0.4-2.1,0.1c-0.9-0.5-0.9-1.5-0.7-2.4c0.7-2.8,4.3-2.5,6.2-1.4C31.6,69.8,33.9,65.8,31.3,64.4L31.3,64.4z"/>
	</g>
</g>
<g>
	<g>
		<path fill="#FFFFFF" d="M23.8,74.2c-0.7,6,1.8,11.3,7.7,13.1c6.2,1.9,11.9-3.4,14.8-8.1c-1.4-0.2-2.8-0.4-4.2-0.5
			c2.8,11.5,16.4,3.3,19.9-3.2c1.4-2.6-2.6-4.9-4-2.3c-1.2,2.3-9.7,11.5-11.5,4.3c-0.5-2-3.2-2.2-4.2-0.5c-2.1,3.4-4.6,5.9-8.8,6.1
			c-5,0.3-5.6-5.3-5.2-8.8C28.8,71.2,24.2,71.3,23.8,74.2L23.8,74.2z"/>
	</g>
</g>
<g>
	<g>
		<path fill="#FFFFFF" d="M36.3,70.9c7.7,4.8,16.1,1.4,22.9-3.3c2.4-1.7,0.1-5.7-2.3-4c-5.4,3.8-12,7.3-18.3,3.3
			C36.1,65.4,33.8,69.4,36.3,70.9L36.3,70.9z"/>
	</g>
</g>
<g>
	<g>
		<path fill="#FFFFFF" d="M36.8,85.4c4.9,5,10.1,9.6,15.7,13.8c3.1,2.4,6.5,4.6,9.8,6.7c2.3,1.4,4.9,3.3,7.7,3.3
			c6.4,0,7.4-7.5,8-12.3c1.2-9.2,2.4-18.3,3.5-27.5c0.4-2.9-4.2-2.9-4.6,0c-0.8,5.9-1.5,11.8-2.3,17.7c-0.4,3.3-0.8,6.6-1.3,9.8
			c-0.1,1.6-0.4,3.2-0.8,4.8c-1.1,5-4.5,2.2-6.5,1c-9.6-5.6-18.3-12.7-26-20.7C38,80.1,34.7,83.3,36.8,85.4L36.8,85.4z"/>
	</g>
</g>
<g>
	<g>
		<path fill="#FFFFFF" d="M62.5,73.7c-3.5,7-5.6,14.4-9.8,21.1c-1.1,1.7,1.6,3.2,2.6,1.5c4.3-6.8,6.3-14.1,9.8-21.1
			C66,73.5,63.4,71.9,62.5,73.7L62.5,73.7z"/>
	</g>
</g>
<g>
	<g>
		<path fill="#FFFFFF" d="M73.7,81.4c-3,7.3-6.8,14.2-11.4,20.6c-1.1,1.6,1.5,3.1,2.6,1.5c4.7-6.7,8.6-13.8,11.7-21.3
			C77.4,80.4,74.5,79.6,73.7,81.4L73.7,81.4z"/>
	</g>
</g>
<g>
	<g>
		<path fill="#FFFFFF" d="M50.5,82.9c7,4.3,14.3,8.2,21.7,11.7c1.8,0.8,3.3-1.8,1.5-2.6c-7.5-3.5-14.7-7.4-21.7-11.7
			C50.4,79.2,48.8,81.9,50.5,82.9L50.5,82.9z"/>
	</g>
</g>
<g>
	<g>
		<path fill="#FFFFFF" d="M62.1,75.8c4.1,2.6,8.4,4.7,13,6.2c1.9,0.6,2.7-2.3,0.8-3c-4.4-1.4-8.4-3.4-12.3-5.9
			C62,72.1,60.4,74.7,62.1,75.8L62.1,75.8z"/>
	</g>
</g>
</svg>
