<?xml version="1.0" encoding="utf-8"?>
<!-- Generator: Adobe Illustrator 18.0.0, SVG Export Plug-In . SVG Version: 6.00 Build 0)  -->
<!DOCTYPE svg PUBLIC "-//W3C//DTD SVG 1.1//EN" "http://www.w3.org/Graphics/SVG/1.1/DTD/svg11.dtd">
<svg version="1.1" id="Layer_1" xmlns="http://www.w3.org/2000/svg" xmlns:xlink="http://www.w3.org/1999/xlink" x="0px" y="0px"
	 viewBox="0 0 110 116" enable-background="new 0 0 110 116" xml:space="preserve">
<g>
	<g>
		<path fill="#FFFFFF" d="M33.7,77.1c-1.6-2.4-3.1-4.8-4.7-7.2c-3.4-5.3,0.4-9.1,3.2-13.3c3.7-5.7,7.4-11.4,11.2-17
			C51.1,28.4,63,16.9,77.8,20.1c3,0.7,5.8,2.5,7.7,5c3.1,4.1,0.5,9.4-1.4,13.3c-3,6.2-6.2,12.2-9.5,18.2c-3.3,6-6.7,12-10.2,17.9
			c-1,1.6-1.9,3.3-3,4.8c-1.1,1.5-4.4,1.1-6,1.1c-3.5,0-7,0-10.5-0.1c-3,0-3,4.6,0,4.6c6.2,0,16.1,2.3,20.5-3.3
			c5.6-7.2,9.7-16.2,14.1-24.2c6.2-11.4,21.4-33.3,2.2-40.7c-15.3-5.9-30.3,4.8-39.2,16.6C36.5,41,31.4,49.4,26,57.6
			c-1.6,2.5-5,6.3-3.6,9.7c1.8,4.3,4.8,8.1,7.3,12.1C31.3,81.8,35.3,79.5,33.7,77.1L33.7,77.1z"/>
	</g>
</g>
<g>
	<g>
		<path fill="#FFFFFF" d="M47.5,72.9c-5.1-0.7-11.5-3.2-15.1,1.6c-4.1,5.5-11.9,12.4-11.2,19.9c0.1,1.1,0.6,1.8,1.7,2.2
			c13.4,5.2,18.7-11.8,26-18.9c2.1-2.1-1.1-5.3-3.2-3.2c-6,5.7-11,21.7-21.5,17.7c0.6,0.7,1.1,1.5,1.7,2.2
			c-0.4-4.5,3.6-8.3,6.2-11.7c1.8-2.4,4-6.7,7.7-6.2c2.2,0.3,4.4,0.6,6.6,0.9C49.2,77.7,50.4,73.3,47.5,72.9L47.5,72.9z"/>
	</g>
</g>
<g>
	<g>
		<path fill="#FFFFFF" d="M32.9,69.6c8.2-0.7,16.3-0.8,24.5-0.1c3,0.3,2.9-4.3,0-4.6c-8.2-0.7-16.3-0.7-24.5,0.1
			C30,65.3,30,69.9,32.9,69.6L32.9,69.6z"/>
	</g>
</g>
<g>
	<g>
		<path fill="#FFFFFF" d="M56,73.6c0,0.5,0,1.1,0,1.6c0,1.3,1,2.3,2.3,2.3c1.3,0,2.3-1,2.3-2.3c0-0.5,0-1.1,0-1.6
			c0-1.3-1-2.3-2.3-2.3C57,71.3,56,72.3,56,73.6L56,73.6z"/>
	</g>
</g>
<g>
	<g>
		<path fill="#FFFFFF" d="M57.6,59.7c0,0.1-0.1,0.2-0.1,0.3c-0.2,0.7,0.1,1.4,0.7,1.7c5.2,3,10.4-8.9,12.1-11.8
			c2.4-4.1,4.6-8.3,6.8-12.5c1.9-3.8,4.2-7.6,3.9-12c-0.2-2-3.2-2-3.1,0c0.5,5.9-4.8,13.2-7.6,18.3c-0.9,1.7-8.7,16.4-10.6,15.4
			c0.2,0.6,0.5,1.2,0.7,1.7c0-0.1,0.1-0.2,0.1-0.3C61.1,58.6,58.1,57.8,57.6,59.7L57.6,59.7z"/>
	</g>
</g>
</svg>
