<?xml version="1.0" encoding="utf-8"?>
<!-- Generator: Adobe Illustrator 18.0.0, SVG Export Plug-In . SVG Version: 6.00 Build 0)  -->
<!DOCTYPE svg PUBLIC "-//W3C//DTD SVG 1.1//EN" "http://www.w3.org/Graphics/SVG/1.1/DTD/svg11.dtd">
<svg version="1.1" id="Layer_1" xmlns="http://www.w3.org/2000/svg" xmlns:xlink="http://www.w3.org/1999/xlink" x="0px" y="0px"
	 viewBox="0 0 95 118" enable-background="new 0 0 95 118" xml:space="preserve">
<g>
	<g>
		<path fill="#FFFFFF" d="M56.7,54.8c6.2-11.4,12.4-22.8,18.6-34.1c0.8-1.6-0.2-3.4-2-3.5C61.7,16.9,50,16.9,38.5,18
			c-3.4,0.3-5.5,2.2-6.8,5.3c-2.2,5.2-3.5,11-5.1,16.4c-1.6,5.5-3.2,11-4.7,16.6c-0.9,3.1-1.7,6.2-2.5,9.3c-0.4,1.3-1.3,3.9-0.7,5.3
			c1.1,2.8,3,3.6,5.9,3.6c6.1,0,12.3-0.6,18.3-0.9c2.9-0.1,3-4.7,0-4.6c-3.7,0.2-7.3,0.4-11,0.5c-1.8,0.1-3.7,0.2-5.5,0.3
			c-4,0.2-2.9-2-2.1-4.9c2.1-8,4.4-16,6.7-24c1.1-3.7,2.2-7.3,3.3-11c0.6-1.8,1.1-3.8,1.8-5.5c1.1-2.6,7.4-2.2,9.7-2.3
			c9.1-0.5,18.3-0.5,27.4-0.3c-0.7-1.2-1.3-2.3-2-3.5c-6.2,11.4-12.4,22.8-18.6,34.1C51.3,55.1,55.3,57.4,56.7,54.8L56.7,54.8z"/>
	</g>
</g>
<g>
	<g>
		<path fill="#FFFFFF" d="M40.1,71.8C37.6,78,35,84.1,32.5,90.2c-1.4,3.4-2.2,6.2,1.1,8.6c2.8,2,7.9-1.3,10.1-2.8
			c4.7-3.3,8.5-8.2,12.4-12.3c4.3-4.6,8.6-9.2,12.7-13.9c3.3-3.7,7.4-7.5,9.3-12.2c3.5-8.8-20.4-5.5-23.4-5.4c-3,0.1-3,4.7,0,4.6
			c3.8-0.1,7.6-0.2,11.3-0.2c1.9,0,3.8-0.1,5.7-0.1c2.5-0.1-2.4,5.8-2.5,5.9C64.5,68,59.3,73.5,54.2,79c-4.7,5-9.3,11-15.3,14.6
			c-5.4,3.2-0.4-5.9,0.3-7.7c1.8-4.3,3.6-8.6,5.3-12.9C45.7,70.3,41.2,69.1,40.1,71.8L40.1,71.8z"/>
	</g>
</g>
<g>
	<g>
		<path fill="#FFFFFF" d="M56.6,29.3c-2.9,5.3-5.5,10.8-7.7,16.5c-0.7,1.8,2.2,2.6,3,0.8c2.1-5.4,4.6-10.7,7.4-15.8
			C60.2,29.1,57.6,27.5,56.6,29.3L56.6,29.3z"/>
	</g>
</g>
<g>
	<g>
		<path fill="#FFFFFF" d="M60.8,63c-5.2,5.4-10,11.1-14.6,16.9c-1.2,1.5,1,3.7,2.2,2.2C53,76.2,57.8,70.5,63,65.1
			C64.3,63.7,62.2,61.5,60.8,63L60.8,63z"/>
	</g>
</g>
</svg>
