<?xml version="1.0" encoding="utf-8"?>
<!-- Generator: Adobe Illustrator 18.0.0, SVG Export Plug-In . SVG Version: 6.00 Build 0)  -->
<!DOCTYPE svg PUBLIC "-//W3C//DTD SVG 1.1//EN" "http://www.w3.org/Graphics/SVG/1.1/DTD/svg11.dtd">
<svg version="1.1" id="Layer_1" xmlns="http://www.w3.org/2000/svg" xmlns:xlink="http://www.w3.org/1999/xlink" x="0px" y="0px"
	 viewBox="0 0 97.5 147" enable-background="new 0 0 97.5 147" xml:space="preserve">
<g>
	<g>
		<path fill="#FFFFFF" d="M56.5,18c-7.6,1.1-15.2,2.3-22.7,3.6c-5,0.9-10.8,0.4-11.5,6.4c-0.9,8.6-1.2,17.2-2.4,25.8
			C18.9,62,17.3,70,15.4,78c-0.3,1.3,0.9,2.8,2.3,2.3c8.4-2.7,17-4.6,25.8-5.5c2.4-0.2,2.4-4,0-3.8c-9.1,0.9-18.1,2.8-26.8,5.6
			c0.8,0.8,1.5,1.5,2.3,2.3c3.1-13,5.2-26.3,6.4-39.6c0.3-3.1,0.5-6.3,0.6-9.4c0.2-4.5,5.1-4,8.8-4.7c7.6-1.4,15.1-2.6,22.7-3.6
			C59.9,21.3,58.9,17.7,56.5,18L56.5,18z"/>
	</g>
</g>
<g>
	<g>
		<path fill="#FFFFFF" d="M54,21.1c-3.9,12.1-6.5,24.5-7.9,37.1c-0.1,1.1,1.3,2.2,2.4,1.8c4.7-1.9,9.5-3.5,14.5-4.8
			c2.3-0.6,1.3-4.2-1-3.6c-4.9,1.3-9.7,2.9-14.5,4.8c0.8,0.6,1.6,1.2,2.4,1.8c1.4-12.3,4-24.3,7.8-36.1C58.3,19.8,54.7,18.8,54,21.1
			L54,21.1z"/>
	</g>
</g>
<g>
	<g>
		<path fill="#FFFFFF" d="M41.4,72.6c-1,7.3-2,14.5-3,21.8c-0.2,1.3,0.8,2.9,2.3,2.3c5.7-2.1,11.6-3.8,17.5-5.1
			c2.4-0.5,1.4-4.1-1-3.6c-6,1.3-11.8,3-17.5,5.1c0.8,0.8,1.5,1.5,2.3,2.3c1-7.3,2-14.5,3-21.8C45.3,71.2,41.7,70.2,41.4,72.6
			L41.4,72.6z"/>
	</g>
</g>
<g>
	<g>
		<path fill="#FFFFFF" d="M59.6,52.8c-3.5,9.3-6.5,18.8-9.2,28.3c-0.5,1.7,1.3,2.8,2.8,2.1c6.7-3,13.6-5.1,20.8-6.4
			c2.4-0.4,1.4-4-1-3.6c-7.5,1.3-14.7,3.6-21.7,6.7c0.9,0.7,1.8,1.4,2.8,2.1c2.7-9.6,5.7-19,9.2-28.3C64.1,51.5,60.4,50.5,59.6,52.8
			L59.6,52.8z"/>
	</g>
</g>
<g>
	<g>
		<path fill="#FFFFFF" d="M54.5,90.5c-1.7,9.2-3.2,18.4-2.6,27.8c0.1,1.7,2.6,2.7,3.5,0.9c4.2-8.2,8.5-16.4,12.9-24.6
			c2.2-4.1,4.4-8.1,6.6-12.2c1.7-3.2,3.8-5,2.2-8.4c-0.3-0.8-1.4-1-2.1-0.9c-0.5,0.1-1,0.2-1.5,0.4c-2.4,0.6-1.4,4.2,1,3.6
			c0.5-0.1,1-0.2,1.5-0.4c-0.7-0.3-1.4-0.6-2.1-0.9c0.7,1.5-4.2,8.4-5.1,9.9c-1.9,3.5-3.7,7-5.6,10.5c-3.7,7-7.4,14-11,21.1
			c1.2,0.3,2.3,0.6,3.5,0.9c-0.6-9.1,0.8-17.9,2.4-26.8C58.6,89.1,55,88.1,54.5,90.5L54.5,90.5z"/>
	</g>
</g>
<g>
	<g>
		<path fill="#FFFFFF" d="M57.2,21.6c0-0.1,0-0.3,0-0.4c-0.3,0.4-0.6,0.8-0.9,1.2c-0.2-0.1-0.4-0.1-0.6-0.2c0.2,0.8,0.4,1.6,0.6,2.5
			c0.4,1.6,0.7,3.3,1.1,4.9c0.7,2.9,1.3,5.7,2,8.6c0.4,1.6,2.8,0.9,2.4-0.7c-0.7-3.3-1.5-6.6-2.2-9.8c-0.5-2.3-0.5-5.8-2.2-7.5
			c-0.3-0.3-0.8-0.4-1.2-0.3c-0.2,0-0.3,0.1-0.5,0.1c-0.6,0.1-0.9,0.7-0.9,1.2c0,0.1,0,0.3,0,0.4C54.5,23.2,57,23.2,57.2,21.6
			L57.2,21.6z"/>
	</g>
</g>
<g>
	<g>
		<path fill="#FFFFFF" d="M59.9,36.9c-3.2,6.1-5.9,12.3-8,18.8c-0.5,1.5,1.9,2.2,2.4,0.7c2.1-6.3,4.7-12.4,7.8-18.2
			C62.8,36.7,60.7,35.5,59.9,36.9L59.9,36.9z"/>
	</g>
</g>
<g>
	<g>
		<path fill="#FFFFFF" d="M61.5,53.4c1.6,3.8,2.6,7.8,3.3,11.9c0.3,1.6,2.7,0.9,2.4-0.7c-0.6-4.1-1.7-8-3.3-11.9
			C63.3,51.3,60.9,52,61.5,53.4L61.5,53.4z"/>
	</g>
</g>
<g>
	<g>
		<path fill="#FFFFFF" d="M64.8,64.7c-1.7,4.3-3.3,8.7-5,13c-0.6,1.5,1.8,2.2,2.4,0.7c1.7-4.3,3.3-8.7,5-13
			C67.8,63.8,65.3,63.2,64.8,64.7L64.8,64.7z"/>
	</g>
</g>
<g>
	<g>
		<path fill="#FFFFFF" d="M74.7,75.8c1.7,5.8,2.7,11.6,3,17.7c0.1,1.6,2.6,1.6,2.5,0c-0.3-6.2-1.3-12.3-3.1-18.3
			C76.7,73.6,74.3,74.3,74.7,75.8L74.7,75.8z"/>
	</g>
</g>
<g>
	<g>
		<path fill="#FFFFFF" d="M52.3,119c1.1,3.9,2.8,7.4,5.1,10.7c0.9,1.3,3.1,0,2.2-1.3c-2.2-3.1-3.9-6.4-4.9-10.1
			C54.3,116.7,51.9,117.4,52.3,119L52.3,119z"/>
	</g>
</g>
<g>
	<g>
		<path fill="#FFFFFF" d="M58.9,129.9c8.2-11.8,18.7-23.8,22.2-38.1c0.4-1.6-2-2.2-2.4-0.7c-3.4,14-13.9,25.9-22,37.5
			C55.9,129.9,58,131.2,58.9,129.9L58.9,129.9z"/>
	</g>
</g>
<g>
	<g>
		<path fill="#FFFFFF" d="M40.4,95.8c0-0.1,0-0.1,0-0.2c-0.2,0.5-0.4,0.9-0.6,1.4c-0.2,0.1-0.4,0.2-0.6,0.2c0.2,0.3,0.4,0.7,0.6,1
			c0.4,0.7,0.9,1.3,1.3,2c0.9,1.3,1.7,2.7,2.6,4c0.9,1.4,3,0.1,2.2-1.3c-1.3-2-2.6-4-3.8-6c-0.7-1.2-1.8-3.1-3.5-2.1
			c-0.5,0.3-0.7,0.9-0.6,1.4c0,0.1,0,0.1,0,0.2C38.5,97.9,40.9,97.3,40.4,95.8L40.4,95.8z"/>
	</g>
</g>
<g>
	<g>
		<path fill="#FFFFFF" d="M45,105.6c3.4-1.4,6.8-2.8,10.2-4.2c1.5-0.6,0.8-3-0.7-2.4c-3.4,1.4-6.8,2.8-10.2,4.2
			C42.8,103.8,43.5,106.2,45,105.6L45,105.6z"/>
	</g>
</g>
<g>
	<g>
		<path fill="#FFFFFF" d="M16.2,77.2c-3.1,6.3,3.2,10.5,6.8,14.7c1,1.2,2.8-0.5,1.8-1.8c-2.6-3.1-8.7-7-6.4-11.7
			C19.1,77,16.9,75.7,16.2,77.2L16.2,77.2z"/>
	</g>
</g>
<g>
	<g>
		<path fill="#FFFFFF" d="M23.4,89.8c-0.1,0-0.2,0-0.3,0c-0.5,0-1.1,0.4-1.2,0.9c0,0.1,0,0.2,0,0.3c-0.1,0.7,0.2,1.3,0.9,1.5
			c1.9,0.7,5.1-1.1,6.9-1.6c4.1-1.3,8.2-2.5,12.3-3.8c1.5-0.5,0.9-2.9-0.7-2.4c-3.2,1-6.4,2-9.6,3c-1.4,0.4-2.7,0.8-4.1,1.3
			c-0.8,0.2-3.5,1.5-4.2,1.2c0.3,0.5,0.6,1,0.9,1.5c0-0.1,0-0.2,0-0.3c-0.4,0.3-0.8,0.6-1.2,0.9c0.1,0,0.2,0,0.3,0
			C25,92.3,25,89.8,23.4,89.8L23.4,89.8z"/>
	</g>
</g>
<g>
	<g>
		<path fill="#FFFFFF" d="M57.6,109.4c1.2,3.8,2.4,7.6,3.7,11.5c0.5,1.5,2.9,0.9,2.4-0.7c-1.2-3.8-2.4-7.6-3.7-11.5
			C59.5,107.2,57.1,107.9,57.6,109.4L57.6,109.4z"/>
	</g>
</g>
<g>
	<g>
		<path fill="#FFFFFF" d="M64.2,100.7c1.5,3.7,3.1,7.4,4.6,11.2c0.6,1.5,3,0.8,2.4-0.7c-1.5-3.7-3.1-7.4-4.6-11.2
			C66,98.6,63.5,99.2,64.2,100.7L64.2,100.7z"/>
	</g>
</g>
<g>
	<g>
		<path fill="#FFFFFF" d="M69.3,91.2c1,1.9,1.9,3.8,2.7,5.7c0.3,0.7,2,4.1,1.6,4.8c0.6-0.1,1.1-0.3,1.7-0.4c-0.1,0-0.2-0.1-0.2-0.1
			c0.2,0.4,0.4,0.7,0.6,1.1c0-0.1,0-0.2,0-0.3c-0.4,0.4-0.8,0.8-1.2,1.2c0.1,0,0.1,0,0.2,0c1.6-0.2,1.6-2.7,0-2.5
			c-0.1,0-0.1,0-0.2,0c-0.6,0.1-1.3,0.5-1.2,1.2c0,0.1,0,0.2,0,0.3c0,0.4,0.2,0.9,0.6,1.1c0.1,0,0.2,0.1,0.2,0.1
			c0.6,0.3,1.3,0.2,1.7-0.4c1.1-1.8-0.4-4.2-1.1-5.9c-0.9-2.4-2-4.8-3.2-7.1C70.8,88.5,68.6,89.8,69.3,91.2L69.3,91.2z"/>
	</g>
</g>
<g>
	<g>
		<path fill="#FFFFFF" d="M45.9,95.6c1.1,2,2.2,4.1,3.3,6.1c0.8,1.4,2.9,0.2,2.2-1.3c-1.1-2-2.2-4.1-3.3-6.1
			C47.3,93,45.2,94.2,45.9,95.6L45.9,95.6z"/>
	</g>
</g>
<g>
	<g>
		<path fill="#FFFFFF" d="M23,78.1c2.8,3.8,5.6,7.7,8.5,11.5c0.9,1.3,3.1,0,2.2-1.3c-2.8-3.8-5.6-7.7-8.5-11.5
			C24.2,75.5,22,76.8,23,78.1L23,78.1z"/>
	</g>
</g>
<g>
	<g>
		<path fill="#FFFFFF" d="M33.2,75.2c1.7,3.5,3.4,7,5,10.5c0.7,1.5,2.9,0.2,2.2-1.3c-1.7-3.5-3.4-7-5-10.5
			C34.7,72.5,32.5,73.8,33.2,75.2L33.2,75.2z"/>
	</g>
</g>
<g>
	<g>
		<path fill="#FFFFFF" d="M54.2,68.9c1.1,2.8,2.5,5.3,4.3,7.7c1,1.3,3.1,0,2.2-1.3c-1.7-2.2-3.1-4.5-4.1-7.1
			C56,66.7,53.6,67.4,54.2,68.9L54.2,68.9z"/>
	</g>
</g>
<g>
	<g>
		<path fill="#FFFFFF" d="M59,62.4c0.5,2.9,1.6,5.6,3,8.2c0.8,1.4,2.9,0.1,2.2-1.3c-1.3-2.4-2.2-4.9-2.7-7.6
			C61.1,60.1,58.7,60.8,59,62.4L59,62.4z"/>
	</g>
</g>
<g>
	<g>
		<path fill="#FFFFFF" d="M49.6,45.5c1.1,2,2.2,4.1,3.3,6.1c0.8,1.4,2.9,0.2,2.2-1.3c-1.1-2-2.2-4.1-3.3-6.1
			C51,42.9,48.8,44.1,49.6,45.5L49.6,45.5z"/>
	</g>
</g>
<g>
	<g>
		<path fill="#FFFFFF" d="M52.7,34.8c0.8,3.7,2.2,7.1,4.2,10.3c0.9,1.4,3,0.1,2.2-1.3c-1.9-3-3.2-6.2-4-9.7
			C54.8,32.6,52.4,33.3,52.7,34.8L52.7,34.8z"/>
	</g>
</g>
</svg>
