<?xml version="1.0" encoding="utf-8"?>
<!-- Generator: Adobe Illustrator 18.0.0, SVG Export Plug-In . SVG Version: 6.00 Build 0)  -->
<!DOCTYPE svg PUBLIC "-//W3C//DTD SVG 1.1//EN" "http://www.w3.org/Graphics/SVG/1.1/DTD/svg11.dtd">
<svg version="1.1" id="Layer_1" xmlns="http://www.w3.org/2000/svg" xmlns:xlink="http://www.w3.org/1999/xlink" x="0px" y="0px"
	 viewBox="0 0 150 140" enable-background="new 0 0 150 140" xml:space="preserve">
<g>
	<g>
		<path fill="#FFFFFF" d="M36.3,88.9c0,0.6,0.1,1.1,0.4,1.7c0.3,0.5,1,1,1.6,0.9c0.1,0,0.2,0,0.2,0c0.9-0.1,2-0.8,1.8-1.8
			c-0.7-5.2-6.6-12.8-12.4-8.5c-5.8,4.3-2,13.2,2.9,16.3c2,1.3,3.9-1.9,1.9-3.2c-2.9-1.8-4.5-5.2-3.6-8.5c0.7-2.7,3.2-2.2,4.9-0.8
			c1.5,1.1,2.4,2.9,2.6,4.8c0.6-0.6,1.2-1.2,1.8-1.8c-0.1,0-0.2,0-0.2,0c0.5,0.3,1.1,0.6,1.6,0.9c0,0.1,0.1,0.1,0.1,0.2
			C40,86.6,36.3,86.6,36.3,88.9L36.3,88.9z"/>
	</g>
</g>
<g>
	<g>
		<path fill="#FFFFFF" d="M29.1,97.4c-1.5,4.7-4.7,18.4,2.5,20.7c8.8,2.8,19.8-4.7,27.5-8.1c2.2-1,0.3-4.2-1.9-3.2
			c-5.8,2.6-11.5,5.5-17.5,7.5c-11.2,3.6-9.1-9.5-7.1-15.8C33.4,96.1,29.8,95.1,29.1,97.4L29.1,97.4z"/>
	</g>
</g>
<g>
	<g>
		<path fill="#FFFFFF" d="M58.4,109.9c13.1-3.9,25.5-11.3,33.3-22.7c7.1-10.4,7-24.2-1.6-33.5c-8.4-9.1-21.6-8.7-31.6-2.8
			c-12.6,7.4-17.9,22.2-22.6,35.2c-0.8,2.3,2.8,3.2,3.6,1c3.8-10.7,7.8-21.6,16.3-29.6c8.6-8.1,21.3-10.1,30.7-2.2
			c9.7,8.2,7.6,21.9,1.2,31.3c-6.8,9.9-18.9,16.3-30.1,19.6C55.2,107,56.2,110.6,58.4,109.9L58.4,109.9z"/>
	</g>
</g>
<g>
	<g>
		<path fill="#FFFFFF" d="M56.2,103.2c5.5,0.6,13-4.7,9.5-10.7c-1.3-2.2-4.3-3.4-6.8-3c-3.2,0.5-5.5,2.7-7.1,5.4
			c-1.2,2.1,2,3.9,3.2,1.9c1.5-2.6,4.7-5.2,7.4-2.5c1.4,1.4-0.3,3.4-1.5,4.2c-1.4,1-3,1.2-4.7,1C53.9,99.2,53.9,102.9,56.2,103.2
			L56.2,103.2z"/>
	</g>
</g>
<g>
	<g>
		<path fill="#FFFFFF" d="M45.9,108.9c2.4,0,2.4-3.7,0-3.7S43.5,108.9,45.9,108.9L45.9,108.9z"/>
	</g>
</g>
<g>
	<g>
		<path fill="#FFFFFF" d="M30.2,106c0.3,0.2,0.7,0.3,1,0.5c0.9,0.4,2,0.3,2.5-0.7c0.5-0.8,0.2-2.1-0.7-2.5c-0.3-0.2-0.7-0.3-1-0.5
			c-0.9-0.4-2-0.3-2.5,0.7C29.1,104.3,29.3,105.6,30.2,106L30.2,106z"/>
	</g>
</g>
<g>
	<g>
		<path fill="#FFFFFF" d="M96,62.7c-1.1-10.4,14.8-16.2,21.8-21.2c6.1-4.4,10.6-10.5,11.4-18.1c0.2-2.4-3.5-2.3-3.7,0
			c-1.2,11.3-12.4,16.8-20.9,22.1c-6,3.8-13.2,9.1-12.3,17.1C92.6,65.1,96.3,65.1,96,62.7L96,62.7z"/>
	</g>
</g>
</svg>
