<?xml version="1.0" encoding="utf-8"?>
<!-- Generator: Adobe Illustrator 18.0.0, SVG Export Plug-In . SVG Version: 6.00 Build 0)  -->
<!DOCTYPE svg PUBLIC "-//W3C//DTD SVG 1.1//EN" "http://www.w3.org/Graphics/SVG/1.1/DTD/svg11.dtd">
<svg version="1.1" id="Layer_1" xmlns="http://www.w3.org/2000/svg" xmlns:xlink="http://www.w3.org/1999/xlink" x="0px" y="0px"
	 viewBox="0 194 612 409" enable-background="new 0 194 612 409" xml:space="preserve">
<g>
	<g>
		<path fill="#E91E5A" d="M449.8,274.9c-6.4-4-13.2-7.4-20.6-9.8c-5.4-2-26.3-1.3-29.3-5.4c-3-4-8.1-4-10.8,0c-1.7,2-3,4.4-4.7,6.4
			c3.7,2,7.4,4.4,10.8,6.4c7.8-17.9-19.2-21.9-17.9-4.7c4-0.7,8.4-1,12.5-1.7c-2-5.7-2-6.4-6.7-10.5c-3-2.7-7.8-2.4-9.8,1.3
			c-2,3-3.7,6.1-5.7,9.1c4,1,7.8,2,11.8,3c0-5.4-1.3-8.8-5.4-12.5c-3.4-2.7-7.4-2.4-9.8,1.3c-2.4,3.7-3,5.4-4.7,9.4
			c3.4-1,7.1-2,10.5-2.7c-2-2.4-3.7-4.4-5.7-6.7c-2.7-3-8.1-2-9.8,1.3c-3,5.4-3.4,5.7-4.4,11.8c4,0,8.1,0,12.1,0
			c-5.1-16.2-25.6-17.2-27.3,1c4,0,8.4,0,12.8,0c-0.7-13.8-17.5-18.9-23.6-5.4c3-0.7,5.7-1.3,8.8-2.4c-7.1-4.4-15.8-1.3-17.2,7.4
			c-1,5.7,4,9.4,9.4,7.1c8.1-3.4,14.5-2.7,22.3,0.3c0.7-4,1-8.4,1.7-12.5c-26.6-2-51.6,3.4-75.2,15.8c3,2.4,6.1,4.7,9.4,7.1
			c2.7-7.8,31.4-14.5,38.8-17.5c5.7-2.4,6.1-10.1,0-12.1s-6.1-2-12.1-1.7c-5.7,0.3-9.1,8.8-3,11.8c1.3,0.7,3,1.3,4.4,2.4
			c7.4,3.7,13.8-7.4,6.4-10.8c-1.3-0.7-3-1.3-4.4-2.4c-1,4-2,7.8-3,11.8c3,0.3,6.1,1,8.8,1.3c0-4,0-8.1,0-12.1
			c-14.5,5.7-41.5,9.8-47.5,26.3c-2,5.4,4.7,9.4,9.4,7.1c21.6-11.5,44.2-15.8,68.8-14.2c7.8,0.7,7.8-9.8,1.7-12.5
			c-11.1-4.7-20.9-3.7-32,0.7c3,2.4,6.1,4.7,9.4,7.1c-0.3,0-1,0-1.3,0c2.7,1.7,7.1,1,8.8-2.4c0-0.3,0-0.7,0-1
			c0.3,8.1,11.8,8.1,12.8,0c0.7,0.7,1.7,1.3,2.4,2.4c1.7,5.4,10.8,6.4,12.1,0c1-3,2-5.7,3.4-8.8c-3.4,0.3-6.7,1-9.8,1.3
			c2,2.4,3.7,4.4,5.7,6.7c3.4,4,9.1,1.3,10.5-2.7c1-2,2.4-4.4,3.4-6.4c-3.4,0.3-6.7,1-9.8,1.3c0.7,1,1,2.4,1.7,3.4
			c0,6.4,8.4,8.4,11.8,3c2-3,3.7-6.1,5.7-9.1c-3.4,0.3-6.7,1-9.8,1.3c1.3,1.7,2.4,3.4,3.7,4.7c2,6.4,13.2,5.7,12.5-1.7
			c-2-0.7-3.7-1.3-5.7-1.7c-3.4,7.4,6.1,13.2,10.8,6.4c1.7-2,3-4.4,4.7-6.4c-3.7,0-7.4,0-10.8,0c3.7,5.1,7.4,7.4,13.8,7.8
			c14.8,0.7,27.6,3.7,40.5,11.8C450.5,290.1,456.9,279.3,449.8,274.9L449.8,274.9z"/>
	</g>
</g>
<g>
	<g>
		<path fill="#E91E5A" d="M288.6,255.4c-14.8,3-30.7-11.5-22.9-26.3c3.7-7.8,16.9-12.8,23.9-8.8c7.4,4,14.5,12.5,12.8,21.2
			c-0.7,4-4.4,8.4-6.7,11.8c-3.7,5.1,2,4.4,1,2.4c-2.4-5.1-6.4-6.4-11.8-7.4c-8.4-2-17.9-11.5-7.4-18.5c9.8-6.4,21.6,13.2,10.8,16.2
			c2.7,2,5.4,4,8.1,6.1c0.3-8.1-1.7-14.8-5.7-21.9c-2.4-3.7-8.8-4.4-10.8,0c-3.4,6.7-2.4,13.2,2.7,18.9c3.4,3.7,9.1,1.3,10.5-2.7
			c3.7-10.1-2.7-29-16.9-23.6c-11.8,4.4-13.5,21.9,0.7,24.3c12.1,2,12.5-19.2,1-18.9c-15.5,0.7-14.5,19.9,1,20.2
			c8.1,0,8.1-12.5,0-12.8c-1.7,0.3-3,0.7-4.7,0.7c2-0.7,4-1,6.1-1.7c2,2.7,2.4,5.4,0.7,8.1c3.4-1,7.1-2,10.5-2.7
			c-0.3-1-0.3-2.4-0.7-3.4c-3.7,0-7.4,0-10.8,0c3,5.1,4,9.8,4,15.5c0,4,4,7.1,8.1,6.1c31.7-8.4,0.3-59.7-24.3-36.8
			c-11.8,11.5-8.1,26.3,4.7,35.1c2.7,2,6.1,3,9.4,4c4,1.3,4.4,3.7,7.1,6.7c5.1,5.4,12.5-1,15.5-4.7c10.5-12.8,15.5-29,3.4-42.5
			c-12.5-13.5-26.3-17.2-42.5-7.1c-31.7,19.6-5.7,62.4,26.3,55.6C300.1,266.2,296.4,253.7,288.6,255.4L288.6,255.4z"/>
	</g>
</g>
<g>
	<g>
		<path fill="#E91E5A" d="M449.5,256.1c-10.8-3-8.8-24.3-3.4-30.7c7.4-8.8,20.2-6.1,26,2.7c7.1,10.8-3,23.3-11.8,29.3
			c-7.8,5.4-13.5-25.6-7.4-30.7c-2,0.7-4,1-6.1,1.7c-2.4-0.3-1.7,1.3-2,4c-0.3,3.4-0.7,6.7-0.7,10.1c0,6.1,1.3,12.1,3.4,17.9
			c1,3,4.4,5.7,7.8,4.4c1.3-0.3,2.7-1,4-1.3c3-1,4.4-3,4.7-6.1c0.7-8.4-7.1-26.3,1-32c-3-2.4-6.1-4.7-9.4-7.1
			c-2,12.1-3.7,24.3-2.7,36.8c0.3,3.4,2.7,6.7,6.4,6.4c17.9-1.3,12.5-22.3,11.1-34.4c-1.7,2-3,4-4.7,6.1c0.7,0,1.3,0,2,0
			c-1.7-2-3-4-4.7-6.1c-1,8.1-2,16.5-3,24.6s11.8,8.1,12.8,0s2-16.5,3-24.6c0.3-2.7-2.4-5.4-4.7-6.1c-3.7-1-5.1-1-8.8,0
			c-2.4,0.7-5.1,3.4-4.7,6.1c0.3,1.7,2.7,21.6,1.7,21.9c2,2,4,4,6.4,6.4c-1-11.5,0.3-22.3,2.4-33.4c0.7-4.7-4.4-10.8-9.4-7.1
			c-15.8,11.1-5.7,27.3-7.1,42.8c1.7-2,3-4,4.7-6.1c-1.3,0.3-2.7,1-4,1.3c2.7,1.3,5.1,3,7.8,4.4c-2.7-8.8-3.4-17.2-1.7-26.3
			c1-5.1,1-10.8-4-13.8c-12.5-7.4-15.5,12.5-16.2,19.9c-0.7,9.8,3,29.3,14.2,33c12.8,4,23.3-7.4,29.7-16.9
			c16.2-23.3-7.4-52.6-33.4-44.2c-22.9,7.8-28,52.3-2.4,59C453.9,270.2,457.2,258.1,449.5,256.1L449.5,256.1z"/>
	</g>
</g>
<g>
	<g>
		<path fill="#E91E5A" d="M279.2,293.2c-32.7-17.5-66.4,20.9-98.8,1.7c-5.7-3.4-11.5,3-8.8,8.8c8.8,17.5,16.5,36.1,29,51.3
			c12.5,14.5,33,14.5,50.2,13.5c8.1-0.3,8.1-13.2,0-12.8c-18.9,1-34.7,0.3-46.5-16.5c-8.8-12.5-14.8-28-21.9-41.8
			c-3,3-5.7,5.7-8.8,8.8c12.8,7.8,25.6,8.1,40.1,6.1c18.5-2.7,40.5-17.5,58.7-7.8C279.9,307.7,286.3,296.9,279.2,293.2L279.2,293.2z
			"/>
	</g>
</g>
<g>
	<g>
		<path fill="#E91E5A" d="M463.6,296.5c16.2-7.1,34.7,3.4,50.9,6.1c12.5,2,25-0.3,36.8-4.7c-2.4-3-4.7-6.1-7.1-9.4
			c-16.5,22.3-25.3,67.1-60,66.1c-8.1-0.3-8.1,12.5,0,12.8c41.8,1.3,50.9-45.5,71.1-72.2c3.4-4.4-2-11.1-7.1-9.4
			c-19.9,7.1-36.8,3.7-56.3-1.7c-12.1-3.4-22.9-3.4-34.4,1.7C449.8,289.1,456.2,299.9,463.6,296.5L463.6,296.5z"/>
	</g>
</g>
<g>
	<g>
		<path fill="#E91E5A" d="M227.6,358.6c-35.4,31-75.9,65.1-92.4,110.6C121,508,128.5,552.8,151,586.9c4.4,6.7,15.5,0.3,10.8-6.4
			c-22.3-33.7-26.6-74.5-12.8-112.6c14.8-40.5,56-72.8,87.7-100.1C242.8,362.3,234,353.2,227.6,358.6L227.6,358.6z"/>
	</g>
</g>
<g>
	<g>
		<path fill="#E91E5A" d="M469.7,340c11.5,46.9,12.8,96.4-15.8,137.2c-4.7,6.7,6.4,13.2,10.8,6.4c30.3-43.8,29.3-97.1,17.2-147
			C479.8,328.6,467.7,331.9,469.7,340L469.7,340z"/>
	</g>
</g>
<g>
	<g>
		<path fill="#E91E5A" d="M452.8,485.4c-4,34.1-17.2,65.4-37.1,93.4c-4.7,6.7,6.1,12.8,10.8,6.4c21.6-29.7,34.4-63.4,39.1-99.5
			C466.3,477.3,453.9,477.6,452.8,485.4L452.8,485.4z"/>
	</g>
</g>
<g>
	<g>
		<path fill="#E91E5A" d="M158.1,594.9c8.1,2.7,26.6,6.4,30-5.4c4.4-15.5,3-32-0.7-47.5c-2-7.8-14.2-4.4-12.1,3.4
			c2,8.8,3,17.2,2.7,26.3c0,3,0.7,12.5-3,12.8c-4.7,0.7-9.1-0.7-13.5-2C153.8,580.1,150.4,592.2,158.1,594.9L158.1,594.9z"/>
	</g>
</g>
<g>
	<g>
		<path fill="#E91E5A" d="M184.4,565.6c38.8,2.7,77.2,5.4,116,0.3c8.1-1,8.1-13.8,0-12.8c-38.8,5.1-77.2,2.4-116-0.3
			C176.4,552.5,176.4,564.9,184.4,565.6L184.4,565.6z"/>
	</g>
</g>
<g>
	<g>
		<path fill="#E91E5A" d="M295,543c-0.7,10.5,0.7,20.6,3.4,30.7c1.7,6.1,5.7,22.3,13.8,22.6c7.1,0,22.9,3.7,27.6-3.4
			c2-2.7,2-6.1,2.4-9.1c1-7.1,1.7-14.2,2.7-20.9c1-8.1-11.8-8.1-12.8,0c-1,7.1-1.7,14.2-2.7,20.9c0,0.7-15.8,0-17.2,0
			c1.7,1,3.7,2,5.4,3c-7.8-13.5-10.8-28.3-9.8-43.8C308.2,534.6,295.4,534.9,295,543L295,543z"/>
	</g>
</g>
<g>
	<g>
		<path fill="#E91E5A" d="M338.9,570.3c0.3,0,0.3,0,0.7,0c-2-1.7-4-3-6.1-4.7c0,0.3,0,0.3,0.3,0.7c1.3-2.7,3-5.1,4.4-7.8
			c-0.3,0-0.3,0-0.7,0.3c2.4,1,4.7,2,7.1,3c0-0.3-0.3-0.3-0.3-0.7c-1.3,3-2.4,6.1-3.7,9.4c12.5-3.7,26.3-1,39.1-3.7
			c13.2-2.7,25-9.8,35.4-18.2c6.4-5.1-2.7-13.8-9.1-9.1c-10.1,8.1-21.6,13.2-34.4,15.8c-11.5,2.4-23.3-0.7-34.4,2.7
			c-3.4,1-6.4,6.1-3.7,9.4c0,0.3,0.3,0.3,0.3,0.7c1.7,2.4,4,3.7,7.1,3c0.3,0,0.3,0,0.7-0.3c3.4-1,5.4-4.4,4.4-7.8
			c0-0.3,0-0.3-0.3-0.7c-0.7-2.7-3.4-4.4-6.1-4.7c-0.3,0-0.3,0-0.7,0C330.4,557.2,330.8,570,338.9,570.3L338.9,570.3z"/>
	</g>
</g>
<g>
	<g>
		<path fill="#E91E5A" d="M395.5,568.3c0.3-1,0.7-2.4,1-3.4c-4-1-8.1-2.4-12.1-3.4c-1,7.1-1.7,13.8-1,20.9c0.3,3.4,2.7,6.4,6.4,6.4
			c9.1,0,18.2,0,27.3,0c8.1,0,8.1-12.5,0-12.8c-9.1-0.3-18.2-0.3-27.3,0c2,2,4,4,6.4,6.4c-0.7-5.7-0.7-11.5,0.3-17.5
			c1.3-7.8-9.8-11.1-12.1-3.4c-0.3,1-0.7,2.4-1,3.4C381,572.7,393.2,576.1,395.5,568.3L395.5,568.3z"/>
	</g>
</g>
<g>
	<g>
		<path fill="#E91E5A" d="M211.1,568c2,6.1,5.1,17.2,11.1,20.6c3,1.7,7.4,1,10.8,1c5.1,0,10.1,0,14.8,0c3.7,0,6.1-3,6.4-6.4
			c0.3-5.1,1-10.1,2.4-15.2c2-8.1-10.5-11.1-12.1-3.4c-1.3,6.1-2.4,12.1-2.7,18.5c2-2,4-4,6.4-6.4c-7.4,0-14.8,0-22.3,0
			c1.7,1,3.7,2,5.4,3c-3.4-4.7-5.7-9.8-7.4-15.2C220.5,556.8,208.4,560.2,211.1,568L211.1,568z"/>
	</g>
</g>
<g>
	<g>
		<path fill="#E91E5A" d="M463.6,440.5c4-31.4-32-44.8-57.3-47.2c-21.2-2-65.1,9.1-64.7,37.4c0.3,30.3,27.6,41.5,54,43.8
			c27.3,2.4,60.4-3,68.4-33.4c2-7.8-10.1-11.1-12.1-3.4c-9.8,36.1-85.6,33-97.1,0c-8.1-23.3,31.4-31.4,45.9-32
			c19.6-1,53.3,9.4,50.2,34.4C450.1,448.6,462.6,448.3,463.6,440.5L463.6,440.5z"/>
	</g>
</g>
<g>
	<g>
		<path fill="#E91E5A" d="M317,398.4c8.1-6.4,4.7-19.6-4.4-23.3c-9.1-3.7-19.6,2.4-21.6,11.8c-1.7,8.8,3,18.2,12.1,20.2
			c8.8,2,18.5-4.4,20.2-13.2c1.7-10.1-7.4-20.9-17.9-18.2c-10.1,2.7-15.2,14.5-7.8,22.6c6.4,7.4,20.2,3.4,19.6-7.1
			c-0.3-4.7-3.7-8.8-8.1-10.1c-6.1-1.7-11.1,3-12.8,8.1c-0.3,1-0.3,2.4-0.3,3.7c0.3,2.7,1.7,5.4,4.7,6.1c2.7,0.7,6.1-0.3,7.1-3
			c0.3-1,1-2,1.3-3c1-2.7,1.3-5.7-1-7.8c-3.7-3.4-8.4-3.4-12.1,0c-2.7,2.4-2,6.4,0,9.1c3,4,9.8,4.4,12.8-0.3
			c2.4-4,0.7-10.1-4.4-10.8c-3.4-0.7-6.7,0.7-7.8,4.4c-0.7,3,1,7.1,4.4,7.8h0.3c-1.3-1-2.4-2-3.7-3l0.3,0.3c-0.3-1-0.7-2-1-3
			c0-0.3,0-0.3,0-0.7c1-1.3,2-2.4,3-3.7l-0.3,0.3c1-0.3,2-0.7,3-1c-0.3,0-0.7,0-1,0c1,0.3,2,0.7,3,1v-0.3c0,3,0,6.1,0,9.1
			c0.3,0,0.3-0.3,0.7-0.3c-1,0.7-2,1-2.7,1.7c-0.3,0-1,0-1.3,0c-1-0.7-2-1-2.7-1.7c0.3,0,0.3,0.3,0.7,0.3c-0.3-2.7-0.7-5.1-1-7.8
			c-0.3,1-1,2-1.3,3c4,1,7.8,2,11.8,3c-0.3-0.3-0.3-0.3-0.7,0.7c-1.7,0.7-2.7,0.3-3-1c-0.7-1.7,1.7-2.7,2.7-2.4
			c-1-0.3-0.3-1,0.7-1.7c1.7-0.7,3,1.3,3.4,2.7c0.3,1.3-1.7,3-2.7,3.4c-4,1.7-5.7-2.7-4.7-5.7c1-3.4,7.4-2,4,0.7
			c-2.7,2-2.4,6.7,0,9.1C310.6,401.1,314.3,400.4,317,398.4L317,398.4z"/>
	</g>
</g>
<g>
	<g>
		<path fill="#E91E5A" d="M382.4,445.6c10.8,0,10.8-16.9,0-16.9S371.6,445.6,382.4,445.6L382.4,445.6z"/>
	</g>
</g>
<g>
	<g>
		<path fill="#E91E5A" d="M434,445.9c10.8,0,10.8-16.9,0-16.9S423.2,445.9,434,445.9L434,445.9z"/>
	</g>
</g>
<g>
	<g>
		<path fill="#E91E5A" d="M62.7,483.3c-3.4,7.8-6.1,15.2-4.7,23.9c1.3,7.4,8.1,12.1,14.8,13.5c13.5,2.7,34.4-9.8,28-25.6
			c-2-5.1-10.1-2.7-8.1,2.4c4,9.8-9.4,15.5-17.2,15.2c-14.2-0.3-9.4-17.2-5.7-25C72.2,482.7,65.1,478.6,62.7,483.3L62.7,483.3z"/>
	</g>
</g>
<g>
	<g>
		<path fill="#E91E5A" d="M95.8,490.4c-15.8,2-22.6,19.6-10.1,31c13.8,12.5,38.8-2.7,47.9-13.8c3.4-4-2.7-10.1-6.1-6.1
			c-5.4,6.4-11.5,11.1-19.6,13.8c-3.4,1.3-7.1,1.3-10.8,1.7c-12.8,0.3-12.5-16.5-1.3-17.9C101.2,498.2,101.2,489.7,95.8,490.4
			L95.8,490.4z"/>
	</g>
</g>
<g>
	<g>
		<path fill="#E91E5A" d="M472.4,410.8c19.6,0,19.6-30.3,0-30.3S452.8,410.8,472.4,410.8L472.4,410.8z"/>
	</g>
</g>
<g>
	<g>
		<path fill="#E91E5A" d="M455.2,282c-58.3-17.2-120-14.2-176.7,8.4c-7.4,3-4,15.2,3.4,12.1c54.6-21.9,113.6-25,169.9-8.4
			C459.6,296.5,463,284.4,455.2,282L455.2,282z"/>
	</g>
</g>
<g>
	<g>
		<path fill="#E91E5A" d="M469,282c-22.6-30-68.1-35.4-102.8-34.7c-35.1,0.7-84.6,11.5-104.2,43.8c-3,5.1,3.4,12.5,8.8,8.8
			c2-1.3,4-3,6.1-4.4c6.4-4.7,0.3-15.8-6.4-10.8c-2,1.3-4,3-6.1,4.4c3,3,5.7,5.7,8.8,8.8c16.2-27.3,58.3-34.7,87.3-37.1
			c30.3-2.4,77.9,2,97.8,28.3C463,294.8,474.1,288.4,469,282L469,282z"/>
	</g>
</g>
<g>
	<g>
		<path fill="#E91E5A" d="M438.3,257.8c-18.5-20.6,0-52.6,27.3-45.2c32.7,9.1,13.5,56.6-16.9,50.9c-8.1-1.3-11.5,10.8-3.4,12.1
			c44.2,8.1,69.8-51.3,28.3-73.2c-15.5-8.1-36.8-2.7-47.2,11.1c-12.5,16.2-10.5,38.1,3,52.9C435,272.9,443.7,263.8,438.3,257.8
			L438.3,257.8z"/>
	</g>
</g>
<g>
	<g>
		<path fill="#E91E5A" d="M286.9,265.2c-27.3,0-40.1-34.7-15.8-50.2c28.3-18.2,52.6,28,27,46.2c-6.7,4.7-0.3,15.5,6.4,10.8
			c14.8-10.5,22.3-34.7,13.5-51.3c-9.4-18.5-29.3-26-48.9-18.9c-16.5,6.1-27,25.3-23.6,42.5c3.7,19.9,21.2,33.4,41.1,33.4
			C295,277.6,295,265.2,286.9,265.2L286.9,265.2z"/>
	</g>
</g>
</svg>
