<?xml version="1.0" encoding="utf-8"?>
<!-- Generator: Adobe Illustrator 18.0.0, SVG Export Plug-In . SVG Version: 6.00 Build 0)  -->
<!DOCTYPE svg PUBLIC "-//W3C//DTD SVG 1.1//EN" "http://www.w3.org/Graphics/SVG/1.1/DTD/svg11.dtd">
<svg version="1.1" id="Layer_1" xmlns="http://www.w3.org/2000/svg" xmlns:xlink="http://www.w3.org/1999/xlink" x="0px" y="0px"
	 viewBox="0 0 156 166" enable-background="new 0 0 156 166" xml:space="preserve">
<g>
	<g>
		<path fill="#FFFFFF" d="M90.6,50.9c-8.3-10-21.2-14-33.8-11.2c-6.4,1.5-12.6,4.8-17.7,8.9c-6.2,5-9,12.4-11.3,19.8
			c-0.8,2.6,3.3,3.7,4.1,1.1c1.9-6.4,4.2-12.1,9-16.9c4.2-4.1,10-6.6,15.5-8.4c11.4-3.6,23.7,0.6,31.2,9.7
			C89.4,55.9,92.3,52.9,90.6,50.9L90.6,50.9z"/>
	</g>
</g>
<g>
	<g>
		<path fill="#FFFFFF" d="M22,82.4c4.2,5.2,10.8,5.5,16.7,3.5c4.4-1.5,10.9-6.3,7.4-11.7c-6.7-10.5-30.4-6.3-25.1,8.2
			c0.9,2.5,5,1.4,4.1-1.1c-3.5-9.6,9.9-9.8,15.3-7.2c5.7,2.7,1,5.8-0.9,6.9c-1.4,0.8-3.1,1.2-4.7,1.7c-3.8,1-7.4-0.2-9.8-3.2
			C23.3,77.3,20.4,80.3,22,82.4L22,82.4z"/>
	</g>
</g>
<g>
	<g>
		<path fill="#FFFFFF" d="M22.2,84.8c2.5,2.7,3.7,6.1,5.5,9.2c1.6,2.9,3.6,5.5,5.6,8.1c4.3,5.4,9.8,9.8,15.7,13.3
			c2.3,1.4,4.5-2.3,2.1-3.6c-5.7-3.4-10.6-7.6-14.8-12.6c-4.5-5.3-6.4-12.3-11.1-17.3C23.3,79.8,20.3,82.8,22.2,84.8L22.2,84.8z"/>
	</g>
</g>
<g>
	<g>
		<path fill="#FFFFFF" d="M93.2,85.3c0.3,19.9-25.1,29.2-41.5,25.8c-2.6-0.5-3.8,3.5-1.1,4.1c19,3.9,47.2-7,46.8-29.8
			C97.4,82.6,93.2,82.6,93.2,85.3L93.2,85.3z"/>
	</g>
</g>
<g>
	<g>
		<path fill="#FFFFFF" d="M41.4,107.8c-3.9-0.2-7.4-0.1-10.7,2c-1.2,0.8-2.3,2-3.3,3.1c-2.4,2.5-5.4,3.3-8.7,4.1
			c-1.7,0.4-1.1,2.6,0.4,2.8c8.8,1.1,21.4,1,23.6-10.1c0.4-1.8-2.4-2.5-2.7-0.7c-1.9,9.7-13.4,9-20.9,8c0.1,0.9,0.2,1.8,0.4,2.8
			c3.3-0.8,6.2-1.7,8.9-3.8c1.8-1.4,3-3.1,4.9-4.4c2.2-1.5,5.6-1.1,8.1-0.9C43.2,110.7,43.2,107.9,41.4,107.8L41.4,107.8z"/>
	</g>
</g>
<g>
	<g>
		<path fill="#FFFFFF" d="M53,113.5c-0.5,0-1,0-1.5,0c0,0.9,0,1.9,0,2.8c3,0,6.3,3.3,9,4.6c2.1,1.1,4.7,1.8,7.1,2
			c6.3,0.6,12.8-1.9,18.9,0.3c1,0.3,2.1-0.7,1.7-1.7c-2-5.5,4.9-13.1,7-18c2.2-5,3.1-10.2,2.6-15.6c-0.2-1.8-3-1.8-2.8,0
			c0.8,7.4-1.7,14-5.3,20.4c-2.5,4.4-6.1,8.7-4.2,14c0.6-0.6,1.2-1.2,1.7-1.7c-5.9-2.1-11.9-0.1-18-0.2c-4.2-0.1-8.2-2-11.6-4.3
			c-2.1-1.5-3.5-2.5-6.1-2.5c-1.8,0-1.8,2.8,0,2.8c0.5,0,1,0,1.5,0C54.9,116.3,54.9,113.5,53,113.5L53,113.5z"/>
	</g>
</g>
<g>
	<g>
		<path fill="#FFFFFF" d="M90.8,57c5.3,0,9.8,3.4,14.7,5c4.7,1.6,9.8,0,14.4-1.2c2.6-0.7,1.5-4.7-1.1-4.1c-6.5,1.7-11,2-17.1-0.8
			c-3.5-1.7-6.9-3.1-10.8-3.1C88,52.8,88,57,90.8,57L90.8,57z"/>
	</g>
</g>
<g>
	<g>
		<path fill="#FFFFFF" d="M117.5,60.2c-0.1,13.1-12.2,21.1-24.1,22.4c-2.7,0.3-2.7,4.5,0,4.2c14.2-1.6,28.1-11.1,28.3-26.6
			C121.7,57.5,117.5,57.5,117.5,60.2L117.5,60.2z"/>
	</g>
</g>
<g>
	<g>
		<path fill="#FFFFFF" d="M73.4,70.4c0.6-0.7,1-1.6,0.6-2.5c-0.4-0.9-1.1-1.7-2.1-1.8c-2.5-0.3-3.4,1.8-3.3,3.9
			c0.1,0.9,0.6,1.8,1.5,2c1.2,0.3,2.4,0.2,3.5-0.4c1.1-0.5,2.5-1.4,2.5-2.7c0-0.5,0-1.1-0.1-1.6c-0.2-0.7-0.8-1.2-1.4-1.7
			c-1-0.7-2.2-1.1-3.4-1c-2.7,0.3-4.4,2.9-3.3,5.5c0.9,1.9,2.8,2.9,4.8,2.9c2,0.1,3.8-1.2,4.5-3.1c0.7-1.8,0.1-3.7-1-5.2
			c-1.3-1.7-3.8-1.7-5.6-0.7c-1.8,1-2.9,3.4-2.1,5.4c0.4,1.1,1.4,1.8,2.6,1.5c1-0.3,1.9-1.5,1.5-2.6c-0.1-0.2-0.2-0.2,0-0.5
			c0.2-0.3,0.4-0.3,0.5-0.3c-0.3-0.1,0.2,0.2,0,0c0.1,0.1,0.2,0.3,0.2,0.2c0.2,0.4,0.1,0.3,0.1,0.6c0,0.2-0.1,0.3,0,0.2
			c-0.1,0.2-0.2,0.2-0.3,0.3c-0.5,0.1-0.7,0-1.1-0.2c0.2,0.1-0.2-0.3-0.1-0.1c-0.3-0.4,0,0-0.1,0.2c-0.2,0.2-0.4,0,0.2,0.1
			c0.2,0.1,0.5,0.3,0.7,0.5c-0.2-0.5-0.4-1-0.6-1.5c0,0.3,0,0.7,0,1c0.3-0.6,0.7-1.2,1-1.8c-0.4,0.3-1.2,1-1.7,0.9
			c0.5,0.7,1,1.4,1.5,2c0-0.2,0-0.4,0-0.5c0.1-0.7-0.2-0.4-0.9,0.7c-0.4,0-0.7,0-1.1,0c0.4,0.1,0.3,0-0.3-0.2
			c-0.2-0.3-0.4-0.6-0.5-0.9c0-0.1,0-0.2,0-0.3c0.2-0.5,0.4-1,0.6-1.5c0,0-0.1,0.1-0.1,0.1c-0.7,0.9-0.9,2.1,0,3
			C71.1,71.1,72.6,71.3,73.4,70.4L73.4,70.4z"/>
	</g>
</g>
<g>
	<g>
		<path fill="#FFFFFF" d="M26.9,78.9c1.8,0,1.8-2.8,0-2.8S25,78.9,26.9,78.9L26.9,78.9z"/>
	</g>
</g>
<g>
	<g>
		<path fill="#FFFFFF" d="M37.3,78.9c0.1,0,0.2,0,0.4,0c0.8,0,1.4-0.6,1.4-1.4c0-0.8-0.6-1.4-1.4-1.4c-0.1,0-0.2,0-0.4,0
			c-0.8,0-1.4,0.6-1.4,1.4C35.9,78.3,36.6,78.9,37.3,78.9L37.3,78.9z"/>
	</g>
</g>
<g>
	<g>
		<path fill="#FFFFFF" d="M41.6,113c-0.5,6.5-0.6,13-0.3,19.5c0.2,3.6-0.4,11.2,2.7,14c1.8,1.7,5.3,3.3,7.4,1c1.4-1.5,2-3.5,3.3-5.1
			c2.8-3.5,8-3.6,12-3.4c3.2,0.2,8,0.8,10.6,2.9c1.3,1.1,1.7,4.6,2.6,6.3c1.7,3.3,5.6,2.7,8.3,1.5c3.8-1.8,6.5-7.1,7.9-10.7
			c2-5.1,2.8-10.3,2.3-15.8c-0.2-2.7-4.4-2.7-4.2,0c0.4,4.6-0.1,8.9-1.6,13.3c-0.9,2.8-7.9,15.4-10.1,6.9c-1.9-7.1-9.6-7.7-15.8-8.4
			c-6.9-0.8-14.4,1.7-17.3,8.4c-2.3,0.1-3.4-0.9-3.2-3c-0.1-1.3-0.3-2.6-0.4-3.9c-0.2-2.6-0.3-5.2-0.4-7.8
			c-0.2-5.2,0.1-10.4,0.4-15.6C46,110.3,41.8,110.3,41.6,113L41.6,113z"/>
	</g>
</g>
<g>
	<g>
		<path fill="#FFFFFF" d="M108.3,144.1c-1,1.8-1.9,3.5-2.9,5.3c-0.6,1.2-0.1,2.8,1.3,3.1c1.6,0.4,3.3,0.8,4.9,1.1
			c2.6,0.6,3.8-3.4,1.1-4.1c-1.6-0.4-3.3-0.8-4.9-1.1c0.4,1,0.8,2.1,1.3,3.1c1-1.8,1.9-3.5,2.9-5.3
			C113.3,143.8,109.6,141.7,108.3,144.1L108.3,144.1z"/>
	</g>
</g>
<g>
	<g>
		<path fill="#FFFFFF" d="M114,153.8c8.8-10.7,16.3-21.6,13.8-36.1c-2.6-15-15.3-25.9-26.4-35.2c-2.1-1.7-5.1,1.2-3,3
			c9.6,8.1,19.4,16.4,23.9,28.5c5.4,14.3-2.6,26.2-11.4,36.9C109.4,152.9,112.3,155.9,114,153.8L114,153.8z"/>
	</g>
</g>
<g>
	<g>
		<path fill="#FFFFFF" d="M107.1,145.2c-5-2.5-10.3-3.2-15.7-2.2c-2.7,0.5-1.5,4.6,1.1,4.1c4.3-0.9,8.6-0.2,12.5,1.7
			C107.4,150,109.5,146.4,107.1,145.2L107.1,145.2z"/>
	</g>
</g>
<g>
	<g>
		<path fill="#FFFFFF" d="M110.4,91.8c13.5-3.2,20.8-16,20.1-29.3c-0.3-5.7-2.7-10.8-8.5-12.6c-7.6-2.5-15.7-2.7-23.3-5.2
			c-7.8-2.6-15-6.8-22.8-9.4c-7.7-2.5-15.8-3.8-23.9-4.1c-14.7-0.5-29.3,4.3-40.6,13.8c-0.9,0.8-0.7,2.2,0,3
			c5.6,5.8,10.7,11.9,15.4,18.5c1.6,2.2,5.2,0.1,3.6-2.1c-4.9-6.8-10.3-13.3-16.1-19.3c0,1,0,2,0,3c21-17.8,50.2-14.1,73.6-3.5
			c4.9,2.2,9.5,4.4,14.7,5.7c6.3,1.6,13.2,1.6,19.2,4.1c7.6,3.3,4.6,16.6,2,22.1c-2.7,5.9-8.3,9.8-14.5,11.3
			C106.7,88.3,107.8,92.4,110.4,91.8L110.4,91.8z"/>
	</g>
</g>
<g>
	<g>
		<path fill="#FFFFFF" d="M93,32.7c-9.6-4.7-9.8-18.4-21.7-20.1C59.7,10.9,52.4,22,48.8,31.2c-1,2.5,3.1,3.6,4.1,1.1
			c3.5-8.8,13.5-21.7,23.7-12.8c5.7,5,7,13.2,14.3,16.8C93.3,37.5,95.4,33.9,93,32.7L93,32.7z"/>
	</g>
</g>
<g>
	<g>
		<path fill="#FFFFFF" d="M90.4,35c2.6,0,4.9-0.4,7.1,1.4c2.6,2.1,2.7,5.7,1.1,8.4c-1.4,2.3,2.2,4.5,3.6,2.1c2.2-3.8,2.2-8.4-0.4-12
			c-2.9-4-7-4.2-11.5-4.2C87.7,30.9,87.7,35.1,90.4,35L90.4,35z"/>
	</g>
</g>
<g>
	<g>
		<path fill="#FFFFFF" d="M110.2,143.8c-3.8-3.1-5.2-7.9-3.5-12.5c0.9-2.6-3.1-3.7-4.1-1.1c-2.1,5.9-0.3,12.6,4.6,16.6
			C109.4,148.4,112.3,145.5,110.2,143.8L110.2,143.8z"/>
	</g>
</g>
<g>
	<g>
		<path fill="#FFFFFF" d="M40.8,113.8c0,0-0.1-0.1-0.1-0.1c0,0.7,0,1.3,0,2c0.1-0.1,0.1-0.1,0.2-0.2c-0.5,0.1-0.9,0.2-1.4,0.4
			c0.1,0,0.1,0,0.2,0c-0.3-0.5-0.7-0.9-1-1.4c0,0.3-1,1.6-1.2,2c-0.5,1.4-0.8,2.7-1,4.1c-0.4,3.2,0.1,7.3-2.9,9.5
			c-1.3,0.9-0.5,2.9,1.1,2.6c3.5-0.7,6.3-2.9,7.9-6.1c0.8-1.6-1.7-3.1-2.4-1.4c-1.3,2.7-3.3,4.3-6.2,4.9c0.4,0.9,0.7,1.7,1.1,2.6
			c2.4-1.7,3.5-4.2,3.9-7.1c0.3-2.1,0.3-4.2,0.7-6.3c0.3-1.7,2-2.9,1.9-4.6c0-0.6-0.4-1.2-1-1.4c-0.7-0.1-1.2-0.1-1.7,0.5
			c-0.5,0.6-0.5,1.4,0,2c0,0,0.1,0.1,0.1,0.1C40,117.1,42,115.1,40.8,113.8L40.8,113.8z"/>
	</g>
</g>
<g>
	<g>
		<path fill="#FFFFFF" d="M126.4,131c4.2-0.4,8-1.6,9.6-5.7c1.2-3.1-1-7.1-4.3-4.6c-2.4,1.8-3.1,6.5-1.2,8.9c3,3.6,8.3,1.8,11.9,0.1
			c1.6-0.8,0.2-3.2-1.4-2.4c-1.9,0.9-3.8,1.5-5.8,1.6c-3.7,0.2-3.7-6.3-0.9-6.2c-0.4-0.2-0.8-0.5-1.2-0.7c2.3,4.2-3.7,5.9-6.7,6.3
			C124.6,128.4,124.6,131.2,126.4,131L126.4,131z"/>
	</g>
</g>
</svg>
