<?xml version="1.0" encoding="utf-8"?>
<!-- Generator: Adobe Illustrator 18.0.0, SVG Export Plug-In . SVG Version: 6.00 Build 0)  -->
<!DOCTYPE svg PUBLIC "-//W3C//DTD SVG 1.1//EN" "http://www.w3.org/Graphics/SVG/1.1/DTD/svg11.dtd">
<svg version="1.1" id="Layer_1" xmlns="http://www.w3.org/2000/svg" xmlns:xlink="http://www.w3.org/1999/xlink" x="0px" y="0px"
	 viewBox="0 0 141 232.3" enable-background="new 0 0 141 232.3" xml:space="preserve">
<g>
	<g>
		<path fill="#FFFFFF" d="M39.9,122.5c-5.7,11.1-5.8,23.6-1.7,35.3c3.8,10.6,11.7,22.6,22.9,26.2c12,4,24.1-4.3,31.5-12.9
			c8.2-9.4,13.8-21.6,12.9-34.2c-0.2-2.5-4.1-2.5-3.9,0c1.3,19.1-16.1,47-37.9,43.7c-10.8-1.6-18.2-14.7-21.8-23.9
			c-4.1-10.4-3.8-22.3,1.3-32.2C44.4,122.2,41,120.2,39.9,122.5L39.9,122.5z"/>
	</g>
</g>
<g>
	<g>
		<path fill="#FFFFFF" d="M79.5,181.1c4.2-2.4,5.4-7.1,3.8-11.5c-1.8-5.1-7.8-7.5-12.7-8.2c-8-1.2-27.3,6-19.4,16.8
			c1.5,2,4.9,0.1,3.4-2c-5.3-7.3,9.5-11.1,14.1-11.1c3.2,0,6.5,1.2,9,3.2c3,2.4,3.5,7.3-0.2,9.4C75.4,179,77.3,182.4,79.5,181.1
			L79.5,181.1z"/>
	</g>
</g>
<g>
	<g>
		<path fill="#FFFFFF" d="M59,175.6c1.1-0.4,1.6-1.1,1.8-2.3c0.1-0.9-0.5-1.9-1.3-2.3c-0.9-0.5-2.1-0.3-2.7,0.7
			c-0.5,0.9-0.2,2.2,0.7,2.7c-0.3-0.2-0.5-0.5-0.6-0.8c-0.3-0.8,0.3-1.4,1-1.7c-1,0.4-1.7,1.3-1.4,2.4C56.9,175.1,58,176,59,175.6
			L59,175.6z"/>
	</g>
</g>
<g>
	<g>
		<path fill="#FFFFFF" d="M73.5,175.1c0.7,0.8,1.9,0.8,2.8,0.4c1-0.5,1.5-2.1,0.8-3c-0.6-0.8-1.5-1.3-2.6-1
			c-1.2,0.4-1.8,1.5-1.5,2.7c0.2,1,1.4,1.6,2.4,1.4c1.1-0.3,1.6-1.4,1.4-2.4c0,0,0-0.1,0-0.1c0,0.3,0,0.7,0,1
			c-0.8,0.3-1.6,0.6-2.4,0.9c-0.2-0.2-0.5-0.5-0.7-0.7c0-0.1-0.1-0.2-0.1-0.3c0-0.3,0-0.7,0-1c0.5-0.4,1-0.8,1.5-1.1
			c0.3,0.1,0.7,0.2,1,0.3c0.1,0.1,0.2,0.1,0.3,0.2c-0.7-0.8-2.1-0.7-2.8,0C72.7,173.1,72.8,174.3,73.5,175.1L73.5,175.1z"/>
	</g>
</g>
<g>
	<g>
		<path fill="#FFFFFF" d="M97.3,156.9c0-0.6,0.1-1.1,0.1-1.7c0.1-0.9-0.7-1.6-1.4-1.9c-1.9-0.7-4.1-0.1-5.5,1.3
			c-1.5,1.6-1.6,4.2-0.4,6c2.8,4.6,8.5-1.4,5.7-5c-0.5-0.7-1.3-1.2-2.2-0.9c-1.3,0.5-2.5,1.1-3,2.5c-0.4,1.1-0.1,2.5,0.8,3.3
			c1.2,1,3,0.8,3.7-0.7c0.7-1.5,0.1-3-1.2-3.9c-2.1-1.4-4.1,2-2,3.4c-0.1-0.5-0.1-1-0.2-1.5c0.5-0.2,0.9-0.4,1.4-0.6
			c0,0,0.1,0,0.1,0c0.3,0.2,0.6,0.3,0.9,0.5c0.5,0.4-0.5,1.2,0.4,0.8c-0.7-0.3-1.5-0.6-2.2-0.9c0,0,0.3,0.5,0.2,0.3
			c0-0.1,0,0.2-0.1,0.3c-0.1,0.3-0.1,0.3-0.6,0.3c0.5,0.1,1,0.1,1.5,0.2c-0.4-0.3-0.5-0.9-0.3-1.3c0.3-0.7,1.1-0.6,1.7-0.4
			c-0.5-0.6-1-1.3-1.4-1.9c0,0.6-0.1,1.1-0.1,1.7c-0.1,1.1,1,2,2,2C96.4,158.9,97.2,158,97.3,156.9L97.3,156.9z"/>
	</g>
</g>
<g>
	<g>
		<path fill="#FFFFFF" d="M45.8,160.3c1.9-0.6,2.9-2.7,2.2-4.5c-0.4-1-1.1-1.7-1.9-2.3c-1-0.8-2.1-1-3.3-0.4
			c-1.5,0.8-2.4,2.8-2.2,4.4c0.2,1.9,1.7,3.5,3.6,3.8c2,0.3,4-0.5,4.8-2.5c0.9-2.2-1.2-4.6-3.3-5c-2.2-0.4-4.6,1.1-4.7,3.5
			c-0.1,2.3,2.1,4.1,4.4,3.5c2.4-0.7,1.4-4.4-1-3.8c0.7-0.2,0.4,0.6,0.6,0.7c0.1,0,0.2,0.1,0.3,0.2c0.4,0.3,0,0.4,0.1-0.3
			c0.1-0.1,0.1-0.2,0.2-0.3c-0.2,0.2-0.2,0.2-0.1,0.1c-0.4,0.3,0.1,0-0.3,0.1c0.3-0.1-0.4,0,0,0c0,0-0.6-0.2-0.3-0.1
			c-0.4-0.2,0.1,0.1-0.3-0.2c0.1,0.1,0.1,0.4,0-0.1c0.1,0.3,0-0.2,0-0.3c0,0.4,0.1-0.3,0,0c0.2-0.5,0.2-0.4,0.6-0.6
			c-0.7,0-1.3,0-2,0c0.4,0.2,0.9,0.4,1.1,0.8c-0.1-0.1,0-0.2,0-0.3c-0.1,0.4,0.1-0.2,0.4-0.3C42.3,157.2,43.4,161,45.8,160.3
			L45.8,160.3z"/>
	</g>
</g>
<g>
	<g>
		<path fill="#FFFFFF" d="M41.7,158.1c0,2.5,2.6,3.5,4.7,2.9c2.1-0.6,3.4-2.8,3.1-4.9c-0.3-2.1-2.2-3.5-4.2-3.7
			c-2.1-0.2-4.1,1.7-4.4,3.7c-0.4,2.2,0.9,4.2,2.9,5c1,0.4,2.4,0.5,3.2-0.3c0.8-0.8,1.3-1.9,1.6-2.9c0.6-2.3-1-4.3-3.3-4.6
			c-2.2-0.3-3.6,2.3-4.3,3.9c-0.3,0.6,0.1,1.4,0.5,1.9c0.5,0.5,0.9,0.9,1.4,1.4c1.8,1.8,4.5-1,2.8-2.8c-0.5-0.5-0.9-0.9-1.4-1.4
			c0.2,0.6,0.3,1.3,0.5,1.9c0.1-0.3,0.3-0.5,0.4-0.8c0.1-0.1,0.4-0.3,0.1-0.3c-0.8,0-0.4-0.8-0.6,0c-0.1,0.5-0.5,0.9-0.8,1.3
			c0.6-0.3,1.1-0.6,1.7-1c-0.9,0.1-1.3-0.8-0.3-1.1c0.2-0.1,0.4,0.5,0.4,0.6c0,0.1-0.2,0.2-0.3,0.3c-0.1,0.1-0.2,0.1-0.3,0.1
			c0,0,0,0,0,0c-0.2-0.3,0,0,0.5,0.8C45.6,155.6,41.7,155.6,41.7,158.1L41.7,158.1z"/>
	</g>
</g>
<g>
	<g>
		<path fill="#FFFFFF" d="M105.1,138.8c6.6,0.8,11.6,10.9,18.6,5.5c-0.9-0.9-1.8-1.8-2.8-2.8c-2.6,2.4-4.5,5.5-7,8.1
			c-3.2,3.2-7.8,4.7-12.2,4.8c-2.5,0.1-2.5,4,0,3.9c4.2-0.1,8-1.2,11.6-3.3c4.4-2.6,6.7-7.2,10.3-10.7c1.9-1.8-0.8-4.3-2.8-2.8
			c-2.9,2.3-6.3-2.6-8.5-4c-2.3-1.5-4.6-2.2-7.4-2.6C102.6,134.6,102.6,138.5,105.1,138.8L105.1,138.8z"/>
	</g>
</g>
<g>
	<g>
		<path fill="#FFFFFF" d="M36.7,128.2c-2.7,1-4.4,2.5-6.1,4.8c-3.1,4-4.2,10.8-10.9,9.5c-2.2-0.4-3.3,2.3-1.5,3.6
			c3.5,2.5,4.7,7.1,8.2,9.6c3.1,2.1,6.4,3,10.1,2.5c2.5-0.3,2.5-4.2,0-3.9c-8.9,1.1-10.4-7.3-16.4-11.6c-0.5,1.2-1,2.4-1.5,3.6
			c3.7,0.7,6.5-0.1,9.5-2.4c4.1-3.2,4.2-9.9,9.6-11.9C40.1,131.2,39.1,127.4,36.7,128.2L36.7,128.2z"/>
	</g>
</g>
<g>
	<g>
		<path fill="#FFFFFF" d="M100.4,164.7c0.1-1.3,0.2-2.6,0.3-3.9c0-1.1-0.9-2-2-2c-1.1,0-1.9,0.9-2,2c-0.1,1.3-0.1,2.6-0.3,3.9
			c-0.1,1.1,1,2,2,2C99.5,166.7,100.3,165.8,100.4,164.7L100.4,164.7z"/>
	</g>
</g>
<g>
	<g>
		<path fill="#FFFFFF" d="M40.3,161.9c-1.5,14.1,1.2,28,7.1,40.9c1.6,3.5,4.3,11.4,9.2,11.5c5,0,6.3-4.6,6.7-8.9
			c-0.7,0.7-1.3,1.3-2,2c5,0,9.9,0,14.9-0.2c-0.3-1.2-0.7-2.4-1-3.6c-0.5,0.2-1.1,0.2-1.7,0.5c-1.6,0.7-1,3.2,0.5,3.6
			c0.7,0.2,1.4,0.2,2.2,0.3c2.5,0.2,2.5-3.7,0-3.9c-0.4,0-0.8-0.1-1.1-0.1c0.2,1.2,0.3,2.4,0.5,3.6c0.5-0.2,1.1-0.2,1.7-0.5
			c1.8-0.8,0.9-3.7-1-3.6c-5,0.2-9.9,0.2-14.9,0.2c-1.1,0-1.9,0.9-2,2c-0.2,1.8-1.1,8.3-4.6,2.8c-1.2-1.9-2.2-3.9-3.2-5.9
			c-2.2-4.3-3.8-8.9-5.1-13.5c-2.5-8.7-3.1-17.9-2.2-26.9C44.5,159.4,40.6,159.4,40.3,161.9L40.3,161.9z"/>
	</g>
</g>
<g>
	<g>
		<path fill="#FFFFFF" d="M95.5,163.5c2.1,8.7-0.6,17.9-3.6,26.2c-1.5,4.1-3.4,8.1-5.5,11.9c-1.1,2-2.3,3.9-3.6,5.8
			c-0.7,1-1.4,2.1-2.2,3.1c-2-1.1-2.8-2.7-2.6-4.6c0-2.5-3.9-2.5-3.9,0c0,3.9,1.1,8.9,6,8.9c4.6,0,7.8-8.1,9.6-11.2
			c6.7-11.7,12.7-27.6,9.4-41.1C98.7,160,94.9,161,95.5,163.5L95.5,163.5z"/>
	</g>
</g>
<g>
	<g>
		<path fill="#FFFFFF" d="M63.9,36.4c-9.8,21.3-17,43.5-21.5,66.5c-0.5,2.5,3.3,3.5,3.8,1c4.4-22.6,11.5-44.6,21.1-65.5
			C68.3,36.1,64.9,34.1,63.9,36.4L63.9,36.4z"/>
	</g>
</g>
<g>
	<g>
		<path fill="#FFFFFF" d="M78.3,42.9c5.9,21.3,12.2,42.4,18.9,63.5c0.8,2.4,4.5,1.4,3.8-1c-6.7-21-13-42.2-18.9-63.5
			C81.5,39.4,77.7,40.4,78.3,42.9L78.3,42.9z"/>
	</g>
</g>
<g>
	<g>
		<path fill="#FFFFFF" d="M49.8,104.2c-3.6-1.1-7.7-2-10.9,0.4c-3.5,2.6-5.2,8.6-4.9,12.8c0.1,1.7,2.7,1.7,2.6,0
			c-0.3-3.5,1-6.6,2.8-9.5c2.1-3.5,6.6-2.1,9.7-1.2C50.7,107.2,51.4,104.7,49.8,104.2L49.8,104.2z"/>
	</g>
</g>
<g>
	<g>
		<path fill="#FFFFFF" d="M35.2,116.8c-2.9-1.2-5.3-3.3-7-5.9c-0.6-1-2-0.8-2.4,0.3c-1.3,3.7,0.4,8,3.8,9.8c1.5,0.8,2.8-1.5,1.3-2.3
			c-2.5-1.3-3.6-4.2-2.6-6.9c-0.8,0.1-1.6,0.2-2.4,0.3c2.1,3.2,5,5.6,8.6,7.1C36.1,119.9,36.7,117.4,35.2,116.8L35.2,116.8z"/>
	</g>
</g>
<g>
	<g>
		<path fill="#FFFFFF" d="M31.3,121.2c0-0.1,0.1-0.3,0.1-0.4c0.7-1.2-0.6-2.4-1.8-1.8c-2.5,1.3-3.9,3.8-3.7,6.7c0,1,1.1,1.5,2,1.1
			c1.5-0.7,3.1-1.3,4.7-1.7c-0.6-0.4-1.1-0.8-1.7-1.3c0.4,3.2,2.1,5.8,5,7.3c1.5,0.7,2.8-1.5,1.3-2.3c-2-1-3.4-2.7-3.7-5
			c-0.1-0.8-0.8-1.5-1.7-1.3c-1.8,0.5-3.6,1.2-5.3,2c0.7,0.4,1.3,0.8,2,1.1c-0.1-1.9,0.8-3.5,2.5-4.4c-0.6-0.6-1.2-1.2-1.8-1.8
			c-0.4,0.7-0.5,1-0.5,1.8C28.6,122.9,31.2,122.9,31.3,121.2L31.3,121.2z"/>
	</g>
</g>
<g>
	<g>
		<path fill="#FFFFFF" d="M38,123.7c10.9,4,19.1-5,24.3-13.4c-0.8-0.3-1.6-0.7-2.4-1c-0.6,2.3-0.9,4.4-1,6.7c0,1,1.1,1.7,2,1.1
			c1.5-1,2.2-1.8,2.6-3.5c-0.8,0.1-1.6,0.2-2.4,0.3c1.4,2.2,1.7,4,1.4,6.5c-0.2,1.3,1.5,1.6,2.2,0.9c2.7-2.3,4-5,4.3-8.5
			c-0.7,0.4-1.3,0.8-2,1.1c2,0.8,3.1,2.3,3.4,4.4c0.2,1.1,1.8,1.3,2.4,0.3c1.5-2.7,1.5-5.1-0.1-7.8c-0.9-1.4-3.2-0.1-2.3,1.3
			c0,1.7,0.1,3.4,0.1,5.1c0.8,0.1,1.6,0.2,2.4,0.3c-0.6-2.8-2-4.7-4.6-6c-0.9-0.5-1.9,0.1-2,1.1c-0.2,3-1.3,4.8-3.5,6.6
			c0.7,0.3,1.5,0.6,2.2,0.9c0.4-3-0.2-5.3-1.8-7.8c-0.6-0.9-2.1-0.8-2.4,0.3c-0.5,0.7-1,1.3-1.4,2c0.7,0.4,1.3,0.8,2,1.1
			c0.1-2.1,0.4-4,0.9-6c0.4-1.4-1.6-2.3-2.4-1c-4.6,7.4-11.5,15.8-21.3,12.2C37.1,120.6,36.5,123.1,38,123.7L38,123.7z"/>
	</g>
</g>
<g>
	<g>
		<path fill="#FFFFFF" d="M72.4,113.5c2.3,2.3,5.2,3.9,8.4,4.7c1.6,0.4,2.3-2.2,0.7-2.5c-2.8-0.6-5.2-1.9-7.2-4
			C73.1,110.5,71.3,112.3,72.4,113.5L72.4,113.5z"/>
	</g>
</g>
<g>
	<g>
		<path fill="#FFFFFF" d="M79,117.3c1.4,1.9,1.7,4.1,0.9,6.4c-0.5,1.4,1.3,2,2.2,1.3c1.5-1.2,3.1-2.5,4.6-3.7
			c1.3-1.1-0.6-2.9-1.8-1.8c-1.5,1.2-3.1,2.5-4.6,3.7c0.7,0.4,1.5,0.8,2.2,1.3c1.1-2.8,0.7-6-1.1-8.4C80.3,114.6,78,115.9,79,117.3
			L79,117.3z"/>
	</g>
</g>
<g>
	<g>
		<path fill="#FFFFFF" d="M85.3,122.7c3,0.3,5.5,2.2,6.7,5c0.7,1.5,2.9,0.2,2.3-1.3c-1.6-3.6-5-5.9-8.9-6.3
			C83.6,120,83.6,122.6,85.3,122.7L85.3,122.7z"/>
	</g>
</g>
<g>
	<g>
		<path fill="#FFFFFF" d="M91.6,126.6c-1.8,2.6-1,6.2,1.5,8c0.5,0.3,1.2,0.2,1.6-0.2c1.4-1.6,2.8-3.3,4-5c1-1.4-1.3-2.7-2.3-1.3
			c-1.2,1.5-2.4,3-3.6,4.5c0.5-0.1,1.1-0.1,1.6-0.2c-1.4-1-1.5-3-0.6-4.4C94.9,126.5,92.6,125.2,91.6,126.6L91.6,126.6z"/>
	</g>
</g>
<g>
	<g>
		<path fill="#FFFFFF" d="M95.4,131.3c1.9,1.4,3.5,3.1,4.8,5.1c0.9,1.4,3.1,0.1,2.3-1.3c-1.5-2.4-3.4-4.4-5.7-6
			C95.4,128.1,94.1,130.4,95.4,131.3L95.4,131.3z"/>
	</g>
</g>
<g>
	<g>
		<path fill="#FFFFFF" d="M102.4,134c-0.1,0-0.1,0.1-0.2,0.1c0.5,0.1,1.1,0.1,1.6,0.2c0.4-0.7,0.8-1.4,1.2-2c-0.7,0.1-1.4,0.2-2,0.3
			c1.4,1.6,2.9,2.2,5,2.1c0.8,0,1.5-0.8,1.3-1.7c-2.3-6.9,2.5-15.6-3.8-21.2c-1.3-1.1-3.1,0.7-1.8,1.8c5.5,4.9,1.1,13.8,3.1,20
			c0.4-0.6,0.8-1.1,1.3-1.7c-1.1-0.4-2.1-0.9-3.2-1.3c-0.6-0.7-1.6-0.4-2,0.3c-1.1,1.5-2.1,3.6-0.8,5.2c0.4,0.4,1.1,0.5,1.6,0.2
			c0.1,0,0.1-0.1,0.2-0.1C105.2,135.4,103.9,133.1,102.4,134L102.4,134z"/>
	</g>
</g>
<g>
	<g>
		<path fill="#FFFFFF" d="M101.3,106.8c0.2,1.9,6.3,2.2,7.8,1.9c2.1-0.4,3.9-1.5,4.8-3.5c0.6-1.4-0.9-2.5-2-1.6
			c-2.7,2.2-3.6,6.1-6.6,7.9c-1.4,0.9-0.1,3.1,1.3,2.3c3.3-2,4.2-5.9,7.1-8.3c-0.7-0.5-1.4-1.1-2-1.6c-1.7,3.7-6.3,2-9.2,1.2
			c-1.4-0.4-3.9-0.4-3.7,1.7C98.8,108.4,101.4,108.4,101.3,106.8L101.3,106.8z"/>
	</g>
</g>
<g>
	<g>
		<path fill="#FFFFFF" d="M101,113.1c0.1,0,0.2,0,0.3,0c0.6,0,1-0.4,1.3-1c1.3-3.3-4.1-7.6-6.4-9.2c-3.9-2.8-8.9-3.6-13.5-2.9
			c-1.7,0.2-1,2.8,0.7,2.5c3.4-0.5,6.7,0.1,9.8,1.6c1.5,0.7,7.8,5,6.9,7.3c0.4-0.3,0.8-0.6,1.3-1c-0.1,0-0.2,0-0.3,0
			C99.4,110.5,99.4,113.2,101,113.1L101,113.1z"/>
	</g>
</g>
<g>
	<g>
		<path fill="#FFFFFF" d="M82.9,102.7c3.4-1.9,6.1-4.6,8.1-7.9c0.6-1-0.4-2.1-1.5-1.9c-5.8,1.2-10.7,4.4-14.2,9.2
			c-1,1.4,1.3,2.7,2.3,1.3c3.1-4.2,7.5-6.9,12.6-8c-0.5-0.6-1-1.3-1.5-1.9c-1.7,3-4.1,5.3-7.1,7C80.1,101.2,81.4,103.5,82.9,102.7
			L82.9,102.7z"/>
	</g>
</g>
<g>
	<g>
		<path fill="#FFFFFF" d="M78.3,99.6c-0.3-3.6-3.8-4.7-7.1-4.7c-4.4-0.1-8,3.3-10.8,6.3c-1.1,1.2,0.7,3.1,1.8,1.8
			c1.9-2.1,3.9-4,6.6-5c1.7-0.7,6.6-0.9,6.8,1.7C75.8,101.3,78.4,101.3,78.3,99.6L78.3,99.6z"/>
	</g>
</g>
<g>
	<g>
		<path fill="#FFFFFF" d="M64.1,99.3c-0.5-3.8-4.6-4.3-7.6-3.2c-3.7,1.4-6.6,4.5-8.5,7.9c-0.8,1.5,1.4,2.8,2.3,1.3
			c1.1-2,2.5-3.7,4.3-5.1c1.7-1.3,6.5-3.9,7-0.1C61.8,101.6,64.3,100.9,64.1,99.3L64.1,99.3z"/>
	</g>
</g>
<g>
	<g>
		<path fill="#FFFFFF" d="M67.5,24.1c-5,0.7-9.5,2.5-13.6,5.4c-1,0.7-0.7,2.4,0.7,2.4c2,0,4,0.1,6,0.1c-0.4-0.7-0.8-1.3-1.1-2
			c-1.1,2.1-2.1,4.1-3.1,6.3c-0.5,1.1,0.6,2.6,1.8,1.8c2.5-1.7,5.1-3.1,8-4c1.6-0.5,0.9-3-0.7-2.5c-3.1,1-6,2.4-8.7,4.3
			c0.6,0.6,1.2,1.2,1.8,1.8c1-2.1,2-4.2,3.1-6.3c0.5-0.9-0.1-1.9-1.1-2c-2,0-4-0.1-6-0.1c0.2,0.8,0.4,1.6,0.7,2.4
			c3.9-2.8,8.2-4.5,13-5.1C69.9,26.4,69.2,23.9,67.5,24.1L67.5,24.1z"/>
	</g>
</g>
<g>
	<g>
		<path fill="#FFFFFF" d="M64.2,34.2c1.2,3,3.4,5.3,6.4,6.5c1.4,0.5,2-1.3,1.3-2.2c-1.2-1.5-1.3-3.6-0.4-5.2
			c0.8-1.5-1.5-2.8-2.3-1.3c-1.5,2.8-1.1,5.9,0.8,8.4c0.4-0.7,0.8-1.5,1.3-2.2c-2.1-0.8-3.8-2.5-4.6-4.6
			C66.1,31.9,63.6,32.6,64.2,34.2L64.2,34.2z"/>
	</g>
</g>
<g>
	<g>
		<path fill="#FFFFFF" d="M70.3,34.9c2.7,1.2,4.6,3.6,4.7,6.6c0.1,1,1.5,1.9,2.2,0.9c1.9-2.4,2.5-5.3,1.6-8.2
			c-0.5-1.6-3-0.9-2.5,0.7c0.7,2.4,1.2,4.8,1.5,7.3c0.2,1.7,2.8,1.7,2.6,0c-0.3-2.7-0.8-5.4-1.6-8c-0.8,0.2-1.7,0.5-2.5,0.7
			c0.6,2,0.3,4-1,5.6c0.7,0.3,1.5,0.6,2.2,0.9c-0.2-3.8-2.5-7.3-6-8.8C70,32,68.7,34.2,70.3,34.9L70.3,34.9z"/>
	</g>
</g>
<g>
	<g>
		<path fill="#FFFFFF" d="M75.5,25.5c-0.7-4.1-2-8.1-3.8-11.8c-0.6-1.2-2.3-0.5-2.4,0.7c-0.1,2-0.3,4-0.4,6c0.8-0.2,1.6-0.4,2.4-0.7
			c-1.3-2.3-3-4-5.2-5.4c-0.7-0.4-1.8-0.1-1.9,0.8c-0.3,1.6,0.2,2.8,0.8,4.3c0.8,1.9,1.2,4,1.3,6.1c0.1,1.7,2.7,1.7,2.6,0
			c-0.1-1.5-0.3-3-0.7-4.4c-0.4-1.5-1.9-3.7-1.6-5.3c-0.6,0.3-1.3,0.5-1.9,0.8c1.9,1.1,3.2,2.5,4.3,4.4c0.7,1.2,2.3,0.6,2.4-0.7
			c0.1-2,0.3-4,0.4-6c-0.8,0.2-1.6,0.4-2.4,0.7c1.8,3.5,3,7.3,3.6,11.2C73.3,27.8,75.8,27.1,75.5,25.5L75.5,25.5z"/>
	</g>
</g>
<g>
	<g>
		<path fill="#FFFFFF" d="M74.1,27.5c5.5-1.3,11.1-1.9,16.8-1.7c-0.2-0.8-0.4-1.6-0.7-2.4c-2.8,1.6-5.3,3.5-7.5,5.8
			c-0.5,0.6-0.5,1.7,0.3,2c1.5,0.7,3,1.4,4.5,2.1c0.1-0.8,0.2-1.6,0.3-2.4c-0.9,0.3-1.9,0.4-2.8,0.2c-1.7-0.1-1.7,2.5,0,2.6
			c1.3,0.1,2.3,0,3.5-0.3c1-0.2,1.3-1.9,0.3-2.4c-1.5-0.7-3-1.4-4.5-2.1c0.1,0.7,0.2,1.4,0.3,2c2.1-2.1,4.4-3.9,7-5.4
			c1.2-0.7,0.6-2.4-0.7-2.4C85,23,79.1,23.6,73.4,24.9C71.7,25.3,72.4,27.8,74.1,27.5L74.1,27.5z"/>
	</g>
</g>
<g>
	<g>
		<path fill="#FFFFFF" d="M83.2,33.8c4.5,2.1,8,5.5,9.9,10.1c0.6-0.5,1.3-1,1.9-1.5c-3-2-6-3.8-9.2-5.5c-0.9-0.5-2.4,0.3-1.9,1.5
			c1.6,4.1,2.6,8.3,2.9,12.7c0.7-0.3,1.5-0.6,2.2-0.9c-2.4-2-4.4-4.2-6.1-6.8c-0.9-1.4-3.2-0.1-2.3,1.3c1.9,2.7,4,5.2,6.5,7.3
			c0.8,0.7,2.3,0.3,2.2-0.9c-0.3-4.6-1.2-9.1-3-13.4c-0.6,0.5-1.3,1-1.9,1.5c3.2,1.7,6.2,3.5,9.2,5.5c0.9,0.6,2.4-0.4,1.9-1.5
			c-2.2-5.3-5.9-9.3-11.1-11.7C83,30.8,81.6,33.1,83.2,33.8L83.2,33.8z"/>
	</g>
</g>
<g>
	<g>
		<path fill="#FFFFFF" d="M72.8,96.1c2.2-0.4,3.3-2.7,2.8-4.8c-0.5-2.2-3.3-3.4-5.3-2.9c-2.4,0.6-4,2.7-4.4,5
			c-0.4,2.3,1.4,4.9,3.9,4c1.6-0.6,0.9-3.1-0.7-2.5c-1.3,0.5-0.4-1.9-0.2-2.3c0.4-0.8,1.2-1.5,2.1-1.6c0.8-0.1,1.8,0.3,2,1.1
			c0.3,0.7-0.3,1.4-1,1.6C70.5,93.9,71.2,96.4,72.8,96.1L72.8,96.1z"/>
	</g>
</g>
<g>
	<g>
		<path fill="#FFFFFF" d="M83.4,82.1c-1.8-2-5-2.8-7.4-1.2c-2.1,1.4-2.7,4.8-1,6.7c2,2.3,5.8,2.1,7.8,0c1.8-1.8,1.3-5.3-1.1-6.4
			c-1.5-0.7-2.9,1.6-1.3,2.3c1.1,0.5,1.1,1.7,0.3,2.5c-0.9,0.9-3.1,0.8-3.9-0.2c-0.6-0.9-0.1-2.3,0.7-2.8c1.3-0.9,3-0.1,4,0.9
			C82.6,85.1,84.5,83.3,83.4,82.1L83.4,82.1z"/>
	</g>
</g>
<g>
	<g>
		<path fill="#FFFFFF" d="M63.2,81.1c-1.7-2.4-4.8-1.9-6.7-0.1c-2.4,2.1-2.4,5.7-0.3,7.9c2,2.1,5.6,1.2,7.2-1
			c1.9-2.7,0.9-6.1-1.2-8.3c-1.2-1.2-3,0.6-1.8,1.8c1,1,1.7,2.4,1.4,3.9c-0.2,1.4-1.8,2.3-3.1,2c-1.7-0.4-1.5-2.6-0.9-3.8
			c0.4-0.8,2.4-2.4,3.3-1.2C61.9,83.8,64.1,82.5,63.2,81.1L63.2,81.1z"/>
	</g>
</g>
<g>
	<g>
		<path fill="#FFFFFF" d="M47.8,91.4c1.5,0.5,3.4,1.3,2.9,3.3c-0.4,1.9-2.8,2.7-4.3,3.4c-1.5,0.7-0.2,2.9,1.3,2.3
			c2.5-1.1,5.5-2.8,5.7-5.8c0.2-3.1-2.3-4.7-4.9-5.6C46.9,88.3,46.2,90.8,47.8,91.4L47.8,91.4z"/>
	</g>
</g>
<g>
	<g>
		<path fill="#FFFFFF" d="M91.6,90.2c-2.2,0.1-4.3,2.1-4,4.5c0.1,0.7,0.5,1.3,1.3,1.3c0.6,0,1.4-0.6,1.3-1.3
			c-0.1-0.9,0.4-1.8,1.4-1.9C93.2,92.8,93.2,90.2,91.6,90.2L91.6,90.2z"/>
	</g>
</g>
<g>
	<g>
		<path fill="#FFFFFF" d="M87.2,96.5c2,2.9,6.2,3.4,8.8,1c1.2-1.1-0.6-3-1.8-1.8c-1.3,1.2-3.7,1-4.7-0.5
			C88.5,93.8,86.3,95.1,87.2,96.5L87.2,96.5z"/>
	</g>
</g>
<g>
	<g>
		<path fill="#FFFFFF" d="M72.1,71.9c1.3-0.1,1.9-1.3,1.3-2.5c-0.6-1.1-2.1-1.2-3.2-1c-2.7,0.5-4.5,3.1-3.7,5.8
			c0.8,2.8,4.6,2.8,6.5,1.2c1.8-1.6,2.5-4.2,1.4-6.4c-0.8-1.5-3-0.2-2.3,1.3c0.7,1.4-0.4,3.5-2,3.7c-1.4,0.1-1.4-1.2-0.8-2.1
			c0.2-0.4,0.7-0.6,1.1-0.8c0.2-0.1,0.3-0.1,0.5-0.1c0.1,0,0.2,0,0.3,0c0.5,0.1,0.5-0.2,0.1-1c0.4-0.2,0.8-0.4,1.1-0.6
			c-0.1,0-0.1,0-0.2,0C70.4,69.5,70.4,72.1,72.1,71.9L72.1,71.9z"/>
	</g>
</g>
<g>
	<g>
		<path fill="#FFFFFF" d="M84.6,70.3c-2.3,1-3.1,4.1-1.7,6.2c1.5,2.2,5,2.3,6.6,0.3c1.1-1.3-0.8-3.1-1.8-1.8
			c-0.7,0.8-1.8,0.9-2.6,0.2c-0.8-0.8,0-2.2,0.8-2.5c0.7-0.3,0.8-1.2,0.5-1.8C86,70.1,85.3,70,84.6,70.3L84.6,70.3z"/>
	</g>
</g>
<g>
	<g>
		<path fill="#FFFFFF" d="M53.9,72.2c0.8,0.3,1.4,1,1.2,1.9c-0.2,1.2-1.5,1.4-2.5,1.5c-1.7,0.1-1.7,2.7,0,2.6c2.3-0.2,4.3-1,5-3.4
			c0.7-2.3-1-4.5-3.1-5.1C53,69.2,52.3,71.7,53.9,72.2L53.9,72.2z"/>
	</g>
</g>
<g>
	<g>
		<path fill="#FFFFFF" d="M65.5,62.1c0.1-0.2,0.1-0.5,0.2-0.7c0.2-0.7-0.2-1.4-0.9-1.6c-3.8-1.4-8,2.7-5.5,6.4
			c1.2,1.7,3.4,2.2,5.2,1.1c2.1-1.2,2.4-3.8,2.3-6c-0.1-1.7-2.7-1.7-2.6,0c0.1,1.1,0.1,2.4-0.6,3.3c-0.6,0.8-1.4,0.8-2,0.1
			c-0.6-0.6-0.5-1.5,0-2c0.7-0.7,1.7-0.7,2.5-0.4c-0.3-0.5-0.6-1.1-0.9-1.6c-0.1,0.2-0.1,0.5-0.2,0.7C62.6,63.1,65.2,63.7,65.5,62.1
			L65.5,62.1z"/>
	</g>
</g>
<g>
	<g>
		<path fill="#FFFFFF" d="M78.9,59.9c-1.7-1.2-3.9-0.3-5,1.3c-1.3,1.9,0.1,4.5,2,5.3c2,0.9,4.6-0.1,5.4-2.2c0.8-2.1-0.5-4.5-2.6-5
			c-1.6-0.4-2.3,2.1-0.7,2.5c1.9,0.5,0.6,3.1-1.1,2.3c-1.5-0.7-0.6-2.8,0.7-2C79,63.1,80.3,60.8,78.9,59.9L78.9,59.9z"/>
	</g>
</g>
<g>
	<g>
		<path fill="#FFFFFF" d="M72.1,52.8c0.5-0.8,0.3-2.2-0.6-2.6c-1.3-0.5-2.2-0.1-3.2,0.7c-1.8,1.4-3.2,3.8-1.5,5.9
			c1.2,1.6,3.5,1.9,5.2,0.9c1.9-1.1,2.5-3.8,1.7-5.8c-0.6-1.6-3.1-0.9-2.5,0.7c0.4,1.1,0.2,3.4-1.5,3c-0.6-0.1-1.2-0.6-1-1.2
			c0.1-0.4,0.4-0.7,0.7-1c0.2-0.2,0.3-0.3,0.5-0.4c0.1-0.1,0.2-0.1,0.3-0.2c0.6-0.3,0.5-0.7-0.3-1.3C68.9,52.9,71.1,54.2,72.1,52.8
			L72.1,52.8z"/>
	</g>
</g>
<g>
	<g>
		<path fill="#FFFFFF" d="M60.3,52c1.4,0.7,1.4,2.9-0.4,3c-1.7,0.1-1.7,2.7,0,2.6c1.9-0.2,3.5-1.4,4-3.3c0.5-1.8-0.6-3.8-2.3-4.6
			C60.1,49,58.8,51.2,60.3,52L60.3,52z"/>
	</g>
</g>
<g>
	<g>
		<path fill="#FFFFFF" d="M78.9,49.5c-1.7,0.7-2,2.9-1.3,4.5c0.9,1.9,3.1,2.5,5,2.8c0.7,0.1,1.4-0.2,1.6-0.9
			c0.2-0.6-0.2-1.5-0.9-1.6c-1.1-0.2-2.3-0.3-3.2-1.1c-0.4-0.4-0.4-1.2,0.2-1.4c0.7-0.3,0.8-1.2,0.5-1.8
			C80.3,49.3,79.6,49.2,78.9,49.5L78.9,49.5z"/>
	</g>
</g>
<g>
	<g>
		<path fill="#FFFFFF" d="M74.6,41.9c-1.7-0.7-3.8-0.3-5,1.1c-1.2,1.4-1.2,3.5,0,4.9c1.2,1.3,3.3,1.4,4.7,0.4c1.4-1.1,1.7-3,0.9-4.5
			c-0.8-1.5-3-0.2-2.3,1.3c0.5,1-0.9,1.9-1.5,0.9c-0.3-0.5,0-1.1,0.4-1.5c0.6-0.5,1.5-0.3,2.1-0.1C75.4,45,76.1,42.5,74.6,41.9
			L74.6,41.9z"/>
	</g>
</g>
<g>
	<g>
		<path fill="#FFFFFF" d="M64,43.2c0.3,0.7-0.3,1.7-1,1.9c-1.6,0.5-0.9,3,0.7,2.5c2.5-0.7,3.5-3.5,2.6-5.8c-0.3-0.7-1.2-0.8-1.8-0.5
			C63.8,41.8,63.7,42.5,64,43.2L64,43.2z"/>
	</g>
</g>
</svg>
