<?xml version="1.0" encoding="utf-8"?>
<!-- Generator: Adobe Illustrator 18.0.0, SVG Export Plug-In . SVG Version: 6.00 Build 0)  -->
<!DOCTYPE svg PUBLIC "-//W3C//DTD SVG 1.1//EN" "http://www.w3.org/Graphics/SVG/1.1/DTD/svg11.dtd">
<svg version="1.1" id="Layer_1" xmlns="http://www.w3.org/2000/svg" xmlns:xlink="http://www.w3.org/1999/xlink" x="0px" y="0px"
	 viewBox="0 0 170 172" enable-background="new 0 0 170 172" xml:space="preserve">
<g>
	<g>
		<path fill="#FFFFFF" d="M103.7,30.5c-5.3-8.2-13.2-9.9-22.4-10.5c-9.6-0.6-19.6,1.1-26.3,8.5c-1.7,1.9,1.1,4.7,2.8,2.8
			c5.6-6.3,13.5-7.6,21.5-7.4c8.2,0.1,16.1,1.2,20.9,8.6C101.7,34.7,105.1,32.7,103.7,30.5L103.7,30.5z"/>
	</g>
</g>
<g>
	<g>
		<path fill="#FFFFFF" d="M56,28.8c-3.9-3.7-8.6-5.6-14-5.6c-2.7,0-5.3,1-7.7,2c-4.3,1.8-8.6,2-13.2,0.8c-1.6-0.4-2.7,1-2.5,2.5
			c1.8,9.6,5.2,21,16.3,22.7c2.5,0.4,3.6-3.5,1.1-3.8c-9.7-1.5-12-11.7-13.6-19.9c-0.8,0.8-1.6,1.6-2.5,2.5
			c5.2,1.4,10.2,1.1,15.3-0.8c6.4-2.5,12.6-2.5,17.8,2.5C55.1,33.4,57.9,30.6,56,28.8L56,28.8z"/>
	</g>
</g>
<g>
	<g>
		<path fill="#FFFFFF" d="M104.2,35.2c7.4-5.5,15.3-5.8,23.6-2.4c5.1,2.1,10,3.3,14.7-0.3c-1-0.8-2.1-1.6-3.1-2.4
			c-4.1,8.5-8.5,16.8-15.7,23c-1.9,1.7,0.9,4.5,2.8,2.8c7.5-6.5,12.1-15.1,16.4-23.9c1-2.1-1.4-3.8-3.1-2.4
			c-5.2,4-12.7-2.6-18.2-3.2c-7-0.8-13.6,1-19.3,5.2C100.2,33.3,102.1,36.8,104.2,35.2L104.2,35.2z"/>
	</g>
</g>
<g>
	<g>
		<path fill="#FFFFFF" d="M50.2,48.5c-5.2-2.5-10.6-1.7-15.1,1.7c-5.2,3.9-6.3,10.7-5.1,16.6c1.2,6.6,7.4,12.7,11.9,17.3
			c4.1,4.3,10.5,3.8,14.7,0.1c1.9-1.7-0.9-4.5-2.8-2.8c-4.6,4-8.8,0.6-11.9-3.2c-2.8-3.5-6.1-6.6-7.7-11c-3.2-8.6,4.5-19.8,14-15.3
			C50.5,53.1,52.6,49.6,50.2,48.5L50.2,48.5z"/>
	</g>
</g>
<g>
	<g>
		<path fill="#FFFFFF" d="M50.4,52.7c6.2-2,15.9-2.6,18.1,5.3c1.5,5.5-2.5,13.5-5.7,17.7c-1.6,2.1,1.9,4,3.4,2
			c4.3-5.6,8.5-15.6,5.5-22.6C68,46.5,57,46.3,49.3,48.8C46.9,49.6,47.9,53.5,50.4,52.7L50.4,52.7z"/>
	</g>
</g>
<g>
	<g>
		<path fill="#FFFFFF" d="M107.7,54.5c-7.1-5.1-14.7-4.7-19.4,3.1c-4.2,6.9-3.2,16.1,0.9,22.7c1.4,2.2,4.8,0.2,3.4-2
			c-2.9-4.7-3.7-9.8-2.4-15.2c0.7-2.8,2.3-5.6,4.6-7.4c3.4-2.6,8,0.2,10.8,2.2C107.8,59.5,109.8,56,107.7,54.5L107.7,54.5z"/>
	</g>
</g>
<g>
	<g>
		<path fill="#FFFFFF" d="M104.7,91.2c11.8-1,21.8-9.6,24-21.4c1-5.1-0.3-10.4-3.8-14.2c-4.4-4.8-11.7-2.9-16.6-0.1
			c-2.2,1.3-0.2,4.7,2,3.4c5.1-3,11.3-3.4,13.9,2.9c1.4,3.5,0.7,7.5-0.4,10.9c-2.7,8.1-10.9,13.7-19.1,14.4
			C102.1,87.5,102.1,91.4,104.7,91.2L104.7,91.2z"/>
	</g>
</g>
<g>
	<g>
		<path fill="#FFFFFF" d="M53.6,84c-5.6,21,34.3,25.4,41.2,8.2c1-2.4-2.9-3.4-3.8-1.1c-5.1,12.5-37.7,9.5-33.5-6.1
			C58.2,82.6,54.3,81.5,53.6,84L53.6,84z"/>
	</g>
</g>
<g>
	<g>
		<path fill="#FFFFFF" d="M94.9,84c-1.9-8.6-13.7-10.7-21.1-10.7c-7.2-0.1-19.2,2.6-20.8,11c-0.5,2.5,3.4,3.6,3.8,1.1
			c2-11.1,31.8-11.2,34.2-0.3C91.6,87.6,95.4,86.5,94.9,84L94.9,84z"/>
	</g>
</g>
<g>
	<g>
		<path fill="#FFFFFF" d="M95.2,92.1c0.6-2,0.6-4,0.2-6.1c-0.5-2.5-4.4-1.5-3.8,1.1c0.3,1.3,0.2,2.6-0.2,3.9
			C90.7,93.5,94.5,94.6,95.2,92.1L95.2,92.1z"/>
	</g>
</g>
<g>
	<g>
		<path fill="#FFFFFF" d="M91.5,83.2c1.9,5.8,7.7,9.1,13.7,8c2.5-0.5,1.5-4.3-1.1-3.8c-3.7,0.7-7.6-1.6-8.8-5.2
			C94.5,79.7,90.7,80.8,91.5,83.2L91.5,83.2z"/>
	</g>
</g>
<g>
	<g>
		<path fill="#FFFFFF" d="M83.2,90.4c0.6,0.4,1.5,0.4,2.1,0c0.7-0.4,1-1.1,1-1.9c0.2-1.6-1.9-2.7-3.1-1.8c-0.9,0.6-1.3,1.8-0.7,2.7
			c0.5,0.9,1.8,1.3,2.7,0.7c0,0,0,0,0.1,0c-0.3,0.1-0.7,0.2-1,0.3c0,0,0,0,0,0c-0.5-0.2-0.9-0.4-1.4-0.6c0,0,0,0,0,0
			c-0.2-0.3-0.3-0.6-0.5-0.9c-0.1-0.3-0.1-0.5,0-0.8c0.2-0.3,0.3-0.6,0.5-0.9c0,0,0,0,0,0c0.5-0.2,0.9-0.4,1.4-0.6c0,0,0,0,0,0
			c0.3,0.1,0.7,0.2,1,0.3c0,0,0,0-0.1,0c-0.9-0.6-2.2-0.2-2.7,0.7C81.8,88.7,82.3,89.8,83.2,90.4L83.2,90.4z"/>
	</g>
</g>
<g>
	<g>
		<path fill="#FFFFFF" d="M62.1,87.7c0.1,0.6,0.2,1.1,0.6,1.5c0.4,0.4,1,0.6,1.6,0.6c1.3,0,2.2-0.9,2.3-2.2c0.1-1.1-1-2-2-2
			c-1.2,0-1.9,0.9-2,2c0,0,0,0.1,0,0.1c0.1-0.3,0.2-0.7,0.3-1c0,0,0,0,0,0.1c0.2-0.2,0.5-0.5,0.7-0.7c0.5,0,1.1,0,1.6,0
			c0.2,0.2,0.5,0.5,0.7,0.7c0,0,0,0,0-0.1c0.1,0.3,0.2,0.7,0.3,1c0,0,0-0.1,0-0.1c-0.1-1.1-0.8-2-2-2C63,85.7,61.9,86.6,62.1,87.7
			L62.1,87.7z"/>
	</g>
</g>
<g>
	<g>
		<path fill="#FFFFFF" d="M38.4,77.3c0.1-0.1,0.1-0.2,0.2-0.3c-0.6,0.2-1.3,0.3-1.9,0.5c0.1,0,0.2,0.1,0.4,0.1
			c-0.5-0.6-1-1.3-1.5-1.9c0.1,4.5-2.6,9.6-3.3,14.1c-0.5,3.2-0.3,6.8,1,9.8c3.3,7.1,9.4,12.8,15.6,17.4c2.1,1.5,4.1-1.9,2-3.4
			c-5.8-4.3-12.1-10-14.5-17c-2.4-7.1,3.3-13.9,3.1-20.8c0-0.9-0.6-1.6-1.5-1.9c-0.1,0-0.2-0.1-0.4-0.1c-0.6-0.2-1.5,0-1.9,0.5
			c-0.1,0.1-0.1,0.2-0.2,0.3C33.9,76.4,36.7,79.3,38.4,77.3L38.4,77.3z"/>
	</g>
</g>
<g>
	<g>
		<path fill="#FFFFFF" d="M46.7,117.1c1.2,10.3,1.6,21.4,6.1,30.9c4.7,9.7,13-2.2,16.4-6.1c1.7-1.9-1.1-4.8-2.8-2.8
			c-2.1,2.3-4.1,4.7-6.2,7c-4,4.5-6.1-6.2-6.5-7.9c-1.7-6.9-2.2-14.1-3-21.2C50.4,114.6,46.4,114.5,46.7,117.1L46.7,117.1z"/>
	</g>
</g>
<g>
	<g>
		<path fill="#FFFFFF" d="M58.3,133.8c4,3,6.1,7,10.9,8.9c4.7,1.8,10.8,0.9,15.7,1c2.6,0,2.6-4,0-4c-4.8,0-9.9,0.4-14.6-0.8
			c-4.1-1-6.7-6-10-8.5C58.2,128.8,56.2,132.3,58.3,133.8L58.3,133.8z"/>
	</g>
</g>
<g>
	<g>
		<path fill="#FFFFFF" d="M82.5,141.3c0.7,2.2,0.8,4.4,0.6,6.7c-0.1,1.4,1.4,2.1,2.5,1.9c2.3-0.3,4.3,0.6,6.6-0.4
			c1.5-0.6,2.5-1.9,3.3-3.2c2.4-3.7,3.9-9,3.6-13.4c-0.2-2.5-4.2-2.6-4,0c0.3,3.5-0.9,6.7-2.3,9.9c-0.8,1.8-1.6,3.2-3.8,3.2
			c-1.5,0-2.9-0.2-4.4,0c0.8,0.6,1.7,1.3,2.5,1.9c0.2-2.7,0-5.2-0.8-7.8C85.6,137.8,81.8,138.8,82.5,141.3L82.5,141.3z"/>
	</g>
</g>
<g>
	<g>
		<path fill="#FFFFFF" d="M94.9,145.3c2.9,0.4,5.8,0.6,8.7,0.4c2.6-0.2,2.6-4.2,0-4c-2.5,0.2-5.1,0.1-7.6-0.2
			c-1.1-0.2-2.1,0.2-2.5,1.4C93.3,143.8,93.8,145.2,94.9,145.3L94.9,145.3z"/>
	</g>
</g>
<g>
	<g>
		<path fill="#FFFFFF" d="M108.1,138.3c-1.8,0.4-3.5,0.9-5.3,1.3c-0.9,0.2-1.4,1-1.5,1.9c-0.9,13.4,31.7,6.6,27.7-8.7
			c-0.7-2.5-4.5-1.4-3.8,1.1c1.2,4.4-2.7,6.9-6,8.7c-2,1.1-14.3,4.8-13.9-1.1c-0.5,0.6-1,1.3-1.5,1.9c1.8-0.4,3.5-0.9,5.3-1.3
			C111.6,141.6,110.6,137.7,108.1,138.3L108.1,138.3z"/>
	</g>
</g>
<g>
	<g>
		<path fill="#FFFFFF" d="M107.9,141.8c0.4,0,0.8,0,1.2,0c0.9,0,1.7-0.6,1.9-1.5c0.9-3,3.1-5.5,6-6.8c2.3-1,1.3-4.8-1.1-3.8
			c-4.3,1.8-7.4,5.1-8.8,9.5c0.6-0.5,1.3-1,1.9-1.5c-0.4,0-0.8,0-1.2,0C105.3,137.8,105.3,141.8,107.9,141.8L107.9,141.8z"/>
	</g>
</g>
<g>
	<g>
		<path fill="#FFFFFF" d="M115.3,109.2c5.3,7.2,13.3,17,10.7,26.6c-0.7,2.5,3.2,3.5,3.8,1.1c3-10.9-5-21.5-11.1-29.7
			C117.2,105.1,113.7,107.1,115.3,109.2L115.3,109.2z"/>
	</g>
</g>
<g>
	<g>
		<path fill="#FFFFFF" d="M88.7,68.6c3.5-3.7-3.8-6.5-6.4-7.1c-4.9-1.2-10,0.4-13.8,3.5c-2,1.6,0.8,4.4,2.8,2.8
			c2.2-1.8,4.8-2.6,7.6-2.7c1.3-0.1,6.4,0.5,6.9,2.3c0.2-0.6,0.3-1.3,0.5-1.9c-0.1,0.1-0.2,0.2-0.3,0.3C84.2,67.6,87,70.4,88.7,68.6
			L88.7,68.6z"/>
	</g>
</g>
<g>
	<g>
		<path fill="#FFFFFF" d="M127.6,139.7c3.5,2.7,9.2,3.8,12.3-0.2c2-2.5,2.4-8.4-2.2-8.4c-3.8,0-4.3,5.4-2.4,7.7
			c3.4,4.2,8.7,2.5,11.9-1c1.2-1.3-0.7-3.1-1.9-1.9c-1.1,1.1-2.1,2-3.6,2.5c-0.5,0.1-1.1,0.1-1.6,0.2c-2.8-0.3-3.2-1.6-1.4-3.8
			c1.1,2.6-2.6,4.5-4.4,4.7c-2,0.2-3.9-0.9-5.4-2.1C127.6,136.3,126.2,138.7,127.6,139.7L127.6,139.7z"/>
	</g>
</g>
<g>
	<g>
		<path fill="#FFFFFF" d="M101.3,115.9c7.7-1.8,16.1-3.1,20.5-10.4c3.9-6.5,3-15.5,0.7-22.4c-0.8-2.4-4.7-1.4-3.8,1.1
			c2.1,6.3,2.6,13.2-0.3,19.3c-2.9,6.2-12.2,7.1-18.1,8.6C97.8,112.7,98.8,116.5,101.3,115.9L101.3,115.9z"/>
	</g>
</g>
</svg>
