<?xml version="1.0" encoding="utf-8"?>
<!-- Generator: Adobe Illustrator 18.0.0, SVG Export Plug-In . SVG Version: 6.00 Build 0)  -->
<!DOCTYPE svg PUBLIC "-//W3C//DTD SVG 1.1//EN" "http://www.w3.org/Graphics/SVG/1.1/DTD/svg11.dtd">
<svg version="1.1" id="Layer_1" xmlns="http://www.w3.org/2000/svg" xmlns:xlink="http://www.w3.org/1999/xlink" x="0px" y="0px"
	 viewBox="0 122 612 554" enable-background="new 0 122 612 554" xml:space="preserve">
<g>
	<g>
		<path fill="#E91E5A" d="M268,204.4c41.4-37.6,103.4-41.8,151.1-13.5c45.6,27,66.7,83.6,61.2,134.6c-1.3,12.2,17.7,12.2,19,0
			c6.8-61.2-22.4-122.4-76-154.1c-53.2-31.2-124.1-20.7-168.8,19.4C245.2,198.9,258.7,212.4,268,204.4L268,204.4z"/>
	</g>
</g>
<g>
	<g>
		<path fill="#E91E5A" d="M124.9,173.6c19.4-6.3,41.8-3.8,62-2.1c24.5,2.1,47.7,10.6,65.4,27.9c8.9,8.4,22.4-5.1,13.5-13.5
			c-17.3-16.5-37.6-25.7-60.8-30.8c-26.2-5.9-59.5-8.4-85.3,0C108.5,158.8,113.1,177.4,124.9,173.6L124.9,173.6z"/>
	</g>
</g>
<g>
	<g>
		<path fill="#E91E5A" d="M116.5,169.8c27.4,21.1,20.7,63.7,26.2,93.7c5.1,27.9,25.3,50.6,49.8,64.2c11,5.9,20.7-10.6,9.7-16.5
			c-37.1-20.7-41.8-54-45.2-92.9c-2.1-25.7-9.7-49-30.8-65C116.1,145.7,106.8,162.6,116.5,169.8L116.5,169.8z"/>
	</g>
</g>
<g>
	<g>
		<path fill="#E91E5A" d="M441.5,193.4c30.8-30.8,73.4-39.7,114.4-48.1c-3-5.5-6.3-10.6-9.3-16c-16.5,18.6-21.9,40.5-26.2,64.6
			c-5.5,32.9-14.4,61.6-37.1,87.4c-8.4,9.3,5.1,22.8,13.5,13.5c18.6-20.7,31.2-44.3,38-71.3c6.8-27.4,5.5-58.2,25.3-80.2
			c6.8-7.2,0-17.7-9.3-16C506.5,136,461.3,147,428,179.9C419.1,188.3,432.6,201.8,441.5,193.4L441.5,193.4z"/>
	</g>
</g>
<g>
	<g>
		<path fill="#E91E5A" d="M214.8,401.1c24.1,75.6,92,111.4,168.4,100.5c76-10.6,149-73.9,141.4-155.3c-1.3-12.2-20.3-12.2-19,0
			c6.8,73-55.7,122.4-121.6,135.9C317,496,254.1,461.8,233.4,396C229.6,384.6,211,389.2,214.8,401.1L214.8,401.1z"/>
	</g>
</g>
<g>
	<g>
		<path fill="#E91E5A" d="M517,332.7c-6.3-6.8-14.4-11-22.8-14.4c-5.1-1.7-10.6,2.1-11.8,6.8c-1.7,5.5,1.7,9.7,6.8,11.8
			s10.1,5.1,14.4,9.3C512.4,355.1,525.9,341.6,517,332.7L517,332.7z"/>
	</g>
</g>
<g>
	<g>
		<path fill="#E91E5A" d="M522.5,365.2c14.8-68.4-135.1-75.6-146.9-8.4c-11.4,64.6,138.4,79.8,145.6,11.8c1.3-12.2-17.7-12.2-19,0
			c-4.2,40.5-114.4,30.4-106.8-12.2c7.2-39.7,117.3-33.8,108.9,4.2C501.4,372.4,520,377.4,522.5,365.2L522.5,365.2z"/>
	</g>
</g>
<g>
	<g>
		<path fill="#E91E5A" d="M486.6,368.1c0.4,0.4,1.3,0.4,1.7,0.8c4.6,2.1,10.1,1.3,13.1-3.4c2.5-4.2,1.3-11-3.4-13.1
			c-0.4-0.4-1.3-0.4-1.7-0.8c-4.6-2.1-10.1-1.3-13.1,3.4C480.7,359.3,482,366,486.6,368.1L486.6,368.1z"/>
	</g>
</g>
<g>
	<g>
		<path fill="#E91E5A" d="M409.8,363.1c0.4,0.4,0.4,1.3,0.8,1.7c2.5,4.6,8.9,5.9,13.1,3.4c4.6-2.5,5.9-8.4,3.4-13.1
			c-0.4-0.4-0.4-1.3-0.8-1.7c-2.5-4.6-8.9-5.9-13.1-3.4S407.3,358.4,409.8,363.1L409.8,363.1z"/>
	</g>
</g>
<g>
	<g>
		<path fill="#E91E5A" d="M489.2,304.4c0-4.2-2.1-8-5.9-10.1c-5.1-2.5-10.1-1.3-14.4,2.1c-5.1,3.8-7.2,10.6-7.6,16.5
			c-0.4,5.1,4.6,9.7,9.7,9.7c5.5,0,8.9-4.2,9.7-9.7c-0.4,2.5,0,0.4,0,0s0.4-0.8,0.4-1.3c-0.4,1.3-0.4,1.3,0,0.4
			c0.4-0.4,2.1-3,0.4-0.8c0.4-0.4,0.4-0.4,0.8-0.8c-4.2,3.8-8.4,1.7-11.8-5.9c0,5.1,4.2,9.7,9.7,9.7
			C485,314.1,489.6,309.9,489.2,304.4L489.2,304.4z"/>
	</g>
</g>
<g>
	<g>
		<path fill="#E91E5A" d="M312.8,306.9c-2.1-11.4-12.7-19.4-24.1-19c-12.7,0-21.9,11.8-22.4,23.6c-0.4,11.4,9.7,21.9,20.3,24.1
			c11.8,2.5,24.9-5.5,27-17.7c1.7-10.6-5.5-25.7-18.1-24.9c-12.2,0.8-22.4,13.9-19,26.2c1.7,6.3,8.4,10.1,14.8,8.4
			c6.8-1.7,10.6-9.7,8.9-16.5c-3.8-16-27.9-9.7-23.2,5.9c3.8,11.8,21.9,6.8,18.6-5.1c0-0.4-0.4-0.8-0.4-1.3c0,1.7,0,3.4,0,5.1
			c0-0.4,0-0.8,0.4-1.3c-0.8,1.3-1.7,3-2.5,4.2c0.4-0.4,0.4-0.8,0.8-0.8c-1.3,0.8-3,1.7-4.2,2.5c0.4,0,0.8,0,1.3-0.4
			c-1.7,0-3.4,0-5.1,0c0.4,0,0.8,0.4,1.3,0.4c-1.3-0.8-3-1.7-4.2-2.5c0.4,0.4,0.4,0.4,0.8,0.8c-0.8-1.3-1.7-3-2.5-4.2
			c0-0.8,0-1.3,0-2.1c1.3-1.3,2.1-2.1,3.4-3.4c-0.4,0.4-0.8,0.4-1.3,0.8c1.7-0.4,3.4-0.8,4.6-1.3c-0.4,0-0.8,0-1.3,0
			c1.7,0.4,3.4,0.8,4.6,1.3c-0.4,0-0.8-0.4-1.3-0.4c1.3,1.3,2.1,2.1,3.4,3.4c-0.4-0.4-0.4-0.8-0.8-1.3c0.4,1.7,0.8,3.4,1.3,4.6
			c-0.4-2.1,0-3.4,1.7-5.5c-2.5-0.4-3.4,0-2.5,0.8c0.4,0.4,0.4,0.8,0.4,1.3c0.4,3.8-4.6,3.4-6.8,2.1c-7.6-4.2,4.2-14.8,5.9-3.8
			C296.7,324.2,315.3,319.2,312.8,306.9L312.8,306.9z"/>
	</g>
</g>
<g>
	<g>
		<path fill="#E91E5A" d="M190.8,331c-0.4-0.4-3,24.1-3,26.6c0.4,10.1,2.1,19.8,4.2,29.5c3,11.8,21.5,6.8,18.6-5.1
			c-3-12.7-4.2-25.3-3.8-38.4c0.4-9.3,4.6-19.4-3-26.2C195.4,309.1,181.9,322.6,190.8,331L190.8,331z"/>
	</g>
</g>
<g>
	<g>
		<path fill="#E91E5A" d="M219.5,388.4c-19-13.5-54-26.2-67.5,0.8c-13.1,26.2,3,65,14.4,88.6c13.5,27.4,32.5,62,63.7,70.9
			c29.5,8.4,58.2-13.9,79.8-30.8c9.7-7.6-3.8-21.1-13.5-13.5c-15.2,12.2-30.8,24.1-50.6,26.6c-26.2,3.4-40.1-24.5-51.9-43.1
			c-11.4-17.7-19.8-37.1-24.5-57.4c-1.7-7.2-6.3-35.9,7.6-37.6c11.8-1.7,24.1,6.3,32.9,12.7C219.9,412,229.6,395.6,219.5,388.4
			L219.5,388.4z"/>
	</g>
</g>
<g>
	<g>
		<path fill="#E91E5A" d="M240.2,417.9c-7.2-13.9-17.7-25.7-30.8-34.6c-10.1-7.2-19.8,9.7-9.7,16.5c10.1,7.2,18.1,16.5,23.6,27.9
			C229.2,438.6,246.1,428.9,240.2,417.9L240.2,417.9z"/>
	</g>
</g>
<g>
	<g>
		<path fill="#E91E5A" d="M292.5,490.1c-5.1,21.1,6.3,41.4,27.9,46.4s39.7-12.2,46.4-30.8c1.3-3,0-7.2-2.5-9.3
			c-0.4-0.4-1.3-1.3-1.7-1.7c-8.9-8.4-22.4,5.1-13.5,13.5c0.4,0.4,1.3,1.3,1.7,1.7c-0.8-3-1.7-6.3-2.5-9.3c-3,8.4-10.1,16-19.4,17.3
			c-13.1,1.7-20.7-11.4-18.1-22.8C313.6,482.9,295.4,477.9,292.5,490.1L292.5,490.1z"/>
	</g>
</g>
<g>
	<g>
		<path fill="#E91E5A" d="M329.6,534.4c12.7,20.7,34.6,34.6,59.1,36.7c29.5,2.1,49.8-8.4,67.5-32.5c10.6-14.4,19.8-29.1,28.7-44.7
			c7.6-13.5,19-27.9,18.1-43.9c-0.8-16-23.6-14.8-27.9-1.3c-3.8,11.8,14.8,16.9,18.6,5.1c-3.8,1.3-7.2,2.5-11,3.8
			c-2.5,4.6-4.6,8.9-7.2,13.5c-3.8,6.8-7.6,13.5-11.4,19.8c-9.7,16.9-20.3,32.9-32.9,47.7c-22.8,27-69.6,12.7-85.7-13.5
			C339.8,514.6,323.3,523.9,329.6,534.4L329.6,534.4z"/>
	</g>
</g>
<g>
	<g>
		<path fill="#E91E5A" d="M154.9,463.1c-21.5,39.3-28.3,82.3-21.5,126.2c3,19.8,9.7,40.9,20.7,57.8c9.3,14.8,29.1,3.8,40.1-2.1
			s1.3-22.8-9.7-16.5c-8.4,4.6-14.4,8.9-19.4-0.8c-3.8-7.6-6.3-15.2-8.4-23.2c-4.6-14.4-6.3-29.5-6.8-44.7
			c-1.3-30.4,7.2-60.4,21.9-86.9C177.3,461.8,160.8,452.6,154.9,463.1L154.9,463.1z"/>
	</g>
</g>
<g>
	<g>
		<path fill="#E91E5A" d="M156.6,582.1c5.5,21.9,20.7,55.3,45.2,61.2c11.8,3,17.3-15.6,5.1-18.6c-8.9-2.1-16-13.5-20.7-21.1
			c-5.5-8.4-8.4-17.3-11-27C172.2,565.2,153.6,570.3,156.6,582.1L156.6,582.1z"/>
	</g>
</g>
<g>
	<g>
		<path fill="#E91E5A" d="M195.8,595.2c-0.4,14.4,1.3,28.7,5.1,42.6c2.5,8.4,8.4,30.4,19,31.7c12.7,1.7,26.6,4.6,34.2-7.2
			c8-12.2,13.1-27,16-41.4c2.5-12.2-16-17.3-18.6-5.1c-3,14.8-8.4,27.9-16.5,40.5c3-1.7,5.5-3,8.4-4.6c-2.1,0-15.6,1.3-16.9-0.4
			c-3.4-5.5-5.5-12.2-7.6-18.6c-3.8-12.2-5.1-24.9-4.2-37.1C215.3,582.6,196.3,582.6,195.8,595.2L195.8,595.2z"/>
	</g>
</g>
<g>
	<g>
		<path fill="#E91E5A" d="M262.1,625.6c33.8,0.8,67.5,0.4,101.3-0.8c12.2-0.4,12.2-19.8,0-19c-33.8,1.3-67.5,1.7-101.3,0.8
			C249.9,606.2,249.9,625.6,262.1,625.6L262.1,625.6z"/>
	</g>
</g>
<g>
	<g>
		<path fill="#E91E5A" d="M354.1,618c1.7,12.2,2.1,24.5,1.7,36.7c0,5.1,4.6,9.7,9.7,9.7c6.8,0,20.7,3,26.6-1.7
			c8-5.9,12.2-14.8,16.9-23.6c12.2-21.9,19.8-46.4,24.5-70.9c2.1-12.2-16.5-17.3-18.6-5.1c-3.4,19.4-8.9,37.6-16.9,55.3
			c-3.4,7.2-7.2,14.4-11.4,21.5c-5.1,8.4-11.8,5.5-21.1,5.1c3.4,3.4,6.3,6.3,9.7,9.7c0.4-12.2-0.4-24.5-1.7-36.7
			C371.4,605.8,352.4,605.8,354.1,618L354.1,618z"/>
	</g>
</g>
<g>
	<g>
		<path fill="#E91E5A" d="M65.8,568.6c8.9,15.6,30.4,23.2,45.6,10.1c7.2-5.9,10.6-12.7,7.2-21.9c-2.1-5.9-10.6-11-16.9-8.9
			c-15.6,4.6-20.7,26.2-8.9,38c16,15.6,37.6,10.6,52.8-3.4c5.9-5.5-3-14.8-8.9-8.9c-9.7,8.9-26.2,15.6-35.5,1.7
			c-7.2-10.6,13.5-10.1-2.5-3.8c-8.9,3.8-17.3-2.1-21.5-9.3C73,554.7,61.6,561.5,65.8,568.6L65.8,568.6z"/>
	</g>
</g>
<g>
	<g>
		<path fill="#E91E5A" d="M300.1,488.4c-15.6-10.1-44.7-16.9-60.4-3.8c-5.1,4.2-6.3,14.4-1.3,19c8.9,8,18.1,4.2,29.1,5.9
			c8,1.3,8-11.8,0-12.7c-3.8-0.4-6.8-0.4-10.6,0c-5.5,1.3-5.1-0.4,0.4-5.5c2.1,0,4.6,0,6.8,0c10.6,0,20.7,3,29.5,8.4
			C300.5,504,306.8,492.7,300.1,488.4L300.1,488.4z"/>
	</g>
</g>
<g>
	<g>
		<path fill="#E91E5A" d="M355.8,516.3c7.6-2.5,15.2-3.4,22.8-2.1c4.2,0.8,8.4,2.1,12.7,3.8c1.3,2.5,0,3.8-3.4,3
			c-2.5,0-4.6-0.4-6.8-1.7c-7.2-3.8-13.9,7.2-6.3,11c7.2,3.8,16.5,5.1,23.6,0.8c5.5-3,11.8-10.1,6.8-16.9
			c-11.4-15.6-36.7-16-53.2-10.6C344.4,506.6,347.8,518.8,355.8,516.3L355.8,516.3z"/>
	</g>
</g>
</svg>
