<?xml version="1.0" encoding="utf-8"?>
<!-- Generator: Adobe Illustrator 18.0.0, SVG Export Plug-In . SVG Version: 6.00 Build 0)  -->
<!DOCTYPE svg PUBLIC "-//W3C//DTD SVG 1.1//EN" "http://www.w3.org/Graphics/SVG/1.1/DTD/svg11.dtd">
<svg version="1.1" id="Layer_1" xmlns="http://www.w3.org/2000/svg" xmlns:xlink="http://www.w3.org/1999/xlink" x="0px" y="0px"
	 viewBox="0 0 1224 792" enable-background="new 0 0 1224 792" xml:space="preserve">
<g id="black_bg" display="none">
	<rect x="9.1" y="-13.4" display="inline" fill="#82819F" width="1292.9" height="825"/>
</g>
<g id="white_bg" display="none">
	
		<rect x="33.1" y="-13.4" display="inline" fill="#F4E286" stroke="#000000" stroke-miterlimit="10" width="1261.4" height="823.5"/>
</g>
<g id="yellow_bg" display="none">
	
		<rect x="34.6" y="-22.4" display="inline" fill="#EEB22A" stroke="#000000" stroke-miterlimit="10" width="1253.9" height="814.4"/>
</g>
<g>
	<g>
		<path fill="#FFFFFF" d="M603.8,44.2C509.9,7.8,385.2,0.1,296.3,54.7c-18.9,11.9-1.4,42,17.5,30.1c81.2-50.4,194.6-40.6,280-7
			C615.6,86.2,624.8,52.6,603.8,44.2L603.8,44.2z"/>
	</g>
</g>
<g>
	<g>
		<path fill="#FFFFFF" d="M310.3,55.4c-26.6-23.8-51.8-39.9-88.9-35c-51.8,7-92.4,14.7-143.5-6.3c-14-5.6-29.4,3.5-25.9,19.6
			c18.2,78.4,74.2,152.6,153.3,175.7c21.7,6.3,30.8-27.3,9.1-33.6C146.5,156.3,101,90.4,85.6,24.6c-8.4,6.3-16.8,13.3-25.9,19.6
			c32.9,14,65.8,21,102.2,21c17.5,0,35-3.5,51.8-7.7c30.8-7,48.3,2.8,70.7,23.1C301.9,95.3,327.1,70.8,310.3,55.4L310.3,55.4z"/>
	</g>
</g>
<g>
	<g>
		<path fill="#FFFFFF" d="M213.7,159.8c-35,56-37.1,119.7-37.8,183.4c-0.7,56-27.3,122.5-6.3,177.1c30.8,79.1,179.2,64.4,230.3,17.5
			c25.9-23.8,32.9-70.7,9.1-98c-28-32.2-74.9-38.5-115.5-40.6c-41.3-1.4-93.8,10.5-110.6,53.2c-4.2,10.5-11.9,20.3-15.4,32.2
			c-6.3,25.2,8.4,47.6,23.8,65.8c14.7,17.5,39.2-7.7,24.5-24.5c-21.7-26.6-10.5-60.9,17.5-79.8c24.5-16.8,63-12.6,90.3-8.4
			c25.9,4.2,63,13.3,64.4,44.8c1.4,33.6-36.4,48.3-63,53.9c-27.3,6.3-57.4,4.2-84-2.1c-54.6-11.9-45.5-63-38.5-105.7
			c14-83.3-5.6-176.4,41.3-251.3C255.7,158.4,225.6,140.9,213.7,159.8L213.7,159.8z"/>
	</g>
</g>
<g>
	<g>
		<path fill="#FFFFFF" d="M598.1,76.4c68.6-30.1,147-7.7,214.2-42c-8.4-6.3-16.8-13.3-25.9-19.6C776.6,89,750.8,164,678.6,198.3
			c-20.3,9.8-2.8,39.9,17.5,30.1C775.9,190.6,808.8,107.3,820,24c2.1-14.7-11.2-27.3-25.9-19.6c-35.7,18.1-75.6,16-114.1,18.1
			C645,23.9,612.1,33,580.6,47C559.7,55.4,577.1,85.5,598.1,76.4L598.1,76.4z"/>
	</g>
</g>
<g>
	<g>
		<path fill="#FFFFFF" d="M708,214.4c45.5,24.5,87.5,53.9,129.5,84s84,60.9,113.4,104.3c63.7,91.7,57.4,224.7,12.6,322
			c-9.1,20.3,21,38.5,30.1,17.5c47.6-103.6,50.4-219.1,5.6-324.8c-21.7-50.4-63-89.6-106.4-121.8c-53.2-40.6-108.5-79.8-167.3-112
			C706,173.1,688.5,203.2,708,214.4L708,214.4z"/>
	</g>
</g>
<g>
	<g>
		<path fill="#FFFFFF" d="M860,602.9c9.1,23.1,21.7,42.7,38.5,60.9c10.5,10.5,16.8,18.9,11.2,35c-4.2,11.9-9.8,23.1-10.5,36.4
			c-0.7,6.3,3.5,11.9,8.4,15.4c21,13.3,51.1,9.8,74.2,3.5c21.7-6.3,12.6-39.9-9.1-33.6c-14,4.2-33.6,8.4-46.9,0
			c2.8,4.9,5.6,9.8,8.4,15.4c1.4-24.5,25.2-45.5,10.5-70.7c-14.7-25.9-39.2-42-50.4-70.7C885.1,573.5,851.5,582.6,860,602.9
			L860,602.9z"/>
	</g>
</g>
<g>
	<g>
		<path fill="#FFFFFF" d="M896.3,619.7c-30.8,0.7-61.6,1.4-93.1,2.1c-25.9,0.7-63.7-5.6-88.2,4.2c-8.4,3.5-15.4,11.9-11.9,21.7
			c0,0.7,0.7,1.4,0.7,2.1c2.1,7,9.1,14,16.8,12.6c0.7,0,1.4,0,1.4,0c22.4-2.8,22.4-37.8,0-35c-0.7,0-1.4,0-1.4,0
			c5.6,4.2,11.2,8.4,16.8,12.6c0-0.7-0.7-1.4-0.7-2.1c-4.2,7-8.4,14.7-11.9,21.7c21-8.4,56.7-2.8,79.1-2.8
			c30.8-0.7,61.6-1.4,93.1-2.1C918.8,654.7,918.8,619.7,896.3,619.7L896.3,619.7z"/>
	</g>
</g>
<g>
	<g>
		<path fill="#FFFFFF" d="M716.5,589.6c-21,4.9-22.4,29.4-24.5,47.6c-4.2,32.9-2.8,66.5-21,95.2c6.3-2.8,13.3-5.6,19.6-7.7
			c-19.6-4.9-39.2-7-59.5-7c5.6,4.2,11.2,8.4,16.8,12.6c-8.4-33.6-11.9-67.9-11.2-102.9c0.7-22.4-34.3-22.4-35,0
			c-1.4,37.8,2.8,74.9,12.6,112c2.1,7.7,9.1,12.6,16.8,12.6c17.5,0,33.6,2.1,50.4,5.6c7.7,2.1,15.4-1.4,19.6-7.7
			c11.2-17.5,16.8-37.1,20.3-57.4c1.4-9.8,2.1-19.6,3.5-30.1c0.7-5.6,5.6-39.9,1.4-39.2C748,618.3,738.1,584,716.5,589.6
			L716.5,589.6z"/>
	</g>
</g>
<g>
	<g>
		<path fill="#FFFFFF" d="M312.4,576.3c15.4,48.3,30.1,97.3,51.1,143.5c6.3,13.3,14,34.3,27.3,42c16.1,9.8,43.4,4.2,60.9,2.8
			c7.7-0.7,14.7-4.9,16.8-12.6c8.4-33.6,14-67.2,17.5-101.5c2.1-22.4-32.9-22.4-35,0c-2.8,31.5-8.4,61.6-16.1,91.7
			c5.6-4.2,11.2-8.4,16.8-12.6c-12.6,0.7-38.5,7-46.9-7c-9.1-15.4-16.1-32.2-23.1-49c-14-35-23.8-71.4-35.7-106.4
			C339,545.5,305.4,554.6,312.4,576.3L312.4,576.3z"/>
	</g>
</g>
<g>
	<g>
		<path fill="#FFFFFF" d="M469.3,665.9c44.8-2.1,90.3-4.2,135.1-6.3c22.4-1.4,22.4-36.4,0-35c-44.8,2.1-90.3,4.2-135.1,6.3
			C446.8,631.6,446.8,666.6,469.3,665.9L469.3,665.9z"/>
	</g>
</g>
<g>
	<g>
		<path fill="#FFFFFF" d="M850.8,646.3c2.1,18.9,4.9,38.5-3.5,56c-4.2,9.1-26.6,30.8-36.4,20.3c0.7,7,2.1,14,2.8,21
			c16.1-32.9,16.8-67.2,2.1-100.8c-9.1-21-39.2-2.8-30.1,17.5c9.1,21,8.4,44.8-2.1,65.1c-3.5,7-2.8,15.4,2.8,21
			c22.4,23.1,53.9,11.2,74.9-7c28-23.8,28-60.2,24.5-94.5C883.8,623.9,848.8,623.9,850.8,646.3L850.8,646.3z"/>
	</g>
</g>
<g>
	<g>
		<path fill="#FFFFFF" d="M1000,533.6c0.7,42.7,44.1,68.6,79.8,43.4c21.7-15.4,31.5-72.1-7-72.1c-41.3,0-29.4,54.6-5.6,70
			c38.5,24.5,91-29.4,96.6-64.4c0.7-6.3-1.4-10.5-7-12.6c-0.7,0-1.4-0.7-2.1-0.7c-2.8-1.4-8.4,0-10.5,2.8c0,0.7-0.7,0.7-0.7,1.4
			c-8.4,10.5,6.3,25.2,14.7,14.7c-2.8,0.7-4.9,1.4-7.7,2.1c-2.1-4.2-4.9-8.4-7-12.6c-4.2,25.2-31.5,52.5-56.7,53.9
			c-54.6,3.5,11.2-53.9-11.9-6.3C1059.5,584,1021,563,1021,535C1020.2,520.3,999.2,520.3,1000,533.6L1000,533.6z"/>
	</g>
</g>
<g>
	<g>
		<path fill="#FFFFFF" d="M551.9,340.4c8.4-8.4,12.6-28-1.4-34.3c-5.6-2.8-11.9-7-18.2-7c-6.3,0-12.6,3.5-16.1,8.4
			c-7,8.4-7.7,16.8-6.3,27.3c1.4,10.5,10.5,17.5,19.6,21c10.5,4.2,21-1.4,29.4-7.7c9.1-7,11.2-19.6,9.1-30.1
			c-1.4-8.4-9.1-16.8-16.8-20.3c-10.5-4.9-21-4.2-31.5,0c-8.4,3.5-13.3,18.2-14.7,25.9c-2.8,11.2-0.7,23.1,7,32.2
			c12.6,15.4,37.8,14.7,50.4,0c14.7-17.5,8.4-40.6-8.4-53.9c-16.1-11.9-42.7-4.2-51.1,13.3c-5.6,12.6-4.9,28.7,4.9,38.5
			c9.1,9.1,23.1,12.6,35,8.4c12.6-4.9,22.4-16.8,21-31.5c-1.4-13.3-10.5-26.6-24.5-28.7c-9.1-1.4-18.9,2.1-21.7,11.9
			c-2.1,8.4,2.8,19.6,11.9,21.7c2.1,0.7,2.1,0,0-0.7c-1.4-1.4-1.4-1.4,0,0c-1.4-1.4-1.4-1.4,0,0c-0.7-0.7-0.7-4.9-0.7-1.4
			c0-1.4,0-2.1,0.7-3.5c1.4-2.8-1.4,0.7,1.4-1.4c2.1-0.7,2.1-0.7,0,0c4.2-1.4-2.1-0.7,2.1,0c-2.1-0.7-2.1-0.7,0,0
			c0.7,0.7,2.8,3.5,0.7,0.7c0.7,0.7,0.7,1.4,0.7,2.1c-0.7-4.2-0.7,2.1,0-2.1c-0.7,1.4-0.7,1.4,0-0.7c-0.7,1.4-2.8,2.8,0,0.7
			c-1.4,0.7-1.4,0.7,0.7,0c-3.5,0.7,2.8,0.7-0.7,0c2.1,0.7,2.1,0.7,0.7,0c2.8,1.4,0.7,0.7,0-0.7c0.7,2.1,1.4,2.1,0.7,0
			c0,0.7,0.7,5.6,0.7,2.1c0,2.1,0,2.1,0,0c-0.7,3.5,0,0,0.7-0.7c1.4-0.7,1.4-0.7,0,0c3.5-2.1-2.8,0,1.4,0c-2.1,0-2.1,0,0,0
			c-4.2-0.7,2.1,1.4-1.4-0.7c0.7,0,1.4,0.7,2.1,1.4c1.4,2.8,0-2.8,0,0.7c0-2.1,0-2.1,0-0.7c0-2.1,0.7-3.5,1.4-5.6
			c-0.7,1.4,0,0.7,0.7-1.4c0.7-1.4,2.1-3.5,2.8-4.9c-2.1,2.1-4.2,4.2-6.3,6.3c-0.7,0.7-1.4,0.7-2.8,0.7c2.1,0,2.1,0,0,0
			c2.1,0.7,2.1,0.7,0,0c1.4,1.4,2.1,1.4,0,0c-0.7-1.4-0.7-1.4,0,0c-0.7-0.7-0.7-1.4-1.4-2.8c0-2.1,2.1-4.2,0-2.1
			c1.4-1.4,2.8-2.1,4.9-1.4c2.8,0.7,4.2,2.1,5.6,4.2c-0.7-1.4-0.7-1.4,0,0.7c-0.7-2.1-0.7-1.4,0,0.7c0-2.1,0-2.1,0,0.7
			c-0.7,1.4-1.4,2.1-2.1,3.5c-2.1,1.4-2.1,1.4,0,0.7c-5.6,0-11.9,0-17.5,0c2.8,1.4,6.3,2.8,9.1,4.2c-2.8-3.5-5.6-7-7.7-10.5
			c0.7-3.5,1.4-7,2.1-9.8C511.3,332,535.8,357.2,551.9,340.4L551.9,340.4z"/>
	</g>
</g>
<g>
	<g>
		<path fill="#FFFFFF" d="M195.5,328.5c0.7,0,3.5,2.1,3.5,2.8c0-0.7-0.7,2.1,0,0c-1.4,2.8-0.7,0.7,1.4,0.7
			c-9.8,0.7-17.5,7-17.5,17.5c0,9.1,7.7,18.2,17.5,17.5c19.6-2.1,32.9-16.1,33.6-35.7c0.7-21-19.6-35-38.5-37.1
			c-9.8-0.7-17.5,8.4-17.5,17.5C178,321.5,186.4,327.8,195.5,328.5L195.5,328.5z"/>
	</g>
</g>
<g>
	<g>
		<path fill="#FFFFFF" d="M233.3,505.6c18.2,0,18.2-28,0-28S215.8,505.6,233.3,505.6L233.3,505.6z"/>
	</g>
</g>
<g>
	<g>
		<path fill="#FFFFFF" d="M341.1,500.7c18.2,0,18.2-28,0-28S322.9,500.7,341.1,500.7L341.1,500.7z"/>
	</g>
</g>
<g id="white_lines" display="none">
	<g display="inline">
		<g>
			<path fill="#F4E286" d="M513.9,90.2c-13.4-5.2-31.2-6.3-43.9,1.5c-2.7,1.7-0.2,6,2.5,4.3c11.6-7.2,27.8-5.8,40-1
				C515.7,96.2,516.9,91.4,513.9,90.2L513.9,90.2z"/>
		</g>
	</g>
	<g display="inline">
		<g>
			<path fill="#F4E286" d="M472,91.8c-3.8-3.4-7.4-5.7-12.7-5c-7.4,1-13.2,2.1-20.5-0.9c-2-0.8-4.2,0.5-3.7,2.8
				c2.6,11.2,10.6,21.8,21.9,25.1c3.1,0.9,4.4-3.9,1.3-4.8c-9.7-2.8-16.2-12.2-18.4-21.6c-1.2,0.9-2.4,1.9-3.7,2.8
				c4.7,2,9.4,3,14.6,3c2.5,0,5-0.5,7.4-1.1c4.4-1,6.9,0.4,10.1,3.3C470.8,97.5,474.4,94,472,91.8L472,91.8z"/>
		</g>
	</g>
	<g display="inline">
		<g>
			<path fill="#F4E286" d="M458.2,106.7c-5,8-5.3,17.1-5.4,26.2c-0.1,8-3.9,17.5-0.9,25.3c4.4,11.3,25.6,9.2,32.9,2.5
				c3.7-3.4,4.7-10.1,1.3-14c-4-4.6-10.7-5.5-16.5-5.8c-5.9-0.2-13.4,1.5-15.8,7.6c-0.6,1.5-1.7,2.9-2.2,4.6
				c-0.9,3.6,1.2,6.8,3.4,9.4c2.1,2.5,5.6-1.1,3.5-3.5c-3.1-3.8-1.5-8.7,2.5-11.4c3.5-2.4,9-1.8,12.9-1.2c3.7,0.6,9,1.9,9.2,6.4
				c0.2,4.8-5.2,6.9-9,7.7c-3.9,0.9-8.2,0.6-12-0.3c-7.8-1.7-6.5-9-5.5-15.1c2-11.9-0.8-25.2,5.9-35.9
				C464.2,106.5,459.9,104,458.2,106.7L458.2,106.7z"/>
		</g>
	</g>
	<g display="inline">
		<g>
			<path fill="#F4E286" d="M513.2,94.8c9.8-4.3,21-1.1,30.6-6c-1.2-0.9-2.4-1.9-3.7-2.8c-1.4,10.6-5.1,21.3-15.4,26.2
				c-2.9,1.4-0.4,5.7,2.5,4.3c11.4-5.4,16.1-17.3,17.7-29.2c0.3-2.1-1.6-3.9-3.7-2.8c-5.1,2.6-10.8,2.3-16.3,2.6
				c-5,0.2-9.7,1.5-14.2,3.5C507.6,91.8,510.1,96.1,513.2,94.8L513.2,94.8z"/>
		</g>
	</g>
	<g display="inline">
		<g>
			<path fill="#F4E286" d="M528.8,114.4c6.5,3.5,12.5,7.7,18.5,12c6,4.3,12,8.7,16.2,14.9c9.1,13.1,8.2,32.1,1.8,46
				c-1.3,2.9,3,5.5,4.3,2.5c6.8-14.8,7.2-31.3,0.8-46.4c-3.1-7.2-9-12.8-15.2-17.4c-7.6-5.8-15.5-11.4-23.9-16
				C528.5,108.6,526,112.9,528.8,114.4L528.8,114.4z"/>
		</g>
	</g>
	<g display="inline">
		<g>
			<path fill="#F4E286" d="M550.5,170c1.3,3.3,3.1,6.1,5.5,8.7c1.5,1.5,2.4,2.7,1.6,5c-0.6,1.7-1.4,3.3-1.5,5.2
				c-0.1,0.9,0.5,1.7,1.2,2.2c3,1.9,7.3,1.4,10.6,0.5c3.1-0.9,1.8-5.7-1.3-4.8c-2,0.6-4.8,1.2-6.7,0c0.4,0.7,0.8,1.4,1.2,2.2
				c0.2-3.5,3.6-6.5,1.5-10.1c-2.1-3.7-5.6-6-7.2-10.1C554.2,165.7,549.3,167,550.5,170L550.5,170z"/>
		</g>
	</g>
	<g display="inline">
		<g>
			<path fill="#F4E286" d="M555.8,172.4c-4.4,0.1-8.8,0.2-13.3,0.3c-3.7,0.1-9.1-0.8-12.6,0.6c-1.2,0.5-2.2,1.7-1.7,3.1
				c0,0.1,0.1,0.2,0.1,0.3c0.3,1,1.3,2,2.4,1.8c0.1,0,0.2,0,0.2,0c3.2-0.4,3.2-5.4,0-5c-0.1,0-0.2,0-0.2,0c0.8,0.6,1.6,1.2,2.4,1.8
				c0-0.1-0.1-0.2-0.1-0.3c-0.6,1-1.2,2.1-1.7,3.1c3-1.2,8.1-0.4,11.3-0.4c4.4-0.1,8.8-0.2,13.3-0.3
				C558.9,177.3,558.9,172.3,555.8,172.4L555.8,172.4z"/>
		</g>
	</g>
	<g display="inline">
		<g>
			<path fill="#F4E286" d="M530,168c-3,0.7-3.2,4.2-3.5,6.8c-0.6,4.7-0.4,9.5-3,13.6c0.9-0.4,1.9-0.8,2.8-1.1c-2.8-0.7-5.6-1-8.5-1
				c0.8,0.6,1.6,1.2,2.4,1.8c-1.2-4.8-1.7-9.7-1.6-14.7c0.1-3.2-4.9-3.2-5,0c-0.2,5.4,0.4,10.7,1.8,16c0.3,1.1,1.3,1.8,2.4,1.8
				c2.5,0,4.8,0.3,7.2,0.8c1.1,0.3,2.2-0.2,2.8-1.1c1.6-2.5,2.4-5.3,2.9-8.2c0.2-1.4,0.3-2.8,0.5-4.3c0.1-0.8,0.8-5.7,0.2-5.6
				C534.5,172.1,533.2,167.3,530,168L530,168z"/>
		</g>
	</g>
	<g display="inline">
		<g>
			<path fill="#F4E286" d="M472.3,166.2c2.2,6.9,4.3,13.9,7.3,20.5c0.9,1.9,2,4.9,3.9,6c2.3,1.4,6.2,0.6,8.7,0.4
				c1.1-0.1,2.1-0.7,2.4-1.8c1.2-4.8,2-9.6,2.5-14.5c0.3-3.2-4.7-3.2-5,0c-0.4,4.5-1.2,8.8-2.3,13.1c0.8-0.6,1.6-1.2,2.4-1.8
				c-1.8,0.1-5.5,1-6.7-1c-1.3-2.2-2.3-4.6-3.3-7c-2-5-3.4-10.2-5.1-15.2C476.1,161.8,471.3,163.1,472.3,166.2L472.3,166.2z"/>
		</g>
	</g>
	<g display="inline">
		<g>
			<path fill="#F4E286" d="M494.8,179c6.4-0.3,12.9-0.6,19.3-0.9c3.2-0.2,3.2-5.2,0-5c-6.4,0.3-12.9,0.6-19.3,0.9
				C491.5,174.1,491.5,179.1,494.8,179L494.8,179z"/>
		</g>
	</g>
	<g display="inline">
		<g>
			<path fill="#F4E286" d="M549.3,176.2c0.3,2.7,0.7,5.5-0.5,8c-0.6,1.3-3.8,4.4-5.2,2.9c0.1,1,0.3,2,0.4,3
				c2.3-4.7,2.4-9.6,0.3-14.4c-1.3-3-5.6-0.4-4.3,2.5c1.3,3,1.2,6.4-0.3,9.3c-0.5,1-0.4,2.2,0.4,3c3.2,3.3,7.7,1.6,10.7-1
				c4-3.4,4-8.6,3.5-13.5C553.9,173,548.9,172.9,549.3,176.2L549.3,176.2z"/>
		</g>
	</g>
	<g display="inline">
		<g>
			<path fill="#F4E286" d="M570.5,160.1c0.1,6.1,6.3,9.8,11.4,6.2c3.1-2.2,4.5-10.3-1-10.3c-5.9,0-4.2,7.8-0.8,10
				c5.5,3.5,13-4.2,13.8-9.2c0.1-0.9-0.2-1.5-1-1.8c-0.1,0-0.2-0.1-0.3-0.1c-0.4-0.2-1.2,0-1.5,0.4c0,0.1-0.1,0.1-0.1,0.2
				c-1.2,1.5,0.9,3.6,2.1,2.1c-0.4,0.1-0.7,0.2-1.1,0.3c-0.3-0.6-0.7-1.2-1-1.8c-0.6,3.6-4.5,7.5-8.1,7.7c-7.8,0.5,1.6-7.7-1.7-0.9
				c-2.2,4.4-7.7,1.4-7.7-2.6C573.5,158.2,570.5,158.2,570.5,160.1L570.5,160.1z"/>
		</g>
	</g>
	<g display="inline">
		<g>
			<path fill="#F4E286" d="M506.5,132.5c1.2-1.2,1.8-4-0.2-4.9c-0.8-0.4-1.7-1-2.6-1s-1.8,0.5-2.3,1.2c-1,1.2-1.1,2.4-0.9,3.9
				s1.5,2.5,2.8,3c1.5,0.6,3-0.2,4.2-1.1c1.3-1,1.6-2.8,1.3-4.3c-0.2-1.2-1.3-2.4-2.4-2.9c-1.5-0.7-3-0.6-4.5,0
				c-1.2,0.5-1.9,2.6-2.1,3.7c-0.4,1.6-0.1,3.3,1,4.6c1.8,2.2,5.4,2.1,7.2,0c2.1-2.5,1.2-5.8-1.2-7.7c-2.3-1.7-6.1-0.6-7.3,1.9
				c-0.8,1.8-0.7,4.1,0.7,5.5c1.3,1.3,3.3,1.8,5,1.2c1.8-0.7,3.2-2.4,3-4.5c-0.2-1.9-1.5-3.8-3.5-4.1c-1.3-0.2-2.7,0.3-3.1,1.7
				c-0.3,1.2,0.4,2.8,1.7,3.1c0.3,0.1,0.3,0,0-0.1c-0.2-0.2-0.2-0.2,0,0c-0.2-0.2-0.2-0.2,0,0c-0.1-0.1-0.1-0.7-0.1-0.2
				c0-0.2,0-0.3,0.1-0.5c0.2-0.4-0.2,0.1,0.2-0.2c0.3-0.1,0.3-0.1,0,0c0.6-0.2-0.3-0.1,0.3,0c-0.3-0.1-0.3-0.1,0,0
				c0.1,0.1,0.4,0.5,0.1,0.1c0.1,0.1,0.1,0.2,0.1,0.3c-0.1-0.6-0.1,0.3,0-0.3c-0.1,0.2-0.1,0.2,0-0.1c-0.1,0.2-0.4,0.4,0,0.1
				c-0.2,0.1-0.2,0.1,0.1,0c-0.5,0.1,0.4,0.1-0.1,0c0.3,0.1,0.3,0.1,0.1,0c0.4,0.2,0.1,0.1,0-0.1c0.1,0.3,0.2,0.3,0.1,0
				c0,0.1,0.1,0.8,0.1,0.3c0,0.3,0,0.3,0,0c-0.1,0.5,0,0,0.1-0.1c0.2-0.1,0.2-0.1,0,0c0.5-0.3-0.4,0,0.2,0c-0.3,0-0.3,0,0,0
				c-0.6-0.1,0.3,0.2-0.2-0.1c0.1,0,0.2,0.1,0.3,0.2c0.2,0.4,0-0.4,0,0.1c0-0.3,0-0.3,0-0.1c0-0.3,0.1-0.5,0.2-0.8
				c-0.1,0.2,0,0.1,0.1-0.2c0.1-0.2,0.3-0.5,0.4-0.7c-0.3,0.3-0.6,0.6-0.9,0.9c-0.1,0.1-0.2,0.1-0.4,0.1c0.3,0,0.3,0,0,0
				c0.3,0.1,0.3,0.1,0,0c0.2,0.2,0.3,0.2,0,0c-0.1-0.2-0.1-0.2,0,0c-0.1-0.1-0.1-0.2-0.2-0.4c0-0.3,0.3-0.6,0-0.3
				c0.2-0.2,0.4-0.3,0.7-0.2c0.4,0.1,0.6,0.3,0.8,0.6c-0.1-0.2-0.1-0.2,0,0.1c-0.1-0.3-0.1-0.2,0,0.1c0-0.3,0-0.3,0,0.1
				c-0.1,0.2-0.2,0.3-0.3,0.5c-0.3,0.2-0.3,0.2,0,0.1c-0.8,0-1.7,0-2.5,0c0.4,0.2,0.9,0.4,1.3,0.6c-0.4-0.5-0.8-1-1.1-1.5
				c0.1-0.5,0.2-1,0.3-1.4C500.8,131.3,504.2,134.8,506.5,132.5L506.5,132.5z"/>
		</g>
	</g>
	<g display="inline">
		<g>
			<path fill="#F4E286" d="M455.6,130.8c0.1,0,0.5,0.3,0.5,0.4c0-0.1-0.1,0.3,0,0c-0.2,0.4-0.1,0.1,0.2,0.1c-1.4,0.1-2.5,1-2.5,2.5
				c0,1.3,1.1,2.6,2.5,2.5c2.8-0.3,4.7-2.3,4.8-5.1c0.1-3-2.8-5-5.5-5.3c-1.4-0.1-2.5,1.2-2.5,2.5
				C453.1,129.8,454.3,130.7,455.6,130.8L455.6,130.8z"/>
		</g>
	</g>
	<g display="inline">
		<g>
			<path fill="#F4E286" d="M461,156.1c2.6,0,2.6-4,0-4C458.5,152.1,458.5,156.1,461,156.1L461,156.1z"/>
		</g>
	</g>
	<g display="inline">
		<g>
			<path fill="#F4E286" d="M476.4,155.4c2.6,0,2.6-4,0-4S473.8,155.4,476.4,155.4L476.4,155.4z"/>
		</g>
	</g>
</g>
<g id="yellow_lines" display="none">
	<g display="inline">
		<g>
			<path fill="#EEB22A" d="M672,90.2c-13.4-5.2-31.2-6.3-43.9,1.5c-2.7,1.7-0.2,6,2.5,4.3c11.6-7.2,27.8-5.8,40-1
				C673.8,96.2,675,91.4,672,90.2L672,90.2z"/>
		</g>
	</g>
	<g display="inline">
		<g>
			<path fill="#EEB22A" d="M630.1,91.8c-3.8-3.4-7.4-5.7-12.7-5c-7.4,1-13.2,2.1-20.5-0.9c-2-0.8-4.2,0.5-3.7,2.8
				c2.6,11.2,10.6,21.8,21.9,25.1c3.1,0.9,4.4-3.9,1.3-4.8c-9.7-2.8-16.2-12.2-18.4-21.6c-1.2,0.9-2.4,1.9-3.7,2.8
				c4.7,2,9.4,3,14.6,3c2.5,0,5-0.5,7.4-1.1c4.4-1,6.9,0.4,10.1,3.3C629,97.5,632.5,94,630.1,91.8L630.1,91.8z"/>
		</g>
	</g>
	<g display="inline">
		<g>
			<path fill="#EEB22A" d="M616.3,106.7c-5,8-5.3,17.1-5.4,26.2c-0.1,8-3.9,17.5-0.9,25.3c4.4,11.3,25.6,9.2,32.9,2.5
				c3.7-3.4,4.7-10.1,1.3-14c-4-4.6-10.7-5.5-16.5-5.8c-5.9-0.2-13.4,1.5-15.8,7.6c-0.6,1.5-1.7,2.9-2.2,4.6
				c-0.9,3.6,1.2,6.8,3.4,9.4c2.1,2.5,5.6-1.1,3.5-3.5c-3.1-3.8-1.5-8.7,2.5-11.4c3.5-2.4,9-1.8,12.9-1.2c3.7,0.6,9,1.9,9.2,6.4
				c0.2,4.8-5.2,6.9-9,7.7c-3.9,0.9-8.2,0.6-12-0.3c-7.8-1.7-6.5-9-5.5-15.1c2-11.9-0.8-25.2,5.9-35.9
				C622.5,106.5,618,104,616.3,106.7L616.3,106.7z"/>
		</g>
	</g>
	<g display="inline">
		<g>
			<path fill="#EEB22A" d="M671.2,94.8c9.8-4.3,21-1.1,30.6-6c-1.2-0.9-2.4-1.9-3.7-2.8c-1.4,10.6-5.1,21.3-15.4,26.2
				c-2.9,1.4-0.4,5.7,2.5,4.3c11.4-5.4,16.1-17.3,17.7-29.2c0.3-2.1-1.6-3.9-3.7-2.8c-5.1,2.6-10.8,2.3-16.3,2.6
				c-5,0.2-9.7,1.5-14.2,3.5C665.8,91.8,668.3,96.1,671.2,94.8L671.2,94.8z"/>
		</g>
	</g>
	<g display="inline">
		<g>
			<path fill="#EEB22A" d="M687,114.4c6.5,3.5,12.5,7.7,18.5,12c6,4.3,12,8.7,16.2,14.9c9.1,13.1,8.2,32.1,1.8,46
				c-1.3,2.9,3,5.5,4.3,2.5c6.8-14.8,7.2-31.3,0.8-46.4c-3.1-7.2-9-12.8-15.2-17.4c-7.6-5.8-15.5-11.4-23.9-16
				C686.6,108.6,684.1,112.9,687,114.4L687,114.4z"/>
		</g>
	</g>
	<g display="inline">
		<g>
			<path fill="#EEB22A" d="M708.6,170c1.3,3.3,3.1,6.1,5.5,8.7c1.5,1.5,2.4,2.7,1.6,5c-0.6,1.7-1.4,3.3-1.5,5.2
				c-0.1,0.9,0.5,1.7,1.2,2.2c3,1.9,7.3,1.4,10.6,0.5c3.1-0.9,1.8-5.7-1.3-4.8c-2,0.6-4.8,1.2-6.7,0c0.4,0.7,0.8,1.4,1.2,2.2
				c0.2-3.5,3.6-6.5,1.5-10.1c-2.1-3.7-5.6-6-7.2-10.1C712.2,165.7,707.5,167,708.6,170L708.6,170z"/>
		</g>
	</g>
	<g display="inline">
		<g>
			<path fill="#EEB22A" d="M713.8,172.4c-4.4,0.1-8.8,0.2-13.3,0.3c-3.7,0.1-9.1-0.8-12.6,0.6c-1.2,0.5-2.2,1.7-1.7,3.1
				c0,0.1,0.1,0.2,0.1,0.3c0.3,1,1.3,2,2.4,1.8c0.1,0,0.2,0,0.2,0c3.2-0.4,3.2-5.4,0-5c-0.1,0-0.2,0-0.2,0c0.8,0.6,1.6,1.2,2.4,1.8
				c0-0.1-0.1-0.2-0.1-0.3c-0.6,1-1.2,2.1-1.7,3.1c3-1.2,8.1-0.4,11.3-0.4c4.4-0.1,8.8-0.2,13.3-0.3
				C717,177.3,717,172.3,713.8,172.4L713.8,172.4z"/>
		</g>
	</g>
	<g display="inline">
		<g>
			<path fill="#EEB22A" d="M688.1,168c-3,0.7-3.2,4.2-3.5,6.8c-0.6,4.7-0.4,9.5-3,13.6c0.9-0.4,1.9-0.8,2.8-1.1
				c-2.8-0.7-5.6-1-8.5-1c0.8,0.6,1.6,1.2,2.4,1.8c-1.2-4.8-1.7-9.7-1.6-14.7c0.1-3.2-4.9-3.2-5,0c-0.2,5.4,0.4,10.7,1.8,16
				c0.3,1.1,1.3,1.8,2.4,1.8c2.5,0,4.8,0.3,7.2,0.8c1.1,0.3,2.2-0.2,2.8-1.1c1.6-2.5,2.4-5.3,2.9-8.2c0.2-1.4,0.3-2.8,0.5-4.3
				c0.1-0.8,0.8-5.7,0.2-5.6C692.6,172.1,691.3,167.3,688.1,168L688.1,168z"/>
		</g>
	</g>
	<g display="inline">
		<g>
			<path fill="#EEB22A" d="M630.5,166.2c2.2,6.9,4.3,13.9,7.3,20.5c0.9,1.9,2,4.9,3.9,6c2.3,1.4,6.2,0.6,8.7,0.4
				c1.1-0.1,2.1-0.7,2.4-1.8c1.2-4.8,2-9.6,2.5-14.5c0.3-3.2-4.7-3.2-5,0c-0.4,4.5-1.2,8.8-2.3,13.1c0.8-0.6,1.6-1.2,2.4-1.8
				c-1.8,0.1-5.5,1-6.7-1c-1.3-2.2-2.3-4.6-3.3-7c-2-5-3.4-10.2-5.1-15.2C634.3,161.8,629.5,163.1,630.5,166.2L630.5,166.2z"/>
		</g>
	</g>
	<g display="inline">
		<g>
			<path fill="#EEB22A" d="M652.8,179c6.4-0.3,12.9-0.6,19.3-0.9c3.2-0.2,3.2-5.2,0-5c-6.4,0.3-12.9,0.6-19.3,0.9
				C649.6,174.1,649.6,179.1,652.8,179L652.8,179z"/>
		</g>
	</g>
	<g display="inline">
		<g>
			<path fill="#EEB22A" d="M707.5,176.2c0.3,2.7,0.7,5.5-0.5,8c-0.6,1.3-3.8,4.4-5.2,2.9c0.1,1,0.3,2,0.4,3
				c2.3-4.7,2.4-9.6,0.3-14.4c-1.3-3-5.6-0.4-4.3,2.5c1.3,3,1.2,6.4-0.3,9.3c-0.5,1-0.4,2.2,0.4,3c3.2,3.3,7.7,1.6,10.7-1
				c4-3.4,4-8.6,3.5-13.5C712.1,173,707.1,172.9,707.5,176.2L707.5,176.2z"/>
		</g>
	</g>
	<g display="inline">
		<g>
			<path fill="#EEB22A" d="M728.6,160.1c0.1,6.1,6.3,9.8,11.4,6.2c3.1-2.2,4.5-10.3-1-10.3c-5.9,0-4.2,7.8-0.8,10
				c5.5,3.5,13-4.2,13.8-9.2c0.1-0.9-0.2-1.5-1-1.8c-0.1,0-0.2-0.1-0.3-0.1c-0.4-0.2-1.2,0-1.5,0.4c0,0.1-0.1,0.1-0.1,0.2
				c-1.2,1.5,0.9,3.6,2.1,2.1c-0.4,0.1-0.7,0.2-1.1,0.3c-0.3-0.6-0.7-1.2-1-1.8c-0.6,3.6-4.5,7.5-8.1,7.7c-7.8,0.5,1.6-7.7-1.7-0.9
				c-2.2,4.4-7.7,1.4-7.7-2.6C731.6,158.2,728.6,158.2,728.6,160.1L728.6,160.1z"/>
		</g>
	</g>
	<g display="inline">
		<g>
			<path fill="#EEB22A" d="M664.6,132.5c1.2-1.2,1.8-4-0.2-4.9c-0.8-0.4-1.7-1-2.6-1c-0.9,0-1.8,0.5-2.3,1.2c-1,1.2-1.1,2.4-0.9,3.9
				c0.2,1.5,1.5,2.5,2.8,3c1.5,0.6,3-0.2,4.2-1.1c1.3-1,1.6-2.8,1.3-4.3c-0.2-1.2-1.3-2.4-2.4-2.9c-1.5-0.7-3-0.6-4.5,0
				c-1.2,0.5-1.9,2.6-2.1,3.7c-0.4,1.6-0.1,3.3,1,4.6c1.8,2.2,5.4,2.1,7.2,0c2.1-2.5,1.2-5.8-1.2-7.7c-2.3-1.7-6.1-0.6-7.3,1.9
				c-0.8,1.8-0.7,4.1,0.7,5.5c1.3,1.3,3.3,1.8,5,1.2c1.8-0.7,3.2-2.4,3-4.5c-0.2-1.9-1.5-3.8-3.5-4.1c-1.3-0.2-2.7,0.3-3.1,1.7
				c-0.3,1.2,0.4,2.8,1.7,3.1c0.3,0.1,0.3,0,0-0.1c-0.2-0.2-0.2-0.2,0,0c-0.2-0.2-0.2-0.2,0,0c-0.1-0.1-0.1-0.7-0.1-0.2
				c0-0.2,0-0.3,0.1-0.5c0.2-0.4-0.2,0.1,0.2-0.2c0.3-0.1,0.3-0.1,0,0c0.6-0.2-0.3-0.1,0.3,0c-0.3-0.1-0.3-0.1,0,0
				c0.1,0.1,0.4,0.5,0.1,0.1c0.1,0.1,0.1,0.2,0.1,0.3c-0.1-0.6-0.1,0.3,0-0.3c-0.1,0.2-0.1,0.2,0-0.1c-0.1,0.2-0.4,0.4,0,0.1
				c-0.2,0.1-0.2,0.1,0.1,0c-0.5,0.1,0.4,0.1-0.1,0c0.3,0.1,0.3,0.1,0.1,0c0.4,0.2,0.1,0.1,0-0.1c0.1,0.3,0.2,0.3,0.1,0
				c0,0.1,0.1,0.8,0.1,0.3c0,0.3,0,0.3,0,0c-0.1,0.5,0,0,0.1-0.1c0.2-0.1,0.2-0.1,0,0c0.5-0.3-0.4,0,0.2,0c-0.3,0-0.3,0,0,0
				c-0.6-0.1,0.3,0.2-0.2-0.1c0.1,0,0.2,0.1,0.3,0.2c0.2,0.4,0-0.4,0,0.1c0-0.3,0-0.3,0-0.1c0-0.3,0.1-0.5,0.2-0.8
				c-0.1,0.2,0,0.1,0.1-0.2c0.1-0.2,0.3-0.5,0.4-0.7c-0.3,0.3-0.6,0.6-0.9,0.9c-0.1,0.1-0.2,0.1-0.4,0.1c0.3,0,0.3,0,0,0
				c0.3,0.1,0.3,0.1,0,0c0.2,0.2,0.3,0.2,0,0c-0.1-0.2-0.1-0.2,0,0c-0.1-0.1-0.1-0.2-0.2-0.4c0-0.3,0.3-0.6,0-0.3
				c0.2-0.2,0.4-0.3,0.7-0.2c0.4,0.1,0.6,0.3,0.8,0.6c-0.1-0.2-0.1-0.2,0,0.1c-0.1-0.3-0.1-0.2,0,0.1c0-0.3,0-0.3,0,0.1
				c-0.1,0.2-0.2,0.3-0.3,0.5c-0.3,0.2-0.3,0.2,0,0.1c-0.8,0-1.7,0-2.5,0c0.4,0.2,0.9,0.4,1.3,0.6c-0.4-0.5-0.8-1-1.1-1.5
				c0.1-0.5,0.2-1,0.3-1.4C658.8,131.3,662.5,134.8,664.6,132.5L664.6,132.5z"/>
		</g>
	</g>
	<g display="inline">
		<g>
			<path fill="#EEB22A" d="M613.8,130.8c0.1,0,0.5,0.3,0.5,0.4c0-0.1-0.1,0.3,0,0c-0.2,0.4-0.1,0.1,0.2,0.1c-1.4,0.1-2.5,1-2.5,2.5
				c0,1.3,1.1,2.6,2.5,2.5c2.8-0.3,4.7-2.3,4.8-5.1c0.1-3-2.8-5-5.5-5.3c-1.4-0.1-2.5,1.2-2.5,2.5
				C611.3,129.8,612.5,130.7,613.8,130.8L613.8,130.8z"/>
		</g>
	</g>
	<g display="inline">
		<g>
			<path fill="#EEB22A" d="M619.2,156.1c2.6,0,2.6-4,0-4S616.6,156.1,619.2,156.1L619.2,156.1z"/>
		</g>
	</g>
	<g display="inline">
		<g>
			<path fill="#EEB22A" d="M634.5,155.4c2.6,0,2.6-4,0-4S632,155.4,634.5,155.4L634.5,155.4z"/>
		</g>
	</g>
</g>
<g id="black_text" display="none">
	<text transform="matrix(1 0 0 1 455.6953 279.0961)" display="inline" fill="#82819F" font-family="'Gotham-Bold'" font-size="63">HELLO      hello</text>
	<text transform="matrix(1 0 0 1 455.6953 354.6961)" display="inline" fill="#82819F" font-family="'Gotham-Bold'" font-size="63">WENDY CHEN</text>
	<text transform="matrix(1 0 0 1 455.6953 430.2961)" display="inline" fill="#82819F" font-family="'Gotham-Bold'" font-size="63">Wendy Chen</text>
</g>
<g id="white_text" display="none">
	<text transform="matrix(1 0 0 1 476.4234 267.1052)" display="inline" fill="#F4E286" font-family="'Gotham-Bold'" font-size="63">HELLO      </text>
	
		<text transform="matrix(1 0 0 1 811.4234 267.1052)" display="inline" fill="#F4E286" font-family="'Gotham-Light'" font-size="63">hello</text>
	<text transform="matrix(1 0 0 1 476.4234 342.7052)" display="inline" fill="#F4E286" font-family="'Gotham-Bold'" font-size="63">WENDY CHEN</text>
	
		<text transform="matrix(1 0 0 1 476.4234 418.3052)" display="inline" fill="#F4E286" font-family="'Gotham-Light'" font-size="63">Wendy Chen</text>
</g>
<g id="yellow_text" display="none">
	<text transform="matrix(1 0 0 1 501.4323 270.1013)" display="inline" fill="#EEB22A" font-family="'Gotham-Bold'" font-size="63">HELLO      hello</text>
	<text transform="matrix(1 0 0 1 501.4323 345.7013)" display="inline" fill="#EEB22A" font-family="'Gotham-Bold'" font-size="63">WENDY CHEN</text>
	<text transform="matrix(1 0 0 1 501.4323 421.3013)" display="inline" fill="#EEB22A" font-family="'Gotham-Bold'" font-size="63">Wendy Chen</text>
</g>
</svg>
