<?xml version="1.0" encoding="utf-8"?>
<!-- Generator: Adobe Illustrator 18.0.0, SVG Export Plug-In . SVG Version: 6.00 Build 0)  -->
<!DOCTYPE svg PUBLIC "-//W3C//DTD SVG 1.1//EN" "http://www.w3.org/Graphics/SVG/1.1/DTD/svg11.dtd">
<svg version="1.1" id="Layer_1" xmlns="http://www.w3.org/2000/svg" xmlns:xlink="http://www.w3.org/1999/xlink" x="0px" y="0px"
	 viewBox="0 0 145 166" enable-background="new 0 0 145 166" xml:space="preserve">
<g>
	<g>
		<path fill="#FFFFFF" d="M63.5,37.6c9.8-8.9,24.5-9.9,35.8-3.2c10.8,6.4,15.8,19.8,14.5,31.9c-0.3,2.9,4.2,2.9,4.5,0
			c1.6-14.5-5.3-29-18-36.5c-12.6-7.4-29.4-4.9-40,4.6C58.1,36.3,61.3,39.5,63.5,37.6L63.5,37.6z"/>
	</g>
</g>
<g>
	<g>
		<path fill="#FFFFFF" d="M29.6,30.3c4.6-1.5,9.9-0.9,14.7-0.5c5.8,0.5,11.3,2.5,15.5,6.6c2.1,2,5.3-1.2,3.2-3.2
			c-4.1-3.9-8.9-6.1-14.4-7.3c-6.2-1.4-14.1-2-20.2,0C25.7,26.8,26.8,31.2,29.6,30.3L29.6,30.3z"/>
	</g>
</g>
<g>
	<g>
		<path fill="#FFFFFF" d="M27.6,29.4c6.5,5,4.9,15.1,6.2,22.2c1.2,6.6,6,12,11.8,15.2c2.6,1.4,4.9-2.5,2.3-3.9
			c-8.8-4.9-9.9-12.8-10.7-22c-0.5-6.1-2.3-11.6-7.3-15.4C27.5,23.7,25.3,27.7,27.6,29.4L27.6,29.4z"/>
	</g>
</g>
<g>
	<g>
		<path fill="#FFFFFF" d="M104.6,35c7.3-7.3,17.4-9.4,27.1-11.4c-0.7-1.3-1.5-2.5-2.2-3.8c-3.9,4.4-5.2,9.6-6.2,15.3
			c-1.3,7.8-3.4,14.6-8.8,20.7c-2,2.2,1.2,5.4,3.2,3.2c4.4-4.9,7.4-10.5,9-16.9c1.6-6.5,1.3-13.8,6-19c1.6-1.7,0-4.2-2.2-3.8
			c-10.5,2.1-21.2,4.7-29.1,12.5C99.3,33.8,102.5,37,104.6,35L104.6,35z"/>
	</g>
</g>
<g>
	<g>
		<path fill="#FFFFFF" d="M50.9,84.2c5.7,17.9,21.8,26.4,39.9,23.8c18-2.5,35.3-17.5,33.5-36.8c-0.3-2.9-4.8-2.9-4.5,0
			c1.6,17.3-13.2,29-28.8,32.2c-15.9,3.3-30.8-4.8-35.7-20.4C54.4,80.3,50,81.4,50.9,84.2L50.9,84.2z"/>
	</g>
</g>
<g>
	<g>
		<path fill="#FFFFFF" d="M122.5,68c-1.5-1.6-3.4-2.6-5.4-3.4c-1.2-0.4-2.5,0.5-2.8,1.6c-0.4,1.3,0.4,2.3,1.6,2.8
			c1.2,0.5,2.4,1.2,3.4,2.2C121.4,73.3,124.6,70.1,122.5,68L122.5,68z"/>
	</g>
</g>
<g>
	<g>
		<path fill="#FFFFFF" d="M123.8,75.7c3.5-16.2-32-17.9-34.8-2c-2.7,15.3,32.8,18.9,34.5,2.8c0.3-2.9-4.2-2.9-4.5,0
			c-1,9.6-27.1,7.2-25.3-2.9c1.7-9.4,27.8-8,25.8,1C118.8,77.4,123.2,78.6,123.8,75.7L123.8,75.7z"/>
	</g>
</g>
<g>
	<g>
		<path fill="#FFFFFF" d="M115.3,76.4c0.1,0.1,0.3,0.1,0.4,0.2c1.1,0.5,2.4,0.3,3.1-0.8c0.6-1,0.3-2.6-0.8-3.1
			c-0.1-0.1-0.3-0.1-0.4-0.2c-1.1-0.5-2.4-0.3-3.1,0.8C113.9,74.3,114.2,75.9,115.3,76.4L115.3,76.4z"/>
	</g>
</g>
<g>
	<g>
		<path fill="#FFFFFF" d="M97.1,75.2c0.1,0.1,0.1,0.3,0.2,0.4c0.6,1.1,2.1,1.4,3.1,0.8c1.1-0.6,1.4-2,0.8-3.1
			c-0.1-0.1-0.1-0.3-0.2-0.4c-0.6-1.1-2.1-1.4-3.1-0.8C96.9,72.7,96.5,74.1,97.1,75.2L97.1,75.2z"/>
	</g>
</g>
<g>
	<g>
		<path fill="#FFFFFF" d="M115.9,61.3c0-1-0.5-1.9-1.4-2.4c-1.2-0.6-2.4-0.3-3.4,0.5c-1.2,0.9-1.7,2.5-1.8,3.9
			c-0.1,1.2,1.1,2.3,2.3,2.3c1.3,0,2.1-1,2.3-2.3c-0.1,0.6,0,0.1,0,0c0-0.1,0.1-0.2,0.1-0.3c-0.1,0.3-0.1,0.3,0,0.1
			c0.1-0.1,0.5-0.7,0.1-0.2c0.1-0.1,0.1-0.1,0.2-0.2c-1,0.9-2,0.4-2.8-1.4c0,1.2,1,2.3,2.3,2.3C114.9,63.6,116,62.6,115.9,61.3
			L115.9,61.3z"/>
	</g>
</g>
<g>
	<g>
		<path fill="#FFFFFF" d="M74.1,61.9c-0.5-2.7-3-4.6-5.7-4.5c-3,0-5.2,2.8-5.3,5.6c-0.1,2.7,2.3,5.2,4.8,5.7
			c2.8,0.6,5.9-1.3,6.4-4.2c0.4-2.5-1.3-6.1-4.3-5.9c-2.9,0.2-5.3,3.3-4.5,6.2c0.4,1.5,2,2.4,3.5,2c1.6-0.4,2.5-2.3,2.1-3.9
			c-0.9-3.8-6.6-2.3-5.5,1.4c0.9,2.8,5.2,1.6,4.4-1.2c0-0.1-0.1-0.2-0.1-0.3c0,0.4,0,0.8,0,1.2c0-0.1,0-0.2,0.1-0.3
			c-0.2,0.3-0.4,0.7-0.6,1c0.1-0.1,0.1-0.2,0.2-0.2c-0.3,0.2-0.7,0.4-1,0.6c0.1,0,0.2,0,0.3-0.1c-0.4,0-0.8,0-1.2,0
			c0.1,0,0.2,0.1,0.3,0.1c-0.3-0.2-0.7-0.4-1-0.6c0.1,0.1,0.1,0.1,0.2,0.2c-0.2-0.3-0.4-0.7-0.6-1c0-0.2,0-0.3,0-0.5
			c0.3-0.3,0.5-0.5,0.8-0.8c-0.1,0.1-0.2,0.1-0.3,0.2c0.4-0.1,0.8-0.2,1.1-0.3c-0.1,0-0.2,0-0.3,0c0.4,0.1,0.8,0.2,1.1,0.3
			c-0.1,0-0.2-0.1-0.3-0.1c0.3,0.3,0.5,0.5,0.8,0.8c-0.1-0.1-0.1-0.2-0.2-0.3c0.1,0.4,0.2,0.8,0.3,1.1c-0.1-0.5,0-0.8,0.4-1.3
			c-0.6-0.1-0.8,0-0.6,0.2c0.1,0.1,0.1,0.2,0.1,0.3c0.1,0.9-1.1,0.8-1.6,0.5c-1.8-1,1-3.5,1.4-0.9C70.3,66,74.7,64.8,74.1,61.9
			L74.1,61.9z"/>
	</g>
</g>
<g>
	<g>
		<path fill="#FFFFFF" d="M45.2,67.6c-0.1-0.1-0.7,5.7-0.7,6.3c0.1,2.4,0.5,4.7,1,7c0.7,2.8,5.1,1.6,4.4-1.2c-0.7-3-1-6-0.9-9.1
			c0.1-2.2,1.1-4.6-0.7-6.2C46.3,62.4,43.1,65.6,45.2,67.6L45.2,67.6z"/>
	</g>
</g>
<g>
	<g>
		<path fill="#FFFFFF" d="M52,81.2C47.5,78,39.2,75,36,81.4c-3.1,6.2,0.7,15.4,3.4,21c3.2,6.5,7.7,14.7,15.1,16.8
			c7,2,13.8-3.3,18.9-7.3c2.3-1.8-0.9-5-3.2-3.2c-3.6,2.9-7.3,5.7-12,6.3c-6.2,0.8-9.5-5.8-12.3-10.2c-2.7-4.2-4.7-8.8-5.8-13.6
			c-0.4-1.7-1.5-8.5,1.8-8.9c2.8-0.4,5.7,1.5,7.8,3C52.1,86.8,54.4,82.9,52,81.2L52,81.2z"/>
	</g>
</g>
<g>
	<g>
		<path fill="#FFFFFF" d="M56.9,88.2c-1.7-3.3-4.2-6.1-7.3-8.2c-2.4-1.7-4.7,2.3-2.3,3.9c2.4,1.7,4.3,3.9,5.6,6.6
			C54.3,93.1,58.3,90.8,56.9,88.2L56.9,88.2z"/>
	</g>
</g>
<g>
	<g>
		<path fill="#FFFFFF" d="M69.3,105.3c-1.2,5,1.5,9.8,6.6,11c5.1,1.2,9.4-2.9,11-7.3c0.3-0.7,0-1.7-0.6-2.2
			c-0.1-0.1-0.3-0.3-0.4-0.4c-2.1-2-5.3,1.2-3.2,3.2c0.1,0.1,0.3,0.3,0.4,0.4c-0.2-0.7-0.4-1.5-0.6-2.2c-0.7,2-2.4,3.8-4.6,4.1
			c-3.1,0.4-4.9-2.7-4.3-5.4C74.3,103.6,70,102.4,69.3,105.3L69.3,105.3z"/>
	</g>
</g>
<g>
	<g>
		<path fill="#FFFFFF" d="M78.1,115.8c3,4.9,8.2,8.2,14,8.7c7,0.5,11.8-2,16-7.7c2.5-3.4,4.7-6.9,6.8-10.6c1.8-3.2,4.5-6.6,4.3-10.4
			c-0.2-3.8-5.6-3.5-6.6-0.3c-0.9,2.8,3.5,4,4.4,1.2c-0.9,0.3-1.7,0.6-2.6,0.9c-0.6,1.1-1.1,2.1-1.7,3.2c-0.9,1.6-1.8,3.2-2.7,4.7
			c-2.3,4-4.8,7.8-7.8,11.3c-5.4,6.4-16.5,3-20.3-3.2C80.5,111.1,76.6,113.3,78.1,115.8L78.1,115.8z"/>
	</g>
</g>
<g>
	<g>
		<path fill="#FFFFFF" d="M36.7,98.9c-5.1,9.3-6.7,19.5-5.1,29.9c0.7,4.7,2.3,9.7,4.9,13.7c2.2,3.5,6.9,0.9,9.5-0.5
			c2.6-1.4,0.3-5.4-2.3-3.9c-2,1.1-3.4,2.1-4.6-0.2c-0.9-1.8-1.5-3.6-2-5.5c-1.1-3.4-1.5-7-1.6-10.6c-0.3-7.2,1.7-14.3,5.2-20.6
			C42,98.6,38.1,96.4,36.7,98.9L36.7,98.9z"/>
	</g>
</g>
<g>
	<g>
		<path fill="#FFFFFF" d="M37.1,127.1c1.3,5.2,4.9,13.1,10.7,14.5c2.8,0.7,4.1-3.7,1.2-4.4c-2.1-0.5-3.8-3.2-4.9-5
			c-1.3-2-2-4.1-2.6-6.4C40.8,123.1,36.4,124.3,37.1,127.1L37.1,127.1z"/>
	</g>
</g>
<g>
	<g>
		<path fill="#FFFFFF" d="M46.4,130.2c-0.1,3.4,0.3,6.8,1.2,10.1c0.6,2,2,7.2,4.5,7.5c3,0.4,6.3,1.1,8.1-1.7
			c1.9-2.9,3.1-6.4,3.8-9.8c0.6-2.9-3.8-4.1-4.4-1.2c-0.7,3.5-2,6.6-3.9,9.6c0.7-0.4,1.3-0.7,2-1.1c-0.5,0-3.7,0.3-4-0.1
			c-0.8-1.3-1.3-2.9-1.8-4.4c-0.9-2.9-1.2-5.9-1-8.8C51,127.2,46.5,127.2,46.4,130.2L46.4,130.2z"/>
	</g>
</g>
<g>
	<g>
		<path fill="#FFFFFF" d="M62.1,137.4c8,0.2,16,0.1,24-0.2c2.9-0.1,2.9-4.7,0-4.5c-8,0.3-16,0.4-24,0.2
			C59.2,132.8,59.2,137.4,62.1,137.4L62.1,137.4z"/>
	</g>
</g>
<g>
	<g>
		<path fill="#FFFFFF" d="M83.9,135.6c0.4,2.9,0.5,5.8,0.4,8.7c0,1.2,1.1,2.3,2.3,2.3c1.6,0,4.9,0.7,6.3-0.4c1.9-1.4,2.9-3.5,4-5.6
			c2.9-5.2,4.7-11,5.8-16.8c0.5-2.9-3.9-4.1-4.4-1.2c-0.8,4.6-2.1,8.9-4,13.1c-0.8,1.7-1.7,3.4-2.7,5.1c-1.2,2-2.8,1.3-5,1.2
			c0.8,0.8,1.5,1.5,2.3,2.3c0.1-2.9-0.1-5.8-0.4-8.7C88,132.7,83.5,132.7,83.9,135.6L83.9,135.6z"/>
	</g>
</g>
<g>
	<g>
		<path fill="#FFFFFF" d="M15.6,123.9c2.1,3.7,7.2,5.5,10.8,2.4c1.7-1.4,2.5-3,1.7-5.2c-0.5-1.4-2.5-2.6-4-2.1
			c-3.7,1.1-4.9,6.2-2.1,9c3.8,3.7,8.9,2.5,12.5-0.8c1.4-1.3-0.7-3.5-2.1-2.1c-2.3,2.1-6.2,3.7-8.4,0.4c-1.7-2.5,3.2-2.4-0.6-0.9
			c-2.1,0.9-4.1-0.5-5.1-2.2C17.3,120.6,14.6,122.2,15.6,123.9L15.6,123.9z"/>
	</g>
</g>
<g>
	<g>
		<path fill="#FFFFFF" d="M71.1,104.9c-3.7-2.4-10.6-4-14.3-0.9c-1.2,1-1.5,3.4-0.3,4.5c2.1,1.9,4.3,1,6.9,1.4c1.9,0.3,1.9-2.8,0-3
			c-0.9-0.1-1.6-0.1-2.5,0c-1.3,0.3-1.2-0.1,0.1-1.3c0.5,0,1.1,0,1.6,0c2.5,0,4.9,0.7,7,2C71.2,108.6,72.7,105.9,71.1,104.9
			L71.1,104.9z"/>
	</g>
</g>
<g>
	<g>
		<path fill="#FFFFFF" d="M84.3,111.5c1.8-0.6,3.6-0.8,5.4-0.5c1,0.2,2,0.5,3,0.9c0.3,0.6,0,0.9-0.8,0.7c-0.6,0-1.1-0.1-1.6-0.4
			c-1.7-0.9-3.3,1.7-1.5,2.6c1.7,0.9,3.9,1.2,5.6,0.2c1.3-0.7,2.8-2.4,1.6-4c-2.7-3.7-8.7-3.8-12.6-2.5
			C81.6,109.2,82.4,112.1,84.3,111.5L84.3,111.5z"/>
	</g>
</g>
</svg>
