<?xml version="1.0" encoding="utf-8"?>
<!-- Generator: Adobe Illustrator 18.0.0, SVG Export Plug-In . SVG Version: 6.00 Build 0)  -->
<!DOCTYPE svg PUBLIC "-//W3C//DTD SVG 1.1//EN" "http://www.w3.org/Graphics/SVG/1.1/DTD/svg11.dtd">
<svg version="1.1" id="Layer_1" xmlns="http://www.w3.org/2000/svg" xmlns:xlink="http://www.w3.org/1999/xlink" x="0px" y="0px"
	 viewBox="0 134 612 505" enable-background="new 0 134 612 505" xml:space="preserve">
<g>
	<g>
		<path fill="#E91E5A" d="M433.9,261.1c-14.8-15.7-42.9-21.8-63.8-21.8c-23.8,0-46.7,9.9-64.4,25.2c-5.5,4.9,2.6,12.8,8.1,8.1
			c16-13.9,35.1-20.9,56.3-21.8c17.4-0.9,43.2,5.2,55.7,18.3C431,274.5,438.8,266.6,433.9,261.1L433.9,261.1z"/>
	</g>
</g>
<g>
	<g>
		<path fill="#E91E5A" d="M308.3,266.3c-14.2-11.6-30.2-17.7-48.4-20.3c-13.6-2-41.8-5.5-51,7.3c-4.4,6.1,5.5,11.6,9.9,5.8
			c2-2.9,14.2-2.3,17.4-2.6c8.7-0.6,17.7,0,26.4,1.2c13.9,2,27,7.8,37.7,16.5C306,278.8,314.1,271,308.3,266.3L308.3,266.3z"/>
	</g>
</g>
<g>
	<g>
		<path fill="#E91E5A" d="M265.7,322c-20.3,34.5-9,73.7,11,105.6c3.8,6.1,13.6,0.6,9.9-5.8c-18-28.4-29.3-62.9-11-94
			C279.3,321.5,269.5,315.7,265.7,322L265.7,322z"/>
	</g>
</g>
<g>
	<g>
		<path fill="#E91E5A" d="M370.1,425.9c-21.8-14.8-50.2-22-76-13.3c-19.1,6.7-32.5,32.5-17.1,49.3c17.4,19.1,52.5,20.3,75.7,13.1
			c20.9-6.4,31.3-30.2,17.1-47.6c-4.6-5.8-12.8,2.3-8.1,8.1c18.9,23.2-22.3,31.6-36.3,31.3c-15.1-0.3-32.8-1.2-42.1-15.1
			c-13.9-20.6,18.9-31.3,32.5-31.6c17.1-0.6,33.9,6.1,47.9,15.4C370.4,439.8,376.2,429.9,370.1,425.9L370.1,425.9z"/>
	</g>
</g>
<g>
	<g>
		<path fill="#E91E5A" d="M303.7,476.1c1.5,22.9,6.4,44.7,15.1,65.6c3.5,8.1,7.3,18.6,13.3,24.9c5.8,6.4,12.8,3.8,20.3,2.3
			c7.3-1.5,4.1-12.5-2.9-11c-15.1,2.9-21.2-22.6-25.2-33.6c-5.5-15.7-8.1-31.9-9.3-48.4C314.7,468.8,303.1,468.8,303.7,476.1
			L303.7,476.1z"/>
	</g>
</g>
<g>
	<g>
		<path fill="#E91E5A" d="M351.8,565.1c7.3,0,7.3-11.3,0-11.3S344.3,565.1,351.8,565.1L351.8,565.1z"/>
	</g>
</g>
<g>
	<g>
		<path fill="#E91E5A" d="M356.5,561.9c2.3-4.6,4.9-9.6,7.3-14.2c3.2-6.7-6.4-12.2-9.9-5.8c-2.3,4.6-4.9,9.6-7.3,14.2
			C343.1,562.8,353,568.6,356.5,561.9L356.5,561.9z"/>
	</g>
</g>
<g>
	<g>
		<path fill="#E91E5A" d="M325.1,503.9c4.4,14.5,11.9,27,22.6,37.7c13.6,13.6,29.9,16,46.4,23.5c6.7,2.9,12.5-6.7,5.8-9.9
			c-12.2-5.5-25.2-7.8-36.5-15.7c-13.6-9-22.9-23.5-27.3-38.9C334.1,493.7,323.1,496.9,325.1,503.9L325.1,503.9z"/>
	</g>
</g>
<g>
	<g>
		<path fill="#E91E5A" d="M406.4,520.7c0.3,0.3,0.6,0.6,0.9,0.9c2.3,2.3,5.8,2.3,8.1,0c2.3-2.3,2.3-5.8,0-8.1
			c-0.3-0.3-0.6-0.6-0.9-0.9c-2.3-2.3-5.8-2.3-8.1,0C404.3,514.9,404.3,518.4,406.4,520.7L406.4,520.7z"/>
	</g>
</g>
<g>
	<g>
		<path fill="#E91E5A" d="M406.6,517.8c-1.5,18.9-7,36.8-16.2,53.4c-2,3.5,0,7,3.5,8.4c25.2,10.4,42.9-27.8,50.5-45.5
			c2.9-6.7-7-12.5-9.9-5.8c-5.2,12.5-19.7,47.6-37.7,40.3c1.2,2.9,2.3,5.5,3.5,8.4c10.2-18.3,16.2-38,17.7-59.2
			C418.5,510.3,407.2,510.6,406.6,517.8L406.6,517.8z"/>
	</g>
</g>
<g>
	<g>
		<path fill="#E91E5A" d="M424.6,567.7c18.6,1.7,36.5-2.3,52.5-11.9c6.4-3.8,0.6-13.6-5.8-9.9c-14.5,8.4-30.2,11.9-46.7,10.2
			C417.4,555.8,417.4,567.1,424.6,567.7L424.6,567.7z"/>
	</g>
</g>
<g>
	<g>
		<path fill="#E91E5A" d="M443.2,567.7c3.5,17.7,21.2,12.8,32.8,6.4c16.8-9.3,33.9-25.2,38.9-44.1c2-7.3-9-10.2-11-2.9
			c-3.8,14.2-15.4,24.4-27,32.8c-4.6,3.5-20.9,15.1-22.9,4.9C452.8,557.6,441.7,560.7,443.2,567.7L443.2,567.7z"/>
	</g>
</g>
<g>
	<g>
		<path fill="#E91E5A" d="M213.5,265.5c22-7.8,27.6,16.8,30.5,32.8c2.3,12.5,5.8,24.4,15.7,33.1c5.5,4.9,13.6-3.2,8.1-8.1
			c-14.8-13.1-12.2-36.5-20.3-53.7c-6.7-14.2-22.3-20-36.8-15.1C203.3,257.1,206.5,268.1,213.5,265.5L213.5,265.5z"/>
	</g>
</g>
<g>
	<g>
		<path fill="#E91E5A" d="M440.9,276.8c22.9-23.8,64.7-3.8,83.8-35.1c3.8-6.4-6.1-11.9-9.9-5.8c-10.4,17.4-33.1,15.7-50.8,18
			c-12.2,1.7-22.9,6.1-31.3,15.1C427.8,273.9,435.9,282,440.9,276.8L440.9,276.8z"/>
	</g>
</g>
<g>
	<g>
		<path fill="#E91E5A" d="M516.6,243.1c0.9,18.3,0.6,36.3-4.6,53.9c-5.8,20.3-21.2,33.4-38,45c-6.1,4.1-0.3,14.2,5.8,9.9
			c16.5-11.6,32.2-24.1,40-43.2c8.4-20.9,9.6-43.2,8.4-65.6C527.6,235.6,516.3,235.6,516.6,243.1L516.6,243.1z"/>
	</g>
</g>
<g>
	<g>
		<path fill="#E91E5A" d="M472.8,351c8.4,28.7,16.8,57.7,25.5,86.4c9,30.2,18.6,61.8,7.3,92.8c-2.6,7,8.4,9.9,11,2.9
			c10.2-27.6,4.9-56-2.6-83.5c-9.3-34.2-20-67.9-29.9-101.8C481.8,340.9,470.7,343.8,472.8,351L472.8,351z"/>
	</g>
</g>
<g>
	<g>
		<path fill="#E91E5A" d="M287.1,441.8c-1.2,2.6-1.2,5.5,0.9,7.5c2.3,2.3,4.9,2.3,7.8,1.2c2.9-1.5,3.5-5.2,2-7.8
			c-1.7-2.9-4.9-3.5-7.8-2h-0.3c0.9-0.3,2-0.6,2.9-0.9h-0.3c0.9,0.3,2,0.6,2.9,0.9c0.6,0.6,0.9,0.9,1.5,1.5c0.3,0.9,0.6,2,0.9,2.9
			v-0.3c-0.3,0.9-0.6,2-0.9,2.9v-0.3c1.5-2.9,0.9-6.1-2-7.8C292.4,438.3,288.3,439.2,287.1,441.8L287.1,441.8z"/>
	</g>
</g>
<g>
	<g>
		<path fill="#E91E5A" d="M350.4,447.3c0,0.3-0.3,0.6-0.3,0.9c-0.6,0.6-1.5,1.5-2,2c-1.5,0.6-2.9,0.6-4.4,0c-0.6-0.6-1.5-1.5-2-2
			c0-0.3-0.3-0.6-0.3-0.9c0.6,2.9,4.1,4.6,7,4.1c3.2-0.9,4.6-4.1,4.1-7c-1.5-6.4-11.3-6.4-12.8,0c-0.6,2.9,0.9,6.1,4.1,7
			C346,452,349.5,450.2,350.4,447.3L350.4,447.3z"/>
	</g>
</g>
<g>
	<g>
		<path fill="#E91E5A" d="M425.5,387.9c2-2.9,2.3-7.3,0.6-10.4c-2-4.1-5.5-5.8-9.9-6.1c-7.5-0.9-14.2,6.7-15.4,13.6
			c-1.5,7.3,2.3,14.8,9.9,16.5c9,2,16-5.2,19.7-12.5c0.9-1.7,1.2-4.1,0-5.8c-2.6-4.1-5.8-8.1-10.4-10.2c-4.1-1.7-10.2-1.5-13.3,2
			c-7,7.8-6.1,22,6.4,22.6c4.6,0.3,9-3.2,11-7c2.6-4.6,1.2-10.2-2.6-13.6c-7.8-7.8-21.5,0.9-18,11.3c0.9,2.3,2.9,4.1,5.5,4.1
			c4.9,0,7.8-3.8,9-8.1c2-7-9-10.2-11-2.9c-0.3,0.9,0,0.9-0.6,1.2c0.9-0.6,1.7-0.9,2.6-1.5l0,0c1.7,1.5,3.8,2.9,5.5,4.1
			c-0.3-0.6-0.6,0-0.3-0.3c-1.2,0.9-0.9-0.3-0.3,0.6c0-0.3-0.6,0.3-0.9,0.6c0.3-0.3,0.6,1.2,0.6,0.3c0-1.2,0.3-3.8,1.7-3.5
			c2.6,0.6,4.1,3.5,5.5,5.5c0-2,0-3.8,0-5.8c-1.2,2.3-2.9,5.8-5.5,7c-1.2,0.6-2.9,0.6-3.2-1.2c-0.3-2,0.3-3.8,1.7-5.2
			c0.6-0.6,1.7-0.9,2.6-1.2c-0.6,0-0.3-0.9-0.6-0.6c-1.7,2.6-0.6,6.4,2,7.8C420.6,391.6,423.8,390.2,425.5,387.9L425.5,387.9z"/>
	</g>
</g>
<g>
	<g>
		<path fill="#E91E5A" d="M283.4,394.5c0.6-2,1.5-4.6,0.9-6.7c-0.6-1.7-2-3.8-3.8-4.6c-3.5-2-8.4-2-11.3,1.2
			c-6.4,5.8-2.3,16,6.4,16.5c7.3,0.3,13.3-8.1,9.6-14.8c-3.5-6.1-13.1-8.1-17.4-2c-4.6,5.8-2.6,15.4,4.9,17.7s15.1-3.8,15.1-11.6
			c0-8.4-9.6-13.9-17.1-10.4c-7.3,3.5-8.7,12.8-3.8,18.6c3.2,3.8,9,2.9,12.8,0.9s6.7-6.1,7-10.4s-2-8.4-5.8-10.4
			c-2-1.2-4.6-1.5-7-0.9c-2.3,0.6-4.1,2.3-6.1,3.5c-2.6,1.7-3.8,4.9-2,7.8c1.5,2.6,5.2,3.8,7.8,2c0.6-0.3,1.2-0.9,1.7-1.2
			c0.3-0.3,2.9-1.5,0.9-1.2c-0.3,0-0.6,0-0.6-0.6c0-0.3-0.3,0.6-0.9,0.9c-0.6,0.6-0.6,0.3-1.2,0.6c0.6,0,1.5,0.3,1.7,0.9l0.3,0.3
			c0,0.9,0.3-0.9,0-0.3c0.3-0.6,1.2-0.6,0.3-0.6c0.3,0,0.6,0.3,0.9,0.6c0,0,0-1.5,0,0.3c0-0.3,0-0.3,0-0.6c-0.6,0.6-0.6,0.6-0.3,0.3
			c0.6-0.3-0.9,0.3-0.3,0c0.3,0,0.6,0.3,0.6,0.3c-0.9-0.6-0.3-0.3,0,0c-0.6-1.5,0,0.6,0-0.9c0,0.6-0.3,0.6-0.6,0.9
			c-0.3,0.3-0.9,0.3-0.9,0.3c1.5-0.3-0.6-0.3,0.9,0c-0.9-0.3-0.9-0.9-0.9-1.7c0-0.6,0.3-0.6,0.9-0.9c-1.2,0.9,0.6,0-0.6,0.3
			c0.9-0.3,2.3,0.3,2.3,1.5c0,1.7-2.6,2.9-3.5,1.2c-0.3-1.5-0.3-2.9-0.6-4.4c-0.3,1.2-0.6,2.6-0.9,3.8c-0.6,2.9,0.9,6.1,4.1,7
			C279,399.5,282.8,397.7,283.4,394.5L283.4,394.5z"/>
	</g>
</g>
<g>
	<g>
		<path fill="#E91E5A" d="M505,532.6c9.3,11.6,24.7,11.9,34.8,1.5c6.7-6.7,4.6-22.9-7.5-19.1c-11,3.5-15.1,16.2-8.1,25.5
			c10.2,13.9,29.3,3.2,39.4-4.1c3.8-2.9,0-9.6-3.8-6.7c-7.3,5.5-25.2,18-31.3,3.2c-3.2-7.8,15.4-10.4,2-0.9
			c-7,4.9-15.4,0.9-20.3-4.9C507.3,523.3,501.8,528.8,505,532.6L505,532.6z"/>
	</g>
</g>
<g>
	<g>
		<path fill="#E91E5A" d="M413.6,389.3c5.5,1.5,11.3-1.7,12.5-7.5c1.5-6.7-5.2-11.9-11.3-10.4c0.9,2.3,2,4.6,2.9,7
			c1.7-0.9,3.5,1.5,3.5,2.9c0.3,2.9-1.7,6.1-3.2,8.4c-2.9,4.1,3.8,7.8,6.7,3.8c3.5-5.2,6.1-11.6,2.6-17.4c-2.6-4.6-8.7-6.7-13.3-4.1
			c-3.8,2-1.2,7.8,2.9,7c2.6-0.6,2.3,4.1-1.2,3.2C410.7,380.9,409,388.2,413.6,389.3L413.6,389.3z"/>
	</g>
</g>
<g>
	<g>
		<path fill="#E91E5A" d="M371,186.6c10.2,1.5,16-7.8,18-16.5c2.9-12.2-9.6-19.4-19.7-18.9c-9.9,0.3-22,8.4-22,19.1
			s9,17.7,19.4,15.4c4.6-1.2,2.6-8.4-2-7.3c-5.8,1.5-10.4-2.9-9.6-9c0.9-5.5,6.1-8.4,10.7-10.2c6.1-2,15.4-0.3,16,7.5
			c0.3,3.8-3.8,13.1-8.7,12.5C368.4,178.8,366,186,371,186.6L371,186.6z"/>
	</g>
</g>
<g>
	<g>
		<path fill="#E91E5A" d="M360.2,182.5c-11.3,12.8-15.7,29-11.9,45.5c1.2,4.9,8.4,2.9,7.3-2c-2.9-13.6,0.6-27.6,10.2-38
			C368.7,184.3,363.4,178.8,360.2,182.5L360.2,182.5z"/>
	</g>
</g>
<g>
	<g>
		<path fill="#E91E5A" d="M384,226.9c2.9-16.8-0.6-33.6-10.7-47.6c-2.9-4.1-9.6,0-6.7,3.8c9,12.2,12.8,26.7,10.2,41.8
			C375.9,229.5,383.2,231.5,384,226.9L384,226.9z"/>
	</g>
</g>
<g>
	<g>
		<path fill="#E91E5A" d="M382.9,226c5.8-10.7,13.9-19.7,24.1-27c4.1-2.9,0.3-9.3-3.8-6.7c-11,7.8-20,17.7-26.7,29.6
			C374.2,226.3,380.5,230.4,382.9,226L382.9,226z"/>
	</g>
</g>
<g>
	<g>
		<path fill="#E91E5A" d="M408.7,203.4c0.6,10.2-1.2,20.3-5.2,29.6c-2,4.4,4.6,8.4,6.7,3.8c4.6-10.7,7-21.8,6.4-33.4
			C415.9,198.5,408.4,198.5,408.7,203.4L408.7,203.4z"/>
	</g>
</g>
<g>
	<g>
		<path fill="#E91E5A" d="M406.6,238.5c9-6.1,18.6-10.2,29.3-12.5c4.9-0.9,2.9-8.4-2-7.3c-11,2.3-21.5,6.7-31,13.1
			C398.8,234.7,402.6,241.4,406.6,238.5L406.6,238.5z"/>
	</g>
</g>
<g>
	<g>
		<path fill="#E91E5A" d="M436.2,226.9c-1.7,7.3-4.6,13.6-9.3,19.4c-3.2,3.8,2.3,9.3,5.5,5.5c5.5-6.7,9.3-14.2,11.3-22.9
			C444.9,224,437.4,222,436.2,226.9L436.2,226.9z"/>
	</g>
</g>
<g>
	<g>
		<path fill="#E91E5A" d="M407.2,194.4c-2.3,3.2-0.9,8.4,3.5,8.7c3.8,0.3,7.8,0.3,11.3-1.5c7.3-3.5,9-12.5,3.8-18.6
			c-5.5-6.4-14.8-4.9-20.3,0.9c-5.8,6.4-4.1,17.7,5.5,18.3c4.9,0.3,4.9-7.3,0-7.5c-4.1-0.3,0.9-6.4,2-7.3c2.3-1.5,5.5-1.5,7.3,1.2
			c4.6,6.4-5.5,7.5-9.6,7.3c0.9,0.3,1.7,0.9,2.6,1.2c0.3,0.6,0.3,1.2,0.6,1.5C416.8,194.4,410.1,190.6,407.2,194.4L407.2,194.4z"/>
	</g>
</g>
<g>
	<g>
		<path fill="#E91E5A" d="M438.3,224.6c-0.9-3.5-1.5-7.8,1.5-10.7c2-2,5.8-1.7,7.8,0c5.5,4.9-2.3,13.1-7.8,8.1c-3.8-3.2-9,2-5.5,5.5
			c5.5,4.6,13.1,4.6,18.6,0c4.9-4.4,4.9-12.8,1.2-17.7c-4.1-5.5-11.9-6.1-17.7-2.9c-7,4.1-7,13.1-5.5,19.7
			C431.9,231.5,439.1,229.5,438.3,224.6L438.3,224.6z"/>
	</g>
</g>
<g>
	<g>
		<path fill="#E91E5A" d="M429.9,256.8c5.2,1.2,9.9,3.8,13.1,8.1c2.9,4.1,9.6,0,6.7-3.8c-4.4-6.1-10.4-10.2-17.7-11.9
			C426.9,248.4,424.9,255.9,429.9,256.8L429.9,256.8z"/>
	</g>
</g>
<g>
	<g>
		<path fill="#E91E5A" d="M352.4,222.8c0.9-13.9-7.8-26.7-20.9-31.3c-4.6-1.7-6.7,5.5-2,7.3c9.9,3.8,16,13.6,15.4,24.1
			C344.6,227.8,352.1,227.5,352.4,222.8L352.4,222.8z"/>
	</g>
</g>
<g>
	<g>
		<path fill="#E91E5A" d="M314.4,211.5c1.2,10.2,4.4,19.4,9.9,28.1c2.6,4.1,9.3,0.3,6.7-3.8c-4.6-7.5-7.8-15.7-8.7-24.4
			C321.4,206.9,313.8,206.6,314.4,211.5L314.4,211.5z"/>
	</g>
</g>
<g>
	<g>
		<path fill="#E91E5A" d="M327.2,231.8c-9.6-7.5-20.9-11.6-33.1-12.2c-4.9-0.3-4.9,7.3,0,7.5c11,0.6,20.6,4.6,29.3,11
			C327.2,241.4,330.9,234.7,327.2,231.8L327.2,231.8z"/>
	</g>
</g>
<g>
	<g>
		<path fill="#E91E5A" d="M287.1,235.9c2.3,9.3,8.7,17.4,17.7,21.2c4.4,2,8.4-4.6,3.8-6.7c-7.3-3.2-12.2-9-14.2-16.8
			C293.2,229.2,286,231.3,287.1,235.9L287.1,235.9z"/>
	</g>
</g>
<g>
	<g>
		<path fill="#E91E5A" d="M318.2,209.5c7-0.3,12.5-5.8,12.2-13.1c-0.3-7-7.3-12.2-13.9-11.3c-7,0.6-11.9,7.5-11.3,14.2
			c0.6,7,7.3,11.9,13.9,11.9c4.9,0,4.9-7.5,0-7.5c-6.1,0-9.3-8.4-2.6-10.7c6.4-2.3,9,9,1.5,9C313.3,202.2,313.3,209.8,318.2,209.5
			L318.2,209.5z"/>
	</g>
</g>
<g>
	<g>
		<path fill="#E91E5A" d="M290.3,231c1.2-2.9,2.3-7,0.6-9.9c-1.5-2.6-5.2-4.1-8.1-4.6c-6.1-1.5-11.9,1.7-14.2,7.5
			c-2,5.2,0.9,11.6,6.1,13.6c6.1,2.3,13.6-0.3,18-4.6c3.5-3.5-2-9-5.5-5.5c-2.3,2.3-11.3,6.1-11.6,0.3c0-2.3,1.5-3.8,3.5-4.1
			c1.2,0,2.6,0,3.8,0.6c1.5,0.6,1.5,1.2,0.9,2.6C281.9,231.5,288.3,235.3,290.3,231L290.3,231z"/>
	</g>
</g>
<g>
	<g>
		<path fill="#E91E5A" d="M300.5,253c-0.9,2.6-2,5.5-2.9,8.1c-0.9,2,0.9,4.1,2.6,4.6c2,0.6,4.1-0.6,4.6-2.6c0.9-2.6,2-5.5,2.9-8.1
			c0.9-2-0.9-4.1-2.6-4.6C302.8,249.8,301.1,251.3,300.5,253L300.5,253z"/>
	</g>
</g>
<g>
	<g>
		<path fill="#E91E5A" d="M368.1,230.7c2-8.4,2.9-16.8,2-25.2c-0.3-4.9-8.1-4.9-7.5,0c0.6,7.8,0,15.7-1.7,23.2
			C359.7,233.6,366.9,235.6,368.1,230.7L368.1,230.7z"/>
	</g>
</g>
<g>
	<g>
		<path fill="#E91E5A" d="M393,236.2c3.2-4.6,5.8-9.3,7.8-14.5c0.9-2-0.9-4.1-2.6-4.6c-2-0.6-3.8,0.9-4.6,2.6
			c-1.7,4.6-4.4,8.7-7,12.8C383.7,236.5,390.1,240.2,393,236.2L393,236.2z"/>
	</g>
</g>
<g>
	<g>
		<path fill="#E91E5A" d="M413.3,246c4.6,1.2,9.3-1.5,10.7-6.1c1.2-4.6-6.1-6.7-7.3-2c-0.3,1.2,0.3-0.3-0.3,0.6c0.3-0.3,0.3-0.3,0,0
			c0.3-0.3,0.3-0.3-0.3,0c-0.9,0.6,0.6,0-0.6,0.3c0.3,0,0.3,0,0,0c0.3,0,0.3,0,0,0C410.7,237.3,408.7,244.6,413.3,246L413.3,246z"/>
	</g>
</g>
<g>
	<g>
		<path fill="#E91E5A" d="M344,235.9c-2.9-7.3-5.8-14.2-8.7-21.5c-1.7-4.4-9.3-2.6-7.3,2c2.9,7.3,5.8,14.2,8.7,21.5
			C338.5,242.6,346,240.5,344,235.9L344,235.9z"/>
	</g>
</g>
<g>
	<g>
		<path fill="#E91E5A" d="M320.2,243.4c-3.5-0.9-6.1-2.6-8.4-5.2c-3.2-3.8-8.7,1.7-5.5,5.5c3.2,3.5,7.3,6.1,11.9,7.3
			C322.8,252.1,324.9,244.9,320.2,243.4L320.2,243.4z"/>
	</g>
</g>
<g>
	<g>
		<path fill="#E91E5A" d="M182.1,446.5c9.9,5.5,19.7,11,29.3,16.5c3.5,2,6.7-1.7,5.2-5.2c-6.4-14.8-13.1-29.3-20.6-43.8
			c-2.3-4.4-8.7-0.6-6.7,3.8c7.5,14.2,14.5,28.7,20.6,43.8c1.7-1.7,3.5-3.5,5.2-5.2c-9.9-5.5-19.7-11-29.3-16.5
			C181.9,437.5,178.1,444.1,182.1,446.5L182.1,446.5z"/>
	</g>
</g>
<g>
	<g>
		<path fill="#E91E5A" d="M148.5,437.8c-0.9,13.9-0.3,27.6,2,41.5c0.6,3.5,5.2,3.5,7,0.9c8.4-13.1,16.8-26.1,25.2-38.9
			c2.6-4.1-3.8-7.8-6.7-3.8c-8.4,13.1-16.8,25.8-25.2,38.9c2.3,0.3,4.6,0.6,7,0.9c-2-13.1-2.6-26.1-1.7-39.4
			C156.3,432.8,148.8,432.8,148.5,437.8L148.5,437.8z"/>
	</g>
</g>
<g>
	<g>
		<path fill="#E91E5A" d="M149.1,389c-14.8,3.2-29.3,6.7-43.8,11c-2.9,0.9-4.1,5.5-0.9,7c15.4,7.5,30.2,16.2,44.1,26.1
			c4.1,2.9,7.8-3.8,3.8-6.7c-13.9-10.2-28.4-18.9-44.1-26.1c-0.3,2.3-0.6,4.6-0.9,7c14.5-4.4,29-8.1,43.8-11
			C156,395.4,154,388.2,149.1,389L149.1,389z"/>
	</g>
</g>
<g>
	<g>
		<path fill="#E91E5A" d="M183.6,384.4c11.6-3.8,22.6-8.4,33.4-13.9c-1.7-1.7-3.5-3.5-5.2-5.2c-7,15.4-14.2,30.7-22,45.8
			c-2.3,4.4,4.4,8.1,6.7,3.8c7.5-15.1,15.1-30.5,22-45.8c1.5-3.5-1.7-7-5.2-5.2c-10.2,5.2-20.6,9.6-31.6,13.1
			C176.9,378.6,179,385.8,183.6,384.4L183.6,384.4z"/>
	</g>
</g>
<g>
	<g>
		<path fill="#E91E5A" d="M186.5,378c-9.3-16.2-18.6-32.5-27.8-49c-2-3.2-7-1.7-7,2c-0.3,19.4-1.7,38.6-4.9,57.7
			c-0.9,4.9,6.7,7,7.3,2c3.2-19.7,5.2-39.7,5.2-59.7c-2.3,0.6-4.6,1.2-7,2c9.3,16.2,18.6,32.5,27.8,49
			C182.4,386.1,188.8,382.4,186.5,378L186.5,378z"/>
	</g>
</g>
<g>
	<g>
		<path fill="#E91E5A" d="M170.3,451.1c13.1,58.6,27,116.9,41.5,175.2c1.2,4.6,8.4,2.6,7.3-2c-14.5-58.3-28.4-116.6-41.5-175.2
			C176.3,444.4,169.1,446.5,170.3,451.1L170.3,451.1z"/>
	</g>
</g>
<g>
	<g>
		<path fill="#E91E5A" d="M181.3,446.5c13.1,58.6,27,116.9,41.5,175.2c1.2,4.6,8.4,2.6,7.3-2c-14.5-58.3-28.4-116.6-41.5-175.2
			C187.7,439.5,180.1,441.5,181.3,446.5L181.3,446.5z"/>
	</g>
</g>
<g>
	<g>
		<path fill="#E91E5A" d="M225.9,624.3c4.9,0,4.9-7.5,0-7.5C221,616.7,221,624.3,225.9,624.3L225.9,624.3z"/>
	</g>
</g>
<g>
	<g>
		<path fill="#E91E5A" d="M222.2,620.5c-0.6,1.7-2.9,2-4.6,1.7c-4.6-1.5-6.7,5.8-2,7.3c5.8,1.7,12.2-1.2,13.9-7
			C231.2,617.9,223.9,615.9,222.2,620.5L222.2,620.5z"/>
	</g>
</g>
<g>
	<g>
		<path fill="#E91E5A" d="M147.6,430.5c0,4.6,0,9.6,0,14.2c0,4.9,7.5,4.9,7.5,0c0-4.6,0-9.6,0-14.2
			C155.2,425.6,147.6,425.6,147.6,430.5L147.6,430.5z"/>
	</g>
</g>
<g>
	<g>
		<path fill="#E91E5A" d="M123.6,321.2c-5.8-10.7-12.5-20.9-19.7-30.5c-2.9-3.8-9.6,0-6.7,3.8c7.3,9.6,13.9,19.7,19.7,30.5
			C119.2,329.3,125.9,325.5,123.6,321.2L123.6,321.2z"/>
	</g>
</g>
<g>
	<g>
		<path fill="#E91E5A" d="M96.6,369.9c-12.2-3.5-23.2-8.4-33.9-15.1c-4.1-2.6-7.8,4.1-3.8,6.7c11,7,23.2,12.2,35.7,16
			C99.5,378.6,101.5,371.1,96.6,369.9L96.6,369.9z"/>
	</g>
</g>
<g>
	<g>
		<path fill="#E91E5A" d="M99.2,442.4c-16.2,2.6-31.6,7.5-46.4,14.5c-4.4,2-0.6,8.7,3.8,6.7c14.2-6.7,29-11,44.7-13.6
			C106.2,449.1,104.1,441.5,99.2,442.4L99.2,442.4z"/>
	</g>
</g>
<g>
	<g>
		<path fill="#E91E5A" d="M207.4,334.8c0.9-5.5,2.6-11,5.2-16c2.3-4.4-4.4-8.1-6.7-3.8c-2.9,5.5-4.9,11.6-5.8,18
			C199.3,337.4,206.5,339.4,207.4,334.8L207.4,334.8z"/>
	</g>
</g>
<g>
	<g>
		<path fill="#E91E5A" d="M141,500.4c-4.9,7.5-9,15.4-12.2,24.1c-1.7,4.6,5.8,6.7,7.3,2c2.9-7.8,6.7-15.1,11.3-22
			C150.2,500.1,143.6,496.4,141,500.4L141,500.4z"/>
	</g>
</g>
<g>
	<g>
		<path fill="#E91E5A" d="M232.3,492c4.6,2.6,9,5.2,13.6,7.8c4.4,2.3,8.1-4.1,3.8-6.7c-4.6-2.6-9-5.2-13.6-7.8
			C231.7,483,228,489.7,232.3,492L232.3,492z"/>
	</g>
</g>
</svg>
