<?xml version="1.0" encoding="utf-8"?>
<!-- Generator: Adobe Illustrator 18.0.0, SVG Export Plug-In . SVG Version: 6.00 Build 0)  -->
<!DOCTYPE svg PUBLIC "-//W3C//DTD SVG 1.1//EN" "http://www.w3.org/Graphics/SVG/1.1/DTD/svg11.dtd">
<svg version="1.1" id="Layer_1" xmlns="http://www.w3.org/2000/svg" xmlns:xlink="http://www.w3.org/1999/xlink" x="0px" y="0px"
	 viewBox="0 0 165 167" enable-background="new 0 0 165 167" xml:space="preserve">
<g>
	<g>
		<path fill="#FFFFFF" d="M101,41.7C89.6,28.8,71.8,24.5,55.7,30.5c-7.6,2.8-14.4,8.2-18.4,15.2c-4.5,7.9-4,18-3.4,26.8
			c0.2,3.1,5.1,3.2,4.9,0C38.4,65.6,38.1,58.8,40,52c2.2-7.9,9.1-13.1,16.1-16.5c14.3-6.8,31.2-1.9,41.4,9.5
			C99.7,47.5,103.1,44,101,41.7L101,41.7z"/>
	</g>
</g>
<g>
	<g>
		<path fill="#FFFFFF" d="M35.8,70.4c-10,3.6-11.6,16.8-10.9,26c0.4,5.4,2.1,10.5,4.4,15.3c2.8,5.8,7.5,9.3,11.5,14.1
			c2,2.4,5.5-1,3.5-3.5c-2.7-3.3-6-5.8-8.5-9.3c-2.4-3.5-4-7.4-5.1-11.5c-2-7.2-2.5-23.3,6.3-26.4C40,74,38.8,69.3,35.8,70.4
			L35.8,70.4z"/>
	</g>
</g>
<g>
	<g>
		<path fill="#FFFFFF" d="M39.4,125.6c1.2,9.3,4,18,8.8,26.1c0.4,0.7,1.3,1.2,2.1,1.2c1.6,0,3.2,0,4.8,0c1.2,0,2-0.8,2.4-1.8
			c1.3-3.7,2.5-7.5,3.7-11.3c0.9-3-3.8-4.3-4.7-1.3c-1.1,3.8-2.3,7.5-3.7,11.3c0.8-0.6,1.6-1.2,2.4-1.8c-1.6,0-3.2,0-4.8,0
			c0.7,0.4,1.4,0.8,2.1,1.2c-4.3-7.3-7.1-15.2-8.1-23.6C43.9,122.6,39,122.5,39.4,125.6L39.4,125.6z"/>
	</g>
</g>
<g>
	<g>
		<path fill="#FFFFFF" d="M83,141.6c-8.9,0.9-17.2-2.1-23.4-8.6c-2.2-2.3-5.6,1.2-3.5,3.5c7,7.3,16.7,11,26.8,10
			C86.1,146.1,86.1,141.2,83,141.6L83,141.6z"/>
	</g>
</g>
<g>
	<g>
		<path fill="#FFFFFF" d="M82.3,140c0,3.3-0.6,6.3-1.7,9.3c-0.6,1.5,0.9,3.1,2.4,3.1c2.2,0,4.6,0.4,6.8,0c2-0.4,3.1-1.8,4.2-3.4
			c2.7-3.8,4.5-8.5,5.3-13.1c0.6-3.1-4.1-4.4-4.7-1.3c-0.6,3.3-1.7,6.4-3.3,9.4c-0.5,1-1.6,3.6-2.9,3.6c-1.8,0-3.6,0-5.4-0.1
			c0.8,1,1.6,2.1,2.4,3.1c1.3-3.4,1.9-7,1.9-10.6C87.2,136.8,82.3,136.8,82.3,140L82.3,140z"/>
	</g>
</g>
<g>
	<g>
		<path fill="#FFFFFF" d="M95,147.3c8-1.2,15.6-3.5,23.1-6.6c2.9-1.2,0.4-5.4-2.5-4.2c-7,3-14.4,5-21.9,6.1
			C90.6,143,91.9,147.7,95,147.3L95,147.3z"/>
	</g>
</g>
<g>
	<g>
		<path fill="#FFFFFF" d="M117.5,130.2c-0.8,5.2-2.1,10.1-4.3,14.9c-0.9,1.9,0.5,4.1,2.8,3.6c2.5-0.6,4.9-1.1,7.2-2.2
			c2.2-1,3.4-3.9,4.6-5.9c3-4.9,5.7-10.5,6.3-16.3c1.2-12-6.9-21.9-17.8-26c-3-1.1-4.2,3.6-1.3,4.7c9.2,3.5,15.6,12.3,14,22.2
			c-0.7,4.1-2.6,7.9-4.6,11.5c-0.9,1.7-2.1,4.4-3.6,5.5c-1.5,1.1-4.2,1.3-6.1,1.7c0.9,1.2,1.8,2.4,2.8,3.6c2.3-5.2,3.9-10.4,4.7-16
			C122.7,128.4,118,127.1,117.5,130.2L117.5,130.2z"/>
	</g>
</g>
<g>
	<g>
		<path fill="#FFFFFF" d="M108.7,66.9c4.5,6.8,5.3,17.2,5.5,25.1c0.2,8.6-3.7,18.1-12.8,20.3c-3.1,0.7-1.8,5.5,1.3,4.7
			c9-2.2,14.3-10.2,15.9-18.9c1.1-5.9,0.2-11.9-0.7-17.7c-0.9-5.5-1.8-11.2-5-15.9C111.2,61.8,107,64.2,108.7,66.9L108.7,66.9z"/>
	</g>
</g>
<g>
	<g>
		<path fill="#FFFFFF" d="M84.7,91.4c-1.3-8.6-14.6-10.3-21.4-10.3c-7.2-0.1-20.8,5.2-18.9,14.7c3,15.5,44.2,14.8,39.5-3.1
			c-0.8-3.1-5.5-1.8-4.7,1.3c3.1,11.8-34.5,9.3-29.2-1.7c2.5-5.1,10.1-6.3,15-6.3c4.2,0,14.3,1.6,15,6.7
			C80.4,95.8,85.1,94.5,84.7,91.4L84.7,91.4z"/>
	</g>
</g>
<g>
	<g>
		<path fill="#FFFFFF" d="M44.1,38.9c-5.4-9.3-16.9-3-25.2-5c-3.1-0.7-4.4,4-1.3,4.7c3.3,0.8,6.5,0.9,9.9,0.5
			c4.1-0.5,9.8-2.2,12.4,2.2C41.5,44.1,45.7,41.6,44.1,38.9L44.1,38.9z"/>
	</g>
</g>
<g>
	<g>
		<path fill="#FFFFFF" d="M18.2,40.1c7.8,4.2,9.5,14.3,15.6,20.3c2.2,2.2,5.7-1.2,3.5-3.5c-6.5-6.4-8.1-16.5-16.6-21.1
			C17.9,34.4,15.5,38.6,18.2,40.1L18.2,40.1z"/>
	</g>
</g>
<g>
	<g>
		<path fill="#FFFFFF" d="M128.9,31.3c-11.9,0.2-22.9,4.2-32.2,11.5c-2.5,1.9,1,5.4,3.5,3.5c8.3-6.5,18.3-9.9,28.8-10.1
			C132.1,36.2,132.1,31.3,128.9,31.3L128.9,31.3z"/>
	</g>
</g>
<g>
	<g>
		<path fill="#FFFFFF" d="M125.7,34.2c-9.9,6.8-5.5,22.3-17,27.2c-2.9,1.2-0.4,5.5,2.5,4.2c4.3-1.9,7.7-5.1,9.4-9.6
			c2.2-5.8,2.1-13.8,7.7-17.7C130.8,36.7,128.3,32.4,125.7,34.2L125.7,34.2z"/>
	</g>
</g>
<g>
	<g>
		<path fill="#FFFFFF" d="M101.3,74.1C101.3,74.1,101.3,74.1,101.3,74.1c-1.6-0.1-3.1-0.1-4.7-0.1c0,0.1,0,0.1,0,0.2
			c0.1-0.6,0.2-1.3,0.2-1.9c0.6-1.1-0.7,0.1-0.9,0.2c-0.5,0.3-1,0.8-1.5,1.2c-1,0.8-1.8,1.9-2.5,2.9c-1.6,2.3-2.3,5.2-2.4,7.9
			c0,2.2,2.6,3.1,4.2,1.7c3-2.8,5.1-6.2,6.3-10.2c0.9-3-3.8-4.3-4.7-1.3c-0.9,3.2-2.6,5.8-5,8c1.4,0.6,2.8,1.2,4.2,1.7
			c0-2.7,1.1-5,3-6.9c1.5-1.6,4.6-2,3.9-4.9c-0.7-2.5-3.9-2.2-4.7,0c0,0,0,0,0,0.1C95.5,75.8,100.3,77.1,101.3,74.1L101.3,74.1z"/>
	</g>
</g>
<g>
	<g>
		<path fill="#FFFFFF" d="M48.6,81.8c1.4-2.6,1.1-5.4-0.2-8c-1.5-2.8-4.6-4.3-7.3-5.6c-2.5-1.2-4.8,1.7-3,3.8
			c2.3,2.7,4.3,5.6,6.1,8.7c1.5,2.8,5.8,0.3,4.2-2.5c-1.9-3.5-4.2-6.7-6.8-9.7c-1,1.3-2,2.6-3,3.8c2.3,1.1,7.7,3.5,5.8,6.9
			C42.9,82.1,47.1,84.5,48.6,81.8L48.6,81.8z"/>
	</g>
</g>
<g>
	<g>
		<path fill="#FFFFFF" d="M77.9,30.3c1.8-0.8,2.8-2.7,2.7-4.6c-0.1-2.2-1.8-3.9-3.8-4.3c-4.7-1-7.8,4.4-5.3,8.3
			c1.1,1.8,3.9,0.1,2.8-1.6c-1-1.6-0.2-3.6,1.8-3.5c1.8,0.1,1.5,2.4,0.2,3c-0.8,0.3-1,1.5-0.6,2.2C76.1,30.5,77.1,30.6,77.9,30.3
			L77.9,30.3z"/>
	</g>
</g>
<g>
	<g>
		<path fill="#FFFFFF" d="M72.1,23.5c-2.5-3-16.6-14.6-17.4-4.8c-0.2,2.1,2,3.8,3,5.4c1.3,2.1-0.2,4.4,1,6.5
			c0.8,1.4,2.9,1.7,4.2,1.4c3-0.7,5.9-1.6,8.9-2.4c2-0.5,1.2-3.7-0.9-3.1c-1.5,0.4-3,0.8-4.5,1.2c-0.3,0.1-5.3,1.6-5.1,0.5
			c0.4-2.3-0.1-4.4-1.3-6.4c-0.2-0.4-3-3.3-1.6-3.5c1.5-0.2,3.4,1.2,4.6,1.9c2.6,1.5,4.8,3.5,6.7,5.8C71.2,27.4,73.5,25.1,72.1,23.5
			L72.1,23.5z"/>
	</g>
</g>
<g>
	<g>
		<path fill="#FFFFFF" d="M79,27.2c3.4-1.4,6.9-2.5,10.6-3.3c2.1-0.5,4.3-0.7,6.4-0.9c-0.7,0.1-2.1,1.4-2.7,1.8
			c-1.7,1.2-2.9,2.6-3.7,4.6c-0.9,2.3-1.9,2-4.2,1.4c-2-0.5-3.8-1.7-5.4-3c-1.6-1.4-3.9,0.9-2.3,2.3c2.7,2.3,8.3,5.8,12.1,4.4
			c1.7-0.6,2.3-1.5,2.8-3.2c0.9-3.1,3.2-4.2,5.6-6c2.3-1.7,2.2-5.5-1.2-5.6c-6.3-0.2-13,1.9-18.8,4.3C76.2,24.9,77.1,28,79,27.2
			L79,27.2z"/>
	</g>
</g>
<g>
	<g>
		<path fill="#FFFFFF" d="M72.1,93.4c0,0.2,0,0.4,0,0.7c0,0.9,0.7,1.6,1.6,1.6s1.6-0.7,1.6-1.6c0-0.2,0-0.4,0-0.7
			c0-0.9-0.7-1.6-1.6-1.6S72.1,92.5,72.1,93.4L72.1,93.4z"/>
	</g>
</g>
<g>
	<g>
		<path fill="#FFFFFF" d="M55.7,94.8c0.1-0.1,0.2-0.2,0.3-0.3c0.6-0.6,0.6-1.7,0-2.3c-0.6-0.6-1.7-0.6-2.3,0
			c-0.1,0.1-0.2,0.2-0.3,0.3c-0.6,0.6-0.6,1.7,0,2.3S55,95.5,55.7,94.8L55.7,94.8z"/>
	</g>
</g>
<g>
	<g>
		<path fill="#FFFFFF" d="M147.1,122.7c-1.2,1.1-2.2,1.7-3.8,2.2c-1.9,0.8-3.1,0-3.7-2.5c1.6-1.8,1.7-1.6,0.4,0.4
			c-2.1,2.5-6.7,3.2-9.7,3.4c-2.1,0.2-2.1,3.4,0,3.3c4.9-0.4,10.8-1.7,13.4-6.3c2-3.6-1.1-6.5-4.5-4.8c-3.5,1.8-4.3,6.4-1.4,9.1
			c3.2,2.9,9-0.1,11.6-2.4C151,123.6,148.7,121.3,147.1,122.7L147.1,122.7z"/>
	</g>
</g>
</svg>
