<?xml version="1.0" encoding="utf-8"?>
<!-- Generator: Adobe Illustrator 18.0.0, SVG Export Plug-In . SVG Version: 6.00 Build 0)  -->
<!DOCTYPE svg PUBLIC "-//W3C//DTD SVG 1.1//EN" "http://www.w3.org/Graphics/SVG/1.1/DTD/svg11.dtd">
<svg version="1.1" id="Layer_1" xmlns="http://www.w3.org/2000/svg" xmlns:xlink="http://www.w3.org/1999/xlink" x="0px" y="0px"
	 viewBox="0 150 612 490" enable-background="new 0 150 612 490" xml:space="preserve">
<g>
	<g>
		<path fill="#E91E5A" d="M373.3,196.2c-19.1-29.5-47.5-35.6-80.6-37.8c-34.6-2.2-70.6,4-94.7,30.6c-6.1,6.8,4,16.9,10.1,10.1
			c20.2-22.7,48.6-27.4,77.4-26.6c29.5,0.4,58,4.3,75.2,31C366.1,211.3,378.4,204.1,373.3,196.2L373.3,196.2z"/>
	</g>
</g>
<g>
	<g>
		<path fill="#E91E5A" d="M201.6,190.1c-14-13.3-31-20.2-50.4-20.2c-9.7,0-19.1,3.6-27.7,7.2c-15.5,6.5-31,7.2-47.5,2.9
			c-5.8-1.4-9.7,3.6-9,9c6.5,34.6,18.7,75.6,58.7,81.7c9,1.4,13-12.6,4-13.7c-34.9-5.4-43.2-42.1-49-71.6c-2.9,2.9-5.8,5.8-9,9
			c18.7,5,36.7,4,55.1-2.9c23-9,45.4-9,64.1,9C198.4,206.6,208.4,196.6,201.6,190.1L201.6,190.1z"/>
	</g>
</g>
<g>
	<g>
		<path fill="#E91E5A" d="M375.1,213.1c26.6-19.8,55.1-20.9,85-8.6c18.4,7.6,36,11.9,52.9-1.1c-3.6-2.9-7.6-5.8-11.2-8.6
			c-14.8,30.6-30.6,60.5-56.5,82.8c-6.8,6.1,3.2,16.2,10.1,10.1c27-23.4,43.6-54.4,59-86c3.6-7.6-5-13.7-11.2-8.6
			c-18.7,14.4-45.7-9.4-65.5-11.5c-25.2-2.9-49,3.6-69.5,18.7C360.7,206.3,367.6,218.9,375.1,213.1L375.1,213.1z"/>
	</g>
</g>
<g>
	<g>
		<path fill="#E91E5A" d="M180.7,261c-18.7-9-38.2-6.1-54.4,6.1c-18.7,14-22.7,38.5-18.4,59.8c4.3,23.8,26.6,45.7,42.8,62.3
			c14.8,15.5,37.8,13.7,52.9,0.4c6.8-6.1-3.2-16.2-10.1-10.1c-16.6,14.4-31.7,2.2-42.8-11.5c-10.1-12.6-22-23.8-27.7-39.6
			c-11.5-31,16.2-71.3,50.4-55.1C181.8,277.6,189.4,265,180.7,261L180.7,261z"/>
	</g>
</g>
<g>
	<g>
		<path fill="#E91E5A" d="M181.4,276.1c22.3-7.2,57.2-9.4,65.2,19.1c5.4,19.8-9,48.6-20.5,63.7c-5.8,7.6,6.8,14.4,12.2,7.2
			c15.5-20.2,30.6-56.2,19.8-81.4c-13.3-31-52.9-31.7-80.6-22.7C168.8,265,172.4,279,181.4,276.1L181.4,276.1z"/>
	</g>
</g>
<g>
	<g>
		<path fill="#E91E5A" d="M387.7,282.6c-25.6-18.4-52.9-16.9-69.8,11.2c-15.1,24.8-11.5,58,3.2,81.7c5,7.9,17.3,0.7,12.2-7.2
			c-10.4-16.9-13.3-35.3-8.6-54.7c2.5-10.1,8.3-20.2,16.6-26.6c12.2-9.4,28.8,0.7,38.9,7.9C388.1,300.6,395.3,288,387.7,282.6
			L387.7,282.6z"/>
	</g>
</g>
<g>
	<g>
		<path fill="#E91E5A" d="M376.9,414.7c42.5-3.6,78.5-34.6,86.4-77c3.6-18.4-1.1-37.4-13.7-51.1c-15.8-17.3-42.1-10.4-59.8-0.4
			c-7.9,4.7-0.7,16.9,7.2,12.2c18.4-10.8,40.7-12.2,50,10.4c5,12.6,2.5,27-1.4,39.2c-9.7,29.2-39.2,49.3-68.8,51.8
			C367.6,401.4,367.6,415.4,376.9,414.7L376.9,414.7z"/>
	</g>
</g>
<g>
	<g>
		<path fill="#E91E5A" d="M193,388.8c-20.2,75.6,123.5,91.4,148.3,29.5c3.6-8.6-10.4-12.2-13.7-4c-18.4,45-135.7,34.2-120.6-22
			C209.5,383.8,195.5,379.8,193,388.8L193,388.8z"/>
	</g>
</g>
<g>
	<g>
		<path fill="#E91E5A" d="M341.6,388.8c-6.8-31-49.3-38.5-76-38.5c-25.9-0.4-69.1,9.4-74.9,39.6c-1.8,9,12.2,13,13.7,4
			c7.2-40,114.5-40.3,123.1-1.1C329.8,401.8,343.4,397.8,341.6,388.8L341.6,388.8z"/>
	</g>
</g>
<g>
	<g>
		<path fill="#E91E5A" d="M342.7,418c2.2-7.2,2.2-14.4,0.7-22c-1.8-9-15.8-5.4-13.7,4c1.1,4.7,0.7,9.4-0.7,14
			C326.5,423,340.2,427,342.7,418L342.7,418z"/>
	</g>
</g>
<g>
	<g>
		<path fill="#E91E5A" d="M329.4,385.9c6.8,20.9,27.7,32.8,49.3,28.8c9-1.8,5.4-15.5-4-13.7c-13.3,2.5-27.4-5.8-31.7-18.7
			C340.2,373.3,326.5,377.3,329.4,385.9L329.4,385.9z"/>
	</g>
</g>
<g>
	<g>
		<path fill="#E91E5A" d="M299.5,411.8c2.2,1.4,5.4,1.4,7.6,0c2.5-1.4,3.6-4,3.6-6.8c0.7-5.8-6.8-9.7-11.2-6.5
			c-3.2,2.2-4.7,6.5-2.5,9.7c1.8,3.2,6.5,4.7,9.7,2.5c0,0,0,0,0.4,0c-1.1,0.4-2.5,0.7-3.6,1.1l0,0c-1.8-0.7-3.2-1.4-5-2.2l0,0
			c-0.7-1.1-1.1-2.2-1.8-3.2c-0.4-1.1-0.4-1.8,0-2.9c0.7-1.1,1.1-2.2,1.8-3.2l0,0c1.8-0.7,3.2-1.4,5-2.2l0,0
			c1.1,0.4,2.5,0.7,3.6,1.1c0,0,0,0-0.4,0c-3.2-2.2-7.9-0.7-9.7,2.5C294.5,405.7,296.3,409.7,299.5,411.8L299.5,411.8z"/>
	</g>
</g>
<g>
	<g>
		<path fill="#E91E5A" d="M223.6,402.1c0.4,2.2,0.7,4,2.2,5.4c1.4,1.4,3.6,2.2,5.8,2.2c4.7,0,7.9-3.2,8.3-7.9c0.4-4-3.6-7.2-7.2-7.2
			c-4.3,0-6.8,3.2-7.2,7.2v0.4c0.4-1.1,0.7-2.5,1.1-3.6c0,0,0,0,0,0.4c0.7-0.7,1.8-1.8,2.5-2.5c1.8,0,4,0,5.8,0
			c0.7,0.7,1.8,1.8,2.5,2.5c0,0,0,0,0-0.4c0.4,1.1,0.7,2.5,1.1,3.6v-0.4c-0.4-4-2.9-7.2-7.2-7.2
			C226.8,394.9,222.8,398.2,223.6,402.1L223.6,402.1z"/>
	</g>
</g>
<g>
	<g>
		<path fill="#E91E5A" d="M138.2,364.7c0.4-0.4,0.4-0.7,0.7-1.1c-2.2,0.7-4.7,1.1-6.8,1.8c0.4,0,0.7,0.4,1.4,0.4
			c-1.8-2.2-3.6-4.7-5.4-6.8c0.4,16.2-9.4,34.6-11.9,50.8c-1.8,11.5-1.1,24.5,3.6,35.3c11.9,25.6,33.8,46.1,56.2,62.6
			c7.6,5.4,14.8-6.8,7.2-12.2c-20.9-15.5-43.6-36-52.2-61.2c-8.6-25.6,11.9-50,11.2-74.9c0-3.2-2.2-5.8-5.4-6.8
			c-0.4,0-0.7-0.4-1.4-0.4c-2.2-0.7-5.4,0-6.8,1.8c-0.4,0.4-0.4,0.7-0.7,1.1C122,361.4,132.1,371.9,138.2,364.7L138.2,364.7z"/>
	</g>
</g>
<g>
	<g>
		<path fill="#E91E5A" d="M168.1,508c4.3,37.1,5.8,77,22,111.2c16.9,34.9,46.8-7.9,59-22c6.1-6.8-4-17.3-10.1-10.1
			c-7.6,8.3-14.8,16.9-22.3,25.2c-14.4,16.2-22-22.3-23.4-28.4c-6.1-24.8-7.9-50.8-10.8-76.3C181.4,499,167,498.6,168.1,508
			L168.1,508z"/>
	</g>
</g>
<g>
	<g>
		<path fill="#E91E5A" d="M209.9,568.1c14.4,10.8,22,25.2,39.2,32c16.9,6.5,38.9,3.2,56.5,3.6c9.4,0,9.4-14.4,0-14.4
			c-17.3,0-35.6,1.4-52.6-2.9c-14.8-3.6-24.1-21.6-36-30.6C209.5,550.1,202.3,562.7,209.9,568.1L209.9,568.1z"/>
	</g>
</g>
<g>
	<g>
		<path fill="#E91E5A" d="M297,595.1c2.5,7.9,2.9,15.8,2.2,24.1c-0.4,5,5,7.6,9,6.8c8.3-1.1,15.5,2.2,23.8-1.4
			c5.4-2.2,9-6.8,11.9-11.5c8.6-13.3,14-32.4,13-48.2c-0.7-9-15.1-9.4-14.4,0c1.1,12.6-3.2,24.1-8.3,35.6
			c-2.9,6.5-5.8,11.5-13.7,11.5c-5.4,0-10.4-0.7-15.8,0c2.9,2.2,6.1,4.7,9,6.8c0.7-9.7,0-18.7-2.9-28.1
			C308.2,582.5,294.5,586.1,297,595.1L297,595.1z"/>
	</g>
</g>
<g>
	<g>
		<path fill="#E91E5A" d="M341.6,609.5c10.4,1.4,20.9,2.2,31.3,1.4c9.4-0.7,9.4-15.1,0-14.4c-9,0.7-18.4,0.4-27.4-0.7
			c-4-0.7-7.6,0.7-9,5C335.9,604.1,337.7,609.1,341.6,609.5L341.6,609.5z"/>
	</g>
</g>
<g>
	<g>
		<path fill="#E91E5A" d="M389.2,584.3c-6.5,1.4-12.6,3.2-19.1,4.7c-3.2,0.7-5,3.6-5.4,6.8c-3.2,48.2,114.1,23.8,99.7-31.3
			c-2.5-9-16.2-5-13.7,4c4.3,15.8-9.7,24.8-21.6,31.3c-7.2,4-51.5,17.3-50-4c-1.8,2.2-3.6,4.7-5.4,6.8c6.5-1.4,12.6-3.2,19.1-4.7
			C401.8,596.2,398.2,582.1,389.2,584.3L389.2,584.3z"/>
	</g>
</g>
<g>
	<g>
		<path fill="#E91E5A" d="M388.4,596.9c1.4,0,2.9,0,4.3,0c3.2,0,6.1-2.2,6.8-5.4c3.2-10.8,11.2-19.8,21.6-24.5
			c8.3-3.6,4.7-17.3-4-13.7c-15.5,6.5-26.6,18.4-31.7,34.2c2.2-1.8,4.7-3.6,6.8-5.4c-1.4,0-2.9,0-4.3,0
			C379.1,582.5,379.1,596.9,388.4,596.9L388.4,596.9z"/>
	</g>
</g>
<g>
	<g>
		<path fill="#E91E5A" d="M415.1,479.5c19.1,25.9,47.9,61.2,38.5,95.8c-2.5,9,11.5,12.6,13.7,4c10.8-39.2-18-77.4-40-106.9
			C421.9,464.8,409.3,472,415.1,479.5L415.1,479.5z"/>
	</g>
</g>
<g>
	<g>
		<path fill="#E91E5A" d="M319.3,333.4c12.6-13.3-13.7-23.4-23-25.6c-17.6-4.3-36,1.4-49.7,12.6c-7.2,5.8,2.9,15.8,10.1,10.1
			c7.9-6.5,17.3-9.4,27.4-9.7c4.7-0.4,23,1.8,24.8,8.3c0.7-2.2,1.1-4.7,1.8-6.8c-0.4,0.4-0.7,0.7-1.1,1.1
			C303.1,329.8,313.2,339.8,319.3,333.4L319.3,333.4z"/>
	</g>
</g>
<g>
	<g>
		<path fill="#E91E5A" d="M459.4,589.3c12.6,9.7,33.1,13.7,44.3-0.7c7.2-9,8.6-30.2-7.9-30.2c-13.7,0-15.5,19.4-8.6,27.7
			c12.2,15.1,31.3,9,42.8-3.6c4.3-4.7-2.5-11.2-6.8-6.8c-4,4-7.6,7.2-13,9c-1.8,0.4-4,0.4-5.8,0.7c-10.1-1.1-11.5-5.8-5-13.7
			c4,9.4-9.4,16.2-15.8,16.9c-7.2,0.7-14-3.2-19.4-7.6C459.4,577.1,454.3,585.7,459.4,589.3L459.4,589.3z"/>
	</g>
</g>
<g>
	<g>
		<path fill="#E91E5A" d="M364.7,503.6c27.7-6.5,58-11.2,73.8-37.4c14-23.4,10.8-55.8,2.5-80.6c-2.9-8.6-16.9-5-13.7,4
			c7.6,22.7,9.4,47.5-1.1,69.5c-10.4,22.3-43.9,25.6-65.2,31C352.1,492.1,355.7,505.8,364.7,503.6L364.7,503.6z"/>
	</g>
</g>
</svg>
