<?xml version="1.0" encoding="utf-8"?>
<!-- Generator: Adobe Illustrator 18.0.0, SVG Export Plug-In . SVG Version: 6.00 Build 0)  -->
<!DOCTYPE svg PUBLIC "-//W3C//DTD SVG 1.1//EN" "http://www.w3.org/Graphics/SVG/1.1/DTD/svg11.dtd">
<svg version="1.1" id="Layer_1" xmlns="http://www.w3.org/2000/svg" xmlns:xlink="http://www.w3.org/1999/xlink" x="0px" y="0px"
	 viewBox="0 156 612 447" enable-background="new 0 156 612 447" xml:space="preserve">
<g id="black_bg" display="none">
	<rect x="4.5" y="191.3" display="inline" fill="#82819F" width="646.5" height="412.5"/>
</g>
<g id="white_bg" display="none">
	<rect x="16.5" y="191.3" display="inline" fill="#F4E286" stroke="#000000" stroke-miterlimit="10" width="630.7" height="411.8"/>
</g>
<g id="yellow_bg" display="none">
	<rect x="17.3" y="186.8" display="inline" fill="#EEB22A" stroke="#000000" stroke-miterlimit="10" width="627" height="407.2"/>
</g>
<g>
	<g>
		<path fill="#757575" d="M301.9,220.1c-46.9-18.2-109.3-22.1-153.8,5.2c-9.4,5.9-0.7,21,8.8,15c40.6-25.2,97.3-20.3,140-3.5
			C307.8,241.1,312.4,224.3,301.9,220.1L301.9,220.1z"/>
	</g>
</g>
<g>
	<g>
		<path fill="#757575" d="M155.1,225.7c-13.3-11.9-25.9-19.9-44.4-17.5c-25.9,3.5-46.2,7.4-71.8-3.1c-7-2.8-14.7,1.8-13,9.8
			c9.1,39.2,37.1,76.3,76.6,87.9c10.8,3.1,15.4-13.7,4.6-16.8c-33.9-9.8-56.7-42.7-64.4-75.6c-4.2,3.1-8.4,6.6-13,9.8
			c16.5,7,32.9,10.5,51.1,10.5c8.8,0,17.5-1.8,25.9-3.9c15.4-3.5,24.2,1.4,35.3,11.6C150.9,245.6,163.6,233.4,155.1,225.7
			L155.1,225.7z"/>
	</g>
</g>
<g>
	<g>
		<path fill="#757575" d="M106.8,277.9c-17.5,28-18.5,59.9-18.9,91.7c-0.3,28-13.7,61.2-3.2,88.6c15.4,39.5,89.6,32.2,115.2,8.8
			c12.9-11.9,16.4-35.4,4.6-49c-14-16.1-37.4-19.2-57.8-20.3c-20.7-0.7-46.9,5.2-55.3,26.6c-2.1,5.2-5.9,10.2-7.7,16.1
			c-3.2,12.6,4.2,23.8,11.9,32.9c7.3,8.8,19.6-3.9,12.2-12.2c-10.8-13.3-5.2-30.4,8.8-39.9c12.2-8.4,31.5-6.3,45.2-4.2
			c12.9,2.1,31.5,6.7,32.2,22.4c0.7,16.8-18.2,24.1-31.5,26.9c-13.6,3.1-28.7,2.1-42-1c-27.3-6-22.8-31.5-19.2-52.9
			c7-41.6-2.8-88.2,20.7-125.6C127.8,277.2,112.8,268.5,106.8,277.9L106.8,277.9z"/>
	</g>
</g>
<g>
	<g>
		<path fill="#757575" d="M299,236.2c34.3-15.1,73.5-3.8,107.1-21c-4.2-3.1-8.4-6.6-13-9.8c-4.9,37.1-17.8,74.6-53.9,91.8
			c-10.1,4.9-1.4,20,8.8,15.1c39.9-18.9,56.4-60.6,62-102.2c1-7.4-5.6-13.6-13-9.8c-17.9,9.1-37.8,8-57,9.1
			c-17.5,0.7-34,5.2-49.7,12.2C279.9,225.7,288.5,240.8,299,236.2L299,236.2z"/>
	</g>
</g>
<g>
	<g>
		<path fill="#757575" d="M354,305.2c22.8,12.2,43.8,26.9,64.8,42c21,15,42,30.4,56.7,52.1c31.9,45.9,28.7,112.4,6.3,161
			c-4.5,10.2,10.5,19.2,15,8.8c23.8-51.8,25.2-109.5,2.8-162.4c-10.9-25.2-31.5-44.8-53.2-60.9c-26.6-20.3-54.2-39.9-83.6-56
			C353,284.5,344.2,299.6,354,305.2L354,305.2z"/>
	</g>
</g>
<g>
	<g>
		<path fill="#757575" d="M430,499.5c4.5,11.5,10.9,21.4,19.2,30.5c5.2,5.2,8.4,9.5,5.6,17.5c-2.1,6-4.9,11.5-5.2,18.2
			c-0.4,3.1,1.8,6,4.2,7.7c10.5,6.7,25.5,4.9,37.1,1.8c10.9-3.2,6.3-20-4.5-16.8c-7,2.1-16.8,4.2-23.5,0c1.4,2.5,2.8,4.9,4.2,7.7
			c0.7-12.2,12.6-22.8,5.2-35.3c-7.4-13-19.6-21-25.2-35.4C442.5,484.8,425.8,489.3,430,499.5L430,499.5z"/>
	</g>
</g>
<g>
	<g>
		<path fill="#757575" d="M448.1,507.9c-15.4,0.4-30.8,0.7-46.5,1c-13,0.4-31.9-2.8-44.1,2.1c-4.2,1.8-7.7,6-6,10.8
			c0,0.4,0.4,0.7,0.4,1.1c1,3.5,4.5,7,8.4,6.3c0.4,0,0.7,0,0.7,0c11.2-1.4,11.2-18.9,0-17.5c-0.4,0-0.7,0-0.7,0
			c2.8,2.1,5.6,4.2,8.4,6.3c0-0.4-0.4-0.7-0.4-1.1c-2.1,3.5-4.2,7.4-6,10.9c10.5-4.2,28.4-1.4,39.5-1.4c15.4-0.4,30.8-0.7,46.5-1.1
			C459.4,525.3,459.4,507.9,448.1,507.9L448.1,507.9z"/>
	</g>
</g>
<g>
	<g>
		<path fill="#757575" d="M358.2,492.8c-10.5,2.5-11.2,14.7-12.2,23.8c-2.1,16.5-1.4,33.2-10.5,47.6c3.1-1.4,6.6-2.8,9.8-3.8
			c-9.8-2.5-19.6-3.5-29.8-3.5c2.8,2.1,5.6,4.2,8.4,6.3c-4.2-16.8-6-34-5.6-51.5c0.4-11.2-17.1-11.2-17.5,0
			c-0.7,18.9,1.4,37.5,6.3,56c1,3.8,4.5,6.3,8.4,6.3c8.8,0,16.8,1,25.2,2.8c3.9,1,7.7-0.7,9.8-3.8c5.6-8.8,8.4-18.6,10.1-28.7
			c0.7-4.9,1-9.8,1.8-15c0.4-2.8,2.8-20,0.7-19.6C374,507.1,369,490,358.2,492.8L358.2,492.8z"/>
	</g>
</g>
<g>
	<g>
		<path fill="#757575" d="M156.2,486.1c7.7,24.1,15.1,48.6,25.6,71.8c3.1,6.6,7,17.1,13.6,21c8.1,4.9,21.7,2.1,30.4,1.4
			c3.9-0.4,7.4-2.5,8.4-6.3c4.2-16.8,7-33.6,8.8-50.8c1.1-11.2-16.4-11.2-17.5,0c-1.4,15.8-4.2,30.8-8.1,45.8
			c2.8-2.1,5.6-4.2,8.4-6.3c-6.3,0.3-19.2,3.5-23.4-3.5c-4.6-7.7-8.1-16.1-11.6-24.5c-7-17.5-11.9-35.7-17.9-53.2
			C169.5,470.8,152.7,475.3,156.2,486.1L156.2,486.1z"/>
	</g>
</g>
<g>
	<g>
		<path fill="#757575" d="M234.6,531c22.4-1,45.1-2.1,67.6-3.1c11.2-0.7,11.2-18.2,0-17.5c-22.4,1-45.1,2.1-67.6,3.1
			C223.4,513.8,223.4,531.3,234.6,531L234.6,531z"/>
	</g>
</g>
<g>
	<g>
		<path fill="#757575" d="M425.4,521.2c1,9.4,2.5,19.2-1.8,28c-2.1,4.5-13.3,15.4-18.2,10.1c0.4,3.5,1,7,1.4,10.5
			c8-16.5,8.4-33.6,1-50.4c-4.5-10.5-19.6-1.4-15,8.8c4.5,10.5,4.2,22.4-1,32.5c-1.8,3.5-1.4,7.7,1.4,10.5
			c11.2,11.6,27,5.6,37.5-3.5c14-11.9,14-30.1,12.2-47.2C441.9,510,424.4,510,425.4,521.2L425.4,521.2z"/>
	</g>
</g>
<g>
	<g>
		<path fill="#757575" d="M500,464.8c0.4,21.4,22,34.3,39.9,21.7c10.8-7.7,15.8-36-3.5-36c-20.7,0-14.7,27.3-2.8,35
			c19.2,12.2,45.5-14.7,48.3-32.2c0.3-3.1-0.7-5.2-3.5-6.3c-0.3,0-0.7-0.4-1-0.4c-1.4-0.7-4.2,0-5.2,1.4c0,0.4-0.3,0.4-0.3,0.7
			c-4.2,5.2,3.2,12.6,7.3,7.3c-1.4,0.4-2.5,0.7-3.8,1c-1-2.1-2.5-4.2-3.5-6.3c-2.1,12.6-15.8,26.2-28.3,26.9
			c-27.3,1.8,5.6-26.9-6-3.1c-7.7,15.4-27,4.9-27-9.1C510.1,458.1,499.6,458.1,500,464.8L500,464.8z"/>
	</g>
</g>
<g>
	<g>
		<path fill="#757575" d="M276,368.2c4.2-4.2,6.3-14-0.7-17.2c-2.8-1.4-6-3.5-9.1-3.5s-6.3,1.8-8,4.2c-3.5,4.2-3.9,8.4-3.1,13.6
			c0.7,5.2,5.2,8.8,9.8,10.5c5.2,2.1,10.5-0.7,14.7-3.9c4.5-3.5,5.6-9.8,4.5-15c-0.7-4.2-4.5-8.4-8.4-10.2c-5.2-2.4-10.5-2.1-15.8,0
			c-4.2,1.8-6.6,9.1-7.4,13c-1.4,5.6-0.4,11.5,3.5,16.1c6.3,7.7,18.9,7.4,25.2,0c7.4-8.8,4.2-20.3-4.2-26.9c-8-6-21.4-2.1-25.6,6.6
			c-2.8,6.3-2.4,14.4,2.4,19.2c4.5,4.6,11.5,6.3,17.5,4.2c6.3-2.5,11.2-8.4,10.5-15.8c-0.7-6.6-5.2-13.3-12.2-14.4
			c-4.5-0.7-9.5,1.1-10.9,5.9c-1,4.2,1.4,9.8,6,10.9c1,0.3,1,0,0-0.4c-0.7-0.7-0.7-0.7,0,0c-0.7-0.7-0.7-0.7,0,0
			c-0.4-0.3-0.4-2.4-0.4-0.7c0-0.7,0-1.1,0.4-1.8c0.7-1.4-0.7,0.4,0.7-0.7c1-0.4,1-0.4,0,0c2.1-0.7-1-0.4,1,0c-1-0.4-1-0.4,0,0
			c0.4,0.3,1.4,1.8,0.4,0.3c0.4,0.4,0.4,0.7,0.4,1.1c-0.4-2.1-0.4,1.1,0-1.1c-0.4,0.7-0.4,0.7,0-0.3c-0.4,0.7-1.4,1.4,0,0.3
			c-0.7,0.4-0.7,0.4,0.4,0c-1.8,0.4,1.4,0.4-0.4,0c1,0.4,1,0.4,0.4,0c1.4,0.7,0.4,0.4,0-0.3c0.4,1,0.7,1,0.4,0c0,0.3,0.4,2.8,0.4,1
			c0,1,0,1,0,0c-0.4,1.8,0,0,0.4-0.4c0.7-0.4,0.7-0.4,0,0c1.8-1.1-1.4,0,0.7,0c-1,0-1,0,0,0c-2.1-0.4,1,0.7-0.7-0.4
			c0.4,0,0.7,0.4,1,0.7c0.7,1.4,0-1.4,0,0.3c0-1,0-1,0-0.3c0-1.1,0.4-1.8,0.7-2.8c-0.4,0.7,0,0.4,0.4-0.7c0.4-0.7,1-1.8,1.4-2.5
			c-1,1-2.1,2.1-3.1,3.1c-0.4,0.4-0.7,0.4-1.4,0.4c1,0,1,0,0,0c1,0.4,1,0.4,0,0c0.7,0.7,1,0.7,0,0c-0.4-0.7-0.4-0.7,0,0
			c-0.4-0.4-0.4-0.7-0.7-1.4c0-1.1,1-2.1,0-1.1c0.7-0.7,1.4-1,2.5-0.7c1.4,0.4,2.1,1.1,2.8,2.1c-0.4-0.7-0.4-0.7,0,0.4
			c-0.4-1.1-0.4-0.7,0,0.4c0-1,0-1,0,0.4c-0.4,0.7-0.7,1.1-1,1.8c-1,0.7-1,0.7,0,0.4c-2.8,0-6,0-8.8,0c1.4,0.7,3.1,1.4,4.5,2.1
			c-1.4-1.8-2.8-3.5-3.9-5.2c0.4-1.8,0.7-3.5,1-4.9C255.6,364,267.9,376.6,276,368.2L276,368.2z"/>
	</g>
</g>
<g>
	<g>
		<path fill="#757575" d="M97.8,362.2c0.3,0,1.8,1,1.8,1.4c0-0.4-0.3,1.1,0,0c-0.7,1.4-0.3,0.4,0.7,0.4c-4.9,0.4-8.8,3.5-8.8,8.8
			c0,4.5,3.8,9.1,8.8,8.8c9.8-1,16.4-8,16.8-17.9c0.3-10.5-9.8-17.5-19.2-18.6c-4.9-0.3-8.8,4.2-8.8,8.8
			C89,358.8,93.2,361.9,97.8,362.2L97.8,362.2z"/>
	</g>
</g>
<g>
	<g>
		<path fill="#757575" d="M116.7,450.8c9.1,0,9.1-14,0-14S107.9,450.8,116.7,450.8L116.7,450.8z"/>
	</g>
</g>
<g>
	<g>
		<path fill="#757575" d="M170.6,448.4c9.1,0,9.1-14,0-14S161.4,448.4,170.6,448.4L170.6,448.4z"/>
	</g>
</g>
<g id="white_lines" display="none">
	<g display="inline">
		<g>
			<path fill="#F4E286" d="M257,243.1c-6.7-2.6-15.6-3.2-21.9,0.8c-1.4,0.8-0.1,3,1.2,2.1c5.8-3.6,13.9-2.9,20-0.5
				C257.9,246.1,258.5,243.7,257,243.1L257,243.1z"/>
		</g>
	</g>
	<g display="inline">
		<g>
			<path fill="#F4E286" d="M236,243.9c-1.9-1.7-3.7-2.8-6.4-2.5c-3.7,0.5-6.6,1.1-10.2-0.4c-1-0.4-2.1,0.2-1.9,1.4
				c1.3,5.6,5.3,10.9,10.9,12.5c1.6,0.5,2.2-1.9,0.6-2.4c-4.9-1.4-8.1-6.1-9.2-10.8c-0.6,0.4-1.2,0.9-1.9,1.4c2.4,1,4.7,1.5,7.3,1.5
				c1.2,0,2.5-0.2,3.7-0.6c2.2-0.5,3.4,0.2,5.1,1.7C235.4,246.8,237.2,245,236,243.9L236,243.9z"/>
		</g>
	</g>
	<g display="inline">
		<g>
			<path fill="#F4E286" d="M229.1,251.4c-2.5,4-2.6,8.5-2.7,13.1c-0.1,4-1.9,8.8-0.4,12.6c2.2,5.6,12.8,4.6,16.4,1.2
				c1.9-1.7,2.4-5.1,0.6-7c-2-2.3-5.4-2.8-8.2-2.9c-2.9-0.1-6.7,0.8-7.9,3.8c-0.3,0.8-0.9,1.5-1.1,2.3c-0.4,1.8,0.6,3.4,1.7,4.7
				c1.1,1.2,2.8-0.5,1.8-1.8c-1.6-1.9-0.8-4.4,1.2-5.7c1.8-1.2,4.5-0.9,6.4-0.6s4.5,0.9,4.6,3.2c0.1,2.4-2.6,3.5-4.5,3.9
				c-1.9,0.5-4.1,0.3-6-0.1c-3.9-0.9-3.2-4.5-2.8-7.6c1-5.9-0.4-12.6,2.9-17.9C232.1,251.2,229.9,250,229.1,251.4L229.1,251.4z"/>
		</g>
	</g>
	<g display="inline">
		<g>
			<path fill="#F4E286" d="M256.6,245.4c4.9-2.1,10.5-0.5,15.3-3c-0.6-0.4-1.2-0.9-1.9-1.4c-0.7,5.3-2.5,10.6-7.7,13.1
				c-1.5,0.7-0.2,2.9,1.2,2.1c5.7-2.7,8-8.6,8.9-14.6c0.1-1-0.8-1.9-1.9-1.4c-2.5,1.3-5.4,1.1-8.1,1.3c-2.5,0.1-4.9,0.8-7.1,1.8
				C253.8,243.9,255.1,246.1,256.6,245.4L256.6,245.4z"/>
		</g>
	</g>
	<g display="inline">
		<g>
			<path fill="#F4E286" d="M264.4,255.2c3.2,1.8,6.2,3.8,9.2,6c3,2.1,6,4.3,8.1,7.4c4.5,6.6,4.1,16.1,0.9,23
				c-0.6,1.5,1.5,2.8,2.1,1.2c3.4-7.4,3.6-15.6,0.4-23.2c-1.5-3.6-4.5-6.4-7.6-8.7c-3.8-2.9-7.8-5.7-12-8
				C264.2,252.3,263,254.4,264.4,255.2L264.4,255.2z"/>
		</g>
	</g>
	<g display="inline">
		<g>
			<path fill="#F4E286" d="M275.2,283c0.6,1.6,1.5,3,2.8,4.4c0.8,0.8,1.2,1.4,0.8,2.5c-0.3,0.9-0.7,1.6-0.8,2.6
				c0,0.4,0.2,0.8,0.6,1.1c1.5,1,3.6,0.7,5.3,0.2c1.5-0.4,0.9-2.8-0.6-2.4c-1,0.3-2.4,0.6-3.4,0c0.2,0.4,0.4,0.7,0.6,1.1
				c0.1-1.8,1.8-3.2,0.8-5.1s-2.8-3-3.6-5C277.1,280.9,274.6,281.5,275.2,283L275.2,283z"/>
		</g>
	</g>
	<g display="inline">
		<g>
			<path fill="#F4E286" d="M277.9,284.2c-2.2,0-4.4,0.1-6.6,0.1c-1.9,0-4.5-0.4-6.3,0.3c-0.6,0.2-1.1,0.9-0.9,1.6v0.1
				c0.1,0.5,0.6,1,1.2,0.9h0.1c1.6-0.2,1.6-2.7,0-2.5h-0.1c0.4,0.3,0.8,0.6,1.2,0.9c0-0.1,0-0.1,0-0.2c-0.3,0.5-0.6,1.1-0.9,1.6
				c1.5-0.6,4-0.2,5.6-0.2c2.2,0,4.4-0.1,6.6-0.1C279.5,286.6,279.5,284.1,277.9,284.2L277.9,284.2z"/>
		</g>
	</g>
	<g display="inline">
		<g>
			<path fill="#F4E286" d="M265,282c-1.5,0.4-1.6,2.1-1.8,3.4c-0.3,2.4-0.2,4.8-1.5,6.8c0.5-0.2,1-0.4,1.4-0.6
				c-1.4-0.4-2.8-0.5-4.2-0.5c0.4,0.3,0.8,0.6,1.2,0.9c-0.6-2.4-0.9-4.8-0.8-7.3c0-1.6-2.5-1.6-2.5,0c-0.1,2.7,0.2,5.3,0.9,8
				c0.1,0.5,0.6,0.9,1.2,0.9c1.2,0,2.4,0.1,3.6,0.4c0.5,0.2,1.1-0.1,1.4-0.5c0.8-1.2,1.2-2.7,1.5-4.1c0.1-0.7,0.1-1.4,0.2-2.1
				c0-0.4,0.4-2.9,0.1-2.8C267.2,284,266.6,281.6,265,282L265,282z"/>
		</g>
	</g>
	<g display="inline">
		<g>
			<path fill="#F4E286" d="M236.1,281.1c1.1,3.4,2.1,6.9,3.6,10.2c0.4,0.9,1,2.4,1.9,3c1.1,0.7,3.1,0.3,4.4,0.2
				c0.6,0,1.1-0.3,1.2-0.9c0.6-2.4,1-4.8,1.2-7.2c0.1-1.6-2.4-1.6-2.5,0c-0.2,2.2-0.6,4.4-1.1,6.6c0.4-0.3,0.8-0.6,1.2-0.9
				c-0.9,0.1-2.8,0.5-3.4-0.5c-0.6-1.1-1.1-2.3-1.6-3.5c-1-2.5-1.7-5.1-2.6-7.6C238.1,278.9,235.6,279.5,236.1,281.1L236.1,281.1z"
				/>
		</g>
	</g>
	<g display="inline">
		<g>
			<path fill="#F4E286" d="M247.4,287.5c3.2-0.1,6.4-0.3,9.6-0.5c1.6-0.1,1.6-2.6,0-2.5c-3.2,0.2-6.4,0.3-9.6,0.5
				C245.8,285,245.8,287.5,247.4,287.5L247.4,287.5z"/>
		</g>
	</g>
	<g display="inline">
		<g>
			<path fill="#F4E286" d="M274.6,286.1c0.1,1.4,0.4,2.8-0.2,4c-0.3,0.6-1.9,2.2-2.6,1.4c0,0.5,0.1,1,0.2,1.5
				c1.1-2.3,1.2-4.8,0.1-7.2c-0.6-1.5-2.8-0.2-2.1,1.2c0.6,1.5,0.6,3.2-0.1,4.6c-0.2,0.5-0.2,1.1,0.2,1.5c1.6,1.6,3.9,0.8,5.4-0.5
				c2-1.7,2-4.3,1.8-6.8C277,284.5,274.5,284.5,274.6,286.1L274.6,286.1z"/>
		</g>
	</g>
	<g display="inline">
		<g>
			<path fill="#F4E286" d="M285.2,278c0,3.1,3.1,4.9,5.7,3.1c1.5-1.1,2.2-5.1-0.5-5.1c-3,0-2.1,3.9-0.4,5c2.8,1.8,6.5-2.1,6.9-4.6
				c0-0.4-0.1-0.8-0.5-0.9h-0.1c-0.2-0.1-0.6,0-0.8,0.2c0,0.1,0,0.1,0,0.1c-0.6,0.8,0.5,1.8,1,1c-0.2,0.1-0.4,0.1-0.5,0.2
				c-0.1-0.3-0.4-0.6-0.5-0.9c-0.3,1.8-2.2,3.8-4,3.9c-3.9,0.2,0.8-3.9-0.9-0.4c-1.1,2.2-3.9,0.7-3.9-1.3
				C286.8,277.1,285.2,277.1,285.2,278L285.2,278z"/>
		</g>
	</g>
	<g display="inline">
		<g>
			<path fill="#F4E286" d="M253.2,264.2c0.6-0.6,0.9-2-0.1-2.5c-0.4-0.2-0.9-0.5-1.3-0.5s-0.9,0.2-1.1,0.6c-0.5,0.6-0.6,1.2-0.4,2
				s0.8,1.2,1.4,1.5c0.8,0.3,1.5-0.1,2.1-0.6s0.8-1.4,0.6-2.1c-0.1-0.6-0.6-1.2-1.2-1.5c-0.8-0.3-1.5-0.3-2.2,0
				c-0.6,0.2-0.9,1.3-1.1,1.9c-0.2,0.8-0.1,1.7,0.5,2.3c0.9,1.1,2.7,1,3.6,0c1.1-1.2,0.6-2.9-0.6-3.9c-1.1-0.9-3.1-0.3-3.6,1
				c-0.4,0.9-0.4,2,0.4,2.8c0.6,0.6,1.6,0.9,2.5,0.6s1.6-1.2,1.5-2.2c-0.1-0.9-0.8-1.9-1.8-2c-0.6-0.1-1.4,0.1-1.6,0.9
				c-0.1,0.6,0.2,1.4,0.9,1.5c0.1,0.1,0.1,0,0,0c-0.1-0.1-0.1-0.1,0,0c-0.1-0.1-0.1-0.1,0,0c-0.1-0.1-0.1-0.4-0.1-0.1
				c0-0.1,0-0.1,0.1-0.2c0.1-0.2-0.1,0,0.1-0.1c0.1,0,0.1,0,0,0c0.3-0.1-0.1,0,0.1,0c-0.1,0-0.1,0,0,0c0.1,0.1,0.2,0.2,0.1,0.1
				c0.1,0,0.1,0.1,0.1,0.1c-0.1-0.3-0.1,0.1,0-0.1c-0.1,0.1-0.1,0.1,0-0.1c-0.1,0.1-0.2,0.2,0,0.1c-0.1,0-0.1,0,0.1,0
				c-0.2,0,0.2,0-0.1,0c0.1,0,0.1,0,0.1,0c0.2,0.1,0.1,0,0-0.1c0.1,0.1,0.1,0.1,0.1,0c0,0.1,0.1,0.4,0.1,0.1c0,0.2,0,0.2,0,0
				c-0.1,0.2,0,0,0.1,0s0.1,0,0,0c0.2-0.1-0.2,0,0.1,0c-0.1,0-0.1,0,0,0c-0.3,0,0.1,0.1-0.1,0c0.1,0,0.1,0,0.1,0.1
				c0.1,0.2,0-0.2,0,0.1c0-0.1,0-0.1,0-0.1c0-0.1,0.1-0.2,0.1-0.4c-0.1,0.1,0,0.1,0.1-0.1c0.1-0.1,0.1-0.2,0.2-0.3
				c-0.1,0.1-0.3,0.3-0.4,0.4c-0.1,0.1-0.1,0.1-0.2,0.1c0.1,0,0.1,0,0,0c0.1,0,0.1,0,0,0c0.1,0.1,0.1,0.1,0,0s-0.1-0.1,0,0
				c-0.1-0.1-0.1-0.1-0.1-0.2s0.1-0.3,0-0.1c0.1-0.1,0.2-0.1,0.4-0.1s0.3,0.1,0.4,0.3c-0.1-0.1-0.1-0.1,0,0.1
				c-0.1-0.1-0.1-0.1,0,0.1c0-0.2,0-0.2,0,0c-0.1,0.1-0.1,0.1-0.1,0.2c-0.1,0.1-0.1,0.1,0,0c-0.4,0-0.9,0-1.2,0
				c0.2,0.1,0.4,0.2,0.6,0.3c-0.2-0.2-0.4-0.5-0.6-0.8c0.1-0.2,0.1-0.5,0.1-0.7C250.4,263.6,252.1,265.4,253.2,264.2L253.2,264.2z"
				/>
		</g>
	</g>
	<g display="inline">
		<g>
			<path fill="#F4E286" d="M227.8,263.4c0.1,0,0.2,0.1,0.2,0.2c0-0.1-0.1,0.1,0,0c-0.1,0.2-0.1,0,0.1,0c-0.7,0.1-1.2,0.5-1.2,1.2
				c0,0.6,0.6,1.3,1.2,1.2c1.4-0.1,2.4-1.1,2.4-2.5c0.1-1.5-1.4-2.5-2.8-2.6c-0.7-0.1-1.2,0.6-1.2,1.2
				C226.6,262.9,227.1,263.4,227.8,263.4L227.8,263.4z"/>
		</g>
	</g>
	<g display="inline">
		<g>
			<path fill="#F4E286" d="M230.5,276c1.3,0,1.3-2,0-2S229.2,276,230.5,276L230.5,276z"/>
		</g>
	</g>
	<g display="inline">
		<g>
			<path fill="#F4E286" d="M238.2,275.7c1.3,0,1.3-2,0-2S236.9,275.7,238.2,275.7L238.2,275.7z"/>
		</g>
	</g>
</g>
<g id="yellow_lines" display="none">
	<g display="inline">
		<g>
			<path fill="#EEB22A" d="M336,243.1c-6.7-2.6-15.6-3.2-22,0.8c-1.4,0.8-0.1,3,1.2,2.1c5.8-3.6,13.9-2.9,20-0.5
				C336.9,246.1,337.5,243.7,336,243.1L336,243.1z"/>
		</g>
	</g>
	<g display="inline">
		<g>
			<path fill="#EEB22A" d="M315,243.9c-1.9-1.7-3.7-2.8-6.4-2.5c-3.7,0.5-6.6,1.1-10.2-0.4c-1-0.4-2.1,0.2-1.9,1.4
				c1.3,5.6,5.3,10.9,11,12.5c1.5,0.5,2.2-1.9,0.6-2.4c-4.9-1.4-8.1-6.1-9.2-10.8c-0.6,0.4-1.2,0.9-1.9,1.4c2.4,1,4.7,1.5,7.3,1.5
				c1.2,0,2.5-0.2,3.7-0.6c2.2-0.5,3.5,0.2,5,1.7C314.5,246.8,316.2,245,315,243.9L315,243.9z"/>
		</g>
	</g>
	<g display="inline">
		<g>
			<path fill="#EEB22A" d="M308.1,251.4c-2.5,4-2.6,8.5-2.7,13.1c0,4-2,8.8-0.5,12.6c2.2,5.6,12.8,4.6,16.5,1.2
				c1.9-1.7,2.4-5.1,0.6-7c-2-2.3-5.4-2.8-8.2-2.9c-3-0.1-6.7,0.8-7.9,3.8c-0.3,0.8-0.9,1.5-1.1,2.3c-0.5,1.8,0.6,3.4,1.7,4.7
				c1,1.2,2.8-0.5,1.8-1.8c-1.5-1.9-0.8-4.4,1.2-5.7c1.8-1.2,4.5-0.9,6.5-0.6c1.9,0.3,4.5,0.9,4.6,3.2c0.1,2.4-2.6,3.5-4.5,3.9
				c-2,0.5-4.1,0.3-6-0.1c-3.9-0.9-3.2-4.5-2.8-7.6c1-5.9-0.4-12.6,3-17.9C311.2,251.2,309,250,308.1,251.4L308.1,251.4z"/>
		</g>
	</g>
	<g display="inline">
		<g>
			<path fill="#EEB22A" d="M335.6,245.4c4.9-2.1,10.5-0.5,15.3-3c-0.6-0.4-1.2-0.9-1.9-1.4c-0.7,5.3-2.5,10.6-7.7,13.1
				c-1.5,0.7-0.2,2.9,1.2,2.1c5.7-2.7,8-8.6,8.9-14.6c0.1-1-0.8-1.9-1.9-1.4c-2.5,1.3-5.4,1.1-8.1,1.3c-2.5,0.1-4.9,0.8-7.1,1.8
				C332.9,243.9,334.1,246.1,335.6,245.4L335.6,245.4z"/>
		</g>
	</g>
	<g display="inline">
		<g>
			<path fill="#EEB22A" d="M343.5,255.2c3.2,1.8,6.2,3.8,9.2,6c3,2.1,6,4.3,8.1,7.4c4.5,6.6,4.1,16.1,0.9,23
				c-0.6,1.5,1.5,2.8,2.1,1.2c3.4-7.4,3.6-15.6,0.4-23.2c-1.5-3.6-4.5-6.4-7.6-8.7c-3.8-2.9-7.8-5.7-12-8
				C343.3,252.3,342,254.4,343.5,255.2L343.5,255.2z"/>
		</g>
	</g>
	<g display="inline">
		<g>
			<path fill="#EEB22A" d="M354.3,283c0.6,1.6,1.5,3,2.8,4.4c0.8,0.8,1.2,1.4,0.8,2.5c-0.3,0.9-0.7,1.6-0.8,2.6
				c0,0.4,0.2,0.8,0.6,1.1c1.5,1,3.6,0.7,5.3,0.2c1.5-0.4,0.9-2.8-0.6-2.4c-1,0.3-2.4,0.6-3.4,0c0.2,0.4,0.4,0.7,0.6,1.1
				c0.1-1.8,1.8-3.2,0.8-5.1s-2.8-3-3.6-5C356.1,280.9,353.8,281.5,354.3,283L354.3,283z"/>
		</g>
	</g>
	<g display="inline">
		<g>
			<path fill="#EEB22A" d="M356.9,284.2c-2.2,0-4.4,0.1-6.6,0.1c-1.9,0-4.5-0.4-6.3,0.3c-0.6,0.2-1.1,0.9-0.9,1.6v0.1
				c0.1,0.5,0.6,1,1.2,0.9h0.1c1.6-0.2,1.6-2.7,0-2.5h-0.1c0.4,0.3,0.8,0.6,1.2,0.9c0-0.1,0-0.1,0-0.2c-0.3,0.5-0.6,1.1-0.9,1.6
				c1.5-0.6,4-0.2,5.6-0.2c2.2,0,4.4-0.1,6.6-0.1C358.5,286.6,358.5,284.1,356.9,284.2L356.9,284.2z"/>
		</g>
	</g>
	<g display="inline">
		<g>
			<path fill="#EEB22A" d="M344,282c-1.5,0.4-1.6,2.1-1.8,3.4c-0.3,2.4-0.2,4.8-1.5,6.8c0.5-0.2,1-0.4,1.4-0.6
				c-1.4-0.4-2.8-0.5-4.2-0.5c0.4,0.3,0.8,0.6,1.2,0.9c-0.6-2.4-0.9-4.8-0.8-7.3c0-1.6-2.5-1.6-2.5,0c-0.1,2.7,0.2,5.3,0.9,8
				c0.1,0.5,0.6,0.9,1.2,0.9c1.2,0,2.4,0.1,3.6,0.4c0.5,0.2,1.1-0.1,1.4-0.5c0.8-1.2,1.2-2.7,1.5-4.1c0.1-0.7,0.1-1.4,0.2-2.1
				c0-0.4,0.4-2.9,0.1-2.8C346.3,284,345.6,281.6,344,282L344,282z"/>
		</g>
	</g>
	<g display="inline">
		<g>
			<path fill="#EEB22A" d="M315.2,281.1c1.1,3.4,2.1,6.9,3.6,10.2c0.5,0.9,1,2.4,2,3c1.1,0.7,3.1,0.3,4.4,0.2c0.5,0,1-0.3,1.2-0.9
				c0.6-2.4,1-4.8,1.2-7.2c0.1-1.6-2.4-1.6-2.5,0c-0.2,2.2-0.6,4.4-1.1,6.6c0.4-0.3,0.8-0.6,1.2-0.9c-0.9,0.1-2.8,0.5-3.4-0.5
				c-0.6-1.1-1.1-2.3-1.6-3.5c-1-2.5-1.7-5.1-2.5-7.6C317.1,278.9,314.8,279.5,315.2,281.1L315.2,281.1z"/>
		</g>
	</g>
	<g display="inline">
		<g>
			<path fill="#EEB22A" d="M326.4,287.5c3.2-0.1,6.5-0.3,9.6-0.5c1.6-0.1,1.6-2.6,0-2.5c-3.2,0.2-6.5,0.3-9.6,0.5
				C324.8,285,324.8,287.5,326.4,287.5L326.4,287.5z"/>
		</g>
	</g>
	<g display="inline">
		<g>
			<path fill="#EEB22A" d="M353.8,286.1c0.1,1.4,0.4,2.8-0.2,4c-0.3,0.6-1.9,2.2-2.6,1.4c0,0.5,0.1,1,0.2,1.5
				c1.1-2.3,1.2-4.8,0.1-7.2c-0.6-1.5-2.8-0.2-2.1,1.2c0.6,1.5,0.6,3.2-0.1,4.6c-0.2,0.5-0.2,1.1,0.2,1.5c1.6,1.6,3.9,0.8,5.4-0.5
				c2-1.7,2-4.3,1.8-6.8C356,284.5,353.5,284.5,353.8,286.1L353.8,286.1z"/>
		</g>
	</g>
	<g display="inline">
		<g>
			<path fill="#EEB22A" d="M364.3,278c0,3.1,3.1,4.9,5.7,3.1c1.5-1.1,2.2-5.1-0.5-5.1c-3,0-2.1,3.9-0.4,5c2.8,1.8,6.5-2.1,6.9-4.6
				c0-0.4-0.1-0.8-0.5-0.9h-0.1c-0.2-0.1-0.6,0-0.8,0.2c0,0.1,0,0.1,0,0.1c-0.6,0.8,0.5,1.8,1,1c-0.2,0.1-0.4,0.1-0.5,0.2
				c-0.1-0.3-0.4-0.6-0.5-0.9c-0.3,1.8-2.2,3.8-4,3.9c-3.9,0.2,0.8-3.9-0.9-0.4c-1.1,2.2-3.9,0.7-3.9-1.3
				C365.8,277.1,364.3,277.1,364.3,278L364.3,278z"/>
		</g>
	</g>
	<g display="inline">
		<g>
			<path fill="#EEB22A" d="M332.3,264.2c0.6-0.6,0.9-2-0.1-2.5c-0.4-0.2-0.9-0.5-1.3-0.5c-0.5,0-0.9,0.2-1.1,0.6
				c-0.5,0.6-0.5,1.2-0.5,2c0.1,0.8,0.8,1.2,1.4,1.5c0.8,0.3,1.5-0.1,2.1-0.6s0.8-1.4,0.6-2.1c-0.1-0.6-0.6-1.2-1.2-1.5
				c-0.8-0.3-1.5-0.3-2.2,0c-0.6,0.2-1,1.3-1,1.9c-0.2,0.8,0,1.7,0.5,2.3c0.9,1.1,2.7,1,3.6,0c1-1.2,0.6-2.9-0.6-3.9
				c-1.1-0.9-3-0.3-3.6,1c-0.4,0.9-0.4,2,0.4,2.8c0.6,0.6,1.6,0.9,2.5,0.6s1.6-1.2,1.5-2.2c-0.1-0.9-0.8-1.9-1.8-2
				c-0.6-0.1-1.4,0.1-1.5,0.9c-0.1,0.6,0.2,1.4,0.9,1.5c0.1,0.1,0.1,0,0,0c-0.1-0.1-0.1-0.1,0,0c-0.1-0.1-0.1-0.1,0,0
				c0-0.1,0-0.4,0-0.1c0-0.1,0-0.1,0-0.2c0.1-0.2-0.1,0,0.1-0.1c0.1,0,0.1,0,0,0c0.3-0.1-0.1,0,0.1,0c-0.1,0-0.1,0,0,0
				c0,0.1,0.2,0.2,0,0.1v0.1c0-0.3,0,0.1,0-0.1c0,0.1,0,0.1,0-0.1c0,0.1-0.2,0.2,0,0.1c-0.1,0-0.1,0,0,0c-0.2,0,0.2,0,0,0
				c0.1,0,0.1,0,0,0c0.2,0.1,0,0,0-0.1c0,0.1,0.1,0.1,0,0c0,0.1,0,0.4,0,0.1c0,0.2,0,0.2,0,0c0,0.2,0,0,0,0c0.1,0,0.1,0,0,0
				c0.2-0.1-0.2,0,0.1,0c-0.1,0-0.1,0,0,0c-0.3,0,0.1,0.1-0.1,0c0,0,0.1,0,0.1,0.1c0.1,0.2,0-0.2,0,0.1c0-0.1,0-0.1,0-0.1
				c0-0.1,0-0.2,0.1-0.4c0,0.1,0,0.1,0-0.1c0-0.1,0.1-0.2,0.2-0.3c-0.1,0.1-0.3,0.3-0.5,0.4c0,0.1-0.1,0.1-0.2,0.1c0.1,0,0.1,0,0,0
				c0.1,0,0.1,0,0,0c0.1,0.1,0.1,0.1,0,0c0-0.1,0-0.1,0,0c0-0.1,0-0.1-0.1-0.2c0-0.1,0.1-0.3,0-0.1c0.1-0.1,0.2-0.1,0.4-0.1
				c0.2,0,0.3,0.1,0.4,0.3c0-0.1,0-0.1,0,0.1c0-0.1,0-0.1,0,0.1c0-0.2,0-0.2,0,0c0,0.1-0.1,0.1-0.1,0.2c-0.1,0.1-0.1,0.1,0,0
				c-0.4,0-0.9,0-1.2,0c0.2,0.1,0.5,0.2,0.6,0.3c-0.2-0.2-0.4-0.5-0.5-0.8c0-0.2,0.1-0.5,0.1-0.7
				C329.4,263.6,331.2,265.4,332.3,264.2L332.3,264.2z"/>
		</g>
	</g>
	<g display="inline">
		<g>
			<path fill="#EEB22A" d="M306.9,263.4c0,0,0.2,0.1,0.2,0.2c0-0.1,0,0.1,0,0c-0.1,0.2,0,0,0.1,0c-0.7,0.1-1.2,0.5-1.2,1.2
				c0,0.6,0.5,1.3,1.2,1.2c1.4-0.1,2.4-1.1,2.4-2.5c0-1.5-1.4-2.5-2.8-2.6c-0.7-0.1-1.2,0.6-1.2,1.2
				C305.6,262.9,306.2,263.4,306.9,263.4L306.9,263.4z"/>
		</g>
	</g>
	<g display="inline">
		<g>
			<path fill="#EEB22A" d="M309.6,276c1.3,0,1.3-2,0-2S308.3,276,309.6,276L309.6,276z"/>
		</g>
	</g>
	<g display="inline">
		<g>
			<path fill="#EEB22A" d="M317.2,275.7c1.3,0,1.3-2,0-2S316,275.7,317.2,275.7L317.2,275.7z"/>
		</g>
	</g>
</g>
<g id="black_text" display="none">
	
		<text transform="matrix(1 0 0 1 227.8477 337.5479)" display="inline" fill="#82819F" font-family="'Gotham-Bold'" font-size="31.5">HELLO      hello</text>
	
		<text transform="matrix(1 0 0 1 227.8477 375.3481)" display="inline" fill="#82819F" font-family="'Gotham-Bold'" font-size="31.5">WENDY CHEN</text>
	
		<text transform="matrix(1 0 0 1 227.8477 413.1484)" display="inline" fill="#82819F" font-family="'Gotham-Bold'" font-size="31.5">Wendy Chen</text>
</g>
<g id="white_text" display="none">
	
		<text transform="matrix(1 0 0 1 238.2119 331.5527)" display="inline" fill="#F4E286" font-family="'Gotham-Bold'" font-size="31.5">HELLO      </text>
	
		<text transform="matrix(1 0 0 1 405.7119 331.5527)" display="inline" fill="#F4E286" font-family="'Gotham-Light'" font-size="31.5">hello</text>
	
		<text transform="matrix(1 0 0 1 238.2119 369.3525)" display="inline" fill="#F4E286" font-family="'Gotham-Bold'" font-size="31.5">WENDY CHEN</text>
	
		<text transform="matrix(1 0 0 1 238.2119 407.1523)" display="inline" fill="#F4E286" font-family="'Gotham-Light'" font-size="31.5">Wendy Chen</text>
</g>
<g id="yellow_text" display="none">
	
		<text transform="matrix(1 0 0 1 250.7163 333.0508)" display="inline" fill="#EEB22A" font-family="'Gotham-Bold'" font-size="31.5">HELLO      hello</text>
	
		<text transform="matrix(1 0 0 1 250.7163 370.8506)" display="inline" fill="#EEB22A" font-family="'Gotham-Bold'" font-size="31.5">WENDY CHEN</text>
	
		<text transform="matrix(1 0 0 1 250.7163 408.6504)" display="inline" fill="#EEB22A" font-family="'Gotham-Bold'" font-size="31.5">Wendy Chen</text>
</g>
</svg>
