<?xml version="1.0" encoding="utf-8"?>
<!-- Generator: Adobe Illustrator 18.0.0, SVG Export Plug-In . SVG Version: 6.00 Build 0)  -->
<!DOCTYPE svg PUBLIC "-//W3C//DTD SVG 1.1//EN" "http://www.w3.org/Graphics/SVG/1.1/DTD/svg11.dtd">
<svg version="1.1" id="Layer_1" xmlns="http://www.w3.org/2000/svg" xmlns:xlink="http://www.w3.org/1999/xlink" x="0px" y="0px"
	 viewBox="0 0 211 185" enable-background="new 0 0 211 185" xml:space="preserve">
<g>
	<g>
		<path fill="#FFFFFF" d="M149.6,46c-5.1-5.4-14.8-7.5-22-7.5c-8.2,0-16.1,3.4-22.2,8.7c-1.9,1.7,0.9,4.4,2.8,2.8
			c5.5-4.8,12.1-7.2,19.4-7.5c6-0.3,14.9,1.8,19.2,6.3C148.6,50.6,151.3,47.9,149.6,46L149.6,46z"/>
	</g>
</g>
<g>
	<g>
		<path fill="#FFFFFF" d="M106.3,47.8c-4.9-4-10.4-6.1-16.7-7c-4.7-0.7-14.4-1.9-17.6,2.5c-1.5,2.1,1.9,4,3.4,2c0.7-1,4.9-0.8,6-0.9
			c3-0.2,6.1,0,9.1,0.4c4.8,0.7,9.3,2.7,13,5.7C105.5,52.1,108.3,49.4,106.3,47.8L106.3,47.8z"/>
	</g>
</g>
<g>
	<g>
		<path fill="#FFFFFF" d="M91.6,67c-7,11.9-3.1,25.4,3.8,36.4c1.3,2.1,4.7,0.2,3.4-2C92.6,91.6,88.7,79.7,95,69
			C96.3,66.8,92.9,64.8,91.6,67L91.6,67z"/>
	</g>
</g>
<g>
	<g>
		<path fill="#FFFFFF" d="M127.6,102.8c-7.5-5.1-17.3-7.6-26.2-4.6c-6.6,2.3-11.2,11.2-5.9,17c6,6.6,18.1,7,26.1,4.5
			c7.2-2.2,10.8-10.4,5.9-16.4c-1.6-2-4.4,0.8-2.8,2.8c6.5,8-7.7,10.9-12.5,10.8c-5.2-0.1-11.3-0.4-14.5-5.2
			c-4.8-7.1,6.5-10.8,11.2-10.9c5.9-0.2,11.7,2.1,16.5,5.3C127.7,107.6,129.7,104.2,127.6,102.8L127.6,102.8z"/>
	</g>
</g>
<g>
	<g>
		<path fill="#FFFFFF" d="M104.7,120.1c0.5,7.9,2.2,15.4,5.2,22.6c1.2,2.8,2.5,6.4,4.6,8.6c2,2.2,4.4,1.3,7,0.8
			c2.5-0.5,1.4-4.3-1-3.8c-5.2,1-7.3-7.8-8.7-11.6c-1.9-5.4-2.8-11-3.2-16.7C108.5,117.6,104.5,117.6,104.7,120.1L104.7,120.1z"/>
	</g>
</g>
<g>
	<g>
		<path fill="#FFFFFF" d="M121.3,150.8c2.5,0,2.5-3.9,0-3.9S118.7,150.8,121.3,150.8L121.3,150.8z"/>
	</g>
</g>
<g>
	<g>
		<path fill="#FFFFFF" d="M122.9,149.7c0.8-1.6,1.7-3.3,2.5-4.9c1.1-2.3-2.2-4.2-3.4-2c-0.8,1.6-1.7,3.3-2.5,4.9
			C118.3,150,121.7,152,122.9,149.7L122.9,149.7z"/>
	</g>
</g>
<g>
	<g>
		<path fill="#FFFFFF" d="M112.1,129.7c1.5,5,4.1,9.3,7.8,13c4.7,4.7,10.3,5.5,16,8.1c2.3,1,4.3-2.3,2-3.4
			c-4.2-1.9-8.7-2.7-12.6-5.4c-4.7-3.1-7.9-8.1-9.4-13.4C115.2,126.2,111.4,127.3,112.1,129.7L112.1,129.7z"/>
	</g>
</g>
<g>
	<g>
		<path fill="#FFFFFF" d="M140.1,135.5c0.1,0.1,0.2,0.2,0.3,0.3c0.8,0.8,2,0.8,2.8,0c0.8-0.8,0.8-2,0-2.8c-0.1-0.1-0.2-0.2-0.3-0.3
			c-0.8-0.8-2-0.8-2.8,0C139.4,133.5,139.4,134.7,140.1,135.5L140.1,135.5z"/>
	</g>
</g>
<g>
	<g>
		<path fill="#FFFFFF" d="M140.2,134.5c-0.5,6.5-2.4,12.7-5.6,18.4c-0.7,1.2,0,2.4,1.2,2.9c8.7,3.6,14.8-9.6,17.4-15.7
			c1-2.3-2.4-4.3-3.4-2c-1.8,4.3-6.8,16.4-13,13.9c0.4,1,0.8,1.9,1.2,2.9c3.5-6.3,5.6-13.1,6.1-20.4
			C144.3,131.9,140.4,132,140.2,134.5L140.2,134.5z"/>
	</g>
</g>
<g>
	<g>
		<path fill="#FFFFFF" d="M146.4,151.7c6.4,0.6,12.6-0.8,18.1-4.1c2.2-1.3,0.2-4.7-2-3.4c-5,2.9-10.4,4.1-16.1,3.5
			C143.9,147.6,143.9,151.5,146.4,151.7L146.4,151.7z"/>
	</g>
</g>
<g>
	<g>
		<path fill="#FFFFFF" d="M152.8,151.7c1.2,6.1,7.3,4.4,11.3,2.2c5.8-3.2,11.7-8.7,13.4-15.2c0.7-2.5-3.1-3.5-3.8-1
			c-1.3,4.9-5.3,8.4-9.3,11.3c-1.6,1.2-7.2,5.2-7.9,1.7C156.1,148.2,152.3,149.3,152.8,151.7L152.8,151.7z"/>
	</g>
</g>
<g>
	<g>
		<path fill="#FFFFFF" d="M73.6,47.5c7.6-2.7,9.5,5.8,10.5,11.3c0.8,4.3,2,8.4,5.4,11.4c1.9,1.7,4.7-1.1,2.8-2.8
			c-5.1-4.5-4.2-12.6-7-18.5c-2.3-4.9-7.7-6.9-12.7-5.2C70.1,44.6,71.2,48.4,73.6,47.5L73.6,47.5z"/>
	</g>
</g>
<g>
	<g>
		<path fill="#FFFFFF" d="M152,51.4c7.9-8.2,22.3-1.3,28.9-12.1c1.3-2.2-2.1-4.1-3.4-2c-3.6,6-11.4,5.4-17.5,6.2
			c-4.2,0.6-7.9,2.1-10.8,5.2C147.5,50.4,150.3,53.2,152,51.4L152,51.4z"/>
	</g>
</g>
<g>
	<g>
		<path fill="#FFFFFF" d="M178.1,39.8c0.3,6.3,0.2,12.5-1.6,18.6c-2,7-7.3,11.5-13.1,15.5c-2.1,1.4-0.1,4.9,2,3.4
			c5.7-4,11.1-8.3,13.8-14.9c2.9-7.2,3.3-14.9,2.9-22.6C181.9,37.2,178,37.2,178.1,39.8L178.1,39.8z"/>
	</g>
</g>
<g>
	<g>
		<path fill="#FFFFFF" d="M163,77c2.9,9.9,5.8,19.9,8.8,29.8c3.1,10.4,6.4,21.3,2.5,32c-0.9,2.4,2.9,3.4,3.8,1
			c3.5-9.5,1.7-19.3-0.9-28.8c-3.2-11.8-6.9-23.4-10.3-35.1C166.1,73.5,162.3,74.5,163,77L163,77z"/>
	</g>
</g>
<g>
	<g>
		<path fill="#FFFFFF" d="M99,108.3c-0.4,0.9-0.4,1.9,0.3,2.6c0.8,0.8,1.7,0.8,2.7,0.4c1-0.5,1.2-1.8,0.7-2.7
			c-0.6-1-1.7-1.2-2.7-0.7c0,0-0.1,0-0.1,0c0.3-0.1,0.7-0.2,1-0.3c0,0-0.1,0-0.1,0c0.3,0.1,0.7,0.2,1,0.3c0.2,0.2,0.3,0.3,0.5,0.5
			c0.1,0.3,0.2,0.7,0.3,1c0,0,0-0.1,0-0.1c-0.1,0.3-0.2,0.7-0.3,1c0,0,0-0.1,0-0.1c0.5-1,0.3-2.1-0.7-2.7
			C100.8,107.1,99.4,107.4,99,108.3L99,108.3z"/>
	</g>
</g>
<g>
	<g>
		<path fill="#FFFFFF" d="M120.8,110.2c0,0.1-0.1,0.2-0.1,0.3c-0.2,0.2-0.5,0.5-0.7,0.7c-0.5,0.2-1,0.2-1.5,0
			c-0.2-0.2-0.5-0.5-0.7-0.7c0-0.1-0.1-0.2-0.1-0.3c0.2,1,1.4,1.6,2.4,1.4c1.1-0.3,1.6-1.4,1.4-2.4c-0.5-2.2-3.9-2.2-4.4,0
			c-0.2,1,0.3,2.1,1.4,2.4C119.3,111.8,120.5,111.2,120.8,110.2L120.8,110.2z"/>
	</g>
</g>
<g>
	<g>
		<path fill="#FFFFFF" d="M146.7,89.7c0.7-1,0.8-2.5,0.2-3.6c-0.7-1.4-1.9-2-3.4-2.1c-2.6-0.3-4.9,2.3-5.3,4.7
			c-0.5,2.5,0.8,5.1,3.4,5.7c3.1,0.7,5.5-1.8,6.8-4.3c0.3-0.6,0.4-1.4,0-2c-0.9-1.4-2-2.8-3.6-3.5c-1.4-0.6-3.5-0.5-4.6,0.7
			c-2.4,2.7-2.1,7.6,2.2,7.8c1.6,0.1,3.1-1.1,3.8-2.4c0.9-1.6,0.4-3.5-0.9-4.7c-2.7-2.7-7.4,0.3-6.2,3.9c0.3,0.8,1,1.4,1.9,1.4
			c1.7,0,2.7-1.3,3.1-2.8c0.7-2.4-3.1-3.5-3.8-1c-0.1,0.3,0,0.3-0.2,0.4c0.3-0.2,0.6-0.3,0.9-0.5c0,0,0,0,0,0c0.6,0.5,1.3,1,1.9,1.4
			c-0.1-0.2-0.2,0-0.1-0.1c-0.4,0.3-0.3-0.1-0.1,0.2c0-0.1-0.2,0.1-0.3,0.2c0.1-0.1,0.2,0.4,0.2,0.1c0-0.4,0.1-1.3,0.6-1.2
			c0.9,0.2,1.4,1.2,1.9,1.9c0-0.7,0-1.3,0-2c-0.4,0.8-1,2-1.9,2.4c-0.4,0.2-1,0.2-1.1-0.4c-0.1-0.7,0.1-1.3,0.6-1.8
			c0.2-0.2,0.6-0.3,0.9-0.4c-0.2,0-0.1-0.3-0.2-0.2c-0.6,0.9-0.2,2.2,0.7,2.7C145,91,146.1,90.5,146.7,89.7L146.7,89.7z"/>
	</g>
</g>
<g>
	<g>
		<path fill="#FFFFFF" d="M97.7,92c0.2-0.7,0.5-1.6,0.3-2.3c-0.2-0.6-0.7-1.3-1.3-1.6c-1.2-0.7-2.9-0.7-3.9,0.4
			C90.6,90.5,92,94,95,94.2c2.5,0.1,4.6-2.8,3.3-5.1c-1.2-2.1-4.5-2.8-6-0.7c-1.6,2-0.9,5.3,1.7,6.1c2.6,0.8,5.2-1.3,5.2-4
			c0-2.9-3.3-4.8-5.9-3.6c-2.5,1.2-3,4.4-1.3,6.4c1.1,1.3,3.1,1,4.4,0.3c1.3-0.7,2.3-2.1,2.4-3.6c0.1-1.5-0.7-2.9-2-3.6
			c-0.7-0.4-1.6-0.5-2.4-0.3c-0.8,0.2-1.4,0.8-2.1,1.2c-0.9,0.6-1.3,1.7-0.7,2.7c0.5,0.9,1.8,1.3,2.7,0.7c0.2-0.1,0.4-0.3,0.6-0.4
			c0.1-0.1,1-0.5,0.3-0.4c-0.1,0-0.2,0-0.2-0.2c0-0.1-0.1,0.2-0.3,0.3c-0.2,0.2-0.2,0.1-0.4,0.2c0.2,0,0.5,0.1,0.6,0.3
			c0,0,0.1,0.1,0.1,0.1c0,0.3,0.1-0.3,0-0.1c0.1-0.2,0.4-0.2,0.1-0.2c0.1,0,0.2,0.1,0.3,0.2c0,0,0-0.5,0,0.1c0-0.1,0-0.1,0-0.2
			c-0.2,0.2-0.2,0.2-0.1,0.1c0.2-0.1-0.3,0.1-0.1,0c0.1,0,0.2,0.1,0.2,0.1c-0.3-0.2-0.1-0.1,0,0c-0.2-0.5,0,0.2,0-0.3
			c0,0.2-0.1,0.2-0.2,0.3c-0.1,0.1-0.3,0.1-0.3,0.1c0.5-0.1-0.2-0.1,0.3,0c-0.3-0.1-0.3-0.3-0.3-0.6c0-0.2,0.1-0.2,0.3-0.3
			c-0.4,0.3,0.2,0-0.2,0.1c0.3-0.1,0.8,0.1,0.8,0.5c0,0.6-0.9,1-1.2,0.4c-0.1-0.5-0.1-1-0.2-1.5c-0.1,0.4-0.2,0.9-0.3,1.3
			c-0.2,1,0.3,2.1,1.4,2.4C96.2,93.7,97.5,93.1,97.7,92L97.7,92z"/>
	</g>
</g>
<g>
	<g>
		<path fill="#FFFFFF" d="M174.1,139.6c3.2,4,8.5,4.1,12,0.5c2.3-2.3,1.6-7.9-2.6-6.6c-3.8,1.2-5.2,5.6-2.8,8.8
			c3.5,4.8,10.1,1.1,13.6-1.4c1.3-1,0-3.3-1.3-2.3c-2.5,1.9-8.7,6.2-10.8,1.1c-1.1-2.7,5.3-3.6,0.7-0.3c-2.4,1.7-5.3,0.3-7-1.7
			C174.9,136.4,173,138.3,174.1,139.6L174.1,139.6z"/>
	</g>
</g>
<g>
	<g>
		<path fill="#FFFFFF" d="M142.6,90.2c1.9,0.5,3.9-0.6,4.3-2.6c0.5-2.3-1.8-4.1-3.9-3.6c0.3,0.8,0.7,1.6,1,2.4
			c0.6-0.3,1.2,0.5,1.2,1c0.1,1-0.6,2.1-1.1,2.9c-1,1.4,1.3,2.7,2.3,1.3c1.2-1.8,2.1-4,0.9-6c-0.9-1.6-3-2.3-4.6-1.4
			c-1.3,0.7-0.4,2.7,1,2.4c0.9-0.2,0.8,1.4-0.4,1.1C141.6,87.3,141,89.8,142.6,90.2L142.6,90.2z"/>
	</g>
</g>
<g>
	<g>
		<path fill="#FFFFFF" d="M127.9,20.3c3.5,0.5,5.5-2.7,6.2-5.7c1-4.2-3.3-6.7-6.8-6.5c-3.4,0.1-7.6,2.9-7.6,6.6
			c0,3.7,3.1,6.1,6.7,5.3c1.6-0.4,0.9-2.9-0.7-2.5c-2,0.5-3.6-1-3.3-3.1c0.3-1.9,2.1-2.9,3.7-3.5c2.1-0.7,5.3-0.1,5.5,2.6
			c0.1,1.3-1.3,4.5-3,4.3C127,17.6,126.2,20.1,127.9,20.3L127.9,20.3z"/>
	</g>
</g>
<g>
	<g>
		<path fill="#FFFFFF" d="M124.2,18.9c-3.9,4.4-5.4,10-4.1,15.7c0.4,1.7,2.9,1,2.5-0.7c-1-4.7,0.2-9.5,3.5-13.1
			C127.1,19.5,125.3,17.6,124.2,18.9L124.2,18.9z"/>
	</g>
</g>
<g>
	<g>
		<path fill="#FFFFFF" d="M132.4,34.2c1-5.8-0.2-11.6-3.7-16.4c-1-1.4-3.3,0-2.3,1.3c3.1,4.2,4.4,9.2,3.5,14.4
			C129.6,35.1,132.1,35.8,132.4,34.2L132.4,34.2z"/>
	</g>
</g>
<g>
	<g>
		<path fill="#FFFFFF" d="M132,33.9c2-3.7,4.8-6.8,8.3-9.3c1.4-1,0.1-3.2-1.3-2.3c-3.8,2.7-6.9,6.1-9.2,10.2
			C129,34,131.2,35.4,132,33.9L132,33.9z"/>
	</g>
</g>
<g>
	<g>
		<path fill="#FFFFFF" d="M140.9,26.1c0.2,3.5-0.4,7-1.8,10.2c-0.7,1.5,1.6,2.9,2.3,1.3c1.6-3.7,2.4-7.5,2.2-11.5
			C143.4,24.4,140.8,24.4,140.9,26.1L140.9,26.1z"/>
	</g>
</g>
<g>
	<g>
		<path fill="#FFFFFF" d="M140.2,38.2c3.1-2.1,6.4-3.5,10.1-4.3c1.7-0.3,1-2.9-0.7-2.5c-3.8,0.8-7.4,2.3-10.7,4.5
			C137.5,36.9,138.8,39.2,140.2,38.2L140.2,38.2z"/>
	</g>
</g>
<g>
	<g>
		<path fill="#FFFFFF" d="M150.4,34.2c-0.6,2.5-1.6,4.7-3.2,6.7c-1.1,1.3,0.8,3.2,1.9,1.9c1.9-2.3,3.2-4.9,3.9-7.9
			C153.4,33.2,150.8,32.5,150.4,34.2L150.4,34.2z"/>
	</g>
</g>
<g>
	<g>
		<path fill="#FFFFFF" d="M140.4,23c-0.8,1.1-0.3,2.9,1.2,3c1.3,0.1,2.7,0.1,3.9-0.5c2.5-1.2,3.1-4.3,1.3-6.4
			c-1.9-2.2-5.1-1.7-7,0.3c-2,2.2-1.4,6.1,1.9,6.3c1.7,0.1,1.7-2.5,0-2.6c-1.4-0.1,0.3-2.2,0.7-2.5c0.8-0.5,1.9-0.5,2.5,0.4
			c1.6,2.2-1.9,2.6-3.3,2.5c0.3,0.1,0.6,0.3,0.9,0.4c0.1,0.2,0.1,0.4,0.2,0.5C143.7,23,141.4,21.7,140.4,23L140.4,23z"/>
	</g>
</g>
<g>
	<g>
		<path fill="#FFFFFF" d="M151.1,33.4c-0.3-1.2-0.5-2.7,0.5-3.7c0.7-0.7,2-0.6,2.7,0c1.9,1.7-0.8,4.5-2.7,2.8
			c-1.3-1.1-3.1,0.7-1.9,1.9c1.9,1.6,4.5,1.6,6.4,0c1.7-1.5,1.7-4.4,0.4-6.1c-1.4-1.9-4.1-2.1-6.1-1c-2.4,1.4-2.4,4.5-1.9,6.8
			C148.9,35.8,151.4,35.1,151.1,33.4L151.1,33.4z"/>
	</g>
</g>
<g>
	<g>
		<path fill="#FFFFFF" d="M148.2,44.5c1.8,0.4,3.4,1.3,4.5,2.8c1,1.4,3.3,0,2.3-1.3c-1.5-2.1-3.6-3.5-6.1-4.1
			C147.2,41.6,146.5,44.2,148.2,44.5L148.2,44.5z"/>
	</g>
</g>
<g>
	<g>
		<path fill="#FFFFFF" d="M121.5,32.8c0.3-4.8-2.7-9.2-7.2-10.8c-1.6-0.6-2.3,1.9-0.7,2.5c3.4,1.3,5.5,4.7,5.3,8.3
			C118.8,34.5,121.4,34.4,121.5,32.8L121.5,32.8z"/>
	</g>
</g>
<g>
	<g>
		<path fill="#FFFFFF" d="M108.4,28.9c0.4,3.5,1.5,6.7,3.4,9.7c0.9,1.4,3.2,0.1,2.3-1.3c-1.6-2.6-2.7-5.4-3-8.4
			C110.8,27.3,108.2,27.2,108.4,28.9L108.4,28.9z"/>
	</g>
</g>
<g>
	<g>
		<path fill="#FFFFFF" d="M112.8,35.9c-3.3-2.6-7.2-4-11.4-4.2c-1.7-0.1-1.7,2.5,0,2.6c3.8,0.2,7.1,1.6,10.1,3.8
			C112.8,39.2,114.1,36.9,112.8,35.9L112.8,35.9z"/>
	</g>
</g>
<g>
	<g>
		<path fill="#FFFFFF" d="M99,37.3c0.8,3.2,3,6,6.1,7.3c1.5,0.7,2.9-1.6,1.3-2.3c-2.5-1.1-4.2-3.1-4.9-5.8
			C101.1,35,98.6,35.7,99,37.3L99,37.3z"/>
	</g>
</g>
<g>
	<g>
		<path fill="#FFFFFF" d="M109.7,28.2c2.4-0.1,4.3-2,4.2-4.5c-0.1-2.4-2.5-4.2-4.8-3.9c-2.4,0.2-4.1,2.6-3.9,4.9
			c0.2,2.4,2.5,4.1,4.8,4.1c1.7,0,1.7-2.6,0-2.6c-2.1,0-3.2-2.9-0.9-3.7c2.2-0.8,3.1,3.1,0.5,3.1C108,25.7,108,28.3,109.7,28.2
			L109.7,28.2z"/>
	</g>
</g>
<g>
	<g>
		<path fill="#FFFFFF" d="M100.1,35.6c0.4-1,0.8-2.4,0.2-3.4c-0.5-0.9-1.8-1.4-2.8-1.6c-2.1-0.5-4.1,0.6-4.9,2.6
			c-0.7,1.8,0.3,4,2.1,4.7c2.1,0.8,4.7-0.1,6.2-1.6c1.2-1.2-0.7-3.1-1.9-1.9c-0.8,0.8-3.9,2.1-4,0.1c0-0.8,0.5-1.3,1.2-1.4
			c0.4,0,0.9,0,1.3,0.2c0.5,0.2,0.5,0.4,0.3,0.9C97.2,35.8,99.4,37.1,100.1,35.6L100.1,35.6z"/>
	</g>
</g>
<g>
	<g>
		<path fill="#FFFFFF" d="M103.6,43.2c-0.3,0.9-0.7,1.9-1,2.8c-0.3,0.7,0.3,1.4,0.9,1.6c0.7,0.2,1.4-0.2,1.6-0.9
			c0.3-0.9,0.7-1.9,1-2.8c0.3-0.7-0.3-1.4-0.9-1.6C104.4,42.1,103.8,42.6,103.6,43.2L103.6,43.2z"/>
	</g>
</g>
<g>
	<g>
		<path fill="#FFFFFF" d="M126.9,35.5c0.7-2.9,1-5.8,0.7-8.7c-0.1-1.7-2.8-1.7-2.6,0c0.2,2.7,0,5.4-0.6,8
			C124,36.5,126.5,37.2,126.9,35.5L126.9,35.5z"/>
	</g>
</g>
<g>
	<g>
		<path fill="#FFFFFF" d="M135.5,37.4c1.1-1.6,2-3.2,2.7-5c0.3-0.7-0.3-1.4-0.9-1.6c-0.7-0.2-1.3,0.3-1.6,0.9
			c-0.6,1.6-1.5,3-2.4,4.4C132.3,37.5,134.5,38.8,135.5,37.4L135.5,37.4z"/>
	</g>
</g>
<g>
	<g>
		<path fill="#FFFFFF" d="M142.5,40.8c1.6,0.4,3.2-0.5,3.7-2.1c0.4-1.6-2.1-2.3-2.5-0.7c-0.1,0.4,0.1-0.1-0.1,0.2
			c0.1-0.1,0.1-0.1,0,0c0.1-0.1,0.1-0.1-0.1,0c-0.3,0.2,0.2,0-0.2,0.1c0.1,0,0.1,0,0,0c0.1,0,0.1,0,0,0
			C141.6,37.8,140.9,40.3,142.5,40.8L142.5,40.8z"/>
	</g>
</g>
<g>
	<g>
		<path fill="#FFFFFF" d="M118.6,37.3c-1-2.5-2-4.9-3-7.4c-0.6-1.5-3.2-0.9-2.5,0.7c1,2.5,2,4.9,3,7.4
			C116.7,39.6,119.3,38.9,118.6,37.3L118.6,37.3z"/>
	</g>
</g>
<g>
	<g>
		<path fill="#FFFFFF" d="M110.4,39.9c-1.2-0.3-2.1-0.9-2.9-1.8c-1.1-1.3-3,0.6-1.9,1.9c1.1,1.2,2.5,2.1,4.1,2.5
			C111.3,42.9,112,40.4,110.4,39.9L110.4,39.9z"/>
	</g>
</g>
<g>
	<g>
		<path fill="#FFFFFF" d="M62.8,109.9c3.4,1.9,6.8,3.8,10.1,5.7c1.2,0.7,2.3-0.6,1.8-1.8c-2.2-5.1-4.5-10.1-7.1-15.1
			c-0.8-1.5-3-0.2-2.3,1.3c2.6,4.9,5,9.9,7.1,15.1c0.6-0.6,1.2-1.2,1.8-1.8c-3.4-1.9-6.8-3.8-10.1-5.7
			C62.7,106.8,61.4,109.1,62.8,109.9L62.8,109.9z"/>
	</g>
</g>
<g>
	<g>
		<path fill="#FFFFFF" d="M51.2,106.9c-0.3,4.8-0.1,9.5,0.7,14.3c0.2,1.2,1.8,1.2,2.4,0.3c2.9-4.5,5.8-9,8.7-13.4
			c0.9-1.4-1.3-2.7-2.3-1.3c-2.9,4.5-5.8,8.9-8.7,13.4c0.8,0.1,1.6,0.2,2.4,0.3c-0.7-4.5-0.9-9-0.6-13.6
			C53.9,105.2,51.3,105.2,51.2,106.9L51.2,106.9z"/>
	</g>
</g>
<g>
	<g>
		<path fill="#FFFFFF" d="M51.4,90.1c-5.1,1.1-10.1,2.3-15.1,3.8c-1,0.3-1.4,1.9-0.3,2.4c5.3,2.6,10.4,5.6,15.2,9
			c1.4,1,2.7-1.3,1.3-2.3c-4.8-3.5-9.8-6.5-15.2-9c-0.1,0.8-0.2,1.6-0.3,2.4c5-1.5,10-2.8,15.1-3.8C53.8,92.3,53.1,89.8,51.4,90.1
			L51.4,90.1z"/>
	</g>
</g>
<g>
	<g>
		<path fill="#FFFFFF" d="M63.3,88.5c4-1.3,7.8-2.9,11.5-4.8c-0.6-0.6-1.2-1.2-1.8-1.8c-2.4,5.3-4.9,10.6-7.6,15.8
			c-0.8,1.5,1.5,2.8,2.3,1.3c2.6-5.2,5.2-10.5,7.6-15.8c0.5-1.2-0.6-2.4-1.8-1.8c-3.5,1.8-7.1,3.3-10.9,4.5
			C61,86.5,61.7,89,63.3,88.5L63.3,88.5z"/>
	</g>
</g>
<g>
	<g>
		<path fill="#FFFFFF" d="M64.3,86.3c-3.2-5.6-6.4-11.2-9.6-16.9c-0.7-1.1-2.4-0.6-2.4,0.7c-0.1,6.7-0.6,13.3-1.7,19.9
			c-0.3,1.7,2.3,2.4,2.5,0.7c1.1-6.8,1.8-13.7,1.8-20.6c-0.8,0.2-1.6,0.4-2.4,0.7c3.2,5.6,6.4,11.2,9.6,16.9
			C62.9,89.1,65.1,87.8,64.3,86.3L64.3,86.3z"/>
	</g>
</g>
<g>
	<g>
		<path fill="#FFFFFF" d="M58.7,111.5c4.5,20.2,9.3,40.3,14.3,60.4c0.4,1.6,2.9,0.9,2.5-0.7c-5-20.1-9.8-40.2-14.3-60.4
			C60.8,109.2,58.3,109.9,58.7,111.5L58.7,111.5z"/>
	</g>
</g>
<g>
	<g>
		<path fill="#FFFFFF" d="M62.5,109.9c4.5,20.2,9.3,40.3,14.3,60.4c0.4,1.6,2.9,0.9,2.5-0.7c-5-20.1-9.8-40.2-14.3-60.4
			C64.7,107.5,62.1,108.2,62.5,109.9L62.5,109.9z"/>
	</g>
</g>
<g>
	<g>
		<path fill="#FFFFFF" d="M77.9,171.2c1.7,0,1.7-2.6,0-2.6C76.2,168.6,76.2,171.2,77.9,171.2L77.9,171.2z"/>
	</g>
</g>
<g>
	<g>
		<path fill="#FFFFFF" d="M76.6,169.9c-0.2,0.6-1,0.7-1.6,0.6c-1.6-0.5-2.3,2-0.7,2.5c2,0.6,4.2-0.4,4.8-2.4
			C79.7,169,77.2,168.3,76.6,169.9L76.6,169.9z"/>
	</g>
</g>
<g>
	<g>
		<path fill="#FFFFFF" d="M50.9,104.4c0,1.6,0,3.3,0,4.9c0,1.7,2.6,1.7,2.6,0c0-1.6,0-3.3,0-4.9C53.5,102.7,50.9,102.7,50.9,104.4
			L50.9,104.4z"/>
	</g>
</g>
<g>
	<g>
		<path fill="#FFFFFF" d="M42.6,66.7c-2-3.7-4.3-7.2-6.8-10.5c-1-1.3-3.3,0-2.3,1.3c2.5,3.3,4.8,6.8,6.8,10.5
			C41.1,69.5,43.4,68.2,42.6,66.7L42.6,66.7z"/>
	</g>
</g>
<g>
	<g>
		<path fill="#FFFFFF" d="M33.3,83.5c-4.2-1.2-8-2.9-11.7-5.2c-1.4-0.9-2.7,1.4-1.3,2.3c3.8,2.4,8,4.2,12.3,5.5
			C34.3,86.5,35,83.9,33.3,83.5L33.3,83.5z"/>
	</g>
</g>
<g>
	<g>
		<path fill="#FFFFFF" d="M34.2,108.5c-5.6,0.9-10.9,2.6-16,5c-1.5,0.7-0.2,3,1.3,2.3c4.9-2.3,10-3.8,15.4-4.7
			C36.6,110.8,35.9,108.2,34.2,108.5L34.2,108.5z"/>
	</g>
</g>
<g>
	<g>
		<path fill="#FFFFFF" d="M71.5,71.4c0.3-1.9,0.9-3.8,1.8-5.5c0.8-1.5-1.5-2.8-2.3-1.3c-1,1.9-1.7,4-2,6.2
			C68.7,72.3,71.2,73,71.5,71.4L71.5,71.4z"/>
	</g>
</g>
<g>
	<g>
		<path fill="#FFFFFF" d="M48.6,128.5c-1.7,2.6-3.1,5.3-4.2,8.3c-0.6,1.6,2,2.3,2.5,0.7c1-2.7,2.3-5.2,3.9-7.6
			C51.8,128.4,49.5,127.1,48.6,128.5L48.6,128.5z"/>
	</g>
</g>
<g>
	<g>
		<path fill="#FFFFFF" d="M80.1,125.6c1.6,0.9,3.1,1.8,4.7,2.7c1.5,0.8,2.8-1.4,1.3-2.3c-1.6-0.9-3.1-1.8-4.7-2.7
			C79.9,122.5,78.6,124.8,80.1,125.6L80.1,125.6z"/>
	</g>
</g>
</svg>
