<?xml version="1.0" encoding="utf-8"?>
<!-- Generator: Adobe Illustrator 18.0.0, SVG Export Plug-In . SVG Version: 6.00 Build 0)  -->
<!DOCTYPE svg PUBLIC "-//W3C//DTD SVG 1.1//EN" "http://www.w3.org/Graphics/SVG/1.1/DTD/svg11.dtd">
<svg version="1.1" id="Layer_1" xmlns="http://www.w3.org/2000/svg" xmlns:xlink="http://www.w3.org/1999/xlink" x="0px" y="0px"
	 viewBox="0 110 612 576" enable-background="new 0 110 612 576" xml:space="preserve">
<g>
	<g>
		<path fill="#E91E5A" d="M355.4,270.1c-32.6-39.2-83.2-54.9-132.6-43.9c-25.1,5.9-49.4,18.8-69.4,34.9
			c-24.3,19.6-35.3,48.6-44.3,77.7c-3.1,10.2,12.9,14.5,16.1,4.3c7.5-25.1,16.5-47.5,35.3-66.3c16.5-16.1,39.2-25.9,60.8-33
			c44.7-14.1,93,2.4,122.4,38.1C350.7,289.7,362.1,277.9,355.4,270.1L355.4,270.1z"/>
	</g>
</g>
<g>
	<g>
		<path fill="#E91E5A" d="M86.3,393.6c16.5,20.4,42.4,21.6,65.5,13.7c17.3-5.9,42.8-24.7,29-45.9c-26.3-41.2-119.3-24.7-98.5,32.2
			c3.5,9.8,19.6,5.5,16.1-4.3c-13.7-37.7,38.8-38.4,60-28.2c22.4,10.6,3.9,22.8-3.5,27.1c-5.5,3.1-12.2,4.7-18.4,6.7
			c-14.9,3.9-29-0.8-38.4-12.6C91.4,373.6,80,385.4,86.3,393.6L86.3,393.6z"/>
	</g>
</g>
<g>
	<g>
		<path fill="#E91E5A" d="M87.1,403.1c9.8,10.6,14.5,23.9,21.6,36.1c6.3,11.4,14.1,21.6,22,31.8c16.9,21.2,38.4,38.4,61.6,52.2
			c9,5.5,17.7-9,8.2-14.1c-22.4-13.3-41.6-29.8-58.1-49.4c-17.7-20.8-25.1-48.3-43.5-67.9C91.4,383.4,79.6,395.2,87.1,403.1
			L87.1,403.1z"/>
	</g>
</g>
<g>
	<g>
		<path fill="#E91E5A" d="M365.6,405c1.2,78.1-98.5,114.6-162.8,101.2c-10.2-2-14.9,13.7-4.3,16.1c74.5,15.3,185.2-27.5,183.6-116.9
			C382.1,394.4,365.6,394.4,365.6,405L365.6,405z"/>
	</g>
</g>
<g>
	<g>
		<path fill="#E91E5A" d="M162.4,493.3c-15.3-0.8-29-0.4-42,7.8c-4.7,3.1-9,7.8-12.9,12.2c-9.4,9.8-21.2,12.9-34.1,16.1
			c-6.7,1.6-4.3,10.2,1.6,11c34.5,4.3,84,3.9,92.6-39.6c1.6-7.1-9.4-9.8-10.6-2.7c-7.5,38.1-52.6,35.3-82,31.4
			c0.4,3.5,0.8,7.1,1.6,11c12.9-3.1,24.3-6.7,34.9-14.9c7.1-5.5,11.8-12.2,19.2-17.3c8.6-5.9,22-4.3,31.8-3.5
			C169.5,504.7,169.5,493.7,162.4,493.3L162.4,493.3z"/>
	</g>
</g>
<g>
	<g>
		<path fill="#E91E5A" d="M207.9,515.7c-2,0-3.9,0-5.9,0c0,3.5,0,7.5,0,11c11.8,0,24.7,12.9,35.3,18c8.2,4.3,18.4,7.1,27.9,7.8
			c24.7,2.4,50.2-7.5,74.1,1.2c3.9,1.2,8.2-2.7,6.7-6.7c-7.8-21.6,19.2-51.4,27.5-70.6c8.6-19.6,12.2-40,10.2-61.2
			c-0.8-7.1-11.8-7.1-11,0c3.1,29-6.7,54.9-20.8,80c-9.8,17.3-23.9,34.1-16.5,54.9c2.4-2.4,4.7-4.7,6.7-6.7
			c-23.1-8.2-46.7-0.4-70.6-0.8c-16.5-0.4-32.2-7.8-45.5-16.9c-8.2-5.9-13.7-9.8-23.9-9.8c-7.1,0-7.1,11,0,11c2,0,3.9,0,5.9,0
			C215.4,526.6,215.4,515.7,207.9,515.7L207.9,515.7z"/>
	</g>
</g>
<g>
	<g>
		<path fill="#E91E5A" d="M356.2,294c20.8,0,38.4,13.3,57.7,19.6c18.4,6.3,38.4,0,56.5-4.7c10.2-2.7,5.9-18.4-4.3-16.1
			c-25.5,6.7-43.2,7.8-67.1-3.1c-13.7-6.7-27.1-12.2-42.4-12.2C345.2,277.5,345.2,294,356.2,294L356.2,294z"/>
	</g>
</g>
<g>
	<g>
		<path fill="#E91E5A" d="M461,306.6c-0.4,51.4-47.9,82.8-94.5,87.9c-10.6,1.2-10.6,17.7,0,16.5c55.7-6.3,110.2-43.5,111-104.4
			C477.4,296,461,296,461,306.6L461,306.6z"/>
	</g>
</g>
<g>
	<g>
		<path fill="#E91E5A" d="M288,346.6c2.4-2.7,3.9-6.3,2.4-9.8c-1.6-3.5-4.3-6.7-8.2-7.1c-9.8-1.2-13.3,7.1-12.9,15.3
			c0.4,3.5,2.4,7.1,5.9,7.8c4.7,1.2,9.4,0.8,13.7-1.6c4.3-2,9.8-5.5,9.8-10.6c0-2,0-4.3-0.4-6.3c-0.8-2.7-3.1-4.7-5.5-6.7
			c-3.9-2.7-8.6-4.3-13.3-3.9c-10.6,1.2-17.3,11.4-12.9,21.6c3.5,7.5,11,11.4,18.8,11.4c7.8,0.4,14.9-4.7,17.7-12.2
			c2.7-7.1,0.4-14.5-3.9-20.4c-5.1-6.7-14.9-6.7-22-2.7c-7.1,3.9-11.4,13.3-8.2,21.2c1.6,4.3,5.5,7.1,10.2,5.9
			c3.9-1.2,7.5-5.9,5.9-10.2c-0.4-0.8-0.8-0.8,0-2s1.6-1.2,2-1.2c-1.2-0.4,0.8,0.8,0,0c0.4,0.4,0.8,1.2,0.8,0.8
			c0.8,1.6,0.4,1.2,0.4,2.4c0,0.8-0.4,1.2,0,0.8c-0.4,0.8-0.8,0.8-1.2,1.2c-2,0.4-2.7,0-4.3-0.8c0.8,0.4-0.8-1.2-0.4-0.4
			c-1.2-1.6,0,0-0.4,0.8c-0.8,0.8-1.6,0,0.8,0.4c0.8,0.4,2,1.2,2.7,2c-0.8-2-1.6-3.9-2.4-5.9c0,1.2,0,2.7,0,3.9
			c1.2-2.4,2.7-4.7,3.9-7.1c-1.6,1.2-4.7,3.9-6.7,3.5c2,2.7,3.9,5.5,5.9,7.8c0-0.8,0-1.6,0-2c0.4-2.7-0.8-1.6-3.5,2.7
			c-1.6,0-2.7,0-4.3,0c1.6,0.4,1.2,0-1.2-0.8c-0.8-1.2-1.6-2.4-2-3.5c0-0.4,0-0.8,0-1.2c0.8-2,1.6-3.9,2.4-5.9l-0.4,0.4
			c-2.7,3.5-3.5,8.2,0,11.8C278.9,349.3,284.8,350.1,288,346.6L288,346.6z"/>
	</g>
</g>
<g>
	<g>
		<path fill="#E91E5A" d="M105.5,379.9c7.1,0,7.1-11,0-11C98.5,368.9,98.1,379.9,105.5,379.9L105.5,379.9z"/>
	</g>
</g>
<g>
	<g>
		<path fill="#E91E5A" d="M146.3,379.9c0.4,0,0.8,0,1.6,0c3.1,0,5.5-2.4,5.5-5.5s-2.4-5.5-5.5-5.5c-0.4,0-0.8,0-1.6,0
			c-3.1,0-5.5,2.4-5.5,5.5C140.8,377.6,143.6,379.9,146.3,379.9L146.3,379.9z"/>
	</g>
</g>
<g>
	<g>
		<path fill="#E91E5A" d="M163.2,513.7c-2,25.5-2.4,51-1.2,76.5c0.8,14.1-1.6,43.9,10.6,54.9c7.1,6.7,20.8,12.9,29,3.9
			c5.5-5.9,7.8-13.7,12.9-20c11-13.7,31.4-14.1,47.1-13.3c12.6,0.8,31.4,3.1,41.6,11.4c5.1,4.3,6.7,18,10.2,24.7
			c6.7,12.9,22,10.6,32.6,5.9c14.9-7.1,25.5-27.9,31-42c7.8-20,11-40.4,9-62c-0.8-10.6-17.3-10.6-16.5,0c1.6,18-0.4,34.9-6.3,52.2
			c-3.5,11-31,60.4-39.6,27.1c-7.5-27.9-37.7-30.2-62-33c-27.1-3.1-56.5,6.7-67.9,33c-9,0.4-13.3-3.5-12.6-11.8
			c-0.4-5.1-1.2-10.2-1.6-15.3c-0.8-10.2-1.2-20.4-1.6-30.6c-0.8-20.4,0.4-40.8,1.6-61.2C180.5,503.1,164,503.1,163.2,513.7
			L163.2,513.7z"/>
	</g>
</g>
<g>
	<g>
		<path fill="#E91E5A" d="M424.9,635.7c-3.9,7.1-7.5,13.7-11.4,20.8c-2.4,4.7-0.4,11,5.1,12.2c6.3,1.6,12.9,3.1,19.2,4.3
			c10.2,2.4,14.9-13.3,4.3-16.1c-6.3-1.6-12.9-3.1-19.2-4.3c1.6,3.9,3.1,8.2,5.1,12.2c3.9-7.1,7.5-13.7,11.4-20.8
			C444.5,634.5,430,626.3,424.9,635.7L424.9,635.7z"/>
	</g>
</g>
<g>
	<g>
		<path fill="#E91E5A" d="M447.2,673.8c34.5-42,63.9-84.7,54.1-141.6c-10.2-58.8-60-101.6-103.6-138.1c-8.2-6.7-20,4.7-11.8,11.8
			c37.7,31.8,76.1,64.3,93.8,111.8c21.2,56.1-10.2,102.8-44.7,144.8C429.2,670.2,440.6,682,447.2,673.8L447.2,673.8z"/>
	</g>
</g>
<g>
	<g>
		<path fill="#E91E5A" d="M420.2,640c-19.6-9.8-40.4-12.6-61.6-8.6c-10.6,2-5.9,18,4.3,16.1c16.9-3.5,33.7-0.8,49,6.7
			C421.3,658.8,429.6,644.7,420.2,640L420.2,640z"/>
	</g>
</g>
<g>
	<g>
		<path fill="#E91E5A" d="M433.1,430.5c53-12.6,81.6-62.8,78.9-114.9c-1.2-22.4-10.6-42.4-33.3-49.4c-29.8-9.8-61.6-10.6-91.4-20.4
			c-30.6-10.2-58.8-26.7-89.4-36.9c-30.2-9.8-62-14.9-93.8-16.1c-57.7-2-114.9,16.9-159.3,54.1c-3.5,3.1-2.7,8.6,0,11.8
			c22,22.8,42,46.7,60.4,72.6c6.3,8.6,20.4,0.4,14.1-8.2c-19.2-26.7-40.4-52.2-63.2-75.7c0,3.9,0,7.8,0,11.8
			c82.4-69.8,196.9-55.3,288.7-13.7c19.2,8.6,37.3,17.3,57.7,22.4c24.7,6.3,51.8,6.3,75.3,16.1c29.8,12.9,18,65.1,7.8,86.7
			C475,393.8,453,409.1,428.7,415C418.6,416.8,422.9,432.9,433.1,430.5L433.1,430.5z"/>
	</g>
</g>
<g>
	<g>
		<path fill="#E91E5A" d="M364.8,198.7c-37.7-18.4-38.4-72.2-85.1-78.9c-45.5-6.7-74.1,36.9-88.3,73c-3.9,9.8,12.2,14.1,16.1,4.3
			c13.7-34.5,53-85.1,93-50.2c22.4,19.6,27.5,51.8,56.1,65.9C366,217.5,374.3,203.4,364.8,198.7L364.8,198.7z"/>
	</g>
</g>
<g>
	<g>
		<path fill="#E91E5A" d="M354.6,207.7c10.2,0,19.2-1.6,27.9,5.5c10.2,8.2,10.6,22.4,4.3,33c-5.5,9,8.6,17.7,14.1,8.2
			c8.6-14.9,8.6-33-1.6-47.1c-11.4-15.7-27.5-16.5-45.1-16.5C344.1,191.6,344.1,208.1,354.6,207.7L354.6,207.7z"/>
	</g>
</g>
<g>
	<g>
		<path fill="#E91E5A" d="M432.3,634.5c-14.9-12.2-20.4-31-13.7-49c3.5-10.2-12.2-14.5-16.1-4.3c-8.2,23.1-1.2,49.4,18,65.1
			C429.2,652.6,440.6,641.2,432.3,634.5L432.3,634.5z"/>
	</g>
</g>
<g>
	<g>
		<path fill="#E91E5A" d="M160.1,516.8l-0.4-0.4c0,2.7,0,5.1,0,7.8c0.4-0.4,0.4-0.4,0.8-0.8c-2,0.4-3.5,0.8-5.5,1.6
			c0.4,0,0.4,0,0.8,0c-1.2-2-2.7-3.5-3.9-5.5c0,1.2-3.9,6.3-4.7,7.8c-2,5.5-3.1,10.6-3.9,16.1c-1.6,12.6,0.4,28.6-11.4,37.3
			c-5.1,3.5-2,11.4,4.3,10.2c13.7-2.7,24.7-11.4,31-23.9c3.1-6.3-6.7-12.2-9.4-5.5c-5.1,10.6-12.9,16.9-24.3,19.2
			c1.6,3.5,2.7,6.7,4.3,10.2c9.4-6.7,13.7-16.5,15.3-27.9c1.2-8.2,1.2-16.5,2.7-24.7c1.2-6.7,7.8-11.4,7.5-18c0-2.4-1.6-4.7-3.9-5.5
			c-2.7-0.4-4.7-0.4-6.7,2s-2,5.5,0,7.8l0.4,0.4C156.9,529.8,164.8,521.9,160.1,516.8L160.1,516.8z"/>
	</g>
</g>
<g>
	<g>
		<path fill="#E91E5A" d="M495.9,584.3c16.5-1.6,31.4-6.3,37.7-22.4c4.7-12.2-3.9-27.9-16.9-18c-9.4,7.1-12.2,25.5-4.7,34.9
			c11.8,14.1,32.6,7.1,46.7,0.4c6.3-3.1,0.8-12.6-5.5-9.4c-7.5,3.5-14.9,5.9-22.8,6.3c-14.5,0.8-14.5-24.7-3.5-24.3
			c-1.6-0.8-3.1-2-4.7-2.7c9,16.5-14.5,23.1-26.3,24.7C488.8,574.1,488.8,585.1,495.9,584.3L495.9,584.3z"/>
	</g>
</g>
</svg>
