<?xml version="1.0" encoding="utf-8"?>
<!-- Generator: Adobe Illustrator 18.0.0, SVG Export Plug-In . SVG Version: 6.00 Build 0)  -->
<!DOCTYPE svg PUBLIC "-//W3C//DTD SVG 1.1//EN" "http://www.w3.org/Graphics/SVG/1.1/DTD/svg11.dtd">
<svg version="1.1" id="Layer_1" xmlns="http://www.w3.org/2000/svg" xmlns:xlink="http://www.w3.org/1999/xlink" x="0px" y="0px"
	 viewBox="0 0 181.5 135.6" enable-background="new 0 0 181.5 135.6" xml:space="preserve">
<g>
	<g>
		<path d="M133.4,31.9c-1.9-1.2-3.9-2.2-6.1-2.9c-1.6-0.6-7.8-0.4-8.7-1.6c-0.9-1.2-2.4-1.2-3.2,0c-0.5,0.6-0.9,1.3-1.4,1.9
			c1.1,0.6,2.2,1.3,3.2,1.9c2.3-5.3-5.7-6.5-5.3-1.4c1.2-0.2,2.5-0.3,3.7-0.5c-0.6-1.7-0.6-1.9-2-3.1c-0.9-0.8-2.3-0.7-2.9,0.4
			c-0.6,0.9-1.1,1.8-1.7,2.7c1.2,0.3,2.3,0.6,3.5,0.9c0-1.6-0.4-2.6-1.6-3.7c-1-0.8-2.2-0.7-2.9,0.4c-0.7,1.1-0.9,1.6-1.4,2.8
			c1-0.3,2.1-0.6,3.1-0.8c-0.6-0.7-1.1-1.3-1.7-2c-0.8-0.9-2.4-0.6-2.9,0.4c-0.9,1.6-1,1.7-1.3,3.5c1.2,0,2.4,0,3.6,0
			c-1.5-4.8-7.6-5.1-8.1,0.3c1.2,0,2.5,0,3.8,0c-0.2-4.1-5.2-5.6-7-1.6c0.9-0.2,1.7-0.4,2.6-0.7c-2.1-1.3-4.7-0.4-5.1,2.2
			c-0.3,1.7,1.2,2.8,2.8,2.1c2.4-1,4.3-0.8,6.6,0.1c0.2-1.2,0.3-2.5,0.5-3.7c-7.9-0.6-15.3,1-22.3,4.7c0.9,0.7,1.8,1.4,2.8,2.1
			c0.8-2.3,9.3-4.3,11.5-5.2c1.7-0.7,1.8-3,0-3.6c-1.8-0.6-1.8-0.6-3.6-0.5c-1.7,0.1-2.7,2.6-0.9,3.5c0.4,0.2,0.9,0.4,1.3,0.7
			c2.2,1.1,4.1-2.2,1.9-3.2c-0.4-0.2-0.9-0.4-1.3-0.7c-0.3,1.2-0.6,2.3-0.9,3.5c0.9,0.1,1.8,0.3,2.6,0.4c0-1.2,0-2.4,0-3.6
			c-4.3,1.7-12.3,2.9-14.1,7.8c-0.6,1.6,1.4,2.8,2.8,2.1c6.4-3.4,13.1-4.7,20.4-4.2c2.3,0.2,2.3-2.9,0.5-3.7
			c-3.3-1.4-6.2-1.1-9.5,0.2c0.9,0.7,1.8,1.4,2.8,2.1c-0.1,0-0.3,0-0.4,0c0.8,0.5,2.1,0.3,2.6-0.7c0-0.1,0-0.2,0-0.3
			c0.1,2.4,3.5,2.4,3.8,0c0.2,0.2,0.5,0.4,0.7,0.7c0.5,1.6,3.2,1.9,3.6,0c0.3-0.9,0.6-1.7,1-2.6c-1,0.1-2,0.3-2.9,0.4
			c0.6,0.7,1.1,1.3,1.7,2c1,1.2,2.7,0.4,3.1-0.8c0.3-0.6,0.7-1.3,1-1.9c-1,0.1-2,0.3-2.9,0.4c0.2,0.3,0.3,0.7,0.5,1
			c0,1.9,2.5,2.5,3.5,0.9c0.6-0.9,1.1-1.8,1.7-2.7c-1,0.1-2,0.3-2.9,0.4c0.4,0.5,0.7,1,1.1,1.4c0.6,1.9,3.9,1.7,3.7-0.5
			c-0.6-0.2-1.1-0.4-1.7-0.5c-1,2.2,1.8,3.9,3.2,1.9c0.5-0.6,0.9-1.3,1.4-1.9c-1.1,0-2.2,0-3.2,0c1.1,1.5,2.2,2.2,4.1,2.3
			c4.4,0.2,8.2,1.1,12,3.5C133.6,36.4,135.5,33.2,133.4,31.9L133.4,31.9z"/>
	</g>
</g>
<g>
	<g>
		<path d="M85.6,26.1c-4.4,0.9-9.1-3.4-6.8-7.8c1.1-2.3,5-3.8,7.1-2.6c2.2,1.2,4.3,3.7,3.8,6.3c-0.2,1.2-1.3,2.5-2,3.5
			c-1.1,1.5,0.6,1.3,0.3,0.7c-0.7-1.5-1.9-1.9-3.5-2.2c-2.5-0.6-5.3-3.4-2.2-5.5c2.9-1.9,6.4,3.9,3.2,4.8c0.8,0.6,1.6,1.2,2.4,1.8
			c0.1-2.4-0.5-4.4-1.7-6.5c-0.7-1.1-2.6-1.3-3.2,0c-1,2-0.7,3.9,0.8,5.6c1,1.1,2.7,0.4,3.1-0.8c1.1-3-0.8-8.6-5-7
			c-3.5,1.3-4,6.5,0.2,7.2c3.6,0.6,3.7-5.7,0.3-5.6c-4.6,0.2-4.3,5.9,0.3,6c2.4,0,2.4-3.7,0-3.8c-0.5,0.1-0.9,0.2-1.4,0.2
			c0.6-0.2,1.2-0.3,1.8-0.5c0.6,0.8,0.7,1.6,0.2,2.4c1-0.3,2.1-0.6,3.1-0.8c-0.1-0.3-0.1-0.7-0.2-1c-1.1,0-2.2,0-3.2,0
			c0.9,1.5,1.2,2.9,1.2,4.6c0,1.2,1.2,2.1,2.4,1.8c9.4-2.5,0.1-17.7-7.2-10.9c-3.5,3.4-2.4,7.8,1.4,10.4c0.8,0.6,1.8,0.9,2.8,1.2
			c1.2,0.4,1.3,1.1,2.1,2c1.5,1.6,3.7-0.3,4.6-1.4c3.1-3.8,4.6-8.6,1-12.6c-3.7-4-7.8-5.1-12.6-2.1c-9.4,5.8-1.7,18.5,7.8,16.5
			C89,29.3,87.9,25.6,85.6,26.1L85.6,26.1z"/>
	</g>
</g>
<g>
	<g>
		<path d="M133.3,26.3c-3.2-0.9-2.6-7.2-1-9.1c2.2-2.6,6-1.8,7.7,0.8c2.1,3.2-0.9,6.9-3.5,8.7c-2.3,1.6-4-7.6-2.2-9.1
			c-0.6,0.2-1.2,0.3-1.8,0.5c-0.7-0.1-0.5,0.4-0.6,1.2c-0.1,1-0.2,2-0.2,3c0,1.8,0.4,3.6,1,5.3c0.3,0.9,1.3,1.7,2.3,1.3
			c0.4-0.1,0.8-0.3,1.2-0.4c0.9-0.3,1.3-0.9,1.4-1.8c0.2-2.5-2.1-7.8,0.3-9.5c-0.9-0.7-1.8-1.4-2.8-2.1c-0.6,3.6-1.1,7.2-0.8,10.9
			c0.1,1,0.8,2,1.9,1.9c5.3-0.4,3.7-6.6,3.3-10.2c-0.5,0.6-0.9,1.2-1.4,1.8c0.2,0,0.4,0,0.6,0c-0.5-0.6-0.9-1.2-1.4-1.8
			c-0.3,2.4-0.6,4.9-0.9,7.3c-0.3,2.4,3.5,2.4,3.8,0c0.3-2.4,0.6-4.9,0.9-7.3c0.1-0.8-0.7-1.6-1.4-1.8c-1.1-0.3-1.5-0.3-2.6,0
			c-0.7,0.2-1.5,1-1.4,1.8c0.1,0.5,0.8,6.4,0.5,6.5c0.6,0.6,1.2,1.2,1.9,1.9c-0.3-3.4,0.1-6.6,0.7-9.9c0.2-1.4-1.3-3.2-2.8-2.1
			c-4.7,3.3-1.7,8.1-2.1,12.7c0.5-0.6,0.9-1.2,1.4-1.8c-0.4,0.1-0.8,0.3-1.2,0.4c0.8,0.4,1.5,0.9,2.3,1.3c-0.8-2.6-1-5.1-0.5-7.8
			c0.3-1.5,0.3-3.2-1.2-4.1c-3.7-2.2-4.6,3.7-4.8,5.9c-0.2,2.9,0.9,8.7,4.2,9.8c3.8,1.2,6.9-2.2,8.8-5c4.8-6.9-2.2-15.6-9.9-13.1
			c-6.8,2.3-8.3,15.5-0.7,17.5C134.6,30.5,135.6,26.9,133.3,26.3L133.3,26.3z"/>
	</g>
</g>
<g>
	<g>
		<path d="M82.8,37.3c-9.7-5.2-19.7,6.2-29.3,0.5c-1.7-1-3.4,0.9-2.6,2.6c2.6,5.2,4.9,10.7,8.6,15.2c3.7,4.3,9.8,4.3,14.9,4
			c2.4-0.1,2.4-3.9,0-3.8c-5.6,0.3-10.3,0.1-13.8-4.9c-2.6-3.7-4.4-8.3-6.5-12.4c-0.9,0.9-1.7,1.7-2.6,2.6c3.8,2.3,7.6,2.4,11.9,1.8
			c5.5-0.8,12-5.2,17.4-2.3C83,41.6,84.9,38.4,82.8,37.3L82.8,37.3z"/>
	</g>
</g>
<g>
	<g>
		<path d="M137.5,38.3c4.8-2.1,10.3,1,15.1,1.8c3.7,0.6,7.4-0.1,10.9-1.4c-0.7-0.9-1.4-1.8-2.1-2.8c-4.9,6.6-7.5,19.9-17.8,19.6
			c-2.4-0.1-2.4,3.7,0,3.8c12.4,0.4,15.1-13.5,21.1-21.4c1-1.3-0.6-3.3-2.1-2.8c-5.9,2.1-10.9,1.1-16.7-0.5c-3.6-1-6.8-1-10.2,0.5
			C133.4,36.1,135.3,39.3,137.5,38.3L137.5,38.3z"/>
	</g>
</g>
<g>
	<g>
		<path d="M67.5,56.7C57,65.9,45,76,40.1,89.5c-4.2,11.5-2,24.8,4.7,34.9c1.3,2,4.6,0.1,3.2-1.9c-6.6-10-7.9-22.1-3.8-33.4
			c4.4-12,16.6-21.6,26-29.7C72,57.8,69.4,55.1,67.5,56.7L67.5,56.7z"/>
	</g>
</g>
<g>
	<g>
		<path d="M139.3,51.2c3.4,13.9,3.8,28.6-4.7,40.7c-1.4,2,1.9,3.9,3.2,1.9c9-13,8.7-28.8,5.1-43.6C142.3,47.8,138.7,48.8,139.3,51.2
			L139.3,51.2z"/>
	</g>
</g>
<g>
	<g>
		<path d="M134.3,94.3c-1.2,10.1-5.1,19.4-11,27.7c-1.4,2,1.8,3.8,3.2,1.9c6.4-8.8,10.2-18.8,11.6-29.5
			C138.3,91.9,134.6,92,134.3,94.3L134.3,94.3z"/>
	</g>
</g>
<g>
	<g>
		<path d="M46.9,126.8c2.4,0.8,7.9,1.9,8.9-1.6c1.3-4.6,0.9-9.5-0.2-14.1c-0.6-2.3-4.2-1.3-3.6,1c0.6,2.6,0.9,5.1,0.8,7.8
			c0,0.9,0.2,3.7-0.9,3.8c-1.4,0.2-2.7-0.2-4-0.6C45.6,122.4,44.6,126,46.9,126.8L46.9,126.8z"/>
	</g>
</g>
<g>
	<g>
		<path d="M54.7,118.1c11.5,0.8,22.9,1.6,34.4,0.1c2.4-0.3,2.4-4.1,0-3.8c-11.5,1.5-22.9,0.7-34.4-0.1
			C52.3,114.2,52.3,117.9,54.7,118.1L54.7,118.1z"/>
	</g>
</g>
<g>
	<g>
		<path d="M87.5,111.4c-0.2,3.1,0.2,6.1,1,9.1c0.5,1.8,1.7,6.6,4.1,6.7c2.1,0,6.8,1.1,8.2-1c0.6-0.8,0.6-1.8,0.7-2.7
			c0.3-2.1,0.5-4.2,0.8-6.2c0.3-2.4-3.5-2.4-3.8,0c-0.3,2.1-0.5,4.2-0.8,6.2c0,0.2-4.7,0-5.1,0c0.5,0.3,1.1,0.6,1.6,0.9
			c-2.3-4-3.2-8.4-2.9-13C91.4,108.9,87.6,109,87.5,111.4L87.5,111.4z"/>
	</g>
</g>
<g>
	<g>
		<path d="M100.5,119.5c0.1,0,0.1,0,0.2,0c-0.6-0.5-1.2-0.9-1.8-1.4c0,0.1,0,0.1,0.1,0.2c0.4-0.8,0.9-1.5,1.3-2.3
			c-0.1,0-0.1,0-0.2,0.1c0.7,0.3,1.4,0.6,2.1,0.9c0-0.1-0.1-0.1-0.1-0.2c-0.4,0.9-0.7,1.8-1.1,2.8c3.7-1.1,7.8-0.3,11.6-1.1
			c3.9-0.8,7.4-2.9,10.5-5.4c1.9-1.5-0.8-4.1-2.7-2.7c-3,2.4-6.4,3.9-10.2,4.7c-3.4,0.7-6.9-0.2-10.2,0.8c-1,0.3-1.9,1.8-1.1,2.8
			c0,0.1,0.1,0.1,0.1,0.2c0.5,0.7,1.2,1.1,2.1,0.9c0.1,0,0.1,0,0.2-0.1c1-0.3,1.6-1.3,1.3-2.3c0-0.1,0-0.1-0.1-0.2
			c-0.2-0.8-1-1.3-1.8-1.4c-0.1,0-0.1,0-0.2,0C98,115.6,98.1,119.4,100.5,119.5L100.5,119.5z"/>
	</g>
</g>
<g>
	<g>
		<path d="M117.3,118.9c0.1-0.3,0.2-0.7,0.3-1c-1.2-0.3-2.4-0.7-3.6-1c-0.3,2.1-0.5,4.1-0.3,6.2c0.1,1,0.8,1.9,1.9,1.9
			c2.7,0,5.4,0,8.1,0c2.4,0,2.4-3.7,0-3.8c-2.7-0.1-5.4-0.1-8.1,0c0.6,0.6,1.2,1.2,1.9,1.9c-0.2-1.7-0.2-3.4,0.1-5.2
			c0.4-2.3-2.9-3.3-3.6-1c-0.1,0.3-0.2,0.7-0.3,1C113,120.2,116.6,121.2,117.3,118.9L117.3,118.9z"/>
	</g>
</g>
<g>
	<g>
		<path d="M62.6,118.8c0.6,1.8,1.5,5.1,3.3,6.1c0.9,0.5,2.2,0.3,3.2,0.3c1.5,0,3,0,4.4,0c1.1,0,1.8-0.9,1.9-1.9
			c0.1-1.5,0.3-3,0.7-4.5c0.6-2.4-3.1-3.3-3.6-1c-0.4,1.8-0.7,3.6-0.8,5.5c0.6-0.6,1.2-1.2,1.9-1.9c-2.2,0-4.4,0-6.6,0
			c0.5,0.3,1.1,0.6,1.6,0.9c-1-1.4-1.7-2.9-2.2-4.5C65.4,115.5,61.8,116.5,62.6,118.8L62.6,118.8z"/>
	</g>
</g>
<g>
	<g>
		<path d="M137.5,81c1.2-9.3-9.5-13.3-17-14c-6.3-0.6-19.3,2.7-19.2,11.1c0.1,9,8.2,12.3,16,13c8.1,0.7,17.9-0.9,20.3-9.9
			c0.6-2.3-3-3.3-3.6-1c-2.9,10.7-25.4,9.8-28.8,0c-2.4-6.9,9.3-9.3,13.6-9.5c5.8-0.3,15.8,2.8,14.9,10.2
			C133.5,83.4,137.2,83.3,137.5,81L137.5,81z"/>
	</g>
</g>
<g>
	<g>
		<path d="M94,68.5c2.4-1.9,1.4-5.8-1.3-6.9c-2.7-1.1-5.8,0.7-6.4,3.5c-0.5,2.6,0.9,5.4,3.6,6c2.6,0.6,5.5-1.3,6-3.9
			c0.5-3-2.2-6.2-5.3-5.4c-3,0.8-4.5,4.3-2.3,6.7c1.9,2.2,6,1,5.8-2.1c-0.1-1.4-1.1-2.6-2.4-3c-1.8-0.5-3.3,0.9-3.8,2.4
			c-0.1,0.3-0.1,0.7-0.1,1.1c0.1,0.8,0.5,1.6,1.4,1.8c0.8,0.2,1.8-0.1,2.1-0.9c0.1-0.3,0.3-0.6,0.4-0.9c0.3-0.8,0.4-1.7-0.3-2.3
			c-1.1-1-2.5-1-3.6,0c-0.8,0.7-0.6,1.9,0,2.7c0.9,1.2,2.9,1.3,3.8-0.1c0.7-1.2,0.2-3-1.3-3.2c-1-0.2-2,0.2-2.3,1.3
			c-0.2,0.9,0.3,2.1,1.3,2.3c0,0,0.1,0,0.1,0c-0.4-0.3-0.7-0.6-1.1-0.9c0,0,0.1,0.1,0.1,0.1c-0.1-0.3-0.2-0.6-0.3-0.9
			c0-0.1,0-0.1,0-0.2c0.3-0.4,0.6-0.7,0.9-1.1c0,0-0.1,0.1-0.1,0.1c0.3-0.1,0.6-0.2,0.9-0.3c-0.1,0-0.2,0-0.3,0
			c0.3,0.1,0.6,0.2,0.9,0.3c0,0,0-0.1,0-0.1c0,0.9,0,1.8,0,2.7c0.1,0,0.1-0.1,0.2-0.1c-0.3,0.2-0.6,0.3-0.8,0.5c-0.1,0-0.3,0-0.4,0
			c-0.3-0.2-0.6-0.3-0.8-0.5c0.1,0,0.1,0.1,0.2,0.1c-0.1-0.8-0.2-1.5-0.3-2.3c-0.1,0.3-0.3,0.6-0.4,0.9c1.2,0.3,2.3,0.6,3.5,0.9
			c-0.1-0.1-0.1-0.1-0.2,0.2c-0.5,0.2-0.8,0.1-0.9-0.3c-0.2-0.5,0.5-0.8,0.8-0.7c-0.3-0.1-0.1-0.3,0.2-0.5c0.5-0.2,0.9,0.4,1,0.8
			c0.1,0.4-0.5,0.9-0.8,1c-1.2,0.5-1.7-0.8-1.4-1.7c0.3-1,2.2-0.6,1.2,0.2c-0.8,0.6-0.7,2,0,2.7C92.1,69.3,93.2,69.1,94,68.5
			L94,68.5z"/>
	</g>
</g>
<g>
	<g>
		<path d="M113.4,82.5c3.2,0,3.2-5,0-5C110.2,77.5,110.2,82.5,113.4,82.5L113.4,82.5z"/>
	</g>
</g>
<g>
	<g>
		<path d="M128.7,82.6c3.2,0,3.2-5,0-5C125.5,77.6,125.5,82.6,128.7,82.6L128.7,82.6z"/>
	</g>
</g>
<g>
	<g>
		<path d="M18.6,93.7c-1,2.3-1.8,4.5-1.4,7.1c0.4,2.2,2.4,3.6,4.4,4c4,0.8,10.2-2.9,8.3-7.6c-0.6-1.5-3-0.8-2.4,0.7
			c1.2,2.9-2.8,4.6-5.1,4.5c-4.2-0.1-2.8-5.1-1.7-7.4C21.4,93.5,19.3,92.3,18.6,93.7L18.6,93.7z"/>
	</g>
</g>
<g>
	<g>
		<path d="M28.4,95.8c-4.7,0.6-6.7,5.8-3,9.2c4.1,3.7,11.5-0.8,14.2-4.1c1-1.2-0.8-3-1.8-1.8c-1.6,1.9-3.4,3.3-5.8,4.1
			c-1,0.4-2.1,0.4-3.2,0.5c-3.8,0.1-3.7-4.9-0.4-5.3C30,98.1,30,95.6,28.4,95.8L28.4,95.8z"/>
	</g>
</g>
<g>
	<g>
		<path d="M140.1,72.2c5.8,0,5.8-9,0-9S134.3,72.2,140.1,72.2L140.1,72.2z"/>
	</g>
</g>
<g>
	<g>
		<path d="M135,34c-17.3-5.1-35.6-4.2-52.4,2.5c-2.2,0.9-1.2,4.5,1,3.6c16.2-6.5,33.7-7.4,50.4-2.5C136.3,38.3,137.3,34.7,135,34
			L135,34z"/>
	</g>
</g>
<g>
	<g>
		<path d="M139.1,34c-6.7-8.9-20.2-10.5-30.5-10.3c-10.4,0.2-25.1,3.4-30.9,13c-0.9,1.5,1,3.7,2.6,2.6c0.6-0.4,1.2-0.9,1.8-1.3
			c1.9-1.4,0.1-4.7-1.9-3.2c-0.6,0.4-1.2,0.9-1.8,1.3c0.9,0.9,1.7,1.7,2.6,2.6c4.8-8.1,17.3-10.3,25.9-11c9-0.7,23.1,0.6,29,8.4
			C137.3,37.8,140.6,35.9,139.1,34L139.1,34z"/>
	</g>
</g>
<g>
	<g>
		<path d="M130,26.8c-5.5-6.1,0-15.6,8.1-13.4c9.7,2.7,4,16.8-5,15.1c-2.4-0.4-3.4,3.2-1,3.6c13.1,2.4,20.7-15.2,8.4-21.7
			c-4.6-2.4-10.9-0.8-14,3.3c-3.7,4.8-3.1,11.3,0.9,15.7C129,31.3,131.6,28.6,130,26.8L130,26.8z"/>
	</g>
</g>
<g>
	<g>
		<path d="M85.1,29c-8.1,0-11.9-10.3-4.7-14.9c8.4-5.4,15.6,8.3,8,13.7c-2,1.4-0.1,4.6,1.9,3.2c4.4-3.1,6.6-10.3,4-15.2
			c-2.8-5.5-8.7-7.7-14.5-5.6c-4.9,1.8-8,7.5-7,12.6c1.1,5.9,6.3,9.9,12.2,9.9C87.5,32.7,87.5,29,85.1,29L85.1,29z"/>
	</g>
</g>
</svg>
