<?xml version="1.0" encoding="utf-8"?>
<!-- Generator: Adobe Illustrator 18.0.0, SVG Export Plug-In . SVG Version: 6.00 Build 0)  -->
<!DOCTYPE svg PUBLIC "-//W3C//DTD SVG 1.1//EN" "http://www.w3.org/Graphics/SVG/1.1/DTD/svg11.dtd">
<svg version="1.1" id="Layer_1" xmlns="http://www.w3.org/2000/svg" xmlns:xlink="http://www.w3.org/1999/xlink" x="0px" y="0px"
	 viewBox="0 0 213 204" enable-background="new 0 0 213 204" xml:space="preserve">
<g>
	<g>
		<path fill="#FFFFFF" d="M87,97.3c-8-9.6-20.4-12.9-32.3-9.3c-12.8,3.8-19.9,12.5-23.7,24.9c-0.7,2.3,2.9,3.3,3.6,1
			c1.6-5.3,3.4-10.2,7.3-14.3c3.6-3.9,8.8-6.2,13.7-8c10.4-3.6,21.7,0.1,28.6,8.4C85.9,101.8,88.5,99.2,87,97.3L87,97.3z"/>
	</g>
</g>
<g>
	<g>
		<path fill="#FFFFFF" d="M25.9,125.4c3.7,4.7,9.6,4.9,14.9,3.1c3.9-1.3,9.7-5.6,6.6-10.4c-5.9-9.3-27.1-5.6-22.4,7.3
			c0.8,2.3,4.4,1.3,3.6-1c-3.1-8.5,8.8-8.7,13.6-6.4c5.1,2.4,0.8,5.2-0.8,6.1c-1.3,0.7-2.8,1.1-4.2,1.5c-3.4,0.9-6.6-0.2-8.7-2.9
			C27,120.8,24.4,123.5,25.9,125.4L25.9,125.4z"/>
	</g>
</g>
<g>
	<g>
		<path fill="#FFFFFF" d="M26,127.5c4,4.3,6,10.5,9.6,15.1c3.9,4.9,8.9,8.9,14.2,12.1c2.1,1.2,4-2,1.9-3.2
			c-5.2-3.1-9.6-6.9-13.4-11.5c-3.9-4.6-5.6-10.7-9.6-15.1C27,123.1,24.4,125.7,26,127.5L26,127.5z"/>
	</g>
</g>
<g>
	<g>
		<path fill="#FFFFFF" d="M89.3,128c0.2,17.8-22.3,25.9-37,23c-2.4-0.5-3.4,3.1-1,3.6c17,3.5,41.9-6.2,41.7-26.6
			C93.1,125.6,89.3,125.6,89.3,128L89.3,128z"/>
	</g>
</g>
<g>
	<g>
		<path fill="#FFFFFF" d="M43.1,148c-3.5-0.2-6.6-0.1-9.5,1.8c-1.1,0.7-2,1.8-3,2.8c-2.2,2.2-4.8,3-7.7,3.6c-1.5,0.3-1,2.3,0.3,2.5
			c7.9,1,19.1,0.9,21.1-9c0.3-1.6-2.1-2.2-2.4-0.7c-1.7,8.7-11.9,8-18.7,7.1c0.1,0.8,0.2,1.6,0.3,2.5c3-0.7,5.5-1.5,7.9-3.4
			c1.6-1.2,2.7-2.8,4.4-3.9c2-1.3,5-0.9,7.2-0.8C44.8,150.6,44.7,148.1,43.1,148L43.1,148z"/>
	</g>
</g>
<g>
	<g>
		<path fill="#FFFFFF" d="M53.5,153.1c-0.4,0-0.9,0-1.3,0c0,0.8,0,1.7,0,2.5c2.8,0,6,3.2,8.5,4.3c1.7,0.8,3.6,1.3,5.4,1.5
			c5.8,0.6,11.6-1.6,17.2,0.3c0.9,0.3,1.8-0.7,1.5-1.5c-1.7-5.2,4.4-11.4,6.3-16c1.8-4.6,2.8-9,2.3-13.9c-0.2-1.6-2.7-1.6-2.5,0
			c0.7,7.1-1.9,13.2-5.4,19.3c-2.1,3.7-4.6,7-3.1,11.3c0.5-0.5,1-1,1.5-1.5c-5.4-1.8-10.7-0.1-16.2-0.2c-3.7-0.1-7.1-1.8-10.1-3.8
			c-1.9-1.3-3.1-2.2-5.5-2.2c-1.6,0-1.6,2.5,0,2.5c0.4,0,0.9,0,1.3,0C55.1,155.6,55.1,153.1,53.5,153.1L53.5,153.1z"/>
	</g>
</g>
<g>
	<g>
		<path fill="#FFFFFF" d="M87.1,102.8c4.7,0.1,8.6,2.9,12.9,4.4c4.3,1.5,8.8,0.1,13-1c2.3-0.6,1.3-4.2-1-3.6
			c-5.3,1.4-9.4,1.9-14.6-0.4c-3.4-1.6-6.5-3-10.4-3.1C84.7,99,84.7,102.7,87.1,102.8L87.1,102.8z"/>
	</g>
</g>
<g>
	<g>
		<path fill="#FFFFFF" d="M110.9,105.6c-0.1,11.7-10.8,18.8-21.4,20c-2.4,0.3-2.4,4,0,3.8c12.7-1.5,25.1-9.9,25.2-23.7
			C114.7,103.2,111,103.2,110.9,105.6L110.9,105.6z"/>
	</g>
</g>
<g>
	<g>
		<path fill="#FFFFFF" d="M71.6,114.7c0.5-0.6,0.9-1.4,0.5-2.2c-0.3-0.8-1-1.5-1.9-1.6c-2.2-0.3-3.1,1.6-3,3.5
			c0,0.8,0.5,1.6,1.4,1.8c1.1,0.3,2.1,0.1,3.1-0.4c0.9-0.5,2.3-1.2,2.2-2.4c0-0.5,0-1-0.1-1.4c-0.2-0.7-0.8-1.1-1.3-1.5
			c-0.9-0.6-1.9-1-3-0.9c-2.4,0.3-4,2.6-2.9,4.9c0.8,1.7,2.5,2.6,4.3,2.6c1.8,0.1,3.4-1.1,4-2.7c0.6-1.6,0.1-3.3-0.9-4.7
			c-1.2-1.5-3.4-1.5-5-0.6c-1.6,0.9-2.5,3-1.9,4.8c0.3,1,1.3,1.6,2.3,1.3c0.9-0.3,1.7-1.3,1.3-2.3c-0.1-0.2-0.2-0.2,0-0.4
			c0.2-0.3,0.3-0.3,0.4-0.3c-0.3-0.1,0.2,0.2,0,0c0.1,0.1,0.2,0.3,0.1,0.2c0.1,0.4,0.1,0.3,0.1,0.5c0,0.1-0.1,0.3,0,0.2
			c-0.1,0.1-0.2,0.2-0.3,0.2c-0.4,0-0.6,0-0.9-0.2c0.2,0.1-0.2-0.2-0.1-0.1c-0.3-0.4,0,0-0.1,0.2c-0.2,0.2-0.3,0,0.1,0.1
			c0.2,0.1,0.4,0.3,0.6,0.4c-0.2-0.4-0.4-0.9-0.5-1.3c0,0.3,0,0.6,0,0.9c0.3-0.5,0.6-1.1,0.9-1.6c-0.4,0.3-1,0.9-1.5,0.8
			c0.5,0.6,0.9,1.2,1.4,1.8c0-0.2,0-0.3,0-0.5c0.1-0.6-0.2-0.4-0.8,0.6c-0.3,0-0.7,0-1,0c0.3,0.1,0.2,0-0.2-0.2
			c-0.2-0.3-0.3-0.6-0.5-0.8c0-0.1,0-0.2,0-0.2c0.2-0.4,0.4-0.9,0.5-1.3c0,0-0.1,0.1-0.1,0.1c-0.6,0.8-0.8,1.9,0,2.7
			C69.6,115.4,71,115.5,71.6,114.7L71.6,114.7z"/>
	</g>
</g>
<g>
	<g>
		<path fill="#FFFFFF" d="M30.2,122.3c1.6,0,1.6-2.5,0-2.5C28.6,119.8,28.6,122.3,30.2,122.3L30.2,122.3z"/>
	</g>
</g>
<g>
	<g>
		<path fill="#FFFFFF" d="M39.5,122.3c0.1,0,0.2,0,0.3,0c1.6,0,1.6-2.5,0-2.5c-0.1,0-0.2,0-0.3,0C37.9,119.8,37.9,122.3,39.5,122.3
			L39.5,122.3z"/>
	</g>
</g>
<g>
	<g>
		<path fill="#FFFFFF" d="M43.3,152.7c-0.4,5.6-0.5,11.2-0.3,16.8c0.1,3.3-0.4,10.4,2.4,13c1.8,1.6,4,2.5,6.2,1.2
			c1.7-1,2.4-3.7,3.5-5.1c2.5-2.9,7-3,10.4-2.8c2.4,0.1,4.8,0.7,7.1,1.3c3.3,0.9,3.3,4.1,4.5,6.7c1.1,2.5,4.9,3,7,1.8
			c7.8-4.6,10.3-15.6,9.6-23.9c-0.2-2.4-3.9-2.4-3.8,0c0.3,4.2-0.2,8.1-1.5,12.1c-1.3,3.8-6.2,11.8-9.3,4.5
			c-2.3-5.2-8.6-5.6-13.6-6.2c-6-0.7-11.9,1.3-15.1,6.6c-1-0.3-2.1-0.5-3.1-0.8c-0.2-1.6-0.4-3.1-0.5-4.7c-0.2-2.5-0.3-5-0.4-7.5
			c-0.1-4.4,0.1-8.7,0.4-13.1C47.3,150.3,43.5,150.3,43.3,152.7L43.3,152.7z"/>
	</g>
</g>
<g>
	<g>
		<path fill="#FFFFFF" d="M102.8,180.4c-0.9,1.6-1.7,3.2-2.6,4.7c-0.6,1-0.1,2.5,1.1,2.8c1.5,0.3,2.9,0.7,4.4,1
			c2.4,0.5,3.4-3.1,1-3.6c-1.5-0.3-2.9-0.7-4.4-1c0.4,0.9,0.7,1.8,1.1,2.8c0.9-1.6,1.7-3.2,2.6-4.7
			C107.2,180.2,103.9,178.3,102.8,180.4L102.8,180.4z"/>
	</g>
</g>
<g>
	<g>
		<path fill="#FFFFFF" d="M107.9,189c7.8-9.5,14.4-19,12.4-31.8c-2.1-13.6-13.7-23.5-23.6-31.8c-1.8-1.5-4.5,1.1-2.7,2.7
			c8.5,7.1,17.1,14.5,21.3,25.2c5,12.8-2.2,23.5-10.1,33.1C103.7,188.2,106.3,190.9,107.9,189L107.9,189z"/>
	</g>
</g>
<g>
	<g>
		<path fill="#FFFFFF" d="M101.7,181.3c-4.4-2.2-9.2-2.9-14-1.9c-2.4,0.5-1.4,4.1,1,3.6c3.8-0.8,7.6-0.2,11.1,1.5
			C101.9,185.7,103.8,182.4,101.7,181.3L101.7,181.3z"/>
	</g>
</g>
<g>
	<g>
		<path fill="#FFFFFF" d="M104.7,133.7c12-2.9,18.4-14.1,17.9-26c-0.7-14.3-16.4-12.6-26.7-15.5c-7.4-2.1-14.2-6.3-21.5-8.8
			c-7-2.3-14.3-3.5-21.6-3.8C39.5,79.2,26.4,83.5,16.4,92c-0.8,0.7-0.7,2,0,2.7c5,5.2,9.6,10.6,13.8,16.5c1.4,1.9,4.7,0.1,3.2-1.9
			C29,103.1,24.2,97.4,19,92c0,0.9,0,1.8,0,2.7c18.8-15.8,44.7-12.6,65.6-3.1c4.5,2,8.7,4,13.6,5.2c5.4,1.4,11.4,1.3,16.6,3.6
			c5.9,2.5,4.3,12.2,2.9,16.9c-1.9,6.6-7.6,11.3-14,12.9C101.3,130.7,102.3,134.3,104.7,133.7L104.7,133.7z"/>
	</g>
</g>
<g>
	<g>
		<path fill="#FFFFFF" d="M89.1,81.1c-8-3.9-8.7-16.7-18.8-17.8c-10.7-1.2-17,7.6-20.6,16.5c-0.9,2.2,2.7,3.2,3.6,1
			c3.2-8.1,12.4-19.5,21.5-11c4.8,4.5,6,11.5,12.3,14.6C89.4,85.4,91.3,82.1,89.1,81.1L89.1,81.1z"/>
	</g>
</g>
<g>
	<g>
		<path fill="#FFFFFF" d="M86.8,83.2c2.4,0,4.4-0.3,6.4,1.3c2.3,1.9,2.4,5.1,1,7.5c-1.2,2.1,2,4,3.2,1.9c2-3.4,2-7.5-0.3-10.7
			c-2.6-3.6-6.3-3.7-10.2-3.7C84.4,79.5,84.4,83.2,86.8,83.2L86.8,83.2z"/>
	</g>
</g>
<g>
	<g>
		<path fill="#FFFFFF" d="M104.5,180.1c-3.4-2.8-4.6-7-3.1-11.2c0.8-2.3-2.8-3.3-3.6-1c-1.9,5.3-0.3,11.3,4.1,14.8
			C103.7,184.3,106.4,181.6,104.5,180.1L104.5,180.1z"/>
	</g>
</g>
<g>
	<g>
		<path fill="#FFFFFF" d="M42.6,153.4C42.6,153.4,42.5,153.3,42.6,153.4c-0.1,0.5-0.1,1.1-0.1,1.7c0-0.1,0.1-0.1,0.1-0.2
			c-0.4,0.1-0.8,0.2-1.2,0.3c0.1,0,0.1,0,0.2,0c-0.3-0.4-0.6-0.8-0.9-1.2c0,0.3-0.9,1.4-1.1,1.8c-0.5,1.2-0.7,2.4-0.9,3.7
			c-0.4,2.9,0.1,6.5-2.6,8.4c-1.2,0.8-0.5,2.6,1,2.3c3.2-0.6,5.6-2.6,7-5.5c0.7-1.4-1.5-2.7-2.2-1.3c-1.1,2.4-2.9,3.8-5.5,4.3
			c0.3,0.8,0.6,1.5,1,2.3c2.2-1.5,3.2-3.8,3.5-6.4c0.2-1.9,0.2-3.8,0.6-5.6c0.3-1.5,1.7-2.6,1.7-4.1c0-0.5-0.4-1.1-0.9-1.2
			c-0.6-0.1-1.1-0.1-1.5,0.4c-0.5,0.5-0.5,1.2,0,1.8c0,0,0.1,0.1,0.1,0.1C41.9,156.4,43.7,154.6,42.6,153.4L42.6,153.4z"/>
	</g>
</g>
<g>
	<g>
		<path fill="#FFFFFF" d="M118.9,168.7c3.7-0.4,7.1-1.4,8.6-5.1c1.1-2.8-0.9-6.3-3.9-4.1c-2.1,1.6-2.8,5.8-1,7.9
			c2.7,3.2,7.4,1.6,10.6,0.1c1.5-0.7,0.2-2.9-1.3-2.2c-1.7,0.8-3.3,1.3-5.2,1.4c-3.3,0.1-3.3-5.6-0.8-5.5c-0.4-0.2-0.7-0.4-1.1-0.6
			c2.1,3.8-3.3,5.3-5.9,5.6C117.3,166.4,117.3,168.9,118.9,168.7L118.9,168.7z"/>
	</g>
</g>
<g>
	<g>
		<path fill="#FFFFFF" d="M181,39.4c5.1-9.3,10.1-18.6,15.2-27.9c0.7-1.3-0.2-2.8-1.6-2.8c-5.2-0.2-10.4-0.2-15.6-0.1
			c-4.3,0.1-9.2-0.2-13.4,0.8c-2.5,0.6-4.3,1.9-5.1,4.3c-1.6,4.6-2.9,9.3-4.3,14c-1.4,4.8-2.8,9.7-4.1,14.6c-0.9,3.5-2.8,7.4-1.8,11
			c0.5,1.9,2.9,2.1,4.5,2.1c5,0,10-0.5,15-0.7c2.4-0.1,2.4-3.9,0-3.8c-3.1,0.2-6.2,0.3-9.4,0.5c-2.9,0.1-7.3,1.6-6.2-2.6
			c1.8-6.7,3.7-13.4,5.6-20.1c0.9-3,1.8-6.1,2.7-9.1c0.8-2.4,1.3-6.4,4.8-6.7c1.9-0.2,3.9-0.3,5.8-0.4c7.1-0.4,14.3-0.4,21.4-0.2
			c-0.5-0.9-1.1-1.9-1.6-2.8c-5.1,9.3-10.1,18.6-15.2,27.9C176.6,39.7,179.9,41.5,181,39.4L181,39.4z"/>
	</g>
</g>
<g>
	<g>
		<path fill="#FFFFFF" d="M167.5,53.3c-2,4.9-4.1,9.8-6.1,14.7c-1.2,2.9-2.1,5.3,0.7,7.3c5.5,4,15.7-9.5,18.4-12.3
			c3.5-3.7,6.9-7.4,10.3-11.2c2.7-3.1,6.2-6.3,7.8-10.2c2.9-7.2-16.8-4.5-19.1-4.4c-2.4,0.1-2.4,3.8,0,3.8c2.6-0.1,5.3-0.1,7.9-0.2
			c1.3,0,2.6-0.1,4-0.1c3.6-0.1,2.1,2.2,0.5,4.1c-4.1,4.9-8.4,9.5-12.7,14.1c-4.2,4.4-8.6,10.7-14.5,12.9c-0.7-0.9-0.6-1.9,0.3-2.8
			c0.8-1.8,1.5-3.7,2.3-5.5c1.3-3.1,2.5-6.1,3.8-9.2C172,52.1,168.4,51.1,167.5,53.3L167.5,53.3z"/>
	</g>
</g>
<g>
	<g>
		<path fill="#FFFFFF" d="M181,18.5c-2.4,4.4-4.5,8.8-6.3,13.5c-0.6,1.5,1.8,2.1,2.4,0.7c1.7-4.4,3.8-8.7,6-12.9
			C183.9,18.4,181.7,17.1,181,18.5L181,18.5z"/>
	</g>
</g>
<g>
	<g>
		<path fill="#FFFFFF" d="M184.4,46.1c-4.2,4.4-8.2,9-11.9,13.8c-1,1.3,0.8,3,1.8,1.8c3.8-4.8,7.7-9.4,11.9-13.8
			C187.3,46.7,185.5,44.9,184.4,46.1L184.4,46.1z"/>
	</g>
</g>
</svg>
