<?xml version="1.0" encoding="utf-8"?>
<!-- Generator: Adobe Illustrator 18.0.0, SVG Export Plug-In . SVG Version: 6.00 Build 0)  -->
<!DOCTYPE svg PUBLIC "-//W3C//DTD SVG 1.1//EN" "http://www.w3.org/Graphics/SVG/1.1/DTD/svg11.dtd">
<svg version="1.1" id="Layer_1" xmlns="http://www.w3.org/2000/svg" xmlns:xlink="http://www.w3.org/1999/xlink" x="0px" y="0px"
	 viewBox="0 0 213 204" enable-background="new 0 0 213 204" xml:space="preserve">
<g>
	<g>
		<path fill="#FFFFFF" d="M152.5,177.2c-1.2-1.9-2.4-3.7-3.7-5.6c-2.2-3.4-1.1-5.8,0.8-8.7c2.9-4.5,5.8-9,8.8-13.4
			c6.1-9.3,14-18.7,25.9-19.2c2.7-0.1,5.2,0.7,7.5,1.9c4.8,2.6,4.4,7.6,2.5,12c-2.3,5.2-5.2,10.2-7.8,15.2
			c-2.7,5.1-5.6,10.1-8.6,15.1c-1.9,3.2-3.8,5.5-8,5.5c-2.8,0-5.6,0-8.4-0.1c-2.4,0-2.4,3.7,0,3.8c5.2,0,12.4,1.6,16.5-2.3
			c2.6-2.5,4.3-6.9,6.1-10c2.3-3.9,4.4-7.8,6.6-11.8c3.5-6.5,8.3-13.5,9-21c0.5-5.4-4.5-9.2-8.9-11c-13-5.4-25.8,6.5-32.7,15.9
			c-4.9,6.6-9.2,13.7-13.7,20.6c-3.5,5.4,1.9,10.6,4.8,15.1C150.6,181.1,153.9,179.2,152.5,177.2L152.5,177.2z"/>
	</g>
</g>
<g>
	<g>
		<path fill="#FFFFFF" d="M163.8,173.7c-4.1-0.6-9.4-2.6-12.3,1.3c-3.4,4.5-9.7,10.1-9.1,16.2c0.1,0.9,0.5,1.5,1.4,1.8
			c10.9,4.2,15.2-9.7,21.2-15.4c1.8-1.7-0.9-4.3-2.7-2.7c-4.9,4.7-9,17.7-17.6,14.4c0.5,0.6,0.9,1.2,1.4,1.8c-0.3-3.7,3-6.8,5-9.6
			c1.4-1.9,3.3-5.5,6.3-5.1c1.8,0.2,3.6,0.5,5.4,0.7C165.2,177.7,166.2,174.1,163.8,173.7L163.8,173.7z"/>
	</g>
</g>
<g>
	<g>
		<path fill="#FFFFFF" d="M151.9,171.1c6.7-0.6,13.3-0.6,20,0c2.4,0.2,2.4-3.5,0-3.8c-6.7-0.6-13.3-0.6-20,0
			C149.5,167.5,149.5,171.3,151.9,171.1L151.9,171.1z"/>
	</g>
</g>
<g>
	<g>
		<path fill="#FFFFFF" d="M170.7,174.3c0,0.4,0,0.9,0,1.3c0,1,0.9,1.9,1.9,1.9c1,0,1.9-0.9,1.9-1.9c0-0.4,0-0.9,0-1.3
			c0-1-0.9-1.9-1.9-1.9C171.6,172.5,170.7,173.3,170.7,174.3L170.7,174.3z"/>
	</g>
</g>
<g>
	<g>
		<path fill="#FFFFFF" d="M172.1,163c0,0.1,0,0.2-0.1,0.2c-0.2,0.5,0.1,1.1,0.6,1.4c3.9,2.2,7.6-5.8,8.9-8c2.2-3.6,4.2-7.2,6.1-10.9
			c1.8-3.4,3.8-6.8,3.6-10.7c-0.1-1.6-2.6-1.6-2.5,0c0.2,4.7-3.6,10.1-5.8,14.2c-2.5,4.5-7,9.6-8.4,14.5
			C174.9,162.1,172.5,161.5,172.1,163L172.1,163z"/>
	</g>
</g>
<g>
	<g>
		<path fill="#FFFFFF" d="M64,34.2c1.1-7.2-1.3-13.9-6.8-18.7c-6.2-5.4-15.5-5.2-22.8-2.7C18.7,18.1,12,37.6,23,50.4
			c1.6,1.8,4.2-0.8,2.7-2.7c-8.8-10.3-3.6-24.5,7.5-30.4c12-6.4,29.6,0.4,27.2,15.9C60,35.6,63.6,36.6,64,34.2L64,34.2z"/>
	</g>
</g>
<g>
	<g>
		<path fill="#FFFFFF" d="M63.9,36.8c0.1-0.9,0.4-1.8,0.9-2.6c0.6-1.2,4.8-4,3.3-0.7c-0.7,1.4-1.6,2.6-2.6,3.8
			c-0.8,1-0.7,2.2,0.4,2.9c1.8,1,2.8,2.5,3,4.6c-1,3.4-2.7,4.1-5.1,2c-0.7-0.9-2.4-0.7-2.9,0.4c-1.5,3.1-3.9,7.2-7.8,4.5
			c-2-1.4-3.9,1.9-1.9,3.2c5.7,3.9,10.4-0.7,12.9-5.9c-1,0.1-2,0.3-2.9,0.4c2.6,3,7.6,3.2,10-0.3c3.1-4.5,0.8-9.4-3.4-12.2
			c0.1,1,0.3,2,0.4,2.9c2.4-2.8,6.2-7.5,3.3-11.1c-1.2-1.5-4.5-1.2-5.9-0.3c-2.8,1.6-4.6,4.1-5.2,7.3C59.8,38.2,63.4,39.2,63.9,36.8
			L63.9,36.8z"/>
	</g>
</g>
<g>
	<g>
		<path fill="#FFFFFF" d="M26.7,47.6c-4.1-2.3-10.5-0.9-10.8,4.7c-0.2,4.6,5.3,7.5,8.7,4.2c1.8-1.7-0.9-4.3-2.7-2.7
			c-0.5,0.5-1.1,0.3-1.7,0.1c-0.7-0.4-0.7-1.2-0.6-1.9c0.6-2.3,3.5-2.1,5.1-1.2C26.9,52,28.8,48.8,26.7,47.6L26.7,47.6z"/>
	</g>
</g>
<g>
	<g>
		<path fill="#FFFFFF" d="M20.6,55.6c-0.4,3.9,0.9,9.3,5.3,10.4c5.8,1.4,10.1-1.6,13.1-6.4c-1.1-0.1-2.3-0.3-3.4-0.4
			c2.2,9.4,13.3,2.6,16.2-2.6c1.2-2.1-2.1-4-3.2-1.9c-0.9,1.7-7.9,9.4-9.4,3.5c-0.4-1.6-2.6-1.8-3.4-0.4c-1.4,2.2-2.8,3.8-5.4,4.8
			c-5.6,2-6.3-3.9-6-7C24.7,53.2,20.9,53.3,20.6,55.6L20.6,55.6z"/>
	</g>
</g>
<g>
	<g>
		<path fill="#FFFFFF" d="M30.8,53c6.3,4,13.2,1.2,18.7-2.7c2-1.4,0.1-4.6-1.9-3.2c-4.4,3.1-9.8,5.9-14.9,2.7
			C30.7,48.5,28.8,51.7,30.8,53L30.8,53z"/>
	</g>
</g>
<g>
	<g>
		<path fill="#FFFFFF" d="M31.2,64.8c4.1,4.2,8.5,8.1,13.2,11.6c3.1,2.3,10.1,8.8,14.4,7.8c5-1.2,5.5-5.7,6-10.2
			c1-7.4,1.9-14.8,2.9-22.2c0.3-2.4-3.4-2.4-3.8,0c-0.6,4.3-1.1,8.6-1.7,13c-0.3,2.6-0.5,17.8-6,15c-8.4-4.3-15.9-10.9-22.4-17.6
			C32.2,60.4,29.5,63.1,31.2,64.8L31.2,64.8z"/>
	</g>
</g>
<g>
	<g>
		<path fill="#FFFFFF" d="M52.2,55.2c-2.8,5.8-4.5,11.8-8,17.3c-0.9,1.4,1.3,2.6,2.2,1.3c3.5-5.5,5.2-11.5,8-17.3
			C55.1,55.1,52.9,53.8,52.2,55.2L52.2,55.2z"/>
	</g>
</g>
<g>
	<g>
		<path fill="#FFFFFF" d="M61.4,61.5c-2.4,6-5.5,11.6-9.3,16.8c-0.9,1.3,1.2,2.6,2.2,1.3c3.9-5.4,7-11.2,9.5-17.4
			C64.4,60.7,62,60.1,61.4,61.5L61.4,61.5z"/>
	</g>
</g>
<g>
	<g>
		<path fill="#FFFFFF" d="M42.4,62.8c5.7,3.5,11.6,6.7,17.7,9.5c1.5,0.7,2.7-1.5,1.3-2.2c-6.1-2.9-12-6-17.7-9.5
			C42.3,59.8,41.1,61.9,42.4,62.8L42.4,62.8z"/>
	</g>
</g>
<g>
	<g>
		<path fill="#FFFFFF" d="M51.9,56.9c3.3,2.1,6.9,3.8,10.6,5c1.5,0.5,2.2-1.9,0.7-2.4c-3.6-1.2-6.9-2.8-10-4.8
			C51.8,53.9,50.5,56.1,51.9,56.9L51.9,56.9z"/>
	</g>
</g>
<g>
	<g>
		<path fill="#FFFFFF" d="M67.8,123.9c-1.4-2.3-2.7-5-4.6-6.9c-0.3-0.3-0.8-0.5-1.2-0.3c-1.1,0.3-1.8,0.7-2.2,1.9
			c-0.3,0.9-0.7,1.8-0.8,2.8c-0.3,3.1-1.3,4.1-4.1,4.6c-2.3,0.4-6.4,3.1-2.8,5.3c1,0.6,3.3,1.2,3.4,2.7c0.1,1.8,0.2,3.7,0.5,5.5
			c0.3,1.5,0.8,2,2.2,2.5c1,0.4,2.6-0.7,3.1-1.5c2.2-3.6,6.8-1.1,10.3-1.6c0.6-0.1,0.9-0.7,0.9-1.2c0.3-2.6-2.5-5-1.4-7.3
			c0.9-2,2.8-3.1,3.6-5.2c0.2-0.7-0.4-1.7-1.2-1.6c-2.5,0.3-5,0.8-7.5,1.4c-1.6,0.4-0.9,2.8,0.7,2.4c2.3-0.6,4.5-1.1,6.8-1.4
			c-0.4-0.5-0.8-1.1-1.2-1.6c-0.7,2.1-3.5,3.6-3.8,5.8c-0.4,2.8,1.9,4.7,1.6,7.4c0.3-0.4,0.6-0.8,0.9-1.2c-2.6,0.4-6.2-2.1-8.7-0.7
			c-1.3,0.8-1.4,0.9-2.3,2.2c-1.4,1.9-2-5.6-2-5.8c0-0.4-0.2-0.9-0.6-1.1c-2.8-1.3-4.8-2.1-0.5-2.9c1.1-0.2,2.4-0.5,3.3-1.4
			c0.8-0.8,1.2-1.8,1.2-2.9c0-0.6,0.2-5.5,1.6-3.3c0.9,1.5,1.9,3,2.8,4.5C66.5,126.5,68.7,125.2,67.8,123.9L67.8,123.9z"/>
	</g>
</g>
<g>
	<g>
		<path fill="#FFFFFF" d="M142.3,66c-2.6,0.2-5,0.7-7.4,1.6c-0.6,0.2-1.1,0.8-0.9,1.5c0.3,1,0.7,1.9,1.8,2.2
			c0.6,0.2,2.5,0.3,2.5,1.3c0,1.8,0,3.7,0,5.5c0,2.7,2.2,3.2,4.1,1.9c2.1-1.4,2.7-3.4,6-2.3c1.2,0.4,3.1,1.2,4.4,0.5
			c2.8-1.7-1.1-5.3-2.4-6.6c0,0.6,0,1.2,0,1.8c1.1-1.3,4.2-3.6,3.6-5.6c-0.6-2.1-4.6-1.6-6-1.6c0.4,0.3,0.8,0.6,1.2,0.9
			c-0.5-1.7-2-7.3-4.4-7.2c-2.7,0.1-3.3,4-3.6,6.2c-0.2,1.6,2.2,2.3,2.4,0.7c0.2-1.4,0.5-2.6,1.1-4c-0.3,0.6,1.8,4.1,2.1,5
			c0.2,0.5,0.6,0.9,1.2,0.9c0,0,3.3-0.2,2.8,0.3c-0.7,0.9-1.5,1.7-2.2,2.6c-0.4,0.5-0.5,1.3,0,1.8c0.7,0.7,1.4,1.4,2,2.3
			c0.3,1.2,0.7,1.2,1,0.3c-1.3,0.2-3.2-0.9-4.5-1.2c-1.7-0.4-3.2,0.3-4.5,1.4c-1,0.9-2,3.3-2,0.6c0-1.8,0-3.7,0-5.5
			c0-2.3-3.9-1.1-4.5-2.8c-0.3,0.5-0.6,1-0.9,1.5c2.2-0.8,4.4-1.3,6.7-1.5C143.9,68.4,143.9,65.9,142.3,66L142.3,66z"/>
	</g>
</g>
</svg>
