<?xml version="1.0" encoding="utf-8"?>
<!-- Generator: Adobe Illustrator 18.0.0, SVG Export Plug-In . SVG Version: 6.00 Build 0)  -->
<!DOCTYPE svg PUBLIC "-//W3C//DTD SVG 1.1//EN" "http://www.w3.org/Graphics/SVG/1.1/DTD/svg11.dtd">
<svg version="1.1" id="Layer_1" xmlns="http://www.w3.org/2000/svg" xmlns:xlink="http://www.w3.org/1999/xlink" x="0px" y="0px"
	 viewBox="0 0 117 126" enable-background="new 0 0 117 126" xml:space="preserve">
<g>
	<g>
		<path fill="#FFFFFF" d="M51.9,98.3c20.8,5.6,42.7-6.8,48.9-27.3c6.7-22.4-7.2-45-28.7-51.9C51,12.3,28.3,23.4,19.3,43.2
			c-9,19.7,1.3,43.8,21.1,51.9c2.2,0.9,3.2-2.7,1-3.6C22.9,83.9,15,61.7,23.1,43.8c8.3-18.3,29.2-26.5,48-21.1
			c19.8,5.7,30.8,26,26.5,45.8c-4.3,19.6-25.7,31.2-44.6,26.1C50.6,94.1,49.6,97.7,51.9,98.3L51.9,98.3z"/>
	</g>
</g>
<g>
	<g>
		<path fill="#FFFFFF" d="M39,92c-2.5,6.1-7,10.6-12.9,13.4c-1.8,0.8-0.8,3.4,0.9,3.5c10.2,0.3,19.7-3.5,26.9-10.7
			c1.7-1.7-0.9-4.4-2.7-2.7c-6.6,6.6-15,9.9-24.3,9.6c0.3,1.2,0.6,2.3,0.9,3.5c6.9-3.2,11.8-8.6,14.7-15.6
			C43.5,90.7,39.9,89.8,39,92L39,92z"/>
	</g>
</g>
<g>
	<g>
		<path fill="#FFFFFF" d="M53.1,39.4c1.5,8.7,2.9,17.5,4,26.3c0.3,2.4,4.1,2.4,3.8,0c-1.2-9.1-2.6-18.2-4.2-27.3
			C56.3,36,52.6,37,53.1,39.4L53.1,39.4z"/>
	</g>
</g>
<g>
	<g>
		<path fill="#FFFFFF" d="M59.5,76.8c-0.6,0.8-0.3,2,0.4,2.6c0.9,0.8,2.2,0.9,3.1,0c0.7-0.7,0.9-1.8,0.5-2.7
			c-0.3-0.6-0.6-1.3-1.4-1.4c-0.4-0.1-0.7-0.1-1.1-0.1c-1.6,0.2-3.1,1.1-3.2,2.8c-0.1,1.2,0.9,1.9,1.8,2.3c0.8,0.3,1.5,0.3,2.3,0.1
			c1-0.2,1.9-0.8,2.2-1.8c0.2-0.7,0.1-1.5-0.1-2.1c-0.6-1.5-2-2.7-3.8-2.4c-1.2,0.3-2,1.7-1.9,2.9c0.2,1.4,1.1,2.8,2.7,2.6
			c1-0.1,1.9-0.8,1.9-1.9c0-1-0.9-2-1.9-1.9c-0.2,0-0.1,0,0.3,0.1c0.2,0,0.3,0.1,0.5,0.3c0.2,0.3,0.3,0.4,0.2,0.2
			c0.2,0.4,0.1,0.3,0.1,0.1c0,0.4,0.1,0.4,0,0.2c0-0.2,0.1-0.4,0,0.2c0-0.1,0-0.1,0-0.2c0,0.1-0.1,0.2-0.1,0.3
			c-0.2,0.3-0.3,0.3-0.2,0.2c-0.4,0.4-1,0.5-1.4,0.3c0.2,0.1,0.2,0.1-0.1-0.1c0.1,0.1,0.3,0.4,0.1,0c0,0.1,0.1,0.1,0.1,0.2
			c-0.2-0.4,0-0.1,0,0c0-0.3,0-0.3,0-0.1c0,0.4,0.1-0.4,0,0c0.3-0.4,0.6-0.7,0.9-1.1c-0.1,0.1-0.5,0.3-0.1,0.1
			c-0.1,0-0.2,0.1-0.3,0.1c0.3,0,0.3,0,0.1,0c-0.5,0,0.4,0.1-0.1,0c-0.2-0.1-0.2-0.1,0,0c-0.1,0-0.2-0.1-0.3-0.2
			c0.2,0.2,0.4,0.4,0.7,0.7c0.3,0.6,0.2,1-0.2,1.6c0.1-0.1,0.1-0.1-0.1,0.1c0.1,0,0.1-0.1,0.2-0.1c-0.5,0.2,0,0,0.1,0
			c-0.7,0.1,0.5,0.1-0.3,0c-0.4-0.3-0.7-0.6-1.1-0.9c0-0.1,0-0.1-0.1-0.2c0.2,0.7,0.4,0.2,0.7-1.3c0.3-0.1,0.6-0.2,0.9-0.3
			c-0.7,0.1-0.2,0.4,1.3,1.1c0,0.3,0,0.7,0,1c0,0.1-0.1,0.2-0.1,0.3c0.6-0.8,0.1-2.1-0.7-2.6C61.1,75.5,60.1,76,59.5,76.8L59.5,76.8
			z"/>
	</g>
</g>
<g>
	<g>
		<path fill="#FFFFFF" d="M54.8,40.8c2.6-0.6,4.4-1.5,6.5-3.1c-1.1-0.4-2.1-0.9-3.2-1.3c-0.1,5-0.1,10-0.2,15c0,2.5-0.1,5-0.1,7.5
			c0,1.1,0.6,6.6-0.2,7.4c0.8-0.1,1.5-0.2,2.3-0.3c0.2,0.3,0.5,0.7,0.7,1c-0.6,0.6-1.2,1.2-1.9,1.9c0.1,0,0.2,0,0.2,0
			c2.4-0.1,2.4-3.8,0-3.8c-0.1,0-0.2,0-0.2,0c-1.1,0-1.8,0.8-1.9,1.9c-0.1,1.1,0.3,1.6,1.2,2.2c0.7,0.5,1.7,0.2,2.3-0.3
			c2.6-2.4,1.2-8.7,1.3-11.9c0.1-6.9,0.2-13.8,0.3-20.6c0-1.8-2-2.3-3.2-1.3c-1.4,1.2-3,1.9-4.8,2.2C51.5,37.7,52.5,41.3,54.8,40.8
			L54.8,40.8z"/>
	</g>
</g>
<g>
	<g>
		<path fill="#FFFFFF" d="M54.5,41.7c-0.1,3.6,0.6,7.1,2.3,10.3c1.1,2.2,4.3,0.3,3.2-1.9c-1.3-2.6-1.9-5.4-1.7-8.4
			C58.3,39.2,54.6,39.3,54.5,41.7L54.5,41.7z"/>
	</g>
</g>
<g>
	<g>
		<path fill="#FFFFFF" d="M57,40.9c0.1,0,0.2,0,0.2,0c-0.4-0.2-0.9-0.4-1.3-0.5c-0.1-0.1-0.1-0.2-0.2-0.3c0,0.4-0.1,0.8-0.1,1.1
			c0,0.6-0.1,1.1-0.1,1.7c-0.1,1.1-0.2,2.3-0.3,3.4c-0.2,2.4,3.5,2.4,3.8,0c0.2-2.1,0.4-4.1,0.5-6.2c0.1-1.5-1-2.9-2.5-2.9
			C54.6,37.1,54.6,40.9,57,40.9L57,40.9z"/>
	</g>
</g>
</svg>
