<?xml version="1.0" encoding="utf-8"?>
<!-- Generator: Adobe Illustrator 18.0.0, SVG Export Plug-In . SVG Version: 6.00 Build 0)  -->
<!DOCTYPE svg PUBLIC "-//W3C//DTD SVG 1.1//EN" "http://www.w3.org/Graphics/SVG/1.1/DTD/svg11.dtd">
<svg version="1.1" id="Layer_1" xmlns="http://www.w3.org/2000/svg" xmlns:xlink="http://www.w3.org/1999/xlink" x="0px" y="0px"
	 viewBox="0 0 102.7 112.7" enable-background="new 0 0 102.7 112.7" xml:space="preserve">
<g>
	<g>
		<path fill="#FFFFFF" d="M32.2,80.3c-1.5,6.5-3.2,12.9-5.1,19.3c-0.6,2.1,1.9,3.1,3.4,2C38.2,95.3,45.6,88.7,53,82
			c1.9-1.7-0.9-4.6-2.8-2.8c-7.4,6.6-14.8,13.2-22.5,19.5c1.1,0.7,2.2,1.3,3.4,2c1.9-6.4,3.6-12.8,5.1-19.3
			C36.7,78.8,32.8,77.8,32.2,80.3L32.2,80.3z"/>
	</g>
</g>
<g>
	<g>
		<path fill="#FFFFFF" d="M32.7,78.9c-3-0.4-11.2,1.6-12.6-2.3c-1.3-3.6,0-9.8,0.1-13.6c0.3-9.7,0.8-19.4,0-29
			c-0.3-4-1.4-8.2,0.3-12c2.1-4.5,9.4-3.6,13.4-3.5c9.7,0.2,19.4,0.1,29.1-0.4c7.1-0.3,21.3-3.9,22.4,6.5c1,9.3-0.1,19.3-0.3,28.7
			c-0.1,4.6-0.2,9.2-0.3,13.8c-0.1,2.6-0.1,5.3-0.2,7.9c-0.1,4.6-4.3,5.1-7.9,5.4c-9.5,0.8-19,0.6-28.5-0.1c-2.6-0.2-2.6,3.8,0,4
			c11.9,1,24.4,1.3,36.3-0.7c4-0.7,4-5.5,4.1-8.6c0.2-6.6,0.3-13.2,0.5-19.7c0.1-6.6,0.2-13.2,0.3-19.7c0.1-5.2,0.8-10.8-1-15.8
			C85,11,71.8,13.7,64.9,14.1c-12.3,0.6-24.7-0.1-37,0.5c-9.7,0.4-12.9,7.3-12,16.1c1.3,12.8,0.5,25.4,0.2,38.2
			c-0.1,3.1-1.1,9.5,1.9,11.8c4.4,3.4,8.7,1.3,13.8,2.1C34.1,83.1,35.2,79.3,32.7,78.9L32.7,78.9z"/>
	</g>
</g>
<g>
	<g>
		<path fill="#FFFFFF" d="M54.2,50.4c0.1-0.1,0.3-0.1,0.4-0.2c0.6-0.3,1-1.1,1-1.7c-0.2-5.3-5.7-10.9-10.4-12.6
			c-0.9-0.3-2.3,0.4-2.5,1.4c-0.6,4.3,1.7,7.9,3.5,11.7c2.8,6,5.6,12,8.4,18c0.8,1.7,3.2,1,3.7-0.5c1.8-5.3,3.6-10.6,5.5-16
			c1.2-3.4,2.8-7.5,1.3-11c-1.2-2.6-4.7-1.1-6.1,0.1c-3.3,2.7-4.7,9.2-5.3,13.2c-0.4,2.5,3.5,3.6,3.9,1.1c0.5-3.4,1.4-6.4,3-9.4
			c2.6-5,0.5,1.9,0,3.5c-1.8,5.9-4,11.7-6,17.5c1.2-0.2,2.4-0.3,3.7-0.5c-2-4.2-3.9-8.4-5.9-12.6c-1.7-3.7-6.2-10-5.6-14
			c-0.8,0.5-1.6,0.9-2.5,1.4c2.3,0.8,3.6,2.2,5,4.1c1,1.4,1.3,4,3,3.2C49.9,48,51.9,51.5,54.2,50.4L54.2,50.4z"/>
	</g>
</g>
<g>
	<g>
		<path fill="#FFFFFF" d="M45.2,41.9c1.4,2.5,2.8,5,4.1,7.5c0.4,0.8,4.4,9.2,4.7,9c1.1,0.7,2.2,1.3,3.4,2c1.5-5.9,3-11.8,4.6-17.7
			c0.7-2.5-3.2-3.6-3.9-1.1c-1.6,5.9-3.1,11.8-4.6,17.7c-0.5,2.1,1.8,3.1,3.4,2c2.4-1.9-0.1-5.4-1-7.4c-2.1-4.8-4.5-9.4-7.1-13.9
			C47.4,37.6,43.9,39.6,45.2,41.9L45.2,41.9z"/>
	</g>
</g>
<g>
	<g>
		<path fill="#FFFFFF" d="M60,42.2c0.3,2.1-0.3,4.1-1.3,5.9c1.2,0.5,2.4,1,3.7,1.5c0.4-1.9,0.7-3.9,1.1-5.8c0.5-2.5-3.4-3.6-3.9-1.1
			c-0.4,1.9-0.7,3.9-1.1,5.8c-0.4,2.2,2.4,3.6,3.7,1.5c1.7-2.8,2.2-5.8,1.7-9c-0.1-1.1-1.5-1.7-2.5-1.4C60.2,40,59.8,41.1,60,42.2
			L60,42.2z"/>
	</g>
</g>
</svg>
