<?xml version="1.0" encoding="utf-8"?>
<!-- Generator: Adobe Illustrator 18.0.0, SVG Export Plug-In . SVG Version: 6.00 Build 0)  -->
<!DOCTYPE svg PUBLIC "-//W3C//DTD SVG 1.1//EN" "http://www.w3.org/Graphics/SVG/1.1/DTD/svg11.dtd">
<svg version="1.1" id="Layer_1" xmlns="http://www.w3.org/2000/svg" xmlns:xlink="http://www.w3.org/1999/xlink" x="0px" y="0px"
	 viewBox="0 0 186 182" enable-background="new 0 0 186 182" xml:space="preserve">
<g>
	<g>
		<path fill="#FFFFFF" d="M120.7,142.3c12.5-0.2,24.9-1.9,34.3-10.7c8.9-8.3,13-21.4,15.6-32.9c5.2-23.8-4.2-47.6-21.8-63.8
			c-19.1-17.6-46.2-22.2-71.1-17.8C65.4,19.3,51.9,23.9,42,31.8c-10,7.9-15.9,18.9-20.4,30.6c-8.1,21.3-12.9,49,5.6,66.4
			c8.6,8.2,21.3,11.1,32.7,12.9c13.9,2.1,28.1,1.6,42.1,0.9c1.6-0.1,1.6-2.6,0-2.5c-27.8,1.3-71.2,4.1-82.7-28.2
			C13.9,96.9,18,80.5,23,66.1c4.8-14,11.9-26.9,24.5-35.1c24.6-15.9,59.5-17.5,85.4-4.2c23.4,12.1,38.8,38,36.4,64.4
			c-1.1,12.2-5.5,25.7-13,35.4c-8.6,11.1-22.4,13-35.6,13.2C119.1,139.9,119.1,142.4,120.7,142.3L120.7,142.3z"/>
	</g>
</g>
<g>
	<g>
		<path fill="#FFFFFF" d="M99.8,142.9c2.5,9.1,9,16.3,17.8,19.7c1.5,0.6,2.2-1.8,0.7-2.4c-8-3.1-13.9-9.7-16.1-17.9
			C101.8,140.7,99.4,141.4,99.8,142.9L99.8,142.9z"/>
	</g>
</g>
<g>
	<g>
		<path fill="#FFFFFF" d="M120.2,140.2c-4.1-1.4-5.4,7.6-5.9,9.9c-0.8,4.3-1.3,10.5,3.1,13c1.4,0.8,2.7-1.4,1.3-2.2
			c-4.4-2.5-0.4-18.8,0.9-18.4C121,143.2,121.7,140.7,120.2,140.2L120.2,140.2z"/>
	</g>
</g>
</svg>
