<?xml version="1.0" encoding="utf-8"?>
<!-- Generator: Adobe Illustrator 18.0.0, SVG Export Plug-In . SVG Version: 6.00 Build 0)  -->
<!DOCTYPE svg PUBLIC "-//W3C//DTD SVG 1.1//EN" "http://www.w3.org/Graphics/SVG/1.1/DTD/svg11.dtd">
<svg version="1.1" id="Layer_1" xmlns="http://www.w3.org/2000/svg" xmlns:xlink="http://www.w3.org/1999/xlink" x="0px" y="0px"
	 viewBox="0 0 68.7 78" enable-background="new 0 0 68.7 78" xml:space="preserve">
<g>
	<g>
		<path fill="#FFFFFF" d="M41.6,29c-2.2-5.1-5.5-9.2-9.8-12.7c-0.8-0.6-2.4-0.6-2.6,0.7c-0.5,3.5-0.5,16.1-5.2,16.7
			c-4.6,0.6-8.7,2-12.7,4.2c-0.9,0.5-1,1.8-0.3,2.5c3.9,4,10.1,3.3,11.5,9.7c1,4.4,0.3,8.6,2.9,12.6c0.6,0.9,1.7,1,2.5,0.3
			c2.5-2.1,4.9-4.4,6.8-7.1c3.3-4.4,10.5,0.3,14.7,1.4c3.8,1,5.3-4.1,3.2-6.5c-1.8-2-3.8-3.2-3.3-6.7c0.3-2.2,2-4.2,3.3-6
			c1.3-1.8,4.2-5,3.7-7.5c-1.2-5.5-12.7-1.5-16.2-0.8c-2,0.4-1.2,3.4,0.8,3.1c3.8-0.7,7.6-1.3,11.5-1.7c1-0.1-3.9,7.4-4.3,7.9
			c-1.9,2.9-3.1,7.9-0.6,10.8c-0.2-0.2,4,4.7,1.6,4.1c-1.8-0.5-3.7-1.3-5.4-1.9c-1.9-0.6-4.7-2.2-6.8-1.8c-1.8,0.4-2.7,1.3-3.8,2.7
			c-2.2,2.9-4.5,5.4-7.3,7.7c0.8,0.1,1.7,0.2,2.5,0.3c-2.9-4.4-1.2-9.9-3.3-14.5c-2.5-5.3-7.8-4.7-11.5-8.4
			c-0.1,0.8-0.2,1.7-0.3,2.5c3.1-1.8,6.4-3,9.9-3.7c2.1-0.4,4.3-0.2,5.9-1.9c1.6-1.6,1.6-4.8,1.9-6.8c0.5-3.5,1.1-7,1.6-10.5
			c-0.9,0.2-1.8,0.5-2.6,0.7c4.2,3.3,7.2,7.2,9.3,12C39.7,32.5,42.4,30.9,41.6,29L41.6,29z"/>
	</g>
</g>
</svg>
