<?xml version="1.0" encoding="utf-8"?>
<!-- Generator: Adobe Illustrator 18.0.0, SVG Export Plug-In . SVG Version: 6.00 Build 0)  -->
<!DOCTYPE svg PUBLIC "-//W3C//DTD SVG 1.1//EN" "http://www.w3.org/Graphics/SVG/1.1/DTD/svg11.dtd">
<svg version="1.1" id="Layer_1" xmlns="http://www.w3.org/2000/svg" xmlns:xlink="http://www.w3.org/1999/xlink" x="0px" y="0px"
	 viewBox="0 0 84 86" enable-background="new 0 0 84 86" xml:space="preserve">
<g>
	<g>
		<path fill="#FFFFFF" d="M49.1,35.1c-0.2-2,0.1-14.8-3.6-14.6c-2.5,0.2-3.5,1.9-5.1,3.7c-1.3,1.5-2.6,3.1-4,4.6
			c-1.8,2-7.5-0.7-9.5-1.3c-4.9-1.5-7.9,2-4.8,6.3c2.9,4,5.4,7.1,2.6,12.1c-1.6,2.9-2.4,5.8-2.3,9.2c0,0.8,0.7,1.7,1.6,1.6
			c2-0.2,3.8-0.6,5.7-1c1.8-0.4,6.2-3.2,7.9-1.7c2.5,2.2,6.2,6.5,9.8,6.5c2,0,3.3-2.3,3.4-4c0.1-3.9-0.7-7.1,2.6-10.2
			c2.1-2,5.1-3.3,7.6-4.8c0.6-0.4,0.9-1.1,0.7-1.8c-1.4-4.7-9.4-4.9-13.3-6c-2-0.5-2.8,2.5-0.8,3.1c2,0.5,10.4,1.5,11.1,3.8
			c0.2-0.6,0.5-1.2,0.7-1.8c-3.2,1.9-6.5,3.7-9.3,6.3c-2.8,2.6-2.7,6.2-2.4,9.8c0.4,5.1-5.8-1.1-6.5-1.8c-1.3-1.1-2.3-2.4-4-2.9
			c-0.8-0.2-1.7,0-2.5,0.3c-3.6,1.5-6.9,2.7-10.8,3.2c0.5,0.5,1.1,1.1,1.6,1.6c0-5.5,4.4-9.4,3.8-14.8c-0.2-1.6-1.1-3.1-1.9-4.5
			c-0.7-1.2-1.7-2.4-2.5-3.5c-2-2.7,1.9-1.4,3.2-1c4.6,1.4,8,2.9,11.5-1c1.8-2,3.6-4.1,5.4-6.2c-0.1,0.1,0.4,4.4,0.5,5.2
			c0.3,2,0.4,3.9,0.6,5.9C46.1,37.1,49.3,37.1,49.1,35.1L49.1,35.1z"/>
	</g>
</g>
</svg>
