<?xml version="1.0" encoding="utf-8"?>
<!-- Generator: Adobe Illustrator 18.0.0, SVG Export Plug-In . SVG Version: 6.00 Build 0)  -->
<!DOCTYPE svg PUBLIC "-//W3C//DTD SVG 1.1//EN" "http://www.w3.org/Graphics/SVG/1.1/DTD/svg11.dtd">
<svg version="1.1" id="Layer_1" xmlns="http://www.w3.org/2000/svg" xmlns:xlink="http://www.w3.org/1999/xlink" x="0px" y="0px"
	 viewBox="0 0 92 104" enable-background="new 0 0 92 104" xml:space="preserve">
<g>
	<g>
		<path fill="#FFFFFF" d="M37.2,31.3c8.6-11.1,21.7-4.6,28,4.9c6.2,9.3,7.8,21.3,6.5,32.1c-0.3,2.4,3.4,2.3,3.7,0
			c1.7-14.1-1.8-29.7-11.9-40.1c-8.5-8.8-21.9-8.6-29.5,1.2C32.6,31.4,35.8,33.2,37.2,31.3L37.2,31.3z"/>
	</g>
</g>
<g>
	<g>
		<path fill="#FFFFFF" d="M70.9,69c8.3,9-3.1,12.6-10.3,13.9c-7.3,1.3-15,0.2-21.9-2.3c-6.7-2.5-12.3-7.3-15.9-13.4
			c-1.9-3.2-2.8-6.9-3-10.6c-0.2-2.7-0.2-8.4,2.5-9.9c2.1-1.2,0.2-4.4-1.9-3.2c-6.8,3.9-4.7,17-2.1,22.8c4,9.1,11.6,15,20.8,18.4
			c9.4,3.5,21.6,3.5,30.9-0.5c8.6-3.7,9.8-11,3.5-17.8C71.9,64.7,69.3,67.3,70.9,69L70.9,69z"/>
	</g>
</g>
<g>
	<g>
		<path fill="#FFFFFF" d="M24.8,34.2c-4.7,2.4-7.8,6.6-8.7,11.8c-0.3,1.5,1.2,2.9,2.7,2.1c1.2-0.7,7.6-5.3,8.8-4.7
			c2.6,1.3,5.1,1.8,8,1.7c1.3-0.1,2.4-1.5,1.6-2.8c-1.1-1.7-2.3-3.4-3.4-5.1c-0.2,0.8-0.4,1.7-0.7,2.5c2.5-1.6,5.1-2.9,7.9-3.9
			c0.8-0.3,1.3-0.9,1.4-1.8c0.3-3-3.2-4.1-5.7-4.3c-4.3-0.3-8,1-11.3,3.8c-1.8,1.6,0.8,4.1,2.6,2.6c1.6-1.3,3.1-2.1,5.1-2.6
			c0.4-0.1,5.6-0.4,5.5,0.4c0.5-0.6,0.9-1.2,1.4-1.8c-3.1,1.1-6,2.5-8.8,4.3c-0.8,0.5-1.2,1.7-0.7,2.5c1.1,1.7,2.3,3.4,3.4,5.1
			c0.5-0.9,1.1-1.9,1.6-2.8c-2.5,0.1-4.5-0.4-6.8-1.5c-0.5-0.3-1.6-0.5-2.1-0.3c-3.4,1.4-6.6,3.5-9.7,5.3c0.9,0.7,1.8,1.4,2.7,2.1
			c0.7-4.4,3-7.6,7-9.6C28.8,36.3,26.9,33.1,24.8,34.2L24.8,34.2z"/>
	</g>
</g>
<g>
	<g>
		<path fill="#FFFFFF" d="M33.1,31.5c-0.4-4.9-1.9-9.5-4.7-13.6c-0.4-0.5-0.9-1-1.6-0.9c-2.1,0.2-6,1.4-5.1,4.4
			c0.6,1.8,1.9,3.4,2.8,5.1c1.2,2.2,2,4.5,2.7,6.9c0.7,2.3,4.2,1.3,3.6-1c-0.6-2.1-1.3-4-2.2-6c-0.5-1.2-1.2-2.4-1.8-3.5
			c-0.6-1-1.8-2.1,0.1-2.3c-0.5-0.3-1.1-0.6-1.6-0.9c2.5,3.5,3.9,7.4,4.2,11.7C29.6,33.8,33.3,33.8,33.1,31.5L33.1,31.5z"/>
	</g>
</g>
<g>
	<g>
		<path fill="#FFFFFF" d="M21.6,54.6c0,2,0.4,3.8,1.3,5.5c0.6,1.3,2.2,3.6,3.8,3.3c4.5-0.7-2.4-7.8-3.2-8.9c-0.7-0.9-2,0.4-1.3,1.3
			c0.8,1,1.5,2,2.3,3c0.4,0.5,0.8,1,1.2,1.5c0.3,0.4,1,1.7,0.1,0.7c-1.6-1.7-2.4-4.1-2.3-6.4C23.4,53.4,21.6,53.4,21.6,54.6
			L21.6,54.6z"/>
	</g>
</g>
<g>
	<g>
		<path fill="#FFFFFF" d="M33.4,50.7c0.2,2.1,0.9,4.2,2.3,5.9c1,1.1,3,3.1,4.1,0.8c1-2.1-0.3-3.9-1.6-5.5c-1.3-1.7-2.8-3-5-3.3
			c-1.2-0.1-1.2,1.7,0,1.8c2.2,0.3,4.4,3,5.1,5c-0.1,0.3-0.2,0.6-0.3,0.8c-0.2-0.2-0.5-0.4-0.7-0.7c-0.4-0.4-0.7-0.9-1-1.3
			c-0.7-1.1-1-2.3-1.1-3.6C35.1,49.5,33.3,49.5,33.4,50.7L33.4,50.7z"/>
	</g>
</g>
<g>
	<g>
		<path fill="#FFFFFF" d="M42.1,44c0.9,2.2,3.3,3.5,5.6,2.7c0.4-0.1,0.7-0.5,0.7-0.9c0-1,0.1-1.8-0.6-2.4c-0.7-0.5-1.4-0.9-2.2-1.2
			c-1.6-0.7-3.6-0.6-5.2-0.1c-1.1,0.3-0.7,2.1,0.5,1.8c1.2-0.4,2.3-0.4,3.5-0.1c0.6,0.1,1.1,0.4,1.6,0.7c0.7,0.4,0.6,0.7,0.6,1.4
			c0.2-0.3,0.5-0.6,0.7-0.9c-1.3,0.5-2.8-0.1-3.4-1.4C43.5,42.4,41.7,42.9,42.1,44L42.1,44z"/>
	</g>
</g>
<g>
	<g>
		<path fill="#FFFFFF" d="M48.7,32.6c-0.9-0.2-1.7,0.3-1.9,1.3c-0.2,0.9,0.5,1.8,1.2,2.2c0.6,0.4,1.6,0.3,2.2,0.2
			c0.8-0.1,1.4-0.7,1.6-1.5c0.1-0.4,0-0.9-0.4-1c-0.8-0.4-1.6-0.8-2.5-1.2c-1.1-0.5-2,1.1-0.9,1.6c0.8,0.4,1.6,0.8,2.5,1.2
			c-0.1-0.3-0.3-0.7-0.4-1c-0.1,0.3,0.1,0.1,0,0.1c-0.2,0.1-0.4,0.1-0.6,0.1c-0.1,0-0.2,0-0.3,0c-0.1,0-0.3-0.2-0.1,0
			c-0.1-0.1-0.2-0.2-0.3-0.3c-0.3-0.3,0,0.1-0.2,0.1c-0.2,0-0.3,0-0.5,0c0.1,0,0.1,0,0.2,0C49.4,34.6,49.9,32.8,48.7,32.6L48.7,32.6
			z"/>
	</g>
</g>
<g>
	<g>
		<path fill="#FFFFFF" d="M30.8,68.9c1.8,2.7,4.4,4.6,7.5,5.3c0.4,0.1,0.8-0.1,1-0.4c0.5-0.8,0.7-1.5,0.6-2.5c0-0.3-0.2-0.7-0.5-0.8
			c-2.3-1.1-4.5-2.1-6.8-3.2c-1.1-0.5-2,1.1-0.9,1.6c2.3,1.1,4.5,2.1,6.8,3.2c-0.2-0.3-0.3-0.5-0.5-0.8c0,0.6-0.1,1-0.4,1.5
			c0.3-0.1,0.7-0.3,1-0.4c-2.7-0.6-4.9-2.2-6.4-4.5C31.8,67,30.2,67.9,30.8,68.9L30.8,68.9z"/>
	</g>
</g>
<g>
	<g>
		<path fill="#FFFFFF" d="M41.7,63.5c1.4,2.4,3.4,4.4,5.8,5.6c0.4,0.2,1,0.1,1.3-0.3c0.8-1.7,0.3-3.4-0.9-4.8
			c-1.5-1.7-4.2-1.9-6.3-2c-1.2-0.1-1.2,1.8,0,1.8c1.4,0.1,2.8,0.2,4,0.8c1.1,0.5,2.1,2,1.5,3.3c0.4-0.1,0.8-0.2,1.3-0.3
			c-2.2-1.1-4-2.8-5.2-5C42.7,61.5,41.1,62.4,41.7,63.5L41.7,63.5z"/>
	</g>
</g>
<g>
	<g>
		<path fill="#FFFFFF" d="M47.5,56.8c0.7,2.1,2.6,3.5,4.8,3.6c0.3,0,0.7-0.2,0.8-0.5c0.6-1.2,1.3-3.1-0.1-3.9
			c-1.7-1-3.5-1.7-5.3-2.3c-1.1-0.4-1.6,1.4-0.5,1.8c1.8,0.6,3.6,1.4,5.2,2.3c-0.2-0.3-0.3-0.5-0.5-0.8c0,0.7-0.1,1.3-0.4,2
			c0.3-0.2,0.5-0.3,0.8-0.5c-1.4-0.1-2.6-0.9-3.1-2.2C48.9,55.2,47.1,55.7,47.5,56.8L47.5,56.8z"/>
	</g>
</g>
<g>
	<g>
		<path fill="#FFFFFF" d="M54.6,48.2c0.6,1.2,1.8,1.9,3.2,2c0.5,0,0.9-0.4,0.9-0.9c0-0.5,0-1,0-1.5c0-0.4-0.3-0.8-0.7-0.9
			c-1-0.3-2-0.7-3-1c-1.1-0.4-1.6,1.4-0.5,1.8c1,0.3,2,0.7,3,1c-0.2-0.3-0.5-0.6-0.7-0.9c0,0.5,0,1,0,1.5c0.3-0.3,0.6-0.6,0.9-0.9
			c-0.7,0-1.3-0.5-1.6-1.1C55.7,46.2,54.1,47.1,54.6,48.2L54.6,48.2z"/>
	</g>
</g>
<g>
	<g>
		<path fill="#FFFFFF" d="M58.1,39.2C58.1,39.2,58.1,39.3,58.1,39.2c0.1-0.1,0.3-0.3,0.4-0.5c0,0,0,0,0,0c0.2,0,0.3-0.1,0.5-0.1
			c0,0,0,0-0.1,0c0.2,0,0.3,0.1,0.5,0.1c0.2,0.2,0.2,0.3,0.1,0.1c0,0.2,0.1,0.3,0.1,0.5c0,0,0,0.1,0,0.1c-0.1,0.1-0.2,0.3-0.2,0.4
			c0,0,0,0,0.1-0.1C59.2,39.9,59.1,40,59,40c-0.1,0-0.2,0-0.3,0c0.1,0.1,0.2,0.2,0.2,0.2c0.2,0.2,0.3,0.4,0.5,0.6
			c0.3,0.3,0.6,0.6,0.9,1c0.4,0.4,1.2,0.3,1.4-0.2c0.7-1.4-0.1-3.3-1.7-3.6c-1.2-0.2-1.7,1.5-0.5,1.8c0.4,0.1,0.8,0.5,0.6,0.9
			c0.5-0.1,1-0.1,1.4-0.2c-0.5-0.6-1-1.1-1.5-1.7c-0.5-0.6-1.4-0.9-2.1-0.3c-0.5,0.5-0.4,1.2,0.1,1.7c0.6,0.6,1.5,0.3,1.7-0.5
			c0.2-0.5-0.2-1-0.6-1.1C58.7,38.4,58.2,38.7,58.1,39.2L58.1,39.2z"/>
	</g>
</g>
<g>
	<g>
		<path fill="#FFFFFF" d="M54.2,75.4c-1.2-0.8-2.6-1.5-4.1-1.1c-0.9,0.3-1.8,1.4-1.8,2.4c0,1.1,0.8,2.1,2,2.1c1.8,0,3.6-0.6,5.3-0.9
			c0.3-0.1,0.6-0.4,0.6-0.6c0.2-0.9,0-1.6-0.7-2.2c-0.9-0.7-2.2,0.6-1.3,1.3c0.1,0.1,0.2,0.3,0.2,0.4c0.2-0.2,0.4-0.4,0.6-0.6
			c-1.5,0.3-3,0.7-4.5,0.8c-1,0.1-0.2-0.9,0.3-1c0.8-0.1,1.7,0.6,2.4,1C54.2,77.7,55.2,76.1,54.2,75.4L54.2,75.4z"/>
	</g>
</g>
<g>
	<g>
		<path fill="#FFFFFF" d="M58.1,66.4c-0.6-0.2-1.1-0.3-1.7-0.5c-0.5-0.2-1.2,0.3-1.2,0.9c0.3,3,3.3,4.2,5.9,4.9
			c0.7,0.2,1.3-0.5,1.1-1.1c-0.4-2.3-2.4-4.2-4.7-4.5c-1.2-0.2-1.7,1.6-0.5,1.8c1.8,0.3,3.1,1.5,3.4,3.2c0.4-0.4,0.8-0.8,1.1-1.1
			c-1.6-0.4-4.3-1.1-4.5-3.1c-0.4,0.3-0.8,0.6-1.2,0.9c0.6,0.2,1.1,0.3,1.7,0.5C58.7,68.6,59.2,66.8,58.1,66.4L58.1,66.4z"/>
	</g>
</g>
<g>
	<g>
		<path fill="#FFFFFF" d="M63.4,59.7c-0.9-1.2-2.7-0.5-2.5,1.1c0.3,1.7,1.7,3.3,2.8,4.5c0.5,0.5,1.3,0.2,1.5-0.4
			c0.7-2.2-0.2-4.6-2.2-5.7c-1-0.6-2,1-0.9,1.6c1.3,0.7,1.9,2.2,1.4,3.6c0.5-0.1,1-0.3,1.5-0.4c-0.5-0.5-1-1.1-1.4-1.7
			c-0.2-0.3-0.3-0.5-0.5-0.8c-0.1-0.2-0.2-0.4-0.3-0.5c-0.1-0.5-0.3-0.5-0.7,0c-0.2-0.1-0.4-0.3-0.6-0.4c0,0,0.1,0.1,0.1,0.1
			C62.5,61.6,64.1,60.6,63.4,59.7L63.4,59.7z"/>
	</g>
</g>
<g>
	<g>
		<path fill="#FFFFFF" d="M65.8,54.9c-0.3,1,0,2.1,0.7,2.9c0.3,0.4,1,0.4,1.3,0c0.7-0.8,1-1.9,0.7-2.9c-0.4-1.1-2.2-0.6-1.8,0.5
			c0.1,0.4,0.1,0.8-0.2,1.1c0.4,0,0.9,0,1.3,0c-0.3-0.3-0.3-0.7-0.2-1.1C68,54.2,66.2,53.8,65.8,54.9L65.8,54.9z"/>
	</g>
</g>
<g>
	<g>
		<path fill="#FFFFFF" d="M67.2,74.9c-2.3-0.3-4.6,0.9-5.8,2.9c-0.3,0.6,0.1,1.4,0.8,1.4c2.3-0.1,4.4-0.7,6.4-1.7
			c1.1-0.5,0.1-2.1-0.9-1.6c-1.7,0.9-3.6,1.3-5.5,1.5c0.3,0.5,0.5,0.9,0.8,1.4c0.9-1.5,2.5-2.2,4.2-2C68.3,76.9,68.3,75.1,67.2,74.9
			L67.2,74.9z"/>
	</g>
</g>
</svg>
