<?xml version="1.0" encoding="utf-8"?>
<!-- Generator: Adobe Illustrator 18.0.0, SVG Export Plug-In . SVG Version: 6.00 Build 0)  -->
<!DOCTYPE svg PUBLIC "-//W3C//DTD SVG 1.1//EN" "http://www.w3.org/Graphics/SVG/1.1/DTD/svg11.dtd">
<svg version="1.1" id="Layer_1" xmlns="http://www.w3.org/2000/svg" xmlns:xlink="http://www.w3.org/1999/xlink" x="0px" y="0px"
	 viewBox="0 0 100 128" enable-background="new 0 0 100 128" xml:space="preserve">
<g>
	<g>
		<path fill="#FFFFFF" d="M43.3,36.4c-17.7-0.8-26.9,17-27.7,32.3c-0.2,5.2,0.4,10.3,1.2,15.4c0.6,4.3,1,9.3,2.8,13.3
			c3.8,8.7,13.7,7.4,21.7,8.1c4.6,0.4,8,0.4,11.7-2.4c3.7-2.7,6.8-6.4,9.7-9.9c6.2-7.4,12.3-15.6,16.6-24.2
			c8.3-16.4-3.5-35.5-22.1-34.6c-2.4,0.1-2.4,3.8,0,3.7c8.2-0.4,15.2,3.4,19.2,10.6c4.2,7.6,1.3,16-2.8,22.9
			c-3.7,6.1-8.1,12-12.5,17.7c-4.5,5.8-10,13.3-18,12.7c-3.7-0.3-7.4-0.7-11.1-1c-5.6-0.5-8.5-2.3-9.9-7.7
			c-1.9-7.3-2.7-15.3-2.8-22.8c-0.2-13.9,7.8-31.3,24-30.5C45.7,40.3,45.7,36.6,43.3,36.4L43.3,36.4z"/>
	</g>
</g>
<g>
	<g>
		<path fill="#FFFFFF" d="M42,38.3c-4,3.1-8.5,5.9-10.1,11c-0.5,1.5,1,2.5,2.3,2.3c6.1-0.9,10.4-5.1,14.4-9.5
			c-1.1-0.4-2.1-0.9-3.2-1.3c0.1,5.4,0.9,10.9,6.2,13.6c1.1,0.6,2.3,0,2.7-1.1c1.7-4.7,1.7-9.3-0.2-14c-1,0.6-2.1,1.2-3.1,1.8
			c2.9,2.4,5.9,3.6,9.7,3.6c1.1,0,2.2-1.2,1.8-2.3C59.2,32.4,46.9,29.7,40,38c-1.5,1.8,1.1,4.4,2.6,2.6c4.9-5.9,13.8-4.8,16.4,2.8
			c0.6-0.8,1.2-1.6,1.8-2.3c-2.8,0-4.9-0.7-7.1-2.5c-1.3-1-3.8-0.1-3.1,1.8c1.6,4.1,1.7,7.9,0.2,12c0.9-0.4,1.8-0.7,2.7-1.1
			c-4.1-2.1-4.2-6.4-4.3-10.4c0-1.5-2-2.5-3.2-1.3c-3.6,4-7.3,7.8-12.8,8.6c0.8,0.8,1.5,1.5,2.3,2.3c1.3-4.2,5.8-6.8,9.1-9.3
			C46.4,39.5,43.8,36.9,42,38.3L42,38.3z"/>
	</g>
</g>
<g>
	<g>
		<path fill="#FFFFFF" d="M50.2,33.5c-1.3-3.9-1.7-7.7-1.3-11.8c-0.5,0.6-0.9,1.2-1.4,1.8c1.8-0.5,3.6-0.9,5.5-0.9
			c-0.6-0.8-1.2-1.6-1.8-2.3c-1.2,4.7-1.9,9.4-2.2,14.3c-0.2,2.4,3.5,2.4,3.7,0c0.3-4.5,1-8.9,2.1-13.3c0.3-1.1-0.5-2.4-1.8-2.3
			c-2.2,0.1-4.4,0.4-6.5,1.1c-0.8,0.2-1.3,0.9-1.4,1.8c-0.4,4.4,0.1,8.6,1.5,12.8C47.4,36.7,50.9,35.7,50.2,33.5L50.2,33.5z"/>
	</g>
</g>
<g>
	<g>
		<path fill="#FFFFFF" d="M55.3,59.1c-3.2,2.7-4.8,6.8-4.3,11c0.1,0.7,1,1.3,1.6,0.7c3-3.2,4.5-7.3,4.1-11.7c-0.1-1.2-2-1.2-1.8,0
			c0.3,3.9-0.9,7.6-3.6,10.4c0.5,0.2,1.1,0.4,1.6,0.7c-0.5-3.8,0.8-7.3,3.8-9.7C57.6,59.6,56.2,58.3,55.3,59.1L55.3,59.1z"/>
	</g>
</g>
<g>
	<g>
		<path fill="#FFFFFF" d="M63.7,57.5c0.1,0,0.1,0,0.2,0c0.4,0,0.8-0.3,0.9-0.7c0.2-0.6,0.1-0.9-0.3-1.4c-0.2-0.2-0.6-0.3-0.9-0.2
			c-1.5,0.6-1.5,2.2-1.8,3.6c-0.5,2.5-0.6,5-0.5,7.5c0,0.4,0.3,0.8,0.7,0.9c4.6,1.2,3.8-9.5,3.5-11.7c-0.1-1.2-2-1.2-1.8,0
			c0.1,1.1,0.4,10.3-1.2,9.9c0.2,0.3,0.5,0.6,0.7,0.9c0-1.4,0-2.7,0.1-4.1c0-0.7,0.2-5.1,0.9-5.3c-0.3-0.1-0.6-0.2-0.9-0.2
			c0.1,0.1,0.1,0.1,0.2,0.2c-0.1-0.3-0.2-0.6-0.2-0.9c0,0.1-0.1,0.2-0.1,0.3c0.3-0.2,0.6-0.5,0.9-0.7c-0.1,0-0.1,0-0.2,0
			C62.5,55.8,62.5,57.6,63.7,57.5L63.7,57.5z"/>
	</g>
</g>
<g>
	<g>
		<path fill="#FFFFFF" d="M73.4,58c-3.1,1.6-3.6,5.3-3.1,8.4c0.1,0.6,0.9,0.9,1.4,0.6c3-2.1,4-6,2.5-9.3c-0.5-1.1-2.1-0.1-1.6,0.9
			c1.1,2.4,0.3,5.3-1.9,6.8c0.5,0.2,0.9,0.4,1.4,0.6c-0.3-2.3,0-5.2,2.3-6.4C75.4,59.1,74.5,57.5,73.4,58L73.4,58z"/>
	</g>
</g>
<g>
	<g>
		<path fill="#FFFFFF" d="M44.9,78.2c-2.5,3-3.9,6.5-4.1,10.4c0,0.5,0.4,1,0.9,0.9c4.7-0.4,4.7-7.2,5.3-10.6
			c0.2-1.2-1.6-1.7-1.8-0.5c-0.4,2.1-0.5,9-3.5,9.2c0.3,0.3,0.6,0.6,0.9,0.9c0.2-3.4,1.4-6.5,3.5-9.1C47,78.6,45.7,77.3,44.9,78.2
			L44.9,78.2z"/>
	</g>
</g>
<g>
	<g>
		<path fill="#FFFFFF" d="M56.1,78.9c0.1,0,0.1,0,0.2,0.1c0.3,0.1,0.7,0,0.9-0.2c0.5-0.5,0.7-1.2,0.2-1.8c-0.7-1-1.8-0.3-2.5,0.3
			c-2.6,2.2-3.7,6.4-4,9.6c-0.1,0.7,0.8,1.2,1.4,0.8c3.6-2.4,5.6-6.5,5.4-10.8c-0.1-1.2-1.9-1.2-1.8,0c0.2,3.7-1.4,7.1-4.5,9.2
			c0.5,0.3,0.9,0.5,1.4,0.8c0.1-1.5,0.4-2.9,0.9-4.3c0.4-1,1.7-4.2,2.9-4.3c-0.3-0.2-0.5-0.3-0.8-0.5c0-0.1,0.1-0.3,0.1-0.4
			c0.3-0.1,0.6-0.2,0.9-0.2c-0.1,0-0.1,0-0.2-0.1C55.5,76.7,55,78.5,56.1,78.9L56.1,78.9z"/>
	</g>
</g>
<g>
	<g>
		<path fill="#FFFFFF" d="M64.4,79.6c0.1,0,0.1,0,0.2,0.1c0.3,0.1,0.7,0,0.9-0.2c1.3-1.3-0.5-2.9-1.9-1.8c-2.2,1.8-3.9,4.4-5,7
			c-0.3,0.8,0.4,1.8,1.3,1.3c3.3-1.8,5.3-5,5.8-8.7c0.2-1.2-1.7-1.2-1.8,0c-0.4,3-2.2,5.6-4.9,7.1c0.4,0.4,0.8,0.8,1.3,1.3
			c0.5-1.2,1.1-2.3,1.8-3.3c0.4-0.6,2.1-3.3,2.9-3.2c-0.3-0.2-0.5-0.3-0.8-0.5c0-0.2,0-0.4,0.1-0.5c0.3-0.1,0.6-0.2,0.9-0.2
			c-0.1,0-0.1,0-0.2-0.1C63.8,77.4,63.3,79.2,64.4,79.6L64.4,79.6z"/>
	</g>
</g>
<g>
	<g>
		<path fill="#FFFFFF" d="M38.5,92.9c-1.3,0.8-1.9,2-2.3,3.5c-0.3,1.2-0.2,2.9,1.5,2.9c1.3,0,2.5-1.6,3.1-2.6
			c0.7-1.3,0.9-2.9,0.5-4.4c-0.3-1.2-2-0.7-1.8,0.5c0.3,1.5-0.1,3-1.1,4.1c-0.3,0.3-0.5,0.3-0.4,0.7c0-0.3,0.1-0.7,0.1-1
			c0.2-0.8,0.6-1.6,1.3-2C40.5,93.9,39.5,92.3,38.5,92.9L38.5,92.9z"/>
	</g>
</g>
<g>
	<g>
		<path fill="#FFFFFF" d="M49.4,95.1c-0.5,0-1,0-1.5,0c-0.6,0-0.9,0.6-1.2,1.1c-0.5,1-0.8,2.2-0.8,3.4c0,0.5,0.4,1,0.9,0.9
			c2.2-0.3,3.9-2.2,3.7-4.5c-0.1-1.2-2-1.2-1.8,0c0.1,1.2-0.6,2.4-1.9,2.6c0.3,0.3,0.6,0.6,0.9,0.9c0-1.1,0.3-2.1,0.9-3.1
			c-0.3,0.2-0.5,0.3-0.8,0.5c0.5,0,1,0,1.5,0C50.6,96.9,50.6,95,49.4,95.1L49.4,95.1z"/>
	</g>
</g>
<g>
	<g>
		<path fill="#FFFFFF" d="M38.9,59.8c0.2-1.2-0.4-2-1.6-2.1c-0.3,0-0.7,0.2-0.8,0.5c-1.2,2.4-1.1,5,0.3,7.3c0.3,0.5,1,0.6,1.4,0.2
			c1.9-1.6,2.3-4.4,1-6.5c-0.6-1-2.2-0.1-1.6,0.9c0.9,1.4,0.6,3.1-0.7,4.2c0.5,0.1,1,0.1,1.4,0.2c-1-1.7-1.2-3.6-0.3-5.4
			c-0.3,0.2-0.5,0.3-0.8,0.5c0-0.1-0.1-0.2-0.1-0.2C36.9,60.5,38.7,61,38.9,59.8L38.9,59.8z"/>
	</g>
</g>
<g>
	<g>
		<path fill="#FFFFFF" d="M32.6,75.8c-2.2,1.5-2.2,4.8,0,6.3c0.5,0.3,1.2,0,1.4-0.6c0.3-1,0.7-2,1-3c0.4-1.1-1.4-1.6-1.8-0.5
			c-0.3,1-0.7,2-1,3c0.5-0.2,0.9-0.4,1.4-0.6c-1-0.7-1.1-2.4,0-3.1C34.5,76.7,33.6,75.1,32.6,75.8L32.6,75.8z"/>
	</g>
</g>
<g>
	<g>
		<path fill="#FFFFFF" d="M29.9,88.8c-1,1.1-1.4,2.6-1,4c0.1,0.4,0.5,0.7,0.9,0.7c1.7-0.2,2.4-1.7,2.7-3.2c0.2-1.2-1.6-1.7-1.8-0.5
			c-0.1,0.5-0.3,1.8-0.9,1.9c0.3,0.2,0.6,0.5,0.9,0.7c-0.2-0.8,0-1.6,0.6-2.2C32,89.2,30.7,87.9,29.9,88.8L29.9,88.8z"/>
	</g>
</g>
<g>
	<g>
		<path fill="#FFFFFF" d="M28.8,56.1c-0.8,1.6-1.1,3.2-1,5c0,0.6,0.6,1.1,1.2,0.9c1.9-0.7,3-2.6,2.5-4.6c-0.3-1.2-2-0.7-1.8,0.5
			c0.2,1-0.3,2-1.3,2.3c0.4,0.3,0.8,0.6,1.2,0.9c-0.1-1.4,0.1-2.8,0.8-4.1C30.9,56,29.4,55,28.8,56.1L28.8,56.1z"/>
	</g>
</g>
<g>
	<g>
		<path fill="#FFFFFF" d="M25.6,71.2c-1.3,1.1-1.6,3.1-0.7,4.5c0.3,0.5,1,0.6,1.4,0.2c0.8-0.9,1.2-1.9,1.4-3.1
			c0.1-0.5-0.5-0.9-0.9-0.9c-0.5,0-0.9,0.4-0.9,0.9c-0.1,0.7-0.4,1.3-0.8,1.8c0.5,0.1,1,0.1,1.4,0.2c-0.5-0.8-0.3-1.7,0.4-2.3
			c0.4-0.3,0.3-1,0-1.3C26.5,70.8,26,70.9,25.6,71.2L25.6,71.2z"/>
	</g>
</g>
<g>
	<g>
		<path fill="#FFFFFF" d="M22.1,86.3c0.4,1.4,0.8,2.7,1.2,4.1c0.2,0.7,1.3,1,1.7,0.2c0.7-1.6,0.5-3.3-0.6-4.6
			c-0.8-0.9-2.1,0.4-1.3,1.3c0.6,0.6,0.7,1.6,0.4,2.3c0.6,0.1,1.1,0.1,1.7,0.2c-0.4-1.4-0.8-2.7-1.2-4.1
			C23.5,84.7,21.7,85.2,22.1,86.3L22.1,86.3z"/>
	</g>
</g>
</svg>
