<?xml version="1.0" encoding="utf-8"?>
<!-- Generator: Adobe Illustrator 18.0.0, SVG Export Plug-In . SVG Version: 6.00 Build 0)  -->
<!DOCTYPE svg PUBLIC "-//W3C//DTD SVG 1.1//EN" "http://www.w3.org/Graphics/SVG/1.1/DTD/svg11.dtd">
<svg version="1.1" xmlns="http://www.w3.org/2000/svg" xmlns:xlink="http://www.w3.org/1999/xlink" x="0px" y="0px"
	 viewBox="0 0 1121.9 714" enable-background="new 0 0 1121.9 714" xml:space="preserve">
<g id="sketches" display="none">
	
		<image display="inline" overflow="visible" width="2496" height="1656" xlink:href="icon ideas.jpg"  transform="matrix(0.1466 0 0 0.1466 57.3333 -48.98)">
	</image>
	
		<image display="inline" overflow="visible" width="3264" height="2448" xlink:href="IMG_8776.JPG"  transform="matrix(1.731652e-09 0.1452 -0.1452 1.731652e-09 787.7064 -62.3583)">
	</image>
	
		<image display="inline" overflow="visible" width="3264" height="2448" xlink:href="IMG_8777.JPG"  transform="matrix(1.842324e-09 0.1545 -0.1545 1.842324e-09 423.5356 193.8348)">
	</image>
	
		<image display="inline" overflow="visible" width="3264" height="2448" xlink:href="IMG_8778.JPG"  transform="matrix(1.726172e-09 0.1448 -0.1448 1.726172e-09 777.6723 411.618)">
	</image>
	
		<image display="inline" overflow="visible" width="3264" height="2448" xlink:href="IMG_8779.JPG"  transform="matrix(1.852210e-09 0.1553 -0.1553 1.852210e-09 425.5649 641.1066)">
	</image>
	
		<image display="inline" overflow="visible" width="3264" height="2448" xlink:href="IMG_8780.JPG"  transform="matrix(1.682332e-09 0.1411 -0.1411 1.682332e-09 800.1711 876.5948)">
	</image>
</g>
<g id="whiteout">
	<rect x="-1.8" y="-10.1" fill="#EB8065" width="1125.9" height="747.7"/>
</g>
<g id="cowboy_piggy_vector">
	<g>
		<g>
			<path fill="#FFFFFF" d="M666,567.2c-8.3-10-21.2-14-33.8-11.2c-6.4,1.5-12.6,4.8-17.7,8.9c-6.2,5-9,12.4-11.3,19.8
				c-0.8,2.6,3.3,3.7,4.1,1.1c1.9-6.4,4.2-12.1,9-16.9c4.2-4.1,10-6.6,15.5-8.4c11.4-3.6,23.7,0.6,31.2,9.7
				C664.7,572.2,667.7,569.2,666,567.2L666,567.2z"/>
		</g>
	</g>
	<g>
		<g>
			<path fill="#FFFFFF" d="M597.4,598.7c4.2,5.2,10.8,5.5,16.7,3.5c4.4-1.5,10.9-6.3,7.4-11.7c-6.7-10.5-30.4-6.3-25.1,8.2
				c0.9,2.5,5,1.4,4.1-1.1c-3.5-9.6,9.9-9.8,15.3-7.2c5.7,2.7,1,5.8-0.9,6.9c-1.4,0.8-3.1,1.2-4.7,1.7c-3.8,1-7.4-0.2-9.8-3.2
				C598.7,593.6,595.7,596.6,597.4,598.7L597.4,598.7z"/>
		</g>
	</g>
	<g>
		<g>
			<path fill="#FFFFFF" d="M597.5,601.1c2.5,2.7,3.7,6.1,5.5,9.2c1.6,2.9,3.6,5.5,5.6,8.1c4.3,5.4,9.8,9.8,15.7,13.3
				c2.3,1.4,4.5-2.3,2.1-3.6c-5.7-3.4-10.6-7.6-14.8-12.6c-4.5-5.3-6.4-12.3-11.1-17.3C598.6,596.1,595.7,599.1,597.5,601.1
				L597.5,601.1z"/>
		</g>
	</g>
	<g>
		<g>
			<path fill="#FFFFFF" d="M668.6,601.6c0.3,19.9-25.1,29.2-41.5,25.8c-2.6-0.5-3.8,3.5-1.1,4.1c19,3.9,47.2-7,46.8-29.8
				C672.8,598.9,668.6,598.9,668.6,601.6L668.6,601.6z"/>
		</g>
	</g>
	<g>
		<g>
			<path fill="#FFFFFF" d="M616.8,624.1c-3.9-0.2-7.4-0.1-10.7,2c-1.2,0.8-2.3,2-3.3,3.1c-2.4,2.5-5.4,3.3-8.7,4.1
				c-1.7,0.4-1.1,2.6,0.4,2.8c8.8,1.1,21.4,1,23.6-10.1c0.4-1.8-2.4-2.5-2.7-0.7c-1.9,9.7-13.4,9-20.9,8c0.1,0.9,0.2,1.8,0.4,2.8
				c3.3-0.8,6.2-1.7,8.9-3.8c1.8-1.4,3-3.1,4.9-4.4c2.2-1.5,5.6-1.1,8.1-0.9C618.6,627,618.6,624.2,616.8,624.1L616.8,624.1z"/>
		</g>
	</g>
	<g>
		<g>
			<path fill="#FFFFFF" d="M628.4,629.8c-0.5,0-1,0-1.5,0c0,0.9,0,1.9,0,2.8c3,0,6.3,3.3,9,4.6c2.1,1.1,4.7,1.8,7.1,2
				c6.3,0.6,12.8-1.9,18.9,0.3c1,0.3,2.1-0.7,1.7-1.7c-2-5.5,4.9-13.1,7-18c2.2-5,3.1-10.2,2.6-15.6c-0.2-1.8-3-1.8-2.8,0
				c0.8,7.4-1.7,14-5.3,20.4c-2.5,4.4-6.1,8.7-4.2,14c0.6-0.6,1.2-1.2,1.7-1.7c-5.9-2.1-11.9-0.1-18-0.2c-4.2-0.1-8.2-2-11.6-4.3
				c-2.1-1.5-3.5-2.5-6.1-2.5c-1.8,0-1.8,2.8,0,2.8c0.5,0,1,0,1.5,0C630.2,632.6,630.2,629.8,628.4,629.8L628.4,629.8z"/>
		</g>
	</g>
	<g>
		<g>
			<path fill="#FFFFFF" d="M666.1,573.3c5.3,0,9.8,3.4,14.7,5c4.7,1.6,9.8,0,14.4-1.2c2.6-0.7,1.5-4.7-1.1-4.1
				c-6.5,1.7-11,2-17.1-0.8c-3.5-1.7-6.9-3.1-10.8-3.1C663.4,569.1,663.4,573.3,666.1,573.3L666.1,573.3z"/>
		</g>
	</g>
	<g>
		<g>
			<path fill="#FFFFFF" d="M692.8,576.5c-0.1,13.1-12.2,21.1-24.1,22.4c-2.7,0.3-2.7,4.5,0,4.2c14.2-1.6,28.1-11.1,28.3-26.6
				C697.1,573.8,692.9,573.8,692.8,576.5L692.8,576.5z"/>
		</g>
	</g>
	<g>
		<g>
			<path fill="#FFFFFF" d="M648.7,586.7c0.6-0.7,1-1.6,0.6-2.5c-0.4-0.9-1.1-1.7-2.1-1.8c-2.5-0.3-3.4,1.8-3.3,3.9
				c0.1,0.9,0.6,1.8,1.5,2c1.2,0.3,2.4,0.2,3.5-0.4c1.1-0.5,2.5-1.4,2.5-2.7c0-0.5,0-1.1-0.1-1.6c-0.2-0.7-0.8-1.2-1.4-1.7
				c-1-0.7-2.2-1.1-3.4-1c-2.7,0.3-4.4,2.9-3.3,5.5c0.9,1.9,2.8,2.9,4.8,2.9c2,0.1,3.8-1.2,4.5-3.1c0.7-1.8,0.1-3.7-1-5.2
				c-1.3-1.7-3.8-1.7-5.6-0.7c-1.8,1-2.9,3.4-2.1,5.4c0.4,1.1,1.4,1.8,2.6,1.5c1-0.3,1.9-1.5,1.5-2.6c-0.1-0.2-0.2-0.2,0-0.5
				c0.2-0.3,0.4-0.3,0.5-0.3c-0.3-0.1,0.2,0.2,0,0c0.1,0.1,0.2,0.3,0.2,0.2c0.2,0.4,0.1,0.3,0.1,0.6c0,0.2-0.1,0.3,0,0.2
				c-0.1,0.2-0.2,0.2-0.3,0.3c-0.5,0.1-0.7,0-1.1-0.2c0.2,0.1-0.2-0.3-0.1-0.1c-0.3-0.4,0,0-0.1,0.2c-0.2,0.2-0.4,0,0.2,0.1
				c0.2,0.1,0.5,0.3,0.7,0.5c-0.2-0.5-0.4-1-0.6-1.5c0,0.3,0,0.7,0,1c0.3-0.6,0.7-1.2,1-1.8c-0.4,0.3-1.2,1-1.7,0.9
				c0.5,0.7,1,1.4,1.5,2c0-0.2,0-0.4,0-0.5c0.1-0.7-0.2-0.4-0.9,0.7c-0.4,0-0.7,0-1.1,0c0.4,0.1,0.3,0-0.3-0.2
				c-0.2-0.3-0.4-0.6-0.5-0.9c0-0.1,0-0.2,0-0.3c0.2-0.5,0.4-1,0.6-1.5c0,0-0.1,0.1-0.1,0.1c-0.7,0.9-0.9,2.1,0,3
				C646.5,587.4,648,587.6,648.7,586.7L648.7,586.7z"/>
		</g>
	</g>
	<g>
		<g>
			<path fill="#FFFFFF" d="M602.2,595.2c1.8,0,1.8-2.8,0-2.8S600.4,595.2,602.2,595.2L602.2,595.2z"/>
		</g>
	</g>
	<g>
		<g>
			<path fill="#FFFFFF" d="M612.7,595.2c0.1,0,0.2,0,0.4,0c0.8,0,1.4-0.6,1.4-1.4s-0.6-1.4-1.4-1.4c-0.1,0-0.2,0-0.4,0
				c-0.8,0-1.4,0.6-1.4,1.4S611.9,595.2,612.7,595.2L612.7,595.2z"/>
		</g>
	</g>
	<g>
		<g>
			<path fill="#FFFFFF" d="M617,629.3c-0.5,6.5-0.6,13-0.3,19.5c0.2,3.6-0.4,11.2,2.7,14c1.8,1.7,5.3,3.3,7.4,1
				c1.4-1.5,2-3.5,3.3-5.1c2.8-3.5,8-3.6,12-3.4c3.2,0.2,8,0.8,10.6,2.9c1.3,1.1,1.7,4.6,2.6,6.3c1.7,3.3,5.6,2.7,8.3,1.5
				c3.8-1.8,6.5-7.1,7.9-10.7c2-5.1,2.8-10.3,2.3-15.8c-0.2-2.7-4.4-2.7-4.2,0c0.4,4.6-0.1,8.9-1.6,13.3c-0.9,2.8-7.9,15.4-10.1,6.9
				c-1.9-7.1-9.6-7.7-15.8-8.4c-6.9-0.8-14.4,1.7-17.3,8.4c-2.3,0.1-3.4-0.9-3.2-3c-0.1-1.3-0.3-2.6-0.4-3.9
				c-0.2-2.6-0.3-5.2-0.4-7.8c-0.2-5.2,0.1-10.4,0.4-15.6C621.4,626.6,617.2,626.6,617,629.3L617,629.3z"/>
		</g>
	</g>
	<g>
		<g>
			<path fill="#FFFFFF" d="M683.7,660.4c-1,1.8-1.9,3.5-2.9,5.3c-0.6,1.2-0.1,2.8,1.3,3.1c1.6,0.4,3.3,0.8,4.9,1.1
				c2.6,0.6,3.8-3.4,1.1-4.1c-1.6-0.4-3.3-0.8-4.9-1.1c0.4,1,0.8,2.1,1.3,3.1c1-1.8,1.9-3.5,2.9-5.3
				C688.6,660.1,685,658,683.7,660.4L683.7,660.4z"/>
		</g>
	</g>
	<g>
		<g>
			<path fill="#FFFFFF" d="M689.4,670.1c8.8-10.7,16.3-21.6,13.8-36.1c-2.6-15-15.3-25.9-26.4-35.2c-2.1-1.7-5.1,1.2-3,3
				c9.6,8.1,19.4,16.4,23.9,28.5c5.4,14.3-2.6,26.2-11.4,36.9C684.7,669.2,687.7,672.2,689.4,670.1L689.4,670.1z"/>
		</g>
	</g>
	<g>
		<g>
			<path fill="#FFFFFF" d="M682.4,661.5c-5-2.5-10.3-3.2-15.7-2.2c-2.7,0.5-1.5,4.6,1.1,4.1c4.3-0.9,8.6-0.2,12.5,1.7
				C682.7,666.3,684.9,662.7,682.4,661.5L682.4,661.5z"/>
		</g>
	</g>
	<g>
		<g>
			<path fill="#FFFFFF" d="M685.8,608.1c13.5-3.2,20.8-16,20.1-29.3c-0.3-5.7-2.7-10.8-8.5-12.6c-7.6-2.5-15.7-2.7-23.3-5.2
				c-7.8-2.6-15-6.8-22.8-9.4c-7.7-2.5-15.8-3.8-23.9-4.1c-14.7-0.5-29.3,4.3-40.6,13.8c-0.9,0.8-0.7,2.2,0,3
				c5.6,5.8,10.7,11.9,15.4,18.5c1.6,2.2,5.2,0.1,3.6-2.1c-4.9-6.8-10.3-13.3-16.1-19.3c0,1,0,2,0,3c21-17.8,50.2-14.1,73.6-3.5
				c4.9,2.2,9.5,4.4,14.7,5.7c6.3,1.6,13.2,1.6,19.2,4.1c7.6,3.3,4.6,16.6,2,22.1c-2.7,5.9-8.3,9.8-14.5,11.3
				C682,604.6,683.2,608.7,685.8,608.1L685.8,608.1z"/>
		</g>
	</g>
	<g>
		<g>
			<path fill="#FFFFFF" d="M668.3,549c-9.6-4.7-9.8-18.4-21.7-20.1c-11.5-1.7-18.8,9.4-22.5,18.6c-1,2.5,3.1,3.6,4.1,1.1
				c3.5-8.8,13.5-21.7,23.7-12.8c5.7,5,7,13.2,14.3,16.8C668.6,553.8,670.8,550.2,668.3,549L668.3,549z"/>
		</g>
	</g>
	<g>
		<g>
			<path fill="#FFFFFF" d="M665.7,551.3c2.6,0,4.9-0.4,7.1,1.4c2.6,2.1,2.7,5.7,1.1,8.4c-1.4,2.3,2.2,4.5,3.6,2.1
				c2.2-3.8,2.2-8.4-0.4-12c-2.9-4-7-4.2-11.5-4.2C663,547.2,663,551.4,665.7,551.3L665.7,551.3z"/>
		</g>
	</g>
	<g>
		<g>
			<path fill="#FFFFFF" d="M685.6,660.1c-3.8-3.1-5.2-7.9-3.5-12.5c0.9-2.6-3.1-3.7-4.1-1.1c-2.1,5.9-0.3,12.6,4.6,16.6
				C684.7,664.7,687.7,661.8,685.6,660.1L685.6,660.1z"/>
		</g>
	</g>
	<g>
		<g>
			<path fill="#FFFFFF" d="M616.1,630.1c0,0-0.1-0.1-0.1-0.1c0,0.7,0,1.3,0,2c0.1-0.1,0.1-0.1,0.2-0.2c-0.5,0.1-0.9,0.2-1.4,0.4
				c0.1,0,0.1,0,0.2,0c-0.3-0.5-0.7-0.9-1-1.4c0,0.3-1,1.6-1.2,2c-0.5,1.4-0.8,2.7-1,4.1c-0.4,3.2,0.1,7.3-2.9,9.5
				c-1.3,0.9-0.5,2.9,1.1,2.6c3.5-0.7,6.3-2.9,7.9-6.1c0.8-1.6-1.7-3.1-2.4-1.4c-1.3,2.7-3.3,4.3-6.2,4.9c0.4,0.9,0.7,1.7,1.1,2.6
				c2.4-1.7,3.5-4.2,3.9-7.1c0.3-2.1,0.3-4.2,0.7-6.3c0.3-1.7,2-2.9,1.9-4.6c0-0.6-0.4-1.2-1-1.4c-0.7-0.1-1.2-0.1-1.7,0.5
				c-0.5,0.6-0.5,1.4,0,2c0,0,0.1,0.1,0.1,0.1C615.4,633.4,617.3,631.4,616.1,630.1L616.1,630.1z"/>
		</g>
	</g>
	<g>
		<g>
			<path fill="#FFFFFF" d="M701.7,647.3c4.2-0.4,8-1.6,9.6-5.7c1.2-3.1-1-7.1-4.3-4.6c-2.4,1.8-3.1,6.5-1.2,8.9
				c3,3.6,8.3,1.8,11.9,0.1c1.6-0.8,0.2-3.2-1.4-2.4c-1.9,0.9-3.8,1.5-5.8,1.6c-3.7,0.2-3.7-6.3-0.9-6.2c-0.4-0.2-0.8-0.5-1.2-0.7
				c2.3,4.2-3.7,5.9-6.7,6.3C699.9,644.7,699.9,647.5,701.7,647.3L701.7,647.3z"/>
		</g>
	</g>
</g>
<g id="Layer_5">
	<g>
		<g>
			<path fill="#FFFFFF" d="M342.8,13.6c-5.1-7.8-12.5-9.4-21.3-10c-9.1-0.6-18.7,1-25,8.1c-1.6,1.8,1,4.5,2.7,2.7
				c5.3-6,12.8-7.2,20.5-7.1c7.8,0.1,15.3,1.2,19.9,8.2C340.9,17.6,344.1,15.7,342.8,13.6L342.8,13.6z"/>
		</g>
	</g>
	<g>
		<g>
			<path fill="#FFFFFF" d="M297.4,12c-3.7-3.5-8-5.2-13-5.3c-2.7-0.1-5.3,0.9-7.7,1.9c-4.2,1.7-8.2,1.9-12.5,0.8
				c-1.5-0.4-2.6,0.9-2.3,2.3c1.7,9.2,4.9,19.9,15.5,21.6c2.4,0.4,3.4-3.3,1-3.7c-9.3-1.5-11.4-11.1-12.9-19
				c-0.8,0.8-1.6,1.6-2.3,2.3c5,1.3,9.7,1.1,14.6-0.8c6.1-2.4,11.9-2.4,17,2.4C296.5,16.4,299.2,13.7,297.4,12L297.4,12z"/>
		</g>
	</g>
	<g>
		<g>
			<path fill="#FFFFFF" d="M343.3,18.1c6.7-4.9,14.1-5.7,21.6-2.6c4.8,1.9,9.9,3.8,14.4,0.4c-0.9-0.9-1.7-1.7-2.6-2.6
				c-3.9,8.1-8.1,15.9-15,21.9c-1.8,1.6,0.8,4.3,2.7,2.7c7.1-6.2,11.5-14.3,15.6-22.7c0.7-1.5-0.9-3.9-2.6-2.6
				c-5.4,4.1-12-2.1-17.7-2.7c-6.7-0.7-13,0.9-18.3,4.9C339.4,16.3,341.3,19.6,343.3,18.1L343.3,18.1z"/>
		</g>
	</g>
	<g>
		<g>
			<path fill="#FFFFFF" d="M291.9,30.8c-11.7-5.5-21.1,5.7-19.4,16.9c1,6.4,6.9,12.1,11,16.6c4,4.4,10.1,4,14.4,0.4
				c1.9-1.6-0.8-4.3-2.7-2.7c-5,4.3-9.1-0.3-12.1-4.1c-2.5-3.2-5.2-5.8-6.6-9.8C273.7,40,281.1,29.8,290,34
				C292.2,35.1,294.1,31.8,291.9,30.8L291.9,30.8z"/>
		</g>
	</g>
	<g>
		<g>
			<path fill="#FFFFFF" d="M292,34.7c5.9-1.9,15.1-2.4,17.2,5c1.5,5.2-2.4,12.8-5.4,16.8c-1.5,2,1.8,3.8,3.3,1.9
				c4.1-5.4,8.1-14.8,5.2-21.5c-3.5-8.2-14-8.3-21.3-5.9C288.7,31.8,289.7,35.5,292,34.7L292,34.7z"/>
		</g>
	</g>
	<g>
		<g>
			<path fill="#FFFFFF" d="M346.6,36.5c-6.8-4.9-14.1-4.4-18.5,3c-3.9,6.6-3,15.3,0.9,21.5c1.3,2.1,4.6,0.2,3.3-1.9
				c-2.7-4.4-3.5-9-2.4-14.1c0.6-2.8,2.2-5.6,4.5-7.4c3.3-2.6,7.6,0.2,10.2,2.1C346.7,41.2,348.6,37.9,346.6,36.5L346.6,36.5z"/>
		</g>
	</g>
	<g>
		<g>
			<path fill="#FFFFFF" d="M343.7,71.4c11-1,21.6-9.4,22.9-20.9c0.6-5.1-0.5-10.4-4.6-13.8c-4.4-3.6-10.4-1.9-14.8,0.6
				c-2.1,1.2-0.2,4.5,1.9,3.3c4.9-2.8,10.8-3.2,13.2,2.8c1.4,3.4,0.7,7.2-0.5,10.6c-2.6,7.6-10.4,12.9-18.1,13.6
				C341.3,67.8,341.3,71.6,343.7,71.4L343.7,71.4z"/>
		</g>
	</g>
	<g>
		<g>
			<path fill="#FFFFFF" d="M295.1,64.5c-5.3,20,32.6,24.1,39.2,7.8c0.9-2.3-2.8-3.2-3.7-1c-4.8,11.9-35.8,9.1-31.9-5.8
				C299.4,63.2,295.8,62.2,295.1,64.5L295.1,64.5z"/>
		</g>
	</g>
	<g>
		<g>
			<path fill="#FFFFFF" d="M334.3,64.5c-3.2-14.1-37.2-14.2-39.8,0.3c-0.4,2.4,3.2,3.4,3.7,1c1.9-10.6,30.2-10.6,32.5-0.3
				C331.2,67.9,334.9,66.9,334.3,64.5L334.3,64.5z"/>
		</g>
	</g>
	<g>
		<g>
			<path fill="#FFFFFF" d="M334.7,72.2c0.6-1.9,0.6-3.8,0.2-5.8c-0.5-2.4-4.2-1.4-3.7,1c0.3,1.3,0.2,2.5-0.2,3.8
				C330.4,73.6,334,74.6,334.7,72.2L334.7,72.2z"/>
		</g>
	</g>
	<g>
		<g>
			<path fill="#FFFFFF" d="M331.2,63.8c1.8,5.5,7.4,8.7,13,7.6c2.4-0.4,1.4-4.1-1-3.7c-3.5,0.7-7.2-1.6-8.3-5
				C334,60.4,330.4,61.4,331.2,63.8L331.2,63.8z"/>
		</g>
	</g>
	<g>
		<g>
			<path fill="#FFFFFF" d="M323.2,70.6c0.6,0.4,1.4,0.4,2,0c0.7-0.4,0.9-1.1,1-1.8c0.2-1.5-1.8-2.6-3-1.8c-0.9,0.6-1.2,1.7-0.7,2.6
				c0.5,0.9,1.7,1.2,2.6,0.7c0,0,0,0,0.1,0c-0.3,0.1-0.6,0.2-1,0.3c0,0,0,0,0,0c-0.4-0.2-0.9-0.4-1.3-0.6c0,0,0,0,0,0
				c-0.2-0.3-0.3-0.6-0.5-0.8c-0.1-0.3-0.1-0.5,0-0.8c0.2-0.3,0.3-0.6,0.5-0.8c0,0,0,0,0,0c0.4-0.2,0.9-0.4,1.3-0.6c0,0,0,0,0,0
				c0.3,0.1,0.6,0.2,1,0.3c0,0,0,0,0,0c-0.8-0.6-2.1-0.1-2.6,0.7C322,69,322.4,70,323.2,70.6L323.2,70.6z"/>
		</g>
	</g>
	<g>
		<g>
			<path fill="#FFFFFF" d="M303.1,68c0.1,1.1,0.9,2.1,2.1,2.1c1.2,0,2.1-0.9,2.2-2.1c0.1-1-0.9-1.9-1.9-1.9c-1.1,0-1.8,0.9-1.9,1.9
				c0,0,0,0,0,0.1c0.1-0.3,0.2-0.6,0.3-1c0,0,0,0,0,0.1c0.2-0.2,0.5-0.5,0.7-0.7c0.5,0,1,0,1.6,0c0.2,0.2,0.5,0.5,0.7,0.7
				c0,0,0,0,0-0.1c0.1,0.3,0.2,0.6,0.3,1c0,0,0,0,0-0.1c-0.1-1-0.8-1.9-1.9-1.9C304.1,66.1,303,67,303.1,68L303.1,68z"/>
		</g>
	</g>
	<g>
		<g>
			<path fill="#FFFFFF" d="M280.6,58.2c-0.4,0.1-0.9,0.2-1.3,0.4c-0.5-0.6-0.9-1.2-1.4-1.8c0.1,3.9-2.2,8.6-3,12.5
				c-0.6,3.3-0.6,7.1,0.9,10.2c3.2,6.8,9,12.1,14.9,16.5c2,1.5,3.9-1.8,1.9-3.3c-5.5-4.1-11.6-9.5-13.8-16.2
				c-2.3-6.8,3.2-13.2,3-19.8c0-0.9-0.6-1.6-1.4-1.8c-0.1,0-0.2-0.1-0.4-0.1c-0.6-0.2-1.4,0-1.8,0.5c-0.1,0.1-0.1,0.2-0.2,0.2
				C276.3,57.3,279,60,280.6,58.2L280.6,58.2z"/>
		</g>
	</g>
	<g>
		<g>
			<path fill="#FFFFFF" d="M288.5,96c1.2,9.8,1.5,20.4,5.8,29.4c4.5,9.2,12.4-2.1,15.6-5.8c1.6-1.8-1.1-4.5-2.7-2.7
				c-2,2.2-3.9,4.5-5.9,6.7c-3.8,4.3-5.8-5.9-6.2-7.5c-1.7-6.5-2.1-13.4-2.9-20.1C292.1,93.6,288.3,93.6,288.5,96L288.5,96z"/>
		</g>
	</g>
	<g>
		<g>
			<path fill="#FFFFFF" d="M299.5,111.9c3.8,2.8,5.8,6.7,10.4,8.4c4.5,1.7,10.3,0.9,14.9,0.9c2.4,0,2.4-3.8,0-3.8
				c-4.6,0-9.4,0.3-13.9-0.8c-3.9-1-6.4-5.7-9.5-8C299.5,107.2,297.6,110.5,299.5,111.9L299.5,111.9z"/>
		</g>
	</g>
	<g>
		<g>
			<path fill="#FFFFFF" d="M322.6,119c0.6,2.1,0.8,4.2,0.6,6.4c-0.1,1.4,1.3,2,2.4,1.8c2.2-0.3,4.1,0.5,6.2-0.4
				c1.4-0.6,2.4-1.8,3.2-3c2.3-3.5,3.7-8.5,3.4-12.7c-0.2-2.4-4-2.4-3.8,0c0.3,3.3-0.9,6.4-2.2,9.4c-0.7,1.7-1.5,3.1-3.6,3.1
				c-1.5,0-2.7-0.2-4.2,0c0.8,0.6,1.6,1.2,2.4,1.8c0.2-2.5,0-4.9-0.7-7.4C325.6,115.7,321.9,116.7,322.6,119L322.6,119z"/>
		</g>
	</g>
	<g>
		<g>
			<path fill="#FFFFFF" d="M334.4,122.9c2.8,0.4,5.5,0.5,8.3,0.3c2.4-0.2,2.4-4,0-3.8c-2.4,0.2-4.9,0.1-7.3-0.2
				c-1-0.1-2,0.2-2.3,1.3C332.8,121.4,333.4,122.7,334.4,122.9L334.4,122.9z"/>
		</g>
	</g>
	<g>
		<g>
			<path fill="#FFFFFF" d="M346.9,116.2c-1.7,0.4-3.4,0.8-5.1,1.3c-0.9,0.2-1.3,1-1.4,1.8c-0.9,12.8,30.2,6.3,26.4-8.3
				c-0.6-2.4-4.3-1.4-3.7,1c1.1,4.2-2.6,6.6-5.7,8.3c-1.9,1.1-13.6,4.6-13.3-1c-0.5,0.6-0.9,1.2-1.4,1.8c1.7-0.4,3.4-0.8,5.1-1.3
				C350.3,119.3,349.3,115.6,346.9,116.2L346.9,116.2z"/>
		</g>
	</g>
	<g>
		<g>
			<path fill="#FFFFFF" d="M346.7,119.5c0.4,0,0.7,0,1.1,0c0.9,0,1.6-0.6,1.8-1.4c0.9-2.8,2.9-5.3,5.7-6.4c2.2-0.9,1.2-4.6-1-3.7
				c-4,1.7-7,4.9-8.3,9.1c0.6-0.5,1.2-0.9,1.8-1.4c-0.4,0-0.7,0-1.1,0C344.3,115.7,344.3,119.5,346.7,119.5L346.7,119.5z"/>
		</g>
	</g>
	<g>
		<g>
			<path fill="#FFFFFF" d="M353.8,88.5c5.1,6.9,12.6,16.2,10.2,25.3c-0.6,2.4,3,3.4,3.7,1c2.8-10.3-4.8-20.4-10.6-28.3
				C355.6,84.6,352.3,86.5,353.8,88.5L353.8,88.5z"/>
		</g>
	</g>
	<g>
		<g>
			<path fill="#FFFFFF" d="M328.5,49.8c3.3-3.5-3.6-6.2-6.1-6.8c-4.7-1.1-9.5,0.4-13.2,3.4c-1.9,1.5,0.8,4.2,2.7,2.7
				c2.1-1.7,4.5-2.5,7.2-2.6c1.3,0,6.1,0.5,6.5,2.1c0.2-0.6,0.3-1.2,0.5-1.8c-0.1,0.1-0.2,0.2-0.3,0.3
				C324.2,48.9,326.8,51.6,328.5,49.8L328.5,49.8z"/>
		</g>
	</g>
	<g>
		<g>
			<path fill="#FFFFFF" d="M365.5,117.5c3.4,2.6,8.7,3.6,11.7-0.2c1.9-2.4,2.3-8-2.1-8c-3.7,0-4.1,5.1-2.3,7.3
				c3.2,4,8.3,2.4,11.4-0.9c1.1-1.2-0.7-3-1.8-1.8c-1,1.1-2,1.9-3.4,2.4c-0.5,0.1-1,0.1-1.5,0.2c-2.6-0.3-3.1-1.5-1.3-3.6
				c1,2.5-2.5,4.2-4.2,4.5c-1.9,0.2-3.7-0.9-5.1-2C365.5,114.3,364.2,116.5,365.5,117.5L365.5,117.5z"/>
		</g>
	</g>
	<g>
		<g>
			<path fill="#FFFFFF" d="M340.5,94.9c7.3-1.8,15.4-2.9,19.5-9.9c3.7-6.2,2.9-14.8,0.7-21.3c-0.8-2.3-4.5-1.3-3.7,1
				c2,6,2.5,12.5-0.3,18.4c-2.8,5.9-11.6,6.8-17.3,8.1C337.1,91.8,338.1,95.5,340.5,94.9L340.5,94.9z"/>
		</g>
	</g>
	<g>
		<g>
			<path fill="#FFFFFF" d="M75.7,383.4c9.8-8.9,24.5-9.9,35.8-3.2c10.8,6.4,15.8,19.8,14.5,31.9c-0.3,2.9,4.2,2.9,4.5,0
				c1.6-14.5-5.3-29-18-36.5c-12.6-7.4-29.4-4.9-40,4.6C70.4,382.1,73.6,385.3,75.7,383.4L75.7,383.4z"/>
		</g>
	</g>
	<g>
		<g>
			<path fill="#FFFFFF" d="M41.9,376.1c4.6-1.5,9.9-0.9,14.7-0.5c5.8,0.5,11.3,2.5,15.5,6.6c2.1,2,5.3-1.2,3.2-3.2
				c-4.1-3.9-8.9-6.1-14.4-7.3c-6.2-1.4-14.1-2-20.2,0C37.9,372.6,39.1,377,41.9,376.1L41.9,376.1z"/>
		</g>
	</g>
	<g>
		<g>
			<path fill="#FFFFFF" d="M39.9,375.3c6.5,5,4.9,15.1,6.2,22.2c1.2,6.6,6,12,11.8,15.2c2.6,1.4,4.9-2.5,2.3-3.9
				c-8.8-4.9-9.9-12.8-10.7-22c-0.5-6.1-2.3-11.6-7.3-15.4C39.8,369.6,37.6,373.5,39.9,375.3L39.9,375.3z"/>
		</g>
	</g>
	<g>
		<g>
			<path fill="#FFFFFF" d="M116.9,380.8c7.3-7.3,17.4-9.4,27.1-11.4c-0.7-1.3-1.5-2.5-2.2-3.8c-3.9,4.4-5.2,9.6-6.2,15.3
				c-1.3,7.8-3.4,14.6-8.8,20.7c-2,2.2,1.2,5.4,3.2,3.2c4.4-4.9,7.4-10.5,9-16.9c1.6-6.5,1.3-13.8,6-19c1.6-1.7,0-4.2-2.2-3.8
				c-10.5,2.1-21.2,4.7-29.1,12.5C111.6,379.7,114.8,382.9,116.9,380.8L116.9,380.8z"/>
		</g>
	</g>
	<g>
		<g>
			<path fill="#FFFFFF" d="M63.1,430.1c5.7,17.9,21.8,26.4,39.9,23.8c18-2.5,35.3-17.5,33.5-36.8c-0.3-2.9-4.8-2.9-4.5,0
				c1.6,17.3-13.2,29-28.8,32.2c-15.9,3.3-30.8-4.8-35.7-20.4C66.6,426.1,62.3,427.3,63.1,430.1L63.1,430.1z"/>
		</g>
	</g>
	<g>
		<g>
			<path fill="#FFFFFF" d="M134.8,413.8c-1.5-1.6-3.4-2.6-5.4-3.4c-1.2-0.4-2.5,0.5-2.8,1.6c-0.4,1.3,0.4,2.3,1.6,2.8
				c1.2,0.5,2.4,1.2,3.4,2.2C133.6,419.1,136.9,415.9,134.8,413.8L134.8,413.8z"/>
		</g>
	</g>
	<g>
		<g>
			<path fill="#FFFFFF" d="M136.1,421.6c3.5-16.2-32-17.9-34.8-2c-2.7,15.3,32.8,18.9,34.5,2.8c0.3-2.9-4.2-2.9-4.5,0
				c-1,9.6-27.1,7.2-25.3-2.9c1.7-9.4,27.8-8,25.8,1C131.1,423.2,135.5,424.4,136.1,421.6L136.1,421.6z"/>
		</g>
	</g>
	<g>
		<g>
			<path fill="#FFFFFF" d="M127.6,422.2c0.1,0.1,0.3,0.1,0.4,0.2c1.1,0.5,2.4,0.3,3.1-0.8c0.6-1,0.3-2.6-0.8-3.1
				c-0.1-0.1-0.3-0.1-0.4-0.2c-1.1-0.5-2.4-0.3-3.1,0.8C126.2,420.1,126.4,421.7,127.6,422.2L127.6,422.2z"/>
		</g>
	</g>
	<g>
		<g>
			<path fill="#FFFFFF" d="M109.4,421c0.1,0.1,0.1,0.3,0.2,0.4c0.6,1.1,2.1,1.4,3.1,0.8c1.1-0.6,1.4-2,0.8-3.1
				c-0.1-0.1-0.1-0.3-0.2-0.4c-0.6-1.1-2.1-1.4-3.1-0.8C109.1,418.5,108.8,419.9,109.4,421L109.4,421z"/>
		</g>
	</g>
	<g>
		<g>
			<path fill="#FFFFFF" d="M128.2,407.2c0-1-0.5-1.9-1.4-2.4c-1.2-0.6-2.4-0.3-3.4,0.5c-1.2,0.9-1.7,2.5-1.8,3.9
				c-0.1,1.2,1.1,2.3,2.3,2.3c1.3,0,2.1-1,2.3-2.3c-0.1,0.6,0,0.1,0,0c0-0.1,0.1-0.2,0.1-0.3c-0.1,0.3-0.1,0.3,0,0.1
				c0.1-0.1,0.5-0.7,0.1-0.2c0.1-0.1,0.1-0.1,0.2-0.2c-1,0.9-2,0.4-2.8-1.4c0,1.2,1,2.3,2.3,2.3
				C127.1,409.4,128.2,408.4,128.2,407.2L128.2,407.2z"/>
		</g>
	</g>
	<g>
		<g>
			<path fill="#FFFFFF" d="M86.4,407.7c-0.5-2.7-3-4.6-5.7-4.5c-3,0-5.2,2.8-5.3,5.6c-0.1,2.7,2.3,5.2,4.8,5.7
				c2.8,0.6,5.9-1.3,6.4-4.2c0.4-2.5-1.3-6.1-4.3-5.9c-2.9,0.2-5.3,3.3-4.5,6.2c0.4,1.5,2,2.4,3.5,2c1.6-0.4,2.5-2.3,2.1-3.9
				c-0.9-3.8-6.6-2.3-5.5,1.4c0.9,2.8,5.2,1.6,4.4-1.2c0-0.1-0.1-0.2-0.1-0.3c0,0.4,0,0.8,0,1.2c0-0.1,0-0.2,0.1-0.3
				c-0.2,0.3-0.4,0.7-0.6,1c0.1-0.1,0.1-0.2,0.2-0.2c-0.3,0.2-0.7,0.4-1,0.6c0.1,0,0.2,0,0.3-0.1c-0.4,0-0.8,0-1.2,0
				c0.1,0,0.2,0.1,0.3,0.1c-0.3-0.2-0.7-0.4-1-0.6c0.1,0.1,0.1,0.1,0.2,0.2c-0.2-0.3-0.4-0.7-0.6-1c0-0.2,0-0.3,0-0.5
				c0.3-0.3,0.5-0.5,0.8-0.8c-0.1,0.1-0.2,0.1-0.3,0.2c0.4-0.1,0.8-0.2,1.1-0.3c-0.1,0-0.2,0-0.3,0c0.4,0.1,0.8,0.2,1.1,0.3
				c-0.1,0-0.2-0.1-0.3-0.1c0.3,0.3,0.5,0.5,0.8,0.8c-0.1-0.1-0.1-0.2-0.2-0.3c0.1,0.4,0.2,0.8,0.3,1.1c-0.1-0.5,0-0.8,0.4-1.3
				c-0.6-0.1-0.8,0-0.6,0.2c0.1,0.1,0.1,0.2,0.1,0.3c0.1,0.9-1.1,0.8-1.6,0.5c-1.8-1,1-3.5,1.4-0.9C82.6,411.8,87,410.6,86.4,407.7
				L86.4,407.7z"/>
		</g>
	</g>
	<g>
		<g>
			<path fill="#FFFFFF" d="M57.5,413.4c-0.1-0.1-0.7,5.7-0.7,6.3c0.1,2.4,0.5,4.7,1,7c0.7,2.8,5.1,1.6,4.4-1.2c-0.7-3-1-6-0.9-9.1
				c0.1-2.2,1.1-4.6-0.7-6.2C58.6,408.2,55.4,411.4,57.5,413.4L57.5,413.4z"/>
		</g>
	</g>
	<g>
		<g>
			<path fill="#FFFFFF" d="M64.3,427.1c-4.5-3.2-12.8-6.3-16,0.2c-3.1,6.2,0.7,15.4,3.4,21c3.2,6.5,7.7,14.7,15.1,16.8
				c7,2,13.8-3.3,18.9-7.3c2.3-1.8-0.9-5-3.2-3.2c-3.6,2.9-7.3,5.7-12,6.3c-6.2,0.8-9.5-5.8-12.3-10.2c-2.7-4.2-4.7-8.8-5.8-13.6
				c-0.4-1.7-1.5-8.5,1.8-8.9c2.8-0.4,5.7,1.5,7.8,3C64.4,432.7,66.7,428.7,64.3,427.1L64.3,427.1z"/>
		</g>
	</g>
	<g>
		<g>
			<path fill="#FFFFFF" d="M69.2,434c-1.7-3.3-4.2-6.1-7.3-8.2c-2.4-1.7-4.7,2.3-2.3,3.9c2.4,1.7,4.3,3.9,5.6,6.6
				C66.6,438.9,70.5,436.6,69.2,434L69.2,434z"/>
		</g>
	</g>
	<g>
		<g>
			<path fill="#FFFFFF" d="M81.6,451.1c-1.2,5,1.5,9.8,6.6,11c5.1,1.2,9.4-2.9,11-7.3c0.3-0.7,0-1.7-0.6-2.2
				c-0.1-0.1-0.3-0.3-0.4-0.4c-2.1-2-5.3,1.2-3.2,3.2c0.1,0.1,0.3,0.3,0.4,0.4c-0.2-0.7-0.4-1.5-0.6-2.2c-0.7,2-2.4,3.8-4.6,4.1
				c-3.1,0.4-4.9-2.7-4.3-5.4C86.6,449.5,82.2,448.3,81.6,451.1L81.6,451.1z"/>
		</g>
	</g>
	<g>
		<g>
			<path fill="#FFFFFF" d="M90.4,461.7c3,4.9,8.2,8.2,14,8.7c7,0.5,11.8-2,16-7.7c2.5-3.4,4.7-6.9,6.8-10.6
				c1.8-3.2,4.5-6.6,4.3-10.4c-0.2-3.8-5.6-3.5-6.6-0.3c-0.9,2.8,3.5,4,4.4,1.2c-0.9,0.3-1.7,0.6-2.6,0.9c-0.6,1.1-1.1,2.1-1.7,3.2
				c-0.9,1.6-1.8,3.2-2.7,4.7c-2.3,4-4.8,7.8-7.8,11.3c-5.4,6.4-16.5,3-20.3-3.2C92.8,456.9,88.9,459.2,90.4,461.7L90.4,461.7z"/>
		</g>
	</g>
	<g>
		<g>
			<path fill="#FFFFFF" d="M48.9,444.8c-5.1,9.3-6.7,19.5-5.1,29.9c0.7,4.7,2.3,9.7,4.9,13.7c2.2,3.5,6.9,0.9,9.5-0.5
				c2.6-1.4,0.3-5.4-2.3-3.9c-2,1.1-3.4,2.1-4.6-0.2c-0.9-1.8-1.5-3.6-2-5.5c-1.1-3.4-1.5-7-1.6-10.6c-0.3-7.2,1.7-14.3,5.2-20.6
				C54.3,444.5,50.4,442.2,48.9,444.8L48.9,444.8z"/>
		</g>
	</g>
	<g>
		<g>
			<path fill="#FFFFFF" d="M49.4,472.9c1.3,5.2,4.9,13.1,10.7,14.5c2.8,0.7,4.1-3.7,1.2-4.4c-2.1-0.5-3.8-3.2-4.9-5
				c-1.3-2-2-4.1-2.6-6.4C53.1,468.9,48.7,470.1,49.4,472.9L49.4,472.9z"/>
		</g>
	</g>
	<g>
		<g>
			<path fill="#FFFFFF" d="M58.7,476c-0.1,3.4,0.3,6.8,1.2,10.1c0.6,2,2,7.2,4.5,7.5c3,0.4,6.3,1.1,8.1-1.7c1.9-2.9,3.1-6.4,3.8-9.8
				c0.6-2.9-3.8-4.1-4.4-1.2c-0.7,3.5-2,6.6-3.9,9.6c0.7-0.4,1.3-0.7,2-1.1c-0.5,0-3.7,0.3-4-0.1c-0.8-1.3-1.3-2.9-1.8-4.4
				c-0.9-2.9-1.2-5.9-1-8.8C63.3,473.1,58.8,473.1,58.7,476L58.7,476z"/>
		</g>
	</g>
	<g>
		<g>
			<path fill="#FFFFFF" d="M74.4,483.3c8,0.2,16,0.1,24-0.2c2.9-0.1,2.9-4.7,0-4.5c-8,0.3-16,0.4-24,0.2
				C71.5,478.6,71.5,483.2,74.4,483.3L74.4,483.3z"/>
		</g>
	</g>
	<g>
		<g>
			<path fill="#FFFFFF" d="M96.1,481.4c0.4,2.9,0.5,5.8,0.4,8.7c0,1.2,1.1,2.3,2.3,2.3c1.6,0,4.9,0.7,6.3-0.4c1.9-1.4,2.9-3.5,4-5.6
				c2.9-5.2,4.7-11,5.8-16.8c0.5-2.9-3.9-4.1-4.4-1.2c-0.8,4.6-2.1,8.9-4,13.1c-0.8,1.7-1.7,3.4-2.7,5.1c-1.2,2-2.8,1.3-5,1.2
				c0.8,0.8,1.5,1.5,2.3,2.3c0.1-2.9-0.1-5.8-0.4-8.7C100.3,478.6,95.8,478.5,96.1,481.4L96.1,481.4z"/>
		</g>
	</g>
	<g>
		<g>
			<path fill="#FFFFFF" d="M27.9,469.7c2.1,3.7,7.2,5.5,10.8,2.4c1.7-1.4,2.5-3,1.7-5.2c-0.5-1.4-2.5-2.6-4-2.1
				c-3.7,1.1-4.9,6.2-2.1,9c3.8,3.7,8.9,2.5,12.5-0.8c1.4-1.3-0.7-3.5-2.1-2.1c-2.3,2.1-6.2,3.7-8.4,0.4c-1.7-2.5,3.2-2.4-0.6-0.9
				c-2.1,0.9-4.1-0.5-5.1-2.2C29.5,466.5,26.9,468,27.9,469.7L27.9,469.7z"/>
		</g>
	</g>
	<g>
		<g>
			<path fill="#FFFFFF" d="M83.3,450.7c-3.7-2.4-10.6-4-14.3-0.9c-1.2,1-1.5,3.4-0.3,4.5c2.1,1.9,4.3,1,6.9,1.4c1.9,0.3,1.9-2.8,0-3
				c-0.9-0.1-1.6-0.1-2.5,0c-1.3,0.3-1.2-0.1,0.1-1.3c0.5,0,1.1,0,1.6,0c2.5,0,4.9,0.7,7,2C83.5,454.4,85,451.8,83.3,450.7
				L83.3,450.7z"/>
		</g>
	</g>
	<g>
		<g>
			<path fill="#FFFFFF" d="M96.6,457.3c1.8-0.6,3.6-0.8,5.4-0.5c1,0.2,2,0.5,3,0.9c0.3,0.6,0,0.9-0.8,0.7c-0.6,0-1.1-0.1-1.6-0.4
				c-1.7-0.9-3.3,1.7-1.5,2.6c1.7,0.9,3.9,1.2,5.6,0.2c1.3-0.7,2.8-2.4,1.6-4c-2.7-3.7-8.7-3.8-12.6-2.5
				C93.9,455,94.7,457.9,96.6,457.3L96.6,457.3z"/>
		</g>
	</g>
	<g>
		<g>
			<path fill="#FFFFFF" d="M1002.9,93.2c-1.5,6.5-3.2,12.9-5.1,19.3c-0.6,2.1,1.9,3.1,3.4,2c7.7-6.3,15.1-12.9,22.5-19.5
				c1.9-1.7-0.9-4.6-2.8-2.8c-7.4,6.6-14.8,13.2-22.5,19.5c1.1,0.7,2.2,1.3,3.4,2c1.9-6.4,3.6-12.8,5.1-19.3
				C1007.3,91.7,1003.4,90.7,1002.9,93.2L1002.9,93.2z"/>
		</g>
	</g>
	<g>
		<g>
			<path fill="#FFFFFF" d="M1003.3,91.8c-3-0.4-11.2,1.6-12.6-2.3c-1.3-3.6,0-9.8,0.1-13.6c0.3-9.7,0.8-19.4,0-29
				c-0.3-4-1.4-8.2,0.3-12c2.1-4.5,9.4-3.6,13.4-3.5c9.7,0.2,19.4,0.1,29.1-0.4c7.1-0.3,21.3-3.9,22.4,6.5c1,9.3-0.1,19.3-0.3,28.7
				c-0.1,4.6-0.2,9.2-0.3,13.8c-0.1,2.6-0.1,5.3-0.2,7.9c-0.1,4.6-4.3,5.1-7.9,5.4c-9.5,0.8-19,0.6-28.5-0.1c-2.6-0.2-2.6,3.8,0,4
				c11.9,1,24.4,1.3,36.3-0.7c4-0.7,4-5.5,4.1-8.6c0.2-6.6,0.3-13.2,0.5-19.7c0.1-6.6,0.2-13.2,0.3-19.7c0.1-5.2,0.8-10.8-1-15.8
				c-3.3-8.8-16.5-6.1-23.4-5.7c-12.3,0.6-24.7-0.1-37,0.5c-9.7,0.4-12.9,7.3-12,16.1c1.3,12.8,0.5,25.4,0.2,38.2
				c-0.1,3.1-1.1,9.5,1.9,11.8c4.4,3.4,8.7,1.3,13.8,2.1C1004.7,96,1005.8,92.2,1003.3,91.8L1003.3,91.8z"/>
		</g>
	</g>
	<g>
		<g>
			<path fill="#FFFFFF" d="M1024.8,63.3c0.1-0.1,0.3-0.1,0.4-0.2c0.6-0.3,1-1.1,1-1.7c-0.2-5.3-5.7-10.9-10.4-12.6
				c-0.9-0.3-2.3,0.4-2.5,1.4c-0.6,4.3,1.7,7.9,3.5,11.7c2.8,6,5.6,12,8.4,18c0.8,1.7,3.2,1,3.7-0.5c1.8-5.3,3.6-10.6,5.5-16
				c1.2-3.4,2.8-7.5,1.3-11c-1.2-2.6-4.7-1.1-6.1,0.1c-3.3,2.7-4.7,9.2-5.3,13.2c-0.4,2.5,3.5,3.6,3.9,1.1c0.5-3.4,1.4-6.4,3-9.4
				c2.6-5,0.5,1.9,0,3.5c-1.8,5.9-4,11.7-6,17.5c1.2-0.2,2.4-0.3,3.7-0.5c-2-4.2-3.9-8.4-5.9-12.6c-1.7-3.7-6.2-10-5.6-14
				c-0.8,0.5-1.6,0.9-2.5,1.4c2.3,0.8,3.6,2.2,5,4.1c1,1.4,1.3,4,3,3.2C1020.5,60.9,1022.5,64.4,1024.8,63.3L1024.8,63.3z"/>
		</g>
	</g>
	<g>
		<g>
			<path fill="#FFFFFF" d="M1015.8,54.8c1.4,2.5,2.8,5,4.1,7.5c0.4,0.8,4.4,9.2,4.7,9c1.1,0.7,2.2,1.3,3.4,2
				c1.5-5.9,3-11.8,4.6-17.7c0.7-2.5-3.2-3.6-3.9-1.1c-1.6,5.9-3.1,11.8-4.6,17.7c-0.5,2.1,1.8,3.1,3.4,2c2.4-1.9-0.1-5.4-1-7.4
				c-2.1-4.8-4.5-9.4-7.1-13.9C1018,50.5,1014.5,52.5,1015.8,54.8L1015.8,54.8z"/>
		</g>
	</g>
	<g>
		<g>
			<path fill="#FFFFFF" d="M1030.6,55.1c0.3,2.1-0.3,4.1-1.3,5.9c1.2,0.5,2.4,1,3.7,1.5c0.4-1.9,0.7-3.9,1.1-5.8
				c0.5-2.5-3.4-3.6-3.9-1.1c-0.4,1.9-0.7,3.9-1.1,5.8c-0.4,2.2,2.4,3.6,3.7,1.5c1.7-2.8,2.2-5.8,1.7-9c-0.1-1.1-1.5-1.7-2.5-1.4
				C1030.8,52.9,1030.5,54,1030.6,55.1L1030.6,55.1z"/>
		</g>
	</g>
	<g>
		<g>
			<path fill="#FFFFFF" d="M95,41.6c-17.7-0.8-26.9,17-27.7,32.3c-0.2,5.2,0.4,10.3,1.2,15.4c0.6,4.3,1,9.3,2.8,13.3
				c3.8,8.7,13.7,7.4,21.7,8.1c4.6,0.4,8,0.4,11.7-2.4c3.7-2.7,6.8-6.4,9.7-9.9c6.2-7.4,12.3-15.6,16.6-24.2
				c8.3-16.4-3.5-35.5-22.1-34.6c-2.4,0.1-2.4,3.8,0,3.7c8.2-0.4,15.2,3.4,19.2,10.6c4.2,7.6,1.3,16-2.8,22.9
				c-3.7,6.1-8.1,12-12.5,17.7c-4.5,5.8-10,13.3-18,12.7c-3.7-0.3-7.4-0.7-11.1-1c-5.6-0.5-8.5-2.3-9.9-7.7
				c-1.9-7.3-2.7-15.3-2.8-22.8c-0.2-13.9,7.8-31.3,24-30.5C97.4,45.4,97.4,41.7,95,41.6L95,41.6z"/>
		</g>
	</g>
	<g>
		<g>
			<path fill="#FFFFFF" d="M93.7,43.5c-4,3.1-8.5,5.9-10.1,11c-0.5,1.5,1,2.5,2.3,2.3c6.1-0.9,10.4-5.1,14.4-9.5
				c-1.1-0.4-2.1-0.9-3.2-1.3c0.1,5.4,0.9,10.9,6.2,13.6c1.1,0.6,2.3,0,2.7-1.1c1.7-4.7,1.7-9.3-0.2-14c-1,0.6-2.1,1.2-3.1,1.8
				c2.9,2.4,5.9,3.6,9.7,3.6c1.1,0,2.2-1.2,1.8-2.3c-3.4-9.9-15.7-12.6-22.6-4.4c-1.5,1.8,1.1,4.4,2.6,2.6
				c4.9-5.9,13.8-4.8,16.4,2.8c0.6-0.8,1.2-1.6,1.8-2.3c-2.8,0-4.9-0.7-7.1-2.5c-1.3-1-3.8-0.1-3.1,1.8c1.6,4.1,1.7,7.9,0.2,12
				c0.9-0.4,1.8-0.7,2.7-1.1c-4.1-2.1-4.2-6.4-4.3-10.4c0-1.5-2-2.5-3.2-1.3c-3.6,4-7.3,7.8-12.8,8.6c0.8,0.8,1.5,1.5,2.3,2.3
				c1.3-4.2,5.8-6.8,9.1-9.3C98.1,44.7,95.5,42.1,93.7,43.5L93.7,43.5z"/>
		</g>
	</g>
	<g>
		<g>
			<path fill="#FFFFFF" d="M101.9,38.6c-1.3-3.9-1.7-7.7-1.3-11.8c-0.5,0.6-0.9,1.2-1.4,1.8c1.8-0.5,3.6-0.9,5.5-0.9
				c-0.6-0.8-1.2-1.6-1.8-2.3c-1.2,4.7-1.9,9.4-2.2,14.3c-0.2,2.4,3.5,2.4,3.7,0c0.3-4.5,1-8.9,2.1-13.3c0.3-1.1-0.5-2.4-1.8-2.3
				c-2.2,0.1-4.4,0.4-6.5,1.1c-0.8,0.2-1.3,0.9-1.4,1.8c-0.4,4.4,0.1,8.6,1.5,12.8C99.1,41.9,102.6,40.9,101.9,38.6L101.9,38.6z"/>
		</g>
	</g>
	<g>
		<g>
			<path fill="#FFFFFF" d="M107,64.3c-3.2,2.7-4.8,6.8-4.3,11c0.1,0.7,1,1.3,1.6,0.7c3-3.2,4.5-7.3,4.1-11.7c-0.1-1.2-2-1.2-1.8,0
				c0.3,3.9-0.9,7.6-3.6,10.4c0.5,0.2,1.1,0.4,1.6,0.7c-0.5-3.8,0.8-7.3,3.8-9.7C109.3,64.8,107.9,63.5,107,64.3L107,64.3z"/>
		</g>
	</g>
	<g>
		<g>
			<path fill="#FFFFFF" d="M115.4,62.7c0.1,0,0.1,0,0.2,0c0.4,0,0.8-0.3,0.9-0.7c0.2-0.6,0.1-0.9-0.3-1.4c-0.2-0.2-0.6-0.3-0.9-0.2
				c-1.5,0.6-1.5,2.2-1.8,3.6c-0.5,2.5-0.6,5-0.5,7.5c0,0.4,0.3,0.8,0.7,0.9c4.6,1.2,3.8-9.5,3.5-11.7c-0.1-1.2-2-1.2-1.8,0
				c0.1,1.1,0.4,10.3-1.2,9.9c0.2,0.3,0.5,0.6,0.7,0.9c0-1.4,0-2.7,0.1-4.1c0-0.7,0.2-5.1,0.9-5.3c-0.3-0.1-0.6-0.2-0.9-0.2
				c0.1,0.1,0.1,0.1,0.2,0.2c-0.1-0.3-0.2-0.6-0.2-0.9c0,0.1-0.1,0.2-0.1,0.3c0.3-0.2,0.6-0.5,0.9-0.7c-0.1,0-0.1,0-0.2,0
				C114.2,60.9,114.2,62.8,115.4,62.7L115.4,62.7z"/>
		</g>
	</g>
	<g>
		<g>
			<path fill="#FFFFFF" d="M125.1,63.2c-3.1,1.6-3.6,5.3-3.1,8.4c0.1,0.6,0.9,0.9,1.4,0.6c3-2.1,4-6,2.5-9.3
				c-0.5-1.1-2.1-0.1-1.6,0.9c1.1,2.4,0.3,5.3-1.9,6.8c0.5,0.2,0.9,0.4,1.4,0.6c-0.3-2.3,0-5.2,2.3-6.4
				C127.1,64.2,126.2,62.6,125.1,63.2L125.1,63.2z"/>
		</g>
	</g>
	<g>
		<g>
			<path fill="#FFFFFF" d="M96.6,83.4c-2.5,3-3.9,6.5-4.1,10.4c0,0.5,0.4,1,0.9,0.9c4.7-0.4,4.7-7.2,5.3-10.6
				c0.2-1.2-1.6-1.7-1.8-0.5c-0.4,2.1-0.5,9-3.5,9.2c0.3,0.3,0.6,0.6,0.9,0.9c0.2-3.4,1.4-6.5,3.5-9.1
				C98.7,83.8,97.4,82.5,96.6,83.4L96.6,83.4z"/>
		</g>
	</g>
	<g>
		<g>
			<path fill="#FFFFFF" d="M107.8,84.1c0.1,0,0.1,0,0.2,0.1c0.3,0.1,0.7,0,0.9-0.2c0.5-0.5,0.7-1.2,0.2-1.8c-0.7-1-1.8-0.3-2.5,0.3
				c-2.6,2.2-3.7,6.4-4,9.6c-0.1,0.7,0.8,1.2,1.4,0.8c3.6-2.4,5.6-6.5,5.4-10.8c-0.1-1.2-1.9-1.2-1.8,0c0.2,3.7-1.4,7.1-4.5,9.2
				c0.5,0.3,0.9,0.5,1.4,0.8c0.1-1.5,0.4-2.9,0.9-4.3c0.4-1,1.7-4.2,2.9-4.3c-0.3-0.2-0.5-0.3-0.8-0.5c0-0.1,0.1-0.3,0.1-0.4
				c0.3-0.1,0.6-0.2,0.9-0.2c-0.1,0-0.1,0-0.2-0.1C107.2,81.9,106.7,83.7,107.8,84.1L107.8,84.1z"/>
		</g>
	</g>
	<g>
		<g>
			<path fill="#FFFFFF" d="M116.1,84.8c0.1,0,0.1,0,0.2,0.1c0.3,0.1,0.7,0,0.9-0.2c1.3-1.3-0.5-2.9-1.9-1.8c-2.2,1.8-3.9,4.4-5,7
				c-0.3,0.8,0.4,1.8,1.3,1.3c3.3-1.8,5.3-5,5.8-8.7c0.2-1.2-1.7-1.2-1.8,0c-0.4,3-2.2,5.6-4.9,7.1c0.4,0.4,0.8,0.8,1.3,1.3
				c0.5-1.2,1.1-2.3,1.8-3.3c0.4-0.6,2.1-3.3,2.9-3.2c-0.3-0.2-0.5-0.3-0.8-0.5c0-0.2,0-0.4,0.1-0.5c0.3-0.1,0.6-0.2,0.9-0.2
				c-0.1,0-0.1,0-0.2-0.1C115.5,82.6,115,84.3,116.1,84.8L116.1,84.8z"/>
		</g>
	</g>
	<g>
		<g>
			<path fill="#FFFFFF" d="M90.2,98.1c-1.3,0.8-1.9,2-2.3,3.5c-0.3,1.2-0.2,2.9,1.5,2.9c1.3,0,2.5-1.6,3.1-2.6
				c0.7-1.3,0.9-2.9,0.5-4.4c-0.3-1.2-2-0.7-1.8,0.5c0.3,1.5-0.1,3-1.1,4.1c-0.3,0.3-0.5,0.3-0.4,0.7c0-0.3,0.1-0.7,0.1-1
				c0.2-0.8,0.6-1.6,1.3-2C92.2,99,91.2,97.4,90.2,98.1L90.2,98.1z"/>
		</g>
	</g>
	<g>
		<g>
			<path fill="#FFFFFF" d="M101.1,100.2c-0.5,0-1,0-1.5,0c-0.6,0-0.9,0.6-1.2,1.1c-0.5,1-0.8,2.2-0.8,3.4c0,0.5,0.4,1,0.9,0.9
				c2.2-0.3,3.9-2.2,3.7-4.5c-0.1-1.2-2-1.2-1.8,0c0.1,1.2-0.6,2.4-1.9,2.6c0.3,0.3,0.6,0.6,0.9,0.9c0-1.1,0.3-2.1,0.9-3.1
				c-0.3,0.2-0.5,0.3-0.8,0.5c0.5,0,1,0,1.5,0C102.3,102.1,102.3,100.2,101.1,100.2L101.1,100.2z"/>
		</g>
	</g>
	<g>
		<g>
			<path fill="#FFFFFF" d="M90.6,65c0.2-1.2-0.4-2-1.6-2.1c-0.3,0-0.7,0.2-0.8,0.5c-1.2,2.4-1.1,5,0.3,7.3c0.3,0.5,1,0.6,1.4,0.2
				c1.9-1.6,2.3-4.4,1-6.5c-0.6-1-2.2-0.1-1.6,0.9c0.9,1.4,0.6,3.1-0.7,4.2c0.5,0.1,1,0.1,1.4,0.2c-1-1.7-1.2-3.6-0.3-5.4
				c-0.3,0.2-0.5,0.3-0.8,0.5c0-0.1-0.1-0.2-0.1-0.2C88.6,65.7,90.4,66.2,90.6,65L90.6,65z"/>
		</g>
	</g>
	<g>
		<g>
			<path fill="#FFFFFF" d="M84.3,81c-2.2,1.5-2.2,4.8,0,6.3c0.5,0.3,1.2,0,1.4-0.6c0.3-1,0.7-2,1-3c0.4-1.1-1.4-1.6-1.8-0.5
				c-0.3,1-0.7,2-1,3c0.5-0.2,0.9-0.4,1.4-0.6c-1-0.7-1.1-2.4,0-3.1C86.2,81.9,85.3,80.3,84.3,81L84.3,81z"/>
		</g>
	</g>
	<g>
		<g>
			<path fill="#FFFFFF" d="M81.6,94c-1,1.1-1.4,2.6-1,4c0.1,0.4,0.5,0.7,0.9,0.7c1.7-0.2,2.4-1.7,2.7-3.2c0.2-1.2-1.6-1.7-1.8-0.5
				c-0.1,0.5-0.3,1.8-0.9,1.9c0.3,0.2,0.6,0.5,0.9,0.7c-0.2-0.8,0-1.6,0.6-2.2C83.7,94.4,82.4,93.1,81.6,94L81.6,94z"/>
		</g>
	</g>
	<g>
		<g>
			<path fill="#FFFFFF" d="M80.5,61.3c-0.8,1.6-1.1,3.2-1,5c0,0.6,0.6,1.1,1.2,0.9c1.9-0.7,3-2.6,2.5-4.6c-0.3-1.2-2-0.7-1.8,0.5
				c0.2,1-0.3,2-1.3,2.3c0.4,0.3,0.8,0.6,1.2,0.9c-0.1-1.4,0.1-2.8,0.8-4.1C82.6,61.1,81.1,60.2,80.5,61.3L80.5,61.3z"/>
		</g>
	</g>
	<g>
		<g>
			<path fill="#FFFFFF" d="M77.3,76.4c-1.3,1.1-1.6,3.1-0.7,4.5c0.3,0.5,1,0.6,1.4,0.2c0.8-0.9,1.2-1.9,1.4-3.1
				c0.1-0.5-0.5-0.9-0.9-0.9c-0.5,0-0.9,0.4-0.9,0.9c-0.1,0.7-0.4,1.3-0.8,1.8c0.5,0.1,1,0.1,1.4,0.2c-0.5-0.8-0.3-1.7,0.4-2.3
				c0.4-0.3,0.3-1,0-1.3C78.2,76,77.7,76.1,77.3,76.4L77.3,76.4z"/>
		</g>
	</g>
	<g>
		<g>
			<path fill="#FFFFFF" d="M73.8,91.5c0.4,1.4,0.8,2.7,1.2,4.1c0.2,0.7,1.3,1,1.7,0.2c0.7-1.6,0.5-3.3-0.6-4.6
				c-0.8-0.9-2.1,0.4-1.3,1.3c0.6,0.6,0.7,1.6,0.4,2.3c0.6,0.1,1.1,0.1,1.7,0.2c-0.4-1.4-0.8-2.7-1.2-4.1
				C75.2,89.9,73.4,90.4,73.8,91.5L73.8,91.5z"/>
		</g>
	</g>
	<g>
		<g>
			<path fill="#FFFFFF" d="M988.9,415.7c8.6-11.1,21.7-4.6,28,4.9c6.2,9.3,7.8,21.3,6.5,32.1c-0.3,2.4,3.4,2.3,3.7,0
				c1.7-14.1-1.8-29.7-11.9-40.1c-8.5-8.8-21.9-8.6-29.5,1.2C984.3,415.7,987.5,417.5,988.9,415.7L988.9,415.7z"/>
		</g>
	</g>
	<g>
		<g>
			<path fill="#FFFFFF" d="M1022.7,453.3c8.3,9-3.1,12.6-10.3,13.9c-7.3,1.3-15,0.2-21.9-2.3c-6.7-2.5-12.3-7.3-15.9-13.4
				c-1.9-3.2-2.8-6.9-3-10.6c-0.2-2.7-0.2-8.4,2.5-9.9c2.1-1.2,0.2-4.4-1.9-3.2c-6.8,3.9-4.7,17-2.1,22.8c4,9.1,11.6,15,20.8,18.4
				c9.4,3.5,21.6,3.5,30.9-0.5c8.6-3.7,9.8-11,3.5-17.8C1023.6,449,1021,451.6,1022.7,453.3L1022.7,453.3z"/>
		</g>
	</g>
	<g>
		<g>
			<path fill="#FFFFFF" d="M976.5,418.5c-4.7,2.4-7.8,6.6-8.7,11.8c-0.3,1.5,1.2,2.9,2.7,2.1c1.2-0.7,7.6-5.3,8.8-4.7
				c2.6,1.3,5.1,1.8,8,1.7c1.3-0.1,2.4-1.5,1.6-2.8c-1.1-1.7-2.3-3.4-3.4-5.1c-0.2,0.8-0.4,1.7-0.7,2.5c2.5-1.6,5.1-2.9,7.9-3.9
				c0.8-0.3,1.3-0.9,1.4-1.8c0.3-3-3.2-4.1-5.7-4.3c-4.3-0.3-8,1-11.3,3.8c-1.8,1.6,0.8,4.1,2.6,2.6c1.6-1.3,3.1-2.1,5.1-2.6
				c0.4-0.1,5.6-0.4,5.5,0.4c0.5-0.6,0.9-1.2,1.4-1.8c-3.1,1.1-6,2.5-8.8,4.3c-0.8,0.5-1.2,1.7-0.7,2.5c1.1,1.7,2.3,3.4,3.4,5.1
				c0.5-0.9,1.1-1.9,1.6-2.8c-2.5,0.1-4.5-0.4-6.8-1.5c-0.5-0.3-1.6-0.5-2.1-0.3c-3.4,1.4-6.6,3.5-9.7,5.3c0.9,0.7,1.8,1.4,2.7,2.1
				c0.7-4.4,3-7.6,7-9.6C980.5,420.6,978.7,417.4,976.5,418.5L976.5,418.5z"/>
		</g>
	</g>
	<g>
		<g>
			<path fill="#FFFFFF" d="M984.9,415.8c-0.4-4.9-1.9-9.5-4.7-13.6c-0.4-0.5-0.9-1-1.6-0.9c-2.1,0.2-6,1.4-5.1,4.4
				c0.6,1.8,1.9,3.4,2.8,5.1c1.2,2.2,2,4.5,2.7,6.9c0.7,2.3,4.2,1.3,3.6-1c-0.6-2.1-1.3-4-2.2-6c-0.5-1.2-1.2-2.4-1.8-3.5
				c-0.6-1-1.8-2.1,0.1-2.3c-0.5-0.3-1.1-0.6-1.6-0.9c2.5,3.5,3.9,7.4,4.2,11.7C981.3,418.1,985,418.2,984.9,415.8L984.9,415.8z"/>
		</g>
	</g>
	<g>
		<g>
			<path fill="#FFFFFF" d="M973.3,438.9c0,2,0.4,3.8,1.3,5.5c0.6,1.3,2.2,3.6,3.8,3.3c4.5-0.7-2.4-7.8-3.2-8.9
				c-0.7-0.9-2,0.4-1.3,1.3c0.8,1,1.5,2,2.3,3c0.4,0.5,0.8,1,1.2,1.5c0.3,0.4,1,1.7,0.1,0.7c-1.6-1.7-2.4-4.1-2.3-6.4
				C975.1,437.7,973.3,437.7,973.3,438.9L973.3,438.9z"/>
		</g>
	</g>
	<g>
		<g>
			<path fill="#FFFFFF" d="M985.1,435c0.2,2.1,0.9,4.2,2.3,5.9c1,1.1,3,3.1,4.1,0.8c1-2.1-0.3-3.9-1.6-5.5c-1.3-1.7-2.8-3-5-3.3
				c-1.2-0.1-1.2,1.7,0,1.8c2.2,0.3,4.4,3,5.1,5c-0.1,0.3-0.2,0.6-0.3,0.8c-0.2-0.2-0.5-0.4-0.7-0.7c-0.4-0.4-0.7-0.9-1-1.3
				c-0.7-1.1-1-2.3-1.1-3.6C986.9,433.8,985,433.8,985.1,435L985.1,435z"/>
		</g>
	</g>
	<g>
		<g>
			<path fill="#FFFFFF" d="M993.9,428.4c0.9,2.2,3.3,3.5,5.6,2.7c0.4-0.1,0.7-0.5,0.7-0.9c0-1,0.1-1.8-0.6-2.4
				c-0.7-0.5-1.4-0.9-2.2-1.2c-1.6-0.7-3.6-0.6-5.2-0.1c-1.1,0.3-0.7,2.1,0.5,1.8c1.2-0.4,2.3-0.4,3.5-0.1c0.6,0.1,1.1,0.4,1.6,0.7
				c0.7,0.4,0.6,0.7,0.6,1.4c0.2-0.3,0.5-0.6,0.7-0.9c-1.3,0.5-2.8-0.1-3.4-1.4C995.2,426.8,993.4,427.2,993.9,428.4L993.9,428.4z"
				/>
		</g>
	</g>
	<g>
		<g>
			<path fill="#FFFFFF" d="M1000.5,416.9c-0.9-0.2-1.7,0.3-1.9,1.3c-0.2,0.9,0.5,1.8,1.2,2.2c0.6,0.4,1.6,0.3,2.2,0.2
				c0.8-0.1,1.4-0.7,1.6-1.5c0.1-0.4,0-0.9-0.4-1c-0.8-0.4-1.6-0.8-2.5-1.2c-1.1-0.5-2,1.1-0.9,1.6c0.8,0.4,1.6,0.8,2.5,1.2
				c-0.1-0.3-0.3-0.7-0.4-1c-0.1,0.3,0.1,0.1,0,0.1c-0.2,0.1-0.4,0.1-0.6,0.1c-0.1,0-0.2,0-0.3,0c-0.1,0-0.3-0.2-0.1,0
				c-0.1-0.1-0.2-0.2-0.3-0.3c-0.3-0.3,0,0.1-0.2,0.1c-0.2,0-0.3,0-0.5,0c0.1,0,0.1,0,0.2,0C1001.1,418.9,1001.6,417.1,1000.5,416.9
				L1000.5,416.9z"/>
		</g>
	</g>
	<g>
		<g>
			<path fill="#FFFFFF" d="M982.5,453.3c1.8,2.7,4.4,4.6,7.5,5.3c0.4,0.1,0.8-0.1,1-0.4c0.5-0.8,0.7-1.5,0.6-2.5
				c0-0.3-0.2-0.7-0.5-0.8c-2.3-1.1-4.5-2.1-6.8-3.2c-1.1-0.5-2,1.1-0.9,1.6c2.3,1.1,4.5,2.1,6.8,3.2c-0.2-0.3-0.3-0.5-0.5-0.8
				c0,0.6-0.1,1-0.4,1.5c0.3-0.1,0.7-0.3,1-0.4c-2.7-0.6-4.9-2.2-6.4-4.5C983.5,451.3,981.9,452.3,982.5,453.3L982.5,453.3z"/>
		</g>
	</g>
	<g>
		<g>
			<path fill="#FFFFFF" d="M993.4,447.8c1.4,2.4,3.4,4.4,5.8,5.6c0.4,0.2,1,0.1,1.3-0.3c0.8-1.7,0.3-3.4-0.9-4.8
				c-1.5-1.7-4.2-1.9-6.3-2c-1.2-0.1-1.2,1.8,0,1.8c1.4,0.1,2.8,0.2,4,0.8c1.1,0.5,2.1,2,1.5,3.3c0.4-0.1,0.8-0.2,1.3-0.3
				c-2.2-1.1-4-2.8-5.2-5C994.4,445.8,992.8,446.8,993.4,447.8L993.4,447.8z"/>
		</g>
	</g>
	<g>
		<g>
			<path fill="#FFFFFF" d="M999.2,441.2c0.7,2.1,2.6,3.5,4.8,3.6c0.3,0,0.7-0.2,0.8-0.5c0.6-1.2,1.3-3.1-0.1-3.9
				c-1.7-1-3.5-1.7-5.3-2.3c-1.1-0.4-1.6,1.4-0.5,1.8c1.8,0.6,3.6,1.4,5.2,2.3c-0.2-0.3-0.3-0.5-0.5-0.8c0,0.7-0.1,1.3-0.4,2
				c0.3-0.2,0.5-0.3,0.8-0.5c-1.4-0.1-2.6-0.9-3.1-2.2C1000.6,439.5,998.9,440,999.2,441.2L999.2,441.2z"/>
		</g>
	</g>
	<g>
		<g>
			<path fill="#FFFFFF" d="M1006.3,432.5c0.6,1.2,1.8,1.9,3.2,2c0.5,0,0.9-0.4,0.9-0.9c0-0.5,0-1,0-1.5c0-0.4-0.3-0.8-0.7-0.9
				c-1-0.3-2-0.7-3-1c-1.1-0.4-1.6,1.4-0.5,1.8c1,0.3,2,0.7,3,1c-0.2-0.3-0.5-0.6-0.7-0.9c0,0.5,0,1,0,1.5c0.3-0.3,0.6-0.6,0.9-0.9
				c-0.7,0-1.3-0.5-1.6-1.1C1007.4,430.5,1005.8,431.4,1006.3,432.5L1006.3,432.5z"/>
		</g>
	</g>
	<g>
		<g>
			<path fill="#FFFFFF" d="M1009.8,423.5C1009.8,423.6,1009.8,423.6,1009.8,423.5c0.1-0.1,0.3-0.3,0.4-0.5c0,0,0,0,0,0
				c0.2,0,0.3-0.1,0.5-0.1c0,0,0,0-0.1,0c0.2,0,0.3,0.1,0.5,0.1c0.2,0.2,0.2,0.3,0.1,0.1c0,0.2,0.1,0.3,0.1,0.5c0,0,0,0.1,0,0.1
				c-0.1,0.1-0.2,0.3-0.2,0.4c0,0,0,0,0.1-0.1c-0.1,0.1-0.3,0.2-0.4,0.2c-0.1,0-0.2,0-0.3,0c0.1,0.1,0.2,0.2,0.2,0.2
				c0.2,0.2,0.3,0.4,0.5,0.6c0.3,0.3,0.6,0.6,0.9,1c0.4,0.4,1.2,0.3,1.4-0.2c0.7-1.4-0.1-3.3-1.7-3.6c-1.2-0.2-1.7,1.5-0.5,1.8
				c0.4,0.1,0.8,0.5,0.6,0.9c0.5-0.1,1-0.1,1.4-0.2c-0.5-0.6-1-1.1-1.5-1.7c-0.5-0.6-1.4-0.9-2.1-0.3c-0.5,0.5-0.4,1.2,0.1,1.7
				c0.6,0.6,1.5,0.3,1.7-0.5c0.2-0.5-0.2-1-0.6-1.1C1010.4,422.7,1010,423.1,1009.8,423.5L1009.8,423.5z"/>
		</g>
	</g>
	<g>
		<g>
			<path fill="#FFFFFF" d="M1005.9,459.7c-1.2-0.8-2.6-1.5-4.1-1.1c-0.9,0.3-1.8,1.4-1.8,2.4c0,1.1,0.8,2.1,2,2.1
				c1.8,0,3.6-0.6,5.3-0.9c0.3-0.1,0.6-0.4,0.6-0.6c0.2-0.9,0-1.6-0.7-2.2c-0.9-0.7-2.2,0.6-1.3,1.3c0.1,0.1,0.2,0.3,0.2,0.4
				c0.2-0.2,0.4-0.4,0.6-0.6c-1.5,0.3-3,0.7-4.5,0.8c-1,0.1-0.2-0.9,0.3-1c0.8-0.1,1.7,0.6,2.4,1
				C1006,462,1006.9,460.4,1005.9,459.7L1005.9,459.7z"/>
		</g>
	</g>
	<g>
		<g>
			<path fill="#FFFFFF" d="M1009.8,450.8c-0.6-0.2-1.1-0.3-1.7-0.5c-0.5-0.2-1.2,0.3-1.2,0.9c0.3,3,3.3,4.2,5.9,4.9
				c0.7,0.2,1.3-0.5,1.1-1.1c-0.4-2.3-2.4-4.2-4.7-4.5c-1.2-0.2-1.7,1.6-0.5,1.8c1.8,0.3,3.1,1.5,3.4,3.2c0.4-0.4,0.8-0.8,1.1-1.1
				c-1.6-0.4-4.3-1.1-4.5-3.1c-0.4,0.3-0.8,0.6-1.2,0.9c0.6,0.2,1.1,0.3,1.7,0.5C1010.5,452.9,1010.9,451.1,1009.8,450.8
				L1009.8,450.8z"/>
		</g>
	</g>
	<g>
		<g>
			<path fill="#FFFFFF" d="M1015.1,444c-0.9-1.2-2.7-0.5-2.5,1.1c0.3,1.7,1.7,3.3,2.8,4.5c0.5,0.5,1.3,0.2,1.5-0.4
				c0.7-2.2-0.2-4.6-2.2-5.7c-1-0.6-2,1-0.9,1.6c1.3,0.7,1.9,2.2,1.4,3.6c0.5-0.1,1-0.3,1.5-0.4c-0.5-0.5-1-1.1-1.4-1.7
				c-0.2-0.3-0.3-0.5-0.5-0.8c-0.1-0.2-0.2-0.4-0.3-0.5c-0.1-0.5-0.3-0.5-0.7,0c-0.2-0.1-0.4-0.3-0.6-0.4c0,0,0.1,0.1,0.1,0.1
				C1014.2,445.9,1015.8,445,1015.1,444L1015.1,444z"/>
		</g>
	</g>
	<g>
		<g>
			<path fill="#FFFFFF" d="M1017.6,439.2c-0.3,1,0,2.1,0.7,2.9c0.3,0.4,1,0.4,1.3,0c0.7-0.8,1-1.9,0.7-2.9c-0.4-1.1-2.2-0.6-1.8,0.5
				c0.1,0.4,0.1,0.8-0.2,1.1c0.4,0,0.9,0,1.3,0c-0.3-0.3-0.3-0.7-0.2-1.1C1019.7,438.6,1017.9,438.1,1017.6,439.2L1017.6,439.2z"/>
		</g>
	</g>
	<g>
		<g>
			<path fill="#FFFFFF" d="M1018.9,459.2c-2.3-0.3-4.6,0.9-5.8,2.9c-0.3,0.6,0.1,1.4,0.8,1.4c2.3-0.1,4.4-0.7,6.4-1.7
				c1.1-0.5,0.1-2.1-0.9-1.6c-1.7,0.9-3.6,1.3-5.5,1.5c0.3,0.5,0.5,0.9,0.8,1.4c0.9-1.5,2.5-2.2,4.2-2
				C1020,461.2,1020,459.4,1018.9,459.2L1018.9,459.2z"/>
		</g>
	</g>
	<g>
		<g>
			<path fill="#FFFFFF" d="M542.5,85.3c-1.6-2.4-3.1-4.8-4.7-7.2c-3.4-5.3,0.4-9.1,3.2-13.3c3.7-5.7,7.4-11.4,11.2-17
				c7.7-11.1,19.6-22.6,34.3-19.4c3,0.7,5.8,2.5,7.7,5c3.1,4.1,0.5,9.4-1.4,13.3c-3,6.2-6.2,12.2-9.5,18.2c-3.3,6-6.7,12-10.2,17.9
				c-1,1.6-1.9,3.3-3,4.8c-1.1,1.5-4.4,1.1-6,1.1c-3.5,0-7,0-10.5-0.1c-3,0-3,4.6,0,4.6c6.2,0,16.1,2.3,20.5-3.3
				c5.6-7.2,9.7-16.2,14.1-24.2c6.2-11.4,21.4-33.3,2.2-40.7c-15.3-5.9-30.3,4.8-39.2,16.6c-5.9,7.8-11,16.2-16.4,24.4
				c-1.6,2.5-5,6.3-3.6,9.7c1.8,4.3,4.8,8.1,7.3,12.1C540.2,90.1,544.2,87.8,542.5,85.3L542.5,85.3z"/>
		</g>
	</g>
	<g>
		<g>
			<path fill="#FFFFFF" d="M556.3,81.1c-5.1-0.7-11.5-3.2-15.1,1.6c-4.1,5.5-11.9,12.4-11.2,19.9c0.1,1.1,0.6,1.8,1.7,2.2
				c13.4,5.2,18.7-11.8,26-18.9c2.1-2.1-1.1-5.3-3.2-3.2c-6,5.7-11,21.7-21.5,17.7c0.6,0.7,1.1,1.5,1.7,2.2
				c-0.4-4.5,3.6-8.3,6.2-11.7c1.8-2.4,4-6.7,7.7-6.2c2.2,0.3,4.4,0.6,6.6,0.9C558,85.9,559.2,81.5,556.3,81.1L556.3,81.1z"/>
		</g>
	</g>
	<g>
		<g>
			<path fill="#FFFFFF" d="M541.8,77.8c8.2-0.7,16.3-0.8,24.5-0.1c3,0.3,2.9-4.3,0-4.6c-8.2-0.7-16.3-0.7-24.5,0.1
				C538.9,73.5,538.8,78.1,541.8,77.8L541.8,77.8z"/>
		</g>
	</g>
	<g>
		<g>
			<path fill="#FFFFFF" d="M564.8,81.8c0,0.5,0,1.1,0,1.6c0,1.3,1,2.3,2.3,2.3c1.3,0,2.3-1,2.3-2.3c0-0.5,0-1.1,0-1.6
				c0-1.3-1-2.3-2.3-2.3C565.9,79.5,564.8,80.6,564.8,81.8L564.8,81.8z"/>
		</g>
	</g>
	<g>
		<g>
			<path fill="#FFFFFF" d="M566.4,67.9c0,0.1-0.1,0.2-0.1,0.3c-0.2,0.7,0.1,1.4,0.7,1.7c5.2,3,10.4-8.9,12.1-11.8
				c2.4-4.1,4.6-8.3,6.8-12.5c1.9-3.8,4.2-7.6,3.9-12c-0.2-2-3.2-2-3.1,0c0.5,5.9-4.8,13.2-7.6,18.3c-0.9,1.7-8.7,16.4-10.6,15.4
				c0.2,0.6,0.5,1.2,0.7,1.7c0-0.1,0.1-0.2,0.1-0.3C569.9,66.9,567,66,566.4,67.9L566.4,67.9z"/>
		</g>
	</g>
	<g>
		<g>
			<path fill="#FFFFFF" d="M790.3,428.3c1.4-9-1.8-17.7-8.9-23.4c-8-6.4-19.7-5.9-28.7-2.3c-18.2,7.1-25.7,30.3-12.5,45.5
				c1.9,2.2,5.2-1,3.2-3.2c-11.1-12.7-4.2-30.5,9.6-37.5c7-3.5,16.1-3.9,23.2-0.4c7.2,3.6,10.9,12.4,9.7,20
				C785.4,430,789.8,431.2,790.3,428.3L790.3,428.3z"/>
		</g>
	</g>
	<g>
		<g>
			<path fill="#FFFFFF" d="M790.1,431.5c0.3-1.7,0.9-3,2-4.4c1-1.2,4.9-3.6,3.4-0.2c-0.8,1.9-2.2,3.7-3.5,5.3
				c-1,1.2-0.9,2.8,0.5,3.6c2.4,1.6,4.1,3.6,3.5,6.7c-0.6,3.4-4.4,3.3-6.1,1.3c-0.9-1.1-3-0.8-3.6,0.5c-1.7,3.7-4.8,8.9-9.5,5.6
				c-2.4-1.7-4.7,2.3-2.3,4c6.9,4.9,12.8-0.9,15.8-7.2c-1.2,0.2-2.4,0.3-3.6,0.5c3.2,3.8,9.5,3.9,12.4-0.4
				c3.7-5.5,0.9-11.5-4.2-14.8c0.2,1.2,0.3,2.4,0.5,3.6c2.1-2.5,8.2-10,4.3-13.3c-5.8-5-12.8,2.6-13.9,8.3
				C785.2,433.1,789.6,434.4,790.1,431.5L790.1,431.5z"/>
		</g>
	</g>
	<g>
		<g>
			<path fill="#FFFFFF" d="M744.6,444.7c-5.1-2.9-12.9-1-13.3,5.7c-0.3,5.6,6.5,9.1,10.7,5.2c2.2-2-1.1-5.3-3.2-3.2
				c-0.6,0.6-1.4,0.4-2.1,0.1c-0.9-0.5-0.9-1.5-0.7-2.4c0.7-2.8,4.3-2.5,6.2-1.4C744.9,450.1,747.2,446.2,744.6,444.7L744.6,444.7z"
				/>
		</g>
	</g>
	<g>
		<g>
			<path fill="#FFFFFF" d="M737.2,454.5c-0.7,6,1.8,11.3,7.7,13.1c6.2,1.9,11.9-3.4,14.8-8.1c-1.4-0.2-2.8-0.4-4.2-0.5
				c2.8,11.5,16.4,3.3,19.9-3.2c1.4-2.6-2.6-4.9-4-2.3c-1.2,2.3-9.7,11.5-11.5,4.3c-0.5-2-3.2-2.2-4.2-0.5c-2.1,3.4-4.6,5.9-8.8,6.1
				c-5,0.3-5.6-5.3-5.2-8.8C742.1,451.6,737.5,451.6,737.2,454.5L737.2,454.5z"/>
		</g>
	</g>
	<g>
		<g>
			<path fill="#FFFFFF" d="M749.7,451.3c7.7,4.8,16.1,1.4,22.9-3.3c2.4-1.7,0.1-5.7-2.3-4c-5.4,3.8-12,7.3-18.3,3.3
				C749.5,445.7,747.2,449.7,749.7,451.3L749.7,451.3z"/>
		</g>
	</g>
	<g>
		<g>
			<path fill="#FFFFFF" d="M750.1,465.8c4.9,5,10.1,9.6,15.7,13.8c3.1,2.4,6.5,4.6,9.8,6.7c2.3,1.4,4.9,3.3,7.7,3.3
				c6.4,0,7.4-7.5,8-12.3c1.2-9.2,2.4-18.3,3.5-27.5c0.4-2.9-4.2-2.9-4.6,0c-0.8,5.9-1.5,11.8-2.3,17.7c-0.4,3.3-0.8,6.6-1.3,9.8
				c-0.1,1.6-0.4,3.2-0.8,4.8c-1.1,5-4.5,2.2-6.5,1c-9.6-5.6-18.3-12.7-26-20.7C751.3,460.4,748.1,463.7,750.1,465.8L750.1,465.8z"
				/>
		</g>
	</g>
	<g>
		<g>
			<path fill="#FFFFFF" d="M775.9,454c-3.5,7-5.6,14.4-9.8,21.1c-1.1,1.7,1.6,3.2,2.6,1.5c4.3-6.8,6.3-14.1,9.8-21.1
				C779.4,453.8,776.8,452.3,775.9,454L775.9,454z"/>
		</g>
	</g>
	<g>
		<g>
			<path fill="#FFFFFF" d="M787.1,461.8c-3,7.3-6.8,14.2-11.4,20.6c-1.1,1.6,1.5,3.1,2.6,1.5c4.7-6.7,8.6-13.8,11.7-21.3
				C790.8,460.7,787.8,460,787.1,461.8L787.1,461.8z"/>
		</g>
	</g>
	<g>
		<g>
			<path fill="#FFFFFF" d="M763.9,463.3c7,4.3,14.3,8.2,21.7,11.7c1.8,0.8,3.3-1.8,1.5-2.6c-7.5-3.5-14.7-7.4-21.7-11.7
				C763.7,459.6,762.2,462.2,763.9,463.3L763.9,463.3z"/>
		</g>
	</g>
	<g>
		<g>
			<path fill="#FFFFFF" d="M775.4,456.1c4.1,2.6,8.4,4.7,13,6.2c1.9,0.6,2.7-2.3,0.8-3c-4.4-1.4-8.4-3.4-12.3-5.9
				C775.3,452.4,773.8,455.1,775.4,456.1L775.4,456.1z"/>
		</g>
	</g>
	<g>
		<g>
			<path fill="#FFFFFF" d="M797.6,65.2c6.2-11.4,12.4-22.8,18.6-34.1c0.8-1.6-0.2-3.4-2-3.5c-11.6-0.4-23.3-0.3-34.8,0.8
				c-3.4,0.3-5.5,2.2-6.8,5.3c-2.2,5.2-3.5,11-5.1,16.4c-1.6,5.5-3.2,11-4.7,16.6c-0.9,3.1-1.7,6.2-2.5,9.3
				c-0.4,1.3-1.3,3.9-0.7,5.3c1.1,2.8,3,3.6,5.9,3.6c6.1,0,12.3-0.6,18.3-0.9c2.9-0.1,3-4.7,0-4.6c-3.7,0.2-7.3,0.4-11,0.5
				c-1.8,0.1-3.7,0.2-5.5,0.3c-4,0.2-2.9-2-2.1-4.9c2.1-8,4.4-16,6.7-24c1.1-3.7,2.2-7.3,3.3-11c0.6-1.8,1.1-3.8,1.8-5.5
				c1.1-2.6,7.4-2.2,9.7-2.3c9.1-0.5,18.3-0.5,27.4-0.3c-0.7-1.2-1.3-2.3-2-3.5c-6.2,11.4-12.4,22.8-18.6,34.1
				C792.3,65.5,796.2,67.8,797.6,65.2L797.6,65.2z"/>
		</g>
	</g>
	<g>
		<g>
			<path fill="#FFFFFF" d="M781.1,82.2c-2.5,6.1-5.1,12.2-7.6,18.4c-1.4,3.4-2.2,6.2,1.1,8.6c2.8,2,7.9-1.3,10.1-2.8
				c4.7-3.3,8.5-8.2,12.4-12.3c4.3-4.6,8.6-9.2,12.7-13.9c3.3-3.7,7.4-7.5,9.3-12.2c3.5-8.8-20.4-5.5-23.4-5.4c-3,0.1-3,4.7,0,4.6
				c3.8-0.1,7.6-0.2,11.3-0.2c1.9,0,3.8-0.1,5.7-0.1c2.5-0.1-2.4,5.8-2.5,5.9c-4.8,5.8-10,11.3-15.1,16.8c-4.7,5-9.3,11-15.3,14.6
				c-5.4,3.2-0.4-5.9,0.3-7.7c1.8-4.3,3.6-8.6,5.3-12.9C786.6,80.7,782.2,79.5,781.1,82.2L781.1,82.2z"/>
		</g>
	</g>
	<g>
		<g>
			<path fill="#FFFFFF" d="M797.6,39.7c-2.9,5.3-5.5,10.8-7.7,16.5c-0.7,1.8,2.2,2.6,3,0.8c2.1-5.4,4.6-10.7,7.4-15.8
				C801.2,39.5,798.5,37.9,797.6,39.7L797.6,39.7z"/>
		</g>
	</g>
	<g>
		<g>
			<path fill="#FFFFFF" d="M801.8,73.4c-5.2,5.4-10,11.1-14.6,16.9c-1.2,1.5,1,3.7,2.2,2.2c4.6-5.9,9.5-11.5,14.6-16.9
				C805.3,74.1,803.1,71.9,801.8,73.4L801.8,73.4z"/>
		</g>
	</g>
	<g>
		<g>
			<path fill="#FFFFFF" d="M390.2,254c0,0.6,0.1,1.1,0.4,1.7c0.3,0.5,1,1,1.6,0.9c0.1,0,0.2,0,0.2,0c0.9-0.1,2-0.8,1.8-1.8
				c-0.7-5.2-6.6-12.8-12.4-8.5c-5.8,4.3-2,13.2,2.9,16.3c2,1.3,3.9-1.9,1.9-3.2c-2.9-1.8-4.5-5.2-3.6-8.5c0.7-2.7,3.2-2.2,4.9-0.8
				c1.5,1.1,2.4,2.9,2.6,4.8c0.6-0.6,1.2-1.2,1.8-1.8c-0.1,0-0.2,0-0.2,0c0.5,0.3,1.1,0.6,1.6,0.9c0,0.1,0.1,0.1,0.1,0.2
				C393.9,251.6,390.2,251.6,390.2,254L390.2,254z"/>
		</g>
	</g>
	<g>
		<g>
			<path fill="#FFFFFF" d="M383,262.5c-1.5,4.7-4.7,18.4,2.5,20.7c8.8,2.8,19.8-4.7,27.5-8.1c2.2-1,0.3-4.2-1.9-3.2
				c-5.8,2.6-11.5,5.5-17.5,7.5c-11.2,3.6-9.1-9.5-7.1-15.8C387.3,261.2,383.7,260.2,383,262.5L383,262.5z"/>
		</g>
	</g>
	<g>
		<g>
			<path fill="#FFFFFF" d="M412.3,275c13.1-3.9,25.5-11.3,33.3-22.7c7.1-10.4,7-24.2-1.6-33.5c-8.4-9.1-21.6-8.7-31.6-2.8
				c-12.6,7.4-17.9,22.2-22.6,35.2c-0.8,2.3,2.8,3.2,3.6,1c3.8-10.7,7.8-21.6,16.3-29.6c8.6-8.1,21.3-10.1,30.7-2.2
				c9.7,8.2,7.6,21.9,1.2,31.3c-6.8,9.9-18.9,16.3-30.1,19.6C409.1,272.1,410,275.7,412.3,275L412.3,275z"/>
		</g>
	</g>
	<g>
		<g>
			<path fill="#FFFFFF" d="M410.1,268.2c5.5,0.6,13-4.7,9.5-10.7c-1.3-2.2-4.3-3.4-6.8-3c-3.2,0.5-5.5,2.7-7.1,5.4
				c-1.2,2.1,2,3.9,3.2,1.9c1.5-2.6,4.7-5.2,7.4-2.5c1.4,1.4-0.3,3.4-1.5,4.2c-1.4,1-3,1.2-4.7,1C407.8,264.3,407.8,268,410.1,268.2
				L410.1,268.2z"/>
		</g>
	</g>
	<g>
		<g>
			<path fill="#FFFFFF" d="M399.8,274c2.4,0,2.4-3.7,0-3.7S397.4,274,399.8,274L399.8,274z"/>
		</g>
	</g>
	<g>
		<g>
			<path fill="#FFFFFF" d="M384.1,271.1c0.3,0.2,0.7,0.3,1,0.5c0.9,0.4,2,0.3,2.5-0.7c0.5-0.8,0.2-2.1-0.7-2.5
				c-0.3-0.2-0.7-0.3-1-0.5c-0.9-0.4-2-0.3-2.5,0.7C383,269.4,383.2,270.7,384.1,271.1L384.1,271.1z"/>
		</g>
	</g>
	<g>
		<g>
			<path fill="#FFFFFF" d="M449.9,227.8c-1.1-10.4,14.8-16.2,21.8-21.2c6.1-4.4,10.6-10.5,11.4-18.1c0.2-2.4-3.5-2.3-3.7,0
				c-1.2,11.3-12.4,16.8-20.9,22.1c-6,3.8-13.2,9.1-12.3,17.1C446.5,230.1,450.2,230.2,449.9,227.8L449.9,227.8z"/>
		</g>
	</g>
	<g>
		<g>
			<path fill="#FFFFFF" d="M909.1,206.6c-5.1-5.4-14.8-7.5-22-7.5c-8.2,0-16.1,3.4-22.2,8.7c-1.9,1.7,0.9,4.4,2.8,2.8
				c5.5-4.8,12.1-7.2,19.4-7.5c6-0.3,14.9,1.8,19.2,6.3C908,211.2,910.8,208.5,909.1,206.6L909.1,206.6z"/>
		</g>
	</g>
	<g>
		<g>
			<path fill="#FFFFFF" d="M865.8,208.4c-4.9-4-10.4-6.1-16.7-7c-4.7-0.7-14.4-1.9-17.6,2.5c-1.5,2.1,1.9,4,3.4,2
				c0.7-1,4.9-0.8,6-0.9c3-0.2,6.1,0,9.1,0.4c4.8,0.7,9.3,2.7,13,5.7C864.9,212.7,867.7,210,865.8,208.4L865.8,208.4z"/>
		</g>
	</g>
	<g>
		<g>
			<path fill="#FFFFFF" d="M851.1,227.6c-7,11.9-3.1,25.4,3.8,36.4c1.3,2.1,4.7,0.2,3.4-2c-6.1-9.8-10.1-21.7-3.8-32.4
				C855.7,227.4,852.4,225.5,851.1,227.6L851.1,227.6z"/>
		</g>
	</g>
	<g>
		<g>
			<path fill="#FFFFFF" d="M887.1,263.4c-7.5-5.1-17.3-7.6-26.2-4.6c-6.6,2.3-11.2,11.2-5.9,17c6,6.6,18.1,7,26.1,4.5
				c7.2-2.2,10.8-10.4,5.9-16.4c-1.6-2-4.4,0.8-2.8,2.8c6.5,8-7.7,10.9-12.5,10.8c-5.2-0.1-11.3-0.4-14.5-5.2
				c-4.8-7.1,6.5-10.8,11.2-10.9c5.9-0.2,11.7,2.1,16.5,5.3C887.2,268.2,889.2,264.8,887.1,263.4L887.1,263.4z"/>
		</g>
	</g>
	<g>
		<g>
			<path fill="#FFFFFF" d="M864.1,280.7c0.5,7.9,2.2,15.4,5.2,22.6c1.2,2.8,2.5,6.4,4.6,8.6c2,2.2,4.4,1.3,7,0.8
				c2.5-0.5,1.4-4.3-1-3.8c-5.2,1-7.3-7.8-8.7-11.6c-1.9-5.4-2.8-11-3.2-16.7C867.9,278.2,864,278.2,864.1,280.7L864.1,280.7z"/>
		</g>
	</g>
	<g>
		<g>
			<path fill="#FFFFFF" d="M880.7,311.4c2.5,0,2.5-3.9,0-3.9C878.2,307.4,878.2,311.4,880.7,311.4L880.7,311.4z"/>
		</g>
	</g>
	<g>
		<g>
			<path fill="#FFFFFF" d="M882.4,310.4c0.8-1.6,1.7-3.3,2.5-4.9c1.1-2.3-2.2-4.2-3.4-2c-0.8,1.6-1.7,3.3-2.5,4.9
				C877.8,310.6,881.2,312.6,882.4,310.4L882.4,310.4z"/>
		</g>
	</g>
	<g>
		<g>
			<path fill="#FFFFFF" d="M871.6,290.3c1.5,5,4.1,9.3,7.8,13c4.7,4.7,10.3,5.5,16,8.1c2.3,1,4.3-2.3,2-3.4
				c-4.2-1.9-8.7-2.7-12.6-5.4c-4.7-3.1-7.9-8.1-9.4-13.4C874.7,286.8,870.9,287.9,871.6,290.3L871.6,290.3z"/>
		</g>
	</g>
	<g>
		<g>
			<path fill="#FFFFFF" d="M899.6,296.1c0.1,0.1,0.2,0.2,0.3,0.3c0.8,0.8,2,0.8,2.8,0c0.8-0.8,0.8-2,0-2.8c-0.1-0.1-0.2-0.2-0.3-0.3
				c-0.8-0.8-2-0.8-2.8,0C898.8,294.1,898.8,295.4,899.6,296.1L899.6,296.1z"/>
		</g>
	</g>
	<g>
		<g>
			<path fill="#FFFFFF" d="M899.7,295.1c-0.5,6.5-2.4,12.7-5.6,18.4c-0.7,1.2,0,2.4,1.2,2.9c8.7,3.6,14.8-9.6,17.4-15.7
				c1-2.3-2.4-4.3-3.4-2c-1.8,4.3-6.8,16.4-13,13.9c0.4,1,0.8,1.9,1.2,2.9c3.5-6.3,5.6-13.1,6.1-20.4
				C903.8,292.6,899.8,292.6,899.7,295.1L899.7,295.1z"/>
		</g>
	</g>
	<g>
		<g>
			<path fill="#FFFFFF" d="M905.9,312.3c6.4,0.6,12.6-0.8,18.1-4.1c2.2-1.3,0.2-4.7-2-3.4c-5,2.9-10.4,4.1-16.1,3.5
				C903.4,308.2,903.4,312.1,905.9,312.3L905.9,312.3z"/>
		</g>
	</g>
	<g>
		<g>
			<path fill="#FFFFFF" d="M912.3,312.3c1.2,6.1,7.3,4.4,11.3,2.2c5.8-3.2,11.7-8.7,13.4-15.2c0.7-2.5-3.1-3.5-3.8-1
				c-1.3,4.9-5.3,8.4-9.3,11.3c-1.6,1.2-7.2,5.2-7.9,1.7C915.6,308.8,911.8,309.9,912.3,312.3L912.3,312.3z"/>
		</g>
	</g>
	<g>
		<g>
			<path fill="#FFFFFF" d="M833,208.2c7.6-2.7,9.5,5.8,10.5,11.3c0.8,4.3,2,8.4,5.4,11.4c1.9,1.7,4.7-1.1,2.8-2.8
				c-5.1-4.5-4.2-12.6-7-18.5c-2.3-4.9-7.7-6.9-12.7-5.2C829.6,205.2,830.6,209,833,208.2L833,208.2z"/>
		</g>
	</g>
	<g>
		<g>
			<path fill="#FFFFFF" d="M911.5,212c7.9-8.2,22.3-1.3,28.9-12.1c1.3-2.2-2.1-4.1-3.4-2c-3.6,6-11.4,5.4-17.5,6.2
				c-4.2,0.6-7.9,2.1-10.8,5.2C907,211,909.7,213.8,911.5,212L911.5,212z"/>
		</g>
	</g>
	<g>
		<g>
			<path fill="#FFFFFF" d="M937.6,200.4c0.3,6.3,0.2,12.5-1.6,18.6c-2,7-7.3,11.5-13.1,15.5c-2.1,1.4-0.1,4.9,2,3.4
				c5.7-4,11.1-8.3,13.8-14.9c2.9-7.2,3.3-14.9,2.9-22.6C941.4,197.8,937.4,197.8,937.6,200.4L937.6,200.4z"/>
		</g>
	</g>
	<g>
		<g>
			<path fill="#FFFFFF" d="M922.5,237.6c2.9,9.9,5.8,19.9,8.8,29.8c3.1,10.4,6.4,21.3,2.5,32c-0.9,2.4,2.9,3.4,3.8,1
				c3.5-9.5,1.7-19.3-0.9-28.8c-3.2-11.8-6.9-23.4-10.3-35.1C925.6,234.1,921.8,235.1,922.5,237.6L922.5,237.6z"/>
		</g>
	</g>
	<g>
		<g>
			<path fill="#FFFFFF" d="M858.4,268.9c-0.4,0.9-0.4,1.9,0.3,2.6c0.8,0.8,1.7,0.8,2.7,0.4c1-0.5,1.2-1.8,0.7-2.7
				c-0.6-1-1.7-1.2-2.7-0.7c0,0-0.1,0-0.1,0c0.3-0.1,0.7-0.2,1-0.3c0,0-0.1,0-0.1,0c0.3,0.1,0.7,0.2,1,0.3c0.2,0.2,0.3,0.3,0.5,0.5
				c0.1,0.3,0.2,0.7,0.3,1c0,0,0-0.1,0-0.1c-0.1,0.3-0.2,0.7-0.3,1c0,0,0-0.1,0-0.1c0.5-1,0.3-2.1-0.7-2.7
				C860.3,267.7,858.9,268,858.4,268.9L858.4,268.9z"/>
		</g>
	</g>
	<g>
		<g>
			<path fill="#FFFFFF" d="M880.2,270.8c0,0.1-0.1,0.2-0.1,0.3c-0.2,0.2-0.5,0.5-0.7,0.7c-0.5,0.2-1,0.2-1.5,0
				c-0.2-0.2-0.5-0.5-0.7-0.7c0-0.1-0.1-0.2-0.1-0.3c0.2,1,1.4,1.6,2.4,1.4c1.1-0.3,1.6-1.4,1.4-2.4c-0.5-2.2-3.9-2.2-4.4,0
				c-0.2,1,0.3,2.1,1.4,2.4C878.8,272.4,880,271.8,880.2,270.8L880.2,270.8z"/>
		</g>
	</g>
	<g>
		<g>
			<path fill="#FFFFFF" d="M906.2,250.3c0.7-1,0.8-2.5,0.2-3.6c-0.7-1.4-1.9-2-3.4-2.1c-2.6-0.3-4.9,2.3-5.3,4.7
				c-0.5,2.5,0.8,5.1,3.4,5.7c3.1,0.7,5.5-1.8,6.8-4.3c0.3-0.6,0.4-1.4,0-2c-0.9-1.4-2-2.8-3.6-3.5c-1.4-0.6-3.5-0.5-4.6,0.7
				c-2.4,2.7-2.1,7.6,2.2,7.8c1.6,0.1,3.1-1.1,3.8-2.4c0.9-1.6,0.4-3.5-0.9-4.7c-2.7-2.7-7.4,0.3-6.2,3.9c0.3,0.8,1,1.4,1.9,1.4
				c1.7,0,2.7-1.3,3.1-2.8c0.7-2.4-3.1-3.5-3.8-1c-0.1,0.3,0,0.3-0.2,0.4c0.3-0.2,0.6-0.3,0.9-0.5c0,0,0,0,0,0
				c0.6,0.5,1.3,1,1.9,1.4c-0.1-0.2-0.2,0-0.1-0.1c-0.4,0.3-0.3-0.1-0.1,0.2c0-0.1-0.2,0.1-0.3,0.2c0.1-0.1,0.2,0.4,0.2,0.1
				c0-0.4,0.1-1.3,0.6-1.2c0.9,0.2,1.4,1.2,1.9,1.9c0-0.7,0-1.3,0-2c-0.4,0.8-1,2-1.9,2.4c-0.4,0.2-1,0.2-1.1-0.4
				c-0.1-0.7,0.1-1.3,0.6-1.8c0.2-0.2,0.6-0.3,0.9-0.4c-0.2,0-0.1-0.3-0.2-0.2c-0.6,0.9-0.2,2.2,0.7,2.7
				C904.5,251.6,905.5,251.2,906.2,250.3L906.2,250.3z"/>
		</g>
	</g>
	<g>
		<g>
			<path fill="#FFFFFF" d="M857.1,252.6c0.2-0.7,0.5-1.6,0.3-2.3c-0.2-0.6-0.7-1.3-1.3-1.6c-1.2-0.7-2.9-0.7-3.9,0.4
				c-2.2,2.2-0.7,5.7,2.3,5.8c2.5,0.1,4.6-2.8,3.3-5.1c-1.2-2.1-4.5-2.8-6-0.7c-1.6,2-0.9,5.3,1.7,6.1c2.6,0.8,5.2-1.3,5.2-4
				c0-2.9-3.3-4.8-5.9-3.6c-2.5,1.2-3,4.4-1.3,6.4c1.1,1.3,3.1,1,4.4,0.3c1.3-0.7,2.3-2.1,2.4-3.6c0.1-1.5-0.7-2.9-2-3.6
				c-0.7-0.4-1.6-0.5-2.4-0.3c-0.8,0.2-1.4,0.8-2.1,1.2c-0.9,0.6-1.3,1.7-0.7,2.7c0.5,0.9,1.8,1.3,2.7,0.7c0.2-0.1,0.4-0.3,0.6-0.4
				c0.1-0.1,1-0.5,0.3-0.4c-0.1,0-0.2,0-0.2-0.2c0-0.1-0.1,0.2-0.3,0.3c-0.2,0.2-0.2,0.1-0.4,0.2c0.2,0,0.5,0.1,0.6,0.3
				c0,0,0.1,0.1,0.1,0.1c0,0.3,0.1-0.3,0-0.1c0.1-0.2,0.4-0.2,0.1-0.2c0.1,0,0.2,0.1,0.3,0.2c0,0,0-0.5,0,0.1c0-0.1,0-0.1,0-0.2
				c-0.2,0.2-0.2,0.2-0.1,0.1c0.2-0.1-0.3,0.1-0.1,0c0.1,0,0.2,0.1,0.2,0.1c-0.3-0.2-0.1-0.1,0,0c-0.2-0.5,0,0.2,0-0.3
				c0,0.2-0.1,0.2-0.2,0.3c-0.1,0.1-0.3,0.1-0.3,0.1c0.5-0.1-0.2-0.1,0.3,0c-0.3-0.1-0.3-0.3-0.3-0.6c0-0.2,0.1-0.2,0.3-0.3
				c-0.4,0.3,0.2,0-0.2,0.1c0.3-0.1,0.8,0.1,0.8,0.5c0,0.6-0.9,1-1.2,0.4c-0.1-0.5-0.1-1-0.2-1.5c-0.1,0.4-0.2,0.9-0.3,1.3
				c-0.2,1,0.3,2.1,1.4,2.4C855.7,254.3,856.9,253.7,857.1,252.6L857.1,252.6z"/>
		</g>
	</g>
	<g>
		<g>
			<path fill="#FFFFFF" d="M933.6,300.2c3.2,4,8.5,4.1,12,0.5c2.3-2.3,1.6-7.9-2.6-6.6c-3.8,1.2-5.2,5.6-2.8,8.8
				c3.5,4.8,10.1,1.1,13.6-1.4c1.3-1,0-3.3-1.3-2.3c-2.5,1.9-8.7,6.2-10.8,1.1c-1.1-2.7,5.3-3.6,0.7-0.3c-2.4,1.7-5.3,0.3-7-1.7
				C934.3,297.1,932.5,298.9,933.6,300.2L933.6,300.2z"/>
		</g>
	</g>
	<g>
		<g>
			<path fill="#FFFFFF" d="M902.1,250.8c1.9,0.5,3.9-0.6,4.3-2.6c0.5-2.3-1.8-4.1-3.9-3.6c0.3,0.8,0.7,1.6,1,2.4
				c0.6-0.3,1.2,0.5,1.2,1c0.1,1-0.6,2.1-1.1,2.9c-1,1.4,1.3,2.7,2.3,1.3c1.2-1.8,2.1-4,0.9-6c-0.9-1.6-3-2.3-4.6-1.4
				c-1.3,0.7-0.4,2.7,1,2.4c0.9-0.2,0.8,1.4-0.4,1.1C901.1,247.9,900.4,250.4,902.1,250.8L902.1,250.8z"/>
		</g>
	</g>
	<g>
		<g>
			<path fill="#FFFFFF" d="M887.4,180.9c3.5,0.5,5.5-2.7,6.2-5.7c1-4.2-3.3-6.7-6.8-6.5c-3.4,0.1-7.6,2.9-7.6,6.6
				c0,3.7,3.1,6.1,6.7,5.3c1.6-0.4,0.9-2.9-0.7-2.5c-2,0.5-3.6-1-3.3-3.1c0.3-1.9,2.1-2.9,3.7-3.5c2.1-0.7,5.3-0.1,5.5,2.6
				c0.1,1.3-1.3,4.5-3,4.3C886.4,178.2,885.7,180.7,887.4,180.9L887.4,180.9z"/>
		</g>
	</g>
	<g>
		<g>
			<path fill="#FFFFFF" d="M883.6,179.5c-3.9,4.4-5.4,10-4.1,15.7c0.4,1.7,2.9,1,2.5-0.7c-1-4.7,0.2-9.5,3.5-13.1
				C886.6,180.1,884.8,178.2,883.6,179.5L883.6,179.5z"/>
		</g>
	</g>
	<g>
		<g>
			<path fill="#FFFFFF" d="M891.8,194.8c1-5.8-0.2-11.6-3.7-16.4c-1-1.4-3.3,0-2.3,1.3c3.1,4.2,4.4,9.2,3.5,14.4
				C889,195.7,891.6,196.5,891.8,194.8L891.8,194.8z"/>
		</g>
	</g>
	<g>
		<g>
			<path fill="#FFFFFF" d="M891.5,194.5c2-3.7,4.8-6.8,8.3-9.3c1.4-1,0.1-3.2-1.3-2.3c-3.8,2.7-6.9,6.1-9.2,10.2
				C888.4,194.7,890.7,196,891.5,194.5L891.5,194.5z"/>
		</g>
	</g>
	<g>
		<g>
			<path fill="#FFFFFF" d="M900.4,186.7c0.2,3.5-0.4,7-1.8,10.2c-0.7,1.5,1.6,2.9,2.3,1.3c1.6-3.7,2.4-7.5,2.2-11.5
				C902.9,185.1,900.3,185,900.4,186.7L900.4,186.7z"/>
		</g>
	</g>
	<g>
		<g>
			<path fill="#FFFFFF" d="M899.6,198.8c3.1-2.1,6.4-3.5,10.1-4.3c1.7-0.3,1-2.9-0.7-2.5c-3.8,0.8-7.4,2.3-10.7,4.5
				C896.9,197.5,898.2,199.8,899.6,198.8L899.6,198.8z"/>
		</g>
	</g>
	<g>
		<g>
			<path fill="#FFFFFF" d="M909.9,194.8c-0.6,2.5-1.6,4.7-3.2,6.7c-1.1,1.3,0.8,3.2,1.9,1.9c1.9-2.3,3.2-4.9,3.9-7.9
				C912.8,193.8,910.3,193.1,909.9,194.8L909.9,194.8z"/>
		</g>
	</g>
	<g>
		<g>
			<path fill="#FFFFFF" d="M899.8,183.6c-0.8,1.1-0.3,2.9,1.2,3c1.3,0.1,2.7,0.1,3.9-0.5c2.5-1.2,3.1-4.3,1.3-6.4
				c-1.9-2.2-5.1-1.7-7,0.3c-2,2.2-1.4,6.1,1.9,6.3c1.7,0.1,1.7-2.5,0-2.6c-1.4-0.1,0.3-2.2,0.7-2.5c0.8-0.5,1.9-0.5,2.5,0.4
				c1.6,2.2-1.9,2.6-3.3,2.5c0.3,0.1,0.6,0.3,0.9,0.4c0.1,0.2,0.1,0.4,0.2,0.5C903.1,183.6,900.8,182.3,899.8,183.6L899.8,183.6z"/>
		</g>
	</g>
	<g>
		<g>
			<path fill="#FFFFFF" d="M910.5,194.1c-0.3-1.2-0.5-2.7,0.5-3.7c0.7-0.7,2-0.6,2.7,0c1.9,1.7-0.8,4.5-2.7,2.8
				c-1.3-1.1-3.1,0.7-1.9,1.9c1.9,1.6,4.5,1.6,6.4,0c1.7-1.5,1.7-4.4,0.4-6.1c-1.4-1.9-4.1-2.1-6.1-1c-2.4,1.4-2.4,4.5-1.9,6.8
				C908.4,196.4,910.9,195.7,910.5,194.1L910.5,194.1z"/>
		</g>
	</g>
	<g>
		<g>
			<path fill="#FFFFFF" d="M907.6,205.1c1.8,0.4,3.4,1.3,4.5,2.8c1,1.4,3.3,0,2.3-1.3c-1.5-2.1-3.6-3.5-6.1-4.1
				C906.7,202.2,906,204.8,907.6,205.1L907.6,205.1z"/>
		</g>
	</g>
	<g>
		<g>
			<path fill="#FFFFFF" d="M881,193.4c0.3-4.8-2.7-9.2-7.2-10.8c-1.6-0.6-2.3,1.9-0.7,2.5c3.4,1.3,5.5,4.7,5.3,8.3
				C878.3,195.1,880.9,195.1,881,193.4L881,193.4z"/>
		</g>
	</g>
	<g>
		<g>
			<path fill="#FFFFFF" d="M867.8,189.5c0.4,3.5,1.5,6.7,3.4,9.7c0.9,1.4,3.2,0.1,2.3-1.3c-1.6-2.6-2.7-5.4-3-8.4
				C870.3,187.9,867.6,187.9,867.8,189.5L867.8,189.5z"/>
		</g>
	</g>
	<g>
		<g>
			<path fill="#FFFFFF" d="M872.3,196.5c-3.3-2.6-7.2-4-11.4-4.2c-1.7-0.1-1.7,2.5,0,2.6c3.8,0.2,7.1,1.6,10.1,3.8
				C872.3,199.8,873.6,197.5,872.3,196.5L872.3,196.5z"/>
		</g>
	</g>
	<g>
		<g>
			<path fill="#FFFFFF" d="M858.5,197.9c0.8,3.2,3,6,6.1,7.3c1.5,0.7,2.9-1.6,1.3-2.3c-2.5-1.1-4.2-3.1-4.9-5.8
				C860.6,195.6,858.1,196.3,858.5,197.9L858.5,197.9z"/>
		</g>
	</g>
	<g>
		<g>
			<path fill="#FFFFFF" d="M869.2,188.9c2.4-0.1,4.3-2,4.2-4.5c-0.1-2.4-2.5-4.2-4.8-3.9c-2.4,0.2-4.1,2.6-3.9,4.9
				c0.2,2.4,2.5,4.1,4.8,4.1c1.7,0,1.7-2.6,0-2.6c-2.1,0-3.2-2.9-0.9-3.7c2.2-0.8,3.1,3.1,0.5,3.1
				C867.5,186.3,867.5,188.9,869.2,188.9L869.2,188.9z"/>
		</g>
	</g>
	<g>
		<g>
			<path fill="#FFFFFF" d="M859.6,196.2c0.4-1,0.8-2.4,0.2-3.4c-0.5-0.9-1.8-1.4-2.8-1.6c-2.1-0.5-4.1,0.6-4.9,2.6
				c-0.7,1.8,0.3,4,2.1,4.7c2.1,0.8,4.7-0.1,6.2-1.6c1.2-1.2-0.7-3.1-1.9-1.9c-0.8,0.8-3.9,2.1-4,0.1c0-0.8,0.5-1.3,1.2-1.4
				c0.4,0,0.9,0,1.3,0.2c0.5,0.2,0.5,0.4,0.3,0.9C856.6,196.4,858.9,197.7,859.6,196.2L859.6,196.2z"/>
		</g>
	</g>
	<g>
		<g>
			<path fill="#FFFFFF" d="M863,203.9c-0.3,0.9-0.7,1.9-1,2.8c-0.3,0.7,0.3,1.4,0.9,1.6c0.7,0.2,1.4-0.2,1.6-0.9
				c0.3-0.9,0.7-1.9,1-2.8c0.3-0.7-0.3-1.4-0.9-1.6C863.9,202.7,863.3,203.2,863,203.9L863,203.9z"/>
		</g>
	</g>
	<g>
		<g>
			<path fill="#FFFFFF" d="M886.4,196.1c0.7-2.9,1-5.8,0.7-8.7c-0.1-1.7-2.8-1.7-2.6,0c0.2,2.7,0,5.4-0.6,8
				C883.5,197.1,886,197.8,886.4,196.1L886.4,196.1z"/>
		</g>
	</g>
	<g>
		<g>
			<path fill="#FFFFFF" d="M895,198c1.1-1.6,2-3.2,2.7-5c0.3-0.7-0.3-1.4-0.9-1.6c-0.7-0.2-1.3,0.3-1.6,0.9c-0.6,1.6-1.5,3-2.4,4.4
				C891.7,198.1,894,199.4,895,198L895,198z"/>
		</g>
	</g>
	<g>
		<g>
			<path fill="#FFFFFF" d="M902,201.4c1.6,0.4,3.2-0.5,3.7-2.1c0.4-1.6-2.1-2.3-2.5-0.7c-0.1,0.4,0.1-0.1-0.1,0.2
				c0.1-0.1,0.1-0.1,0,0c0.1-0.1,0.1-0.1-0.1,0c-0.3,0.2,0.2,0-0.2,0.1c0.1,0,0.1,0,0,0c0.1,0,0.1,0,0,0
				C901.1,198.4,900.4,201,902,201.4L902,201.4z"/>
		</g>
	</g>
	<g>
		<g>
			<path fill="#FFFFFF" d="M878.1,197.9c-1-2.5-2-4.9-3-7.4c-0.6-1.5-3.2-0.9-2.5,0.7c1,2.5,2,4.9,3,7.4
				C876.2,200.2,878.8,199.5,878.1,197.9L878.1,197.9z"/>
		</g>
	</g>
	<g>
		<g>
			<path fill="#FFFFFF" d="M869.9,200.6c-1.2-0.3-2.1-0.9-2.9-1.8c-1.1-1.3-3,0.6-1.9,1.9c1.1,1.2,2.5,2.1,4.1,2.5
				C870.8,203.5,871.5,201,869.9,200.6L869.9,200.6z"/>
		</g>
	</g>
	<g>
		<g>
			<path fill="#FFFFFF" d="M822.3,270.5c3.4,1.9,6.8,3.8,10.1,5.7c1.2,0.7,2.3-0.6,1.8-1.8c-2.2-5.1-4.5-10.1-7.1-15.1
				c-0.8-1.5-3-0.2-2.3,1.3c2.6,4.9,5,9.9,7.1,15.1c0.6-0.6,1.2-1.2,1.8-1.8c-3.4-1.9-6.8-3.8-10.1-5.7
				C822.2,267.4,820.8,269.7,822.3,270.5L822.3,270.5z"/>
		</g>
	</g>
	<g>
		<g>
			<path fill="#FFFFFF" d="M810.6,267.5c-0.3,4.8-0.1,9.5,0.7,14.3c0.2,1.2,1.8,1.2,2.4,0.3c2.9-4.5,5.8-9,8.7-13.4
				c0.9-1.4-1.3-2.7-2.3-1.3c-2.9,4.5-5.8,8.9-8.7,13.4c0.8,0.1,1.6,0.2,2.4,0.3c-0.7-4.5-0.9-9-0.6-13.6
				C813.4,265.8,810.8,265.8,810.6,267.5L810.6,267.5z"/>
		</g>
	</g>
	<g>
		<g>
			<path fill="#FFFFFF" d="M810.9,250.7c-5.1,1.1-10.1,2.3-15.1,3.8c-1,0.3-1.4,1.9-0.3,2.4c5.3,2.6,10.4,5.6,15.2,9
				c1.4,1,2.7-1.3,1.3-2.3c-4.8-3.5-9.8-6.5-15.2-9c-0.1,0.8-0.2,1.6-0.3,2.4c5-1.5,10-2.8,15.1-3.8
				C813.2,252.9,812.5,250.4,810.9,250.7L810.9,250.7z"/>
		</g>
	</g>
	<g>
		<g>
			<path fill="#FFFFFF" d="M822.8,249.1c4-1.3,7.8-2.9,11.5-4.8c-0.6-0.6-1.2-1.2-1.8-1.8c-2.4,5.3-4.9,10.6-7.6,15.8
				c-0.8,1.5,1.5,2.8,2.3,1.3c2.6-5.2,5.2-10.5,7.6-15.8c0.5-1.2-0.6-2.4-1.8-1.8c-3.5,1.8-7.1,3.3-10.9,4.5
				C820.5,247.1,821.2,249.7,822.8,249.1L822.8,249.1z"/>
		</g>
	</g>
	<g>
		<g>
			<path fill="#FFFFFF" d="M823.8,246.9c-3.2-5.6-6.4-11.2-9.6-16.9c-0.7-1.1-2.4-0.6-2.4,0.7c-0.1,6.7-0.6,13.3-1.7,19.9
				c-0.3,1.7,2.3,2.4,2.5,0.7c1.1-6.8,1.8-13.7,1.8-20.6c-0.8,0.2-1.6,0.4-2.4,0.7c3.2,5.6,6.4,11.2,9.6,16.9
				C822.3,249.7,824.6,248.4,823.8,246.9L823.8,246.9z"/>
		</g>
	</g>
	<g>
		<g>
			<path fill="#FFFFFF" d="M818.1,272.1c4.5,20.2,9.3,40.3,14.3,60.4c0.4,1.6,2.9,0.9,2.5-0.7c-5-20.1-9.8-40.2-14.3-60.4
				C820.3,269.8,817.8,270.5,818.1,272.1L818.1,272.1z"/>
		</g>
	</g>
	<g>
		<g>
			<path fill="#FFFFFF" d="M822,270.5c4.5,20.2,9.3,40.3,14.3,60.4c0.4,1.6,2.9,0.9,2.5-0.7c-5-20.1-9.8-40.2-14.3-60.4
				C824.1,268.1,821.6,268.8,822,270.5L822,270.5z"/>
		</g>
	</g>
	<g>
		<g>
			<path fill="#FFFFFF" d="M837.4,331.9c1.7,0,1.7-2.6,0-2.6S835.7,331.9,837.4,331.9L837.4,331.9z"/>
		</g>
	</g>
	<g>
		<g>
			<path fill="#FFFFFF" d="M836.1,330.5c-0.2,0.6-1,0.7-1.6,0.6c-1.6-0.5-2.3,2-0.7,2.5c2,0.6,4.2-0.4,4.8-2.4
				C839.2,329.6,836.6,328.9,836.1,330.5L836.1,330.5z"/>
		</g>
	</g>
	<g>
		<g>
			<path fill="#FFFFFF" d="M810.4,265c0,1.6,0,3.3,0,4.9c0,1.7,2.6,1.7,2.6,0c0-1.6,0-3.3,0-4.9C813,263.3,810.4,263.3,810.4,265
				L810.4,265z"/>
		</g>
	</g>
	<g>
		<g>
			<path fill="#FFFFFF" d="M802,227.3c-2-3.7-4.3-7.2-6.8-10.5c-1-1.3-3.3,0-2.3,1.3c2.5,3.3,4.8,6.8,6.8,10.5
				C800.6,230.1,802.8,228.8,802,227.3L802,227.3z"/>
		</g>
	</g>
	<g>
		<g>
			<path fill="#FFFFFF" d="M792.8,244.1c-4.2-1.2-8-2.9-11.7-5.2c-1.4-0.9-2.7,1.4-1.3,2.3c3.8,2.4,8,4.2,12.3,5.5
				C793.7,247.1,794.4,244.5,792.8,244.1L792.8,244.1z"/>
		</g>
	</g>
	<g>
		<g>
			<path fill="#FFFFFF" d="M793.7,269.1c-5.6,0.9-10.9,2.6-16,5c-1.5,0.7-0.2,3,1.3,2.3c4.9-2.3,10-3.8,15.4-4.7
				C796.1,271.4,795.4,268.8,793.7,269.1L793.7,269.1z"/>
		</g>
	</g>
	<g>
		<g>
			<path fill="#FFFFFF" d="M831,232c0.3-1.9,0.9-3.8,1.8-5.5c0.8-1.5-1.5-2.8-2.3-1.3c-1,1.9-1.7,4-2,6.2
				C828.2,232.9,830.7,233.7,831,232L831,232z"/>
		</g>
	</g>
	<g>
		<g>
			<path fill="#FFFFFF" d="M808,289.1c-1.7,2.6-3.1,5.3-4.2,8.3c-0.6,1.6,2,2.3,2.5,0.7c1-2.7,2.3-5.2,3.9-7.6
				C811.2,289,809,287.7,808,289.1L808,289.1z"/>
		</g>
	</g>
	<g>
		<g>
			<path fill="#FFFFFF" d="M839.5,286.2c1.6,0.9,3.1,1.8,4.7,2.7c1.5,0.8,2.8-1.4,1.3-2.3c-1.6-0.9-3.1-1.8-4.7-2.7
				C839.4,283.1,838.1,285.4,839.5,286.2L839.5,286.2z"/>
		</g>
	</g>
	<g>
		<g>
			<path fill="#FFFFFF" d="M1102.4,234.2c-2.2-5.1-5.5-9.2-9.8-12.7c-0.8-0.6-2.4-0.6-2.6,0.7c-0.5,3.5-0.5,16.1-5.2,16.7
				c-4.6,0.6-8.7,2-12.7,4.2c-0.9,0.5-1,1.8-0.3,2.5c3.9,4,10.1,3.3,11.5,9.7c1,4.4,0.3,8.6,2.9,12.6c0.6,0.9,1.7,1,2.5,0.3
				c2.5-2.1,4.9-4.4,6.8-7.1c3.3-4.4,10.5,0.3,14.7,1.4c3.8,1,5.3-4.1,3.2-6.5c-1.8-2-3.8-3.2-3.3-6.7c0.3-2.2,2-4.2,3.3-6
				c1.3-1.8,4.2-5,3.7-7.5c-1.2-5.5-12.7-1.5-16.2-0.8c-2,0.4-1.2,3.4,0.8,3.1c3.8-0.7,7.6-1.3,11.5-1.7c1-0.1-3.9,7.4-4.3,7.9
				c-1.9,2.9-3.1,7.9-0.6,10.8c-0.2-0.2,4,4.7,1.6,4.1c-1.8-0.5-3.7-1.3-5.4-1.9c-1.9-0.6-4.7-2.2-6.8-1.8c-1.8,0.4-2.7,1.3-3.8,2.7
				c-2.2,2.9-4.5,5.4-7.3,7.7c0.8,0.1,1.7,0.2,2.5,0.3c-2.9-4.4-1.2-9.9-3.3-14.5c-2.5-5.3-7.8-4.7-11.5-8.4
				c-0.1,0.8-0.2,1.7-0.3,2.5c3.1-1.8,6.4-3,9.9-3.7c2.1-0.4,4.3-0.2,5.9-1.9c1.6-1.6,1.6-4.8,1.9-6.8c0.5-3.5,1.1-7,1.6-10.5
				c-0.9,0.2-1.8,0.5-2.6,0.7c4.2,3.3,7.2,7.2,9.3,12C1100.5,237.6,1103.2,236,1102.4,234.2L1102.4,234.2z"/>
		</g>
	</g>
	<g>
		<g>
			<path fill="#FFFFFF" d="M643.4,247.1c-10.8-8.1-24.4,9.2-16.6,18.7c1.6,2,5.3,1.9,7.5,1.9c3,0,5.8-0.9,7.9-3
				c2.1-2.1,2.9-5.8,3.3-8.6c0.5-3-0.1-5.7-2-8c-1.6-2-4.5,0.8-2.8,2.8c2.2,2.8,0.5,7.7-1,10.5c-1.5,2.8-9.6,3.6-10.7,0.4
				c-2.4-6.9,5.5-16.3,12.3-11.2C643.4,252.2,645.4,248.7,643.4,247.1L643.4,247.1z"/>
		</g>
	</g>
	<g>
		<g>
			<path fill="#FFFFFF" d="M631.8,247.6c-2.5-6.7-6.4-12.4-11.8-17.1c-3.3-2.9-10.9-8.5-15.3-4.4c-11.6,11,16.6,21.3,23.3,23.3
				c2.5,0.7,3.6-3.2,1.1-3.9c-4.3-1.2-8.3-2.8-12.3-4.8c-2-1-4-2.2-5.9-3.5c-1.1-0.7-2.1-1.5-3-2.4c-2.6-2.4-1.9-4.4,2.1-5.8
				c3.9,0.7,7.8,4.8,10.5,7.5c3.3,3.4,5.7,7.7,7.4,12.2C628.8,251.1,632.7,250.1,631.8,247.6L631.8,247.6z"/>
		</g>
	</g>
	<g>
		<g>
			<path fill="#FFFFFF" d="M603.4,228.2c-3.2,5.7-4.1,11.8-2.9,18.2c1.1,5.5,3.3,9.2-0.3,14.5c-1.6,2.3-2.5,4.2-2.8,7
				c-0.5,4.4,3.8,6.8,7.6,6.2c8.2-1.2,16.1-6.5,23.3-10.4c2.3-1.2,0.3-4.7-2-3.5c-4.9,2.7-9.8,5.2-14.9,7.7c-2.1,1-9.7,4.8-10,0
				c-0.2-2.6,2.7-5.5,3.9-7.6c2.1-3.6,1.1-7.8,0-11.5c-1.9-6.6-1.9-12.4,1.5-18.5C608.1,228,604.6,226,603.4,228.2L603.4,228.2z"/>
		</g>
	</g>
	<g>
		<g>
			<path fill="#FFFFFF" d="M643.3,251.8c1.5,1.2,3,1.4,4.7,0.4c4.1-2.4,8.1-4.9,12.1-7.6c3.6-2.5,7-5.1,10.4-7.8
				c2.5-2,7.1-4.5,7.1-8.2c0-1.8-2.3-3.2-4-3c-4.4,0.3-7.8,2.4-11.4,4.9c-7.2,5-13.2,11.4-18.1,18.6c-1.5,2.2,2,4.2,3.5,2
				c3-4.5,6.5-8.6,10.5-12.3c1.9-1.8,13-11.8,16-8.8c-0.2-0.7-0.3-1.3-0.5-2c-0.3,2-3.2,3.6-4.6,4.8c-2.6,2.2-5.3,4.2-8.1,6.2
				c-1.3,1-14.2,10.4-14.8,9.9C644.1,247.3,641.2,250.2,643.3,251.8L643.3,251.8z"/>
		</g>
	</g>
	<g>
		<g>
			<path fill="#FFFFFF" d="M674.5,231.6c5.2,3.6-3.2,12.1-5.2,15.1c-2.6,4-4.8,8.3-6.7,12.6c-1,2.4,2.4,4.4,3.5,2
				c3.3-7.7,8-13.9,12.5-20.9c2.7-4.2,2.1-9.5-2-12.3C674.4,226.7,672.4,230.2,674.5,231.6L674.5,231.6z"/>
		</g>
	</g>
	<g>
		<g>
			<path fill="#FFFFFF" d="M669.9,249.6c-5,7.2,5.8,14.4,0.4,21.2c-3.3,4.2-10.4,2-14.5,0.5c-4.7-1.7-8.6-4.9-11.8-8.6
				c-1.7-2-4.5,0.9-2.8,2.8c6.5,7.5,17.5,13.7,27.6,10.8c4.1-1.1,6.5-4.7,7.1-8.7c0.7-5-5.4-11.8-2.4-16.1
				C674.8,249.5,671.3,247.5,669.9,249.6L669.9,249.6z"/>
		</g>
	</g>
	<g>
		<g>
			<path fill="#FFFFFF" d="M648.8,260.7c1.9-2,4.2-3.2,6.9-3.6c-0.6-0.4-1.1-0.9-1.7-1.3c-0.2,1.4-1.1,2.3-2.4,2.9
				c-1.6,0.7-0.2,3,1.4,2.3c2.2-0.9,3.4-2.9,3.7-5.2c0.1-1-0.9-1.4-1.7-1.3c-3.1,0.4-6,2-8.1,4.3C645.8,260.1,647.7,262,648.8,260.7
				L648.8,260.7z"/>
		</g>
	</g>
	<g>
		<g>
			<path fill="#FFFFFF" d="M622.4,255c-2.3-2-5.4-2.3-8-0.9c-1.1,0.6-2.1,1.9-1.8,3.2c0.5,1.9,2.8,1.8,4.4,2.1
				c1.7,0.3,2.4-2.3,0.7-2.6c-1.1-0.2-2.2-0.4-3.2-0.6c0.3,0.2,0.5,0.4,0.8,0.6c-0.3-0.4,2.3-0.9,2.5-0.9c1,0,2,0.4,2.7,1
				C621.8,258,623.7,256.1,622.4,255L622.4,255z"/>
		</g>
	</g>
	<g>
		<g>
			<path fill="#FFFFFF" d="M408.8,576.6c-17.7-0.8-26.9,17-27.7,32.3c-0.2,5.2,0.4,10.3,1.2,15.4c0.6,4.3,1,9.3,2.8,13.3
				c3.8,8.7,13.7,7.4,21.7,8.1c4.6,0.4,8,0.4,11.7-2.4c3.7-2.7,6.8-6.4,9.7-9.9c6.2-7.4,12.3-15.6,16.6-24.2
				c8.3-16.4-3.5-35.5-22.1-34.6c-2.4,0.1-2.4,3.8,0,3.7c8.2-0.4,15.2,3.4,19.2,10.6c4.2,7.6,1.3,16-2.8,22.9
				c-3.7,6.1-8.1,12-12.5,17.7c-4.5,5.8-10,13.3-18,12.7c-3.7-0.3-7.4-0.7-11.1-1c-5.6-0.5-8.5-2.3-9.9-7.7
				c-1.9-7.3-2.7-15.3-2.8-22.8c-0.2-13.9,7.8-31.3,24-30.5C411.2,580.4,411.1,576.8,408.8,576.6L408.8,576.6z"/>
		</g>
	</g>
	<g>
		<g>
			<path fill="#FFFFFF" d="M407.4,578.5c-4,3.1-8.5,5.9-10.1,11c-0.5,1.5,1,2.5,2.3,2.3c6.1-0.9,10.4-5.1,14.4-9.5
				c-1.1-0.4-2.1-0.9-3.2-1.3c0.1,5.4,0.9,10.9,6.2,13.6c1.1,0.6,2.3,0,2.7-1.1c1.7-4.7,1.7-9.3-0.2-14c-1,0.6-2.1,1.2-3.1,1.8
				c2.9,2.4,5.9,3.6,9.7,3.6c1.1,0,2.2-1.2,1.8-2.3c-3.4-9.9-15.7-12.6-22.6-4.4c-1.5,1.8,1.1,4.4,2.6,2.6
				c4.9-5.9,13.8-4.8,16.4,2.8c0.6-0.8,1.2-1.6,1.8-2.3c-2.8,0-4.9-0.7-7.1-2.5c-1.3-1-3.8-0.1-3.1,1.8c1.6,4.1,1.7,7.9,0.2,12
				c0.9-0.4,1.8-0.7,2.7-1.1c-4.1-2.1-4.2-6.4-4.3-10.4c0-1.5-2-2.5-3.2-1.3c-3.6,4-7.3,7.8-12.8,8.6c0.8,0.8,1.5,1.5,2.3,2.3
				c1.3-4.2,5.8-6.8,9.1-9.3C411.9,579.7,409.2,577.1,407.4,578.5L407.4,578.5z"/>
		</g>
	</g>
	<g>
		<g>
			<path fill="#FFFFFF" d="M415.6,573.7c-1.3-3.9-1.7-7.7-1.3-11.8c-0.5,0.6-0.9,1.2-1.4,1.8c1.8-0.5,3.6-0.9,5.5-0.9
				c-0.6-0.8-1.2-1.6-1.8-2.3c-1.2,4.7-1.9,9.4-2.2,14.3c-0.2,2.4,3.5,2.4,3.7,0c0.3-4.5,1-8.9,2.1-13.3c0.3-1.1-0.5-2.4-1.8-2.3
				c-2.2,0.1-4.4,0.4-6.5,1.1c-0.8,0.2-1.3,0.9-1.4,1.8c-0.4,4.4,0.1,8.6,1.5,12.8C412.8,576.9,416.4,575.9,415.6,573.7L415.6,573.7
				z"/>
		</g>
	</g>
	<g>
		<g>
			<path fill="#FFFFFF" d="M420.8,599.3c-3.2,2.7-4.8,6.8-4.3,11c0.1,0.7,1,1.3,1.6,0.7c3-3.2,4.5-7.3,4.1-11.7
				c-0.1-1.2-2-1.2-1.8,0c0.3,3.9-0.9,7.6-3.6,10.4c0.5,0.2,1.1,0.4,1.6,0.7c-0.5-3.8,0.8-7.3,3.8-9.7
				C423,599.8,421.7,598.5,420.8,599.3L420.8,599.3z"/>
		</g>
	</g>
	<g>
		<g>
			<path fill="#FFFFFF" d="M429.1,597.7c0.1,0,0.1,0,0.2,0c0.4,0,0.8-0.3,0.9-0.7c0.2-0.6,0.1-0.9-0.3-1.4c-0.2-0.2-0.6-0.3-0.9-0.2
				c-1.5,0.6-1.5,2.2-1.8,3.6c-0.5,2.5-0.6,5-0.5,7.5c0,0.4,0.3,0.8,0.7,0.9c4.6,1.2,3.8-9.5,3.5-11.7c-0.1-1.2-2-1.2-1.8,0
				c0.1,1.1,0.4,10.3-1.2,9.9c0.2,0.3,0.5,0.6,0.7,0.9c0-1.4,0-2.7,0.1-4.1c0-0.7,0.2-5.1,0.9-5.3c-0.3-0.1-0.6-0.2-0.9-0.2
				c0.1,0.1,0.1,0.1,0.2,0.2c-0.1-0.3-0.2-0.6-0.2-0.9c0,0.1-0.1,0.2-0.1,0.3c0.3-0.2,0.6-0.5,0.9-0.7c-0.1,0-0.1,0-0.2,0
				C427.9,596,427.9,597.8,429.1,597.7L429.1,597.7z"/>
		</g>
	</g>
	<g>
		<g>
			<path fill="#FFFFFF" d="M438.9,598.2c-3.1,1.6-3.6,5.3-3.1,8.4c0.1,0.6,0.9,0.9,1.4,0.6c3-2.1,4-6,2.5-9.3
				c-0.5-1.1-2.1-0.1-1.6,0.9c1.1,2.4,0.3,5.3-1.9,6.8c0.5,0.2,0.9,0.4,1.4,0.6c-0.3-2.3,0-5.2,2.3-6.4
				C440.8,599.3,439.9,597.7,438.9,598.2L438.9,598.2z"/>
		</g>
	</g>
	<g>
		<g>
			<path fill="#FFFFFF" d="M410.3,618.4c-2.5,3-3.9,6.5-4.1,10.4c0,0.5,0.4,1,0.9,0.9c4.7-0.4,4.7-7.2,5.3-10.6
				c0.2-1.2-1.6-1.7-1.8-0.5c-0.4,2.1-0.5,9-3.5,9.2c0.3,0.3,0.6,0.6,0.9,0.9c0.2-3.4,1.4-6.5,3.5-9.1
				C412.4,618.8,411.1,617.5,410.3,618.4L410.3,618.4z"/>
		</g>
	</g>
	<g>
		<g>
			<path fill="#FFFFFF" d="M421.6,619.1c0.1,0,0.1,0,0.2,0.1c0.3,0.1,0.7,0,0.9-0.2c0.5-0.5,0.7-1.2,0.2-1.8c-0.7-1-1.8-0.3-2.5,0.3
				c-2.6,2.2-3.7,6.4-4,9.6c-0.1,0.7,0.8,1.2,1.4,0.8c3.6-2.4,5.6-6.5,5.4-10.8c-0.1-1.2-1.9-1.2-1.8,0c0.2,3.7-1.4,7.1-4.5,9.2
				c0.5,0.3,0.9,0.5,1.4,0.8c0.1-1.5,0.4-2.9,0.9-4.3c0.4-1,1.7-4.2,2.9-4.3c-0.3-0.2-0.5-0.3-0.8-0.5c0-0.1,0.1-0.3,0.1-0.4
				c0.3-0.1,0.6-0.2,0.9-0.2c-0.1,0-0.1,0-0.2-0.1C420.9,616.9,420.4,618.7,421.6,619.1L421.6,619.1z"/>
		</g>
	</g>
	<g>
		<g>
			<path fill="#FFFFFF" d="M429.9,619.8c0.1,0,0.1,0,0.2,0.1c0.3,0.1,0.7,0,0.9-0.2c1.3-1.3-0.5-2.9-1.9-1.8c-2.2,1.8-3.9,4.4-5,7
				c-0.3,0.8,0.4,1.8,1.3,1.3c3.3-1.8,5.3-5,5.8-8.7c0.2-1.2-1.7-1.2-1.8,0c-0.4,3-2.2,5.6-4.9,7.1c0.4,0.4,0.8,0.8,1.3,1.3
				c0.5-1.2,1.1-2.3,1.8-3.3c0.4-0.6,2.1-3.3,2.9-3.2c-0.3-0.2-0.5-0.3-0.8-0.5c0-0.2,0-0.4,0.1-0.5c0.3-0.1,0.6-0.2,0.9-0.2
				c-0.1,0-0.1,0-0.2-0.1C429.2,617.6,428.8,619.4,429.9,619.8L429.9,619.8z"/>
		</g>
	</g>
	<g>
		<g>
			<path fill="#FFFFFF" d="M404,633.1c-1.3,0.8-1.9,2-2.3,3.5c-0.3,1.2-0.2,2.9,1.5,2.9c1.3,0,2.5-1.6,3.1-2.6
				c0.7-1.3,0.9-2.9,0.5-4.4c-0.3-1.2-2-0.7-1.8,0.5c0.3,1.5-0.1,3-1.1,4.1c-0.3,0.3-0.5,0.3-0.4,0.7c0-0.3,0.1-0.7,0.1-1
				c0.2-0.8,0.6-1.6,1.3-2C405.9,634.1,405,632.5,404,633.1L404,633.1z"/>
		</g>
	</g>
	<g>
		<g>
			<path fill="#FFFFFF" d="M414.8,635.3c-0.5,0-1,0-1.5,0c-0.6,0-0.9,0.6-1.2,1.1c-0.5,1-0.8,2.2-0.8,3.4c0,0.5,0.4,1,0.9,0.9
				c2.2-0.3,3.9-2.2,3.7-4.5c-0.1-1.2-2-1.2-1.8,0c0.1,1.2-0.6,2.4-1.9,2.6c0.3,0.3,0.6,0.6,0.9,0.9c0-1.1,0.3-2.1,0.9-3.1
				c-0.3,0.2-0.5,0.3-0.8,0.5c0.5,0,1,0,1.5,0C416,637.1,416,635.2,414.8,635.3L414.8,635.3z"/>
		</g>
	</g>
	<g>
		<g>
			<path fill="#FFFFFF" d="M404.3,600c0.2-1.2-0.4-2-1.6-2.1c-0.3,0-0.7,0.2-0.8,0.5c-1.2,2.4-1.1,5,0.3,7.3c0.3,0.5,1,0.6,1.4,0.2
				c1.9-1.6,2.3-4.4,1-6.5c-0.6-1-2.2-0.1-1.6,0.9c0.9,1.4,0.6,3.1-0.7,4.2c0.5,0.1,1,0.1,1.4,0.2c-1-1.7-1.2-3.6-0.3-5.4
				c-0.3,0.2-0.5,0.3-0.8,0.5c0-0.1-0.1-0.2-0.1-0.2C402.4,600.7,404.1,601.2,404.3,600L404.3,600z"/>
		</g>
	</g>
	<g>
		<g>
			<path fill="#FFFFFF" d="M398,616c-2.2,1.5-2.2,4.8,0,6.3c0.5,0.3,1.2,0,1.4-0.6c0.3-1,0.7-2,1-3c0.4-1.1-1.4-1.6-1.8-0.5
				c-0.3,1-0.7,2-1,3c0.5-0.2,0.9-0.4,1.4-0.6c-1-0.7-1.1-2.4,0-3.1C399.9,616.9,399,615.3,398,616L398,616z"/>
		</g>
	</g>
	<g>
		<g>
			<path fill="#FFFFFF" d="M395.3,629c-1,1.1-1.4,2.6-1,4c0.1,0.4,0.5,0.7,0.9,0.7c1.7-0.2,2.4-1.7,2.7-3.2c0.2-1.2-1.6-1.7-1.8-0.5
				c-0.1,0.5-0.3,1.8-0.9,1.9c0.3,0.2,0.6,0.5,0.9,0.7c-0.2-0.8,0-1.6,0.6-2.2C397.4,629.4,396.1,628.1,395.3,629L395.3,629z"/>
		</g>
	</g>
	<g>
		<g>
			<path fill="#FFFFFF" d="M394.3,596.3c-0.8,1.6-1.1,3.2-1,5c0,0.6,0.6,1.1,1.2,0.9c1.9-0.7,3-2.6,2.5-4.6c-0.3-1.2-2-0.7-1.8,0.5
				c0.2,1-0.3,2-1.3,2.3c0.4,0.3,0.8,0.6,1.2,0.9c-0.1-1.4,0.1-2.8,0.8-4.1C396.4,596.2,394.8,595.2,394.3,596.3L394.3,596.3z"/>
		</g>
	</g>
	<g>
		<g>
			<path fill="#FFFFFF" d="M391,611.4c-1.3,1.1-1.6,3.1-0.7,4.5c0.3,0.5,1,0.6,1.4,0.2c0.8-0.9,1.2-1.9,1.4-3.1
				c0.1-0.5-0.5-0.9-0.9-0.9c-0.5,0-0.9,0.4-0.9,0.9c-0.1,0.7-0.4,1.3-0.8,1.8c0.5,0.1,1,0.1,1.4,0.2c-0.5-0.8-0.3-1.7,0.4-2.3
				c0.4-0.3,0.3-1,0-1.3C392,611,391.4,611.1,391,611.4L391,611.4z"/>
		</g>
	</g>
	<g>
		<g>
			<path fill="#FFFFFF" d="M387.5,626.5c0.4,1.4,0.8,2.7,1.2,4.1c0.2,0.7,1.3,1,1.7,0.2c0.7-1.6,0.5-3.3-0.6-4.6
				c-0.8-0.9-2.1,0.4-1.3,1.3c0.6,0.6,0.7,1.6,0.4,2.3c0.6,0.1,1.1,0.1,1.7,0.2c-0.4-1.4-0.8-2.7-1.2-4.1
				C388.9,624.9,387.2,625.4,387.5,626.5L387.5,626.5z"/>
		</g>
	</g>
	<g>
		<g>
			<path fill="#FFFFFF" d="M187.4,607.7c6.2-11.4,12.4-22.8,18.6-34.1c0.8-1.6-0.2-3.4-2-3.5c-11.6-0.4-23.3-0.3-34.8,0.8
				c-3.4,0.3-5.5,2.2-6.8,5.3c-2.2,5.2-3.5,11-5.1,16.4c-1.6,5.5-3.2,11-4.7,16.6c-0.9,3.1-1.7,6.2-2.5,9.3
				c-0.4,1.3-1.3,3.9-0.7,5.3c1.1,2.8,3,3.6,5.9,3.6c6.1,0,12.3-0.6,18.3-0.9c2.9-0.1,3-4.7,0-4.6c-3.7,0.2-7.3,0.4-11,0.5
				c-1.8,0.1-3.7,0.2-5.5,0.3c-4,0.2-2.9-2-2.1-4.9c2.1-8,4.4-16,6.7-24c1.1-3.7,2.2-7.3,3.3-11c0.6-1.8,1.1-3.8,1.8-5.5
				c1.1-2.6,7.4-2.2,9.7-2.3c9.1-0.5,18.3-0.5,27.4-0.3c-0.7-1.2-1.3-2.3-2-3.5c-6.2,11.4-12.4,22.8-18.6,34.1
				C182,608,186,610.4,187.4,607.7L187.4,607.7z"/>
		</g>
	</g>
	<g>
		<g>
			<path fill="#FFFFFF" d="M170.8,624.8c-2.5,6.1-5.1,12.2-7.6,18.4c-1.4,3.4-2.2,6.2,1.1,8.6c2.8,2,7.9-1.3,10.1-2.8
				c4.7-3.3,8.5-8.2,12.4-12.3c4.3-4.6,8.6-9.2,12.7-13.9c3.3-3.7,7.4-7.5,9.3-12.2c3.5-8.8-20.4-5.5-23.4-5.4c-3,0.1-3,4.7,0,4.6
				c3.8-0.1,7.6-0.2,11.3-0.2c1.9,0,3.8-0.1,5.7-0.1c2.5-0.1-2.4,5.8-2.5,5.9c-4.8,5.8-10,11.3-15.1,16.8c-4.7,5-9.3,11-15.3,14.6
				c-5.4,3.2-0.4-5.9,0.3-7.7c1.8-4.3,3.6-8.6,5.3-12.9C176.4,623.3,171.9,622.1,170.8,624.8L170.8,624.8z"/>
		</g>
	</g>
	<g>
		<g>
			<path fill="#FFFFFF" d="M187.3,582.2c-2.9,5.3-5.5,10.8-7.7,16.5c-0.7,1.8,2.2,2.6,3,0.8c2.1-5.4,4.6-10.7,7.4-15.8
				C190.9,582,188.3,580.5,187.3,582.2L187.3,582.2z"/>
		</g>
	</g>
	<g>
		<g>
			<path fill="#FFFFFF" d="M191.5,615.9c-5.2,5.4-10,11.1-14.6,16.9c-1.2,1.5,1,3.7,2.2,2.2c4.6-5.9,9.5-11.5,14.6-16.9
				C195.1,616.6,192.9,614.5,191.5,615.9L191.5,615.9z"/>
		</g>
	</g>
	<g>
		<g>
			<path fill="#FFFFFF" d="M1077.6,602.8c-10.8-8.1-24.4,9.2-16.6,18.7c1.6,2,5.3,1.9,7.5,1.9c3,0,5.8-0.9,7.9-3
				c2.1-2.1,2.9-5.8,3.3-8.6c0.5-3-0.1-5.7-2-8c-1.6-2-4.5,0.8-2.8,2.8c2.2,2.8,0.5,7.7-1,10.5c-1.5,2.8-9.6,3.6-10.7,0.4
				c-2.4-6.9,5.5-16.3,12.3-11.2C1077.7,607.8,1079.7,604.3,1077.6,602.8L1077.6,602.8z"/>
		</g>
	</g>
	<g>
		<g>
			<path fill="#FFFFFF" d="M1066.1,603.3c-2.5-6.7-6.4-12.4-11.8-17.1c-3.3-2.9-10.9-8.5-15.3-4.4c-11.6,11,16.6,21.3,23.3,23.3
				c2.5,0.7,3.6-3.2,1.1-3.9c-4.3-1.2-8.3-2.8-12.3-4.8c-2-1-4-2.2-5.9-3.5c-1.1-0.7-2.1-1.5-3-2.4c-2.6-2.4-1.9-4.4,2.1-5.8
				c3.9,0.7,7.8,4.8,10.5,7.5c3.3,3.4,5.7,7.7,7.4,12.2C1063.1,606.7,1067,605.7,1066.1,603.3L1066.1,603.3z"/>
		</g>
	</g>
	<g>
		<g>
			<path fill="#FFFFFF" d="M1037.6,583.9c-3.2,5.7-4.1,11.8-2.9,18.2c1.1,5.5,3.3,9.2-0.3,14.5c-1.6,2.3-2.5,4.2-2.8,7
				c-0.5,4.4,3.8,6.8,7.6,6.2c8.2-1.2,16.1-6.5,23.3-10.4c2.3-1.2,0.3-4.7-2-3.5c-4.9,2.7-9.8,5.2-14.9,7.7c-2.1,1-9.7,4.8-10,0
				c-0.2-2.6,2.7-5.5,3.9-7.6c2.1-3.6,1.1-7.8,0-11.5c-1.9-6.6-1.9-12.4,1.5-18.5C1042.4,583.6,1038.9,581.6,1037.6,583.9
				L1037.6,583.9z"/>
		</g>
	</g>
	<g>
		<g>
			<path fill="#FFFFFF" d="M1077.5,607.4c1.5,1.2,3,1.4,4.7,0.4c4.1-2.4,8.1-4.9,12.1-7.6c3.6-2.5,7-5.1,10.4-7.8
				c2.5-2,7.1-4.5,7.1-8.2c0-1.8-2.3-3.2-4-3c-4.4,0.3-7.8,2.4-11.4,4.9c-7.2,5-13.2,11.4-18.1,18.6c-1.5,2.2,2,4.2,3.5,2
				c3-4.5,6.5-8.6,10.5-12.3c1.9-1.8,13-11.8,16-8.8c-0.2-0.7-0.3-1.3-0.5-2c-0.3,2-3.2,3.6-4.6,4.8c-2.6,2.2-5.3,4.2-8.1,6.2
				c-1.3,1-14.2,10.4-14.8,9.9C1078.4,603,1075.5,605.8,1077.5,607.4L1077.5,607.4z"/>
		</g>
	</g>
	<g>
		<g>
			<path fill="#FFFFFF" d="M1108.8,587.3c5.2,3.6-3.2,12.1-5.2,15.1c-2.6,4-4.8,8.3-6.7,12.6c-1,2.4,2.4,4.4,3.5,2
				c3.3-7.7,8-13.9,12.5-20.9c2.7-4.2,2.1-9.5-2-12.3C1108.7,582.3,1106.7,585.8,1108.8,587.3L1108.8,587.3z"/>
		</g>
	</g>
	<g>
		<g>
			<path fill="#FFFFFF" d="M1104.1,605.2c-5,7.2,5.8,14.4,0.4,21.2c-3.3,4.2-10.4,2-14.5,0.5c-4.7-1.7-8.6-4.9-11.8-8.6
				c-1.7-2-4.5,0.9-2.8,2.8c6.5,7.5,17.5,13.7,27.6,10.8c4.1-1.1,6.5-4.7,7.1-8.7c0.7-5-5.4-11.8-2.4-16.1
				C1109.1,605.1,1105.6,603.1,1104.1,605.2L1104.1,605.2z"/>
		</g>
	</g>
	<g>
		<g>
			<path fill="#FFFFFF" d="M1083.1,616.3c1.9-2,4.2-3.2,6.9-3.6c-0.6-0.4-1.1-0.9-1.7-1.3c-0.2,1.4-1.1,2.3-2.4,2.9
				c-1.6,0.7-0.2,3,1.4,2.3c2.2-0.9,3.4-2.9,3.7-5.2c0.1-1-0.9-1.4-1.7-1.3c-3.1,0.4-6,2-8.1,4.3
				C1080,615.7,1081.9,617.6,1083.1,616.3L1083.1,616.3z"/>
		</g>
	</g>
	<g>
		<g>
			<path fill="#FFFFFF" d="M1056.6,610.6c-2.3-2-5.4-2.3-8-0.9c-1.1,0.6-2.1,1.9-1.8,3.2c0.5,1.9,2.8,1.8,4.4,2.1
				c1.7,0.3,2.4-2.3,0.7-2.6c-1.1-0.2-2.2-0.4-3.2-0.6c0.3,0.2,0.5,0.4,0.8,0.6c-0.3-0.4,2.3-0.9,2.5-0.9c1,0,2,0.4,2.7,1
				C1056,613.6,1057.9,611.7,1056.6,610.6L1056.6,610.6z"/>
		</g>
	</g>
	<g>
		<g>
			<path fill="#FFFFFF" d="M888.3,608c-0.2-2,0.1-14.8-3.6-14.6c-2.5,0.2-3.5,1.9-5.1,3.7c-1.3,1.5-2.6,3.1-4,4.6
				c-1.8,2-7.5-0.7-9.5-1.3c-4.9-1.5-7.9,2-4.8,6.3c2.9,4,5.4,7.1,2.6,12.1c-1.6,2.9-2.4,5.8-2.3,9.2c0,0.8,0.7,1.7,1.6,1.6
				c2-0.2,3.8-0.6,5.7-1c1.8-0.4,6.2-3.2,7.9-1.7c2.5,2.2,6.2,6.5,9.8,6.5c2,0,3.3-2.3,3.4-4c0.1-3.9-0.7-7.1,2.6-10.2
				c2.1-2,5.1-3.3,7.6-4.8c0.6-0.4,0.9-1.1,0.7-1.8c-1.4-4.7-9.4-4.9-13.3-6c-2-0.5-2.8,2.5-0.8,3.1c2,0.5,10.4,1.5,11.1,3.8
				c0.2-0.6,0.5-1.2,0.7-1.8c-3.2,1.9-6.5,3.7-9.3,6.3c-2.8,2.6-2.7,6.2-2.4,9.8c0.4,5.1-5.8-1.1-6.5-1.8c-1.3-1.1-2.3-2.4-4-2.9
				c-0.8-0.2-1.7,0-2.5,0.3c-3.6,1.5-6.9,2.7-10.8,3.2c0.5,0.5,1.1,1.1,1.6,1.6c0-5.5,4.4-9.4,3.8-14.8c-0.2-1.6-1.1-3.1-1.9-4.5
				c-0.7-1.2-1.7-2.4-2.5-3.5c-2-2.7,1.9-1.4,3.2-1c4.6,1.4,8,2.9,11.5-1c1.8-2,3.6-4.1,5.4-6.2c-0.1,0.1,0.4,4.4,0.5,5.2
				c0.3,2,0.4,3.9,0.6,5.9C885.4,610,888.5,610.1,888.3,608L888.3,608z"/>
		</g>
	</g>
	<g>
		<g>
			<path fill="#FFFFFF" d="M293.6,426.1c-2.2-5.1-5.5-9.2-9.8-12.7c-0.8-0.6-2.4-0.6-2.6,0.7c-0.5,3.5-0.5,16.1-5.2,16.7
				c-4.6,0.6-8.7,2-12.7,4.2c-0.9,0.5-1,1.8-0.3,2.5c3.9,4,10.1,3.3,11.5,9.7c1,4.4,0.3,8.6,2.9,12.6c0.6,0.9,1.7,1,2.5,0.3
				c2.5-2.1,4.9-4.4,6.8-7.1c3.3-4.4,10.5,0.3,14.7,1.4c3.8,1,5.3-4.1,3.2-6.5c-1.8-2-3.8-3.2-3.3-6.7c0.3-2.2,2-4.2,3.3-6
				c1.3-1.8,4.2-5,3.7-7.5c-1.2-5.5-12.7-1.5-16.2-0.8c-2,0.4-1.2,3.4,0.8,3.1c3.8-0.7,7.6-1.3,11.5-1.7c1-0.1-3.9,7.4-4.3,7.9
				c-1.9,2.9-3.1,7.9-0.6,10.8c-0.2-0.2,4,4.7,1.6,4.1c-1.8-0.5-3.7-1.3-5.4-1.9c-1.9-0.6-4.7-2.2-6.8-1.8c-1.8,0.4-2.7,1.3-3.8,2.7
				c-2.2,2.9-4.5,5.4-7.3,7.7c0.8,0.1,1.7,0.2,2.5,0.3c-2.9-4.4-1.2-9.9-3.3-14.5c-2.5-5.3-7.8-4.7-11.5-8.4
				c-0.1,0.8-0.2,1.7-0.3,2.5c3.1-1.8,6.4-3,9.9-3.7c2.1-0.4,4.3-0.2,5.9-1.9c1.6-1.6,1.6-4.8,1.9-6.8c0.5-3.5,1.1-7,1.6-10.5
				c-0.9,0.2-1.8,0.5-2.6,0.7c4.2,3.3,7.2,7.2,9.3,12C291.7,429.6,294.4,428,293.6,426.1L293.6,426.1z"/>
		</g>
	</g>
</g>
<g id="arrows">
	<g>
		<g>
			<path fill="#FFFFFF" d="M196.4,192.1c-7.6,1.1-15.2,2.3-22.7,3.6c-5,0.9-10.8,0.4-11.5,6.4c-0.9,8.6-1.2,17.2-2.4,25.8
				c-1.1,8.1-2.7,16.1-4.6,24.1c-0.3,1.3,0.9,2.8,2.3,2.3c8.4-2.7,17-4.6,25.8-5.5c2.4-0.2,2.4-4,0-3.8c-9.1,0.9-18.1,2.8-26.8,5.6
				c0.8,0.8,1.5,1.5,2.3,2.3c3.1-13,5.2-26.3,6.4-39.6c0.3-3.1,0.5-6.3,0.6-9.4c0.2-4.5,5.1-4,8.8-4.7c7.6-1.4,15.1-2.6,22.7-3.6
				C199.8,195.4,198.8,191.8,196.4,192.1L196.4,192.1z"/>
		</g>
	</g>
	<g>
		<g>
			<path fill="#FFFFFF" d="M193.9,195.3c-3.9,12.1-6.5,24.5-7.9,37.1c-0.1,1.1,1.3,2.2,2.4,1.8c4.7-1.9,9.5-3.5,14.5-4.8
				c2.3-0.6,1.3-4.2-1-3.6c-4.9,1.3-9.7,2.9-14.5,4.8c0.8,0.6,1.6,1.2,2.4,1.8c1.4-12.3,4-24.3,7.8-36.1
				C198.2,193.9,194.6,193,193.9,195.3L193.9,195.3z"/>
		</g>
	</g>
	<g>
		<g>
			<path fill="#FFFFFF" d="M181.3,246.7c-1,7.3-2,14.5-3,21.8c-0.2,1.3,0.8,2.9,2.3,2.3c5.7-2.1,11.6-3.8,17.5-5.1
				c2.4-0.5,1.4-4.1-1-3.6c-6,1.3-11.8,3-17.5,5.1c0.8,0.8,1.5,1.5,2.3,2.3c1-7.3,2-14.5,3-21.8
				C185.2,245.4,181.6,244.3,181.3,246.7L181.3,246.7z"/>
		</g>
	</g>
	<g>
		<g>
			<path fill="#FFFFFF" d="M199.5,226.9c-3.5,9.3-6.5,18.8-9.2,28.3c-0.5,1.7,1.3,2.8,2.8,2.1c6.7-3,13.6-5.1,20.8-6.4
				c2.4-0.4,1.4-4-1-3.6c-7.5,1.3-14.7,3.6-21.7,6.7c0.9,0.7,1.8,1.4,2.8,2.1c2.7-9.6,5.7-19,9.2-28.3
				C204,225.7,200.3,224.7,199.5,226.9L199.5,226.9z"/>
		</g>
	</g>
	<g>
		<g>
			<path fill="#FFFFFF" d="M194.4,264.6c-1.7,9.2-3.2,18.4-2.6,27.8c0.1,1.7,2.6,2.7,3.5,0.9c4.2-8.2,8.5-16.4,12.9-24.6
				c2.2-4.1,4.4-8.1,6.6-12.2c1.7-3.2,3.8-5,2.2-8.4c-0.3-0.8-1.4-1-2.1-0.9c-0.5,0.1-1,0.2-1.5,0.4c-2.4,0.6-1.4,4.2,1,3.6
				c0.5-0.1,1-0.2,1.5-0.4c-0.7-0.3-1.4-0.6-2.1-0.9c0.7,1.5-4.2,8.4-5.1,9.9c-1.9,3.5-3.7,7-5.6,10.5c-3.7,7-7.4,14-11,21.1
				c1.2,0.3,2.3,0.6,3.5,0.9c-0.6-9.1,0.8-17.9,2.4-26.8C198.5,263.3,194.9,262.2,194.4,264.6L194.4,264.6z"/>
		</g>
	</g>
	<g>
		<g>
			<path fill="#FFFFFF" d="M197.1,195.7c0-0.1,0-0.3,0-0.4c-0.3,0.4-0.6,0.8-0.9,1.2c-0.2-0.1-0.4-0.1-0.6-0.2
				c0.2,0.8,0.4,1.6,0.6,2.5c0.4,1.6,0.7,3.3,1.1,4.9c0.7,2.9,1.3,5.7,2,8.6c0.4,1.6,2.8,0.9,2.4-0.7c-0.7-3.3-1.5-6.6-2.2-9.8
				c-0.5-2.3-0.5-5.8-2.2-7.5c-0.3-0.3-0.8-0.4-1.2-0.3c-0.2,0-0.3,0.1-0.5,0.1c-0.6,0.1-0.9,0.7-0.9,1.2c0,0.1,0,0.3,0,0.4
				C194.4,197.3,196.9,197.3,197.1,195.7L197.1,195.7z"/>
		</g>
	</g>
	<g>
		<g>
			<path fill="#FFFFFF" d="M199.8,211c-3.2,6.1-5.9,12.3-8,18.8c-0.5,1.5,1.9,2.2,2.4,0.7c2.1-6.3,4.7-12.4,7.8-18.2
				C202.7,210.9,200.6,209.6,199.8,211L199.8,211z"/>
		</g>
	</g>
	<g>
		<g>
			<path fill="#FFFFFF" d="M201.4,227.6c1.6,3.8,2.6,7.8,3.3,11.9c0.3,1.6,2.7,0.9,2.4-0.7c-0.6-4.1-1.7-8-3.3-11.9
				C203.2,225.5,200.8,226.1,201.4,227.6L201.4,227.6z"/>
		</g>
	</g>
	<g>
		<g>
			<path fill="#FFFFFF" d="M204.7,238.8c-1.7,4.3-3.3,8.7-5,13c-0.6,1.5,1.8,2.2,2.4,0.7c1.7-4.3,3.3-8.7,5-13
				C207.6,238,205.2,237.3,204.7,238.8L204.7,238.8z"/>
		</g>
	</g>
	<g>
		<g>
			<path fill="#FFFFFF" d="M214.6,250c1.7,5.8,2.7,11.6,3,17.7c0.1,1.6,2.6,1.6,2.5,0c-0.3-6.2-1.3-12.3-3.1-18.3
				C216.6,247.8,214.2,248.4,214.6,250L214.6,250z"/>
		</g>
	</g>
	<g>
		<g>
			<path fill="#FFFFFF" d="M192.2,295.1c1.1,3.9,2.8,7.4,5.1,10.7c0.9,1.3,3.1,0,2.2-1.3c-2.2-3.1-3.9-6.4-4.9-10.1
				C194.2,292.9,191.8,293.5,192.2,295.1L192.2,295.1z"/>
		</g>
	</g>
	<g>
		<g>
			<path fill="#FFFFFF" d="M198.8,304c8.2-11.8,18.7-23.8,22.2-38.1c0.4-1.6-2-2.2-2.4-0.7c-3.4,14-13.9,25.9-22,37.5
				C195.8,304.1,197.9,305.3,198.8,304L198.8,304z"/>
		</g>
	</g>
	<g>
		<g>
			<path fill="#FFFFFF" d="M180.3,269.9c0-0.1,0-0.1,0-0.2c-0.2,0.5-0.4,0.9-0.6,1.4c-0.2,0.1-0.4,0.2-0.6,0.2
				c0.2,0.3,0.4,0.7,0.6,1c0.4,0.7,0.9,1.3,1.3,2c0.9,1.3,1.7,2.7,2.6,4c0.9,1.4,3,0.1,2.2-1.3c-1.3-2-2.6-4-3.8-6
				c-0.7-1.2-1.8-3.1-3.5-2.1c-0.5,0.3-0.7,0.9-0.6,1.4c0,0.1,0,0.1,0,0.2C178.4,272.1,180.8,271.4,180.3,269.9L180.3,269.9z"/>
		</g>
	</g>
	<g>
		<g>
			<path fill="#FFFFFF" d="M184.9,279.7c3.4-1.4,6.8-2.8,10.2-4.2c1.5-0.6,0.8-3-0.7-2.4c-3.4,1.4-6.8,2.8-10.2,4.2
				C182.7,277.9,183.4,280.3,184.9,279.7L184.9,279.7z"/>
		</g>
	</g>
	<g>
		<g>
			<path fill="#FFFFFF" d="M156.1,251.3c-3.1,6.3,3.2,10.5,6.8,14.7c1,1.2,2.8-0.5,1.8-1.8c-2.6-3.1-8.7-7-6.4-11.7
				C158.9,251.1,156.8,249.9,156.1,251.3L156.1,251.3z"/>
		</g>
	</g>
	<g>
		<g>
			<path fill="#FFFFFF" d="M163.3,263.9c-0.1,0-0.2,0-0.3,0c-0.5,0-1.1,0.4-1.2,0.9c0,0.1,0,0.2,0,0.3c-0.1,0.7,0.2,1.3,0.9,1.5
				c1.9,0.7,5.1-1.1,6.9-1.6c4.1-1.3,8.2-2.5,12.3-3.8c1.5-0.5,0.9-2.9-0.7-2.4c-3.2,1-6.4,2-9.6,3c-1.4,0.4-2.7,0.8-4.1,1.3
				c-0.8,0.2-3.5,1.5-4.2,1.2c0.3,0.5,0.6,1,0.9,1.5c0-0.1,0-0.2,0-0.3c-0.4,0.3-0.8,0.6-1.2,0.9c0.1,0,0.2,0,0.3,0
				C164.9,266.4,164.9,263.9,163.3,263.9L163.3,263.9z"/>
		</g>
	</g>
	<g>
		<g>
			<path fill="#FFFFFF" d="M197.5,283.6c1.2,3.8,2.4,7.6,3.7,11.5c0.5,1.5,2.9,0.9,2.4-0.7c-1.2-3.8-2.4-7.6-3.7-11.5
				C199.4,281.4,197,282,197.5,283.6L197.5,283.6z"/>
		</g>
	</g>
	<g>
		<g>
			<path fill="#FFFFFF" d="M204,274.8c1.5,3.7,3.1,7.4,4.6,11.2c0.6,1.5,3,0.8,2.4-0.7c-1.5-3.7-3.1-7.4-4.6-11.2
				C205.9,272.7,203.4,273.3,204,274.8L204,274.8z"/>
		</g>
	</g>
	<g>
		<g>
			<path fill="#FFFFFF" d="M209.2,265.4c1,1.9,1.9,3.8,2.7,5.7c0.3,0.7,2,4.1,1.6,4.8c0.6-0.1,1.1-0.3,1.7-0.4
				c-0.1,0-0.2-0.1-0.2-0.1c0.2,0.4,0.4,0.7,0.6,1.1c0-0.1,0-0.2,0-0.3c-0.4,0.4-0.8,0.8-1.2,1.2c0.1,0,0.1,0,0.2,0
				c1.6-0.2,1.6-2.7,0-2.5c-0.1,0-0.1,0-0.2,0c-0.6,0.1-1.3,0.5-1.2,1.2c0,0.1,0,0.2,0,0.3c0,0.4,0.2,0.9,0.6,1.1
				c0.1,0,0.2,0.1,0.2,0.1c0.6,0.3,1.3,0.2,1.7-0.4c1.1-1.8-0.4-4.2-1.1-5.9c-0.9-2.4-2-4.8-3.2-7.1
				C210.7,262.7,208.5,263.9,209.2,265.4L209.2,265.4z"/>
		</g>
	</g>
	<g>
		<g>
			<path fill="#FFFFFF" d="M185.8,269.8c1.1,2,2.2,4.1,3.3,6.1c0.8,1.4,2.9,0.2,2.2-1.3c-1.1-2-2.2-4.1-3.3-6.1
				C187.2,267.1,185,268.4,185.8,269.8L185.8,269.8z"/>
		</g>
	</g>
	<g>
		<g>
			<path fill="#FFFFFF" d="M162.9,252.2c2.8,3.8,5.6,7.7,8.5,11.5c0.9,1.3,3.1,0,2.2-1.3c-2.8-3.8-5.6-7.7-8.5-11.5
				C164.1,249.7,161.9,250.9,162.9,252.2L162.9,252.2z"/>
		</g>
	</g>
	<g>
		<g>
			<path fill="#FFFFFF" d="M173.1,249.4c1.7,3.5,3.4,7,5,10.5c0.7,1.5,2.9,0.2,2.2-1.3c-1.7-3.5-3.4-7-5-10.5
				C174.6,246.7,172.4,247.9,173.1,249.4L173.1,249.4z"/>
		</g>
	</g>
	<g>
		<g>
			<path fill="#FFFFFF" d="M194.1,243c1.1,2.8,2.5,5.3,4.3,7.7c1,1.3,3.1,0,2.2-1.3c-1.7-2.2-3.1-4.5-4.1-7.1
				C195.9,240.9,193.5,241.5,194.1,243L194.1,243z"/>
		</g>
	</g>
	<g>
		<g>
			<path fill="#FFFFFF" d="M198.9,236.5c0.5,2.9,1.6,5.6,3,8.2c0.8,1.4,2.9,0.1,2.2-1.3c-1.3-2.4-2.2-4.9-2.7-7.6
				C201,234.3,198.6,235,198.9,236.5L198.9,236.5z"/>
		</g>
	</g>
	<g>
		<g>
			<path fill="#FFFFFF" d="M189.5,219.7c1.1,2,2.2,4.1,3.3,6.1c0.8,1.4,2.9,0.2,2.2-1.3c-1.1-2-2.2-4.1-3.3-6.1
				C190.9,217,188.7,218.3,189.5,219.7L189.5,219.7z"/>
		</g>
	</g>
	<g>
		<g>
			<path fill="#FFFFFF" d="M192.6,209c0.8,3.7,2.2,7.1,4.2,10.3c0.9,1.4,3,0.1,2.2-1.3c-1.9-3-3.2-6.2-4-9.7
				C194.7,206.8,192.3,207.4,192.6,209L192.6,209z"/>
		</g>
	</g>
	<g>
		<g>
			<path fill="#FFFFFF" d="M492.8,472.3c20.8,5.6,42.7-6.8,48.9-27.3c6.7-22.4-7.2-45-28.7-51.9c-21.1-6.8-43.8,4.3-52.8,24.1
				c-9,19.7,1.3,43.8,21.1,51.9c2.2,0.9,3.2-2.7,1-3.6c-18.5-7.6-26.3-29.8-18.2-47.7c8.3-18.3,29.2-26.5,48-21.1
				c19.8,5.7,30.8,26,26.5,45.8c-4.3,19.6-25.7,31.2-44.6,26.1C491.5,468.1,490.5,471.7,492.8,472.3L492.8,472.3z"/>
		</g>
	</g>
	<g>
		<g>
			<path fill="#FFFFFF" d="M479.9,466c-2.5,6.1-7,10.6-12.9,13.4c-1.8,0.8-0.8,3.4,0.9,3.5c10.2,0.3,19.7-3.5,26.9-10.7
				c1.7-1.7-0.9-4.4-2.7-2.7c-6.6,6.6-15,9.9-24.3,9.6c0.3,1.2,0.6,2.3,0.9,3.5c6.9-3.2,11.8-8.6,14.7-15.6
				C484.4,464.8,480.8,463.8,479.9,466L479.9,466z"/>
		</g>
	</g>
	<g>
		<g>
			<path fill="#FFFFFF" d="M493.9,413.4c1.5,8.7,2.9,17.5,4,26.3c0.3,2.4,4.1,2.4,3.8,0c-1.2-9.1-2.6-18.2-4.2-27.3
				C497.1,410,493.5,411.1,493.9,413.4L493.9,413.4z"/>
		</g>
	</g>
	<g>
		<g>
			<path fill="#FFFFFF" d="M500.4,450.8c-0.6,0.8-0.3,2,0.4,2.6c0.9,0.8,2.2,0.9,3.1,0c0.7-0.7,0.9-1.8,0.5-2.7
				c-0.3-0.6-0.6-1.3-1.4-1.4c-0.4-0.1-0.7-0.1-1.1-0.1c-1.6,0.2-3.1,1.1-3.2,2.8c-0.1,1.2,0.9,1.9,1.8,2.3c0.8,0.3,1.5,0.3,2.3,0.1
				c1-0.2,1.9-0.8,2.2-1.8c0.2-0.7,0.1-1.5-0.1-2.1c-0.6-1.5-2-2.7-3.8-2.4c-1.2,0.3-2,1.7-1.9,2.9c0.2,1.4,1.1,2.8,2.7,2.6
				c1-0.1,1.9-0.8,1.9-1.9c0-1-0.9-2-1.9-1.9c-0.2,0-0.1,0,0.3,0.1c0.2,0,0.3,0.1,0.5,0.3c0.2,0.3,0.3,0.4,0.2,0.2
				c0.2,0.4,0.1,0.3,0.1,0.1c0,0.4,0.1,0.4,0,0.2c0-0.2,0.1-0.4,0,0.2c0-0.1,0-0.1,0-0.2c0,0.1-0.1,0.2-0.1,0.3
				c-0.2,0.3-0.3,0.3-0.2,0.2c-0.4,0.4-1,0.5-1.4,0.3c0.2,0.1,0.2,0.1-0.1-0.1c0.1,0.1,0.3,0.4,0.1,0c0,0.1,0.1,0.1,0.1,0.2
				c-0.2-0.4,0-0.1,0,0c0-0.3,0-0.3,0-0.1c0,0.4,0.1-0.4,0,0c0.3-0.4,0.6-0.7,0.9-1.1c-0.1,0.1-0.5,0.3-0.1,0.1
				c-0.1,0-0.2,0.1-0.3,0.1c0.3,0,0.3,0,0.1,0c-0.5,0,0.4,0.1-0.1,0c-0.2-0.1-0.2-0.1,0,0c-0.1,0-0.2-0.1-0.3-0.2
				c0.2,0.2,0.4,0.4,0.7,0.7c0.3,0.6,0.2,1-0.2,1.6c0.1-0.1,0.1-0.1-0.1,0.1c0.1,0,0.1-0.1,0.2-0.1c-0.5,0.2,0,0,0.1,0
				c-0.7,0.1,0.5,0.1-0.3,0c-0.4-0.3-0.7-0.6-1.1-0.9c0-0.1,0-0.1-0.1-0.2c0.2,0.7,0.4,0.2,0.7-1.3c0.3-0.1,0.6-0.2,0.9-0.3
				c-0.7,0.1-0.2,0.4,1.3,1.1c0,0.3,0,0.7,0,1c0,0.1-0.1,0.2-0.1,0.3c0.6-0.8,0.1-2.1-0.7-2.6C502,449.6,501,450,500.4,450.8
				L500.4,450.8z"/>
		</g>
	</g>
	<g>
		<g>
			<path fill="#FFFFFF" d="M495.7,414.8c2.6-0.6,4.4-1.5,6.5-3.1c-1.1-0.4-2.1-0.9-3.2-1.3c-0.1,5-0.1,10-0.2,15
				c0,2.5-0.1,5-0.1,7.5c0,1.1,0.6,6.6-0.2,7.4c0.8-0.1,1.5-0.2,2.3-0.3c0.2,0.3,0.5,0.7,0.7,1c-0.6,0.6-1.2,1.2-1.9,1.9
				c0.1,0,0.2,0,0.2,0c2.4-0.1,2.4-3.8,0-3.8c-0.1,0-0.2,0-0.2,0c-1.1,0-1.8,0.8-1.9,1.9c-0.1,1.1,0.3,1.6,1.2,2.2
				c0.7,0.5,1.7,0.2,2.3-0.3c2.6-2.4,1.2-8.7,1.3-11.9c0.1-6.9,0.2-13.8,0.3-20.6c0-1.8-2-2.3-3.2-1.3c-1.4,1.2-3,1.9-4.8,2.2
				C492.3,411.7,493.3,415.3,495.7,414.8L495.7,414.8z"/>
		</g>
	</g>
	<g>
		<g>
			<path fill="#FFFFFF" d="M495.3,415.7c-0.1,3.6,0.6,7.1,2.3,10.3c1.1,2.2,4.3,0.3,3.2-1.9c-1.3-2.6-1.9-5.4-1.7-8.4
				C499.2,413.3,495.4,413.3,495.3,415.7L495.3,415.7z"/>
		</g>
	</g>
	<g>
		<g>
			<path fill="#FFFFFF" d="M497.9,415c0.1,0,0.2,0,0.2,0c-0.4-0.2-0.9-0.4-1.3-0.5c-0.1-0.1-0.1-0.2-0.2-0.3c0,0.4-0.1,0.8-0.1,1.1
				c0,0.6-0.1,1.1-0.1,1.7c-0.1,1.1-0.2,2.3-0.3,3.4c-0.2,2.4,3.5,2.4,3.8,0c0.2-2.1,0.4-4.1,0.5-6.2c0.1-1.5-1-2.9-2.5-2.9
				C495.5,411.2,495.5,414.9,497.9,415L497.9,415z"/>
		</g>
	</g>
</g>
<g id="original_icon">
</g>
</svg>
